<?xml version="1.0" encoding="utf-8"?>
<!-- Generator: Adobe Illustrator 13.0.0, SVG Export Plug-In . SVG Version: 6.00 Build 14948)  -->
<!DOCTYPE svg PUBLIC "-//W3C//DTD SVG 1.0//EN" "http://www.w3.org/TR/2001/REC-SVG-20010904/DTD/svg10.dtd">
<svg version="1.0"
	 id="svg2" xmlns:svg="http://www.w3.org/2000/svg" xmlns:dc="http://purl.org/dc/elements/1.1/" inkscape:version="0.46" xmlns:inkscape="http://www.inkscape.org/namespaces/inkscape" xmlns:rdf="http://www.w3.org/1999/02/22-rdf-syntax-ns#" sodipodi:version="0.32" sodipodi:docname="10_inner.svg" xmlns:sodipodi="http://sodipodi.sourceforge.net/DTD/sodipodi-0.dtd" xmlns:cc="http://creativecommons.org/ns#" inkscape:output_extension="org.inkscape.output.svg.inkscape"
	 xmlns="http://www.w3.org/2000/svg" xmlns:xlink="http://www.w3.org/1999/xlink" x="0px" y="0px" width="959.74px"
	 height="779.84px" viewBox="0 0 959.74 779.84" enable-background="new 0 0 959.74 779.84" xml:space="preserve">
<inkscape:perspective  id="perspective35" inkscape:persp3d-origin="283.90869 : 273.70978 : 1" inkscape:vp_z="567.81738 : 410.56467 : 1" inkscape:vp_y="0 : 1000 : 0" inkscape:vp_x="0 : 410.56467 : 1" sodipodi:type="inkscape:persp3d">
	</inkscape:perspective>
<inkscape:path-effect  effect="spiro" id="path-effect3941" is_visible="true"></inkscape:path-effect>
<inkscape:path-effect  effect="spiro" id="path-effect3941-2" is_visible="true"></inkscape:path-effect>
<inkscape:path-effect  effect="spiro" id="path-effect3941-1" is_visible="true"></inkscape:path-effect>
<inkscape:path-effect  effect="spiro" id="path-effect3941-2-1" is_visible="true"></inkscape:path-effect>
<inkscape:path-effect  effect="spiro" id="path-effect3941-1-7" is_visible="true"></inkscape:path-effect>
<inkscape:path-effect  effect="spiro" id="path-effect3941-2-1-2" is_visible="true"></inkscape:path-effect>
<inkscape:path-effect  effect="spiro" id="path-effect23631" is_visible="true"></inkscape:path-effect>
<inkscape:path-effect  effect="spiro" id="path-effect23629" is_visible="true"></inkscape:path-effect>
<inkscape:perspective  id="perspective37" inkscape:persp3d-origin="372.04724 : 350.78739 : 1" inkscape:vp_z="744.09448 : 526.18109 : 1" inkscape:vp_y="0 : 1000 : 0" inkscape:vp_x="0 : 526.18109 : 1" sodipodi:type="inkscape:persp3d">
	</inkscape:perspective>
<g id="g3970">
</g>
<g id="Default" transform="matrix(2.757182e-2,0,0,-2.757182e-2,-213.253,575.99534)">
	<desc  id="desc32263">Master slide</desc>
</g>
<g id="g3883" transform="matrix(0,1.0416786,0.999985,0,-1812.6453,360.58343)">
	<path id="rect3006" fill="none" stroke="#FF0000" stroke-width="0.6137" d="M-172.402,2196.772c5.983,0,10.799-5.018,10.799-11.25
		V1818.96c0-6.233-4.816-11.25-10.799-11.25h-149.006c-5.983,0-10.8,5.018-10.8,11.25v366.562c0,6.233,4.817,11.25,10.8,11.25
		h99.117v-11.5c0-3.705,2.475-6.756,5.55-6.844l20.28-0.594c3.075-0.087,5.55,2.826,5.55,6.531v12.406H-172.402z"/>
</g>
<g id="g2430" transform="matrix(0,1.0416786,0.999985,0,-1421.6062,360.58343)">
	<path id="path2432" fill="none" stroke="#FF0000" stroke-width="0.6137" d="M-172.402,2194.966c5.983,0,10.799-5.018,10.799-11.25
		v-366.561c0-6.232-4.816-11.25-10.799-11.25h-149.006c-5.983,0-10.8,5.018-10.8,11.25v366.561c0,6.233,4.817,11.25,10.8,11.25
		h99.117v-11.5c0-3.705,2.475-6.756,5.55-6.844l20.28-0.594c3.075-0.088,5.55,2.826,5.55,6.531v12.406H-172.402z"/>
</g>
<g id="g2450" transform="matrix(0,1.0416786,0.999985,0,-1812.6453,360.58343)">
	<path id="path2452" fill="none" stroke="#FF0000" stroke-width="0.6137" d="M-1.797,2196.772c5.983,0,10.8-5.018,10.8-11.25
		V1818.96c0-6.233-4.817-11.25-10.8-11.25h-149.006c-5.983,0-10.8,5.018-10.8,11.25v366.562c0,6.233,4.817,11.25,10.8,11.25h99.117
		v-11.5c0-3.705,2.475-6.756,5.55-6.844l20.279-0.594c3.075-0.087,5.55,2.826,5.55,6.531v12.406H-1.797z"/>
</g>
<g id="g2454" transform="matrix(0,1.0416786,0.999985,0,-1421.6062,360.58343)">
	<path id="path2456" fill="none" stroke="#FF0000" stroke-width="0.6137" d="M-1.797,2195.148c5.983,0,10.8-5.018,10.8-11.25
		v-366.562c0-6.232-4.817-11.25-10.8-11.25h-149.006c-5.983,0-10.8,5.018-10.8,11.25v366.562c0,6.233,4.817,11.25,10.8,11.25h99.117
		v-11.5c0-3.705,2.475-6.756,5.55-6.844l20.279-0.594c3.075-0.088,5.55,2.826,5.55,6.531v12.406H-1.797z"/>
</g>
<g id="g2458" transform="translate(0,-359.44998)">
	<g id="g2460" transform="matrix(0,1.0416786,0.999985,0,-1812.6453,360.58343)">
		<path id="path2462" fill="none" stroke="#FF0000" stroke-width="0.6137" d="M513.878,2196.847c5.983,0,10.8-5.018,10.8-11.25
			v-366.562c0-6.233-4.817-11.25-10.8-11.25H364.87c-5.983,0-10.8,5.018-10.8,11.25v366.562c0,6.233,4.817,11.25,10.8,11.25h99.118
			v-11.5c0-3.705,2.475-6.756,5.55-6.844l20.28-0.594c3.075-0.087,5.55,2.826,5.55,6.531v12.406H513.878z"/>
	</g>
	<g id="g2464" transform="matrix(0,1.0416786,0.999985,0,-1421.6062,360.58343)">
		<path id="path2466" fill="none" stroke="#FF0000" stroke-width="0.6137" d="M513.878,2195.967c5.983,0,10.8-5.018,10.8-11.25
			v-366.562c0-6.233-4.817-11.25-10.8-11.25H364.87c-5.983,0-10.8,5.018-10.8,11.25v366.562c0,6.233,4.817,11.25,10.8,11.25h99.118
			v-11.5c0-3.705,2.475-6.756,5.55-6.844l20.28-0.594c3.075-0.088,5.55,2.826,5.55,6.531v12.406H513.878z"/>
	</g>
</g>
<g id="g2468" transform="translate(0,-540.09106)">
	<g id="g2470" transform="matrix(0,1.0416786,0.999985,0,-1812.6453,360.58343)">
		<path id="path2472" fill="none" stroke="#FF0000" stroke-width="0.6137" d="M863.395,2198.106c5.983,0,10.8-5.018,10.8-11.25
			v-366.562c0-6.233-4.817-11.25-10.8-11.25H714.388c-5.983,0-10.8,5.018-10.8,11.25v366.562c0,6.233,4.817,11.25,10.8,11.25h99.117
			v-11.5c0-3.705,2.475-6.756,5.55-6.844l20.28-0.594c3.075-0.087,5.55,2.826,5.55,6.531v12.406H863.395z"/>
	</g>
	<g id="g2474" transform="matrix(0,1.0416786,0.999985,0,-1421.6062,360.58343)">
		<path id="path2476" fill="none" stroke="#FF0000" stroke-width="0.6137" d="M863.395,2197.226c5.983,0,10.8-5.018,10.8-11.25
			v-366.562c0-6.233-4.817-11.25-10.8-11.25H714.388c-5.983,0-10.8,5.018-10.8,11.25v366.562c0,6.233,4.817,11.25,10.8,11.25h99.117
			v-11.5c0-3.705,2.475-6.756,5.55-6.844l20.28-0.594c3.075-0.088,5.55,2.826,5.55,6.531v12.406H863.395z"/>
	</g>
</g>
<g id="g2478" transform="matrix(0,1,-1,0,866.98165,264.76543)">
	<g id="g2480" transform="matrix(0,1.0416786,0.999985,0,-1812.6453,360.58343)">
		<path id="path2482" fill="none" stroke="#FF0000" stroke-width="0.6137" d="M-422.182,1953.048c-5.983,0-10.8,5.018-10.8,11.25
			v366.562c0,6.232,4.817,11.25,10.8,11.25h149.004c5.983,0,10.8-5.018,10.8-11.25v-366.562c0-6.232-4.817-11.25-10.8-11.25h-99.117
			v11.5c0,3.705-2.475,6.756-5.55,6.844l-20.28,0.594c-3.075,0.088-5.55-2.826-5.55-6.531v-12.406H-422.182z"/>
	</g>
	<g id="g2484" transform="matrix(0,1.0416786,0.999985,0,-1421.6062,360.58343)">
		<path id="path2486" fill="none" stroke="#FF0000" stroke-width="0.6137" d="M-422.182,1171.838c-5.983,0-10.8,5.017-10.8,11.25
			v366.562c0,6.233,4.817,11.25,10.8,11.25h149.004c5.983,0,10.8-5.018,10.8-11.25v-366.562c0-6.233-4.817-11.25-10.8-11.25h-99.117
			v11.5c0,3.705-2.475,6.756-5.55,6.843l-20.28,0.594c-3.075,0.087-5.55-2.826-5.55-6.531v-12.406H-422.182z"/>
	</g>
</g>
</svg>
