<?xml version="1.0" encoding="utf-8"?>
<!-- Generator: Adobe Illustrator 13.0.0, SVG Export Plug-In . SVG Version: 6.00 Build 14948)  -->
<!DOCTYPE svg PUBLIC "-//W3C//DTD SVG 1.0//EN" "http://www.w3.org/TR/2001/REC-SVG-20010904/DTD/svg10.dtd">
<svg version="1.0"
	 id="svg2" inkscape:output_extension="org.inkscape.output.svg.inkscape" xmlns:inkscape="http://www.inkscape.org/namespaces/inkscape" sodipodi:version="0.32" xmlns:cc="http://creativecommons.org/ns#" xmlns:rdf="http://www.w3.org/1999/02/22-rdf-syntax-ns#" xmlns:dc="http://purl.org/dc/elements/1.1/" xmlns:sodipodi="http://sodipodi.sourceforge.net/DTD/sodipodi-0.dtd" sodipodi:docname="notched.svg" inkscape:version="0.46" xmlns:svg="http://www.w3.org/2000/svg"
	 xmlns="http://www.w3.org/2000/svg" xmlns:xlink="http://www.w3.org/1999/xlink" x="0px" y="0px" width="389.688px"
	 height="178.344px" viewBox="0 0 389.688 178.344" enable-background="new 0 0 389.688 178.344" xml:space="preserve">
<inkscape:perspective  id="perspective35" inkscape:vp_z="567.81738 : 410.56467 : 1" inkscape:vp_y="0 : 1000 : 0" inkscape:persp3d-origin="283.90869 : 273.70978 : 1" sodipodi:type="inkscape:persp3d" inkscape:vp_x="0 : 410.56467 : 1">
	</inkscape:perspective>
<inkscape:path-effect  effect="spiro" id="path-effect3941" is_visible="true"></inkscape:path-effect>
<inkscape:path-effect  effect="spiro" id="path-effect3941-2" is_visible="true"></inkscape:path-effect>
<inkscape:path-effect  effect="spiro" id="path-effect3941-1" is_visible="true"></inkscape:path-effect>
<inkscape:path-effect  effect="spiro" id="path-effect3941-2-1" is_visible="true"></inkscape:path-effect>
<inkscape:path-effect  effect="spiro" id="path-effect3941-1-7" is_visible="true"></inkscape:path-effect>
<inkscape:path-effect  effect="spiro" id="path-effect3941-2-1-2" is_visible="true"></inkscape:path-effect>
<inkscape:path-effect  effect="spiro" id="path-effect23631" is_visible="true"></inkscape:path-effect>
<inkscape:path-effect  effect="spiro" id="path-effect23629" is_visible="true"></inkscape:path-effect>
<inkscape:perspective  id="perspective37" inkscape:vp_z="744.09448 : 526.18109 : 1" inkscape:vp_y="0 : 1000 : 0" inkscape:persp3d-origin="372.04724 : 350.78739 : 1" sodipodi:type="inkscape:persp3d" inkscape:vp_x="0 : 526.18109 : 1">
	</inkscape:perspective>
<desc  id="desc32263">Master slide</desc>
<g id="XMLID_1_">
	<g>
		<path fill="none" stroke="#000000" d="M108.886-93.956c0.33,0,0.65-0.021,0.971-0.05"/>
		<path fill="none" stroke="#000000" d="M109.856-94.005c4.569-0.511,8.109-4.53,8.109-9.45v-20.63h-6.26
			c-6.24,0-11.24-5.03-11.24-11.25v-12.2c0-6.22,5-11.24,11.24-11.24h6.26v-103c0-5.26-4.05-9.5-9.08-9.5h-370.529
			c-5.02,0-9.06,4.24-9.06,9.5v158.32c0,5.26,4.04,9.5,9.06,9.5h370.02"/>
		<path fill="none" stroke="#000000" d="M108.886-93.955"/>
		<line fill="none" stroke="#000000" x1="108.886" y1="-93.956" x2="108.376" y2="-93.956"/>
		<path fill="none" stroke="#000000" d="M506.506-263.226c-0.66-4.57-4.397-8.05-8.959-8.05H127.016c-5.01,0-9.05,4.24-9.05,9.5"/>
		<path fill="none" stroke="#000000" d="M506.617-124.085h-6.25c-6.24,0-11.25-5.03-11.25-11.25v-12.2
			c0-6.22,5.01-11.24,11.25-11.24h6.25v-103c0-0.14,0-0.29-0.021-0.43c-0.01-0.35-0.041-0.69-0.09-1.02"/>
		<path fill="none" stroke="#000000" d="M506.387-101.327c0.15-0.68,0.23-1.4,0.23-2.13"/>
		<path fill="none" stroke="#000000" d="M497.547-93.956c4.33,0,7.92-3.141,8.84-7.37"/>
		<line fill="none" stroke="#000000" x1="127.017" y1="-93.956" x2="495.877" y2="-93.956"/>
		<path fill="none" stroke="#000000" d="M117.976-102.956c0.25,5.02,4.189,9,9.039,9"/>
		<path fill="none" stroke="#000000" d="M117.966-103.456c0,0.17,0,0.33,0.011,0.5"/>
		<line fill="none" stroke="#000000" x1="117.966" y1="-158.776" x2="117.966" y2="-124.085"/>
		<path fill="none" stroke="#000000" d="M127.017-93.956"/>
		<line fill="none" stroke="#000000" x1="497.547" y1="-93.956" x2="495.877" y2="-93.956"/>
		<path fill="none" stroke="#000000" d="M497.545-93.957"/>
		<path fill="none" stroke="#000000" d="M506.617-101.545"/>
		<polyline fill="none" stroke="#000000" points="506.617,-124.085 506.617,-103.456 506.617,-101.545 		"/>
		<path fill="none" stroke="#000000" d="M506.617-124.085"/>
		<path fill="none" stroke="#000000" d="M506.617-158.776"/>
	</g>
</g>
</svg>
