<?xml version="1.0" encoding="utf-8"?>
<!-- Generator: Adobe Illustrator 13.0.0, SVG Export Plug-In . SVG Version: 6.00 Build 14948)  -->
<!DOCTYPE svg PUBLIC "-//W3C//DTD SVG 1.0//EN" "http://www.w3.org/TR/2001/REC-SVG-20010904/DTD/svg10.dtd">
<svg version="1.0"
	 id="svg2" inkscape:output_extension="org.inkscape.output.svg.inkscape" xmlns:svg="http://www.w3.org/2000/svg" xmlns:dc="http://purl.org/dc/elements/1.1/" inkscape:version="0.46" xmlns:cc="http://creativecommons.org/ns#" xmlns:inkscape="http://www.inkscape.org/namespaces/inkscape" xmlns:rdf="http://www.w3.org/1999/02/22-rdf-syntax-ns#" sodipodi:version="0.32" sodipodi:docname="notched.svg" xmlns:sodipodi="http://sodipodi.sourceforge.net/DTD/sodipodi-0.dtd"
	 xmlns="http://www.w3.org/2000/svg" xmlns:xlink="http://www.w3.org/1999/xlink" x="0px" y="0px" width="389.688px"
	 height="178.344px" viewBox="0 0 389.688 178.344" enable-background="new 0 0 389.688 178.344" xml:space="preserve">
<inkscape:perspective  id="perspective35" inkscape:persp3d-origin="283.90869 : 273.70978 : 1" inkscape:vp_z="567.81738 : 410.56467 : 1" inkscape:vp_y="0 : 1000 : 0" inkscape:vp_x="0 : 410.56467 : 1" sodipodi:type="inkscape:persp3d">
	</inkscape:perspective>
<inkscape:path-effect  effect="spiro" id="path-effect3941" is_visible="true"></inkscape:path-effect>
<inkscape:path-effect  effect="spiro" id="path-effect3941-2" is_visible="true"></inkscape:path-effect>
<inkscape:path-effect  effect="spiro" id="path-effect3941-1" is_visible="true"></inkscape:path-effect>
<inkscape:path-effect  effect="spiro" id="path-effect3941-2-1" is_visible="true"></inkscape:path-effect>
<inkscape:path-effect  effect="spiro" id="path-effect3941-1-7" is_visible="true"></inkscape:path-effect>
<inkscape:path-effect  effect="spiro" id="path-effect3941-2-1-2" is_visible="true"></inkscape:path-effect>
<inkscape:path-effect  effect="spiro" id="path-effect23631" is_visible="true"></inkscape:path-effect>
<inkscape:path-effect  effect="spiro" id="path-effect23629" is_visible="true"></inkscape:path-effect>
<inkscape:perspective  id="perspective37" inkscape:persp3d-origin="372.04724 : 350.78739 : 1" inkscape:vp_z="744.09448 : 526.18109 : 1" inkscape:vp_y="0 : 1000 : 0" inkscape:vp_x="0 : 526.18109 : 1" sodipodi:type="inkscape:persp3d">
	</inkscape:perspective>
<desc  id="desc32263">Master slide</desc>
<g id="XMLID_1_">
	<g>
		<path fill="none" stroke="#000000" d="M-84.525-192.045v-103"/>
		<path fill="none" stroke="#000000" d="M-84.525-136.726v-20.63"/>
		<path fill="none" stroke="#000000" d="M-84.524-117.896"/>
		<path fill="none" stroke="#000000" d="M-84.524-14.728v-103"/>
		<path fill="none" stroke="#000000" d="M-84.524,40.572V19.954"/>
		<path fill="none" stroke="#000000" d="M-84.524,59.573"/>
		<path fill="none" stroke="#000000" d="M-84.524,162.572v-103"/>
		<path fill="none" stroke="#000000" d="M-84.524,217.893v-20.621"/>
		<path fill="none" stroke="#000000" d="M304.016-296.497c-0.66-4.57-4.396-8.05-8.959-8.05h-370.53c-5.01,0-9.05,4.24-9.05,9.5"/>
		<path fill="none" stroke="#000000" d="M304.127-157.355h-6.25c-6.24,0-11.25-5.03-11.25-11.25v-12.2
			c0-6.22,5.01-11.24,11.25-11.24h6.25v-103c0-0.14,0-0.29-0.021-0.43c-0.01-0.35-0.041-0.69-0.09-1.02"/>
		<path fill="none" stroke="#000000" d="M303.896-134.598c0.15-0.68,0.23-1.4,0.23-2.13"/>
		<path fill="none" stroke="#000000" d="M295.057-127.227c4.33,0,7.92-3.141,8.84-7.37"/>
		<line fill="none" stroke="#000000" x1="-75.473" y1="-127.227" x2="293.387" y2="-127.227"/>
		<path fill="none" stroke="#000000" d="M-84.514-136.227c0.25,5.02,4.189,9,9.039,9"/>
		<path fill="none" stroke="#000000" d="M-84.524-136.727c0,0.17,0,0.33,0.011,0.5"/>
		<line fill="none" stroke="#000000" x1="-84.524" y1="-192.046" x2="-84.524" y2="-157.355"/>
		<path fill="none" stroke="#000000" d="M-75.473-127.227c-4.961,0-8.961,4.13-9.051,9.33c0,0.061,0,0.109,0,0.17"/>
		<line fill="none" stroke="#000000" x1="295.057" y1="-127.227" x2="293.387" y2="-127.227"/>
		<path fill="none" stroke="#000000" d="M303.826-120.167c-1.021-4.08-4.551-7.06-8.771-7.06"/>
		<path fill="none" stroke="#000000" d="M304.127-117.727c0-0.851-0.102-1.66-0.301-2.439"/>
		<path fill="none" stroke="#000000" d="M304.127,40.193v-20.24h-6.25c-6.24,0-11.25-5.01-11.25-11.26v-12.17
			c0-6.24,5.01-11.25,11.25-11.25h6.25v-101.92"/>
		<path fill="none" stroke="#000000" d="M295.646,50.055c4.75-0.312,8.48-4.421,8.48-9.479"/>
		<path fill="none" stroke="#000000" d="M-84.524,40.572c0,5.271,4.04,9.5,9.05,9.5h370.53c0.199,0,0.4-0.01,0.59-0.02"/>
		<line fill="none" stroke="#000000" x1="-84.524" y1="-14.727" x2="-84.524" y2="19.954"/>
		<path fill="none" stroke="#000000" d="M304.127,69.854V59.575c0-0.24-0.012-0.479-0.031-0.721c-0.35-4.911-4.24-8.78-9.039-8.78"
			/>
		<polyline fill="none" stroke="#000000" points="304.127,95.104 304.127,93.163 304.127,75.054 304.127,69.854 		"/>
		<path fill="none" stroke="#000000" d="M304.127,197.274h-6.25c-6.24,0-11.25-5.031-11.25-11.25v-12.201
			c0-6.219,5.01-11.25,11.25-11.25h6.25V95.104"/>
		<path fill="none" stroke="#000000" d="M-75.473,227.394h370.529c5.029,0,9.07-4.24,9.07-9.5"/>
		<path fill="none" stroke="#000000" d="M-84.524,217.894c0,5.26,4.04,9.5,9.05,9.5"/>
		<line fill="none" stroke="#000000" x1="-84.524" y1="162.573" x2="-84.524" y2="197.274"/>
		<path fill="none" stroke="#000000" d="M-75.473,50.072c-2.37,0-4.511,0.95-6.131,2.5c-1.8,1.73-2.92,4.231-2.92,7"/>
		<path fill="none" stroke="#000000" d="M-75.473,227.394"/>
		<path fill="none" stroke="#000000" d="M295.057,227.394"/>
		<path fill="none" stroke="#000000" d="M304.127,93.163"/>
		<path fill="none" stroke="#000000" d="M313.627,84.114"/>
		<line fill="none" stroke="#000000" x1="416.627" y1="84.114" x2="313.627" y2="84.114"/>
		<path fill="none" stroke="#000000" d="M416.627,84.114"/>
		<path fill="none" stroke="#000000" d="M471.926,84.114h-20.619"/>
		<path fill="none" stroke="#000000" d="M304.127,217.894"/>
		<line fill="none" stroke="#000000" x1="304.127" y1="197.274" x2="304.127" y2="217.894"/>
		<path fill="none" stroke="#000000" d="M304.127,197.274"/>
		<path fill="none" stroke="#000000" d="M304.127,162.573"/>
		<path fill="none" stroke="#000000" d="M471.926,84.114c5.271,0,9.5-4.041,9.5-9.061v-370.53c0-5.02-4.229-9.07-9.5-9.07h-20.619
			v6.24c0,6.25-5.01,11.26-11.25,11.26h-12.18c-6.24,0-11.25-5.01-11.25-11.26v-6.24h-103c-5.271,0-9.5,4.05-9.5,9.07"/>
		<line fill="none" stroke="#000000" x1="416.627" y1="84.114" x2="451.307" y2="84.114"/>
		<path fill="none" stroke="#000000" d="M304.127,75.054c0,5.021,4.229,9.061,9.5,9.061"/>
		<line fill="none" stroke="#000000" x1="304.127" y1="56.854" x2="304.127" y2="58.854"/>
		<line fill="none" stroke="#000000" x1="304.127" y1="41.693" x2="304.127" y2="56.854"/>
		<polyline fill="none" stroke="#000000" points="304.127,40.193 304.127,40.572 304.127,41.693 		"/>
		<line fill="none" stroke="#000000" x1="304.127" y1="-14.727" x2="304.127" y2="19.954"/>
		<polyline fill="none" stroke="#000000" points="304.127,-118.396 304.127,-117.727 304.127,-116.646 		"/>
		<line fill="none" stroke="#000000" x1="304.127" y1="-134.815" x2="304.127" y2="-118.396"/>
		<polyline fill="none" stroke="#000000" points="304.127,-157.355 304.127,-136.727 304.127,-134.815 		"/>
		<line fill="none" stroke="#000000" x1="304.127" y1="-192.046" x2="304.127" y2="-157.355"/>
	</g>
</g>
</svg>
