<?xml version="1.0" encoding="utf-8"?>
<!-- Generator: Adobe Illustrator 13.0.0, SVG Export Plug-In . SVG Version: 6.00 Build 14948)  -->
<!DOCTYPE svg PUBLIC "-//W3C//DTD SVG 1.0//EN" "http://www.w3.org/TR/2001/REC-SVG-20010904/DTD/svg10.dtd">
<svg version="1.0"
	 id="svg2" inkscape:output_extension="org.inkscape.output.svg.inkscape" xmlns:svg="http://www.w3.org/2000/svg" xmlns:dc="http://purl.org/dc/elements/1.1/" inkscape:version="0.46" xmlns:cc="http://creativecommons.org/ns#" xmlns:inkscape="http://www.inkscape.org/namespaces/inkscape" xmlns:rdf="http://www.w3.org/1999/02/22-rdf-syntax-ns#" sodipodi:version="0.32" sodipodi:docname="10_inner.svg" xmlns:sodipodi="http://sodipodi.sourceforge.net/DTD/sodipodi-0.dtd"
	 xmlns="http://www.w3.org/2000/svg" xmlns:xlink="http://www.w3.org/1999/xlink" x="0px" y="0px" width="959.74px"
	 height="779.84px" viewBox="0 0 959.74 779.84" enable-background="new 0 0 959.74 779.84" xml:space="preserve">
<defs>
	
	
		<inkscape:perspective  id="perspective35" inkscape:persp3d-origin="283.90869 : 273.70978 : 1" inkscape:vp_z="567.81738 : 410.56467 : 1" inkscape:vp_y="0 : 1000 : 0" inkscape:vp_x="0 : 410.56467 : 1" sodipodi:type="inkscape:persp3d">
		</inkscape:perspective>
	<inkscape:path-effect  effect="spiro" id="path-effect3941" is_visible="true"></inkscape:path-effect>
	<inkscape:path-effect  effect="spiro" id="path-effect3941-2" is_visible="true"></inkscape:path-effect>
	<inkscape:path-effect  effect="spiro" id="path-effect3941-1" is_visible="true"></inkscape:path-effect>
	<inkscape:path-effect  effect="spiro" id="path-effect3941-2-1" is_visible="true"></inkscape:path-effect>
	<inkscape:path-effect  effect="spiro" id="path-effect3941-1-7" is_visible="true"></inkscape:path-effect>
	<inkscape:path-effect  effect="spiro" id="path-effect3941-2-1-2" is_visible="true"></inkscape:path-effect>
	<inkscape:path-effect  effect="spiro" id="path-effect23631" is_visible="true"></inkscape:path-effect>
	<inkscape:path-effect  effect="spiro" id="path-effect23629" is_visible="true"></inkscape:path-effect>
	
		<inkscape:perspective  id="perspective37" inkscape:persp3d-origin="372.04724 : 350.78739 : 1" inkscape:vp_z="744.09448 : 526.18109 : 1" inkscape:vp_y="0 : 1000 : 0" inkscape:vp_x="0 : 526.18109 : 1" sodipodi:type="inkscape:persp3d">
		</inkscape:perspective>
</defs>
<sodipodi:namedview  units="cm" id="namedview4" inkscape:window-maximized="1" fit-margin-bottom="0.2" fit-margin-right="0.2" fit-margin-top="0.2" fit-margin-left="0.2" inkscape:current-layer="g8381" inkscape:window-y="20" inkscape:window-x="24" inkscape:cy="389.01952" inkscape:cx="625.56296" inkscape:zoom="0.5" showgrid="false" inkscape:window-height="778" inkscape:window-width="1280" inkscape:pageshadow="2" inkscape:pageopacity="0" guidetolerance="10" gridtolerance="10" objecttolerance="10" borderopacity="1" bordercolor="#666666" pagecolor="#ffffff">
	</sodipodi:namedview>
<path fill="none" stroke="#000000" d="M383.913,176.792c0.33,0,0.65-0.021,0.971-0.05"/>
<path fill="none" stroke="#000000" d="M384.882,176.744c4.569-0.511,8.109-4.53,8.109-9.45v-20.63h-6.26
	c-6.24,0-11.24-5.03-11.24-11.25v-12.2c0-6.22,5-11.24,11.24-11.24h6.26v-103c0-5.26-4.05-9.5-9.08-9.5H13.382
	c-5.02,0-9.06,4.24-9.06,9.5v158.32c0,5.26,4.04,9.5,9.06,9.5h370.02"/>
<path fill="none" stroke="#000000" d="M392.992,186.124c-0.09-5.2-4.1-9.33-9.08-9.33"/>
<path fill="none" stroke="#000000" d="M13.382,354.091h370.53c5.03,0,9.08-4.229,9.08-9.5v-20.619h-6.26
	c-6.24,0-11.24-5.011-11.24-11.261v-12.17c0-6.239,5-11.25,11.24-11.25h6.26v-103"/>
<path fill="none" stroke="#000000" d="M13.382,176.792c-5.02,0-9.06,4.221-9.06,9.5v158.301c0,5.271,4.04,9.5,9.06,9.5"/>
<line fill="none" stroke="#000000" x1="383.913" y1="176.792" x2="383.402" y2="176.792"/>
<path fill="none" stroke="#000000" d="M392.992,363.592c0-5.25-4.05-9.5-9.08-9.5"/>
<path fill="none" stroke="#000000" d="M13.382,354.091c-2.35,0-4.5,0.95-6.12,2.5c-1.81,1.73-2.94,4.231-2.94,7v158.32
	c0,5.26,4.04,9.5,9.06,9.5h370.53c5.03,0,9.08-4.24,9.08-9.5v-20.621h-6.26c-6.24,0-11.24-5.028-11.24-11.25v-12.199
	c0-6.221,5-11.25,11.24-11.25h6.26v-103"/>
<path fill="none" stroke="#000000" d="M392.992,678.592h-6.26c-6.24,0-11.24-5.01-11.24-11.25v-12.18c0-6.24,5-11.25,11.24-11.25
	h6.26v-103c0-5.271-4.05-9.5-9.08-9.5"/>
<line fill="none" stroke="#000000" x1="392.992" y1="699.213" x2="392.992" y2="678.592"/>
<path fill="none" stroke="#000000" d="M13.382,531.413c-5.02,0-9.06,4.23-9.06,9.5v158.301c0,5.279,4.04,9.5,9.06,9.5h370.53
	c5.03,0,9.08-4.221,9.08-9.5"/>
<path fill="none" stroke="#000000" d="M392.992,167.292c0,0.17,0,0.33,0.011,0.5"/>
<line fill="none" stroke="#000000" x1="392.992" y1="111.973" x2="392.992" y2="146.664"/>
<line fill="none" stroke="#000000" x1="392.992" y1="289.292" x2="392.992" y2="323.973"/>
<line fill="none" stroke="#000000" x1="392.992" y1="466.592" x2="392.992" y2="501.293"/>
<line fill="none" stroke="#000000" x1="392.992" y1="643.913" x2="392.992" y2="678.592"/>
<path fill="none" stroke="#000000" d="M392.992,855.893h-6.26c-6.24,0-11.24-5.01-11.24-11.25v-12.18c0-6.24,5-11.25,11.24-11.25
	h6.26v-103c0-5.271-4.05-9.5-9.079-9.5"/>
<line fill="none" stroke="#000000" x1="392.992" y1="876.514" x2="392.992" y2="855.893"/>
<path fill="none" stroke="#000000" d="M13.382,708.713c-5.02,0-9.06,4.23-9.06,9.5v158.301c0,5.279,4.04,9.5,9.06,9.5h370.53
	c5.03,0,9.08-4.221,9.08-9.5"/>
<line fill="none" stroke="#000000" x1="392.992" y1="821.213" x2="392.992" y2="855.893"/>
</svg>
