<?xml version="1.0" encoding="UTF-8" standalone="no"?>
<!-- Created with Inkscape (http://www.inkscape.org/) -->
<svg
   xmlns:dc="http://purl.org/dc/elements/1.1/"
   xmlns:cc="http://creativecommons.org/ns#"
   xmlns:rdf="http://www.w3.org/1999/02/22-rdf-syntax-ns#"
   xmlns:svg="http://www.w3.org/2000/svg"
   xmlns="http://www.w3.org/2000/svg"
   xmlns:sodipodi="http://sodipodi.sourceforge.net/DTD/sodipodi-0.dtd"
   xmlns:inkscape="http://www.inkscape.org/namespaces/inkscape"
   id="svg2"
   version="1.0"
   inkscape:version="0.46"
   width="782.46967"
   height="561.03729"
   xml:space="preserve"
   sodipodi:docname="blank_2x3.svg"
   sodipodi:version="0.32"
   inkscape:output_extension="org.inkscape.output.svg.inkscape"><metadata
     id="metadata8"><rdf:RDF><cc:Work
         rdf:about=""><dc:format>image/svg+xml</dc:format><dc:type
           rdf:resource="http://purl.org/dc/dcmitype/StillImage" /><dc:title /></cc:Work></rdf:RDF></metadata><defs
     id="defs6"><clipPath
       clipPathUnits="userSpaceOnUse"
       id="clipPath33754"><rect
         transform="scale(1,-1)"
         ry="326.42026"
         rx="326.42026"
         y="-18848.621"
         x="8497.1016"
         height="14160.244"
         width="6756.7979"
         id="rect33756"
         style="fill:none;stroke:#ff0000;stroke-width:22.71884918;stroke-linecap:butt;stroke-linejoin:miter;marker:none;stroke-miterlimit:4;stroke-dasharray:none;stroke-dashoffset:0;stroke-opacity:1;visibility:visible;display:inline;overflow:visible;enable-background:accumulate" /></clipPath><clipPath
       clipPathUnits="userSpaceOnUse"
       id="clipPath13957"><g
         id="g13959"
         transform="matrix(0,28.949848,28.949848,0,-31428.068,2537.1426)"><rect
           transform="scale(1,-1)"
           ry="11.27537"
           rx="11.27537"
           y="-1697.5825"
           x="225.72412"
           height="390.42957"
           width="186.3"
           id="rect13961"
           style="fill:none;stroke:#ff0000;stroke-width:0.62640941;stroke-linecap:butt;stroke-linejoin:miter;marker:none;stroke-miterlimit:4;stroke-dasharray:none;stroke-dashoffset:0;stroke-opacity:1;visibility:visible;display:inline;overflow:visible;enable-background:accumulate" /></g></clipPath><inkscape:perspective
       sodipodi:type="inkscape:persp3d"
       inkscape:vp_x="0 : 410.56467 : 1"
       inkscape:vp_y="0 : 1000 : 0"
       inkscape:vp_z="567.81738 : 410.56467 : 1"
       inkscape:persp3d-origin="283.90869 : 273.70978 : 1"
       id="perspective35" /><inkscape:path-effect
       effect="spiro"
       id="path-effect3941"
       is_visible="true" /><inkscape:path-effect
       effect="spiro"
       id="path-effect3941-2"
       is_visible="true" /><inkscape:path-effect
       effect="spiro"
       id="path-effect3941-1"
       is_visible="true" /><inkscape:path-effect
       effect="spiro"
       id="path-effect3941-2-1"
       is_visible="true" /><inkscape:path-effect
       effect="spiro"
       id="path-effect3941-1-7"
       is_visible="true" /><inkscape:path-effect
       effect="spiro"
       id="path-effect3941-2-1-2"
       is_visible="true" /><inkscape:path-effect
       is_visible="true"
       id="path-effect23631"
       effect="spiro" /><inkscape:path-effect
       is_visible="true"
       id="path-effect23629"
       effect="spiro" /><inkscape:perspective
       id="perspective37"
       inkscape:persp3d-origin="372.04724 : 350.78739 : 1"
       inkscape:vp_z="744.09448 : 526.18109 : 1"
       inkscape:vp_y="0 : 1000 : 0"
       inkscape:vp_x="0 : 526.18109 : 1"
       sodipodi:type="inkscape:persp3d" /></defs><sodipodi:namedview
     pagecolor="#ffffff"
     bordercolor="#666666"
     borderopacity="1"
     objecttolerance="10"
     gridtolerance="10"
     guidetolerance="10"
     inkscape:pageopacity="0"
     inkscape:pageshadow="2"
     inkscape:window-width="1280"
     inkscape:window-height="778"
     id="namedview4"
     showgrid="false"
     units="cm"
     inkscape:zoom="0.5"
     inkscape:cx="382.4204"
     inkscape:cy="258.57664"
     inkscape:window-x="4"
     inkscape:window-y="0"
     inkscape:window-maximized="1"
     inkscape:current-layer="g8680"
     fit-margin-left="0.2"
     fit-margin-top="0.2"
     fit-margin-right="0.2"
     fit-margin-bottom="0.2" /><g
     id="g10"
     inkscape:groupmode="layer"
     inkscape:label="ink_ext_XXXXXX"
     transform="matrix(1.25,0,0,-1.25,492.58251,665.22239)"><g
       id="g3970" /><g
       transform="matrix(2.757182e-2,0,0,-2.757182e-2,-213.253,575.99534)"
       visibility="visible"
       id="Default"
       style="visibility:visible"><desc
         id="desc32263">Master slide</desc></g><g
       id="g8381"
       transform="matrix(0.7982,0,0,0.7982,20.436499,95.753978)"><g
         id="g8680"
         transform="translate(-2.4184236,0)"><g
           id="g3143"><path
             id="rect3006-0-4"
             d="M 267.04286,369.14972 L 267.04286,537.44693 C 267.04286,542.43293 263.02886,546.44693 258.04286,546.44693 L -114.38085,546.44693 C -119.36685,546.44693 -123.38085,542.43293 -123.38085,537.44693 L -123.38085,369.14972 C -123.38085,364.16372 -119.36685,360.14972 -114.38085,360.14972 L 258.04286,360.14972 C 263.02886,360.14972 267.04286,364.16372 267.04286,369.14972 z"
             style="fill:none;stroke:#ff0000;stroke-width:0.62639999;stroke-linecap:butt;stroke-linejoin:miter;marker:none;stroke-miterlimit:4;stroke-dashoffset:0;stroke-opacity:1;visibility:visible;display:inline;overflow:visible;enable-background:accumulate" /><path
             id="rect8807"
             d="M -126.14123,369.14972 L -126.14123,537.44693 C -126.14123,542.43293 -130.15523,546.44693 -135.14123,546.44693 L -507.56493,546.44693 C -512.55093,546.44693 -516.56493,542.43293 -516.56493,537.44693 L -516.56493,369.14972 C -516.56493,364.16372 -512.55093,360.14972 -507.56493,360.14972 L -135.14123,360.14972 C -130.15523,360.14972 -126.14123,364.16372 -126.14123,369.14972 z"
             style="fill:none;stroke:#ff0000;stroke-width:0.62639999;stroke-linecap:butt;stroke-linejoin:miter;marker:none;stroke-miterlimit:4;stroke-dashoffset:0;stroke-opacity:1;visibility:visible;display:inline;overflow:visible;enable-background:accumulate" /><path
             id="rect8872"
             d="M 267.04286,181.24672 L 267.04286,349.54393 C 267.04286,354.52993 263.02886,358.54393 258.04286,358.54393 L -114.38085,358.54393 C -119.36685,358.54393 -123.38085,354.52993 -123.38085,349.54393 L -123.38085,181.24672 C -123.38085,176.26072 -119.36685,172.24672 -114.38085,172.24672 L 258.04286,172.24672 C 263.02886,172.24672 267.04286,176.26072 267.04286,181.24672 z"
             style="fill:none;stroke:#ff0000;stroke-width:0.62639999;stroke-linecap:butt;stroke-linejoin:miter;marker:none;stroke-miterlimit:4;stroke-dashoffset:0;stroke-opacity:1;visibility:visible;display:inline;overflow:visible;enable-background:accumulate" /><path
             id="rect8904"
             d="M -126.14123,181.24672 L -126.14123,349.54393 C -126.14123,354.52993 -130.15523,358.54393 -135.14123,358.54393 L -507.56493,358.54393 C -512.55093,358.54393 -516.56493,354.52993 -516.56493,349.54393 L -516.56493,181.24672 C -516.56493,176.26072 -512.55093,172.24672 -507.56493,172.24672 L -135.14123,172.24672 C -130.15523,172.24672 -126.14123,176.26072 -126.14123,181.24672 z"
             style="fill:none;stroke:#ff0000;stroke-width:0.62639999;stroke-linecap:butt;stroke-linejoin:miter;marker:none;stroke-miterlimit:4;stroke-dashoffset:0;stroke-opacity:1;visibility:visible;display:inline;overflow:visible;enable-background:accumulate" /><path
             id="path2473"
             d="M 267.04286,-6.22912 L 267.04286,162.06809 C 267.04286,167.05409 263.02886,171.06809 258.04286,171.06809 L -114.38085,171.06809 C -119.36685,171.06809 -123.38085,167.05409 -123.38085,162.06809 L -123.38085,-6.22912 C -123.38085,-11.21512 -119.36685,-15.22912 -114.38085,-15.22912 L 258.04286,-15.22912 C 263.02886,-15.22912 267.04286,-11.21512 267.04286,-6.22912 z"
             style="fill:none;stroke:#ff0000;stroke-width:0.62639999;stroke-linecap:butt;stroke-linejoin:miter;marker:none;stroke-miterlimit:4;stroke-dashoffset:0;stroke-opacity:1;visibility:visible;display:inline;overflow:visible;enable-background:accumulate" /><path
             id="path2501"
             d="M -126.14123,-6.22912 L -126.14123,162.06809 C -126.14123,167.05409 -130.15523,171.06809 -135.14123,171.06809 L -507.56493,171.06809 C -512.55093,171.06809 -516.56493,167.05409 -516.56493,162.06809 L -516.56493,-6.22912 C -516.56493,-11.21512 -512.55093,-15.22912 -507.56493,-15.22912 L -135.14123,-15.22912 C -130.15523,-15.22912 -126.14123,-11.21512 -126.14123,-6.22912 z"
             style="fill:none;stroke:#ff0000;stroke-width:0.62639999;stroke-linecap:butt;stroke-linejoin:miter;marker:none;stroke-miterlimit:4;stroke-dashoffset:0;stroke-opacity:1;visibility:visible;display:inline;overflow:visible;enable-background:accumulate" /></g></g></g></g></svg>