<?xml version="1.0" encoding="UTF-8" standalone="no"?>
<!-- Created with Inkscape (http://www.inkscape.org/) -->
<svg
   xmlns:dc="http://purl.org/dc/elements/1.1/"
   xmlns:cc="http://creativecommons.org/ns#"
   xmlns:rdf="http://www.w3.org/1999/02/22-rdf-syntax-ns#"
   xmlns:svg="http://www.w3.org/2000/svg"
   xmlns="http://www.w3.org/2000/svg"
   xmlns:sodipodi="http://sodipodi.sourceforge.net/DTD/sodipodi-0.dtd"
   xmlns:inkscape="http://www.inkscape.org/namespaces/inkscape"
   id="svg2"
   version="1.0"
   inkscape:version="0.46"
   width="971.60156"
   height="782.46967"
   xml:space="preserve"
   sodipodi:docname="clear4testPanel.svg"
   sodipodi:version="0.32"
   inkscape:output_extension="org.inkscape.output.svg.inkscape"><metadata
     id="metadata8"><rdf:RDF><cc:Work
         rdf:about=""><dc:format>image/svg+xml</dc:format><dc:type
           rdf:resource="http://purl.org/dc/dcmitype/StillImage" /><dc:title /></cc:Work></rdf:RDF></metadata><defs
     id="defs6"><clipPath
       clipPathUnits="userSpaceOnUse"
       id="clipPath33754"><rect
         transform="scale(1,-1)"
         ry="326.42026"
         rx="326.42026"
         y="-18848.621"
         x="8497.1016"
         height="14160.244"
         width="6756.7979"
         id="rect33756"
         style="fill:none;stroke:#ff0000;stroke-width:22.71884918;stroke-linecap:butt;stroke-linejoin:miter;marker:none;stroke-miterlimit:4;stroke-dasharray:none;stroke-dashoffset:0;stroke-opacity:1;visibility:visible;display:inline;overflow:visible;enable-background:accumulate" /></clipPath><clipPath
       clipPathUnits="userSpaceOnUse"
       id="clipPath13957"><g
         id="g13959"
         transform="matrix(0,28.949848,28.949848,0,-31428.068,2537.1426)"><rect
           transform="scale(1,-1)"
           ry="11.27537"
           rx="11.27537"
           y="-1697.5825"
           x="225.72412"
           height="390.42957"
           width="186.3"
           id="rect13961"
           style="fill:none;stroke:#ff0000;stroke-width:0.62640941;stroke-linecap:butt;stroke-linejoin:miter;marker:none;stroke-miterlimit:4;stroke-dasharray:none;stroke-dashoffset:0;stroke-opacity:1;visibility:visible;display:inline;overflow:visible;enable-background:accumulate" /></g></clipPath><inkscape:perspective
       sodipodi:type="inkscape:persp3d"
       inkscape:vp_x="0 : 410.56467 : 1"
       inkscape:vp_y="0 : 1000 : 0"
       inkscape:vp_z="567.81738 : 410.56467 : 1"
       inkscape:persp3d-origin="283.90869 : 273.70978 : 1"
       id="perspective35" /><inkscape:path-effect
       effect="spiro"
       id="path-effect3941"
       is_visible="true" /><inkscape:path-effect
       effect="spiro"
       id="path-effect3941-2"
       is_visible="true" /><inkscape:path-effect
       effect="spiro"
       id="path-effect3941-1"
       is_visible="true" /><inkscape:path-effect
       effect="spiro"
       id="path-effect3941-2-1"
       is_visible="true" /><inkscape:path-effect
       effect="spiro"
       id="path-effect3941-1-7"
       is_visible="true" /><inkscape:path-effect
       effect="spiro"
       id="path-effect3941-2-1-2"
       is_visible="true" /><inkscape:path-effect
       is_visible="true"
       id="path-effect23631"
       effect="spiro" /><inkscape:path-effect
       is_visible="true"
       id="path-effect23629"
       effect="spiro" /><inkscape:perspective
       id="perspective37"
       inkscape:persp3d-origin="372.04724 : 350.78739 : 1"
       inkscape:vp_z="744.09448 : 526.18109 : 1"
       inkscape:vp_y="0 : 1000 : 0"
       inkscape:vp_x="0 : 526.18109 : 1"
       sodipodi:type="inkscape:persp3d" /></defs><sodipodi:namedview
     pagecolor="#ffffff"
     bordercolor="#666666"
     borderopacity="1"
     objecttolerance="10"
     gridtolerance="10"
     guidetolerance="10"
     inkscape:pageopacity="0"
     inkscape:pageshadow="2"
     inkscape:window-width="1280"
     inkscape:window-height="778"
     id="namedview4"
     showgrid="false"
     units="cm"
     inkscape:zoom="0.5"
     inkscape:cx="366.81907"
     inkscape:cy="384.73641"
     inkscape:window-x="16"
     inkscape:window-y="0"
     inkscape:window-maximized="1"
     inkscape:current-layer="g8680"
     fit-margin-left="0.2"
     fit-margin-top="0.2"
     fit-margin-right="0.2"
     fit-margin-bottom="0.2" /><g
     id="g10"
     inkscape:groupmode="layer"
     inkscape:label="ink_ext_XXXXXX"
     transform="matrix(1.25,0,0,-1.25,496.26288,667.20574)"><g
       id="g3970" /><g
       transform="matrix(2.757182e-2,0,0,-2.757182e-2,-213.253,575.99534)"
       visibility="visible"
       id="Default"
       style="visibility:visible"><desc
         id="desc32263">Master slide</desc></g><g
       id="g8381"
       transform="matrix(0.7982,0,0,0.7982,20.436499,95.753978)"><g
         id="g8680"
         transform="translate(-2.4184236,0)"><path
           transform="matrix(0,1,-1,0,0,0)"
           style="fill:none;stroke:#ff0000;stroke-width:0.62639999;stroke-linecap:butt;stroke-linejoin:miter;marker:none;stroke-miterlimit:4;stroke-dashoffset:0;stroke-opacity:1;visibility:visible;display:inline;overflow:visible;enable-background:accumulate"
           d="M -7.1355,-263.35419 L 161.16171,-263.35419 C 166.14771,-263.35419 170.16171,-259.34019 170.16171,-254.35419 L 170.16171,118.06952 C 170.16171,123.05552 166.14771,127.06952 161.16171,127.06952 L -7.1355,127.06952 C -12.1215,127.06952 -16.1355,123.05552 -16.1355,118.06952 L -16.1355,-254.35419 C -16.1355,-259.34019 -12.1215,-263.35419 -7.1355,-263.35419 z"
           id="rect8936" /><path
           transform="matrix(0,1,-1,0,0,0)"
           style="fill:none;stroke:#ff0000;stroke-width:0.62639999;stroke-linecap:butt;stroke-linejoin:miter;marker:none;stroke-miterlimit:4;stroke-dashoffset:0;stroke-opacity:1;visibility:visible;display:inline;overflow:visible;enable-background:accumulate"
           d="M -7.1355,129.8299 L 161.16171,129.8299 C 166.14771,129.8299 170.16171,133.8439 170.16171,138.8299 L 170.16171,511.2536 C 170.16171,516.2396 166.14771,520.2536 161.16171,520.2536 L -7.1355,520.2536 C -12.1215,520.2536 -16.1355,516.2396 -16.1355,511.2536 L -16.1355,138.8299 C -16.1355,133.8439 -12.1215,129.8299 -7.1355,129.8299 z"
           id="rect8968" /><path
           transform="matrix(0,1,-1,0,0,0)"
           style="fill:none;stroke:#ff0000;stroke-width:0.62639999;stroke-linecap:butt;stroke-linejoin:miter;marker:none;stroke-miterlimit:4;stroke-dashoffset:0;stroke-opacity:1;visibility:visible;display:inline;overflow:visible;enable-background:accumulate"
           d="M -195.0385,-263.35419 L -26.741287,-263.35419 C -21.755287,-263.35419 -17.741287,-259.34019 -17.741287,-254.35419 L -17.741287,118.06952 C -17.741287,123.05552 -21.755287,127.06952 -26.741287,127.06952 L -195.0385,127.06952 C -200.0245,127.06952 -204.0385,123.05552 -204.0385,118.06952 L -204.0385,-254.35419 C -204.0385,-259.34019 -200.0245,-263.35419 -195.0385,-263.35419 z"
           id="rect9000" /><path
           transform="matrix(0,1,-1,0,0,0)"
           style="fill:none;stroke:#ff0000;stroke-width:0.62639999;stroke-linecap:butt;stroke-linejoin:miter;marker:none;stroke-miterlimit:4;stroke-dashoffset:0;stroke-opacity:1;visibility:visible;display:inline;overflow:visible;enable-background:accumulate"
           d="M -195.0385,129.8299 L -26.741287,129.8299 C -21.755287,129.8299 -17.741287,133.8439 -17.741287,138.8299 L -17.741287,511.2536 C -17.741287,516.2396 -21.755287,520.2536 -26.741287,520.2536 L -195.0385,520.2536 C -200.0245,520.2536 -204.0385,516.2396 -204.0385,511.2536 L -204.0385,138.8299 C -204.0385,133.8439 -200.0245,129.8299 -195.0385,129.8299 z"
           id="rect9032" /><path
           transform="matrix(0,1,-1,0,0,0)"
           style="fill:none;stroke:#ff0000;stroke-width:0.62639999;stroke-linecap:butt;stroke-linejoin:miter;marker:none;stroke-miterlimit:4;stroke-dashoffset:0;stroke-opacity:1;visibility:visible;display:inline;overflow:visible;enable-background:accumulate"
           d="M 369.14972,-263.35419 L 537.44693,-263.35419 C 542.43293,-263.35419 546.44693,-259.34019 546.44693,-254.35419 L 546.44693,118.06952 C 546.44693,123.05552 542.43293,127.06952 537.44693,127.06952 L 369.14972,127.06952 C 364.16372,127.06952 360.14972,123.05552 360.14972,118.06952 L 360.14972,-254.35419 C 360.14972,-259.34019 364.16372,-263.35419 369.14972,-263.35419 z"
           id="rect3006-0-4" /><g
           id="g9801"><path
             id="rect2414"
             d="M -42.526638,-494.13931 L 11.351055,-494.13931 L 11.351055,-458.22085 L -42.526638,-458.22085 L -42.526638,-494.13931 z"
             style="fill:none;stroke:#000000;stroke-width:0.62499064;stroke-linecap:butt;stroke-linejoin:miter;marker:none;stroke-miterlimit:4;stroke-dashoffset:0;stroke-opacity:1;visibility:visible;display:inline;overflow:visible;enable-background:accumulate"
             transform="matrix(0.9832549,-0.1822355,-0.1822355,-0.9832549,0,0)" /><path
             id="path2416"
             d="M 192.14663,449.86374 C 192.14663,444.78562 188.02509,440.66388 182.94677,440.66387 C 182.0393,440.66387 181.15012,440.79373 180.32181,441.03887 C 180.281,441.05095 180.23739,441.05124 180.19681,441.06387 L 161.77209,444.48882 L 161.0971,440.81387 L 157.67215,441.43886 L 162.29708,467.03848 L 165.82203,466.26349 L 165.12204,462.46355 C 171.59427,461.40058 177.48968,460.17766 183.67176,459.0136 C 188.40467,458.63654 192.14663,454.69287 192.14663,449.86374 z"
             style="fill:none;stroke:#000000;stroke-width:0.62499064;stroke-linecap:butt;stroke-linejoin:miter;marker:none;stroke-miterlimit:4;stroke-dasharray:none;stroke-dashoffset:0;stroke-opacity:1;visibility:visible;display:inline;overflow:visible;enable-background:accumulate" /><path
             sodipodi:nodetypes="cc"
             inkscape:connector-curvature="0"
             id="path2420"
             d="M 95.557047,453.29153 L 158.58382,447.17833"
             style="fill:none;stroke:#000000;stroke-width:0.62499064;stroke-linecap:butt;stroke-linejoin:miter;marker:none;stroke-miterlimit:4;stroke-dasharray:none;stroke-dashoffset:0;stroke-opacity:1;visibility:visible;display:inline;overflow:visible;enable-background:accumulate" /><path
             sodipodi:nodetypes="ccc"
             inkscape:connector-curvature="0"
             id="path2422"
             d="M 161.44988,461.95943 L 100.38691,479.35108 L 100.38691,479.35108"
             style="fill:none;stroke:#000000;stroke-width:0.62499064;stroke-linecap:butt;stroke-linejoin:miter;marker:none;stroke-miterlimit:4;stroke-dasharray:none;stroke-dashoffset:0;stroke-opacity:1;visibility:visible;display:inline;overflow:visible;enable-background:accumulate" /><path
             sodipodi:nodetypes="cc"
             inkscape:connector-curvature="0"
             id="path2424"
             d="M 98.998965,470.49686 L 160.58822,457.3103"
             style="fill:none;stroke:#000000;stroke-width:0.62499064;stroke-linecap:butt;stroke-linejoin:miter;marker:none;stroke-miterlimit:4;stroke-dasharray:none;stroke-dashoffset:0;stroke-opacity:1;visibility:visible;display:inline;overflow:visible;enable-background:accumulate" /><path
             sodipodi:nodetypes="ccc"
             inkscape:connector-curvature="0"
             id="path2426"
             d="M 97.244003,461.71068 L 159.46815,451.94978 L 159.46815,451.94978"
             style="fill:none;stroke:#000000;stroke-width:0.62499064;stroke-linecap:butt;stroke-linejoin:miter;marker:none;stroke-miterlimit:4;stroke-dasharray:none;stroke-dashoffset:0;stroke-opacity:1;visibility:visible;display:inline;overflow:visible;enable-background:accumulate" /><path
             id="rect2430"
             d="M -11.289016,-458.02588 L 42.588677,-458.02588 L 42.588677,-422.10742 L -11.289016,-422.10742 L -11.289016,-458.02588 z"
             style="fill:none;stroke:#000000;stroke-width:0.62499064;stroke-linecap:butt;stroke-linejoin:miter;marker:none;stroke-miterlimit:4;stroke-dashoffset:0;stroke-opacity:1;visibility:visible;display:inline;overflow:visible;enable-background:accumulate"
             transform="matrix(-0.9832549,0.1822355,-0.1822355,-0.9832549,0,0)" /><path
             id="path2432"
             d="M -21.312508,464.86049 L -26.187434,439.31088 L -29.612383,439.96087 L -28.912393,443.61081 L -48.012106,446.88576 C -48.012106,446.88576 -48.111211,446.9831 -48.162104,447.03576 C -52.526246,447.7539 -55.861972,451.51933 -55.861988,456.08563 C -55.861988,461.16375 -51.740434,465.28549 -46.662126,465.28549 C -46.436787,465.28549 -46.208422,465.27644 -45.987137,465.26049 C -45.970774,465.25931 -45.953469,465.26176 -45.937137,465.26049 C -45.760671,465.30135 -45.662141,465.33549 -45.662141,465.33549 C -38.917751,464.0855 -32.534928,463.04592 -25.587443,461.61054 L -24.887454,465.41049 L -21.312508,464.86049 z"
             style="fill:none;stroke:#000000;stroke-width:0.62499064;stroke-linecap:butt;stroke-linejoin:miter;marker:none;stroke-miterlimit:4;stroke-dasharray:none;stroke-dashoffset:0;stroke-opacity:1;visibility:visible;display:inline;overflow:visible;enable-background:accumulate" /><path
             sodipodi:nodetypes="cc"
             inkscape:connector-curvature="0"
             id="path2436"
             d="M 35.939401,427.61255 L -25.091929,444.49215"
             style="fill:none;stroke:#000000;stroke-width:0.62499064;stroke-linecap:butt;stroke-linejoin:miter;marker:none;stroke-miterlimit:4;stroke-dasharray:none;stroke-dashoffset:0;stroke-opacity:1;visibility:visible;display:inline;overflow:visible;enable-background:accumulate" /><path
             sodipodi:nodetypes="ccc"
             inkscape:connector-curvature="0"
             id="path2438"
             d="M -22.47056,459.31861 L 40.769261,453.6721 L 40.769261,453.6721"
             style="fill:none;stroke:#000000;stroke-width:0.62499064;stroke-linecap:butt;stroke-linejoin:miter;marker:none;stroke-miterlimit:4;stroke-dasharray:none;stroke-dashoffset:0;stroke-opacity:1;visibility:visible;display:inline;overflow:visible;enable-background:accumulate" /><path
             sodipodi:nodetypes="cc"
             inkscape:connector-curvature="0"
             id="path2440"
             d="M 38.891943,444.90859 L -23.332225,454.66948"
             style="fill:none;stroke:#000000;stroke-width:0.62499064;stroke-linecap:butt;stroke-linejoin:miter;marker:none;stroke-miterlimit:4;stroke-dasharray:none;stroke-dashoffset:0;stroke-opacity:1;visibility:visible;display:inline;overflow:visible;enable-background:accumulate" /><path
             sodipodi:nodetypes="ccc"
             inkscape:connector-curvature="0"
             id="path2442"
             d="M 37.381653,436.07705 L -24.207595,449.26362 L -24.207595,449.26362"
             style="fill:none;stroke:#000000;stroke-width:0.62499064;stroke-linecap:butt;stroke-linejoin:miter;marker:none;stroke-miterlimit:4;stroke-dasharray:none;stroke-dashoffset:0;stroke-opacity:1;visibility:visible;display:inline;overflow:visible;enable-background:accumulate" /></g><path
           transform="matrix(0,1,-1,0,0,0)"
           style="fill:none;stroke:#ff0000;stroke-width:0.62639999;stroke-linecap:butt;stroke-linejoin:miter;marker:none;stroke-miterlimit:4;stroke-dashoffset:0;stroke-opacity:1;visibility:visible;display:inline;overflow:visible;enable-background:accumulate"
           d="M 369.14972,129.8299 L 537.44693,129.8299 C 542.43293,129.8299 546.44693,133.8439 546.44693,138.8299 L 546.44693,511.2536 C 546.44693,516.2396 542.43293,520.2536 537.44693,520.2536 L 369.14972,520.2536 C 364.16372,520.2536 360.14972,516.2396 360.14972,511.2536 L 360.14972,138.8299 C 360.14972,133.8439 364.16372,129.8299 369.14972,129.8299 z"
           id="rect8807" /><g
           id="g9759"><path
             id="rect8811"
             d="M -429.12683,-422.48721 L -375.24914,-422.48721 L -375.24914,-386.56875 L -429.12683,-386.56875 L -429.12683,-422.48721 z"
             style="fill:none;stroke:#000000;stroke-width:0.62499064;stroke-linecap:butt;stroke-linejoin:miter;marker:none;stroke-miterlimit:4;stroke-dashoffset:0;stroke-opacity:1;visibility:visible;display:inline;overflow:visible;enable-background:accumulate"
             transform="matrix(0.9832549,-0.1822355,-0.1822355,-0.9832549,0,0)" /><path
             id="path8813"
             d="M -201.03745,449.86374 C -201.03745,444.78562 -205.15899,440.66388 -210.23731,440.66387 C -211.14478,440.66387 -212.03396,440.79373 -212.86227,441.03887 C -212.90308,441.05095 -212.94669,441.05124 -212.98727,441.06387 L -231.41199,444.48882 L -232.08698,440.81387 L -235.51193,441.43886 L -230.887,467.03848 L -227.36205,466.26349 L -228.06204,462.46355 C -221.58981,461.40058 -215.6944,460.17766 -209.51232,459.0136 C -204.77941,458.63654 -201.03745,454.69287 -201.03745,449.86374 z"
             style="fill:none;stroke:#000000;stroke-width:0.62499064;stroke-linecap:butt;stroke-linejoin:miter;marker:none;stroke-miterlimit:4;stroke-dasharray:none;stroke-dashoffset:0;stroke-opacity:1;visibility:visible;display:inline;overflow:visible;enable-background:accumulate" /><path
             sodipodi:nodetypes="cc"
             inkscape:connector-curvature="0"
             id="path8815"
             d="M -297.62703,453.29153 L -234.60026,447.17833"
             style="fill:none;stroke:#000000;stroke-width:0.62499064;stroke-linecap:butt;stroke-linejoin:miter;marker:none;stroke-miterlimit:4;stroke-dasharray:none;stroke-dashoffset:0;stroke-opacity:1;visibility:visible;display:inline;overflow:visible;enable-background:accumulate" /><path
             sodipodi:nodetypes="ccc"
             inkscape:connector-curvature="0"
             id="path8817"
             d="M -231.7342,461.95943 L -292.79717,479.35108 L -292.79717,479.35108"
             style="fill:none;stroke:#000000;stroke-width:0.62499064;stroke-linecap:butt;stroke-linejoin:miter;marker:none;stroke-miterlimit:4;stroke-dasharray:none;stroke-dashoffset:0;stroke-opacity:1;visibility:visible;display:inline;overflow:visible;enable-background:accumulate" /><path
             sodipodi:nodetypes="cc"
             inkscape:connector-curvature="0"
             id="path8819"
             d="M -294.18511,470.49686 L -232.59586,457.3103"
             style="fill:none;stroke:#000000;stroke-width:0.62499064;stroke-linecap:butt;stroke-linejoin:miter;marker:none;stroke-miterlimit:4;stroke-dasharray:none;stroke-dashoffset:0;stroke-opacity:1;visibility:visible;display:inline;overflow:visible;enable-background:accumulate" /><path
             sodipodi:nodetypes="ccc"
             inkscape:connector-curvature="0"
             id="path8821"
             d="M -295.94008,461.71068 L -233.71593,451.94978 L -233.71593,451.94978"
             style="fill:none;stroke:#000000;stroke-width:0.62499064;stroke-linecap:butt;stroke-linejoin:miter;marker:none;stroke-miterlimit:4;stroke-dasharray:none;stroke-dashoffset:0;stroke-opacity:1;visibility:visible;display:inline;overflow:visible;enable-background:accumulate" /><path
             id="rect8823"
             d="M 375.31116,-386.37375 L 429.18885,-386.37375 L 429.18885,-350.45529 L 375.31116,-350.45529 L 375.31116,-386.37375 z"
             style="fill:none;stroke:#000000;stroke-width:0.62499064;stroke-linecap:butt;stroke-linejoin:miter;marker:none;stroke-miterlimit:4;stroke-dashoffset:0;stroke-opacity:1;visibility:visible;display:inline;overflow:visible;enable-background:accumulate"
             transform="matrix(-0.9832549,0.1822355,-0.1822355,-0.9832549,0,0)" /><path
             id="path8825"
             d="M -414.49659,464.86049 L -419.37151,439.31088 L -422.79646,439.96087 L -422.09647,443.61081 L -441.19619,446.88576 C -441.19619,446.88576 -441.29529,446.9831 -441.34618,447.03576 C -445.71033,447.7539 -449.04605,451.51933 -449.04607,456.08563 C -449.04607,461.16375 -444.92451,465.28549 -439.84621,465.28549 C -439.62087,465.28549 -439.3925,465.27644 -439.17122,465.26049 C -439.15485,465.25931 -439.13755,465.26176 -439.12122,465.26049 C -438.94475,465.30135 -438.84622,465.33549 -438.84622,465.33549 C -432.10183,464.0855 -425.71901,463.04592 -418.77152,461.61054 L -418.07153,465.41049 L -414.49659,464.86049 z"
             style="fill:none;stroke:#000000;stroke-width:0.62499064;stroke-linecap:butt;stroke-linejoin:miter;marker:none;stroke-miterlimit:4;stroke-dasharray:none;stroke-dashoffset:0;stroke-opacity:1;visibility:visible;display:inline;overflow:visible;enable-background:accumulate" /><path
             sodipodi:nodetypes="cc"
             inkscape:connector-curvature="0"
             id="path8827"
             d="M -357.24468,427.61255 L -418.27601,444.49215"
             style="fill:none;stroke:#000000;stroke-width:0.62499064;stroke-linecap:butt;stroke-linejoin:miter;marker:none;stroke-miterlimit:4;stroke-dasharray:none;stroke-dashoffset:0;stroke-opacity:1;visibility:visible;display:inline;overflow:visible;enable-background:accumulate" /><path
             sodipodi:nodetypes="ccc"
             inkscape:connector-curvature="0"
             id="path8829"
             d="M -415.65464,459.31861 L -352.41482,453.6721 L -352.41482,453.6721"
             style="fill:none;stroke:#000000;stroke-width:0.62499064;stroke-linecap:butt;stroke-linejoin:miter;marker:none;stroke-miterlimit:4;stroke-dasharray:none;stroke-dashoffset:0;stroke-opacity:1;visibility:visible;display:inline;overflow:visible;enable-background:accumulate" /><path
             sodipodi:nodetypes="cc"
             inkscape:connector-curvature="0"
             id="path8831"
             d="M -354.29214,444.90859 L -416.51631,454.66948"
             style="fill:none;stroke:#000000;stroke-width:0.62499064;stroke-linecap:butt;stroke-linejoin:miter;marker:none;stroke-miterlimit:4;stroke-dasharray:none;stroke-dashoffset:0;stroke-opacity:1;visibility:visible;display:inline;overflow:visible;enable-background:accumulate" /><path
             sodipodi:nodetypes="ccc"
             inkscape:connector-curvature="0"
             id="path8833"
             d="M -355.80243,436.07705 L -417.39168,449.26362 L -417.39168,449.26362"
             style="fill:none;stroke:#000000;stroke-width:0.62499064;stroke-linecap:butt;stroke-linejoin:miter;marker:none;stroke-miterlimit:4;stroke-dasharray:none;stroke-dashoffset:0;stroke-opacity:1;visibility:visible;display:inline;overflow:visible;enable-background:accumulate" /></g><path
           transform="matrix(0,1,-1,0,0,0)"
           style="fill:none;stroke:#ff0000;stroke-width:0.62639999;stroke-linecap:butt;stroke-linejoin:miter;marker:none;stroke-miterlimit:4;stroke-dashoffset:0;stroke-opacity:1;visibility:visible;display:inline;overflow:visible;enable-background:accumulate"
           d="M 181.24672,-263.35419 L 349.54393,-263.35419 C 354.52993,-263.35419 358.54393,-259.34019 358.54393,-254.35419 L 358.54393,118.06952 C 358.54393,123.05552 354.52993,127.06952 349.54393,127.06952 L 181.24672,127.06952 C 176.26072,127.06952 172.24672,123.05552 172.24672,118.06952 L 172.24672,-254.35419 C 172.24672,-259.34019 176.26072,-263.35419 181.24672,-263.35419 z"
           id="rect8872" /><g
           id="g9787"><path
             id="rect8876"
             d="M -8.2840385,-309.38275 L 45.593655,-309.38275 L 45.593655,-273.46429 L -8.2840385,-273.46429 L -8.2840385,-309.38275 z"
             style="fill:none;stroke:#000000;stroke-width:0.62499064;stroke-linecap:butt;stroke-linejoin:miter;marker:none;stroke-miterlimit:4;stroke-dashoffset:0;stroke-opacity:1;visibility:visible;display:inline;overflow:visible;enable-background:accumulate"
             transform="matrix(0.9832549,-0.1822355,-0.1822355,-0.9832549,0,0)" /><path
             id="path8878"
             d="M 192.14663,261.96074 C 192.14663,256.88262 188.02509,252.76088 182.94677,252.76087 C 182.0393,252.76087 181.15012,252.89073 180.32181,253.13587 C 180.281,253.14795 180.23739,253.14824 180.19681,253.16087 L 161.77209,256.58582 L 161.0971,252.91087 L 157.67215,253.53586 L 162.29708,279.13548 L 165.82203,278.36049 L 165.12204,274.56055 C 171.59427,273.49758 177.48968,272.27466 183.67176,271.1106 C 188.40467,270.73354 192.14663,266.78987 192.14663,261.96074 z"
             style="fill:none;stroke:#000000;stroke-width:0.62499064;stroke-linecap:butt;stroke-linejoin:miter;marker:none;stroke-miterlimit:4;stroke-dasharray:none;stroke-dashoffset:0;stroke-opacity:1;visibility:visible;display:inline;overflow:visible;enable-background:accumulate" /><path
             sodipodi:nodetypes="cc"
             inkscape:connector-curvature="0"
             id="path8880"
             d="M 95.557047,265.38853 L 158.58382,259.27533"
             style="fill:none;stroke:#000000;stroke-width:0.62499064;stroke-linecap:butt;stroke-linejoin:miter;marker:none;stroke-miterlimit:4;stroke-dasharray:none;stroke-dashoffset:0;stroke-opacity:1;visibility:visible;display:inline;overflow:visible;enable-background:accumulate" /><path
             sodipodi:nodetypes="ccc"
             inkscape:connector-curvature="0"
             id="path8882"
             d="M 161.44988,274.05643 L 100.38691,291.44808 L 100.38691,291.44808"
             style="fill:none;stroke:#000000;stroke-width:0.62499064;stroke-linecap:butt;stroke-linejoin:miter;marker:none;stroke-miterlimit:4;stroke-dasharray:none;stroke-dashoffset:0;stroke-opacity:1;visibility:visible;display:inline;overflow:visible;enable-background:accumulate" /><path
             sodipodi:nodetypes="cc"
             inkscape:connector-curvature="0"
             id="path8884"
             d="M 98.998965,282.59386 L 160.58822,269.4073"
             style="fill:none;stroke:#000000;stroke-width:0.62499064;stroke-linecap:butt;stroke-linejoin:miter;marker:none;stroke-miterlimit:4;stroke-dasharray:none;stroke-dashoffset:0;stroke-opacity:1;visibility:visible;display:inline;overflow:visible;enable-background:accumulate" /><path
             sodipodi:nodetypes="ccc"
             inkscape:connector-curvature="0"
             id="path8886"
             d="M 97.244003,273.80768 L 159.46815,264.04678 L 159.46815,264.04678"
             style="fill:none;stroke:#000000;stroke-width:0.62499064;stroke-linecap:butt;stroke-linejoin:miter;marker:none;stroke-miterlimit:4;stroke-dasharray:none;stroke-dashoffset:0;stroke-opacity:1;visibility:visible;display:inline;overflow:visible;enable-background:accumulate" /><path
             id="rect8888"
             d="M -45.531616,-273.26932 L 8.346077,-273.26932 L 8.346077,-237.35086 L -45.531616,-237.35086 L -45.531616,-273.26932 z"
             style="fill:none;stroke:#000000;stroke-width:0.62499064;stroke-linecap:butt;stroke-linejoin:miter;marker:none;stroke-miterlimit:4;stroke-dashoffset:0;stroke-opacity:1;visibility:visible;display:inline;overflow:visible;enable-background:accumulate"
             transform="matrix(-0.9832549,0.1822355,-0.1822355,-0.9832549,0,0)" /><path
             id="path8890"
             d="M -21.312508,276.95749 L -26.187434,251.40788 L -29.612383,252.05787 L -28.912393,255.70781 L -48.012106,258.98276 C -48.012106,258.98276 -48.111211,259.0801 -48.162104,259.13276 C -52.526246,259.8509 -55.861972,263.61633 -55.861988,268.18263 C -55.861988,273.26075 -51.740434,277.38249 -46.662126,277.38249 C -46.436787,277.38249 -46.208422,277.37344 -45.987137,277.35749 C -45.970774,277.35631 -45.953469,277.35876 -45.937137,277.35749 C -45.760671,277.39835 -45.662141,277.43249 -45.662141,277.43249 C -38.917751,276.1825 -32.534928,275.14292 -25.587443,273.70754 L -24.887454,277.50749 L -21.312508,276.95749 z"
             style="fill:none;stroke:#000000;stroke-width:0.62499064;stroke-linecap:butt;stroke-linejoin:miter;marker:none;stroke-miterlimit:4;stroke-dasharray:none;stroke-dashoffset:0;stroke-opacity:1;visibility:visible;display:inline;overflow:visible;enable-background:accumulate" /><path
             sodipodi:nodetypes="cc"
             inkscape:connector-curvature="0"
             id="path8892"
             d="M 35.939401,239.70955 L -25.091929,256.58915"
             style="fill:none;stroke:#000000;stroke-width:0.62499064;stroke-linecap:butt;stroke-linejoin:miter;marker:none;stroke-miterlimit:4;stroke-dasharray:none;stroke-dashoffset:0;stroke-opacity:1;visibility:visible;display:inline;overflow:visible;enable-background:accumulate" /><path
             sodipodi:nodetypes="ccc"
             inkscape:connector-curvature="0"
             id="path8894"
             d="M -22.47056,271.41561 L 40.769261,265.7691 L 40.769261,265.7691"
             style="fill:none;stroke:#000000;stroke-width:0.62499064;stroke-linecap:butt;stroke-linejoin:miter;marker:none;stroke-miterlimit:4;stroke-dasharray:none;stroke-dashoffset:0;stroke-opacity:1;visibility:visible;display:inline;overflow:visible;enable-background:accumulate" /><path
             sodipodi:nodetypes="cc"
             inkscape:connector-curvature="0"
             id="path8896"
             d="M 38.891943,257.00559 L -23.332225,266.76648"
             style="fill:none;stroke:#000000;stroke-width:0.62499064;stroke-linecap:butt;stroke-linejoin:miter;marker:none;stroke-miterlimit:4;stroke-dasharray:none;stroke-dashoffset:0;stroke-opacity:1;visibility:visible;display:inline;overflow:visible;enable-background:accumulate" /><path
             sodipodi:nodetypes="ccc"
             inkscape:connector-curvature="0"
             id="path8898"
             d="M 37.381653,248.17405 L -24.207595,261.36062 L -24.207595,261.36062"
             style="fill:none;stroke:#000000;stroke-width:0.62499064;stroke-linecap:butt;stroke-linejoin:miter;marker:none;stroke-miterlimit:4;stroke-dasharray:none;stroke-dashoffset:0;stroke-opacity:1;visibility:visible;display:inline;overflow:visible;enable-background:accumulate" /></g><path
           transform="matrix(0,1,-1,0,0,0)"
           style="fill:none;stroke:#ff0000;stroke-width:0.62639999;stroke-linecap:butt;stroke-linejoin:miter;marker:none;stroke-miterlimit:4;stroke-dashoffset:0;stroke-opacity:1;visibility:visible;display:inline;overflow:visible;enable-background:accumulate"
           d="M 181.24672,129.8299 L 349.54393,129.8299 C 354.52993,129.8299 358.54393,133.8439 358.54393,138.8299 L 358.54393,511.2536 C 358.54393,516.2396 354.52993,520.2536 349.54393,520.2536 L 181.24672,520.2536 C 176.26072,520.2536 172.24672,516.2396 172.24672,511.2536 L 172.24672,138.8299 C 172.24672,133.8439 176.26072,129.8299 181.24672,129.8299 z"
           id="rect8904" /><g
           id="g9773"><path
             id="rect8908"
             d="M -394.88422,-237.73065 L -341.00652,-237.73065 L -341.00652,-201.81219 L -394.88422,-201.81219 L -394.88422,-237.73065 z"
             style="fill:none;stroke:#000000;stroke-width:0.62499064;stroke-linecap:butt;stroke-linejoin:miter;marker:none;stroke-miterlimit:4;stroke-dashoffset:0;stroke-opacity:1;visibility:visible;display:inline;overflow:visible;enable-background:accumulate"
             transform="matrix(0.9832549,-0.1822355,-0.1822355,-0.9832549,0,0)" /><path
             id="path8910"
             d="M -201.03745,261.96074 C -201.03745,256.88262 -205.15899,252.76088 -210.23731,252.76087 C -211.14478,252.76087 -212.03396,252.89073 -212.86227,253.13587 C -212.90308,253.14795 -212.94669,253.14824 -212.98727,253.16087 L -231.41199,256.58582 L -232.08698,252.91087 L -235.51193,253.53586 L -230.887,279.13548 L -227.36205,278.36049 L -228.06204,274.56055 C -221.58981,273.49758 -215.6944,272.27466 -209.51232,271.1106 C -204.77941,270.73354 -201.03745,266.78987 -201.03745,261.96074 z"
             style="fill:none;stroke:#000000;stroke-width:0.62499064;stroke-linecap:butt;stroke-linejoin:miter;marker:none;stroke-miterlimit:4;stroke-dasharray:none;stroke-dashoffset:0;stroke-opacity:1;visibility:visible;display:inline;overflow:visible;enable-background:accumulate" /><path
             sodipodi:nodetypes="cc"
             inkscape:connector-curvature="0"
             id="path8912"
             d="M -297.62703,265.38853 L -234.60026,259.27533"
             style="fill:none;stroke:#000000;stroke-width:0.62499064;stroke-linecap:butt;stroke-linejoin:miter;marker:none;stroke-miterlimit:4;stroke-dasharray:none;stroke-dashoffset:0;stroke-opacity:1;visibility:visible;display:inline;overflow:visible;enable-background:accumulate" /><path
             sodipodi:nodetypes="ccc"
             inkscape:connector-curvature="0"
             id="path8914"
             d="M -231.7342,274.05643 L -292.79717,291.44808 L -292.79717,291.44808"
             style="fill:none;stroke:#000000;stroke-width:0.62499064;stroke-linecap:butt;stroke-linejoin:miter;marker:none;stroke-miterlimit:4;stroke-dasharray:none;stroke-dashoffset:0;stroke-opacity:1;visibility:visible;display:inline;overflow:visible;enable-background:accumulate" /><path
             sodipodi:nodetypes="cc"
             inkscape:connector-curvature="0"
             id="path8916"
             d="M -294.18511,282.59386 L -232.59586,269.4073"
             style="fill:none;stroke:#000000;stroke-width:0.62499064;stroke-linecap:butt;stroke-linejoin:miter;marker:none;stroke-miterlimit:4;stroke-dasharray:none;stroke-dashoffset:0;stroke-opacity:1;visibility:visible;display:inline;overflow:visible;enable-background:accumulate" /><path
             sodipodi:nodetypes="ccc"
             inkscape:connector-curvature="0"
             id="path8918"
             d="M -295.94008,273.80768 L -233.71593,264.04678 L -233.71593,264.04678"
             style="fill:none;stroke:#000000;stroke-width:0.62499064;stroke-linecap:butt;stroke-linejoin:miter;marker:none;stroke-miterlimit:4;stroke-dasharray:none;stroke-dashoffset:0;stroke-opacity:1;visibility:visible;display:inline;overflow:visible;enable-background:accumulate" /><path
             id="rect8920"
             d="M 341.06857,-201.61722 L 394.94627,-201.61722 L 394.94627,-165.69876 L 341.06857,-165.69876 L 341.06857,-201.61722 z"
             style="fill:none;stroke:#000000;stroke-width:0.62499064;stroke-linecap:butt;stroke-linejoin:miter;marker:none;stroke-miterlimit:4;stroke-dashoffset:0;stroke-opacity:1;visibility:visible;display:inline;overflow:visible;enable-background:accumulate"
             transform="matrix(-0.9832549,0.1822355,-0.1822355,-0.9832549,0,0)" /><path
             id="path8922"
             d="M -414.49659,276.95749 L -419.37151,251.40788 L -422.79646,252.05787 L -422.09647,255.70781 L -441.19619,258.98276 C -441.19619,258.98276 -441.29529,259.0801 -441.34618,259.13276 C -445.71033,259.8509 -449.04605,263.61633 -449.04607,268.18263 C -449.04607,273.26075 -444.92451,277.38249 -439.84621,277.38249 C -439.62087,277.38249 -439.3925,277.37344 -439.17122,277.35749 C -439.15485,277.35631 -439.13755,277.35876 -439.12122,277.35749 C -438.94475,277.39835 -438.84622,277.43249 -438.84622,277.43249 C -432.10183,276.1825 -425.71901,275.14292 -418.77152,273.70754 L -418.07153,277.50749 L -414.49659,276.95749 z"
             style="fill:none;stroke:#000000;stroke-width:0.62499064;stroke-linecap:butt;stroke-linejoin:miter;marker:none;stroke-miterlimit:4;stroke-dasharray:none;stroke-dashoffset:0;stroke-opacity:1;visibility:visible;display:inline;overflow:visible;enable-background:accumulate" /><path
             sodipodi:nodetypes="cc"
             inkscape:connector-curvature="0"
             id="path8924"
             d="M -357.24468,239.70955 L -418.27601,256.58915"
             style="fill:none;stroke:#000000;stroke-width:0.62499064;stroke-linecap:butt;stroke-linejoin:miter;marker:none;stroke-miterlimit:4;stroke-dasharray:none;stroke-dashoffset:0;stroke-opacity:1;visibility:visible;display:inline;overflow:visible;enable-background:accumulate" /><path
             sodipodi:nodetypes="ccc"
             inkscape:connector-curvature="0"
             id="path8926"
             d="M -415.65464,271.41561 L -352.41482,265.7691 L -352.41482,265.7691"
             style="fill:none;stroke:#000000;stroke-width:0.62499064;stroke-linecap:butt;stroke-linejoin:miter;marker:none;stroke-miterlimit:4;stroke-dasharray:none;stroke-dashoffset:0;stroke-opacity:1;visibility:visible;display:inline;overflow:visible;enable-background:accumulate" /><path
             sodipodi:nodetypes="cc"
             inkscape:connector-curvature="0"
             id="path8928"
             d="M -354.29214,257.00559 L -416.51631,266.76648"
             style="fill:none;stroke:#000000;stroke-width:0.62499064;stroke-linecap:butt;stroke-linejoin:miter;marker:none;stroke-miterlimit:4;stroke-dasharray:none;stroke-dashoffset:0;stroke-opacity:1;visibility:visible;display:inline;overflow:visible;enable-background:accumulate" /><path
             sodipodi:nodetypes="ccc"
             inkscape:connector-curvature="0"
             id="path8930"
             d="M -355.80243,248.17405 L -417.39168,261.36062 L -417.39168,261.36062"
             style="fill:none;stroke:#000000;stroke-width:0.62499064;stroke-linecap:butt;stroke-linejoin:miter;marker:none;stroke-miterlimit:4;stroke-dasharray:none;stroke-dashoffset:0;stroke-opacity:1;visibility:visible;display:inline;overflow:visible;enable-background:accumulate" /></g><path
           transform="scale(-1,-1)"
           style="fill:none;stroke:#ff0000;stroke-width:0.62639999;stroke-linecap:butt;stroke-linejoin:miter;marker:none;stroke-miterlimit:4;stroke-dashoffset:0;stroke-opacity:1;visibility:visible;display:inline;overflow:visible;enable-background:accumulate"
           d="M -443.9126,-548.43475 L -275.61539,-548.43475 C -270.62939,-548.43475 -266.61539,-544.42075 -266.61539,-539.43475 L -266.61539,-167.01105 C -266.61539,-162.02505 -270.62939,-158.01105 -275.61539,-158.01105 L -443.9126,-158.01105 C -448.8986,-158.01105 -452.9126,-162.02505 -452.9126,-167.01105 L -452.9126,-539.43475 C -452.9126,-544.42075 -448.8986,-548.43475 -443.9126,-548.43475 z"
           id="rect9260" /><g
           id="g9815"><path
             id="rect9264"
             d="M 385.94904,253.35641 L 439.82673,253.35641 L 439.82673,289.27488 L 385.94904,289.27488 L 385.94904,253.35641 z"
             style="fill:none;stroke:#000000;stroke-width:0.62499064;stroke-linecap:butt;stroke-linejoin:miter;marker:none;stroke-miterlimit:4;stroke-dashoffset:0;stroke-opacity:1;visibility:visible;display:inline;overflow:visible;enable-background:accumulate"
             transform="matrix(0.1822355,0.9832549,0.9832549,-0.1822355,0,0)" /><path
             id="path9266"
             d="M 363.19858,477.22717 C 368.2767,477.22717 372.39844,473.10563 372.39845,468.02731 C 372.39845,467.11984 372.26859,466.23066 372.02345,465.40235 C 372.01137,465.36154 372.01108,465.31793 371.99845,465.27735 L 368.5735,446.85263 L 372.24845,446.17764 L 371.62346,442.75269 L 346.02384,447.37762 L 346.79883,450.90257 L 350.59877,450.20258 C 351.66174,456.67481 352.88466,462.57022 354.04872,468.7523 C 354.42578,473.48521 358.36945,477.22717 363.19858,477.22717 z"
             style="fill:none;stroke:#000000;stroke-width:0.62499064;stroke-linecap:butt;stroke-linejoin:miter;marker:none;stroke-miterlimit:4;stroke-dasharray:none;stroke-dashoffset:0;stroke-opacity:1;visibility:visible;display:inline;overflow:visible;enable-background:accumulate" /><path
             sodipodi:nodetypes="cc"
             inkscape:connector-curvature="0"
             id="path9268"
             d="M 359.77079,380.63759 L 365.88399,443.66436"
             style="fill:none;stroke:#000000;stroke-width:0.62499064;stroke-linecap:butt;stroke-linejoin:miter;marker:none;stroke-miterlimit:4;stroke-dasharray:none;stroke-dashoffset:0;stroke-opacity:1;visibility:visible;display:inline;overflow:visible;enable-background:accumulate" /><path
             sodipodi:nodetypes="ccc"
             inkscape:connector-curvature="0"
             id="path9270"
             d="M 351.10289,446.53042 L 333.71124,385.46745 L 333.71124,385.46745"
             style="fill:none;stroke:#000000;stroke-width:0.62499064;stroke-linecap:butt;stroke-linejoin:miter;marker:none;stroke-miterlimit:4;stroke-dasharray:none;stroke-dashoffset:0;stroke-opacity:1;visibility:visible;display:inline;overflow:visible;enable-background:accumulate" /><path
             sodipodi:nodetypes="cc"
             inkscape:connector-curvature="0"
             id="path9272"
             d="M 342.56546,384.07951 L 355.75202,445.66876"
             style="fill:none;stroke:#000000;stroke-width:0.62499064;stroke-linecap:butt;stroke-linejoin:miter;marker:none;stroke-miterlimit:4;stroke-dasharray:none;stroke-dashoffset:0;stroke-opacity:1;visibility:visible;display:inline;overflow:visible;enable-background:accumulate" /><path
             sodipodi:nodetypes="ccc"
             inkscape:connector-curvature="0"
             id="path9274"
             d="M 351.35164,382.32454 L 361.11254,444.54869 L 361.11254,444.54869"
             style="fill:none;stroke:#000000;stroke-width:0.62499064;stroke-linecap:butt;stroke-linejoin:miter;marker:none;stroke-miterlimit:4;stroke-dasharray:none;stroke-dashoffset:0;stroke-opacity:1;visibility:visible;display:inline;overflow:visible;enable-background:accumulate" /><path
             id="rect9276"
             d="M -439.76468,289.46985 L -385.88699,289.46985 L -385.88699,325.38831 L -439.76468,325.38831 L -439.76468,289.46985 z"
             style="fill:none;stroke:#000000;stroke-width:0.62499064;stroke-linecap:butt;stroke-linejoin:miter;marker:none;stroke-miterlimit:4;stroke-dashoffset:0;stroke-opacity:1;visibility:visible;display:inline;overflow:visible;enable-background:accumulate"
             transform="matrix(-0.1822355,-0.9832549,0.9832549,-0.1822355,0,0)" /><path
             id="path9278"
             d="M 348.20183,263.76803 L 373.75144,258.89311 L 373.10145,255.46816 L 369.45151,256.16815 L 366.17656,237.06843 C 366.17656,237.06843 366.07922,236.96933 366.02656,236.91844 C 365.30842,232.55429 361.54299,229.21857 356.97669,229.21855 C 351.89857,229.21855 347.77683,233.34011 347.77683,238.41841 C 347.77683,238.64375 347.78588,238.87212 347.80183,239.0934 C 347.80301,239.10977 347.80056,239.12707 347.80183,239.1434 C 347.76097,239.31987 347.72683,239.4184 347.72683,239.4184 C 348.97682,246.16279 350.0164,252.54561 351.45178,259.4931 L 347.65183,260.19309 L 348.20183,263.76803 z"
             style="fill:none;stroke:#000000;stroke-width:0.62499064;stroke-linecap:butt;stroke-linejoin:miter;marker:none;stroke-miterlimit:4;stroke-dasharray:none;stroke-dashoffset:0;stroke-opacity:1;visibility:visible;display:inline;overflow:visible;enable-background:accumulate" /><path
             sodipodi:nodetypes="cc"
             inkscape:connector-curvature="0"
             id="path9280"
             d="M 385.44977,321.01994 L 368.57017,259.98861"
             style="fill:none;stroke:#000000;stroke-width:0.62499064;stroke-linecap:butt;stroke-linejoin:miter;marker:none;stroke-miterlimit:4;stroke-dasharray:none;stroke-dashoffset:0;stroke-opacity:1;visibility:visible;display:inline;overflow:visible;enable-background:accumulate" /><path
             sodipodi:nodetypes="ccc"
             inkscape:connector-curvature="0"
             id="path9282"
             d="M 353.74371,262.60998 L 359.39022,325.8498 L 359.39022,325.8498"
             style="fill:none;stroke:#000000;stroke-width:0.62499064;stroke-linecap:butt;stroke-linejoin:miter;marker:none;stroke-miterlimit:4;stroke-dasharray:none;stroke-dashoffset:0;stroke-opacity:1;visibility:visible;display:inline;overflow:visible;enable-background:accumulate" /><path
             sodipodi:nodetypes="cc"
             inkscape:connector-curvature="0"
             id="path9284"
             d="M 368.15373,323.97248 L 358.39284,261.74831"
             style="fill:none;stroke:#000000;stroke-width:0.62499064;stroke-linecap:butt;stroke-linejoin:miter;marker:none;stroke-miterlimit:4;stroke-dasharray:none;stroke-dashoffset:0;stroke-opacity:1;visibility:visible;display:inline;overflow:visible;enable-background:accumulate" /><path
             sodipodi:nodetypes="ccc"
             inkscape:connector-curvature="0"
             id="path9286"
             d="M 376.98527,322.46219 L 363.7987,260.87294 L 363.7987,260.87294"
             style="fill:none;stroke:#000000;stroke-width:0.62499064;stroke-linecap:butt;stroke-linejoin:miter;marker:none;stroke-miterlimit:4;stroke-dasharray:none;stroke-dashoffset:0;stroke-opacity:1;visibility:visible;display:inline;overflow:visible;enable-background:accumulate" /></g><path
           transform="scale(-1,-1)"
           style="fill:none;stroke:#ff0000;stroke-width:0.62639999;stroke-linecap:butt;stroke-linejoin:miter;marker:none;stroke-miterlimit:4;stroke-dashoffset:0;stroke-opacity:1;visibility:visible;display:inline;overflow:visible;enable-background:accumulate"
           d="M -443.9126,-155.25064 L -275.61539,-155.25064 C -270.62939,-155.25064 -266.61539,-151.23664 -266.61539,-146.25064 L -266.61539,226.17307 C -266.61539,231.15907 -270.62939,235.17307 -275.61539,235.17307 L -443.9126,235.17307 C -448.8986,235.17307 -452.9126,231.15907 -452.9126,226.17307 L -452.9126,-146.25064 C -452.9126,-151.23664 -448.8986,-155.25064 -443.9126,-155.25064 z"
           id="rect9292" /></g></g></g></svg>