<?xml version="1.0" encoding="utf-8"?>
<!-- Generator: Adobe Illustrator 13.0.0, SVG Export Plug-In . SVG Version: 6.00 Build 14948)  -->
<!DOCTYPE svg PUBLIC "-//W3C//DTD SVG 1.0//EN" "http://www.w3.org/TR/2001/REC-SVG-20010904/DTD/svg10.dtd">
<svg version="1.0"
	 id="svg2" inkscape:output_extension="org.inkscape.output.svg.inkscape" xmlns:inkscape="http://www.inkscape.org/namespaces/inkscape" sodipodi:version="0.32" xmlns:cc="http://creativecommons.org/ns#" xmlns:rdf="http://www.w3.org/1999/02/22-rdf-syntax-ns#" xmlns:dc="http://purl.org/dc/elements/1.1/" xmlns:sodipodi="http://sodipodi.sourceforge.net/DTD/sodipodi-0.dtd" sodipodi:docname="LED_2x4.svg" inkscape:version="0.46" xmlns:svg="http://www.w3.org/2000/svg"
	 xmlns="http://www.w3.org/2000/svg" xmlns:xlink="http://www.w3.org/1999/xlink" x="0px" y="0px" width="782.469px"
	 height="748.518px" viewBox="0 0 782.469 748.518" enable-background="new 0 0 782.469 748.518" xml:space="preserve">
<defs>
	
	
		<inkscape:perspective  id="perspective35" inkscape:vp_z="567.81738 : 410.56467 : 1" inkscape:vp_y="0 : 1000 : 0" inkscape:persp3d-origin="283.90869 : 273.70978 : 1" sodipodi:type="inkscape:persp3d" inkscape:vp_x="0 : 410.56467 : 1">
		</inkscape:perspective>
	<inkscape:path-effect  effect="spiro" id="path-effect3941" is_visible="true"></inkscape:path-effect>
	<inkscape:path-effect  effect="spiro" id="path-effect3941-2" is_visible="true"></inkscape:path-effect>
	<inkscape:path-effect  effect="spiro" id="path-effect3941-1" is_visible="true"></inkscape:path-effect>
	<inkscape:path-effect  effect="spiro" id="path-effect3941-2-1" is_visible="true"></inkscape:path-effect>
	<inkscape:path-effect  effect="spiro" id="path-effect3941-1-7" is_visible="true"></inkscape:path-effect>
	<inkscape:path-effect  effect="spiro" id="path-effect3941-2-1-2" is_visible="true"></inkscape:path-effect>
	<inkscape:path-effect  effect="spiro" id="path-effect23631" is_visible="true"></inkscape:path-effect>
	<inkscape:path-effect  effect="spiro" id="path-effect23629" is_visible="true"></inkscape:path-effect>
	
		<inkscape:perspective  id="perspective37" inkscape:vp_z="744.09448 : 526.18109 : 1" inkscape:vp_y="0 : 1000 : 0" inkscape:persp3d-origin="372.04724 : 350.78739 : 1" sodipodi:type="inkscape:persp3d" inkscape:vp_x="0 : 526.18109 : 1">
		</inkscape:perspective>
</defs>
<sodipodi:namedview  units="cm" id="namedview4" inkscape:window-maximized="1" borderopacity="1" pagecolor="#ffffff" bordercolor="#666666" objecttolerance="10" guidetolerance="10" inkscape:pageopacity="0" inkscape:pageshadow="2" inkscape:zoom="0.5" fit-margin-bottom="0.2" fit-margin-right="0.2" fit-margin-top="0.2" fit-margin-left="0.2" inkscape:current-layer="g8680" inkscape:window-y="0" inkscape:window-x="4" inkscape:cy="498.57664" inkscape:cx="222.4204" gridtolerance="10" showgrid="false" inkscape:window-width="1280" inkscape:window-height="778">
	</sodipodi:namedview>
<g id="g3970">
</g>
<g id="Default" transform="matrix(2.757182e-2,0,0,-2.757182e-2,-213.253,575.99534)">
	<desc  id="desc32263">Master slide</desc>
</g>
<g>
	<g>
		<path id="rect8807_7_" fill="none" stroke="#FF0000" stroke-width="3" d="M374.878,186.19c4.975,0,8.979-4.005,8.979-8.979V9.292
			c0-4.975-4.005-8.979-8.979-8.979H3.292c-4.975,0-8.98,4.005-8.98,8.979v167.919c0,4.975,4.005,8.979,8.98,8.979"/>
		<g id="g9759" transform="translate(3.6886713,0)">
			<path id="rect8811" fill="none" stroke="#000000" stroke-width="3" d="M165.534,53.026l52.856,9.796L211.86,98.06l-52.856-9.796
				L165.534,53.026z"/>
			<path id="path8813" fill="none" stroke="#000000" stroke-width="3" d="M309.122,96.678c0,5.067-4.112,9.179-9.18,9.179
				c-0.905,0-1.792-0.129-2.619-0.374c-0.04-0.012-0.083-0.012-0.124-0.025l-18.383-3.417l-0.674,3.667l-3.417-0.624l4.615-25.542
				l3.517,0.773l-0.698,3.792c6.458,1.061,12.34,2.281,18.508,3.442C305.388,87.925,309.122,91.86,309.122,96.678z"/>
			
				<path id="path8815" inkscape:connector-curvature="0" sodipodi:nodetypes="cc" fill="none" stroke="#000000" stroke-width="3" d="
				M212.749,93.258l62.885,6.1"/>
			
				<path id="path8817" inkscape:connector-curvature="0" sodipodi:nodetypes="ccc" fill="none" stroke="#000000" stroke-width="3" d="
				M278.494,84.61l-60.925-17.353l0,0"/>
			
				<path id="path8819" inkscape:connector-curvature="0" sodipodi:nodetypes="cc" fill="none" stroke="#000000" stroke-width="3" d="
				M216.184,76.092l61.451,13.157"/>
			
				<path id="path8821" inkscape:connector-curvature="0" sodipodi:nodetypes="ccc" fill="none" stroke="#000000" stroke-width="3" d="
				M214.432,84.858l62.084,9.739l0,0"/>
			<path id="rect8823" fill="none" stroke="#000000" stroke-width="3" d="M211.763,98.24l-52.856-9.796l-6.531,35.237l52.856,9.796
				L211.763,98.24z"/>
			<path id="path8825" fill="none" stroke="#000000" stroke-width="3" d="M96.143,81.715l-4.864,25.492l-3.417-0.648l0.699-3.642
				l-19.057-3.268c0,0-0.099-0.097-0.149-0.149c-4.354-0.717-7.683-4.474-7.683-9.029c0-5.067,4.112-9.179,9.179-9.179
				c0.225,0,0.453,0.009,0.673,0.025c0.017,0.001,0.034-0.001,0.05,0c0.176-0.041,0.274-0.075,0.274-0.075
				c6.729,1.248,13.098,2.285,20.03,3.717l0.698-3.792L96.143,81.715z"/>
			
				<path id="path8827" inkscape:connector-curvature="0" sodipodi:nodetypes="cc" fill="none" stroke="#000000" stroke-width="3" d="
				M153.266,118.879l-60.894-16.841"/>
			
				<path id="path8829" inkscape:connector-curvature="0" sodipodi:nodetypes="ccc" fill="none" stroke="#000000" stroke-width="3" d="
				M94.988,87.245l63.097,5.634l0,0"/>
			
				<path id="path8831" inkscape:connector-curvature="0" sodipodi:nodetypes="cc" fill="none" stroke="#000000" stroke-width="3" d="
				M156.212,101.623l-62.084-9.739"/>
			
				<path id="path8833" inkscape:connector-curvature="0" sodipodi:nodetypes="ccc" fill="none" stroke="#000000" stroke-width="3" d="
				M154.705,110.434L93.254,97.277l0,0"/>
		</g>
	</g>
	<g>
		<path id="rect8807_9_" fill="none" stroke="#FF0000" stroke-width="3" d="M383.858,195.17c0-4.975-4.006-8.979-8.98-8.979"/>
		<path id="rect8807_28_" fill="none" stroke="#FF0000" stroke-width="3" d="M374.877,372.068c4.975,0,8.98-4.005,8.98-8.979V195.17
			"/>
		<path id="rect8807_15_" fill="none" stroke="#FF0000" stroke-width="3" d="M3.292,186.19c-4.975,0-8.98,4.005-8.98,8.979v167.919
			c0,4.975,4.005,8.979,8.98,8.979"/>
		<path id="rect8807_1_" fill="none" stroke="#FF0000" stroke-width="3" d="M374.877,186.19H3.292"/>
		<g id="g9759_1_" transform="translate(3.6886713,0)">
			<path id="rect8811_1_" fill="none" stroke="#000000" stroke-width="3" d="M165.534,238.904l52.856,9.796l-6.53,35.237
				l-52.856-9.796L165.534,238.904z"/>
			<path id="path8813_1_" fill="none" stroke="#000000" stroke-width="3" d="M309.122,282.556c0,5.067-4.113,9.179-9.18,9.179
				c-0.906,0-1.793-0.129-2.619-0.374c-0.041-0.012-0.084-0.012-0.125-0.025l-18.383-3.417l-0.674,3.667l-3.417-0.624l4.614-25.542
				l3.518,0.773l-0.699,3.792c6.458,1.061,12.34,2.281,18.508,3.442C305.388,273.803,309.122,277.738,309.122,282.556z"/>
			
				<path id="path8815_1_" inkscape:connector-curvature="0" sodipodi:nodetypes="cc" fill="none" stroke="#000000" stroke-width="3" d="
				M212.749,279.136l62.885,6.1"/>
			
				<path id="path8817_1_" inkscape:connector-curvature="0" sodipodi:nodetypes="ccc" fill="none" stroke="#000000" stroke-width="3" d="
				M278.493,270.488l-60.925-17.353l0,0"/>
			
				<path id="path8819_1_" inkscape:connector-curvature="0" sodipodi:nodetypes="cc" fill="none" stroke="#000000" stroke-width="3" d="
				M216.184,261.97l61.45,13.157"/>
			
				<path id="path8821_1_" inkscape:connector-curvature="0" sodipodi:nodetypes="ccc" fill="none" stroke="#000000" stroke-width="3" d="
				M214.433,270.736l62.084,9.739l0,0"/>
			<path id="rect8823_1_" fill="none" stroke="#000000" stroke-width="3" d="M211.763,284.118l-52.856-9.796l-6.531,35.237
				l52.855,9.796L211.763,284.118z"/>
			<path id="path8825_1_" fill="none" stroke="#000000" stroke-width="3" d="M96.143,267.593l-4.864,25.492l-3.417-0.648
				l0.699-3.642l-19.057-3.268c0,0-0.099-0.097-0.149-0.149c-4.354-0.717-7.683-4.474-7.683-9.029c0-5.067,4.112-9.179,9.179-9.179
				c0.225,0,0.453,0.009,0.673,0.025c0.017,0.001,0.034-0.001,0.05,0c0.176-0.041,0.274-0.075,0.274-0.075
				c6.729,1.248,13.098,2.285,20.03,3.717l0.698-3.792L96.143,267.593z"/>
			
				<path id="path8827_1_" inkscape:connector-curvature="0" sodipodi:nodetypes="cc" fill="none" stroke="#000000" stroke-width="3" d="
				M153.266,304.757l-60.894-16.841"/>
			
				<path id="path8829_1_" inkscape:connector-curvature="0" sodipodi:nodetypes="ccc" fill="none" stroke="#000000" stroke-width="3" d="
				M94.988,273.123l63.097,5.634l0,0"/>
			
				<path id="path8831_1_" inkscape:connector-curvature="0" sodipodi:nodetypes="cc" fill="none" stroke="#000000" stroke-width="3" d="
				M156.212,287.5l-62.084-9.739"/>
			
				<path id="path8833_1_" inkscape:connector-curvature="0" sodipodi:nodetypes="ccc" fill="none" stroke="#000000" stroke-width="3" d="
				M154.705,296.312l-61.451-13.157l0,0"/>
		</g>
	</g>
	<g>
		<path id="rect8807_18_" fill="none" stroke="#FF0000" stroke-width="3" d="M3.292,372.068c-4.975,0-8.98,4.005-8.98,8.979v167.919
			c0,4.975,4.005,8.979,8.98,8.979h371.585c4.975,0,8.98-4.005,8.98-8.979V381.048c0-4.975-4.006-8.979-8.98-8.979"/>
		<path id="rect8807_3_" fill="none" stroke="#FF0000" stroke-width="3" d="M374.877,372.068H3.292"/>
		<g id="g9759_3_" transform="translate(3.6886713,0)">
			<path id="rect8811_3_" fill="none" stroke="#000000" stroke-width="3" d="M165.534,424.781l52.856,9.797l-6.53,35.237
				l-52.856-9.796L165.534,424.781z"/>
			<path id="path8813_3_" fill="none" stroke="#000000" stroke-width="3" d="M309.122,468.434c0,5.067-4.113,9.18-9.18,9.18
				c-0.906,0-1.793-0.129-2.619-0.374c-0.041-0.013-0.084-0.013-0.125-0.024l-18.383-3.418l-0.674,3.667l-3.417-0.624l4.614-25.542
				l3.518,0.773l-0.699,3.792c6.458,1.061,12.34,2.28,18.508,3.441C305.388,459.682,309.122,463.616,309.122,468.434z"/>
			
				<path id="path8815_3_" inkscape:connector-curvature="0" sodipodi:nodetypes="cc" fill="none" stroke="#000000" stroke-width="3" d="
				M212.749,465.014l62.885,6.1"/>
			
				<path id="path8817_3_" inkscape:connector-curvature="0" sodipodi:nodetypes="ccc" fill="none" stroke="#000000" stroke-width="3" d="
				M278.493,456.365l-60.925-17.352l0,0"/>
			
				<path id="path8819_3_" inkscape:connector-curvature="0" sodipodi:nodetypes="cc" fill="none" stroke="#000000" stroke-width="3" d="
				M216.184,447.848l61.45,13.156"/>
			
				<path id="path8821_3_" inkscape:connector-curvature="0" sodipodi:nodetypes="ccc" fill="none" stroke="#000000" stroke-width="3" d="
				M214.433,456.613l62.084,9.74l0,0"/>
			<path id="rect8823_3_" fill="none" stroke="#000000" stroke-width="3" d="M211.763,469.996l-52.856-9.797l-6.531,35.237
				l52.855,9.796L211.763,469.996z"/>
			<path id="path8825_3_" fill="none" stroke="#000000" stroke-width="3" d="M96.143,453.471l-4.864,25.492l-3.417-0.648
				l0.699-3.642l-19.057-3.268c0,0-0.099-0.097-0.149-0.149c-4.354-0.717-7.683-4.474-7.683-9.029c0-5.066,4.112-9.18,9.179-9.18
				c0.225,0,0.453,0.01,0.673,0.025c0.017,0.001,0.034-0.002,0.05,0c0.176-0.041,0.274-0.075,0.274-0.075
				c6.729,1.247,13.098,2.284,20.03,3.717l0.698-3.792L96.143,453.471z"/>
			
				<path id="path8827_3_" inkscape:connector-curvature="0" sodipodi:nodetypes="cc" fill="none" stroke="#000000" stroke-width="3" d="
				M153.266,490.635l-60.894-16.841"/>
			
				<path id="path8829_3_" inkscape:connector-curvature="0" sodipodi:nodetypes="ccc" fill="none" stroke="#000000" stroke-width="3" d="
				M94.988,459l63.097,5.635l0,0"/>
			
				<path id="path8831_3_" inkscape:connector-curvature="0" sodipodi:nodetypes="cc" fill="none" stroke="#000000" stroke-width="3" d="
				M156.212,473.379l-62.084-9.74"/>
			
				<path id="path8833_3_" inkscape:connector-curvature="0" sodipodi:nodetypes="ccc" fill="none" stroke="#000000" stroke-width="3" d="
				M154.705,482.189l-61.451-13.156l0,0"/>
		</g>
	</g>
	<g>
		<path id="rect8807_13_" fill="none" stroke="#FF0000" stroke-width="3" d="M383.858,566.926c0-4.975-4.006-8.979-8.98-8.979"/>
		<path id="rect8807_17_" fill="none" stroke="#FF0000" stroke-width="3" d="M3.292,557.946c-4.975,0-8.98,4.005-8.98,8.979v167.919
			c0,4.975,4.005,8.979,8.98,8.979h371.585c4.975,0,8.98-4.005,8.98-8.979V566.926"/>
		<path id="rect8807_31_" fill="none" stroke="#FF0000" stroke-width="3" d="M3.292,557.946"/>
		<path id="rect8807_5_" fill="none" stroke="#FF0000" stroke-width="3" d="M374.877,557.946"/>
		<g id="g9759_2_" transform="translate(3.6886713,0)">
			<path id="rect8811_2_" fill="none" stroke="#000000" stroke-width="3" d="M165.534,610.66l52.856,9.796l-6.53,35.237
				l-52.856-9.797L165.534,610.66z"/>
			<path id="path8813_2_" fill="none" stroke="#000000" stroke-width="3" d="M309.122,654.312c0,5.066-4.113,9.179-9.18,9.179
				c-0.906,0-1.793-0.13-2.619-0.374c-0.041-0.012-0.084-0.012-0.125-0.025l-18.383-3.417l-0.674,3.667l-3.417-0.623l4.614-25.543
				l3.518,0.773l-0.699,3.791c6.458,1.061,12.34,2.281,18.508,3.442C305.388,645.559,309.122,649.494,309.122,654.312z"/>
			
				<path id="path8815_2_" inkscape:connector-curvature="0" sodipodi:nodetypes="cc" fill="none" stroke="#000000" stroke-width="3" d="
				M212.749,650.893l62.885,6.1"/>
			
				<path id="path8817_2_" inkscape:connector-curvature="0" sodipodi:nodetypes="ccc" fill="none" stroke="#000000" stroke-width="3" d="
				M278.493,642.244l-60.925-17.354l0,0"/>
			
				<path id="path8819_2_" inkscape:connector-curvature="0" sodipodi:nodetypes="cc" fill="none" stroke="#000000" stroke-width="3" d="
				M216.184,633.726l61.45,13.157"/>
			
				<path id="path8821_2_" inkscape:connector-curvature="0" sodipodi:nodetypes="ccc" fill="none" stroke="#000000" stroke-width="3" d="
				M214.433,642.492l62.084,9.738l0,0"/>
			<path id="rect8823_2_" fill="none" stroke="#000000" stroke-width="3" d="M211.763,655.873l-52.856-9.796l-6.531,35.237
				l52.855,9.797L211.763,655.873z"/>
			<path id="path8825_2_" fill="none" stroke="#000000" stroke-width="3" d="M96.143,639.35l-4.864,25.492l-3.417-0.648l0.699-3.643
				l-19.057-3.268c0,0-0.099-0.097-0.149-0.149c-4.354-0.717-7.683-4.474-7.683-9.029c0-5.067,4.112-9.179,9.179-9.179
				c0.225,0,0.453,0.008,0.673,0.024c0.017,0.001,0.034-0.001,0.05,0c0.176-0.041,0.274-0.075,0.274-0.075
				c6.729,1.248,13.098,2.285,20.03,3.717l0.698-3.791L96.143,639.35z"/>
			
				<path id="path8827_2_" inkscape:connector-curvature="0" sodipodi:nodetypes="cc" fill="none" stroke="#000000" stroke-width="3" d="
				M153.266,676.514l-60.894-16.842"/>
			
				<path id="path8829_2_" inkscape:connector-curvature="0" sodipodi:nodetypes="ccc" fill="none" stroke="#000000" stroke-width="3" d="
				M94.988,644.879l63.097,5.633l0,0"/>
			
				<path id="path8831_2_" inkscape:connector-curvature="0" sodipodi:nodetypes="cc" fill="none" stroke="#000000" stroke-width="3" d="
				M156.212,659.256l-62.084-9.738"/>
			
				<path id="path8833_2_" inkscape:connector-curvature="0" sodipodi:nodetypes="ccc" fill="none" stroke="#000000" stroke-width="3" d="
				M154.705,668.068l-61.451-13.157l0,0"/>
		</g>
	</g>
</g>
<g>
	<g>
		<path id="rect8807_8_" fill="none" stroke="#FF0000" stroke-width="3" d="M384.101,177.211c0,4.975,4.004,8.979,8.979,8.979
			h371.585c4.975,0,8.98-4.005,8.98-8.979V9.292c0-4.975-4.006-8.979-8.98-8.979H393.081c-4.976,0-8.979,4.005-8.979,8.979"/>
		<path id="rect8807_24_" fill="none" stroke="#FF0000" stroke-width="3" d="M384.101,177.211"/>
		<path id="rect8807_23_" fill="none" stroke="#FF0000" stroke-width="3" d="M384.101,9.292"/>
		<g id="g9759_7_" transform="translate(3.6886713,0)">
			<path id="rect8811_7_" fill="none" stroke="#000000" stroke-width="3" d="M555.323,53.026l52.855,9.796l-6.53,35.237
				l-52.856-9.796L555.323,53.026z"/>
			<path id="path8813_7_" fill="none" stroke="#000000" stroke-width="3" d="M698.91,96.678c0,5.067-4.113,9.179-9.18,9.179
				c-0.906,0-1.793-0.129-2.619-0.374c-0.041-0.012-0.084-0.012-0.125-0.025l-18.383-3.417l-0.674,3.667l-3.417-0.624l4.614-25.542
				l3.518,0.773l-0.699,3.792c6.458,1.061,12.34,2.281,18.508,3.442C695.176,87.925,698.91,91.86,698.91,96.678z"/>
			
				<path id="path8815_7_" inkscape:connector-curvature="0" sodipodi:nodetypes="cc" fill="none" stroke="#000000" stroke-width="3" d="
				M602.537,93.258l62.885,6.1"/>
			
				<path id="path8817_7_" inkscape:connector-curvature="0" sodipodi:nodetypes="ccc" fill="none" stroke="#000000" stroke-width="3" d="
				M668.281,84.61l-60.925-17.353l0,0"/>
			
				<path id="path8819_7_" inkscape:connector-curvature="0" sodipodi:nodetypes="cc" fill="none" stroke="#000000" stroke-width="3" d="
				M605.972,76.092l61.45,13.157"/>
			
				<path id="path8821_7_" inkscape:connector-curvature="0" sodipodi:nodetypes="ccc" fill="none" stroke="#000000" stroke-width="3" d="
				M604.221,84.858l62.084,9.739l0,0"/>
			<path id="rect8823_7_" fill="none" stroke="#000000" stroke-width="3" d="M601.551,98.24l-52.855-9.796l-6.531,35.237
				l52.855,9.796L601.551,98.24z"/>
			<path id="path8825_7_" fill="none" stroke="#000000" stroke-width="3" d="M485.931,81.715l-4.864,25.492l-3.417-0.648
				l0.698-3.642l-19.057-3.268c0,0-0.099-0.097-0.149-0.149c-4.354-0.717-7.683-4.474-7.683-9.029c0-5.067,4.112-9.179,9.18-9.179
				c0.225,0,0.452,0.009,0.673,0.025c0.017,0.001,0.034-0.001,0.05,0c0.176-0.041,0.274-0.075,0.274-0.075
				c6.729,1.248,13.098,2.285,20.03,3.717l0.697-3.792L485.931,81.715z"/>
			
				<path id="path8827_7_" inkscape:connector-curvature="0" sodipodi:nodetypes="cc" fill="none" stroke="#000000" stroke-width="3" d="
				M543.054,118.879l-60.894-16.841"/>
			
				<path id="path8829_7_" inkscape:connector-curvature="0" sodipodi:nodetypes="ccc" fill="none" stroke="#000000" stroke-width="3" d="
				M484.776,87.245l63.098,5.634l0,0"/>
			
				<path id="path8831_7_" inkscape:connector-curvature="0" sodipodi:nodetypes="cc" fill="none" stroke="#000000" stroke-width="3" d="
				M546,101.623l-62.084-9.739"/>
			
				<path id="path8833_7_" inkscape:connector-curvature="0" sodipodi:nodetypes="ccc" fill="none" stroke="#000000" stroke-width="3" d="
				M544.492,110.434l-61.45-13.157l0,0"/>
		</g>
	</g>
	<g>
		<path id="rect8807_14_" fill="none" stroke="#FF0000" stroke-width="3" d="M394.405,186.19h-1.324"/>
		<path id="rect8807_26_" fill="none" stroke="#FF0000" stroke-width="3" d="M394.405,186.19"/>
		<path id="rect8807_25_" fill="none" stroke="#FF0000" stroke-width="3" d="M764.666,186.19"/>
		<path id="rect8807_11_" fill="none" stroke="#FF0000" stroke-width="3" d="M393.081,372.068h371.585
			c4.975,0,8.98-4.004,8.98-8.979V195.17c0-4.975-4.006-8.979-8.98-8.979"/>
		<path id="rect8807_10_" fill="none" stroke="#FF0000" stroke-width="3" d="M384.101,363.089c0,4.975,4.004,8.979,8.979,8.979"/>
		<path id="rect8807_27_" fill="none" stroke="#FF0000" stroke-width="3" d="M384.101,363.089"/>
		<path id="rect8807_20_" fill="none" stroke="#FF0000" stroke-width="3" d="M384.101,195.17"/>
		<path id="rect8807_6_" fill="none" stroke="#FF0000" stroke-width="3" d="M393.081,186.19c-4.976,0-8.979,4.005-8.979,8.979"/>
		<g id="g9759_6_" transform="translate(3.6886713,0)">
			<path id="rect8811_6_" fill="none" stroke="#000000" stroke-width="3" d="M555.323,238.904l52.855,9.796l-6.53,35.237
				l-52.856-9.796L555.323,238.904z"/>
			<path id="path8813_6_" fill="none" stroke="#000000" stroke-width="3" d="M698.91,282.556c0,5.067-4.113,9.179-9.18,9.179
				c-0.906,0-1.793-0.129-2.619-0.374c-0.041-0.012-0.084-0.012-0.125-0.025l-18.383-3.417l-0.674,3.667l-3.417-0.624l4.614-25.542
				l3.518,0.773l-0.699,3.792c6.458,1.061,12.34,2.281,18.508,3.442C695.176,273.803,698.91,277.738,698.91,282.556z"/>
			
				<path id="path8815_6_" inkscape:connector-curvature="0" sodipodi:nodetypes="cc" fill="none" stroke="#000000" stroke-width="3" d="
				M602.537,279.136l62.885,6.1"/>
			
				<path id="path8817_6_" inkscape:connector-curvature="0" sodipodi:nodetypes="ccc" fill="none" stroke="#000000" stroke-width="3" d="
				M668.281,270.488l-60.925-17.353l0,0"/>
			
				<path id="path8819_6_" inkscape:connector-curvature="0" sodipodi:nodetypes="cc" fill="none" stroke="#000000" stroke-width="3" d="
				M605.972,261.97l61.45,13.157"/>
			
				<path id="path8821_6_" inkscape:connector-curvature="0" sodipodi:nodetypes="ccc" fill="none" stroke="#000000" stroke-width="3" d="
				M604.221,270.736l62.084,9.739l0,0"/>
			<path id="rect8823_6_" fill="none" stroke="#000000" stroke-width="3" d="M601.551,284.118l-52.855-9.796l-6.531,35.237
				l52.855,9.796L601.551,284.118z"/>
			<path id="path8825_6_" fill="none" stroke="#000000" stroke-width="3" d="M485.931,267.593l-4.864,25.492l-3.417-0.648
				l0.698-3.642l-19.057-3.268c0,0-0.099-0.097-0.149-0.149c-4.354-0.717-7.683-4.474-7.683-9.029c0-5.067,4.112-9.179,9.18-9.179
				c0.225,0,0.452,0.009,0.673,0.025c0.017,0.001,0.034-0.001,0.05,0c0.176-0.041,0.274-0.075,0.274-0.075
				c6.729,1.248,13.098,2.285,20.03,3.717l0.697-3.792L485.931,267.593z"/>
			
				<path id="path8827_6_" inkscape:connector-curvature="0" sodipodi:nodetypes="cc" fill="none" stroke="#000000" stroke-width="3" d="
				M543.054,304.757l-60.894-16.841"/>
			
				<path id="path8829_6_" inkscape:connector-curvature="0" sodipodi:nodetypes="ccc" fill="none" stroke="#000000" stroke-width="3" d="
				M484.776,273.123l63.098,5.634l0,0"/>
			
				<path id="path8831_6_" inkscape:connector-curvature="0" sodipodi:nodetypes="cc" fill="none" stroke="#000000" stroke-width="3" d="
				M546,287.5l-62.084-9.739"/>
			
				<path id="path8833_6_" inkscape:connector-curvature="0" sodipodi:nodetypes="ccc" fill="none" stroke="#000000" stroke-width="3" d="
				M544.492,296.312l-61.45-13.157l0,0"/>
		</g>
	</g>
	<g>
		<path id="rect8807_29_" fill="none" stroke="#FF0000" stroke-width="3" d="M393.081,372.068c-4.976,0-8.979,4.006-8.979,8.98"/>
		<path id="rect8807_19_" fill="none" stroke="#FF0000" stroke-width="3" d="M764.666,372.068"/>
		<path id="rect8807_12_" fill="none" stroke="#FF0000" stroke-width="3" d="M384.101,548.967c0,4.975,4.004,8.98,8.979,8.98
			h371.585c4.975,0,8.98-4.006,8.98-8.98V381.049c0-4.975-4.006-8.98-8.98-8.98"/>
		<path id="rect8807_30_" fill="none" stroke="#FF0000" stroke-width="3" d="M384.101,548.967"/>
		<path id="rect8807_21_" fill="none" stroke="#FF0000" stroke-width="3" d="M384.101,381.049"/>
		<g id="g9759_5_" transform="translate(3.6886713,0)">
			<path id="rect8811_5_" fill="none" stroke="#000000" stroke-width="3" d="M555.323,424.781l52.855,9.797l-6.53,35.238
				l-52.856-9.797L555.323,424.781z"/>
			<path id="path8813_5_" fill="none" stroke="#000000" stroke-width="3" d="M698.91,468.434c0,5.068-4.113,9.18-9.18,9.18
				c-0.906,0-1.793-0.129-2.619-0.373c-0.041-0.014-0.084-0.014-0.125-0.025l-18.383-3.418l-0.674,3.668l-3.417-0.625l4.614-25.541
				l3.518,0.773l-0.699,3.791c6.458,1.061,12.34,2.281,18.508,3.441C695.176,459.682,698.91,463.617,698.91,468.434z"/>
			
				<path id="path8815_5_" inkscape:connector-curvature="0" sodipodi:nodetypes="cc" fill="none" stroke="#000000" stroke-width="3" d="
				M602.537,465.014l62.885,6.1"/>
			
				<path id="path8817_5_" inkscape:connector-curvature="0" sodipodi:nodetypes="ccc" fill="none" stroke="#000000" stroke-width="3" d="
				M668.281,456.365l-60.925-17.352l0,0"/>
			
				<path id="path8819_5_" inkscape:connector-curvature="0" sodipodi:nodetypes="cc" fill="none" stroke="#000000" stroke-width="3" d="
				M605.972,447.848l61.45,13.156"/>
			
				<path id="path8821_5_" inkscape:connector-curvature="0" sodipodi:nodetypes="ccc" fill="none" stroke="#000000" stroke-width="3" d="
				M604.221,456.613l62.084,9.74l0,0"/>
			<path id="rect8823_5_" fill="none" stroke="#000000" stroke-width="3" d="M601.551,469.996l-52.855-9.797l-6.531,35.238
				l52.855,9.795L601.551,469.996z"/>
			<path id="path8825_5_" fill="none" stroke="#000000" stroke-width="3" d="M485.931,453.471l-4.864,25.492l-3.417-0.648
				l0.698-3.641l-19.057-3.268c0,0-0.099-0.098-0.149-0.15c-4.354-0.717-7.683-4.473-7.683-9.029c0-5.066,4.112-9.18,9.18-9.18
				c0.225,0,0.452,0.01,0.673,0.025c0.017,0.002,0.034-0.002,0.05,0c0.176-0.041,0.274-0.074,0.274-0.074
				c6.729,1.246,13.098,2.283,20.03,3.717l0.697-3.793L485.931,453.471z"/>
			
				<path id="path8827_5_" inkscape:connector-curvature="0" sodipodi:nodetypes="cc" fill="none" stroke="#000000" stroke-width="3" d="
				M543.054,490.635l-60.894-16.84"/>
			
				<path id="path8829_5_" inkscape:connector-curvature="0" sodipodi:nodetypes="ccc" fill="none" stroke="#000000" stroke-width="3" d="
				M484.776,459l63.098,5.635l0,0"/>
			
				<path id="path8831_5_" inkscape:connector-curvature="0" sodipodi:nodetypes="cc" fill="none" stroke="#000000" stroke-width="3" d="
				M546,473.379l-62.084-9.74"/>
			
				<path id="path8833_5_" inkscape:connector-curvature="0" sodipodi:nodetypes="ccc" fill="none" stroke="#000000" stroke-width="3" d="
				M544.492,482.189l-61.45-13.156l0,0"/>
		</g>
	</g>
	<g>
		<path id="rect8807_32_" fill="none" stroke="#FF0000" stroke-width="3" d="M393.081,557.947"/>
		<path id="rect8807_2_" fill="none" stroke="#FF0000" stroke-width="3" d="M764.666,557.947"/>
		<path id="rect8807_16_" fill="none" stroke="#FF0000" stroke-width="3" d="M384.101,734.846c0,4.975,4.004,8.979,8.979,8.979
			h371.585c4.975,0,8.98-4.004,8.98-8.979v-167.92c0-4.975-4.006-8.979-8.98-8.979"/>
		<path id="rect8807_33_" fill="none" stroke="#FF0000" stroke-width="3" d="M384.101,734.846"/>
		<path id="rect8807_22_" fill="none" stroke="#FF0000" stroke-width="3" d="M393.081,557.947c-4.976,0-8.979,4.004-8.979,8.979"/>
		<g id="g9759_4_" transform="translate(3.6886713,0)">
			<path id="rect8811_4_" fill="none" stroke="#000000" stroke-width="3" d="M555.323,610.66l52.855,9.797l-6.53,35.236
				l-52.856-9.797L555.323,610.66z"/>
			<path id="path8813_4_" fill="none" stroke="#000000" stroke-width="3" d="M698.91,654.312c0,5.066-4.113,9.18-9.18,9.18
				c-0.906,0-1.793-0.131-2.619-0.375c-0.041-0.012-0.084-0.012-0.125-0.025l-18.383-3.416l-0.674,3.666l-3.417-0.623l4.614-25.543
				l3.518,0.773l-0.699,3.791c6.458,1.061,12.34,2.281,18.508,3.443C695.176,645.559,698.91,649.494,698.91,654.312z"/>
			
				<path id="path8815_4_" inkscape:connector-curvature="0" sodipodi:nodetypes="cc" fill="none" stroke="#000000" stroke-width="3" d="
				M602.537,650.893l62.885,6.1"/>
			
				<path id="path8817_4_" inkscape:connector-curvature="0" sodipodi:nodetypes="ccc" fill="none" stroke="#000000" stroke-width="3" d="
				M668.281,642.244l-60.925-17.354l0,0"/>
			
				<path id="path8819_4_" inkscape:connector-curvature="0" sodipodi:nodetypes="cc" fill="none" stroke="#000000" stroke-width="3" d="
				M605.972,633.727l61.45,13.156"/>
			
				<path id="path8821_4_" inkscape:connector-curvature="0" sodipodi:nodetypes="ccc" fill="none" stroke="#000000" stroke-width="3" d="
				M604.221,642.492l62.084,9.738l0,0"/>
			<path id="rect8823_4_" fill="none" stroke="#000000" stroke-width="3" d="M601.551,655.873l-52.855-9.795l-6.531,35.236
				l52.855,9.797L601.551,655.873z"/>
			<path id="path8825_4_" fill="none" stroke="#000000" stroke-width="3" d="M485.931,639.35l-4.864,25.492l-3.417-0.648
				l0.698-3.643l-19.057-3.268c0,0-0.099-0.096-0.149-0.148c-4.354-0.717-7.683-4.475-7.683-9.029c0-5.068,4.112-9.18,9.18-9.18
				c0.225,0,0.452,0.008,0.673,0.025c0.017,0,0.034-0.002,0.05,0c0.176-0.041,0.274-0.076,0.274-0.076
				c6.729,1.248,13.098,2.285,20.03,3.717l0.697-3.791L485.931,639.35z"/>
			
				<path id="path8827_4_" inkscape:connector-curvature="0" sodipodi:nodetypes="cc" fill="none" stroke="#000000" stroke-width="3" d="
				M543.054,676.514l-60.894-16.842"/>
			
				<path id="path8829_4_" inkscape:connector-curvature="0" sodipodi:nodetypes="ccc" fill="none" stroke="#000000" stroke-width="3" d="
				M484.776,644.879l63.098,5.633l0,0"/>
			
				<path id="path8831_4_" inkscape:connector-curvature="0" sodipodi:nodetypes="cc" fill="none" stroke="#000000" stroke-width="3" d="
				M546,659.256l-62.084-9.738"/>
			
				<path id="path8833_4_" inkscape:connector-curvature="0" sodipodi:nodetypes="ccc" fill="none" stroke="#000000" stroke-width="3" d="
				M544.492,668.068l-61.45-13.156l0,0"/>
		</g>
	</g>
</g>
</svg>
