<?xml version="1.0" encoding="UTF-8" standalone="no"?>
<!-- Created with Inkscape (http://www.inkscape.org/) -->
<svg
   xmlns:dc="http://purl.org/dc/elements/1.1/"
   xmlns:cc="http://creativecommons.org/ns#"
   xmlns:rdf="http://www.w3.org/1999/02/22-rdf-syntax-ns#"
   xmlns:svg="http://www.w3.org/2000/svg"
   xmlns="http://www.w3.org/2000/svg"
   xmlns:sodipodi="http://sodipodi.sourceforge.net/DTD/sodipodi-0.dtd"
   xmlns:inkscape="http://www.inkscape.org/namespaces/inkscape"
   id="svg2"
   version="1.0"
   inkscape:version="0.46"
   width="782.46967"
   height="561.03729"
   xml:space="preserve"
   sodipodi:docname="LED_2x3.svg"
   sodipodi:version="0.32"
   inkscape:output_extension="org.inkscape.output.svg.inkscape"><metadata
     id="metadata8"><rdf:RDF><cc:Work
         rdf:about=""><dc:format>image/svg+xml</dc:format><dc:type
           rdf:resource="http://purl.org/dc/dcmitype/StillImage" /><dc:title /></cc:Work></rdf:RDF></metadata><defs
     id="defs6"><clipPath
       clipPathUnits="userSpaceOnUse"
       id="clipPath33754"><rect
         transform="scale(1,-1)"
         ry="326.42026"
         rx="326.42026"
         y="-18848.621"
         x="8497.1016"
         height="14160.244"
         width="6756.7979"
         id="rect33756"
         style="fill:none;stroke:#ff0000;stroke-width:22.71884918;stroke-linecap:butt;stroke-linejoin:miter;marker:none;stroke-miterlimit:4;stroke-dasharray:none;stroke-dashoffset:0;stroke-opacity:1;visibility:visible;display:inline;overflow:visible;enable-background:accumulate" /></clipPath><clipPath
       clipPathUnits="userSpaceOnUse"
       id="clipPath13957"><g
         id="g13959"
         transform="matrix(0,28.949848,28.949848,0,-31428.068,2537.1426)"><rect
           transform="scale(1,-1)"
           ry="11.27537"
           rx="11.27537"
           y="-1697.5825"
           x="225.72412"
           height="390.42957"
           width="186.3"
           id="rect13961"
           style="fill:none;stroke:#ff0000;stroke-width:0.62640941;stroke-linecap:butt;stroke-linejoin:miter;marker:none;stroke-miterlimit:4;stroke-dasharray:none;stroke-dashoffset:0;stroke-opacity:1;visibility:visible;display:inline;overflow:visible;enable-background:accumulate" /></g></clipPath><inkscape:perspective
       sodipodi:type="inkscape:persp3d"
       inkscape:vp_x="0 : 410.56467 : 1"
       inkscape:vp_y="0 : 1000 : 0"
       inkscape:vp_z="567.81738 : 410.56467 : 1"
       inkscape:persp3d-origin="283.90869 : 273.70978 : 1"
       id="perspective35" /><inkscape:path-effect
       effect="spiro"
       id="path-effect3941"
       is_visible="true" /><inkscape:path-effect
       effect="spiro"
       id="path-effect3941-2"
       is_visible="true" /><inkscape:path-effect
       effect="spiro"
       id="path-effect3941-1"
       is_visible="true" /><inkscape:path-effect
       effect="spiro"
       id="path-effect3941-2-1"
       is_visible="true" /><inkscape:path-effect
       effect="spiro"
       id="path-effect3941-1-7"
       is_visible="true" /><inkscape:path-effect
       effect="spiro"
       id="path-effect3941-2-1-2"
       is_visible="true" /><inkscape:path-effect
       is_visible="true"
       id="path-effect23631"
       effect="spiro" /><inkscape:path-effect
       is_visible="true"
       id="path-effect23629"
       effect="spiro" /><inkscape:perspective
       id="perspective37"
       inkscape:persp3d-origin="372.04724 : 350.78739 : 1"
       inkscape:vp_z="744.09448 : 526.18109 : 1"
       inkscape:vp_y="0 : 1000 : 0"
       inkscape:vp_x="0 : 526.18109 : 1"
       sodipodi:type="inkscape:persp3d" /></defs><sodipodi:namedview
     pagecolor="#ffffff"
     bordercolor="#666666"
     borderopacity="1"
     objecttolerance="10"
     gridtolerance="10"
     guidetolerance="10"
     inkscape:pageopacity="0"
     inkscape:pageshadow="2"
     inkscape:window-width="1280"
     inkscape:window-height="778"
     id="namedview4"
     showgrid="false"
     units="cm"
     inkscape:zoom="0.5"
     inkscape:cx="222.4204"
     inkscape:cy="498.57664"
     inkscape:window-x="4"
     inkscape:window-y="0"
     inkscape:window-maximized="1"
     inkscape:current-layer="g8680"
     fit-margin-left="0.2"
     fit-margin-top="0.2"
     fit-margin-right="0.2"
     fit-margin-bottom="0.2" /><g
     id="g10"
     inkscape:groupmode="layer"
     inkscape:label="ink_ext_XXXXXX"
     transform="matrix(1.25,0,0,-1.25,492.58251,665.22239)"><g
       id="g3970" /><g
       transform="matrix(2.757182e-2,0,0,-2.757182e-2,-213.253,575.99534)"
       visibility="visible"
       id="Default"
       style="visibility:visible"><desc
         id="desc32263">Master slide</desc></g><g
       id="g8381"
       transform="matrix(0.7982,0,0,0.7982,20.436499,95.753978)"><g
         id="g8680"
         transform="translate(-2.4184236,0)"><g
           id="g3143"><path
             id="rect3006-0-4"
             d="M 267.04286,369.14972 L 267.04286,537.44693 C 267.04286,542.43293 263.02886,546.44693 258.04286,546.44693 L -114.38085,546.44693 C -119.36685,546.44693 -123.38085,542.43293 -123.38085,537.44693 L -123.38085,369.14972 C -123.38085,364.16372 -119.36685,360.14972 -114.38085,360.14972 L 258.04286,360.14972 C 263.02886,360.14972 267.04286,364.16372 267.04286,369.14972 z"
             style="fill:none;stroke:#ff0000;stroke-width:0.62639999;stroke-linecap:butt;stroke-linejoin:miter;marker:none;stroke-miterlimit:4;stroke-dashoffset:0;stroke-opacity:1;visibility:visible;display:inline;overflow:visible;enable-background:accumulate" /><path
             id="rect8807"
             d="M -126.14123,369.14972 L -126.14123,537.44693 C -126.14123,542.43293 -130.15523,546.44693 -135.14123,546.44693 L -507.56493,546.44693 C -512.55093,546.44693 -516.56493,542.43293 -516.56493,537.44693 L -516.56493,369.14972 C -516.56493,364.16372 -512.55093,360.14972 -507.56493,360.14972 L -135.14123,360.14972 C -130.15523,360.14972 -126.14123,364.16372 -126.14123,369.14972 z"
             style="fill:none;stroke:#ff0000;stroke-width:0.62639999;stroke-linecap:butt;stroke-linejoin:miter;marker:none;stroke-miterlimit:4;stroke-dashoffset:0;stroke-opacity:1;visibility:visible;display:inline;overflow:visible;enable-background:accumulate" /><path
             id="rect8872"
             d="M 267.04286,181.24672 L 267.04286,349.54393 C 267.04286,354.52993 263.02886,358.54393 258.04286,358.54393 L -114.38085,358.54393 C -119.36685,358.54393 -123.38085,354.52993 -123.38085,349.54393 L -123.38085,181.24672 C -123.38085,176.26072 -119.36685,172.24672 -114.38085,172.24672 L 258.04286,172.24672 C 263.02886,172.24672 267.04286,176.26072 267.04286,181.24672 z"
             style="fill:none;stroke:#ff0000;stroke-width:0.62639999;stroke-linecap:butt;stroke-linejoin:miter;marker:none;stroke-miterlimit:4;stroke-dashoffset:0;stroke-opacity:1;visibility:visible;display:inline;overflow:visible;enable-background:accumulate" /><path
             id="rect8904"
             d="M -126.14123,181.24672 L -126.14123,349.54393 C -126.14123,354.52993 -130.15523,358.54393 -135.14123,358.54393 L -507.56493,358.54393 C -512.55093,358.54393 -516.56493,354.52993 -516.56493,349.54393 L -516.56493,181.24672 C -516.56493,176.26072 -512.55093,172.24672 -507.56493,172.24672 L -135.14123,172.24672 C -130.15523,172.24672 -126.14123,176.26072 -126.14123,181.24672 z"
             style="fill:none;stroke:#ff0000;stroke-width:0.62639999;stroke-linecap:butt;stroke-linejoin:miter;marker:none;stroke-miterlimit:4;stroke-dashoffset:0;stroke-opacity:1;visibility:visible;display:inline;overflow:visible;enable-background:accumulate" /><path
             id="path2473"
             d="M 267.04286,-6.22912 L 267.04286,162.06809 C 267.04286,167.05409 263.02886,171.06809 258.04286,171.06809 L -114.38085,171.06809 C -119.36685,171.06809 -123.38085,167.05409 -123.38085,162.06809 L -123.38085,-6.22912 C -123.38085,-11.21512 -119.36685,-15.22912 -114.38085,-15.22912 L 258.04286,-15.22912 C 263.02886,-15.22912 267.04286,-11.21512 267.04286,-6.22912 z"
             style="fill:none;stroke:#ff0000;stroke-width:0.62639999;stroke-linecap:butt;stroke-linejoin:miter;marker:none;stroke-miterlimit:4;stroke-dashoffset:0;stroke-opacity:1;visibility:visible;display:inline;overflow:visible;enable-background:accumulate" /><path
             id="path2501"
             d="M -126.14123,-6.22912 L -126.14123,162.06809 C -126.14123,167.05409 -130.15523,171.06809 -135.14123,171.06809 L -507.56493,171.06809 C -512.55093,171.06809 -516.56493,167.05409 -516.56493,162.06809 L -516.56493,-6.22912 C -516.56493,-11.21512 -512.55093,-15.22912 -507.56493,-15.22912 L -135.14123,-15.22912 C -130.15523,-15.22912 -126.14123,-11.21512 -126.14123,-6.22912 z"
             style="fill:none;stroke:#ff0000;stroke-width:0.62639999;stroke-linecap:butt;stroke-linejoin:miter;marker:none;stroke-miterlimit:4;stroke-dashoffset:0;stroke-opacity:1;visibility:visible;display:inline;overflow:visible;enable-background:accumulate" /></g><g
           id="g3063"><g
             transform="translate(3.6886713,0)"
             id="g9801"><path
               transform="matrix(0.9832549,-0.1822355,-0.1822355,-0.9832549,0,0)"
               style="fill:none;stroke:#000000;stroke-width:0.62499064;stroke-linecap:butt;stroke-linejoin:miter;marker:none;stroke-miterlimit:4;stroke-dashoffset:0;stroke-opacity:1;visibility:visible;display:inline;overflow:visible;enable-background:accumulate"
               d="M -42.526638,-494.13931 L 11.351055,-494.13931 L 11.351055,-458.22085 L -42.526638,-458.22085 L -42.526638,-494.13931 z"
               id="rect2414" /><path
               style="fill:none;stroke:#000000;stroke-width:0.62499064;stroke-linecap:butt;stroke-linejoin:miter;marker:none;stroke-miterlimit:4;stroke-dasharray:none;stroke-dashoffset:0;stroke-opacity:1;visibility:visible;display:inline;overflow:visible;enable-background:accumulate"
               d="M 192.14663,449.86374 C 192.14663,444.78562 188.02509,440.66388 182.94677,440.66387 C 182.0393,440.66387 181.15012,440.79373 180.32181,441.03887 C 180.281,441.05095 180.23739,441.05124 180.19681,441.06387 L 161.77209,444.48882 L 161.0971,440.81387 L 157.67215,441.43886 L 162.29708,467.03848 L 165.82203,466.26349 L 165.12204,462.46355 C 171.59427,461.40058 177.48968,460.17766 183.67176,459.0136 C 188.40467,458.63654 192.14663,454.69287 192.14663,449.86374 z"
               id="path2416" /><path
               style="fill:none;stroke:#000000;stroke-width:0.62499064;stroke-linecap:butt;stroke-linejoin:miter;marker:none;stroke-miterlimit:4;stroke-dasharray:none;stroke-dashoffset:0;stroke-opacity:1;visibility:visible;display:inline;overflow:visible;enable-background:accumulate"
               d="M 95.557047,453.29153 L 158.58382,447.17833"
               id="path2420"
               inkscape:connector-curvature="0"
               sodipodi:nodetypes="cc" /><path
               style="fill:none;stroke:#000000;stroke-width:0.62499064;stroke-linecap:butt;stroke-linejoin:miter;marker:none;stroke-miterlimit:4;stroke-dasharray:none;stroke-dashoffset:0;stroke-opacity:1;visibility:visible;display:inline;overflow:visible;enable-background:accumulate"
               d="M 161.44988,461.95943 L 100.38691,479.35108 L 100.38691,479.35108"
               id="path2422"
               inkscape:connector-curvature="0"
               sodipodi:nodetypes="ccc" /><path
               style="fill:none;stroke:#000000;stroke-width:0.62499064;stroke-linecap:butt;stroke-linejoin:miter;marker:none;stroke-miterlimit:4;stroke-dasharray:none;stroke-dashoffset:0;stroke-opacity:1;visibility:visible;display:inline;overflow:visible;enable-background:accumulate"
               d="M 98.998965,470.49686 L 160.58822,457.3103"
               id="path2424"
               inkscape:connector-curvature="0"
               sodipodi:nodetypes="cc" /><path
               style="fill:none;stroke:#000000;stroke-width:0.62499064;stroke-linecap:butt;stroke-linejoin:miter;marker:none;stroke-miterlimit:4;stroke-dasharray:none;stroke-dashoffset:0;stroke-opacity:1;visibility:visible;display:inline;overflow:visible;enable-background:accumulate"
               d="M 97.244003,461.71068 L 159.46815,451.94978 L 159.46815,451.94978"
               id="path2426"
               inkscape:connector-curvature="0"
               sodipodi:nodetypes="ccc" /><path
               transform="matrix(-0.9832549,0.1822355,-0.1822355,-0.9832549,0,0)"
               style="fill:none;stroke:#000000;stroke-width:0.62499064;stroke-linecap:butt;stroke-linejoin:miter;marker:none;stroke-miterlimit:4;stroke-dashoffset:0;stroke-opacity:1;visibility:visible;display:inline;overflow:visible;enable-background:accumulate"
               d="M -11.289016,-458.02588 L 42.588677,-458.02588 L 42.588677,-422.10742 L -11.289016,-422.10742 L -11.289016,-458.02588 z"
               id="rect2430" /><path
               style="fill:none;stroke:#000000;stroke-width:0.62499064;stroke-linecap:butt;stroke-linejoin:miter;marker:none;stroke-miterlimit:4;stroke-dasharray:none;stroke-dashoffset:0;stroke-opacity:1;visibility:visible;display:inline;overflow:visible;enable-background:accumulate"
               d="M -21.312508,464.86049 L -26.187434,439.31088 L -29.612383,439.96087 L -28.912393,443.61081 L -48.012106,446.88576 C -48.012106,446.88576 -48.111211,446.9831 -48.162104,447.03576 C -52.526246,447.7539 -55.861972,451.51933 -55.861988,456.08563 C -55.861988,461.16375 -51.740434,465.28549 -46.662126,465.28549 C -46.436787,465.28549 -46.208422,465.27644 -45.987137,465.26049 C -45.970774,465.25931 -45.953469,465.26176 -45.937137,465.26049 C -45.760671,465.30135 -45.662141,465.33549 -45.662141,465.33549 C -38.917751,464.0855 -32.534928,463.04592 -25.587443,461.61054 L -24.887454,465.41049 L -21.312508,464.86049 z"
               id="path2432" /><path
               style="fill:none;stroke:#000000;stroke-width:0.62499064;stroke-linecap:butt;stroke-linejoin:miter;marker:none;stroke-miterlimit:4;stroke-dasharray:none;stroke-dashoffset:0;stroke-opacity:1;visibility:visible;display:inline;overflow:visible;enable-background:accumulate"
               d="M 35.939401,427.61255 L -25.091929,444.49215"
               id="path2436"
               inkscape:connector-curvature="0"
               sodipodi:nodetypes="cc" /><path
               style="fill:none;stroke:#000000;stroke-width:0.62499064;stroke-linecap:butt;stroke-linejoin:miter;marker:none;stroke-miterlimit:4;stroke-dasharray:none;stroke-dashoffset:0;stroke-opacity:1;visibility:visible;display:inline;overflow:visible;enable-background:accumulate"
               d="M -22.47056,459.31861 L 40.769261,453.6721 L 40.769261,453.6721"
               id="path2438"
               inkscape:connector-curvature="0"
               sodipodi:nodetypes="ccc" /><path
               style="fill:none;stroke:#000000;stroke-width:0.62499064;stroke-linecap:butt;stroke-linejoin:miter;marker:none;stroke-miterlimit:4;stroke-dasharray:none;stroke-dashoffset:0;stroke-opacity:1;visibility:visible;display:inline;overflow:visible;enable-background:accumulate"
               d="M 38.891943,444.90859 L -23.332225,454.66948"
               id="path2440"
               inkscape:connector-curvature="0"
               sodipodi:nodetypes="cc" /><path
               style="fill:none;stroke:#000000;stroke-width:0.62499064;stroke-linecap:butt;stroke-linejoin:miter;marker:none;stroke-miterlimit:4;stroke-dasharray:none;stroke-dashoffset:0;stroke-opacity:1;visibility:visible;display:inline;overflow:visible;enable-background:accumulate"
               d="M 37.381653,436.07705 L -24.207595,449.26362 L -24.207595,449.26362"
               id="path2442"
               inkscape:connector-curvature="0"
               sodipodi:nodetypes="ccc" /></g><g
             transform="translate(3.6886713,0)"
             id="g9759"><path
               transform="matrix(0.9832549,-0.1822355,-0.1822355,-0.9832549,0,0)"
               style="fill:none;stroke:#000000;stroke-width:0.62499064;stroke-linecap:butt;stroke-linejoin:miter;marker:none;stroke-miterlimit:4;stroke-dashoffset:0;stroke-opacity:1;visibility:visible;display:inline;overflow:visible;enable-background:accumulate"
               d="M -429.12683,-422.48721 L -375.24914,-422.48721 L -375.24914,-386.56875 L -429.12683,-386.56875 L -429.12683,-422.48721 z"
               id="rect8811" /><path
               style="fill:none;stroke:#000000;stroke-width:0.62499064;stroke-linecap:butt;stroke-linejoin:miter;marker:none;stroke-miterlimit:4;stroke-dasharray:none;stroke-dashoffset:0;stroke-opacity:1;visibility:visible;display:inline;overflow:visible;enable-background:accumulate"
               d="M -201.03745,449.86374 C -201.03745,444.78562 -205.15899,440.66388 -210.23731,440.66387 C -211.14478,440.66387 -212.03396,440.79373 -212.86227,441.03887 C -212.90308,441.05095 -212.94669,441.05124 -212.98727,441.06387 L -231.41199,444.48882 L -232.08698,440.81387 L -235.51193,441.43886 L -230.887,467.03848 L -227.36205,466.26349 L -228.06204,462.46355 C -221.58981,461.40058 -215.6944,460.17766 -209.51232,459.0136 C -204.77941,458.63654 -201.03745,454.69287 -201.03745,449.86374 z"
               id="path8813" /><path
               style="fill:none;stroke:#000000;stroke-width:0.62499064;stroke-linecap:butt;stroke-linejoin:miter;marker:none;stroke-miterlimit:4;stroke-dasharray:none;stroke-dashoffset:0;stroke-opacity:1;visibility:visible;display:inline;overflow:visible;enable-background:accumulate"
               d="M -297.62703,453.29153 L -234.60026,447.17833"
               id="path8815"
               inkscape:connector-curvature="0"
               sodipodi:nodetypes="cc" /><path
               style="fill:none;stroke:#000000;stroke-width:0.62499064;stroke-linecap:butt;stroke-linejoin:miter;marker:none;stroke-miterlimit:4;stroke-dasharray:none;stroke-dashoffset:0;stroke-opacity:1;visibility:visible;display:inline;overflow:visible;enable-background:accumulate"
               d="M -231.7342,461.95943 L -292.79717,479.35108 L -292.79717,479.35108"
               id="path8817"
               inkscape:connector-curvature="0"
               sodipodi:nodetypes="ccc" /><path
               style="fill:none;stroke:#000000;stroke-width:0.62499064;stroke-linecap:butt;stroke-linejoin:miter;marker:none;stroke-miterlimit:4;stroke-dasharray:none;stroke-dashoffset:0;stroke-opacity:1;visibility:visible;display:inline;overflow:visible;enable-background:accumulate"
               d="M -294.18511,470.49686 L -232.59586,457.3103"
               id="path8819"
               inkscape:connector-curvature="0"
               sodipodi:nodetypes="cc" /><path
               style="fill:none;stroke:#000000;stroke-width:0.62499064;stroke-linecap:butt;stroke-linejoin:miter;marker:none;stroke-miterlimit:4;stroke-dasharray:none;stroke-dashoffset:0;stroke-opacity:1;visibility:visible;display:inline;overflow:visible;enable-background:accumulate"
               d="M -295.94008,461.71068 L -233.71593,451.94978 L -233.71593,451.94978"
               id="path8821"
               inkscape:connector-curvature="0"
               sodipodi:nodetypes="ccc" /><path
               transform="matrix(-0.9832549,0.1822355,-0.1822355,-0.9832549,0,0)"
               style="fill:none;stroke:#000000;stroke-width:0.62499064;stroke-linecap:butt;stroke-linejoin:miter;marker:none;stroke-miterlimit:4;stroke-dashoffset:0;stroke-opacity:1;visibility:visible;display:inline;overflow:visible;enable-background:accumulate"
               d="M 375.31116,-386.37375 L 429.18885,-386.37375 L 429.18885,-350.45529 L 375.31116,-350.45529 L 375.31116,-386.37375 z"
               id="rect8823" /><path
               style="fill:none;stroke:#000000;stroke-width:0.62499064;stroke-linecap:butt;stroke-linejoin:miter;marker:none;stroke-miterlimit:4;stroke-dasharray:none;stroke-dashoffset:0;stroke-opacity:1;visibility:visible;display:inline;overflow:visible;enable-background:accumulate"
               d="M -414.49659,464.86049 L -419.37151,439.31088 L -422.79646,439.96087 L -422.09647,443.61081 L -441.19619,446.88576 C -441.19619,446.88576 -441.29529,446.9831 -441.34618,447.03576 C -445.71033,447.7539 -449.04605,451.51933 -449.04607,456.08563 C -449.04607,461.16375 -444.92451,465.28549 -439.84621,465.28549 C -439.62087,465.28549 -439.3925,465.27644 -439.17122,465.26049 C -439.15485,465.25931 -439.13755,465.26176 -439.12122,465.26049 C -438.94475,465.30135 -438.84622,465.33549 -438.84622,465.33549 C -432.10183,464.0855 -425.71901,463.04592 -418.77152,461.61054 L -418.07153,465.41049 L -414.49659,464.86049 z"
               id="path8825" /><path
               style="fill:none;stroke:#000000;stroke-width:0.62499064;stroke-linecap:butt;stroke-linejoin:miter;marker:none;stroke-miterlimit:4;stroke-dasharray:none;stroke-dashoffset:0;stroke-opacity:1;visibility:visible;display:inline;overflow:visible;enable-background:accumulate"
               d="M -357.24468,427.61255 L -418.27601,444.49215"
               id="path8827"
               inkscape:connector-curvature="0"
               sodipodi:nodetypes="cc" /><path
               style="fill:none;stroke:#000000;stroke-width:0.62499064;stroke-linecap:butt;stroke-linejoin:miter;marker:none;stroke-miterlimit:4;stroke-dasharray:none;stroke-dashoffset:0;stroke-opacity:1;visibility:visible;display:inline;overflow:visible;enable-background:accumulate"
               d="M -415.65464,459.31861 L -352.41482,453.6721 L -352.41482,453.6721"
               id="path8829"
               inkscape:connector-curvature="0"
               sodipodi:nodetypes="ccc" /><path
               style="fill:none;stroke:#000000;stroke-width:0.62499064;stroke-linecap:butt;stroke-linejoin:miter;marker:none;stroke-miterlimit:4;stroke-dasharray:none;stroke-dashoffset:0;stroke-opacity:1;visibility:visible;display:inline;overflow:visible;enable-background:accumulate"
               d="M -354.29214,444.90859 L -416.51631,454.66948"
               id="path8831"
               inkscape:connector-curvature="0"
               sodipodi:nodetypes="cc" /><path
               style="fill:none;stroke:#000000;stroke-width:0.62499064;stroke-linecap:butt;stroke-linejoin:miter;marker:none;stroke-miterlimit:4;stroke-dasharray:none;stroke-dashoffset:0;stroke-opacity:1;visibility:visible;display:inline;overflow:visible;enable-background:accumulate"
               d="M -355.80243,436.07705 L -417.39168,449.26362 L -417.39168,449.26362"
               id="path8833"
               inkscape:connector-curvature="0"
               sodipodi:nodetypes="ccc" /></g><g
             transform="translate(3.6886713,0)"
             id="g9787"><path
               transform="matrix(0.9832549,-0.1822355,-0.1822355,-0.9832549,0,0)"
               style="fill:none;stroke:#000000;stroke-width:0.62499064;stroke-linecap:butt;stroke-linejoin:miter;marker:none;stroke-miterlimit:4;stroke-dashoffset:0;stroke-opacity:1;visibility:visible;display:inline;overflow:visible;enable-background:accumulate"
               d="M -8.2840385,-309.38275 L 45.593655,-309.38275 L 45.593655,-273.46429 L -8.2840385,-273.46429 L -8.2840385,-309.38275 z"
               id="rect8876" /><path
               style="fill:none;stroke:#000000;stroke-width:0.62499064;stroke-linecap:butt;stroke-linejoin:miter;marker:none;stroke-miterlimit:4;stroke-dasharray:none;stroke-dashoffset:0;stroke-opacity:1;visibility:visible;display:inline;overflow:visible;enable-background:accumulate"
               d="M 192.14663,261.96074 C 192.14663,256.88262 188.02509,252.76088 182.94677,252.76087 C 182.0393,252.76087 181.15012,252.89073 180.32181,253.13587 C 180.281,253.14795 180.23739,253.14824 180.19681,253.16087 L 161.77209,256.58582 L 161.0971,252.91087 L 157.67215,253.53586 L 162.29708,279.13548 L 165.82203,278.36049 L 165.12204,274.56055 C 171.59427,273.49758 177.48968,272.27466 183.67176,271.1106 C 188.40467,270.73354 192.14663,266.78987 192.14663,261.96074 z"
               id="path8878" /><path
               style="fill:none;stroke:#000000;stroke-width:0.62499064;stroke-linecap:butt;stroke-linejoin:miter;marker:none;stroke-miterlimit:4;stroke-dasharray:none;stroke-dashoffset:0;stroke-opacity:1;visibility:visible;display:inline;overflow:visible;enable-background:accumulate"
               d="M 95.557047,265.38853 L 158.58382,259.27533"
               id="path8880"
               inkscape:connector-curvature="0"
               sodipodi:nodetypes="cc" /><path
               style="fill:none;stroke:#000000;stroke-width:0.62499064;stroke-linecap:butt;stroke-linejoin:miter;marker:none;stroke-miterlimit:4;stroke-dasharray:none;stroke-dashoffset:0;stroke-opacity:1;visibility:visible;display:inline;overflow:visible;enable-background:accumulate"
               d="M 161.44988,274.05643 L 100.38691,291.44808 L 100.38691,291.44808"
               id="path8882"
               inkscape:connector-curvature="0"
               sodipodi:nodetypes="ccc" /><path
               style="fill:none;stroke:#000000;stroke-width:0.62499064;stroke-linecap:butt;stroke-linejoin:miter;marker:none;stroke-miterlimit:4;stroke-dasharray:none;stroke-dashoffset:0;stroke-opacity:1;visibility:visible;display:inline;overflow:visible;enable-background:accumulate"
               d="M 98.998965,282.59386 L 160.58822,269.4073"
               id="path8884"
               inkscape:connector-curvature="0"
               sodipodi:nodetypes="cc" /><path
               style="fill:none;stroke:#000000;stroke-width:0.62499064;stroke-linecap:butt;stroke-linejoin:miter;marker:none;stroke-miterlimit:4;stroke-dasharray:none;stroke-dashoffset:0;stroke-opacity:1;visibility:visible;display:inline;overflow:visible;enable-background:accumulate"
               d="M 97.244003,273.80768 L 159.46815,264.04678 L 159.46815,264.04678"
               id="path8886"
               inkscape:connector-curvature="0"
               sodipodi:nodetypes="ccc" /><path
               transform="matrix(-0.9832549,0.1822355,-0.1822355,-0.9832549,0,0)"
               style="fill:none;stroke:#000000;stroke-width:0.62499064;stroke-linecap:butt;stroke-linejoin:miter;marker:none;stroke-miterlimit:4;stroke-dashoffset:0;stroke-opacity:1;visibility:visible;display:inline;overflow:visible;enable-background:accumulate"
               d="M -45.531616,-273.26932 L 8.346077,-273.26932 L 8.346077,-237.35086 L -45.531616,-237.35086 L -45.531616,-273.26932 z"
               id="rect8888" /><path
               style="fill:none;stroke:#000000;stroke-width:0.62499064;stroke-linecap:butt;stroke-linejoin:miter;marker:none;stroke-miterlimit:4;stroke-dasharray:none;stroke-dashoffset:0;stroke-opacity:1;visibility:visible;display:inline;overflow:visible;enable-background:accumulate"
               d="M -21.312508,276.95749 L -26.187434,251.40788 L -29.612383,252.05787 L -28.912393,255.70781 L -48.012106,258.98276 C -48.012106,258.98276 -48.111211,259.0801 -48.162104,259.13276 C -52.526246,259.8509 -55.861972,263.61633 -55.861988,268.18263 C -55.861988,273.26075 -51.740434,277.38249 -46.662126,277.38249 C -46.436787,277.38249 -46.208422,277.37344 -45.987137,277.35749 C -45.970774,277.35631 -45.953469,277.35876 -45.937137,277.35749 C -45.760671,277.39835 -45.662141,277.43249 -45.662141,277.43249 C -38.917751,276.1825 -32.534928,275.14292 -25.587443,273.70754 L -24.887454,277.50749 L -21.312508,276.95749 z"
               id="path8890" /><path
               style="fill:none;stroke:#000000;stroke-width:0.62499064;stroke-linecap:butt;stroke-linejoin:miter;marker:none;stroke-miterlimit:4;stroke-dasharray:none;stroke-dashoffset:0;stroke-opacity:1;visibility:visible;display:inline;overflow:visible;enable-background:accumulate"
               d="M 35.939401,239.70955 L -25.091929,256.58915"
               id="path8892"
               inkscape:connector-curvature="0"
               sodipodi:nodetypes="cc" /><path
               style="fill:none;stroke:#000000;stroke-width:0.62499064;stroke-linecap:butt;stroke-linejoin:miter;marker:none;stroke-miterlimit:4;stroke-dasharray:none;stroke-dashoffset:0;stroke-opacity:1;visibility:visible;display:inline;overflow:visible;enable-background:accumulate"
               d="M -22.47056,271.41561 L 40.769261,265.7691 L 40.769261,265.7691"
               id="path8894"
               inkscape:connector-curvature="0"
               sodipodi:nodetypes="ccc" /><path
               style="fill:none;stroke:#000000;stroke-width:0.62499064;stroke-linecap:butt;stroke-linejoin:miter;marker:none;stroke-miterlimit:4;stroke-dasharray:none;stroke-dashoffset:0;stroke-opacity:1;visibility:visible;display:inline;overflow:visible;enable-background:accumulate"
               d="M 38.891943,257.00559 L -23.332225,266.76648"
               id="path8896"
               inkscape:connector-curvature="0"
               sodipodi:nodetypes="cc" /><path
               style="fill:none;stroke:#000000;stroke-width:0.62499064;stroke-linecap:butt;stroke-linejoin:miter;marker:none;stroke-miterlimit:4;stroke-dasharray:none;stroke-dashoffset:0;stroke-opacity:1;visibility:visible;display:inline;overflow:visible;enable-background:accumulate"
               d="M 37.381653,248.17405 L -24.207595,261.36062 L -24.207595,261.36062"
               id="path8898"
               inkscape:connector-curvature="0"
               sodipodi:nodetypes="ccc" /></g><g
             transform="translate(3.6886713,0)"
             id="g9773"><path
               transform="matrix(0.9832549,-0.1822355,-0.1822355,-0.9832549,0,0)"
               style="fill:none;stroke:#000000;stroke-width:0.62499064;stroke-linecap:butt;stroke-linejoin:miter;marker:none;stroke-miterlimit:4;stroke-dashoffset:0;stroke-opacity:1;visibility:visible;display:inline;overflow:visible;enable-background:accumulate"
               d="M -394.88422,-237.73065 L -341.00652,-237.73065 L -341.00652,-201.81219 L -394.88422,-201.81219 L -394.88422,-237.73065 z"
               id="rect8908" /><path
               style="fill:none;stroke:#000000;stroke-width:0.62499064;stroke-linecap:butt;stroke-linejoin:miter;marker:none;stroke-miterlimit:4;stroke-dasharray:none;stroke-dashoffset:0;stroke-opacity:1;visibility:visible;display:inline;overflow:visible;enable-background:accumulate"
               d="M -201.03745,261.96074 C -201.03745,256.88262 -205.15899,252.76088 -210.23731,252.76087 C -211.14478,252.76087 -212.03396,252.89073 -212.86227,253.13587 C -212.90308,253.14795 -212.94669,253.14824 -212.98727,253.16087 L -231.41199,256.58582 L -232.08698,252.91087 L -235.51193,253.53586 L -230.887,279.13548 L -227.36205,278.36049 L -228.06204,274.56055 C -221.58981,273.49758 -215.6944,272.27466 -209.51232,271.1106 C -204.77941,270.73354 -201.03745,266.78987 -201.03745,261.96074 z"
               id="path8910" /><path
               style="fill:none;stroke:#000000;stroke-width:0.62499064;stroke-linecap:butt;stroke-linejoin:miter;marker:none;stroke-miterlimit:4;stroke-dasharray:none;stroke-dashoffset:0;stroke-opacity:1;visibility:visible;display:inline;overflow:visible;enable-background:accumulate"
               d="M -297.62703,265.38853 L -234.60026,259.27533"
               id="path8912"
               inkscape:connector-curvature="0"
               sodipodi:nodetypes="cc" /><path
               style="fill:none;stroke:#000000;stroke-width:0.62499064;stroke-linecap:butt;stroke-linejoin:miter;marker:none;stroke-miterlimit:4;stroke-dasharray:none;stroke-dashoffset:0;stroke-opacity:1;visibility:visible;display:inline;overflow:visible;enable-background:accumulate"
               d="M -231.7342,274.05643 L -292.79717,291.44808 L -292.79717,291.44808"
               id="path8914"
               inkscape:connector-curvature="0"
               sodipodi:nodetypes="ccc" /><path
               style="fill:none;stroke:#000000;stroke-width:0.62499064;stroke-linecap:butt;stroke-linejoin:miter;marker:none;stroke-miterlimit:4;stroke-dasharray:none;stroke-dashoffset:0;stroke-opacity:1;visibility:visible;display:inline;overflow:visible;enable-background:accumulate"
               d="M -294.18511,282.59386 L -232.59586,269.4073"
               id="path8916"
               inkscape:connector-curvature="0"
               sodipodi:nodetypes="cc" /><path
               style="fill:none;stroke:#000000;stroke-width:0.62499064;stroke-linecap:butt;stroke-linejoin:miter;marker:none;stroke-miterlimit:4;stroke-dasharray:none;stroke-dashoffset:0;stroke-opacity:1;visibility:visible;display:inline;overflow:visible;enable-background:accumulate"
               d="M -295.94008,273.80768 L -233.71593,264.04678 L -233.71593,264.04678"
               id="path8918"
               inkscape:connector-curvature="0"
               sodipodi:nodetypes="ccc" /><path
               transform="matrix(-0.9832549,0.1822355,-0.1822355,-0.9832549,0,0)"
               style="fill:none;stroke:#000000;stroke-width:0.62499064;stroke-linecap:butt;stroke-linejoin:miter;marker:none;stroke-miterlimit:4;stroke-dashoffset:0;stroke-opacity:1;visibility:visible;display:inline;overflow:visible;enable-background:accumulate"
               d="M 341.06857,-201.61722 L 394.94627,-201.61722 L 394.94627,-165.69876 L 341.06857,-165.69876 L 341.06857,-201.61722 z"
               id="rect8920" /><path
               style="fill:none;stroke:#000000;stroke-width:0.62499064;stroke-linecap:butt;stroke-linejoin:miter;marker:none;stroke-miterlimit:4;stroke-dasharray:none;stroke-dashoffset:0;stroke-opacity:1;visibility:visible;display:inline;overflow:visible;enable-background:accumulate"
               d="M -414.49659,276.95749 L -419.37151,251.40788 L -422.79646,252.05787 L -422.09647,255.70781 L -441.19619,258.98276 C -441.19619,258.98276 -441.29529,259.0801 -441.34618,259.13276 C -445.71033,259.8509 -449.04605,263.61633 -449.04607,268.18263 C -449.04607,273.26075 -444.92451,277.38249 -439.84621,277.38249 C -439.62087,277.38249 -439.3925,277.37344 -439.17122,277.35749 C -439.15485,277.35631 -439.13755,277.35876 -439.12122,277.35749 C -438.94475,277.39835 -438.84622,277.43249 -438.84622,277.43249 C -432.10183,276.1825 -425.71901,275.14292 -418.77152,273.70754 L -418.07153,277.50749 L -414.49659,276.95749 z"
               id="path8922" /><path
               style="fill:none;stroke:#000000;stroke-width:0.62499064;stroke-linecap:butt;stroke-linejoin:miter;marker:none;stroke-miterlimit:4;stroke-dasharray:none;stroke-dashoffset:0;stroke-opacity:1;visibility:visible;display:inline;overflow:visible;enable-background:accumulate"
               d="M -357.24468,239.70955 L -418.27601,256.58915"
               id="path8924"
               inkscape:connector-curvature="0"
               sodipodi:nodetypes="cc" /><path
               style="fill:none;stroke:#000000;stroke-width:0.62499064;stroke-linecap:butt;stroke-linejoin:miter;marker:none;stroke-miterlimit:4;stroke-dasharray:none;stroke-dashoffset:0;stroke-opacity:1;visibility:visible;display:inline;overflow:visible;enable-background:accumulate"
               d="M -415.65464,271.41561 L -352.41482,265.7691 L -352.41482,265.7691"
               id="path8926"
               inkscape:connector-curvature="0"
               sodipodi:nodetypes="ccc" /><path
               style="fill:none;stroke:#000000;stroke-width:0.62499064;stroke-linecap:butt;stroke-linejoin:miter;marker:none;stroke-miterlimit:4;stroke-dasharray:none;stroke-dashoffset:0;stroke-opacity:1;visibility:visible;display:inline;overflow:visible;enable-background:accumulate"
               d="M -354.29214,257.00559 L -416.51631,266.76648"
               id="path8928"
               inkscape:connector-curvature="0"
               sodipodi:nodetypes="cc" /><path
               style="fill:none;stroke:#000000;stroke-width:0.62499064;stroke-linecap:butt;stroke-linejoin:miter;marker:none;stroke-miterlimit:4;stroke-dasharray:none;stroke-dashoffset:0;stroke-opacity:1;visibility:visible;display:inline;overflow:visible;enable-background:accumulate"
               d="M -355.80243,248.17405 L -417.39168,261.36062 L -417.39168,261.36062"
               id="path8930"
               inkscape:connector-curvature="0"
               sodipodi:nodetypes="ccc" /></g><g
             id="g2475"
             transform="translate(3.68867,-375.37884)"><path
               transform="matrix(0.9832549,-0.1822355,-0.1822355,-0.9832549,0,0)"
               style="fill:none;stroke:#000000;stroke-width:0.62499064;stroke-linecap:butt;stroke-linejoin:miter;marker:none;stroke-miterlimit:4;stroke-dashoffset:0;stroke-opacity:1;visibility:visible;display:inline;overflow:visible;enable-background:accumulate"
               d="M -42.526638,-494.13931 L 11.351055,-494.13931 L 11.351055,-458.22085 L -42.526638,-458.22085 L -42.526638,-494.13931 z"
               id="path2477" /><path
               style="fill:none;stroke:#000000;stroke-width:0.62499064;stroke-linecap:butt;stroke-linejoin:miter;marker:none;stroke-miterlimit:4;stroke-dasharray:none;stroke-dashoffset:0;stroke-opacity:1;visibility:visible;display:inline;overflow:visible;enable-background:accumulate"
               d="M 192.14663,449.86374 C 192.14663,444.78562 188.02509,440.66388 182.94677,440.66387 C 182.0393,440.66387 181.15012,440.79373 180.32181,441.03887 C 180.281,441.05095 180.23739,441.05124 180.19681,441.06387 L 161.77209,444.48882 L 161.0971,440.81387 L 157.67215,441.43886 L 162.29708,467.03848 L 165.82203,466.26349 L 165.12204,462.46355 C 171.59427,461.40058 177.48968,460.17766 183.67176,459.0136 C 188.40467,458.63654 192.14663,454.69287 192.14663,449.86374 z"
               id="path2479" /><path
               style="fill:none;stroke:#000000;stroke-width:0.62499064;stroke-linecap:butt;stroke-linejoin:miter;marker:none;stroke-miterlimit:4;stroke-dasharray:none;stroke-dashoffset:0;stroke-opacity:1;visibility:visible;display:inline;overflow:visible;enable-background:accumulate"
               d="M 95.557047,453.29153 L 158.58382,447.17833"
               id="path2481"
               inkscape:connector-curvature="0"
               sodipodi:nodetypes="cc" /><path
               style="fill:none;stroke:#000000;stroke-width:0.62499064;stroke-linecap:butt;stroke-linejoin:miter;marker:none;stroke-miterlimit:4;stroke-dasharray:none;stroke-dashoffset:0;stroke-opacity:1;visibility:visible;display:inline;overflow:visible;enable-background:accumulate"
               d="M 161.44988,461.95943 L 100.38691,479.35108 L 100.38691,479.35108"
               id="path2483"
               inkscape:connector-curvature="0"
               sodipodi:nodetypes="ccc" /><path
               style="fill:none;stroke:#000000;stroke-width:0.62499064;stroke-linecap:butt;stroke-linejoin:miter;marker:none;stroke-miterlimit:4;stroke-dasharray:none;stroke-dashoffset:0;stroke-opacity:1;visibility:visible;display:inline;overflow:visible;enable-background:accumulate"
               d="M 98.998965,470.49686 L 160.58822,457.3103"
               id="path2485"
               inkscape:connector-curvature="0"
               sodipodi:nodetypes="cc" /><path
               style="fill:none;stroke:#000000;stroke-width:0.62499064;stroke-linecap:butt;stroke-linejoin:miter;marker:none;stroke-miterlimit:4;stroke-dasharray:none;stroke-dashoffset:0;stroke-opacity:1;visibility:visible;display:inline;overflow:visible;enable-background:accumulate"
               d="M 97.244003,461.71068 L 159.46815,451.94978 L 159.46815,451.94978"
               id="path2487"
               inkscape:connector-curvature="0"
               sodipodi:nodetypes="ccc" /><path
               transform="matrix(-0.9832549,0.1822355,-0.1822355,-0.9832549,0,0)"
               style="fill:none;stroke:#000000;stroke-width:0.62499064;stroke-linecap:butt;stroke-linejoin:miter;marker:none;stroke-miterlimit:4;stroke-dashoffset:0;stroke-opacity:1;visibility:visible;display:inline;overflow:visible;enable-background:accumulate"
               d="M -11.289016,-458.02588 L 42.588677,-458.02588 L 42.588677,-422.10742 L -11.289016,-422.10742 L -11.289016,-458.02588 z"
               id="path2489" /><path
               style="fill:none;stroke:#000000;stroke-width:0.62499064;stroke-linecap:butt;stroke-linejoin:miter;marker:none;stroke-miterlimit:4;stroke-dasharray:none;stroke-dashoffset:0;stroke-opacity:1;visibility:visible;display:inline;overflow:visible;enable-background:accumulate"
               d="M -21.312508,464.86049 L -26.187434,439.31088 L -29.612383,439.96087 L -28.912393,443.61081 L -48.012106,446.88576 C -48.012106,446.88576 -48.111211,446.9831 -48.162104,447.03576 C -52.526246,447.7539 -55.861972,451.51933 -55.861988,456.08563 C -55.861988,461.16375 -51.740434,465.28549 -46.662126,465.28549 C -46.436787,465.28549 -46.208422,465.27644 -45.987137,465.26049 C -45.970774,465.25931 -45.953469,465.26176 -45.937137,465.26049 C -45.760671,465.30135 -45.662141,465.33549 -45.662141,465.33549 C -38.917751,464.0855 -32.534928,463.04592 -25.587443,461.61054 L -24.887454,465.41049 L -21.312508,464.86049 z"
               id="path2491" /><path
               style="fill:none;stroke:#000000;stroke-width:0.62499064;stroke-linecap:butt;stroke-linejoin:miter;marker:none;stroke-miterlimit:4;stroke-dasharray:none;stroke-dashoffset:0;stroke-opacity:1;visibility:visible;display:inline;overflow:visible;enable-background:accumulate"
               d="M 35.939401,427.61255 L -25.091929,444.49215"
               id="path2493"
               inkscape:connector-curvature="0"
               sodipodi:nodetypes="cc" /><path
               style="fill:none;stroke:#000000;stroke-width:0.62499064;stroke-linecap:butt;stroke-linejoin:miter;marker:none;stroke-miterlimit:4;stroke-dasharray:none;stroke-dashoffset:0;stroke-opacity:1;visibility:visible;display:inline;overflow:visible;enable-background:accumulate"
               d="M -22.47056,459.31861 L 40.769261,453.6721 L 40.769261,453.6721"
               id="path2495"
               inkscape:connector-curvature="0"
               sodipodi:nodetypes="ccc" /><path
               style="fill:none;stroke:#000000;stroke-width:0.62499064;stroke-linecap:butt;stroke-linejoin:miter;marker:none;stroke-miterlimit:4;stroke-dasharray:none;stroke-dashoffset:0;stroke-opacity:1;visibility:visible;display:inline;overflow:visible;enable-background:accumulate"
               d="M 38.891943,444.90859 L -23.332225,454.66948"
               id="path2497"
               inkscape:connector-curvature="0"
               sodipodi:nodetypes="cc" /><path
               style="fill:none;stroke:#000000;stroke-width:0.62499064;stroke-linecap:butt;stroke-linejoin:miter;marker:none;stroke-miterlimit:4;stroke-dasharray:none;stroke-dashoffset:0;stroke-opacity:1;visibility:visible;display:inline;overflow:visible;enable-background:accumulate"
               d="M 37.381653,436.07705 L -24.207595,449.26362 L -24.207595,449.26362"
               id="path2499"
               inkscape:connector-curvature="0"
               sodipodi:nodetypes="ccc" /></g><g
             id="g2503"
             transform="translate(3.68867,-375.37884)"><path
               transform="matrix(0.9832549,-0.1822355,-0.1822355,-0.9832549,0,0)"
               style="fill:none;stroke:#000000;stroke-width:0.62499064;stroke-linecap:butt;stroke-linejoin:miter;marker:none;stroke-miterlimit:4;stroke-dashoffset:0;stroke-opacity:1;visibility:visible;display:inline;overflow:visible;enable-background:accumulate"
               d="M -429.12683,-422.48721 L -375.24914,-422.48721 L -375.24914,-386.56875 L -429.12683,-386.56875 L -429.12683,-422.48721 z"
               id="path2505" /><path
               style="fill:none;stroke:#000000;stroke-width:0.62499064;stroke-linecap:butt;stroke-linejoin:miter;marker:none;stroke-miterlimit:4;stroke-dasharray:none;stroke-dashoffset:0;stroke-opacity:1;visibility:visible;display:inline;overflow:visible;enable-background:accumulate"
               d="M -201.03745,449.86374 C -201.03745,444.78562 -205.15899,440.66388 -210.23731,440.66387 C -211.14478,440.66387 -212.03396,440.79373 -212.86227,441.03887 C -212.90308,441.05095 -212.94669,441.05124 -212.98727,441.06387 L -231.41199,444.48882 L -232.08698,440.81387 L -235.51193,441.43886 L -230.887,467.03848 L -227.36205,466.26349 L -228.06204,462.46355 C -221.58981,461.40058 -215.6944,460.17766 -209.51232,459.0136 C -204.77941,458.63654 -201.03745,454.69287 -201.03745,449.86374 z"
               id="path2507" /><path
               style="fill:none;stroke:#000000;stroke-width:0.62499064;stroke-linecap:butt;stroke-linejoin:miter;marker:none;stroke-miterlimit:4;stroke-dasharray:none;stroke-dashoffset:0;stroke-opacity:1;visibility:visible;display:inline;overflow:visible;enable-background:accumulate"
               d="M -297.62703,453.29153 L -234.60026,447.17833"
               id="path2509"
               inkscape:connector-curvature="0"
               sodipodi:nodetypes="cc" /><path
               style="fill:none;stroke:#000000;stroke-width:0.62499064;stroke-linecap:butt;stroke-linejoin:miter;marker:none;stroke-miterlimit:4;stroke-dasharray:none;stroke-dashoffset:0;stroke-opacity:1;visibility:visible;display:inline;overflow:visible;enable-background:accumulate"
               d="M -231.7342,461.95943 L -292.79717,479.35108 L -292.79717,479.35108"
               id="path2511"
               inkscape:connector-curvature="0"
               sodipodi:nodetypes="ccc" /><path
               style="fill:none;stroke:#000000;stroke-width:0.62499064;stroke-linecap:butt;stroke-linejoin:miter;marker:none;stroke-miterlimit:4;stroke-dasharray:none;stroke-dashoffset:0;stroke-opacity:1;visibility:visible;display:inline;overflow:visible;enable-background:accumulate"
               d="M -294.18511,470.49686 L -232.59586,457.3103"
               id="path2513"
               inkscape:connector-curvature="0"
               sodipodi:nodetypes="cc" /><path
               style="fill:none;stroke:#000000;stroke-width:0.62499064;stroke-linecap:butt;stroke-linejoin:miter;marker:none;stroke-miterlimit:4;stroke-dasharray:none;stroke-dashoffset:0;stroke-opacity:1;visibility:visible;display:inline;overflow:visible;enable-background:accumulate"
               d="M -295.94008,461.71068 L -233.71593,451.94978 L -233.71593,451.94978"
               id="path2515"
               inkscape:connector-curvature="0"
               sodipodi:nodetypes="ccc" /><path
               transform="matrix(-0.9832549,0.1822355,-0.1822355,-0.9832549,0,0)"
               style="fill:none;stroke:#000000;stroke-width:0.62499064;stroke-linecap:butt;stroke-linejoin:miter;marker:none;stroke-miterlimit:4;stroke-dashoffset:0;stroke-opacity:1;visibility:visible;display:inline;overflow:visible;enable-background:accumulate"
               d="M 375.31116,-386.37375 L 429.18885,-386.37375 L 429.18885,-350.45529 L 375.31116,-350.45529 L 375.31116,-386.37375 z"
               id="path2517" /><path
               style="fill:none;stroke:#000000;stroke-width:0.62499064;stroke-linecap:butt;stroke-linejoin:miter;marker:none;stroke-miterlimit:4;stroke-dasharray:none;stroke-dashoffset:0;stroke-opacity:1;visibility:visible;display:inline;overflow:visible;enable-background:accumulate"
               d="M -414.49659,464.86049 L -419.37151,439.31088 L -422.79646,439.96087 L -422.09647,443.61081 L -441.19619,446.88576 C -441.19619,446.88576 -441.29529,446.9831 -441.34618,447.03576 C -445.71033,447.7539 -449.04605,451.51933 -449.04607,456.08563 C -449.04607,461.16375 -444.92451,465.28549 -439.84621,465.28549 C -439.62087,465.28549 -439.3925,465.27644 -439.17122,465.26049 C -439.15485,465.25931 -439.13755,465.26176 -439.12122,465.26049 C -438.94475,465.30135 -438.84622,465.33549 -438.84622,465.33549 C -432.10183,464.0855 -425.71901,463.04592 -418.77152,461.61054 L -418.07153,465.41049 L -414.49659,464.86049 z"
               id="path2519" /><path
               style="fill:none;stroke:#000000;stroke-width:0.62499064;stroke-linecap:butt;stroke-linejoin:miter;marker:none;stroke-miterlimit:4;stroke-dasharray:none;stroke-dashoffset:0;stroke-opacity:1;visibility:visible;display:inline;overflow:visible;enable-background:accumulate"
               d="M -357.24468,427.61255 L -418.27601,444.49215"
               id="path2521"
               inkscape:connector-curvature="0"
               sodipodi:nodetypes="cc" /><path
               style="fill:none;stroke:#000000;stroke-width:0.62499064;stroke-linecap:butt;stroke-linejoin:miter;marker:none;stroke-miterlimit:4;stroke-dasharray:none;stroke-dashoffset:0;stroke-opacity:1;visibility:visible;display:inline;overflow:visible;enable-background:accumulate"
               d="M -415.65464,459.31861 L -352.41482,453.6721 L -352.41482,453.6721"
               id="path2523"
               inkscape:connector-curvature="0"
               sodipodi:nodetypes="ccc" /><path
               style="fill:none;stroke:#000000;stroke-width:0.62499064;stroke-linecap:butt;stroke-linejoin:miter;marker:none;stroke-miterlimit:4;stroke-dasharray:none;stroke-dashoffset:0;stroke-opacity:1;visibility:visible;display:inline;overflow:visible;enable-background:accumulate"
               d="M -354.29214,444.90859 L -416.51631,454.66948"
               id="path2525"
               inkscape:connector-curvature="0"
               sodipodi:nodetypes="cc" /><path
               style="fill:none;stroke:#000000;stroke-width:0.62499064;stroke-linecap:butt;stroke-linejoin:miter;marker:none;stroke-miterlimit:4;stroke-dasharray:none;stroke-dashoffset:0;stroke-opacity:1;visibility:visible;display:inline;overflow:visible;enable-background:accumulate"
               d="M -355.80243,436.07705 L -417.39168,449.26362 L -417.39168,449.26362"
               id="path2527"
               inkscape:connector-curvature="0"
               sodipodi:nodetypes="ccc" /></g></g></g></g></g></svg>