<?xml version="1.0" encoding="utf-8"?>
<!-- Generator: Adobe Illustrator 13.0.0, SVG Export Plug-In . SVG Version: 6.00 Build 14948)  -->
<!DOCTYPE svg PUBLIC "-//W3C//DTD SVG 1.0//EN" "http://www.w3.org/TR/2001/REC-SVG-20010904/DTD/svg10.dtd">
<svg version="1.0"
	 id="svg2" inkscape:output_extension="org.inkscape.output.svg.inkscape" xmlns:inkscape="http://www.inkscape.org/namespaces/inkscape" sodipodi:version="0.32" xmlns:cc="http://creativecommons.org/ns#" xmlns:rdf="http://www.w3.org/1999/02/22-rdf-syntax-ns#" xmlns:dc="http://purl.org/dc/elements/1.1/" xmlns:sodipodi="http://sodipodi.sourceforge.net/DTD/sodipodi-0.dtd" sodipodi:docname="notched.svg" inkscape:version="0.46" xmlns:svg="http://www.w3.org/2000/svg"
	 xmlns="http://www.w3.org/2000/svg" xmlns:xlink="http://www.w3.org/1999/xlink" x="0px" y="0px" width="389.688px"
	 height="178.344px" viewBox="0 0 389.688 178.344" enable-background="new 0 0 389.688 178.344" xml:space="preserve">
<inkscape:perspective  id="perspective35" inkscape:vp_z="567.81738 : 410.56467 : 1" inkscape:vp_y="0 : 1000 : 0" inkscape:persp3d-origin="283.90869 : 273.70978 : 1" sodipodi:type="inkscape:persp3d" inkscape:vp_x="0 : 410.56467 : 1">
	</inkscape:perspective>
<inkscape:path-effect  effect="spiro" id="path-effect3941" is_visible="true"></inkscape:path-effect>
<inkscape:path-effect  effect="spiro" id="path-effect3941-2" is_visible="true"></inkscape:path-effect>
<inkscape:path-effect  effect="spiro" id="path-effect3941-1" is_visible="true"></inkscape:path-effect>
<inkscape:path-effect  effect="spiro" id="path-effect3941-2-1" is_visible="true"></inkscape:path-effect>
<inkscape:path-effect  effect="spiro" id="path-effect3941-1-7" is_visible="true"></inkscape:path-effect>
<inkscape:path-effect  effect="spiro" id="path-effect3941-2-1-2" is_visible="true"></inkscape:path-effect>
<inkscape:path-effect  effect="spiro" id="path-effect23631" is_visible="true"></inkscape:path-effect>
<inkscape:path-effect  effect="spiro" id="path-effect23629" is_visible="true"></inkscape:path-effect>
<inkscape:perspective  id="perspective37" inkscape:vp_z="744.09448 : 526.18109 : 1" inkscape:vp_y="0 : 1000 : 0" inkscape:persp3d-origin="372.04724 : 350.78739 : 1" sodipodi:type="inkscape:persp3d" inkscape:vp_x="0 : 526.18109 : 1">
	</inkscape:perspective>
<desc  id="desc32263">Master slide</desc>
<g id="XMLID_1_">
	<g>
		<path fill="none" stroke="#000000" d="M108.886-93.956c0.33,0,0.65-0.021,0.971-0.05"/>
		<path fill="none" stroke="#000000" d="M109.856-94.005c4.569-0.511,8.109-4.53,8.109-9.45v-20.63h-6.26
			c-6.24,0-11.24-5.03-11.24-11.25v-12.2c0-6.22,5-11.24,11.24-11.24h6.26v-103c0-5.26-4.05-9.5-9.08-9.5h-370.529
			c-5.02,0-9.06,4.24-9.06,9.5v158.32c0,5.26,4.04,9.5,9.06,9.5h370.02"/>
		<path fill="none" stroke="#000000" d="M117.966-84.625c-0.09-5.2-4.1-9.33-9.08-9.33"/>
		<path fill="none" stroke="#000000" d="M-261.644,83.343h370.53c5.03,0,9.08-4.229,9.08-9.5V53.224h-6.26
			c-6.24,0-11.24-5.011-11.24-11.261v-12.17c0-6.239,5-11.25,11.24-11.25h6.26v-103"/>
		<path fill="none" stroke="#000000" d="M-261.644-93.956c-5.02,0-9.06,4.221-9.06,9.5V73.845c0,5.27,4.04,9.5,9.06,9.5"/>
		<line fill="none" stroke="#000000" x1="108.886" y1="-93.956" x2="108.376" y2="-93.956"/>
		<path fill="none" stroke="#000000" d="M117.966,92.844c0-5.25-4.05-9.5-9.08-9.5"/>
		<path fill="none" stroke="#000000" d="M-261.644,83.343c-2.35,0-4.5,0.95-6.12,2.5c-1.81,1.73-2.94,4.231-2.94,7v158.32
			c0,5.26,4.04,9.5,9.06,9.5h370.53c5.03,0,9.08-4.24,9.08-9.5v-20.621h-6.26c-6.24,0-11.24-5.029-11.24-11.25v-12.199
			c0-6.221,5-11.25,11.24-11.25h6.26v-103"/>
		<path fill="none" stroke="#000000" d="M117.966,407.844h-6.26c-6.24,0-11.24-5.01-11.24-11.25v-12.18c0-6.24,5-11.25,11.24-11.25
			h6.26v-103c0-5.271-4.05-9.5-9.08-9.5"/>
		<line fill="none" stroke="#000000" x1="117.966" y1="428.465" x2="117.966" y2="407.844"/>
		<path fill="none" stroke="#000000" d="M-261.644,260.664c-5.02,0-9.06,4.23-9.06,9.5v158.301c0,5.279,4.04,9.5,9.06,9.5h370.53
			c5.03,0,9.08-4.221,9.08-9.5"/>
		<path fill="none" stroke="#000000" d="M506.506-263.226c-0.66-4.57-4.398-8.05-8.959-8.05H127.016c-5.01,0-9.05,4.24-9.05,9.5"/>
		<path fill="none" stroke="#000000" d="M506.617-124.085h-6.25c-6.24,0-11.25-5.03-11.25-11.25v-12.2
			c0-6.22,5.01-11.24,11.25-11.24h6.25v-103c0-0.14,0-0.29-0.021-0.43c-0.01-0.35-0.041-0.69-0.09-1.02"/>
		<path fill="none" stroke="#000000" d="M506.387-101.327c0.15-0.68,0.23-1.4,0.23-2.13"/>
		<path fill="none" stroke="#000000" d="M497.547-93.956c4.33,0,7.92-3.141,8.84-7.37"/>
		<line fill="none" stroke="#000000" x1="127.017" y1="-93.956" x2="495.877" y2="-93.956"/>
		<path fill="none" stroke="#000000" d="M117.976-102.956c0.25,5.02,4.189,9,9.039,9"/>
		<path fill="none" stroke="#000000" d="M117.966-103.456c0,0.17,0,0.33,0.011,0.5"/>
		<line fill="none" stroke="#000000" x1="117.966" y1="-158.776" x2="117.966" y2="-124.085"/>
		<path fill="none" stroke="#000000" d="M127.017-93.956c-4.961,0-8.961,4.13-9.051,9.33c0,0.061,0,0.109,0,0.17"/>
		<line fill="none" stroke="#000000" x1="497.547" y1="-93.956" x2="495.877" y2="-93.956"/>
		<path fill="none" stroke="#000000" d="M506.316-86.897c-1.021-4.08-4.551-7.06-8.771-7.06"/>
		<path fill="none" stroke="#000000" d="M506.617-84.456c0-0.851-0.102-1.66-0.301-2.439"/>
		<path fill="none" stroke="#000000" d="M506.617,73.464v-20.24h-6.25c-6.24,0-11.25-5.01-11.25-11.26v-12.17
			c0-6.24,5.01-11.25,11.25-11.25h6.25v-101.92"/>
		<path fill="none" stroke="#000000" d="M498.137,83.325c4.75-0.312,8.48-4.421,8.48-9.479"/>
		<path fill="none" stroke="#000000" d="M117.966,73.843c0,5.271,4.04,9.5,9.05,9.5h370.531c0.199,0,0.4-0.01,0.59-0.02"/>
		<line fill="none" stroke="#000000" x1="117.966" y1="18.544" x2="117.966" y2="53.224"/>
		<path fill="none" stroke="#000000" d="M506.617,103.125V92.846c0-0.24-0.012-0.48-0.031-0.721c-0.35-4.911-4.24-8.78-9.039-8.78"
			/>
		<polyline fill="none" stroke="#000000" points="506.617,128.375 506.617,126.434 506.617,108.324 506.617,103.125 		"/>
		<path fill="none" stroke="#000000" d="M506.617,230.545h-6.25c-6.24,0-11.25-5.031-11.25-11.25v-12.201
			c0-6.219,5.01-11.25,11.25-11.25h6.25v-67.469"/>
		<path fill="none" stroke="#000000" d="M127.017,260.664h370.53c5.029,0,9.07-4.24,9.07-9.5"/>
		<path fill="none" stroke="#000000" d="M117.966,251.164c0,5.26,4.04,9.5,9.05,9.5"/>
		<line fill="none" stroke="#000000" x1="117.966" y1="195.844" x2="117.966" y2="230.545"/>
		<path fill="none" stroke="#000000" d="M127.017,83.343c-2.37,0-4.511,0.95-6.131,2.5c-1.8,1.73-2.92,4.231-2.92,7"/>
		<line fill="none" stroke="#000000" x1="117.966" y1="373.164" x2="117.966" y2="407.844"/>
		<path fill="none" stroke="#000000" d="M127.017,260.664c-5.011,0-9.051,4.23-9.051,9.5"/>
		<path fill="none" stroke="#000000" d="M117.966,428.465c0,5.279,4.04,9.5,9.05,9.5h370.531c5.029,0,9.07-4.221,9.07-9.5v-20.621
			h-6.25c-6.24,0-11.25-5.01-11.25-11.25v-12.18c0-6.24,5.01-11.25,11.25-11.25h6.25v-103c0-5.27-4.041-9.5-9.07-9.5"/>
		<path fill="none" stroke="#000000" d="M516.117,117.385c-5.271,0-9.5,4.039-9.5,9.049"/>
		<line fill="none" stroke="#000000" x1="619.117" y1="117.385" x2="516.117" y2="117.385"/>
		<path fill="none" stroke="#000000" d="M506.617,428.465v68.5c0,5.029,4.229,9.08,9.5,9.08h158.299c5.271,0,9.5-4.051,9.5-9.08
			V126.436c0-5.01-4.229-9.051-9.5-9.051h-20.619v6.25c0,6.229-5.01,11.25-11.25,11.25h-12.18c-6.24,0-11.25-5.021-11.25-11.25
			v-6.25"/>
		<line fill="none" stroke="#000000" x1="506.617" y1="373.164" x2="506.617" y2="407.844"/>
		<line fill="none" stroke="#000000" x1="506.617" y1="251.164" x2="506.617" y2="270.164"/>
		<line fill="none" stroke="#000000" x1="506.617" y1="230.545" x2="506.617" y2="251.164"/>
		<line fill="none" stroke="#000000" x1="506.617" y1="195.844" x2="506.617" y2="230.545"/>
		<path fill="none" stroke="#000000" d="M674.416,117.385c5.271,0,9.5-4.041,9.5-9.061v-370.53c0-5.02-4.229-9.07-9.5-9.07h-20.619
			v6.24c0,6.25-5.01,11.26-11.25,11.26h-12.18c-6.24,0-11.25-5.01-11.25-11.26v-6.24h-103c-5.271,0-9.5,4.05-9.5,9.07"/>
		<line fill="none" stroke="#000000" x1="619.117" y1="117.385" x2="653.797" y2="117.385"/>
		<path fill="none" stroke="#000000" d="M506.617,108.324c0,5.021,4.229,9.061,9.5,9.061"/>
		<line fill="none" stroke="#000000" x1="506.617" y1="90.125" x2="506.617" y2="92.125"/>
		<line fill="none" stroke="#000000" x1="506.617" y1="74.964" x2="506.617" y2="90.125"/>
		<polyline fill="none" stroke="#000000" points="506.617,73.464 506.617,73.843 506.617,74.964 		"/>
		<line fill="none" stroke="#000000" x1="506.617" y1="18.544" x2="506.617" y2="53.224"/>
		<polyline fill="none" stroke="#000000" points="506.617,-85.125 506.617,-84.456 506.617,-83.375 		"/>
		<line fill="none" stroke="#000000" x1="506.617" y1="-101.545" x2="506.617" y2="-85.125"/>
		<polyline fill="none" stroke="#000000" points="506.617,-124.085 506.617,-103.456 506.617,-101.545 		"/>
		<line fill="none" stroke="#000000" x1="506.617" y1="-158.776" x2="506.617" y2="-124.085"/>
	</g>
</g>
</svg>
