<?xml version="1.0" encoding="utf-8"?>
<!-- Generator: Adobe Illustrator 13.0.0, SVG Export Plug-In . SVG Version: 6.00 Build 14948)  -->
<!DOCTYPE svg PUBLIC "-//W3C//DTD SVG 1.0//EN" "http://www.w3.org/TR/2001/REC-SVG-20010904/DTD/svg10.dtd">
<svg version="1.0" id="Layer_1" xmlns="http://www.w3.org/2000/svg" xmlns:xlink="http://www.w3.org/1999/xlink" x="0px" y="0px"
	 width="782.469px" height="748.518px" viewBox="0 0 782.469 748.518" enable-background="new 0 0 782.469 748.518"
	 xml:space="preserve">
<g id="svg2" inkscape:output_extension="org.inkscape.output.svg.inkscape" xmlns:svg="http://www.w3.org/2000/svg" xmlns:dc="http://purl.org/dc/elements/1.1/" xmlns:cc="http://creativecommons.org/ns#" xmlns:sodipodi="http://sodipodi.sourceforge.net/DTD/sodipodi-0.dtd" xmlns:inkscape="http://www.inkscape.org/namespaces/inkscape" xmlns:rdf="http://www.w3.org/1999/02/22-rdf-syntax-ns#" sodipodi:docname="blank_2x4.svg" sodipodi:version="0.32" inkscape:version="0.46">
	<path id="path3397" fill="none" stroke="#000000" d="M100.977-206.24c-1.286,3.312-0.639,8.487,1.938,10.125
		c2.373,1.509,5.598,0.733,7.625-1.844c2.477-3.149,2.52-3.621,0.562-7.406c-0.158-0.307-0.361-0.599-0.562-0.875H100.977z
		 M113.79-206.24c1.626,2.452,2.812,4.575,2.812,5.031c0,1.509-5.005,7.82-7.094,8.938c-1.157,0.619-3.361,0.614-6.094,0
		c-4.87-1.094-5.757-0.388-5.781,4.531c-0.008,1.706-1.156,5.227-2.531,7.812c-1.375,2.585-2.5,6.048-2.5,7.688
		c0,1.537-0.991,4.768-2.25,7.406v6.875l1.5,0.75c5.441,2.758,5.731,3.232,5.75,10.062v5.688l-7,2.281
		c-0.089,0.029-0.162,0.065-0.25,0.094v9.875c1.52,1.25,2.9,2.249,3.594,2.469c2.748,0.872,3.639-1.149,3.656-8.281
		c0.008-3.405,0.396-6.423,0.875-6.719c0.479-0.296,3.484-1.236,6.656-2.062c5.167-1.346,6.106-1.325,9.031,0.062
		c2.951,1.4,3.759,1.386,8.531-0.031c2.903-0.862,6.475-1.562,7.938-1.562c2.238,0,2.866-0.632,3.875-4
		c0.952-3.178,1.962-4.343,4.906-5.594c7.997-3.399,9.253-3.093,14,3.125c4.971,6.511,6.255,6.291,8.625-1.406
		c1.669-5.419,1.938-9.125,0.656-9.125c-0.501,0-3.752,0.89-7.219,1.969c-7.323,2.279-8.038,1.941-11.969-5.469
		c-2.14-4.033-2.21-4.692-0.969-8.125c1.344-3.716,1.309-3.758-2.344-6.688c-2.02-1.621-4.314-4.18-5.094-5.688
		c-1.023-1.978-2.632-3.035-5.844-3.844c-3.592-0.904-5.168-2.077-8.094-6.062l-3.625-4.938l3.219-5.062H113.79z M123.946-206.24
		c-0.799,1.301-1.344,2.814-1.344,4.406c0,5.362,5.697,8.803,9.031,5.469c1.644-1.644,2.36-6.529,1.875-9.875H123.946z
		 M136.227-206.24c-1.005,3.176-0.704,8.59,0.844,9.875c1.996,1.657,6.791,0.476,9.969-2.469c3.293-3.052,3.24-3.759-0.5-6.906
		c-0.223-0.188-0.437-0.328-0.656-0.5H136.227z M162.508-206.24c-1.614,0.796-2.906,2.686-2.906,4.875
		c0,3.528,2.47,4.619,5.656,2.531c2.85-1.867,3.124-6.002,0.5-7.406H162.508z M178.696-206.24c-3.745,0.855-5.094,2.081-5.094,4.344
		c0,2.846,1.532,3.505,9.844,4.281c4.865,0.454,6.57,0.261,7.25-0.812c1.481-2.34,1.024-5.487-1.062-7.375
		c-0.179-0.162-0.355-0.306-0.531-0.438H178.696z M195.008-206.24c0.132,0.836,0.285,1.737,0.531,3
		c1.338,6.858,3.815,10.949,5.25,8.688c0.826-1.301,1.011-6.828,0.5-11.688H195.008z M206.04-206.24
		c0.01,0.064,0.02,0.123,0.031,0.188c0.396,2.326,0.834,6.369,0.969,9c0.199,3.893,0.865,5.435,3.594,8.25
		c1.844,1.903,4.183,3.712,5.188,4.031c2.668,0.847,8.481-1.354,10.562-4c0.992-1.261,3.376-3.072,5.281-4.031
		c1.905-0.959,4.237-2.697,5.188-3.875c2.06-2.554,2.313-6.199,0.906-9.562h-8.906c0.916,4.347,0.854,10.153-0.312,12.156
		c-1.397,2.399-5.458,2.194-11.438-0.594c-7.337-3.421-8.307-4.971-5.969-9.312c0.409-0.759,0.961-1.513,1.625-2.25L206.04-206.24
		L206.04-206.24z M216.196-206.24c-2.323,2.123-2.74,3.141-2.219,5.219c0.697,2.776,5.065,5.688,8.531,5.688
		c1.096,0,2.707-0.997,3.562-2.219c1.85-2.642,1.974-5.115,0.406-8.094c-0.11-0.209-0.231-0.403-0.344-0.594H216.196z
		 M241.102-206.24c0.893,2.211,1.5,4.237,1.5,5.031c0,1.059-1.786,4.807-4,8.312c-4.393,6.956-6.634,8.417-16.781,11.031
		l-6.281,1.625l-5.781-5.062c-3.185-2.771-6.289-5.031-6.875-5.031c-1.625,0-2.281,2.589-2.281,9v5.844l-7,2.656
		c-3.85,1.471-7,3.069-7,3.531c0,1.048,3.444,3.666,9.25,7.094l4.469,2.656l0.562,7.781c0.707,9.348-0.294,12.313-6.781,19.906
		l-4.531,5.312l-8.469-0.531c-4.775-0.298-8.5-0.135-8.5,0.375c0,0.498,1.575,3.235,3.5,6.094c1.925,2.859,3.5,5.913,3.5,6.781
		s-1.575,3.923-3.5,6.781c-1.925,2.858-3.5,5.596-3.5,6.094c0,0.51,3.725,0.673,8.5,0.375l8.469-0.531l4.531,5.344
		c6.487,7.593,7.488,10.527,6.781,19.875l-0.562,7.812l-4.469,2.625c-5.806,3.428-9.25,6.077-9.25,7.125c0,0.462,3.15,2.029,7,3.5
		l7,2.688v5.812c0,6.41,0.657,9,2.281,9c0.586,0,3.69-2.261,6.875-5.031l5.781-5.031l6.281,1.625
		c10.147,2.614,12.388,4.075,16.781,11.031c2.214,3.506,4,7.223,4,8.281c0,0.916-0.823,3.51-1.938,6.094h8.281
		c-1.826-2.545-3.299-5.171-3.312-5.969c-0.014-0.835,1.139-3.248,2.562-5.344c1.423-2.096,2.437-3.943,2.25-4.094
		s-3.862-1.941-8.188-4c-5.856-2.787-9.541-5.452-14.375-10.406l-6.469-6.656l-3.156,3.75c-3.494,4.162-5.255,4.499-11.719,2.219
		c-5.28-1.863-5.887-2.731-5.906-8.5c-0.019-5.699,1.743-8.233,6.906-9.938c2.24-0.739,4.062-1.488,4.062-1.656
		s-1.348-2.427-3-5.031c-4.31-6.795-6.715-13.938-7.531-22.219c-0.59-5.989-0.979-7.125-2.281-6.625
		c-0.864,0.332-3.449,0.846-5.719,1.156c-4.021,0.551-4.208,0.462-7.781-4.406c-2.018-2.748-3.688-5.347-3.688-5.75
		s1.67-2.971,3.688-5.719c3.574-4.868,3.76-4.989,7.781-4.438c2.27,0.311,4.855,0.825,5.719,1.156
		c1.302,0.5,1.691-0.604,2.281-6.594c0.816-8.281,3.222-15.423,7.531-22.219c1.652-2.604,3-4.895,3-5.062s-1.823-0.917-4.062-1.656
		c-5.163-1.704-6.925-4.238-6.906-9.938c0.02-5.769,0.626-6.637,5.906-8.5c6.464-2.28,8.225-1.943,11.719,2.219l3.156,3.75
		l6.469-6.656c4.834-4.954,8.519-7.62,14.375-10.406c4.326-2.058,8.001-3.85,8.188-4s-0.826-1.998-2.25-4.094
		c-1.424-2.096-2.576-4.478-2.562-5.312c0.011-0.688,1.123-2.752,2.594-4.938h-7.125V-206.24z M251.758-206.24
		c-0.032,0.033-0.062,0.06-0.094,0.094c-2.254,2.419-2.571,4.938-1,7.875c1.447,2.705,8.208,2.667,10.938-0.062c1.1-1.1,2-2.9,2-4
		c0-1.58-0.718-2.91-1.812-3.906L251.758-206.24L251.758-206.24z M266.008-206.24c0.213,0.873,0.307,2.05,0.406,3.781
		c0.299,5.236,0.365,5.345,3,4.781c14.237-3.047,16.907-3.056,31.406,0c2.635,0.555,2.701,0.453,3-4.781
		c0.1-1.734,0.192-2.908,0.406-3.781h-7.312c-3.856,1.743-8.675,3.188-11.812,3.188s-7.925-1.444-11.781-3.188H266.008z
		 M308.508-206.24c-1.057,1.106-1.906,2.838-1.906,3.906c0,1.1,0.9,2.9,2,4c2.61,2.61,9.473,2.767,10.938,0.25
		c1.791-3.074,0.856-6.173-1.188-8.156H308.508z M322.008-206.24c1.471,2.185,2.582,4.25,2.594,4.938
		c0.015,0.835-1.139,3.217-2.562,5.312c-1.423,2.095-2.438,3.944-2.25,4.094c0.187,0.15,3.861,1.942,8.188,4
		c5.856,2.787,9.511,5.452,14.345,10.406l6.5,6.656l3.155-3.75c3.494-4.162,5.256-4.499,11.72-2.219
		c5.278,1.863,5.887,2.73,5.905,8.5c0.021,5.699-1.742,8.233-6.905,9.938c-2.24,0.739-4.095,1.488-4.095,1.656s1.349,2.458,3,5.062
		c4.311,6.795,6.746,13.938,7.562,22.219c0.59,5.989,0.979,7.093,2.281,6.594c0.862-0.332,3.448-0.845,5.719-1.156
		c4.021-0.551,4.207-0.431,7.781,4.438c2.018,2.748,3.642,5.367,3.625,5.844c-0.018,0.477-1.65,3.076-3.656,5.75
		c-3.535,4.711-3.792,4.828-7.781,4.281c-2.264-0.311-4.824-0.824-5.688-1.156c-1.303-0.5-1.691,0.636-2.281,6.625
		c-0.816,8.281-3.253,15.424-7.562,22.219c-1.651,2.604-3,4.863-3,5.031s1.854,0.917,4.095,1.656
		c5.163,1.704,6.926,4.238,6.905,9.938c-0.02,5.77-0.627,6.637-5.905,8.5c-6.464,2.28-8.226,1.943-11.72-2.219l-3.155-3.75
		l-6.5,6.656c-4.834,4.954-8.487,7.619-14.345,10.406c-4.325,2.059-8.001,3.85-8.188,4c-0.188,0.15,0.826,1.998,2.25,4.094
		c1.424,2.096,2.576,4.509,2.562,5.344c-0.014,0.798-1.485,3.424-3.312,5.969h8.281c-1.114-2.584-1.97-5.178-1.97-6.094
		c0-1.059,1.817-4.775,4.031-8.281c4.394-6.956,6.634-8.417,16.781-11.031l6.281-1.625l5.78,5.031
		c3.187,2.771,6.259,5.031,6.845,5.031c1.625,0,2.28-2.59,2.28-9v-5.812l7-2.688c3.851-1.471,7-3.038,7-3.5
		c0-1.048-3.412-3.697-9.219-7.125l-4.469-2.625l-0.594-7.812c-0.707-9.348,0.295-12.282,6.78-19.875l4.562-5.344l8.469,0.531
		c4.775,0.298,8.469,0.135,8.469-0.375c0-0.498-1.574-3.235-3.5-6.094c-1.925-2.859-3.5-5.913-3.5-6.781s1.575-3.923,3.5-6.781
		c1.926-2.858,3.5-5.596,3.5-6.094c0-0.51-3.692-0.673-8.469-0.375l-8.469,0.531l-4.562-5.312
		c-6.485-7.593-7.487-10.559-6.78-19.906l0.594-7.781l4.469-2.656c5.807-3.428,9.219-6.046,9.219-7.094c0-0.462-3.149-2.06-7-3.531
		l-7-2.656v-5.844c0-6.411-0.655-9-2.28-9c-0.586,0-3.658,2.261-6.845,5.031l-5.78,5.062l-6.281-1.625
		c-10.147-2.614-12.389-4.075-16.781-11.031c-2.214-3.505-4.031-7.254-4.031-8.312c0-0.794,0.64-2.82,1.531-5.031h-7.125V-206.24z
		 M332.415-206.24c-2.275,5.131-0.088,10.293,6.156,13.438c1.903,0.959,4.289,2.771,5.28,4.031c2.081,2.646,7.896,4.847,10.562,4
		c1.005-0.319,3.328-2.113,5.156-4c2.877-2.968,3.332-4.19,3.5-9c0.106-3.058,0.506-5.85,0.875-6.219
		c0.242-0.242,0.444-1.142,0.562-2.25h-7.031c0.447,0.49,0.861,0.975,1.188,1.469c1.066,1.618,1.934,3.429,1.938,4.031
		c0.011,1.665-3.025,4.088-8,6.344c-9.356,4.244-12.623,2.015-11.719-7.969c0.137-1.505,0.294-2.752,0.5-3.875H332.415z
		 M344.071-206.24c-2.064,3.683-1.246,9.305,2.03,10.562c2.228,0.854,6.279-0.437,8.531-2.688c2.639-2.638,2.45-5.092-0.562-7.875
		L344.071-206.24L344.071-206.24z M369.071-206.24c-0.334,4.017-0.438,8.847-0.031,10.469c0.682,2.719,0.736,2.722,2.562,0.844
		c1.022-1.052,2.277-3.931,2.812-6.406c0.447-2.066,0.752-3.636,0.906-4.906L369.071-206.24L369.071-206.24z M381.133-206.24
		c-0.176,0.131-0.353,0.276-0.531,0.438c-2.086,1.888-2.544,5.035-1.062,7.375c0.68,1.074,2.385,1.267,7.25,0.812
		c3.497-0.327,7.139-0.883,8.094-1.25c2.295-0.88,2.23-5.131-0.094-6.375c-0.574-0.308-1.881-0.663-3.406-1H381.133z
		 M404.415-206.24c-1.078,0.566-1.812,1.789-1.812,3.438c0,2.844,3.913,5.82,6.375,4.875c2.435-0.934,2.085-5.949-0.53-7.781
		c-0.31-0.216-0.597-0.397-0.906-0.531L404.415-206.24L404.415-206.24z M424.352-206.24c-0.219,0.172-0.434,0.312-0.655,0.5
		c-3.74,3.147-3.793,3.854-0.5,6.906c3.178,2.945,7.973,4.125,9.969,2.469c1.548-1.285,1.849-6.699,0.844-9.875H424.352z
		 M436.915-206.24c-0.181,0.903-0.312,1.947-0.312,3.125c0,7.762,4.1,10.393,9.25,5.969c2.203-1.892,2.278-5.979,0.406-9.094
		H436.915z M449.446-206.24l3.219,5.062l-3.594,4.938c-2.927,3.986-4.502,5.158-8.095,6.062c-3.212,0.809-4.852,1.866-5.875,3.844
		c-0.778,1.507-3.042,4.067-5.062,5.688c-3.652,2.93-3.688,2.972-2.344,6.688c1.241,3.433,1.171,4.092-0.97,8.125
		c-3.957,7.459-4.595,7.737-12.438,5.344c-3.727-1.137-7.039-1.804-7.375-1.469c-1.021,1.021,1.71,11.417,3.625,13.781l1.781,2.219
		l4.405-5.75c4.841-6.338,6.07-6.629,14.095-3.219c2.942,1.251,3.954,2.416,4.905,5.594c1.01,3.368,1.639,4,3.875,4
		c1.464,0,5.034,0.7,7.938,1.562c4.771,1.417,5.58,1.432,8.531,0.031c2.925-1.388,3.862-1.409,9.03-0.062
		c3.173,0.826,6.179,1.767,6.656,2.062c0.479,0.295,0.866,3.313,0.875,6.719c0.022,8.936,1.684,10.619,7.25,5.938v-10
		c-0.099-0.032-0.182-0.062-0.281-0.094l-7-2.281l0.031-5.688c0.02-6.83,0.31-7.304,5.75-10.062l1.5-0.75v-6.844
		c-1.267-2.644-2.281-5.896-2.281-7.438c0-1.639-1.125-5.102-2.5-7.688c-1.375-2.586-2.49-6.107-2.5-7.812
		c-0.023-4.919-0.941-5.625-5.812-4.531c-2.732,0.614-4.906,0.619-6.062,0c-2.088-1.118-7.125-7.428-7.125-8.938
		c0-0.456,1.219-2.579,2.845-5.031H449.446z M459.477-206.24c-1.574,2.165-1.99,5.098-0.438,7.469
		c0.923,1.408,2.331,2.789,3.125,3.094c2.729,1.048,6.252-0.605,7.25-3.406c0.896-2.518,0.78-5.175-0.062-7.156L459.477-206.24
		L459.477-206.24z M97.383-206.021c-4.037,0.882-7.031,4.441-7.031,8.75v0.156c2.241,1.009,4.561,1.781,5.719,1.781
		c1.22,0,1.531-1.332,1.531-6.531C97.602-203.571,97.541-204.936,97.383-206.021z M472.852-206.021
		c-0.156,1.085-0.25,2.45-0.25,4.156c0,5.2,0.312,6.531,1.531,6.531c1.164,0,3.499-0.796,5.75-1.812v-0.125
		C479.883-201.579,476.886-205.138,472.852-206.021z M151.915-196.646c-3.995-0.262-13.312,4.407-13.312,7.219
		c0,0.455,0.954,2.02,2.094,3.469c2.969,3.774,6.034,3.36,10.312-1.375c3.799-4.205,4.494-7.013,2.25-8.875
		C152.947-196.467,152.485-196.609,151.915-196.646z M418.29-196.646c-0.57,0.038-1.033,0.18-1.344,0.438
		c-2.244,1.862-1.519,4.67,2.28,8.875c4.278,4.735,7.345,5.149,10.312,1.375c1.14-1.449,2.062-3.014,2.062-3.469
		C431.602-192.239,422.285-196.908,418.29-196.646z M304.321-196.209c-0.795-0.042-0.857,1.221-0.406,5.531
		c1.142,10.92,2.66,11.776,9.406,5.156c2.357-2.314,4.28-4.734,4.28-5.344c0-0.61-2.588-1.91-5.75-2.906
		c-3.161-0.996-6.38-2.047-7.156-2.344C304.551-196.171,304.434-196.203,304.321-196.209z M265.665-196.115
		c-0.093-0.001-0.203,0.021-0.312,0.062c-0.688,0.263-3.837,1.285-7,2.281s-5.75,2.277-5.75,2.844c0,1.762,8.319,9.594,10.188,9.594
		c1.12,0,2.023-1.012,2.406-2.75c0.333-1.513,0.754-3.2,0.938-3.75c0.184-0.55,0.363-2.723,0.406-4.844
		C266.588-195.038,266.317-196.108,265.665-196.115z M293.977-195.459c-3.26-0.094-6.01,2.009-4.312,5.312
		c5.042,9.81,7.951,12.423,10.75,9.625c1.974-1.974,1.453-9.229-0.875-12.188C298.072-194.575,295.932-195.403,293.977-195.459z
		 M276.258-195.396c-2.093,0.13-4.293,1.074-5.562,2.688c-2.328,2.959-2.849,10.214-0.875,12.188
		c2.408,2.408,4.453,1.123,8.094-5.031c4.15-7.015,4.142-6.921,2.5-8.562C279.448-195.082,277.886-195.498,276.258-195.396z
		 M179.29-195.334c-1.381,0.046-2.648,0.327-3.562,0.906c-2.06,1.304-0.713,7.974,2.219,10.906c2.047,2.047,2.74,2.211,4.594,1.219
		c1.198-0.641,3.057-2.591,4.125-4.344s1.936-3.719,1.938-4.375C188.61-193.478,183.433-195.473,179.29-195.334z M389.946-195.334
		c-2.464,0.055-5.031,0.742-6.47,1.906c-2.3,1.862-2.286,1.952-0.625,5.438c0.933,1.954,2.841,4.326,4.25,5.25
		c2.425,1.588,2.68,1.56,4.656-0.219c1.15-1.035,2.456-2.775,2.906-3.875c1.373-3.353,1.07-7.225-0.625-7.875
		C392.868-195.159,391.424-195.367,389.946-195.334z M90.352-194.146v11.625c0.993-0.189,1.9-0.863,2.719-2.031
		c0.856-1.222,1.531-3.029,1.531-4.031C94.602-190.625,92.745-192.699,90.352-194.146z M479.883-194.115
		c-2.399,1.491-4.281,3.594-4.281,5.625c0,1.064,0.838,2.944,1.845,4.188c0.744,0.919,1.562,1.486,2.438,1.688L479.883-194.115
		L479.883-194.115z M402.352-193.146c-1.75-0.069-3.488,2.179-5.905,7.344c-2.951,6.308-2.983,6.65-1.281,8.531
		c3.058,3.378,7.568,2.356,9.344-2.094c1.552-3.889,1.33-11.521-0.375-12.938C403.516-192.815,402.935-193.124,402.352-193.146z
		 M167.758-193.115c-0.542,0.06-1.087,0.34-1.656,0.812c-2.743,2.276-1.418,14.133,1.812,16.188
		c1.979,1.258,4.928,0.888,6.875-0.875c2.08-1.883,1.847-3.282-1.844-10.625C170.962-191.562,169.383-193.294,167.758-193.115z
		 M109.54-189.303l7.781,0.594c4.281,0.335,8.76,1.204,9.938,1.938c1.178,0.734,4.215,4.468,6.75,8.281
		c2.535,3.813,4.547,7.755,4.469,8.781c-0.163,2.133-3.967,13.263-5.156,15.094c-1.08,1.663-8.164,4.73-14.5,6.25l-5.25,1.25
		l-7.031-4.188c-7.695-4.572-8.471-5.78-9.5-14.875c-0.847-7.484,1.502-12.987,8.094-19.062L109.54-189.303z M460.665-189.303
		l4.438,4.062c2.431,2.239,5.343,5.984,6.47,8.312c2.146,4.435,2.372,8.258,0.969,15.375c-1.125,5.705-1.042,5.603-8.969,10.312
		l-6.938,4.125l-5.219-1.25c-6.272-1.505-13.17-4.447-14.5-6.188c-1.05-1.374-5.312-14.132-5.312-15.906
		c0-1.847,9.102-14.896,11.375-16.312c1.179-0.733,5.626-1.603,9.906-1.938L460.665-189.303z M193.352-189.209
		c-0.133,0.006-0.286,0.039-0.406,0.062c-2.264,0.436-8.344,8.376-8.344,10.906c0,3.924,7.315,4.373,11.719,0.719
		c1.766-1.466,1.657-9.277-0.156-10.781C195.466-188.883,194.284-189.25,193.352-189.209z M376.008-189.178
		c-2.201-0.05-3.555,2.372-3.219,7.031c0.277,3.853,0.707,4.514,3.938,6.094c2.781,1.36,4.236,1.547,6.25,0.781
		c3.535-1.344,3.36-3.943-0.655-9.219C379.958-187.595,377.72-189.139,376.008-189.178z M158.321-189.053
		c-2.229,0.203-6.05,3.252-8,6.594c-1.768,3.03-1.746,3.063,0.781,4.719c1.4,0.917,4.564,1.878,7.031,2.156l4.469,0.531v-4.094
		c0-4.927-1.436-9.044-3.438-9.812C158.92-189.053,158.639-189.082,158.321-189.053z M411.446-189.053
		c-0.143,0.015-0.253,0.047-0.375,0.094c-2.002,0.768-3.47,4.886-3.47,9.812v4.094l4.5-0.531c2.468-0.278,5.632-1.239,7.031-2.156
		c2.527-1.656,2.52-1.688,0.75-4.719C417.794-186.04,413.575-189.282,411.446-189.053z M285.102-188.334
		c-4.643,0-8.485,8.609-5.281,11.812c1.554,1.554,9.039,1.554,10.594,0C293.618-179.725,289.745-188.334,285.102-188.334z
		 M248.883-186.428c-1.9-0.106-3.771,0.583-5.344,2.156c-3.338,3.338-2.031,5.176,5.906,8.406c6.208,2.526,7.43,2.748,8.219,1.5
		c1.209-1.912,1.165-2.655-0.188-5.281C255.308-183.858,252.05-186.25,248.883-186.428z M321.227-186.334
		c-2.002,0.047-3.998,0.807-5.312,2.25c-3.133,3.439-4.467,6.615-3.75,8.875c0.762,2.4,2.52,2.143,10.969-1.594
		c5.916-2.616,6.695-4.305,3.469-7.531C325.221-185.714,323.229-186.381,321.227-186.334z M115.227-185.334
		c-6.217,0-9.875,3.827-12.719,13.188c-1.809,5.957-1.972,7.6-1,10.844c2.201,7.347,10.794,10.148,21.75,7.094
		c5.541-1.544,8.136-3.81,9.844-8.625c0.78-2.2,1.445-4.311,1.469-4.688c0.221-3.455-7.604-13.987-12.156-16.375
		C120.929-184.675,117.687-185.334,115.227-185.334z M454.977-185.334c-5.74,0-8.97,1.759-13.625,7.375
		c-6.054,7.304-6.66,10.792-3.094,17.875c1.732,3.44,5.218,5.238,13.062,6.781c5.742,1.13,6.505,1.038,10.844-1.062
		c3.129-1.515,5.124-3.26,6.031-5.344c1.815-4.172,1.762-5.341-0.595-12.969C464.868-181.529,461.056-185.334,454.977-185.334z
		 M452.227-177.428c2.24-0.047,4.68,0.584,7,2c4.018,2.449,4.624,5.108,2.281,9.844c-1.969,3.979-6.314,7.25-9.625,7.25
		c-4.102,0-9.085-8.759-7.656-13.469C445.305-175.357,448.494-177.349,452.227-177.428z M118.79-177.334
		c2.129,0.018,4.021,0.56,5.094,1.75c3.421,3.796,2.786,10.412-1.406,14.875c-2.641,2.811-5.021,2.988-8.969,0.656
		c-3.432-2.027-6.921-8.481-6.156-11.406C108.249-174.888,114.106-177.372,118.79-177.334z M336.696-175.834
		c-2.195-0.033-3.07,2.608-3.688,9.25c-0.562,6.041-0.433,7.311,0.875,7.812c2.25,0.864,5.538-1.196,7.781-4.875
		c3.178-5.212,2.451-8.866-2.281-11.312C338.321-175.508,337.427-175.823,336.696-175.834z M233.477-175.803
		c-0.747,0.024-1.628,0.342-2.719,0.906c-1.791,0.926-3.376,2.697-3.75,4.188c-1.29,5.14,5.189,13.527,9.25,11.969
		c1.412-0.542,1.543-1.663,0.969-7.844C236.605-173.271,235.717-175.874,233.477-175.803z M243.383-175.115
		c-2.528,0.101-3.781,2.088-3.781,5.969c0,7.957,4.12,10.114,9.938,5.219c5.252-4.419,3.473-9.054-4.188-10.938
		C244.633-175.042,243.967-175.139,243.383-175.115z M359.102-175.053c-1.251-0.032-2.246,0.466-3.405,1.625
		c-2.771,2.771-2.635,5.307,0.5,9.031c3,3.565,5.586,3.883,8.405,1.062c4.023-4.023,1.866-9.997-4.155-11.5
		C359.953-174.957,359.519-175.042,359.102-175.053z M453.54-175.053c-3.481-0.15-6.938,2.1-6.938,5.938
		c0,3.453,3.331,7.781,5.97,7.781c2.293,0,6.05-2.834,7.062-5.344c1.185-2.932,1.162-2.925-0.531-5.344
		C457.715-174.001,455.628-174.963,453.54-175.053z M116.883-175.021c-0.412,0.025-0.813,0.092-1.25,0.188
		c-6.254,1.374-7.324,8.09-1.875,11.906c3.065,2.147,4.773,2.028,7.531-0.562C126.235-168.137,123.06-175.4,116.883-175.021z
		 M326.383-175.021c-1.91,0.064-4.333,0.859-6.531,2.281c-3.208,2.075-2.85,5.705,0.845,8.812c3.559,2.994,7.377,3.361,8.844,0.844
		c1.561-2.68,1.303-9.8-0.406-11.219C328.505-174.824,327.53-175.06,326.383-175.021z M210.352-174.928
		c-3.333,0.19-6.75,2.987-6.75,6.75c0,3.259,3.124,6.844,5.938,6.844c1.051,0,3.076-1.37,4.5-3.062
		c3.133-3.724,3.271-6.26,0.5-9.031C213.384-174.583,211.867-175.014,210.352-174.928z M150.758-174.271
		c-1.659-0.034-3.114,0.333-3.938,1.156c-1.973,1.973-1.389,5.704,1.344,8.438c2.07,2.07,3.182,2.465,5.75,1.969
		c1.751-0.338,3.975-1.56,4.938-2.719c2.001-2.41,1.944-2.209,1.125-4.344C159.012-172.287,154.409-174.196,150.758-174.271z
		 M419.477-174.24c-3.649,0.074-8.286,1.928-9.25,4.438c-0.869,2.268,1.048,5.408,4,6.531c3.808,1.447,5.261,1.178,7.938-1.5
		c2.635-2.635,3.196-6.398,1.25-8.344C422.592-173.937,421.136-174.274,419.477-174.24z M266.29-173.771
		c-2.891-0.306-3.536,4.516-0.688,9.188c1.882,3.086,3.876,4.061,5.344,2.594c1.771-1.771-0.575-9.864-3.281-11.312
		C267.164-173.571,266.703-173.728,266.29-173.771z M303.946-173.709c-1.898,0.08-4.173,3.008-4.875,6.75
		c-1.184,6.311,2.266,7.783,5.562,2.375c2.34-3.837,2.551-7.037,0.562-8.688C304.823-173.581,304.383-173.728,303.946-173.709z
		 M285.102-172.834c-8.97,0-8.978,0.01-9.281,2.625c-0.494,4.257,2.046,5.875,9.281,5.875c4.536,0,6.84-0.465,8-1.625
		c0.899-0.899,1.48-2.798,1.312-4.25C294.112-172.824,294.072-172.834,285.102-172.834z M176.977-171.928
		c-0.977,0.032-2.097,0.123-3.312,0.25c-7.102,0.742-7.699,1.091-8.625,4.781l-0.719,2.875l4.75-0.656
		c2.606-0.357,6.7-1.521,9.125-2.594C184.678-170.139,183.816-172.152,176.977-171.928z M391.883-171.928
		c-5.553,0.081-5.895,1.994,0.125,4.656c2.426,1.073,6.55,2.236,9.156,2.594l4.75,0.656l-0.719-2.875
		c-0.927-3.69-1.556-4.039-8.656-4.781C394.715-171.868,393.165-171.946,391.883-171.928z M221.727-169.303
		c-1.254,0.067-8.935,11.517-8.219,12.25c1.213,1.243,11.627,3.132,13.438,2.438c0.917-0.352,1.656-1.153,1.656-1.781
		C228.602-157.906,222.512-169.345,221.727-169.303z M348.508-169.303c-1.27-0.065-7.051,12.138-6.469,13.656
		c0.48,1.255,1.598,1.478,5.344,1.031c2.603-0.31,6.022-1.057,7.594-1.656l2.845-1.094l-2.406-3.219
		c-1.33-1.779-3.309-4.474-4.375-5.969C349.974-168.049,348.844-169.286,348.508-169.303z M257.54-165.709
		c-1.519,0.129-3.701,1.449-7.219,4c-3.684,2.672-6.719,5.408-6.719,6.062c0,1.881,2.96,4.312,5.219,4.312
		c2.651,0,8.205-3.429,10.719-6.625c1.384-1.76,1.715-3.115,1.156-4.625C259.888-164.767,259.058-165.838,257.54-165.709z
		 M312.258-165.709c-1.197,0.051-1.932,0.922-2.562,2.594c-1.14,3.018,0.14,5.201,5.125,8.812c4.562,3.305,7.858,3.765,10.219,1.406
		c2.563-2.564,1.919-3.709-5.031-8.75C316.133-164.456,313.798-165.775,312.258-165.709z M185.008-162.928
		c-0.852,0.047-1.697,0.188-2.5,0.469c-1.761,0.614-4.42,1.125-5.906,1.125c-7.443,0-11.273,3.619-12.594,11.875
		c-0.626,3.915-0.451,4.258,4.469,9c2.818,2.716,5.125,5.415,5.125,6c0,3.103,10.871,5.337,15.062,3.094
		c2.368-1.268,4.938-6.044,4.938-9.188c0-1.286,0.9-4.124,2-6.281s2-4.739,2-5.75C197.602-158.215,190.973-163.257,185.008-162.928z
		 M383.946-162.928c-5.595,0.383-11.345,5.115-11.345,10.344c0,1.011,0.9,3.592,2,5.75c1.101,2.158,2,4.995,2,6.281
		c0,3.144,2.602,7.92,4.97,9.188c4.19,2.243,15.03,0.009,15.03-3.094c0-0.585,2.309-3.284,5.125-6c4.921-4.742,5.096-5.085,4.47-9
		c-1.32-8.256-5.151-11.875-12.595-11.875c-1.485,0-4.146-0.511-5.905-1.125C386.491-162.879,385.237-163.016,383.946-162.928z
		 M285.04-161.334c-8.49,0-9.373,3.171-2.969,10.781c3.089,3.671,3.555,3.544,7.594-2.031
		C294.361-159.067,293.176-161.334,285.04-161.334z M179.915-158.271c2.844-0.152,6.146,2.42,9.656,7.719
		c1.667,2.518,3.031,5.155,3.031,5.875c0,2.94-11.741,7.016-16.938,5.875c-3.772-0.829-4.624-4.336-2.656-10.875
		C174.687-155.253,177.071-158.12,179.915-158.271z M390.446-158.24c2.863,0.104,5.067,2.881,6.75,8.469
		c1.461,4.853,1.527,5.678,0.75,8.625c-0.553,2.088-5.275,3.213-9.595,2.281c-4.696-1.014-10.75-4.289-10.75-5.812
		c0-2.056,5.81-10.299,8.5-12.062C387.705-157.79,389.144-158.288,390.446-158.24z M272.477-156.334
		c-3.279,0-5.15,8.694-2.812,13.062c1.506,2.814,7.359,2.642,9.406-0.281c1.92-2.741,1.924-3.15,0.062-6.75
		C277.736-153.005,274.072-156.334,272.477-156.334z M297.665-156.334c-1.717,0-5.843,4.1-7.031,6.969
		c-1.062,2.564-1.016,3.409,0.375,5.531c2.019,3.081,7.905,3.542,9.531,0.75C302.991-147.293,301.024-156.334,297.665-156.334z
		 M263.508-155.334c-2.943,0-10.906,6.344-10.906,8.688c0,1.654,7.157,5.312,10.375,5.312c1.351,0,2.691-0.562,2.969-1.25
		C267.25-145.815,265.433-155.334,263.508-155.334z M307.258-155.084c-1.662,0.02-2.464,1.654-3.188,5.938
		c-1.329,7.866,1.82,9.778,9.594,5.812c2.178-1.111,3.938-2.649,3.938-3.406c0-1.708-6.103-7.154-9.062-8.094
		C308.053-154.988,307.641-155.089,307.258-155.084z M180.54-154.49c-1.497-0.059-2.903,0.405-3.812,1.5
		c-1.79,2.157-2.419,7.229-1.188,9.531c1.546,2.889,8.223,2.965,11.062,0.125c2.388-2.388,2.478-3.233,0.562-6.938
		C185.835-152.842,183.035-154.393,180.54-154.49z M389.383-154.303c-1.065,0.012-2.188,0.198-3.219,0.594
		c-1.616,0.62-4.562,5.357-4.562,7.344c0,4.338,10.675,7.035,12.97,3.281c1.252-2.048,0.652-7.814-1.031-9.844
		C392.772-153.852,391.16-154.323,389.383-154.303z M90.352-154.084v12.156c0.753-0.243,1.46-0.568,2.031-0.969
		C96.388-145.702,94.689-152.76,90.352-154.084z M479.883-154.053c-4.388,1.407-6.121,8.312-2.062,11.156
		c0.577,0.404,1.301,0.725,2.062,0.969V-154.053z M425.133-153.334c-1.984,0.014-4.014,0.815-5.438,2.625
		c-5.517,7.012,0.642,12.293,8.655,7.406c2.071-1.263,3.25-2.794,3.25-4.188C431.602-151.146,428.442-153.357,425.133-153.334z
		 M145.133-153.303c-3.313-0.044-6.531,2.11-6.531,5.656c0,4.371,9.692,8.245,12.812,5.125c1.81-1.81,1.443-5.241-0.875-8.188
		C149.145-152.482,147.121-153.276,145.133-153.303z M218.04-152.334c-3.446,0-4.68,0.51-6.344,2.625
		c-2.414,3.068-2.669,5.668-0.688,7.312c1.078,0.895,2.978,0.788,8.125-0.406c3.69-0.856,7.107-1.793,7.594-2.094
		C230.255-147.077,224.115-152.334,218.04-152.334z M352.102-152.334c-5.016,0-10.254,3.552-9.219,6.25
		c0.85,2.211,14.428,5.247,16.344,3.656c1.974-1.637,1.724-4.218-0.688-7.281C356.866-151.837,355.633-152.334,352.102-152.334z
		 M236.477-151.334c-3.838,0-3.734,2.372,0.25,6.094c2.976,2.78,5.798,3.67,7.219,2.25
		C246.58-145.624,241.471-151.334,236.477-151.334z M333.758-151.334c-3.838,0-8.331,3.614-7.938,6.375
		c0.467,3.272,3.998,3.17,7.625-0.219C337.479-148.945,337.612-151.334,333.758-151.334z M285.102-143.334c-0.124,0-1.924,1.35-4,3
		c-3.022,2.402-4.744,3-8.625,3h-4.844l-1.156,4.594c-0.914,3.631-1.934,5.064-5,7c-4.191,2.646-4.349,3.168-2.438,8.406
		c1.048,2.872,1.048,4.195-0.062,7.375c-1.849,5.296-1.862,5.277,2.5,8.031c3.066,1.936,4.086,3.4,5,7.031l1.156,4.562h4.844
		c3.881,0,5.603,0.598,8.625,3c2.076,1.65,3.876,3,4,3s1.924-1.35,4-3c3.021-2.402,4.744-3,8.625-3h4.844l1.156-4.562
		c0.914-3.631,1.965-5.096,5.031-7.031c4.362-2.754,4.351-2.735,2.5-8.031c-1.109-3.18-1.109-4.503-0.062-7.375
		c1.911-5.238,1.754-5.76-2.438-8.406c-3.066-1.936-4.117-3.369-5.031-7l-1.156-4.594h-4.844c-3.881,0-5.604-0.598-8.625-3
		C287.026-141.984,285.226-143.334,285.102-143.334z M158.415-143.24c-0.427,0.058-0.767,0.513-1.375,1.344
		c-0.781,1.067-1.438,2.48-1.438,3.125c0,1.927,9.763,10.438,11.969,10.438c1.124,0,2.031-0.357,2.031-0.812
		c0-1.381-5.688-9.578-8.5-12.219C159.65-142.729,158.963-143.314,158.415-143.24z M411.602-143.24
		c-0.518,0.068-1.179,0.663-2.469,1.875c-2.812,2.641-8.531,10.838-8.531,12.219c0,2.27,4.648,0.317,9.062-3.812
		c5.34-4.995,5.71-5.958,3.531-8.938C412.501-142.847,412.12-143.309,411.602-143.24z M138.571-141.178
		c-0.567-0.007-1.089,0.062-1.5,0.219c-1.752,0.672-1.916,5.96-0.344,10.469c1.499,4.299,4.576,4.143,9.219-0.5
		c2.017-2.017,3.656-3.799,3.656-3.938C149.602-137.414,142.542-141.13,138.571-141.178z M252.602-141.146
		c-4.584,0.106-5.242,4.308-0.875,9.281c3.387,3.857,6.226,4.442,9.062,1.875c4.34-3.928,1.305-9.483-5.969-10.938
		C254.01-141.09,253.257-141.162,252.602-141.146z M317.571-141.146c-0.664-0.019-1.396,0.064-2.22,0.219
		c-7.069,1.326-9.991,6.475-6.094,10.781c2.56,2.827,5.793,2.219,9.25-1.719C322.899-136.865,322.219-141.016,317.571-141.146z
		 M347.727-141.115c-3.651,0.021-5.434,2.446-4.75,6.656c1.248,7.691,7.739,9.269,11.656,2.844c1.081-1.773,1.967-3.71,1.969-4.312
		c0.007-1.918-3.621-4.453-7.188-5.031C348.819-141.056,348.249-141.118,347.727-141.115z M107.821-141.084
		c-0.688-0.004-1.458,0.101-2.281,0.281c-3.707,0.813-5.109,3.401-4.719,8.656c0.548,7.372,4.819,7.732,9.531,0.812
		C114.02-136.719,112.637-141.052,107.821-141.084z M221.821-141.084c-0.342,0.017-0.695,0.065-1.062,0.125
		c-1.934,0.314-4.427,1.458-5.531,2.562c-1.928,1.928-1.936,2.158-0.312,5.562c3.053,6.402,8.523,7.073,11.438,1.406
		C229.168-136.903,226.949-141.337,221.821-141.084z M432.04-141.084c-3.193,0.103-10.252,2.813-10.875,4.438
		c-0.336,0.876,0.212,2.55,1.188,3.688c5.453,6.355,9.447,7.382,11.095,2.875c1.56-4.271,1.415-10.224-0.281-10.875
		C432.896-141.062,432.496-141.099,432.04-141.084z M462.04-140.99c-0.867,0.059-1.701,0.265-2.375,0.625
		c-3.343,1.789-2.405,6.67,2.25,11.781c2.269,2.491,4.671,2.892,6.5,1.062c1.452-1.452,1.593-8.213,0.219-10.781
		C467.692-140.062,464.641-141.167,462.04-140.99z M127.477-140.834c-0.738,0.032-1.539,0.194-2.344,0.5
		c-4.333,1.647-3.945,6.144,1.094,12.75c2.641,3.462,4.248,4.002,6.188,2.062c1.513-1.513,1.544-8.935,0.062-12.188
		C131.503-139.847,129.692-140.931,127.477-140.834z M441.852-140.834c-0.357,0.022-0.729,0.069-1.062,0.156
		c-2.697,0.705-4.387,5.105-4,10.375c0.603,8.215,5.366,7.544,9.781-1.375c2.382-4.812,2.2-4.085,1.405-6.156
		C447.281-139.649,444.363-140.993,441.852-140.834z M234.227-140.365c-1.883-0.041-3.513,2.373-5.219,7.531
		c-2.853,8.629-2.873,9.182-0.469,10.469c3.294,1.763,6.664-0.317,8.375-5.156c2.021-5.716,2.044-9.3,0.062-11.281
		C235.97-139.81,235.083-140.347,234.227-140.365z M336.008-140.365c-0.854,0.019-1.773,0.556-2.781,1.562
		c-2.051,2.051-2.046,4.871,0,10.875c1.799,5.276,5.016,7.395,8.438,5.562c2.404-1.287,2.385-1.839-0.469-10.469
		C339.491-137.993,337.891-140.406,336.008-140.365z M208.602-134.334c-2.33,0-4,2.859-4,6.875c0,5.103,8.252,9.664,12.938,7.156
		c1.132-0.606,2.062-1.488,2.062-1.969C219.602-124.238,210.4-134.334,208.602-134.334z M361.633-134.334
		c-1.798,0-11.031,10.096-11.031,12.062c0,1.644,4.136,3.074,7.031,2.438c1.592-0.35,4.037-1.523,5.438-2.625
		C367.12-125.645,366.068-134.334,361.633-134.334z M244.383-134.24c-1.424,0.128-2.618,1.595-3.875,4.438
		c-1.104,2.497-1.892,5.534-1.719,6.75c0.27,1.895,0.884,2.209,4.312,2.062c2.2-0.094,5.237-0.67,6.75-1.25
		c3.587-1.375,3.506-3.742-0.312-8.375C247.444-133.157,245.807-134.368,244.383-134.24z M325.79-134.24
		c-1.422-0.079-3.051,1.149-5.125,3.656c-4.377,5.29-3.752,7.416,2.656,9.125c2.854,0.762,5.893,1.11,6.75,0.781
		c2.084-0.799,1.909-4.236-0.438-9.406C328.413-132.774,327.211-134.161,325.79-134.24z M117.133-134.146
		c-1.137-0.012-2.288,0.926-3.875,2.812c-3.235,3.845-4.114,6.737-2.625,8.531c1.669,2.012,7.684,2.937,10.562,1.625
		c3.307-1.507,3.242-6.024-0.156-10.062C119.423-133.161,118.271-134.134,117.133-134.146z M453.321-134.021
		c-1.136-0.034-2.267,0.821-3.75,2.469c-3.604,4-3.973,8.622-0.812,10.312c2.398,1.284,8.289,0.626,10.438-1.156
		c1.952-1.62,1.769-3.101-0.845-6.938C456.212-132.476,454.78-133.978,453.321-134.021z M285.102-133.834
		c6.355,0,7.441,0.318,11.688,3.375c3.242,2.334,5.312,4.847,6.75,8.188c1.141,2.65,2.068,6.527,2.062,8.625
		c-0.016,5.826-4.098,13.315-9.156,16.812c-3.811,2.635-5.197,3-11.344,3c-6.355,0-7.41-0.318-11.656-3.375
		c-11.554-8.318-11.554-24.932,0-33.25C277.692-133.516,278.747-133.834,285.102-133.834z M153.446-132.334
		c-1.027,0-3.916,1.892-6.406,4.188c-3.471,3.2-4.449,4.774-4.219,6.75c0.209,1.797,0.989,2.651,2.562,2.875
		c2.434,0.346,12.812-5.094,13.531-7.094C159.752-127.946,156.182-132.334,153.446-132.334z M416.477-132.146
		c-1.34,0.017-2.52,0.811-3.75,2.375c-2.674,3.4-1.906,4.843,4.375,8.438c5.106,2.921,8.468,3.721,9.845,2.344
		c1.813-1.813,0.335-5.396-3.812-9.219C420.217-130.896,418.2-132.168,416.477-132.146z M284.852-130.146
		c-2.621,0.042-5.269,0.706-7.719,2.094c-7.899,4.474-10.659,14.379-6.219,22.219c2.77,4.891,8.767,8.469,14.188,8.469
		c5.42,0,11.449-3.578,14.219-8.469c1.3-2.295,2.25-5.693,2.25-8s-0.95-5.674-2.25-7.969
		C296.245-127.233,290.619-130.239,284.852-130.146z M90.352-124.428v8.688c0.094-0.008,0.188-0.024,0.25-0.062
		c0.561-0.347,1-2.272,1-4.25C91.602-121.825,91.322-123.035,90.352-124.428z M479.883-124.428
		c-0.971,1.393-1.281,2.603-1.281,4.375c0,2.499,0.384,3.881,1.281,4.156V-124.428z M285.446-122.99
		c3.133,0.103,6.166,1.747,7.719,4.75c1.775,3.434,1.795,5.686,0.062,8.812c-1.474,2.658-5.154,5.008-7.906,5.062
		c-8.015,0.158-12.411-10.276-6.719-15.969C280.492-122.224,283.009-123.07,285.446-122.99z M168.946-122.303
		c-2.863,0.053-3.844,2.174-3.844,8.469c0,4.754,0.415,6.846,1.5,7.531c2.267,1.433,2.921,1.235,6.094-1.938
		c1.762-1.762,2.906-3.994,2.906-5.594C175.602-116.336,170.886-122.339,168.946-122.303z M401.508-122.209
		c-1.003,0.007-2.001,0.845-3.969,2.812c-3.252,3.251-3.709,6.511-1.375,9.844c3.062,4.373,7.744,5.09,8.844,1.375
		c0.966-3.263-0.072-12.315-1.5-13.219C402.696-121.911,402.11-122.213,401.508-122.209z M98.477-121.303
		c-0.157,0.017-0.263,0.044-0.344,0.125c-1.115,1.114-1.761,7.727-1.094,11.281c0.688,3.666,2.236,4.482,4.406,2.312
		c1.88-1.88,1.105-11.753-1.031-13.094C99.712-121.118,98.948-121.352,98.477-121.303z M201.696-121.303
		c-0.773,0.246-1.094,2.46-1.094,7.469c0,4.125,0.392,7.5,0.875,7.5c1.345,0,8.161-2.961,10.844-4.719
		c1.315-0.861,2.26-2.26,2.094-3.125c-0.296-1.539-10.09-7.092-12.562-7.125C201.796-121.304,201.748-121.319,201.696-121.303z
		 M368.352-121.303c-0.688,0.009-3.725,1.258-6.75,2.781c-3.808,1.917-5.5,3.353-5.5,4.688s1.692,2.771,5.5,4.688
		c3.025,1.523,6.062,2.803,6.75,2.812c0.892,0.012,1.25-2.158,1.25-7.5S369.243-121.314,368.352-121.303z M471.227-121.24
		c-0.438,0.064-0.938,0.269-1.405,0.562c-2.086,1.309-2.908,10.789-1.125,12.938c1.61,1.941,3.666,1.77,4.28-0.344
		c0.696-2.393,0.135-12.085-0.75-12.969C472.03-121.25,471.666-121.304,471.227-121.24z M159.008-120.459
		c-3.146-0.132-7.729,2.026-9.438,5.219c-1.592,2.975,3.637,7.906,8.375,7.906c1.921,0,3.723-0.562,4-1.25
		c0.73-1.809,0.772-8.306,0.062-10.156C161.581-119.853,160.438-120.399,159.008-120.459z M412.008-120.334
		c-3.517,0-4.406,1.287-4.406,6.5c0,5.328,0.849,6.5,4.688,6.5c2.515,0,4.283-0.814,6.438-2.969
		c2.455-2.455,2.812-3.306,1.938-4.938C419.053-118.25,415.529-120.334,412.008-120.334z M192.821-120.303
		c-3.278,0.019-4.555,0.77-6.125,3.75c-3.387,6.43,6.229,12.918,10.375,7c0.856-1.223,1.531-3.15,1.531-4.281
		C198.602-117.181,195.803-120.32,192.821-120.303z M377.415-120.303c-2.982-0.017-5.812,3.122-5.812,6.469
		c0,3.348,2.83,6.518,5.812,6.5c3.17-0.018,4.458-0.781,6-3.5c1.443-2.545,1.465-3.147,0.062-5.812
		C381.963-119.521,380.667-120.284,377.415-120.303z M285.352-120.271c-1.818-0.033-3.692,0.496-4.906,1.594
		c-2.279,2.062-2.384,7.104-0.188,9.531c2.062,2.279,7.104,2.354,9.531,0.156c2.279-2.062,2.354-7.073,0.156-9.5
		C288.915-119.629,287.17-120.238,285.352-120.271z M251.227-119.24c-0.657,0.009-1.475,0.076-2.469,0.188
		c-10.946,1.234-9.285,10.719,1.875,10.719c1.841,0,3.442-0.797,4.438-2.219c1.963-2.802,1.938-3.756-0.094-6.656
		C253.91-118.732,253.199-119.267,251.227-119.24z M320.915-119.24c-2.75-0.065-5.081,0.995-6.219,3.031
		c-1.324,2.37-1.269,2.916,0.344,5.375c1.629,2.484,2.186,2.691,6.375,2.219c3.102-0.35,5.212-1.244,6.406-2.719
		c2.188-2.701,0.961-5.6-2.97-7.094C323.499-118.942,322.165-119.21,320.915-119.24z M435.54-118.303
		c-1.946,0.042-3.938,1.771-3.938,4.469c0,4.203,4.949,6.163,6.938,2.75c1.304-2.238,1.296-2.949,0.031-5.312
		C437.847-117.749,436.708-118.328,435.54-118.303z M134.54-118.271c-1.198,0.073-2.371,0.795-3.062,2.312
		c-2.058,4.517,2.596,8.779,5.938,5.438c0.66-0.66,1.188-2.157,1.188-3.312C138.602-116.707,136.537-118.394,134.54-118.271z
		 M116.04-117.834c-6.75,0-7.783,0.239-8.438,2c-0.409,1.1-0.327,3.078,0.156,4.375c0.835,2.243,1.235,2.331,8.406,1.969
		c5.24-0.265,7.819-0.848,8.469-1.875c1.183-1.871,1.192-3.081,0-4.969C123.926-117.455,121.765-117.834,116.04-117.834z
		 M454.196-117.834c-7.531,0-9.562,0.849-9.562,4c0,2.99,2.149,3.976,9.438,4.344c7.172,0.362,7.57,0.274,8.405-1.969
		c0.482-1.297,0.533-3.275,0.125-4.375C461.948-117.595,460.946-117.834,454.196-117.834z M340.571-117.334
		c-2.674,0.142-4.97,1.406-4.97,3.5c0,3.627,6.761,4.77,10.938,1.844l2.375-1.656l-2.25-1.844
		C344.969-116.863,342.651-117.444,340.571-117.334z M229.477-117.084c-3.45-0.111-7.156,1.444-7.156,3.25
		c0,2.064,4.827,3.801,8.594,3.094c3.043-0.57,3.688-1.107,3.688-3.094c0-1.986-0.645-2.523-3.688-3.094
		C230.444-117.016,229.97-117.068,229.477-117.084z M90.352-111.74v8.531c0.97-1.393,1.25-2.635,1.25-4.406
		C91.602-110.094,91.235-111.449,90.352-111.74z M479.883-111.74c-0.897,0.276-1.281,1.627-1.281,4.125
		c0,1.771,0.312,3.014,1.281,4.406V-111.74z M145.696-109.084c-1.698,0.021-2.657,0.972-2.875,2.844
		c-0.23,1.976,0.748,3.551,4.219,6.75c5.232,4.822,7.62,5.176,10.438,1.594c2.684-3.412,1.938-4.834-4.469-8.5
		C149.813-108.225,147.394-109.105,145.696-109.084z M424.54-109.084c-1.698-0.021-4.148,0.859-7.344,2.688
		c-6.407,3.666-7.152,5.088-4.47,8.5c2.817,3.582,5.236,3.229,10.47-1.594c3.472-3.199,4.447-4.774,4.219-6.75
		C427.197-108.112,426.238-109.062,424.54-109.084z M213.727-107.959c-0.39,0.019-0.763,0.045-1.125,0.125
		c-6.743,1.48-9.85,7.121-6.938,12.562c1.779,3.324,4.619,2.221,9.406-3.656c2.505-3.075,4.531-5.988,4.531-6.469
		C219.602-106.835,216.455-108.088,213.727-107.959z M355.321-107.959c-2.379,0.212-4.72,1.329-4.72,2.562
		c0,0.48,2.058,3.394,4.562,6.469c4.711,5.783,7.564,6.952,9.375,3.844c0.561-0.963,1.015-3.158,1.031-4.906
		c0.035-3.608-3.164-6.795-7.938-7.844C356.909-107.993,356.114-108.029,355.321-107.959z M118.008-107.146
		c-0.83-0.027-1.732,0.033-2.719,0.219c-6.378,1.196-7.046,4.634-2.031,10.594c3.175,3.773,4.549,3.779,7.781-0.062
		C125.657-101.885,123.819-106.955,118.008-107.146z M241.196-107.115c-0.45,0.001-0.817,0.043-1.031,0.125
		c-2.083,0.799-1.909,4.236,0.438,9.406c2.442,5.381,4.82,5.514,8.969,0.5c4.376-5.289,3.752-7.416-2.656-9.125
		C244.773-106.78,242.545-107.119,241.196-107.115z M329.04-107.115c-1.35-0.004-3.577,0.335-5.719,0.906
		c-6.408,1.709-7.033,3.836-2.656,9.125c4.148,5.014,6.526,4.881,8.969-0.5c2.348-5.17,2.521-8.607,0.438-9.406
		C329.856-107.072,329.489-107.114,329.04-107.115z M452.54-107.084c-1.503-0.02-2.882,0.206-3.781,0.688
		c-3.159,1.691-2.792,6.312,0.812,10.312c3.394,3.766,4.979,3.335,8.78-2.25c2.612-3.837,2.797-5.286,0.845-6.906
		C457.853-106.354,455.044-107.051,452.54-107.084z M231.071-105.928c-0.812-0.024-1.675,0.167-2.531,0.625
		c-2.404,1.287-2.384,1.84,0.469,10.469c2.48,7.504,4.747,9.223,7.969,6c2.051-2.051,2.077-4.871,0.031-10.875
		C235.66-103.666,233.507-105.854,231.071-105.928z M339.165-105.928c-2.437,0.073-4.59,2.262-5.938,6.219
		c-2.046,6.004-2.051,8.824,0,10.875c3.157,3.157,5.541,1.494,7.906-5.5c2.828-8.361,2.877-9.713,0.531-10.969
		C340.809-105.761,339.977-105.952,339.165-105.928z M130.04-103.146c-1.812,0.166-4.169,2.627-6.438,7.312
		c-2.289,4.729-1.834,7.252,1.531,8.531c3.099,1.178,6.034,0.209,7.312-2.375c0.588-1.189,0.988-4.369,0.875-7.062
		C133.133-101.2,131.851-103.312,130.04-103.146z M439.758-103.146c-1.886-0.117-3.156,2.084-3.156,6.406
		c0,7.881,3.206,11.419,8.5,9.406c1.259-0.479,2.528-1.465,2.812-2.188c0.756-1.926-0.169-4.799-2.938-9.094
		C443.083-101.553,441.225-103.055,439.758-103.146z M104.54-101.271c-0.569,0.005-1.13,0.213-1.688,0.562
		c-2.066,1.295-2.885,8.312-1.312,11.25c1.303,2.435,6.257,3.625,9,2.156c2.696-1.443,2.627-4.898-0.188-9.031
		C108.061-99.698,106.247-101.286,104.54-101.271z M465.696-101.271c-1.707-0.015-3.554,1.573-5.845,4.938
		c-2.813,4.133-2.884,7.588-0.188,9.031c2.592,1.387,7.619,0.357,8.938-1.844c1.599-2.669,0.771-10.297-1.25-11.562
		C466.794-101.059,466.265-101.267,465.696-101.271z M94.883-101.115c-0.288,0.014-0.594,0.078-0.938,0.188
		c-0.693,0.221-2.074,1.219-3.594,2.469v9.906c0.088,0.029,0.161,0.064,0.25,0.094l7,2.25v5.688
		c-0.019,6.83-0.309,7.336-5.75,10.094l-1.5,0.75v6.875c1.259,2.639,2.25,5.838,2.25,7.375c0,1.639,1.125,5.102,2.5,7.688
		c1.375,2.586,2.523,6.107,2.531,7.812c0.024,4.919,0.911,5.625,5.781,4.531c2.732-0.614,4.937-0.619,6.094,0
		c2.088,1.117,7.094,7.459,7.094,8.969c0,0.521-1.552,3.175-3.531,6.062h8.344c-0.122-0.195-0.219-0.397-0.344-0.594l-3.531-5.5
		l3.625-4.938c2.926-3.986,4.502-5.158,8.094-6.062c3.212-0.809,4.821-1.896,5.844-3.875c0.779-1.508,3.074-4.066,5.094-5.688
		c3.652-2.93,3.688-2.972,2.344-6.688c-1.241-3.434-1.171-4.092,0.969-8.125c3.931-7.41,4.646-7.748,11.969-5.469
		c3.466,1.079,6.718,1.969,7.219,1.969c1.321,0,1.12-2.918-0.594-8.688c-2.417-8.141-3.661-8.397-8.688-1.812
		c-4.747,6.218-6.003,6.492-14,3.094c-2.944-1.251-3.954-2.416-4.906-5.594c-1.009-3.367-1.637-4-3.875-4
		c-1.463,0-5.034-0.7-7.938-1.562c-4.772-1.417-5.581-1.432-8.531-0.031c-2.925,1.388-3.864,1.408-9.031,0.062
		c-3.172-0.826-6.177-1.735-6.656-2.031s-0.867-3.345-0.875-6.75C97.586-98.887,96.896-101.213,94.883-101.115z M474.946-101.115
		c-1.697,0.239-2.298,2.674-2.312,8.469c-0.009,3.405-0.396,6.454-0.875,6.75c-0.479,0.296-3.483,1.205-6.656,2.031
		c-5.168,1.346-6.105,1.325-9.03-0.062c-2.951-1.4-3.76-1.386-8.531,0.031c-2.903,0.862-6.475,1.562-7.938,1.562
		c-2.236,0-2.865,0.633-3.875,4c-0.951,3.178-1.963,4.343-4.905,5.594c-8.023,3.41-9.254,3.119-14.095-3.219l-4.405-5.75
		l-1.781,2.219c-1.915,2.364-4.646,12.76-3.625,13.781c0.336,0.336,3.648-0.332,7.375-1.469c7.843-2.395,8.48-2.115,12.438,5.344
		c2.141,4.033,2.211,4.691,0.97,8.125c-1.345,3.716-1.31,3.758,2.344,6.688c2.021,1.621,4.283,4.18,5.062,5.688
		c1.023,1.979,2.663,3.066,5.875,3.875c3.593,0.904,5.168,2.076,8.095,6.062l3.594,4.938l-3.531,5.5
		c-0.126,0.197-0.221,0.396-0.344,0.594h8.375c-1.979-2.888-3.562-5.542-3.562-6.062c0-1.51,5.037-7.852,7.125-8.969
		c1.156-0.619,3.33-0.614,6.062,0c4.87,1.094,5.788,0.388,5.812-4.531c0.01-1.705,1.125-5.227,2.5-7.812
		c1.375-2.585,2.5-6.049,2.5-7.688c0-1.543,1.016-4.762,2.281-7.406v-6.844l-1.5-0.75c-5.44-2.758-5.73-3.264-5.75-10.094
		l-0.031-5.688l7-2.25c0.101-0.032,0.184-0.062,0.281-0.094v-9.906c-1.52-1.25-2.899-2.248-3.594-2.469
		C475.774-101.092,475.337-101.17,474.946-101.115z M430.258-100.303c-3.603,0.056-10.092,6.681-9.094,9.281
		c0.712,1.856,9.852,5.137,12,4.312c1.752-0.672,1.916-5.96,0.344-10.469C432.728-99.416,431.788-100.326,430.258-100.303z
		 M140.165-100.271c-1.541-0.086-2.688,0.944-3.438,3.094c-1.572,4.509-1.409,9.797,0.344,10.469
		c1.887,0.725,11.272-2.379,11.906-3.938c0.836-2.055,0.72-2.249-3.031-6C143.625-98.968,141.706-100.186,140.165-100.271z
		 M221.727-100.115c-2.304-0.123-4.787,1.674-6.594,5.031l-2,3.719l2.031,2.031c2.936,2.936,8.618,3.695,10.875,1.438
		c2.244-2.244,1.522-7.916-1.375-10.812C223.786-99.588,222.774-100.06,221.727-100.115z M348.665-100.053
		c-2.631,0.125-4.985,2.549-5.688,6.875c-0.78,4.812,1.667,7.274,6.438,6.5c1.897-0.309,4.281-1.316,5.312-2.25
		c2.358-2.135,2.349-3.12-0.094-7.125C352.919-98.863,350.71-100.15,348.665-100.053z M401.821-99.459
		c-0.756-0.053-1.22,0.26-1.22,0.969c0,1.381,5.721,9.547,8.531,12.188c2.581,2.424,2.673,2.432,4.062,0.531
		c2.179-2.979,1.809-3.911-3.531-8.906C406.629-97.517,403.485-99.344,401.821-99.459z M167.571-99.334
		c-2.206,0-11.969,8.51-11.969,10.438c0,0.645,0.657,2.058,1.438,3.125c1.389,1.9,1.482,1.893,4.062-0.531
		c1.45-1.362,3.943-4.493,5.562-6.938C170.152-98.506,170.281-99.334,167.571-99.334z M257.071-99.334
		c-2.613,0-8.469,6.15-8.469,8.906c0,4.348,6.2,5.179,11.719,1.562C264.629-91.688,262.256-99.334,257.071-99.334z M313.352-99.334
		c-5.28,0-7.806,7.443-3.53,10.438c3.186,2.231,8.526,3.045,10.312,1.562c0.818-0.68,1.469-2.08,1.469-3.094
		C321.602-93.065,315.801-99.334,313.352-99.334z M183.321-97.209c-4.571,0.137-9.719,1.867-9.719,4c0,0.586-2.307,3.284-5.125,6
		c-4.92,4.742-5.095,5.085-4.469,9c1.32,8.256,5.151,11.875,12.594,11.875c1.486,0,4.146,0.512,5.906,1.125
		c4.271,1.489,11.529-1.166,13.594-4.969c1.979-3.645,1.846-6.056-0.5-10.656c-1.1-2.158-2-4.964-2-6.25
		c0-3.144-2.569-7.951-4.938-9.219C187.354-97.004,185.399-97.271,183.321-97.209z M385.665-97.209
		c-1.607,0.059-3.046,0.346-4.094,0.906c-2.368,1.268-4.97,6.075-4.97,9.219c0,1.286-0.899,4.092-2,6.25c-1.1,2.158-2,4.77-2,5.781
		c0,6.746,7.896,11.584,15.906,9.781c2.528-0.568,6.222-1.271,8.188-1.562c4.839-0.719,6.727-2.283,8.405-7
		c2.36-6.627,1.933-8.265-3.5-13.5c-2.75-2.65-5-5.289-5-5.875C396.602-95.536,390.489-97.384,385.665-97.209z M178.571-89.115
		c3.049,0.047,6.556,1.052,10.281,2.938c2.062,1.044,3.75,2.468,3.75,3.188c0,2.056-5.809,10.299-8.5,12.062
		c-5.146,3.371-8.622,1.152-11.094-7.062c-1.968-6.539-1.116-10.016,2.656-10.844C176.563-89.031,177.554-89.131,178.571-89.115z
		 M391.29-88.771c2.841-0.039,5.402,0.217,5.719,0.531c1.357,1.354,1.44,6.743,0.156,10.75c-2.485,7.753-6.043,9.852-11.062,6.562
		c-2.69-1.764-8.5-10.007-8.5-12.062C377.602-85.269,385.717-88.693,391.29-88.771z M180.602-86.428
		c-2.218,0.024-4.29,0.774-5.062,2.219c-1.232,2.302-0.603,7.374,1.188,9.531c2.449,2.951,8.325,1.221,10.719-3.156
		c1.583-2.894,1.408-4.248-0.844-6.5C185.182-85.754,182.82-86.452,180.602-86.428z M295.977-86.428
		c-1.928,0.115-3.919,0.992-4.969,2.594c-1.391,2.122-1.438,2.967-0.375,5.531c1.188,2.869,5.314,6.969,7.031,6.969
		c0.437,0,1.511-0.698,2.375-1.562c1.792-1.792,2.103-8.563,0.531-11.5C299.772-85.889,297.905-86.543,295.977-86.428z
		 M273.446-86.396c-1.641,0.105-3.123,0.77-3.781,2c-2.249,4.201-0.492,13.062,2.594,13.062c1.638,0,4.733-2.569,6.406-5.312
		c2.351-3.855,2.404-4.617,0.406-7.469C277.919-85.76,275.555-86.533,273.446-86.396z M389.571-86.396
		c-2.22,0.014-4.604,0.697-5.97,2.062c-2.399,2.4-2.442,3.214-0.469,7.031c2.5,4.834,8.947,5.396,11.188,0.969
		c1.541-3.047,1.613-5.514,0.25-8.062C393.847-85.749,391.79-86.41,389.571-86.396z M147.665-86.334
		c-3.817,0.006-9.062,3.566-9.062,6.156c0,5.848,8.141,8.045,11.938,3.219C154.207-81.621,152.763-86.342,147.665-86.334z
		 M262.977-86.334c-3.199,0-10.375,3.695-10.375,5.344c0,2.352,7.946,8.656,10.906,8.656c0.57,0,1.484-1.463,2-3.25
		C267.513-82.527,266.615-86.334,262.977-86.334z M307.227-86.334c-2.998,0-4.043,2.559-3.156,7.812
		c1.232,7.295,3.54,7.756,10.094,2c1.889-1.658,3.438-3.618,3.438-4.375C317.602-82.621,310.536-86.334,307.227-86.334z
		 M422.852-86.24c-4.859-0.256-7.293,4.022-3.155,9.281c2.433,3.093,7.241,3.549,10.094,0.969c2.896-2.62,2.29-6.07-1.438-8.344
		C426.348-85.556,424.472-86.154,422.852-86.24z M212.79-85.865c-0.803,0.037-1.332,0.247-1.75,0.594
		c-2.005,1.664-1.767,4.232,0.656,7.312c2.702,3.435,9.312,3.703,13.344,0.531c4.305-3.386,3.011-5.17-5.25-7.219
		C216.228-85.53,214.128-85.926,212.79-85.865z M479.883-85.74c-0.765,0.244-1.482,0.563-2.062,0.969
		c-4.007,2.807-2.278,9.898,2.062,11.219V-85.74z M90.352-85.709v12.094c0.847-0.233,1.667-0.678,2.438-1.375
		c2.627-2.378,2.396-7.818-0.406-9.781C91.812-85.172,91.104-85.467,90.352-85.709z M357.071-85.678
		c-4.413-0.036-13.498,2.297-14.188,4.094c-1.035,2.697,4.203,6.25,9.219,6.25c3.531,0,4.765-0.496,6.438-2.625
		c2.41-3.063,2.66-5.645,0.688-7.281C358.868-85.539,358.089-85.67,357.071-85.678z M241.54-85.115
		c-2.656,0.286-7.938,4.914-7.938,7.188c0,2.354,5.189,2.023,8.438-0.531c3.19-2.51,3.164-6.199-0.031-6.656
		C241.856-85.137,241.717-85.135,241.54-85.115z M328.446-85.084c-1.4-0.04-2.393,0.739-2.625,2.375
		c-0.395,2.761,4.1,6.375,7.938,6.375c3.854,0,3.722-2.389-0.312-6.156C331.632-84.185,329.846-85.044,328.446-85.084z
		 M113.571-80.521l5.25,1.25c6.272,1.505,13.17,4.447,14.5,6.188c0.53,0.693,1.933,4.307,3.125,8.031
		c1.192,3.724,2.142,7.324,2.125,8c-0.049,1.955-8.998,14.695-11.344,16.156c-1.171,0.729-5.625,1.603-9.906,1.938l-7.781,0.625
		l-4.406-4.094c-6.591-6.076-8.94-11.578-8.094-19.062c1.029-9.095,1.805-10.303,9.5-14.875L113.571-80.521z M456.633-80.521
		l7.062,4.156c4.188,2.488,7.392,5.158,7.938,6.594c0.505,1.326,1.176,5.244,1.5,8.688c0.721,7.641-1.381,12.529-8.062,18.688
		l-4.406,4.062l-7.781-0.625c-4.28-0.335-8.729-1.204-9.906-1.938c-2.273-1.416-11.375-14.435-11.375-16.281
		c0-1.774,4.264-14.532,5.312-15.906c1.33-1.74,8.228-4.683,14.5-6.188L456.633-80.521z M285.165-79.615
		c-0.867,0.014-1.742,0.896-3.094,2.5c-6.404,7.61-5.521,10.781,2.969,10.781c2.848,0,5.715-0.527,6.375-1.188
		c1.793-1.793,1.479-3.106-1.75-7.562C287.393-78.22,286.28-79.634,285.165-79.615z M248.852-76.24
		c-1.42-0.047-2.624,0.438-3.656,1.469c-2.564,2.564-1.919,3.74,5.031,8.781c6.888,4.995,8.838,5.26,10.281,1.438
		c1.139-3.018-0.108-5.201-5.094-8.812C252.849-75.225,250.678-76.18,248.852-76.24z M321.383-76.24
		c-1.826,0.061-3.996,1.016-6.562,2.875c-4.984,3.611-6.265,5.795-5.125,8.812c1.442,3.822,3.425,3.558,10.312-1.438
		c6.95-5.041,7.596-6.217,5.031-8.781C324.007-75.804,322.803-76.287,321.383-76.24z M113.946-75.115
		c-2.01-0.062-3.288,0.529-6.094,1.969c-3.773,1.936-5.039,3.246-6.156,6.438c-1.276,3.646-1.184,4.654,0.781,11.125
		c2.871,9.453,6.513,13.25,12.75,13.25c2.46,0,5.702-0.627,7.188-1.406c3.02-1.584,9.729-9.3,11.156-12.812
		c1.875-4.615-1.245-12.826-5.75-15.156c-1.51-0.781-5.535-1.98-8.969-2.656C116.636-74.801,115.151-75.078,113.946-75.115z
		 M456.133-75.084c-1.204,0.042-2.659,0.326-4.812,0.75c-7.846,1.543-11.33,3.341-13.062,6.781
		c-3.566,7.082-2.96,10.571,3.094,17.875c4.655,5.616,7.885,7.344,13.625,7.344c5.962,0,9.875-3.832,12.562-12.312
		c2.388-7.534,2.459-8.824,0.688-13.062c-0.98-2.35-2.762-3.996-6.062-5.594C459.451-74.617,458.14-75.153,456.133-75.084z
		 M345.133-73.334c-1.424,0-2.818,0.642-3.125,1.438c-0.545,1.42,5.303,13.596,6.5,13.531c0.336-0.018,2.492-2.611,4.781-5.75
		c2.289-3.139,3.967-5.994,3.75-6.344C356.49-71.35,348.257-73.334,345.133-73.334z M225.883-73.178
		c-3.225-0.086-11.313,1.506-12.375,2.594c-0.713,0.73,6.969,12.151,8.219,12.219c0.332,0.018,2.003-2.557,3.719-5.719
		c3.582-6.602,3.822-8.047,1.5-8.938C226.72-73.108,226.344-73.166,225.883-73.178z M118.415-69.334
		c2.053,0,7.194,5.229,7.219,7.344c0.007,0.646,0.201,2.057,0.438,3.156c0.509,2.361-0.158,4.349-2.25,6.75
		c-3.333,3.825-15.166,0.888-16.469-4.094C106.092-60.994,113.099-69.334,118.415-69.334z M451.696-69.209
		c2.167-0.097,4.928,1.146,7.188,3.406c3.236,3.236,4.709,7.341,3.656,10.188c-1.864,5.039-12.903,7.193-16.5,3.219
		c-3.594-3.971-1.546-12.93,3.719-16.25C450.306-68.992,450.973-69.177,451.696-69.209z M234.946-69.146
		c-3.912,0.224-9.083,7.625-7.938,12.188c0.821,3.272,6.116,6.293,8.125,4.625c0.754-0.625,1.531-2.566,1.75-4.312
		c0.968-7.727,0.719-11.736-0.781-12.312C235.733-69.101,235.351-69.17,234.946-69.146z M335.29-69.115
		c-0.471-0.016-0.958,0.047-1.406,0.219c-1.308,0.502-1.437,1.803-0.875,7.844c0.824,8.874,2.125,10.558,6.406,8.344
		c1.668-0.863,3.25-2.145,3.531-2.844C344.978-60.604,339.833-68.961,335.29-69.115z M300.602-66.396
		c-1.412,0.123-2.197,2.138-1.531,5.688c0.863,4.605,4.135,7.964,6.125,6.312c1.988-1.65,1.777-4.85-0.562-8.688
		C303.19-65.45,301.7-66.492,300.602-66.396z M117.665-66.334c-2.446,0-6.049,2.92-7.125,5.75c-2.08,5.471,5.379,10.25,10.625,6.812
		c1.754-1.149,2.438-2.494,2.438-4.75C123.602-61.975,120.302-66.334,117.665-66.334z M209.54-66.334
		c-2.814,0-5.938,3.585-5.938,6.844c0,5.473,7.24,8.947,10.938,5.25c1.147-1.147,2.062-2.942,2.062-4
		C216.602-60.894,211.868-66.334,209.54-66.334z M360.696-66.334c-2.328,0-7.095,5.44-7.095,8.094c0,1.058,0.946,2.853,2.095,4
		c2.32,2.321,6.041,1.995,9.155-0.812C368.524-58.362,365.59-66.334,360.696-66.334z M243.696-66.24
		c-1.322,0.057-2.399,0.664-3.031,1.844c-1.543,2.884-1.282,9.635,0.438,11.062c1.674,1.39,5.733,0.682,9.25-1.594
		c3.208-2.074,2.881-5.705-0.812-8.812C247.485-65.469,245.396-66.312,243.696-66.24z M325.977-66.24
		c-1.585,0.117-3.454,0.963-5.28,2.5c-3.693,3.107-4.053,6.738-0.845,8.812c3.519,2.275,7.607,2.983,9.281,1.594
		c1.72-1.428,1.98-8.179,0.438-11.062C328.848-65.746,327.562-66.357,325.977-66.24z M452.883-66.209
		c-1.257-0.012-2.497,0.68-3.969,2.062c-3.227,3.031-3.143,8.214,0.156,10.375c3.091,2.025,7.938,1.145,10.03-1.844
		c1.845-2.633,1.132-5.509-2.125-8.469C455.425-65.494,454.14-66.197,452.883-66.209z M269.04-66.084
		c-0.99,0.093-2.21,0.977-3.406,2.938c-2.259,3.705-2.592,6.846-0.906,8.531c1.667,1.666,3.919,0.375,5.469-3.125
		C272.354-62.616,271.217-66.287,269.04-66.084z M417.727-65.24c-0.95,0.023-2.071,0.332-3.5,0.875c-2.952,1.123-4.869,4.232-4,6.5
		c1.4,3.65,10.559,5.974,13.188,3.344c1.946-1.946,1.385-5.709-1.25-8.344C420.491-64.539,419.312-65.278,417.727-65.24z
		 M152.227-65.146c-1.493-0.006-2.51,0.604-4.062,2.156c-4.411,4.41-2.949,9.656,2.688,9.656c3.269,0,8.34-2.346,9.094-4.219
		c0.836-2.078,0.736-2.453-1.094-4.656c-0.962-1.159-3.187-2.381-4.938-2.719C153.272-65.052,152.725-65.145,152.227-65.146z
		 M164.321-63.646l0.719,2.906c0.4,1.593,1.191,3.186,1.75,3.531c1.549,0.957,12.545,1.916,14.281,1.25
		c0.843-0.323,1.531-1.01,1.531-1.531c0-1.438-8.18-4.767-13.531-5.5L164.321-63.646z M285.102-63.334
		c-7.235,0-9.775,1.617-9.281,5.875c0.296,2.557,0.511,2.65,8.219,2.938c4.352,0.162,8.514,0.063,9.25-0.219
		c1.833-0.703,1.67-5.111-0.25-7.031C291.94-62.871,289.547-63.334,285.102-63.334z M403.29-63.334
		c-3.33,0-11.861,2.695-14.188,4.469c-3.08,2.349-0.16,3.684,6.5,2.969c7.519-0.807,8.824-1.246,9.345-3.219
		C405.859-62.583,405.554-63.334,403.29-63.334z M256.352-54.021c-1.097-0.018-3.026,0.64-6.906,2.219
		c-7.937,3.229-9.245,5.068-5.906,8.406c4.144,4.145,10.233,2.203,13.906-4.438c1.36-2.459,1.413-3.581,0.219-5.469
		C257.369-53.771,257.01-54.012,256.352-54.021z M314.227-54.021c-1.196-0.036-1.729,0.512-2.062,1.562
		c-0.717,2.26,0.617,5.436,3.75,8.875c2.629,2.887,7.927,3.011,10.688,0.25c3.228-3.227,2.447-4.915-3.469-7.531
		C318.38-52.967,315.766-53.975,314.227-54.021z M189.383-52.834c-0.697,0.009-1.401,0.182-2.156,0.469
		c-3.537,1.345-3.332,3.949,0.688,9.219c3.549,4.652,5.904,5.723,8.281,3.75c1.03-0.855,1.423-2.693,1.219-5.844
		c-0.271-4.164-0.647-4.766-3.938-6.375C191.739-52.465,190.546-52.849,189.383-52.834z M380.852-52.834
		c-1.161-0.015-2.387,0.369-4.125,1.219c-3.229,1.58-3.659,2.271-3.938,6.125c-0.596,8.283,4.128,9.441,9.531,2.344
		c4.017-5.275,4.19-7.875,0.655-9.219C382.222-52.652,381.549-52.825,380.852-52.834z M162.602-52.584l-4.469,0.5
		c-2.467,0.278-5.631,1.271-7.031,2.188c-2.527,1.656-2.549,1.688-0.781,4.719c2.232,3.826,6.881,7.222,8.844,6.469
		c0.819-0.314,1.904-1.594,2.406-2.844c0.502-1.25,0.934-4.247,0.969-6.656L162.602-52.584z M285.102-52.334
		c-2.255,0-4.621,0.559-5.281,1.219c-3.204,3.203,0.639,11.781,5.281,11.781c1.354,0,3.246-1.111,4.438-2.625
		c2.299-2.923,2.721-7.311,0.875-9.156C289.754-51.775,287.357-52.334,285.102-52.334z M407.352-52.334l0.47,5.562
		c0.592,7.133,2.569,9.442,6.375,7.406c1.459-0.781,3.718-2.987,5-4.875c1.281-1.888,2.066-3.83,1.75-4.344
		c-0.956-1.548-7.069-3.75-10.438-3.75L407.352-52.334L407.352-52.334z M170.602-52.303c-0.965,0.01-1.906,0.254-2.688,0.75
		c-3.23,2.055-4.555,13.942-1.812,16.219c2.441,2.025,4.399,0.402,7.531-6.219c3.491-7.379,3.384-6.648,1.312-8.938
		C173.879-51.67,172.21-52.319,170.602-52.303z M399.571-52.303c-1.619-0.001-3.276,0.688-4.406,1.938
		c-1.702,1.881-1.67,2.192,1.281,8.5c3.223,6.887,5.218,8.581,7.688,6.531c2.743-2.276,1.388-14.164-1.844-16.219
		C401.492-52.061,400.542-52.303,399.571-52.303z M271.29-48.271c-1.624,0.244-2.688,2.434-2.688,6.5
		c0,5.597,3.001,9.438,7.375,9.438c1.775,0,3.797-0.547,4.469-1.219c1.455-1.455,1.063-2.63-3.094-9.531
		C275.106-46.812,272.913-48.516,271.29-48.271z M298.258-48.178c-2.235,0.012-4.812,3.299-8.594,10.656
		c-2.717,5.286,5.961,7.539,9.875,2.562c2.328-2.959,2.849-10.183,0.875-12.156C299.715-47.814,299.003-48.182,298.258-48.178z
		 M262.79-46.334c-1.817,0-10.188,7.831-10.188,9.531c0,0.609,2.587,1.91,5.75,2.906s6.381,2.078,7.156,2.375
		c1.158,0.443,1.327-0.543,0.812-5.469C265.539-44.477,264.823-46.334,262.79-46.334z M307.446-46.334
		c-2.033,0-2.749,1.857-3.531,9.344c-0.515,4.926-0.377,5.912,0.781,5.469c0.775-0.297,3.995-1.379,7.156-2.375
		c3.162-0.996,5.75-2.297,5.75-2.906C317.602-38.503,309.262-46.334,307.446-46.334z M389.727-46.084
		c-0.658-0.104-1.329,0.328-2.594,1.156c-1.434,0.938-3.35,3.296-4.281,5.25c-1.661,3.485-1.675,3.575,0.625,5.438
		c2.334,1.89,7.431,2.488,10.656,1.25c2.508-0.963,1.34-7.941-1.875-11.156C391.043-45.361,390.386-45.98,389.727-46.084z
		 M180.821-45.959c-0.833-0.008-1.596,0.564-2.875,1.844c-2.932,2.932-4.278,9.57-2.219,10.875
		c2.233,1.414,8.238,1.037,10.656-0.656c1.222-0.856,2.221-2.094,2.219-2.75c-0.006-2.063-3.79-7.502-6.062-8.719
		C181.844-45.737,181.32-45.954,180.821-45.959z M90.352-45.146v11.75c0.689-0.421,1.331-0.894,1.875-1.438
		c2.774-2.773,3.025-5.168,0.844-8.281C92.252-44.283,91.345-44.957,90.352-45.146z M479.883-45.021
		c-0.873,0.202-1.693,0.738-2.438,1.656c-1.007,1.244-1.845,3.123-1.845,4.188c0,2.031,1.882,4.134,4.281,5.625L479.883-45.021
		L479.883-45.021z M144.727-44.24c-1.429,0.038-2.732,0.88-4.031,2.531c-1.14,1.449-2.094,3.014-2.094,3.469
		c0,3.213,12.169,8.845,14.656,6.781c2.244-1.862,1.549-4.67-2.25-8.875C148.602-42.998,146.564-44.289,144.727-44.24z
		 M425.508-44.24c-1.837-0.049-3.875,1.242-6.281,3.906c-3.799,4.205-4.524,7.013-2.28,8.875c1.689,1.402,9.385-1.037,12.53-3.969
		c2.646-2.465,2.648-2.994,0.062-6.281C428.241-43.36,426.938-44.202,425.508-44.24z M216.946-43.084
		c-0.418,0.016-0.792,0.082-1.125,0.188c-1.005,0.318-3.343,2.129-5.188,4.031c-2.729,2.815-3.395,4.357-3.594,8.25
		c-0.134,2.631-0.572,6.705-0.969,9.031c-0.073,0.428-0.117,0.824-0.156,1.219h7.906c-1.133-1.056-2.076-2.176-2.688-3.312
		c-2.338-4.342-1.369-5.892,5.969-9.312c6.172-2.877,10.076-3.009,11.469-0.406c1.262,2.357,1.23,8.63,0.031,13.031h8.719
		c3.088-5.466,1.014-11.141-5.656-14.5c-1.905-0.959-4.29-2.771-5.281-4.031C224.562-41.211,219.875-43.193,216.946-43.084z
		 M353.29-43.084c-2.93-0.109-7.617,1.873-9.438,4.188c-0.991,1.261-3.377,3.072-5.28,4.031c-6.677,3.361-8.724,9.03-5.625,14.5
		h8.655c-0.305-1.327-0.538-2.962-0.719-4.938c-0.637-7.016,0.744-10.031,4.531-10c3.08,0.025,10.786,3.288,13.438,5.688
		c2.243,2.029,2.212,3.08-0.188,6.719c-0.561,0.852-1.331,1.712-2.219,2.531h7.812c-0.033-0.241-0.054-0.449-0.094-0.719
		c-0.387-2.602-0.825-6.9-0.969-9.531c-0.212-3.879-0.874-5.444-3.595-8.25c-1.844-1.902-4.183-3.713-5.188-4.031
		C354.081-43.002,353.708-43.068,353.29-43.084z M370.165-33.928c-0.518-0.136-0.724,0.495-1.125,2.094
		c-0.437,1.736-0.282,7.306,0.125,11.469h6.344c-0.502-4.427-2.591-11.284-3.969-12.531
		C370.897-33.479,370.475-33.846,370.165-33.928z M199.883-33.74c-1.417-0.008-3.256,3.74-4.344,9.312
		c-0.352,1.805-0.573,3.079-0.688,4.062h6.312c0.46-5.037,0.329-11.641-0.375-12.75C200.521-33.539,200.21-33.738,199.883-33.74z
		 M441.227-32.834c-2.566,0.064-4.625,3.543-4.625,8.312c0,1.669,0.21,3.043,0.562,4.156h8.344
		c3.795-4.52,2.381-10.315-3.156-12.281C441.968-32.783,441.594-32.844,441.227-32.834z M128.821-32.615
		c-3.006-0.183-6.219,2.76-6.219,6.781c0,2.043,0.845,3.979,2.062,5.469h8.656c0.849-3.266,0.142-9.107-1.688-10.938
		C130.8-32.137,129.823-32.555,128.821-32.615z M222.508-32.334c-3.466,0-7.834,2.911-8.531,5.688c-0.543,2.164-0.083,3.191,2.5,5.5
		c0.319,0.285,0.632,0.54,0.938,0.781h8.031c0.331-0.418,0.658-0.921,0.969-1.469C228.83-26.093,226.51-32.334,222.508-32.334z
		 M95.79-32.303c-1-0.054-2.533,0.509-4.906,1.5c-0.193,0.08-0.347,0.17-0.531,0.25v1.219c0,4.285,2.966,7.812,6.969,8.719
		c0.227-1.086,0.281-2.719,0.281-5.188C97.602-30.383,97.457-32.213,95.79-32.303z M105.321-32.303
		c-0.844,0.039-1.665,0.278-2.406,0.75c-2.872,1.826-3.375,8.052-1.438,11.188h8.219c0.543-0.497,0.994-1.074,1.344-1.719
		c1.983-3.654,1.933-4.532-0.5-7.625C109.146-31.48,107.178-32.389,105.321-32.303z M464.04-32.303
		c-1.771,0.174-3.617,1.311-5.031,3.469c-1.594,2.432-1.605,2.859-0.094,6.031c0.468,0.979,1.068,1.783,1.719,2.438h8.125
		c0.418-0.567,0.74-1.246,0.969-2.062c0.37-1.322,0.728-2.444,0.781-2.5c0.055-0.056-0.396-1.515-1-3.25
		C468.481-31.125,466.317-32.525,464.04-32.303z M474.352-32.303c-1.489-0.02-1.75,0.938-1.75,6.5c0,2.419,0.115,4.078,0.345,5.188
		c3.983-0.92,6.938-4.447,6.938-8.719v-1.188C477.735-31.515,475.535-32.288,474.352-32.303z M347.633-32.271
		c-0.547,0.018-1.057,0.131-1.531,0.312c-3.612,1.387-4.25,8.041-1.312,11.594h8.031c0.237-0.182,0.472-0.354,0.719-0.562
		c1.692-1.424,3.062-3.449,3.062-4.5C356.602-28.771,351.46-32.395,347.633-32.271z M139.415-32.084
		c-2.642,0.105-3.812,2.074-3.812,6.188c0,2.451,0.4,4.301,1.125,5.531h7.75c0.659-0.44,1.344-0.958,2.062-1.562
		c1.692-1.424,3.062-3.004,3.062-3.531c0-1.721-5.061-5.74-8.094-6.406C140.738-32.034,140.024-32.108,139.415-32.084z
		 M430.602-32.053c-2.275,0.012-5.222,1.226-7.405,3.25c-3.293,3.052-3.24,3.728,0.5,6.875c0.726,0.61,1.414,1.116,2.094,1.562h7.75
		c1.496-2.836,1.365-9.493-0.375-10.938C432.541-31.82,431.637-32.059,430.602-32.053z M254.727-31.521
		c-1.773,0.062-3.307,0.713-4.062,2.125c-1.968,3.677-0.336,7.281,2.469,9.031h7.312c0.405-0.269,0.779-0.592,1.156-0.969
		c1.1-1.1,2-2.9,2-4C263.602-28.964,258.628-31.659,254.727-31.521z M315.508-31.521c-3.9-0.138-8.906,2.558-8.906,6.188
		c0,2.23,1.422,3.984,3.344,4.969h7.155c0.531-0.302,1.03-0.686,1.47-1.156c2.254-2.42,2.57-4.938,1-7.875
		C318.815-30.809,317.282-31.459,315.508-31.521z M186.54-30.271c-0.854,0.029-1.877,0.105-3.094,0.219
		c-8.312,0.776-9.844,1.436-9.844,4.281c0,2.906,2.155,4.14,8.875,5.031c4.24,0.562,5.545,0.333,7.156-1.125
		c2.086-1.889,2.544-5.035,1.062-7.375C190.186-30.045,189.103-30.359,186.54-30.271z M382.54-30.271
		c-1.746,0.039-2.575,0.36-3,1.031c-1.481,2.34-1.023,5.486,1.062,7.375c1.611,1.458,2.916,1.688,7.156,1.125
		c2.859-0.379,6.026-1.149,7.031-1.688c2.324-1.244,2.389-5.463,0.094-6.344c-0.955-0.367-4.597-0.955-8.094-1.281
		C384.965-30.223,383.587-30.295,382.54-30.271z M267.883-30.209c-1.144,0.041-1.245,1.105-1.469,5.031
		c-0.146,2.547-0.291,3.886-0.812,4.812h5.562c4.042-2.182,10.183-4.219,13.938-4.219s9.896,2.037,13.938,4.219h5.562
		c-0.521-0.927-0.636-2.266-0.781-4.812c-0.299-5.236-0.365-5.346-3-4.781c-14.237,3.047-16.907,3.056-31.406,0
		C268.756-30.098,268.265-30.223,267.883-30.209z M408.008-29.928c-2.396-0.021-5.406,2.604-5.406,5.094
		c0,3.359,3.04,4.87,5.845,2.906c2.614-1.832,2.965-6.879,0.53-7.812C408.669-29.858,408.35-29.925,408.008-29.928z M162.071-29.865
		c-1.497,0.125-2.469,1.389-2.469,3.594c0,3.591,3.448,6.324,6.156,4.875c2.624-1.404,2.35-5.57-0.5-7.438
		C164.063-29.617,162.969-29.94,162.071-29.865z M416.665-21.334c-0.806,0-1.426,0.34-1.906,0.969h5.594
		C418.924-20.957,417.607-21.334,416.665-21.334z M153.571-21.24c-0.922,0.011-2.111,0.309-3.531,0.875h5.625
		C155.217-20.955,154.533-21.252,153.571-21.24z"/>
	<path id="path3397_3_" fill="none" stroke="#000000" d="M480.343-124.428v8.688c0.094-0.008,0.188-0.024,0.25-0.062
		c0.562-0.347,1-2.272,1-4.25C481.593-121.825,481.314-123.035,480.343-124.428z M480.343-111.74v8.531
		c0.972-1.393,1.25-2.635,1.25-4.406C481.593-110.094,481.226-111.449,480.343-111.74z"/>
	<defs>
		
		
			<inkscape:perspective  id="perspective35" sodipodi:type="inkscape:persp3d" inkscape:vp_x="0 : 410.56467 : 1" inkscape:vp_y="0 : 1000 : 0" inkscape:vp_z="567.81738 : 410.56467 : 1" inkscape:persp3d-origin="283.90869 : 273.70978 : 1">
			</inkscape:perspective>
		<inkscape:path-effect  id="path-effect3941" effect="spiro" is_visible="true"></inkscape:path-effect>
		<inkscape:path-effect  id="path-effect3941-2" effect="spiro" is_visible="true"></inkscape:path-effect>
		<inkscape:path-effect  id="path-effect3941-1" effect="spiro" is_visible="true"></inkscape:path-effect>
		<inkscape:path-effect  id="path-effect3941-2-1" effect="spiro" is_visible="true"></inkscape:path-effect>
		<inkscape:path-effect  id="path-effect3941-1-7" effect="spiro" is_visible="true"></inkscape:path-effect>
		<inkscape:path-effect  id="path-effect3941-2-1-2" effect="spiro" is_visible="true"></inkscape:path-effect>
		<inkscape:path-effect  id="path-effect23631" effect="spiro" is_visible="true"></inkscape:path-effect>
		<inkscape:path-effect  id="path-effect23629" effect="spiro" is_visible="true"></inkscape:path-effect>
		
			<inkscape:perspective  id="perspective37" sodipodi:type="inkscape:persp3d" inkscape:vp_x="0 : 526.18109 : 1" inkscape:vp_y="0 : 1000 : 0" inkscape:vp_z="744.09448 : 526.18109 : 1" inkscape:persp3d-origin="372.04724 : 350.78739 : 1">
			</inkscape:perspective>
	</defs>
	
		<sodipodi:namedview  units="cm" id="namedview4" inkscape:window-maximized="1" fit-margin-left="0.2" fit-margin-top="0.2" fit-margin-right="0.2" fit-margin-bottom="0.2" inkscape:window-height="778" inkscape:window-width="1280" inkscape:pageshadow="2" inkscape:pageopacity="0" guidetolerance="10" gridtolerance="10" objecttolerance="10" borderopacity="1" bordercolor="#666666" pagecolor="#ffffff" showgrid="false" inkscape:zoom="0.5" inkscape:cx="222.4204" inkscape:cy="498.57664" inkscape:window-x="24" inkscape:window-y="20" inkscape:current-layer="g8680">
		</sodipodi:namedview>
	<g id="g3970">
	</g>
	<g id="Default" transform="matrix(2.757182e-2,0,0,-2.757182e-2,-213.253,575.99534)">
		<desc  id="desc32263">Master slide</desc>
	</g>
	<path id="rect8807_3_" fill="none" stroke="#FF0000" stroke-width="6" d="M470.917-20.362c4.975,0,8.979-4.005,8.979-8.979V-197.26
		c0-4.975-4.006-8.979-8.979-8.979H99.332c-4.975,0-8.98,4.005-8.98,8.979v167.919c0,4.975,4.005,8.979,8.98,8.979"/>
	<path id="rect8807_1_" fill="none" stroke="#FF0000" stroke-width="6" d="M470.917-20.362H99.332"/>
	<path id="rect8807_22_" fill="none" stroke="#FF0000" stroke-width="6" d="M480.343-29.342"/>
	<path id="rect8807_21_" fill="none" stroke="#FF0000" stroke-width="6" d="M480.343-197.261"/>
</g>
<g id="Layer_2" display="none">
</g>
</svg>
