<?xml version="1.0" encoding="UTF-8" standalone="no"?>
<!-- Created with Inkscape (http://www.inkscape.org/) -->
<svg
   xmlns:dc="http://purl.org/dc/elements/1.1/"
   xmlns:cc="http://creativecommons.org/ns#"
   xmlns:rdf="http://www.w3.org/1999/02/22-rdf-syntax-ns#"
   xmlns:svg="http://www.w3.org/2000/svg"
   xmlns="http://www.w3.org/2000/svg"
   xmlns:sodipodi="http://sodipodi.sourceforge.net/DTD/sodipodi-0.dtd"
   xmlns:inkscape="http://www.inkscape.org/namespaces/inkscape"
   id="svg3372"
   sodipodi:version="0.32"
   inkscape:version="0.46"
   width="390.53125"
   height="186.875"
   version="1.0"
   sodipodi:docname="quasiSpecial6-5.svg"
   inkscape:output_extension="org.inkscape.output.svg.inkscape">
  <metadata
     id="metadata3377">
    <rdf:RDF>
      <cc:Work
         rdf:about="">
        <dc:format>image/svg+xml</dc:format>
        <dc:type
           rdf:resource="http://purl.org/dc/dcmitype/StillImage" />
      </cc:Work>
    </rdf:RDF>
  </metadata>
  <defs
     id="defs3375">
    <inkscape:perspective
       sodipodi:type="inkscape:persp3d"
       inkscape:vp_x="0 : 526.18109 : 1"
       inkscape:vp_y="0 : 1000 : 0"
       inkscape:vp_z="744.09448 : 526.18109 : 1"
       inkscape:persp3d-origin="372.04724 : 350.78739 : 1"
       id="perspective3379" />
  </defs>
  <sodipodi:namedview
     inkscape:window-height="722"
     inkscape:window-width="1216"
     inkscape:pageshadow="2"
     inkscape:pageopacity="0.0"
     guidetolerance="10.0"
     gridtolerance="10.0"
     objecttolerance="10.0"
     borderopacity="1.0"
     bordercolor="#666666"
     pagecolor="#ffffff"
     id="base"
     showgrid="false"
     inkscape:zoom="1.613467"
     inkscape:cx="168.95264"
     inkscape:cy="156.01807"
     inkscape:window-x="24"
     inkscape:window-y="20"
     inkscape:current-layer="svg3372" />
  <path
     style="fill:none;stroke:#000000;stroke-opacity:1"
     d="M 11.125,0.5 C 9.839198,3.81207 10.486028,8.98672 13.0625,10.625 C 15.43495,12.13353 18.660511,11.35815 20.6875,8.78125 C 23.16454,5.6322 23.207551,5.16046 21.25,1.375 C 21.09157,1.06863 20.888868,0.77656 20.6875,0.5 L 11.125,0.5 z M 23.9375,0.5 C 25.56388,2.95233 26.75,5.07516 26.75,5.53125 C 26.75,7.04041 21.744402,13.35121 19.65625,14.46875 C 18.4997,15.08772 16.29516,15.08274 13.5625,14.46875 C 8.69252,13.37454 7.805541,14.08129 7.78125,19 C 7.77283,20.70558 6.625003,24.22647 5.25,26.8125 C 3.875,29.39851 2.750003,32.86083 2.75,34.5 C 2.75,36.03673 1.759174,39.26803 0.5,41.90625 L 0.5,48.78125 L 2,49.53125 C 7.44101,52.28975 7.731617,52.76393 7.75,59.59375 L 7.75,65.28125 L 0.75,67.5625 C 0.660671,67.59127 0.588544,67.62736 0.5,67.65625 L 0.5,77.53125 C 2.019315,78.78161 3.400188,79.77987 4.09375,80 C 6.84172,80.87217 7.732357,78.85083 7.75,71.71875 C 7.75842,68.31371 8.146232,65.2959 8.625,65 C 9.10377,64.70411 12.108961,63.76378 15.28125,62.9375 C 20.44895,61.59148 21.387883,61.61218 24.3125,63 C 27.26332,64.40025 28.07165,64.38591 32.84375,62.96875 C 35.74718,62.10652 39.31814,61.40625 40.78125,61.40625 C 43.01885,61.40625 43.64724,60.774 44.65625,57.40625 C 45.60839,54.22829 46.61878,53.06366 49.5625,51.8125 C 57.55915,48.41374 58.81588,48.71981 63.5625,54.9375 C 68.53311,61.44858 69.8174,61.22789 72.1875,53.53125 C 73.85635,48.11183 74.12548,44.40625 72.84375,44.40625 C 72.34276,44.40625 69.09151,45.2961 65.625,46.375 C 58.30188,48.65421 57.5873,48.31635 53.65625,40.90625 C 51.51656,36.87289 51.44614,36.21419 52.6875,32.78125 C 54.03114,29.06549 53.9959,29.02359 50.34375,26.09375 C 48.32357,24.4731 46.02942,21.91347 45.25,20.40625 C 44.22703,18.42803 42.61826,17.3713 39.40625,16.5625 C 35.81429,15.65803 34.23847,14.48597 31.3125,10.5 L 27.6875,5.5625 L 30.90625,0.5 L 23.9375,0.5 z M 34.09375,0.5 C 33.29453,1.8007 32.75,3.31421 32.75,4.90625 C 32.75,10.26856 38.44659,13.70966 41.78125,10.375 C 43.42499,8.73126 44.1416,3.84585 43.65625,0.5 L 34.09375,0.5 z M 46.375,0.5 C 45.36976,3.67619 45.67084,9.09035 47.21875,10.375 C 49.21491,12.03167 54.00999,10.85108 57.1875,7.90625 C 60.48025,4.85464 60.42789,4.14734 56.6875,1 C 56.46446,0.81232 56.25035,0.67226 56.03125,0.5 L 46.375,0.5 z M 72.65625,0.5 C 71.04202,1.29573 69.75,3.18549 69.75,5.375 C 69.75,8.90359 72.21949,9.9943 75.40625,7.90625 C 78.25631,6.03882 78.52971,1.90405 75.90625,0.5 L 72.65625,0.5 z M 88.84375,0.5 C 85.09845,1.35517 83.75,2.58044 83.75,4.84375 C 83.75,7.68954 85.28207,8.34883 93.59375,9.125 C 98.45841,9.57926 100.16388,9.38633 100.84375,8.3125 C 102.32536,5.97228 101.86757,2.82559 99.78125,0.9375 C 99.60274,0.77595 99.42578,0.63138 99.25,0.5 L 88.84375,0.5 z M 105.15625,0.5 C 105.28826,1.33592 105.44103,2.23693 105.6875,3.5 C 107.02573,10.35806 109.5025,14.44862 110.9375,12.1875 C 111.76331,10.8863 111.94807,5.35939 111.4375,0.5 L 105.15625,0.5 z M 116.1875,0.5 C 116.19784,0.5643 116.20766,0.62241 116.21875,0.6875 C 116.61506,3.0134 117.05319,7.05679 117.1875,9.6875 C 117.38623,13.58006 118.05249,15.12212 120.78125,17.9375 C 122.62543,19.84021 124.96405,21.64987 125.96875,21.96875 C 128.63708,22.81564 134.45038,20.61413 136.53125,17.96875 C 137.52277,16.70823 139.90794,14.89654 141.8125,13.9375 C 143.71708,12.97845 146.04972,11.24063 147,10.0625 C 149.06024,7.50827 149.3129,3.86356 147.90625,0.5 L 139,0.5 C 139.91572,4.84702 139.85422,10.6531 138.6875,12.65625 C 137.28983,15.05591 133.22929,14.85014 127.25,12.0625 C 119.91249,8.64161 118.94314,7.0916 121.28125,2.75 C 121.69012,1.99077 122.24244,1.23695 122.90625,0.5 L 116.1875,0.5 z M 126.34375,0.5 C 124.02097,2.62282 123.60338,3.64045 124.125,5.71875 C 124.82181,8.4951 129.18975,11.40625 132.65625,11.40625 C 133.75237,11.40625 135.36256,10.40988 136.21875,9.1875 C 138.06899,6.54591 138.19262,4.072 136.625,1.09375 C 136.51506,0.88489 136.39425,0.69089 136.28125,0.5 L 126.34375,0.5 z M 151.25,0.5 C 152.14298,2.71152 152.75,4.7371 152.75,5.53125 C 152.75,6.59011 150.96389,10.33832 148.75,13.84375 C 144.3569,20.79974 142.11636,22.26085 131.96875,24.875 L 125.6875,26.5 L 119.90625,21.4375 C 116.7212,18.66723 113.61725,16.40625 113.03125,16.40625 C 111.40657,16.40625 110.75,18.99541 110.75,25.40625 L 110.75,31.25 L 103.75,33.90625 C 99.9,35.37742 96.75,36.97552 96.75,37.4375 C 96.75,38.48508 100.19411,41.10346 106,44.53125 L 110.46875,47.1875 L 111.03125,54.96875 C 111.73823,64.31661 110.73692,67.28199 104.25,74.875 L 99.71875,80.1875 L 91.25,79.65625 C 86.47513,79.35835 82.75,79.52172 82.75,80.03125 C 82.75,80.52862 84.325,83.26654 86.25,86.125 C 88.175,88.98346 89.75,92.03785 89.75,92.90625 C 89.75,93.77465 88.175,96.82905 86.25,99.6875 C 84.325,102.54596 82.75,105.28387 82.75,105.78125 C 82.75,106.29077 86.47513,106.45416 91.25,106.15625 L 99.71875,105.625 L 104.25,110.96875 C 110.73691,118.56175 111.73824,121.49589 111.03125,130.84375 L 110.46875,138.65625 L 106,141.28125 C 100.19412,144.70905 96.75,147.35866 96.75,148.40625 C 96.75,148.86824 99.9,150.43508 103.75,151.90625 L 110.75,154.59375 L 110.75,160.40625 C 110.75,166.8171 111.40658,169.40625 113.03125,169.40625 C 113.61724,169.40625 116.72121,167.14528 119.90625,164.375 L 125.6875,159.34375 L 131.96875,160.96875 C 142.11636,163.58289 144.3569,165.04401 148.75,172 C 150.96389,175.50544 152.75,179.22236 152.75,180.28125 C 152.75,181.19788 151.92662,183.7908 150.8125,186.375 L 159.09375,186.375 C 157.26766,183.83014 155.79428,181.20416 155.78125,180.40625 C 155.76762,179.57143 156.91985,177.15795 158.34375,175.0625 C 159.76764,172.96706 160.78014,171.11883 160.59375,170.96875 C 160.40735,170.81867 156.73174,169.02687 152.40625,166.96875 C 146.54962,164.18209 142.86499,161.51664 138.03125,156.5625 L 131.5625,149.90625 L 128.40625,153.65625 C 124.91199,157.81818 123.15118,158.15553 116.6875,155.875 C 111.40751,154.01211 110.80077,153.14364 110.78125,147.375 C 110.76198,141.67605 112.5245,139.14145 117.6875,137.4375 C 119.92713,136.69836 121.75,135.94913 121.75,135.78125 C 121.75,135.61338 120.40188,133.35475 118.75,130.75 C 114.44036,123.95439 112.03479,116.81272 111.21875,108.53125 C 110.62856,102.54179 110.23929,101.40671 108.9375,101.90625 C 108.07393,102.23763 105.48869,102.75137 103.21875,103.0625 C 99.19794,103.61361 99.01101,103.52435 95.4375,98.65625 C 93.42008,95.90798 91.75,93.30888 91.75,92.90625 C 91.75,92.50362 93.42008,89.93578 95.4375,87.1875 C 99.01101,82.3194 99.19793,82.1989 103.21875,82.75 C 105.4887,83.06113 108.07393,83.57487 108.9375,83.90625 C 110.23929,84.4058 110.62856,83.30197 111.21875,77.3125 C 112.03479,69.03103 114.44036,61.88936 118.75,55.09375 C 120.40188,52.48901 121.75,50.19912 121.75,50.03125 C 121.75,49.86338 119.92712,49.11414 117.6875,48.375 C 112.52451,46.67106 110.76199,44.13645 110.78125,38.4375 C 110.80076,32.66887 111.40751,31.80038 116.6875,29.9375 C 123.15118,27.65698 124.91199,27.99433 128.40625,32.15625 L 131.5625,35.90625 L 138.03125,29.25 C 142.86499,24.29585 146.54961,21.63041 152.40625,18.84375 C 156.73175,16.78563 160.40735,14.99383 160.59375,14.84375 C 160.78014,14.69368 159.76764,12.84544 158.34375,10.75 C 156.91985,8.65455 155.76762,6.27231 155.78125,5.4375 C 155.79249,4.74951 156.90445,2.68505 158.375,0.5 L 151.25,0.5 z M 161.90625,0.5 C 161.8744,0.5327 161.84379,0.56016 161.8125,0.59375 C 159.55861,3.01301 159.24105,5.5325 160.8125,8.46875 C 162.25994,11.17332 169.02039,11.13586 171.75,8.40625 C 172.85,7.30625 173.75,5.50625 173.75,4.40625 C 173.75,2.82671 173.03246,1.49631 171.9375,0.5 L 161.90625,0.5 z M 176.15625,0.5 C 176.36924,1.37288 176.46356,2.54987 176.5625,4.28125 C 176.86176,9.51764 176.92719,9.62657 179.5625,9.0625 C 193.79994,6.01519 196.46973,6.00704 210.96875,9.0625 C 213.6028,9.61758 213.66964,9.5151 213.96875,4.28125 C 214.06785,2.54718 214.1613,1.37327 214.375,0.5 L 207.0625,0.5 C 203.20608,2.24334 198.38747,3.6875 195.25,3.6875 C 192.11253,3.6875 187.32516,2.24334 183.46875,0.5 L 176.15625,0.5 z M 218.65625,0.5 C 217.59949,1.60633 216.75,3.3378 216.75,4.40625 C 216.75,5.50625 217.65,7.30625 218.75,8.40625 C 221.36039,11.01664 228.22145,11.17332 229.6875,8.65625 C 231.47819,5.58183 230.54465,2.48307 228.5,0.5 L 218.65625,0.5 z M 232.15625,0.5 C 233.6268,2.68505 234.73875,4.7495 234.75,5.4375 C 234.76363,6.27232 233.6114,8.65455 232.1875,10.75 C 230.76361,12.84544 229.75111,14.69368 229.9375,14.84375 C 230.1239,14.99383 233.79951,16.78563 238.125,18.84375 C 243.98163,21.63041 247.635,24.29586 252.46875,29.25 L 258.96875,35.90625 L 262.125,32.15625 C 265.61926,27.99432 267.38006,27.65697 273.84375,29.9375 C 279.12374,31.80039 279.7305,32.66887 279.75,38.4375 C 279.76927,44.13645 278.00675,46.67106 272.84375,48.375 C 270.60412,49.11414 268.75,49.86338 268.75,50.03125 C 268.75,50.19912 270.09812,52.48901 271.75,55.09375 C 276.05964,61.88936 278.49645,69.03104 279.3125,77.3125 C 279.90269,83.30196 280.29196,84.4058 281.59375,83.90625 C 282.45732,83.57487 285.04256,83.06114 287.3125,82.75 C 291.33331,82.19889 291.52023,82.31941 295.09375,87.1875 C 297.11117,89.93577 298.73546,92.55494 298.71875,93.03125 C 298.70205,93.50756 297.0689,96.10743 295.0625,98.78125 C 291.52752,103.49209 291.27053,103.6093 287.28125,103.0625 C 285.01699,102.75215 282.45732,102.23764 281.59375,101.90625 C 280.29196,101.4067 279.90268,102.54179 279.3125,108.53125 C 278.49646,116.81272 276.05964,123.9544 271.75,130.75 C 270.09812,133.35474 268.75,135.61339 268.75,135.78125 C 268.75,135.94912 270.60413,136.69837 272.84375,137.4375 C 278.00674,139.14144 279.76928,141.67606 279.75,147.375 C 279.73049,153.14363 279.12373,154.01212 273.84375,155.875 C 267.38007,158.15552 265.61927,157.81817 262.125,153.65625 L 258.96875,149.90625 L 252.46875,156.5625 C 247.63501,161.51665 243.98164,164.18209 238.125,166.96875 C 233.7995,169.02687 230.1239,170.81868 229.9375,170.96875 C 229.75111,171.11882 230.76361,172.96706 232.1875,175.0625 C 233.6114,177.15795 234.76362,179.57145 234.75,180.40625 C 234.73696,181.20415 233.26359,183.83013 231.4375,186.375 L 239.71875,186.375 C 238.60463,183.79079 237.75,181.19786 237.75,180.28125 C 237.75,179.22239 239.56737,175.50544 241.78125,172 C 246.17435,165.04401 248.41488,163.58288 258.5625,160.96875 L 264.84375,159.34375 L 270.625,164.375 C 273.81005,167.14527 276.88277,169.40625 277.46875,169.40625 C 279.09343,169.40625 279.75,166.8171 279.75,160.40625 L 279.75,154.59375 L 286.75,151.90625 C 290.6,150.43508 293.75,148.86823 293.75,148.40625 C 293.75,147.35867 290.33712,144.70905 284.53125,141.28125 L 280.0625,138.65625 L 279.46875,130.84375 C 278.76177,121.49589 279.76309,118.56176 286.25,110.96875 L 290.8125,105.625 L 299.28125,106.15625 C 304.05612,106.45415 307.75,106.29076 307.75,105.78125 C 307.75,105.28388 306.175,102.54597 304.25,99.6875 C 302.325,96.82904 300.75,93.77465 300.75,92.90625 C 300.75,92.03785 302.325,88.98346 304.25,86.125 C 306.175,83.26654 307.75,80.52861 307.75,80.03125 C 307.75,79.52173 304.05612,79.35835 299.28125,79.65625 L 290.8125,80.1875 L 286.25,74.875 C 279.76309,67.282 278.76178,64.31662 279.46875,54.96875 L 280.0625,47.1875 L 284.53125,44.53125 C 290.33713,41.10345 293.75,38.48509 293.75,37.4375 C 293.75,36.97551 290.6,35.37742 286.75,33.90625 L 279.75,31.25 L 279.75,25.40625 C 279.75,18.9954 279.09344,16.40625 277.46875,16.40625 C 276.88276,16.40625 273.81004,18.66723 270.625,21.4375 L 264.84375,26.5 L 258.5625,24.875 C 248.41489,22.26086 246.17436,20.79975 241.78125,13.84375 C 239.56736,10.33831 237.75,6.59011 237.75,5.53125 C 237.75,4.7371 238.38827,2.71152 239.28125,0.5 L 232.15625,0.5 z M 242.5625,0.5 C 240.28734,5.63079 242.47486,10.7934 248.71875,13.9375 C 250.62332,14.89654 253.00847,16.70822 254,17.96875 C 256.08087,20.61414 261.89416,22.81564 264.5625,21.96875 C 265.56719,21.64987 267.89017,19.85538 269.71875,17.96875 C 272.59557,15.00062 273.05079,13.77876 273.21875,8.96875 C 273.3255,5.91138 273.72516,3.11861 274.09375,2.75 C 274.33561,2.50814 274.53836,1.60843 274.65625,0.5 L 267.625,0.5 C 268.07237,0.9905 268.48669,1.4745 268.8125,1.96875 C 269.87916,3.58689 270.74638,5.39776 270.75,6 C 270.76002,7.66465 267.72364,10.08772 262.75,12.34375 C 253.39317,16.58797 250.12595,14.35891 251.03125,4.375 C 251.16773,2.86986 251.32496,1.62256 251.53125,0.5 L 242.5625,0.5 z M 254.21875,0.5 C 252.15502,4.18277 252.97221,9.80468 256.25,11.0625 C 258.47726,11.91718 262.52938,10.62687 264.78125,8.375 C 267.41886,5.73739 267.2317,3.28308 264.21875,0.5 L 254.21875,0.5 z M 279.21875,0.5 C 278.88437,4.51656 278.78042,9.34681 279.1875,10.96875 C 279.86981,13.68726 279.92349,13.69104 281.75,11.8125 C 282.77269,10.76067 284.02697,7.88125 284.5625,5.40625 C 285.00964,3.33969 285.31431,1.77034 285.46875,0.5 L 279.21875,0.5 z M 291.28125,0.5 C 291.10547,0.63138 290.92851,0.77595 290.75,0.9375 C 288.66368,2.8256 288.20588,5.97227 289.6875,8.3125 C 290.36737,9.38634 292.07284,9.57925 296.9375,9.125 C 300.43461,8.79843 304.07552,8.24176 305.03125,7.875 C 307.3258,6.9945 307.2619,2.74399 304.9375,1.5 C 304.36277,1.19241 303.05681,0.83744 301.53125,0.5 L 291.28125,0.5 z M 314.5625,0.5 C 313.48462,1.06628 312.75,2.28859 312.75,3.9375 C 312.75,6.78098 316.66278,9.75733 319.125,8.8125 C 321.55856,7.87865 321.20919,2.86319 318.59375,1.03125 C 318.28493,0.81495 317.99769,0.63414 317.6875,0.5 L 314.5625,0.5 z M 334.5,0.5 C 334.28089,0.67226 334.06679,0.81232 333.84375,1 C 330.10336,4.14733 330.05101,4.85464 333.34375,7.90625 C 336.52127,10.85108 341.31635,12.03168 343.3125,10.375 C 344.86041,9.09035 345.1615,3.67619 344.15625,0.5 L 334.5,0.5 z M 347.0625,0.5 C 346.88174,1.40356 346.75,2.44728 346.75,3.625 C 346.75,11.38723 350.84834,14.01825 356,9.59375 C 358.20266,7.702 358.27812,3.61528 356.40625,0.5 L 347.0625,0.5 z M 359.59375,0.5 L 362.8125,5.5625 L 359.21875,10.5 C 356.29278,14.48597 354.71696,15.65804 351.125,16.5625 C 347.91299,17.37129 346.27296,18.42803 345.25,20.40625 C 344.47058,21.91347 342.20767,24.47309 340.1875,26.09375 C 336.53535,29.0236 336.50011,29.0655 337.84375,32.78125 C 339.08511,36.21418 339.01469,36.87288 336.875,40.90625 C 332.91811,48.36507 332.27997,48.64379 324.4375,46.25 C 320.71124,45.11262 317.398,44.44573 317.0625,44.78125 C 316.04139,45.80236 318.77287,56.19804 320.6875,58.5625 L 322.46875,60.78125 L 326.875,55.03125 C 331.71516,48.69269 332.94547,48.40243 340.96875,51.8125 C 343.91247,53.06365 344.92286,54.22828 345.875,57.40625 C 346.88401,60.77401 347.51241,61.40625 349.75,61.40625 C 351.21311,61.40625 354.78406,62.10652 357.6875,62.96875 C 362.4596,64.38591 363.26792,64.40025 366.21875,63 C 369.14337,61.61218 370.08231,61.59148 375.25,62.9375 C 378.42229,63.76378 381.42747,64.70411 381.90625,65 C 382.38502,65.2959 382.77282,68.31371 382.78125,71.71875 C 382.80335,80.65443 384.46371,82.33739 390.03125,77.65625 L 390.03125,67.65625 C 389.93301,67.62415 389.84922,67.59445 389.75,67.5625 L 382.75,65.28125 L 382.78125,59.59375 C 382.79963,52.76392 383.09025,52.28975 388.53125,49.53125 L 390.03125,48.78125 L 390.03125,41.9375 C 388.76504,39.29364 387.75,36.04277 387.75,34.5 C 387.75,32.86082 386.625,29.3985 385.25,26.8125 C 383.875,24.22648 382.75843,20.70557 382.75,19 C 382.72571,14.0813 381.80749,13.37454 376.9375,14.46875 C 374.20484,15.08274 372.03155,15.08772 370.875,14.46875 C 368.78685,13.35121 363.75,7.0404 363.75,5.53125 C 363.75,5.07517 364.96737,2.95233 366.59375,0.5 L 359.59375,0.5 z M 369.625,0.5 C 368.04979,2.66525 367.63391,5.59766 369.1875,7.96875 C 370.10993,9.37656 371.51833,10.75774 372.3125,11.0625 C 375.04343,12.11045 378.56486,10.45728 379.5625,7.65625 C 380.45933,5.13828 380.34314,2.48109 379.5,0.5 L 369.625,0.5 z M 7.53125,0.71875 C 3.494866,1.60069 0.5,5.16024 0.5,9.46875 L 0.5,9.625 C 2.740755,10.63402 5.060334,11.40625 6.21875,11.40625 C 7.43852,11.40625 7.750003,10.07485 7.75,4.875 C 7.75,3.16877 7.688551,1.80402 7.53125,0.71875 z M 383,0.71875 C 382.8427,1.80402 382.75,3.16877 382.75,4.875 C 382.75,10.07486 383.06147,11.40625 384.28125,11.40625 C 385.4452,11.40625 387.78062,10.60979 390.03125,9.59375 L 390.03125,9.46875 C 390.03125,5.16179 387.0342,1.6023 383,0.71875 z M 62.0625,10.09375 C 58.06726,9.83177 48.75,14.50103 48.75,17.3125 C 48.75,17.7669 49.70383,19.33208 50.84375,20.78125 C 53.81233,24.55519 56.87809,24.14164 61.15625,19.40625 C 64.95512,15.20135 65.65006,12.39342 63.40625,10.53125 C 63.09542,10.27328 62.63325,10.13118 62.0625,10.09375 z M 328.4375,10.09375 C 327.86675,10.13118 327.40458,10.27328 327.09375,10.53125 C 324.84995,12.39343 325.57613,15.20134 329.375,19.40625 C 333.65316,24.14165 336.71891,24.55519 339.6875,20.78125 C 340.82742,19.33208 341.75,17.76689 341.75,17.3125 C 341.75,14.50104 332.43274,9.83177 328.4375,10.09375 z M 214.46875,10.53125 C 213.67352,10.489 213.61196,11.75205 214.0625,16.0625 C 215.20388,26.98265 216.72317,27.83904 223.46875,21.21875 C 225.82707,18.90424 227.75,16.48504 227.75,15.875 C 227.75,15.26496 225.1625,13.96495 222,12.96875 C 218.8375,11.97256 215.61929,10.92188 214.84375,10.625 C 214.69906,10.56961 214.58235,10.53729 214.46875,10.53125 z M 175.8125,10.625 C 175.71933,10.62396 175.60926,10.64569 175.5,10.6875 C 174.8125,10.95059 171.6625,11.97256 168.5,12.96875 C 165.3375,13.96495 162.75,15.24626 162.75,15.8125 C 162.75,17.57415 171.06875,25.40625 172.9375,25.40625 C 174.05769,25.40625 174.96049,24.39398 175.34375,22.65625 C 175.67734,21.14375 176.09779,19.45625 176.28125,18.90625 C 176.46472,18.35625 176.64408,16.18386 176.6875,14.0625 C 176.73581,11.70263 176.46471,10.63229 175.8125,10.625 z M 204.125,11.28125 C 200.86536,11.18764 198.11458,13.29004 199.8125,16.59375 C 204.85437,26.4039 207.76423,29.01704 210.5625,26.21875 C 212.53637,24.24488 212.0152,16.99047 209.6875,14.03125 C 208.21955,12.16506 206.08078,11.33742 204.125,11.28125 z M 186.40625,11.34375 C 184.31331,11.47421 182.11276,12.41796 180.84375,14.03125 C 178.51604,16.99046 177.99488,24.24489 179.96875,26.21875 C 182.37662,28.62662 184.42161,27.34205 188.0625,21.1875 C 192.21233,14.17261 192.20418,14.26666 190.5625,12.625 C 189.59589,11.65839 188.03409,11.24228 186.40625,11.34375 z M 89.4375,11.40625 C 88.05654,11.45265 86.78916,11.73367 85.875,12.3125 C 83.81531,13.61665 85.16182,20.28682 88.09375,23.21875 C 90.14065,25.26565 90.83395,25.42948 92.6875,24.4375 C 93.88575,23.79621 95.74399,21.84614 96.8125,20.09375 C 97.88102,18.34135 98.74795,16.37507 98.75,15.71875 C 98.7577,13.2629 93.58037,11.26706 89.4375,11.40625 z M 300.09375,11.40625 C 297.62995,11.46101 295.06313,12.14797 293.625,13.3125 C 291.32507,15.17487 291.33804,15.26483 293,18.75 C 293.93178,20.70396 295.83916,23.07559 297.25,24 C 299.67441,25.58854 299.92864,25.55981 301.90625,23.78125 C 303.05708,22.74626 304.36229,21.00625 304.8125,19.90625 C 306.18485,16.55328 305.88265,12.68174 304.1875,12.03125 C 303.01614,11.58175 301.57203,11.37339 300.09375,11.40625 z M 0.5,12.59375 L 0.5,24.21875 C 1.492514,24.02916 2.400311,23.35598 3.21875,22.1875 C 4.07493,20.96513 4.750003,19.15886 4.75,18.15625 C 4.75,16.11577 2.892956,14.04149 0.5,12.59375 z M 390.03125,12.625 C 387.63104,14.11619 385.75,16.21853 385.75,18.25 C 385.75,19.31407 386.58656,21.19364 387.59375,22.4375 C 388.33815,23.3568 389.15588,23.92361 390.03125,24.125 L 390.03125,12.625 z M 312.5,13.59375 C 310.74972,13.52509 309.01084,15.77231 306.59375,20.9375 C 303.64205,27.24514 303.6101,27.58764 305.3125,29.46875 C 308.36966,32.84688 312.88045,31.82474 314.65625,27.375 C 316.20827,23.48597 315.98636,15.85262 314.28125,14.4375 C 313.66372,13.92499 313.08343,13.61664 312.5,13.59375 z M 77.90625,13.625 C 77.36475,13.68468 76.81875,13.96548 76.25,14.4375 C 73.50724,16.71378 74.83194,28.57082 78.0625,30.625 C 80.04163,31.88344 82.99006,31.51242 84.9375,29.75 C 87.01775,27.86739 86.7845,26.46777 83.09375,19.125 C 81.11007,15.17849 79.53075,13.44595 77.90625,13.625 z M 19.6875,17.4375 L 27.46875,18.03125 C 31.74948,18.36603 36.22865,19.23558 37.40625,19.96875 C 38.58385,20.70192 41.62135,24.43696 44.15625,28.25 C 46.69115,32.06303 48.70349,36.00521 48.625,37.03125 C 48.46182,39.1645 44.65823,50.29377 43.46875,52.125 C 42.38845,53.78814 35.30533,56.85487 28.96875,58.375 L 23.71875,59.625 L 16.6875,55.4375 C 8.99238,50.86592 8.216469,49.6574 7.1875,40.5625 C 6.34072,33.07794 8.690054,27.57555 15.28125,21.5 L 19.6875,17.4375 z M 370.8125,17.4375 L 375.25,21.5 C 377.67941,23.73935 380.59137,27.48369 381.71875,29.8125 C 383.86577,34.24767 384.09056,38.07067 382.6875,45.1875 C 381.56274,50.89263 381.6458,50.79062 373.71875,55.5 L 366.78125,59.625 L 361.5625,58.375 C 355.29002,56.87026 348.39245,53.92825 347.0625,52.1875 C 346.01282,50.81357 341.75,38.05583 341.75,36.28125 C 341.75,34.43453 350.85012,21.38509 353.125,19.96875 C 354.3026,19.23558 358.75052,18.36603 363.03125,18.03125 L 370.8125,17.4375 z M 103.5,17.53125 C 103.36688,17.53702 103.21411,17.57057 103.09375,17.59375 C 100.82938,18.02983 94.75,25.97031 94.75,28.5 C 94.75,32.42396 102.06544,32.87316 106.46875,29.21875 C 108.235,27.75288 108.12538,19.94204 106.3125,18.4375 C 105.61374,17.85759 104.43181,17.49084 103.5,17.53125 z M 286.15625,17.5625 C 283.95497,17.51292 282.60223,19.93419 282.9375,24.59375 C 283.21472,28.44662 283.64476,29.10791 286.875,30.6875 C 289.65589,32.04737 291.11147,32.23431 293.125,31.46875 C 296.66058,30.12453 296.48529,27.52599 292.46875,22.25 C 290.10487,19.14489 287.86836,17.60106 286.15625,17.5625 z M 68.46875,17.6875 C 66.23928,17.89019 62.41875,20.93942 60.46875,24.28125 C 58.7005,27.31159 58.72277,27.3441 61.25,29 C 62.64995,29.91728 65.81418,30.87818 68.28125,31.15625 L 72.75,31.6875 L 72.75,27.59375 C 72.75,22.66719 71.31405,18.54932 69.3125,17.78125 C 69.06821,17.68751 68.78725,17.65854 68.46875,17.6875 z M 321.59375,17.6875 C 321.4518,17.70278 321.3409,17.73438 321.21875,17.78125 C 319.21719,18.54932 317.75,22.66718 317.75,27.59375 L 317.75,31.6875 L 322.25,31.15625 C 324.71707,30.87817 327.8813,29.91728 329.28125,29 C 331.80848,27.3441 331.7995,27.31158 330.03125,24.28125 C 327.94197,20.70073 323.72293,17.45829 321.59375,17.6875 z M 195.25,18.40625 C 190.60735,18.40625 186.76504,27.01506 189.96875,30.21875 C 191.52307,31.77307 199.00819,31.77308 200.5625,30.21875 C 203.7662,27.01505 199.89265,18.40625 195.25,18.40625 z M 159.03125,20.3125 C 157.13144,20.20615 155.26089,20.89535 153.6875,22.46875 C 150.34913,25.80712 151.65656,27.64496 159.59375,30.875 C 165.80224,33.40157 167.02346,33.62255 167.8125,32.375 C 169.02155,30.46337 168.97777,29.72035 167.625,27.09375 C 165.45586,22.88209 162.1976,20.48975 159.03125,20.3125 z M 231.375,20.40625 C 229.37358,20.45301 227.37714,21.21289 226.0625,22.65625 C 222.92963,26.09585 221.59524,29.27132 222.3125,31.53125 C 223.07441,33.93182 224.83145,33.6744 233.28125,29.9375 C 239.19755,27.32104 239.97595,25.6322 236.75,22.40625 C 235.3696,21.02585 233.37642,20.35949 231.375,20.40625 z M 25.375,21.40625 C 19.158212,21.40625 15.499523,25.2329 12.65625,34.59375 C 10.84699,40.55034 10.684363,42.19359 11.65625,45.4375 C 13.85755,52.78478 22.450181,55.58564 33.40625,52.53125 C 38.94679,50.98664 41.54242,48.72127 43.25,43.90625 C 44.0302,41.70625 44.69461,39.59545 44.71875,39.21875 C 44.94017,35.76369 37.11514,25.23143 32.5625,22.84375 C 31.07731,22.06482 27.83501,21.40625 25.375,21.40625 z M 365.125,21.40625 C 359.38338,21.40625 356.15517,23.16501 351.5,28.78125 C 345.4463,36.08475 344.83896,39.57375 348.40625,46.65625 C 350.13901,50.09648 353.62429,51.89419 361.46875,53.4375 C 367.21085,54.56719 367.97347,54.4755 372.3125,52.375 C 375.44165,50.86021 377.43663,49.11522 378.34375,47.03125 C 380.15988,42.85898 380.10584,41.68976 377.75,34.0625 C 375.01604,25.21095 371.20366,21.40625 365.125,21.40625 z M 362.375,29.3125 C 364.61524,29.26523 367.0537,29.89701 369.375,31.3125 C 373.39146,33.76167 373.99918,36.42076 371.65625,41.15625 C 369.68737,45.13571 365.34039,48.40625 362.03125,48.40625 C 357.93008,48.40625 352.94636,39.64752 354.375,34.9375 C 355.45321,31.38283 358.64126,29.39128 362.375,29.3125 z M 28.9375,29.40625 C 31.06643,29.42357 32.95827,29.96562 34.03125,31.15625 C 37.45237,34.95248 36.81751,41.56852 32.625,46.03125 C 29.98437,48.84206 27.60451,49.01978 23.65625,46.6875 C 20.22422,44.66015 16.735018,38.20652 17.5,35.28125 C 18.396706,31.85223 24.253864,29.36814 28.9375,29.40625 z M 246.84375,30.90625 C 244.64875,30.87295 243.77357,33.51413 243.15625,40.15625 C 242.59486,46.19661 242.72353,47.46693 244.03125,47.96875 C 246.28167,48.83232 249.56917,46.77288 251.8125,43.09375 C 254.99048,37.88175 254.26313,34.2282 249.53125,31.78125 C 248.46922,31.23206 247.57542,30.91735 246.84375,30.90625 z M 143.625,30.9375 C 142.8784,30.96124 141.99687,31.27977 140.90625,31.84375 C 139.11515,32.76996 137.53026,34.54108 137.15625,36.03125 C 135.86613,41.1715 142.34536,49.5583 146.40625,48 C 147.81786,47.45831 147.94944,46.33703 147.375,40.15625 C 146.75349,33.46906 145.86479,30.86628 143.625,30.9375 z M 153.53125,31.625 C 151.00309,31.72569 149.75,33.71323 149.75,37.59375 C 149.75,45.55066 153.8701,47.70754 159.6875,42.8125 C 164.93961,38.39314 163.16069,33.75869 155.5,31.875 C 154.78074,31.69814 154.11467,31.60176 153.53125,31.625 z M 269.25,31.6875 C 267.9989,31.65594 267.00308,32.15317 265.84375,33.3125 C 263.07229,36.08396 263.21021,38.61976 266.34375,42.34375 C 269.34398,45.90932 271.92956,46.22669 274.75,43.40625 C 278.77351,39.38274 276.61641,33.40907 270.59375,31.90625 C 270.1005,31.78317 269.66703,31.69802 269.25,31.6875 z M 363.6875,31.6875 C 360.20633,31.53774 356.75,33.78742 356.75,37.625 C 356.75,41.07777 360.0812,45.40625 362.71875,45.40625 C 365.01158,45.40625 368.76861,42.57184 369.78125,40.0625 C 370.96455,37.13027 370.94385,37.13705 369.25,34.71875 C 367.86315,32.73874 365.7762,31.77736 363.6875,31.6875 z M 27.03125,31.71875 C 26.6195,31.74397 26.21816,31.81029 25.78125,31.90625 C 19.526682,33.27998 18.457379,39.99597 23.90625,43.8125 C 26.97182,45.95971 28.67963,45.84089 31.4375,43.25 C 36.38337,38.6036 33.20745,31.34039 27.03125,31.71875 z M 236.53125,31.71875 C 234.62047,31.78297 232.19809,32.57824 230,34 C 226.79224,36.07482 227.15022,39.7046 230.84375,42.8125 C 234.40167,45.8063 238.22138,46.17345 239.6875,43.65625 C 241.24814,40.9768 240.99023,33.85585 239.28125,32.4375 C 238.65347,31.91649 237.67772,31.68022 236.53125,31.71875 z M 120.5,31.8125 C 117.16687,32.00239 113.75,34.79982 113.75,38.5625 C 113.75,41.82125 116.87335,45.40625 119.6875,45.40625 C 120.7386,45.40625 122.76359,44.03594 124.1875,42.34375 C 127.32103,38.61977 127.45896,36.08397 124.6875,33.3125 C 123.53212,32.15712 122.01506,31.72619 120.5,31.8125 z M 60.90625,32.46875 C 59.24694,32.43459 57.79179,32.80196 56.96875,33.625 C 54.99588,35.59787 55.57936,39.32936 58.3125,42.0625 C 60.38252,44.13252 61.49445,44.52713 64.0625,44.03125 C 65.81354,43.69314 68.0375,42.47178 69,41.3125 C 71.00106,38.90234 70.94428,39.10373 70.125,36.96875 C 69.15983,34.45355 64.55674,32.54391 60.90625,32.46875 z M 329.625,32.5 C 325.97497,32.57438 321.33802,34.42793 320.375,36.9375 C 319.50477,39.20527 321.4216,42.34586 324.375,43.46875 C 328.18185,44.91611 329.63501,44.64627 332.3125,41.96875 C 334.9471,39.33416 335.50852,35.571 333.5625,33.625 C 332.74066,32.80316 331.28411,32.46619 329.625,32.5 z M 176.4375,32.96875 C 173.54664,32.66316 172.90181,37.48488 175.75,42.15625 C 177.63186,45.24273 179.62628,46.21747 181.09375,44.75 C 182.86456,42.9792 180.51858,34.88575 177.8125,33.4375 C 177.31141,33.16933 176.85048,33.01241 176.4375,32.96875 z M 214.09375,33.03125 C 212.19555,33.11121 209.92072,36.03939 209.21875,39.78125 C 208.03487,46.09185 211.48366,47.56468 214.78125,42.15625 C 217.12092,38.31891 217.3325,35.11927 215.34375,33.46875 C 214.97062,33.15908 214.5318,33.0128 214.09375,33.03125 z M 195.25,33.90625 C 186.28031,33.90625 186.27202,33.91583 185.96875,36.53125 C 185.47511,40.78849 188.01497,42.40625 195.25,42.40625 C 199.78595,42.40625 202.09003,41.94125 203.25,40.78125 C 204.14934,39.88192 204.73083,37.983 204.5625,36.53125 C 204.25923,33.91581 204.21969,33.90625 195.25,33.90625 z M 87.125,34.8125 C 86.14804,34.84458 85.02854,34.9354 83.8125,35.0625 C 76.71046,35.80481 76.1137,36.15345 75.1875,39.84375 L 74.46875,42.71875 L 79.21875,42.0625 C 81.82477,41.70531 85.91859,40.54149 88.34375,39.46875 C 94.82579,36.60144 93.9637,34.58792 87.125,34.8125 z M 302.03125,34.8125 C 296.47802,34.89332 296.1372,36.80623 302.15625,39.46875 C 304.58141,40.54151 308.70648,41.7053 311.3125,42.0625 L 316.0625,42.71875 L 315.34375,39.84375 C 314.41754,36.15345 313.78954,35.8048 306.6875,35.0625 C 304.86344,34.87185 303.31277,34.79385 302.03125,34.8125 z M 131.875,37.4375 C 130.62082,37.50427 122.94032,48.95423 123.65625,49.6875 C 124.86971,50.93033 135.28367,52.8196 137.09375,52.125 C 138.01091,51.77306 138.75,50.97154 138.75,50.34375 C 138.75,48.83418 132.65957,37.39574 131.875,37.4375 z M 258.65625,37.4375 C 257.38695,37.37219 251.60488,49.57547 252.1875,51.09375 C 252.66906,52.34869 253.78485,52.57108 257.53125,52.125 C 260.13214,51.8153 263.55386,51.06797 265.125,50.46875 L 267.96875,49.375 L 265.5625,46.15625 C 264.2321,44.37743 262.25326,41.68271 261.1875,40.1875 C 260.12175,38.69229 258.99211,37.45478 258.65625,37.4375 z M 167.6875,41.03125 C 166.16915,41.1604 163.98654,42.48004 160.46875,45.03125 C 156.78458,47.70312 153.75,50.43908 153.75,51.09375 C 153.75,52.97447 156.71033,55.40625 158.96875,55.40625 C 161.62024,55.40625 167.17363,51.97711 169.6875,48.78125 C 171.07158,47.02168 171.40216,45.66578 170.84375,44.15625 C 170.03611,41.97297 169.20585,40.9021 167.6875,41.03125 z M 222.40625,41.03125 C 221.20837,41.08267 220.47502,41.95288 219.84375,43.625 C 218.7046,46.64239 219.98365,48.82633 224.96875,52.4375 C 229.53067,55.74214 232.82844,56.20283 235.1875,53.84375 C 237.75208,51.27917 237.10642,50.13424 230.15625,45.09375 C 226.28186,42.28392 223.94639,40.96514 222.40625,41.03125 z M 95.15625,43.8125 C 94.30411,43.85958 93.45959,44.0012 92.65625,44.28125 C 90.89554,44.89503 88.23585,45.40625 86.75,45.40625 C 79.30721,45.40625 75.47652,49.02473 74.15625,57.28125 C 73.53023,61.19616 73.70491,61.53908 78.625,66.28125 C 81.4428,68.99715 83.75,71.69565 83.75,72.28125 C 83.75,75.3839 94.6208,77.61833 98.8125,75.375 C 101.18072,74.10756 103.75,69.33083 103.75,66.1875 C 103.75,64.90148 104.65,62.06384 105.75,59.90625 C 106.85,57.74866 107.75,55.16728 107.75,54.15625 C 107.75,48.52516 101.12124,43.48291 95.15625,43.8125 z M 294.09375,43.8125 C 288.50015,44.19575 282.75,48.92739 282.75,54.15625 C 282.75,55.16727 283.65,57.74866 284.75,59.90625 C 285.85,62.06384 286.75,64.90147 286.75,66.1875 C 286.75,69.33084 289.35053,74.10756 291.71875,75.375 C 295.91045,77.61833 306.75,75.3839 306.75,72.28125 C 306.75,71.69565 309.05721,68.99715 311.875,66.28125 C 316.7951,61.53908 316.96977,61.19615 316.34375,57.28125 C 315.02349,49.02474 311.19279,45.40625 303.75,45.40625 C 302.26415,45.40625 299.60445,44.89503 297.84375,44.28125 C 296.63873,43.86118 295.38458,43.72406 294.09375,43.8125 z M 195.1875,45.40625 C 186.6979,45.40625 185.8149,48.57694 192.21875,56.1875 C 195.30767,59.85848 195.77404,59.7312 199.8125,54.15625 C 204.5086,47.67348 203.32394,45.40625 195.1875,45.40625 z M 90.0625,48.46875 C 92.90636,48.31691 96.209,50.88874 99.71875,56.1875 C 101.38629,58.70504 102.75,61.34297 102.75,62.0625 C 102.75,65.00274 91.00857,69.07875 85.8125,67.9375 C 82.04057,67.10905 81.18832,63.6014 83.15625,57.0625 C 84.83431,51.48674 87.21864,48.62059 90.0625,48.46875 z M 300.59375,48.5 C 303.45785,48.60452 305.66209,51.381 307.34375,56.96875 C 308.80432,61.82185 308.87195,62.64634 308.09375,65.59375 C 307.54231,67.68233 302.8183,68.80707 298.5,67.875 C 293.80254,66.86108 287.75,63.58578 287.75,62.0625 C 287.75,60.00703 293.55886,51.76329 296.25,50 C 297.85245,48.95003 299.29189,48.45249 300.59375,48.5 z M 182.625,50.40625 C 179.34636,50.40625 177.4746,59.10036 179.8125,63.46875 C 181.31845,66.28264 187.17157,66.11026 189.21875,63.1875 C 191.13858,60.44656 191.1426,60.03696 189.28125,56.4375 C 187.88376,53.73505 184.22029,50.40625 182.625,50.40625 z M 207.8125,50.40625 C 206.09597,50.40625 201.96974,54.50575 200.78125,57.375 C 199.71911,59.93924 199.7658,60.78413 201.15625,62.90625 C 203.17487,65.98705 209.06173,66.44755 210.6875,63.65625 C 213.13898,59.44732 211.17137,50.40625 207.8125,50.40625 z M 173.65625,51.40625 C 170.71281,51.40625 162.75,57.75062 162.75,60.09375 C 162.75,61.74746 169.90738,65.40625 173.125,65.40625 C 174.47608,65.40625 175.81634,64.84375 176.09375,64.15625 C 177.39762,60.92492 175.58117,51.40625 173.65625,51.40625 z M 217.40625,51.65625 C 215.74442,51.67646 214.94238,53.31053 214.21875,57.59375 C 212.88975,65.46006 216.03844,67.37227 223.8125,63.40625 C 225.99059,62.29507 227.75,60.75683 227.75,60 C 227.75,58.2922 221.64748,52.84571 218.6875,51.90625 C 218.20082,51.75179 217.78975,51.65159 217.40625,51.65625 z M 90.6875,52.25 C 89.19057,52.19127 87.78401,52.65471 86.875,53.75 C 85.08482,55.90704 84.45568,60.97957 85.6875,63.28125 C 87.23334,66.16969 93.90999,66.24626 96.75,63.40625 C 99.13791,61.01834 99.22821,60.17333 97.3125,56.46875 C 95.98327,53.89831 93.18238,52.34788 90.6875,52.25 z M 299.53125,52.4375 C 298.46531,52.44983 297.34253,52.63599 296.3125,53.03125 C 294.69619,53.65149 291.75,58.38869 291.75,60.375 C 291.75,64.71277 302.42446,67.41034 304.71875,63.65625 C 305.97047,61.6081 305.37196,55.84217 303.6875,53.8125 C 302.92024,52.88801 301.30782,52.41694 299.53125,52.4375 z M 0.5,52.65625 L 0.5,64.8125 C 1.253515,64.56953 1.959746,64.24405 2.53125,63.84375 C 6.536377,61.03845 4.837548,53.98035 0.5,52.65625 z M 390.03125,52.6875 C 385.6439,54.09433 383.91021,61.00103 387.96875,63.84375 C 388.54555,64.24775 389.26964,64.56877 390.03125,64.8125 L 390.03125,52.6875 z M 335.28125,53.40625 C 333.29586,53.42042 331.2675,54.22125 329.84375,56.03125 C 324.32851,63.04274 330.48516,68.32425 338.5,63.4375 C 340.57116,62.17469 341.75,60.64307 341.75,59.25 C 341.75,55.59499 338.59023,53.38264 335.28125,53.40625 z M 55.28125,53.4375 C 51.96848,53.3938 48.75,55.54734 48.75,59.09375 C 48.75,63.46469 58.4422,67.33906 61.5625,64.21875 C 63.37216,62.40909 63.00548,58.97808 60.6875,56.03125 C 59.29286,54.25825 57.26891,53.46372 55.28125,53.4375 z M 128.1875,54.40625 C 124.74125,54.40625 123.5077,54.91588 121.84375,57.03125 C 119.43029,60.09946 119.17442,62.69897 121.15625,64.34375 C 122.23411,65.2383 124.13426,65.13117 129.28125,63.9375 C 132.97193,63.08158 136.38856,62.14439 136.875,61.84375 C 140.40301,59.66332 134.26265,54.40625 128.1875,54.40625 z M 262.25,54.40625 C 257.23366,54.40625 251.99604,57.95854 253.03125,60.65625 C 253.87974,62.86738 267.45836,65.90318 269.375,64.3125 C 271.34748,62.67549 271.09723,60.09475 268.6875,57.03125 C 267.01314,54.90264 265.7817,54.40625 262.25,54.40625 z M 146.625,55.40625 C 142.78733,55.40625 142.89048,57.77791 146.875,61.5 C 149.85078,64.2798 152.67317,65.17057 154.09375,63.75 C 156.72757,61.11619 151.6192,55.40625 146.625,55.40625 z M 243.90625,55.40625 C 240.06889,55.40625 235.57501,59.02032 235.96875,61.78125 C 236.43537,65.05313 239.96639,64.95096 243.59375,61.5625 C 247.62663,57.79523 247.75964,55.40625 243.90625,55.40625 z M 195.25,63.40625 C 195.12626,63.40625 193.32626,64.75625 191.25,66.40625 C 188.22786,68.80795 186.50622,69.40625 182.625,69.40625 L 177.78125,69.40625 L 176.625,74 C 175.71075,77.63081 174.69099,79.06454 171.625,81 C 167.4335,83.64598 167.27615,84.16837 169.1875,89.40625 C 170.23537,92.27787 170.2353,93.60136 169.125,96.78125 C 167.27591,102.07702 167.26285,102.05879 171.625,104.8125 C 174.69098,106.74796 175.71075,108.21294 176.625,111.84375 L 177.78125,116.40625 L 182.625,116.40625 C 186.50622,116.40625 188.22786,117.00455 191.25,119.40625 C 193.32626,121.05625 195.12626,122.40625 195.25,122.40625 C 195.37374,122.40625 197.17374,121.05625 199.25,119.40625 C 202.27214,117.00455 203.99378,116.40625 207.875,116.40625 L 212.71875,116.40625 L 213.875,111.84375 C 214.78925,108.21294 215.84028,106.74796 218.90625,104.8125 C 223.26841,102.05879 223.25535,102.07702 221.40625,96.78125 C 220.29595,93.60136 220.29589,92.27787 221.34375,89.40625 C 223.2551,84.16837 223.09776,83.64598 218.90625,81 C 215.84027,79.06454 214.78926,77.63081 213.875,74 L 212.71875,69.40625 L 207.875,69.40625 C 203.99378,69.40625 202.27214,68.80795 199.25,66.40625 C 197.17374,64.75625 195.37374,63.40625 195.25,63.40625 z M 68.5625,63.5 C 68.13552,63.55752 67.7953,64.01254 67.1875,64.84375 C 66.40682,65.91137 65.75,67.32413 65.75,67.96875 C 65.75,69.89586 75.51281,78.40625 77.71875,78.40625 C 78.84231,78.40625 79.75,78.04945 79.75,77.59375 C 79.75,76.21308 74.06151,68.01624 71.25,65.375 C 69.7983,64.01121 69.11147,63.42604 68.5625,63.5 z M 321.75,63.5 C 321.23221,63.56842 320.57164,64.16274 319.28125,65.375 C 316.46974,68.01625 310.75,76.21307 310.75,77.59375 C 310.75,79.86391 315.39795,77.91053 319.8125,73.78125 C 325.15271,68.78611 325.52206,67.82273 323.34375,64.84375 C 322.64912,63.89379 322.26779,63.43158 321.75,63.5 z M 48.71875,65.5625 C 48.15148,65.55565 47.62919,65.62375 47.21875,65.78125 C 45.46638,66.45369 45.30317,71.74106 46.875,76.25 C 48.37353,80.54868 51.45098,80.39276 56.09375,75.75 C 58.11042,73.73334 59.75,71.95084 59.75,71.8125 C 59.75,69.32599 52.68967,65.61043 48.71875,65.5625 z M 162.75,65.59375 C 158.16593,65.69967 157.50817,69.90145 161.875,74.875 C 165.26151,78.73202 168.10106,79.31696 170.9375,76.75 C 175.27746,72.82239 172.24237,67.26723 164.96875,65.8125 C 164.15782,65.65031 163.40487,65.57862 162.75,65.59375 z M 227.71875,65.59375 C 227.05474,65.57514 226.32276,65.65815 225.5,65.8125 C 218.43022,67.1388 215.509,72.28735 219.40625,76.59375 C 221.96497,79.42111 225.1986,78.81303 228.65625,74.875 C 233.04629,69.87502 232.36685,65.72401 227.71875,65.59375 z M 257.875,65.625 C 254.22221,65.64535 252.4418,68.07112 253.125,72.28125 C 254.37304,79.97205 260.86405,81.54953 264.78125,75.125 C 265.86213,73.35226 266.74796,71.41474 266.75,70.8125 C 266.75655,68.89421 263.1278,66.3598 259.5625,65.78125 C 258.96618,65.68448 258.39683,65.62209 257.875,65.625 z M 17.96875,65.65625 C 17.280778,65.65173 16.510069,65.75683 15.6875,65.9375 C 11.98026,66.75175 10.577979,69.33891 10.96875,74.59375 C 11.51697,81.96594 15.787803,82.32595 20.5,75.40625 C 24.167239,70.02102 22.784554,65.68789 17.96875,65.65625 z M 131.96875,65.65625 C 131.62687,65.67313 131.27332,65.72168 130.90625,65.78125 C 128.97235,66.09508 126.47882,67.23994 125.375,68.34375 C 123.44662,70.27213 123.43908,70.5019 125.0625,73.90625 C 128.11542,80.30829 133.58544,80.97959 136.5,75.3125 C 139.31581,69.83742 137.09692,65.40312 131.96875,65.65625 z M 342.1875,65.65625 C 338.99436,65.75882 331.93574,68.46957 331.3125,70.09375 C 330.97624,70.97003 331.52424,72.64406 332.5,73.78125 C 337.95311,80.13645 341.94773,81.16306 343.59375,76.65625 C 345.15365,72.38525 345.00841,66.43202 343.3125,65.78125 C 343.04401,65.67822 342.64366,65.6416 342.1875,65.65625 z M 372.1875,65.75 C 371.32023,65.80896 370.4862,66.01444 369.8125,66.375 C 366.46932,68.16422 367.40693,73.04487 372.0625,78.15625 C 374.3312,80.64708 376.73354,81.04773 378.5625,79.21875 C 380.01435,77.7669 380.15544,71.00524 378.78125,68.4375 C 377.83971,66.67823 374.78932,65.57311 372.1875,65.75 z M 37.625,65.90625 C 36.88648,65.93859 36.08665,66.10004 35.28125,66.40625 C 30.94814,68.0537 31.33639,72.55028 36.375,79.15625 C 39.0156,82.61825 40.62296,83.1583 42.5625,81.21875 C 44.07517,79.70608 44.10708,72.28407 42.625,69.03125 C 41.65094,66.89341 39.84056,65.80924 37.625,65.90625 z M 352,65.90625 C 351.64129,65.92894 351.27168,65.97511 350.9375,66.0625 C 348.24055,66.76777 346.55126,71.16921 346.9375,76.4375 C 347.53983,84.65296 352.30369,83.9819 356.71875,75.0625 C 359.10055,70.25078 358.91969,70.9772 358.125,68.90625 C 357.42839,67.09091 354.511,65.74741 352,65.90625 z M 144.375,66.375 C 142.49241,66.3341 140.86171,68.74768 139.15625,73.90625 C 136.30338,82.53545 136.28313,83.08822 138.6875,84.375 C 141.98166,86.13798 145.35122,84.05746 147.0625,79.21875 C 149.08403,73.50277 149.10622,69.91871 147.125,67.9375 C 146.11813,66.93063 145.23072,66.39359 144.375,66.375 z M 246.15625,66.375 C 245.30053,66.39359 244.38186,66.93063 243.375,67.9375 C 241.32388,69.98862 241.32904,72.80794 243.375,78.8125 C 245.17284,84.08888 248.38961,86.20688 251.8125,84.375 C 254.21688,83.08822 254.19661,82.53545 251.34375,73.90625 C 249.63829,68.74768 248.03884,66.3341 246.15625,66.375 z M 118.75,72.40625 C 116.42027,72.40625 114.75,75.26494 114.75,79.28125 C 114.75,84.38414 123.00252,88.94482 127.6875,86.4375 C 128.81976,85.83153 129.75,84.94898 129.75,84.46875 C 129.75,82.5018 120.54782,72.40625 118.75,72.40625 z M 271.78125,72.40625 C 269.98343,72.40625 260.75,82.50179 260.75,84.46875 C 260.75,86.11295 264.88533,87.5423 267.78125,86.90625 C 269.37317,86.55661 271.81793,85.38315 273.21875,84.28125 C 277.26823,81.09592 276.21572,72.40625 271.78125,72.40625 z M 154.53125,72.5 C 153.10745,72.62775 151.91367,74.09488 150.65625,76.9375 C 149.55178,79.43433 148.76461,82.47182 148.9375,83.6875 C 149.20696,85.58216 149.82122,85.89712 153.25,85.75 C 155.45,85.6556 158.4875,85.07949 160,84.5 C 163.58745,83.12553 163.50649,80.75811 159.6875,76.125 C 157.59234,73.58321 155.95505,72.37225 154.53125,72.5 z M 235.9375,72.5 C 234.51542,72.42086 232.88681,73.64912 230.8125,76.15625 C 226.43601,81.44595 227.06016,83.57231 233.46875,85.28125 C 236.32442,86.04277 239.36191,86.3913 240.21875,86.0625 C 242.30225,85.26299 242.12815,81.82657 239.78125,76.65625 C 238.55997,73.96569 237.35958,72.57914 235.9375,72.5 z M 27.28125,72.59375 C 26.14392,72.5817 24.993881,73.51947 23.40625,75.40625 C 20.17135,79.25071 19.292212,82.1433 20.78125,83.9375 C 22.45086,85.94924 28.46523,86.87404 31.34375,85.5625 C 34.6505,84.05584 34.58533,79.5381 31.1875,75.5 C 29.57131,73.57928 28.41858,72.6058 27.28125,72.59375 z M 363.46875,72.71875 C 362.33377,72.68474 361.20347,73.53994 359.71875,75.1875 C 356.11452,79.18702 355.7469,83.80918 358.90625,85.5 C 361.30482,86.78367 367.19558,86.12656 369.34375,84.34375 C 371.29602,82.7235 371.11271,81.24294 368.5,77.40625 C 366.36073,74.26479 364.92801,72.76248 363.46875,72.71875 z M 195.25,72.90625 C 201.60478,72.90625 202.69129,73.22429 206.9375,76.28125 C 210.18017,78.61574 212.25056,81.12854 213.6875,84.46875 C 214.82747,87.11868 215.75537,90.9957 215.75,93.09375 C 215.73508,98.92057 211.65287,106.40906 206.59375,109.90625 C 202.78291,112.54055 201.39669,112.90625 195.25,112.90625 C 188.89522,112.90625 187.83996,112.58821 183.59375,109.53125 C 172.03961,101.21312 172.03962,84.59937 183.59375,76.28125 C 187.83995,73.2243 188.89522,72.90625 195.25,72.90625 z M 63.59375,74.40625 C 62.5667,74.40625 59.67755,76.2985 57.1875,78.59375 C 53.7161,81.79357 52.73894,83.36796 52.96875,85.34375 C 53.17777,87.14087 53.95825,87.99538 55.53125,88.21875 C 57.96551,88.5644 68.34382,83.12483 69.0625,81.125 C 69.90025,78.79386 66.32938,74.40625 63.59375,74.40625 z M 326.625,74.59375 C 325.2852,74.61085 324.1053,75.40469 322.875,76.96875 C 320.20078,80.36847 320.96736,81.81168 327.25,85.40625 C 332.35603,88.32762 335.71672,89.12701 337.09375,87.75 C 338.90774,85.93601 337.42883,82.35436 333.28125,78.53125 C 330.36569,75.84378 328.3476,74.57177 326.625,74.59375 z M 195,76.59375 C 192.37892,76.63592 189.73117,77.29994 187.28125,78.6875 C 179.38246,83.16113 176.62231,93.06651 181.0625,100.90625 C 183.83265,105.79731 189.82955,109.375 195.25,109.375 C 200.67045,109.375 206.69861,105.79732 209.46875,100.90625 C 210.7684,98.61154 211.71875,95.21271 211.71875,92.90625 C 211.71875,90.59979 210.76841,87.23221 209.46875,84.9375 C 206.39313,79.50708 200.76637,76.50097 195,76.59375 z M 0.5,82.3125 L 0.5,91 C 0.59441,90.99246 0.687271,90.97627 0.75,90.9375 C 1.31126,90.59062 1.750003,88.66519 1.75,86.6875 C 1.75,84.91563 1.47027,83.70571 0.5,82.3125 z M 390.03125,82.3125 C 389.06098,83.70571 388.75,84.91563 388.75,86.6875 C 388.75,89.18627 389.13256,90.56834 390.03125,90.84375 L 390.03125,82.3125 z M 195.59375,83.75 C 198.7269,83.85293 201.75959,85.497 203.3125,88.5 C 205.08809,91.93363 205.10785,94.18608 203.375,97.3125 C 201.90156,99.97091 198.22038,102.32081 195.46875,102.375 C 187.45369,102.53282 183.05775,92.0985 188.75,86.40625 C 190.64031,84.51594 193.15685,83.66995 195.59375,83.75 z M 79.09375,84.4375 C 76.23083,84.49052 75.25,86.61186 75.25,92.90625 C 75.25,97.66078 75.66498,99.75162 76.75,100.4375 C 79.01637,101.87017 79.67086,101.67289 82.84375,98.5 C 84.60592,96.73783 85.75,94.50612 85.75,92.90625 C 85.75,90.40397 81.03351,84.40157 79.09375,84.4375 z M 311.65625,84.53125 C 310.6537,84.53853 309.65505,85.37618 307.6875,87.34375 C 304.43598,90.59527 303.97826,93.85488 306.3125,97.1875 C 309.37561,101.5607 314.05645,102.27781 315.15625,98.5625 C 316.12208,95.29978 315.0843,86.24776 313.65625,85.34375 C 312.84327,84.8291 312.25778,84.52688 311.65625,84.53125 z M 8.625,85.4375 C 8.467958,85.45387 8.362475,85.48128 8.28125,85.5625 C 7.16674,86.67701 6.520617,93.289 7.1875,96.84375 C 7.87516,100.50929 9.423964,101.32603 11.59375,99.15625 C 13.47355,97.27645 12.698767,87.40314 10.5625,86.0625 C 9.86041,85.62189 9.096125,85.38839 8.625,85.4375 z M 111.84375,85.4375 C 111.07059,85.68376 110.75,87.89787 110.75,92.90625 C 110.75,97.03125 111.14216,100.40625 111.625,100.40625 C 112.97014,100.40625 119.7861,97.44525 122.46875,95.6875 C 123.78424,94.82556 124.72913,93.42771 124.5625,92.5625 C 124.2661,91.02342 114.47196,85.47063 112,85.4375 C 111.94435,85.43675 111.89529,85.42108 111.84375,85.4375 z M 278.5,85.4375 C 277.8125,85.44672 274.775,86.69572 271.75,88.21875 C 267.94228,90.13585 266.25,91.5713 266.25,92.90625 C 266.25,94.2412 267.94228,95.67664 271.75,97.59375 C 274.775,99.11677 277.8125,100.39704 278.5,100.40625 C 279.39038,100.41818 279.75,98.24852 279.75,92.90625 C 279.75,87.56398 279.39038,85.42557 278.5,85.4375 z M 381.375,85.5 C 380.93677,85.56377 380.43682,85.7689 379.96875,86.0625 C 377.88285,87.37091 377.06088,96.85179 378.84375,99 C 380.45525,100.94174 382.51002,100.76966 383.125,98.65625 C 383.82113,96.26396 383.25882,86.57132 382.375,85.6875 C 382.17816,85.49065 381.81323,85.43623 381.375,85.5 z M 69.15625,86.28125 C 66.0098,86.14892 61.42747,88.30724 59.71875,91.5 C 58.1271,94.47404 63.35528,99.40625 68.09375,99.40625 C 70.01523,99.40625 71.81634,98.84375 72.09375,98.15625 C 72.82359,96.34751 72.86621,89.8501 72.15625,88 C 71.72923,86.88722 70.58645,86.3414 69.15625,86.28125 z M 322.15625,86.40625 C 318.64,86.40625 317.75,87.6934 317.75,92.90625 C 317.75,98.23468 318.59784,99.40625 322.4375,99.40625 C 324.9526,99.40625 326.72024,98.59227 328.875,96.4375 C 331.33018,93.98231 331.68585,93.13187 330.8125,91.5 C 329.2015,88.48983 325.67683,86.40625 322.15625,86.40625 z M 102.96875,86.4375 C 99.69027,86.45614 98.41363,87.20724 96.84375,90.1875 C 93.45651,96.61786 103.07339,103.10583 107.21875,97.1875 C 108.07493,95.96513 108.75,94.03649 108.75,92.90625 C 108.75,89.55928 105.95061,86.42054 102.96875,86.4375 z M 287.5625,86.4375 C 284.58064,86.42055 281.75,89.55928 281.75,92.90625 C 281.75,96.25322 284.58064,99.42321 287.5625,99.40625 C 290.73221,99.38823 292.02056,98.62542 293.5625,95.90625 C 295.00569,93.36124 295.02764,92.75858 293.625,90.09375 C 292.11183,87.21897 290.81522,86.45599 287.5625,86.4375 z M 195.5,86.46875 C 193.68211,86.43556 191.8074,86.96416 190.59375,88.0625 C 188.31512,90.12463 188.20957,95.16646 190.40625,97.59375 C 192.46838,99.87238 197.51021,99.94668 199.9375,97.75 C 202.21613,95.68787 202.29043,90.6773 200.09375,88.25 C 199.06268,87.11068 197.31789,86.50194 195.5,86.46875 z M 161.375,87.5 C 160.71759,87.5089 159.89988,87.5755 158.90625,87.6875 C 147.96017,88.92128 149.62143,98.40625 160.78125,98.40625 C 162.62187,98.40625 164.22322,97.60881 165.21875,96.1875 C 167.18155,93.38521 167.15644,92.43155 165.125,89.53125 C 164.05807,88.00799 163.34722,87.47331 161.375,87.5 z M 231.0625,87.5 C 228.31245,87.43432 225.98141,88.49455 224.84375,90.53125 C 223.5198,92.9015 223.57601,93.44681 225.1875,95.90625 C 226.8157,98.39119 227.37258,98.59726 231.5625,98.125 C 234.6644,97.77538 236.77437,96.88123 237.96875,95.40625 C 240.15611,92.70497 238.93017,89.80674 235,88.3125 C 233.64633,87.79784 232.31252,87.52985 231.0625,87.5 z M 345.6875,88.4375 C 343.74126,88.47989 341.75,90.20796 341.75,92.90625 C 341.75,97.10944 346.69953,99.0694 348.6875,95.65625 C 349.99119,93.41795 349.98357,92.70707 348.71875,90.34375 C 347.99499,88.9914 346.85524,88.41206 345.6875,88.4375 z M 44.6875,88.46875 C 43.48919,88.54198 42.31632,89.26397 41.625,90.78125 C 39.56698,95.2981 44.22114,99.56012 47.5625,96.21875 C 48.2225,95.55875 48.75,94.06125 48.75,92.90625 C 48.75,90.03353 46.68469,88.3467 44.6875,88.46875 z M 26.1875,88.90625 C 19.437202,88.90625 18.404249,89.14482 17.75,90.90625 C 17.34143,92.00625 17.423363,93.98387 17.90625,95.28125 C 18.74111,97.52428 19.140985,97.61214 26.3125,97.25 C 31.5529,96.98537 34.13184,96.40197 34.78125,95.375 C 35.96411,93.50444 35.97355,92.29449 34.78125,90.40625 C 34.07373,89.28577 31.91285,88.90625 26.1875,88.90625 z M 364.34375,88.90625 C 356.81273,88.90625 354.78124,89.75484 354.78125,92.90625 C 354.78125,95.89677 356.93059,96.88196 364.21875,97.25 C 371.39027,97.61215 371.79013,97.52429 372.625,95.28125 C 373.10789,93.98386 373.15858,92.00625 372.75,90.90625 C 372.09575,89.14482 371.09405,88.90625 364.34375,88.90625 z M 250.71875,89.40625 C 248.04436,89.54771 245.75,90.81194 245.75,92.90625 C 245.75,96.53301 252.51042,97.67573 256.6875,94.75 L 259.0625,93.09375 L 256.8125,91.25 C 255.11666,89.87679 252.79883,89.29622 250.71875,89.40625 z M 139.625,89.65625 C 136.17479,89.54499 132.46875,91.10017 132.46875,92.90625 C 132.46875,94.97034 137.29559,96.70668 141.0625,96 C 144.10544,95.42914 144.75,94.89197 144.75,92.90625 C 144.75,90.92053 144.10544,90.38335 141.0625,89.8125 C 140.59164,89.72417 140.11789,89.67214 139.625,89.65625 z M 0.5,95 L 0.5,103.53125 C 1.47027,102.13804 1.750002,100.89686 1.75,99.125 C 1.75,96.64705 1.382576,95.291 0.5,95 z M 390.03125,95 C 389.13328,95.27611 388.75,96.62715 388.75,99.125 C 388.75,100.89687 389.06098,102.13804 390.03125,103.53125 L 390.03125,95 z M 55.84375,97.65625 C 54.1459,97.67813 53.18648,98.62802 52.96875,100.5 C 52.73894,102.47579 53.7161,104.05019 57.1875,107.25 C 62.41959,112.07278 64.80718,112.42602 67.625,108.84375 C 70.30875,105.43192 69.56365,104.00969 63.15625,100.34375 C 59.96122,98.51574 57.5416,97.63437 55.84375,97.65625 z M 334.6875,97.65625 C 332.98965,97.63437 330.53878,98.51574 327.34375,100.34375 C 320.93635,104.00969 320.19126,105.43191 322.875,108.84375 C 325.69282,112.42603 328.11166,112.07279 333.34375,107.25 C 336.81515,104.05018 337.79231,102.4758 337.5625,100.5 C 337.34477,98.62801 336.38535,97.67813 334.6875,97.65625 z M 123.875,98.78125 C 123.48531,98.79973 123.11199,98.82674 122.75,98.90625 C 116.0068,100.3873 112.90044,106.02754 115.8125,111.46875 C 117.59169,114.79319 120.43171,113.68909 125.21875,107.8125 C 127.72397,104.73708 129.75,101.82399 129.75,101.34375 C 129.75,99.90508 126.60282,98.65188 123.875,98.78125 z M 265.46875,98.78125 C 263.08947,98.99297 260.75,100.11061 260.75,101.34375 C 260.75,101.82398 262.80729,104.73709 265.3125,107.8125 C 270.02394,113.59629 272.87704,114.76464 274.6875,111.65625 C 275.24811,110.69375 275.70202,108.49759 275.71875,106.75 C 275.75328,103.14159 272.55475,99.95469 267.78125,98.90625 C 267.05727,98.74724 266.26184,98.71068 265.46875,98.78125 z M 28.15625,99.59375 C 27.32617,99.56645 26.42362,99.6275 25.4375,99.8125 C 19.059762,101.00897 18.391083,104.44605 23.40625,110.40625 C 26.58151,114.17982 27.95513,114.18519 31.1875,110.34375 C 35.80536,104.85573 33.96678,99.78487 28.15625,99.59375 z M 151.34375,99.625 C 150.89387,99.62615 150.52671,99.6678 150.3125,99.75 C 148.229,100.54951 148.40311,103.98593 150.75,109.15625 C 153.19257,114.53736 155.57013,114.67052 159.71875,109.65625 C 164.09524,104.36655 163.47107,102.24019 157.0625,100.53125 C 154.92075,99.96011 152.69338,99.62156 151.34375,99.625 z M 239.1875,99.625 C 237.83787,99.62156 235.6105,99.9601 233.46875,100.53125 C 227.06017,102.2402 226.43601,104.36655 230.8125,109.65625 C 234.96112,114.67052 237.33869,114.53736 239.78125,109.15625 C 242.12814,103.98593 242.30224,100.54952 240.21875,99.75 C 240.00454,99.6678 239.63738,99.62615 239.1875,99.625 z M 362.6875,99.65625 C 361.18482,99.63631 359.80572,99.86237 358.90625,100.34375 C 355.7469,102.03458 356.11453,106.65673 359.71875,110.65625 C 363.11239,114.4221 364.69685,113.99105 368.5,108.40625 C 371.11271,104.56957 371.29602,103.12024 369.34375,101.5 C 368.00114,100.38574 365.19197,99.68948 362.6875,99.65625 z M 141.21875,100.8125 C 140.40678,100.78806 139.54323,100.97953 138.6875,101.4375 C 136.28312,102.72428 136.30338,103.27705 139.15625,111.90625 C 141.63692,119.40962 143.90303,121.12824 147.125,117.90625 C 149.17612,115.85513 149.20221,113.03582 147.15625,107.03125 C 145.80787,103.07397 143.65467,100.88582 141.21875,100.8125 z M 249.3125,100.8125 C 246.87658,100.88582 244.72338,103.07397 243.375,107.03125 C 241.32904,113.03581 241.32387,115.85514 243.375,117.90625 C 246.53213,121.06338 248.91566,119.3998 251.28125,112.40625 C 254.10947,104.04497 254.15876,102.69319 251.8125,101.4375 C 250.95677,100.97953 250.12447,100.78806 249.3125,100.8125 z M 40.1875,103.59375 C 38.37578,103.75997 36.01822,106.22075 33.75,110.90625 C 31.46088,115.63494 31.9159,118.15801 35.28125,119.4375 C 38.38059,120.61586 41.31557,119.64628 42.59375,117.0625 C 43.18231,115.87274 43.58207,112.69336 43.46875,110 C 43.2811,105.53981 41.99922,103.42753 40.1875,103.59375 z M 349.90625,103.59375 C 348.02085,103.47645 346.75,105.67748 346.75,110 C 346.75,117.88066 349.95582,121.41909 355.25,119.40625 C 356.50829,118.92785 357.77874,117.94179 358.0625,117.21875 C 358.81802,115.29362 357.89387,112.41949 355.125,108.125 C 353.23132,105.18791 351.37267,103.68498 349.90625,103.59375 z M 14.6875,105.46875 C 14.118544,105.47359 13.557188,105.68206 13,106.03125 C 10.93398,107.32603 10.114882,114.34277 11.6875,117.28125 C 12.99046,119.71585 17.9442,120.90566 20.6875,119.4375 C 23.38396,117.9944 23.314503,114.53926 20.5,110.40625 C 18.209042,107.04206 16.394369,105.45423 14.6875,105.46875 z M 375.84375,105.46875 C 374.13695,105.45388 372.29114,107.04179 370,110.40625 C 367.1855,114.53925 367.11604,117.99439 369.8125,119.4375 C 372.40475,120.82483 377.43212,119.7953 378.75,117.59375 C 380.34784,114.92455 379.51946,107.29754 377.5,106.03125 C 376.94284,105.68189 376.41268,105.47371 375.84375,105.46875 z M 5.03125,105.625 C 4.743667,105.63895 4.437247,105.70348 4.09375,105.8125 C 3.400187,106.03263 2.019315,107.03089 0.5,108.28125 L 0.5,118.1875 C 0.588544,118.21639 0.660671,118.25248 0.75,118.28125 L 7.75,120.53125 L 7.75,126.21875 C 7.73162,133.04858 7.441008,133.554 2,136.3125 L 0.5,137.0625 L 0.5,143.9375 C 1.759175,146.57571 2.750003,149.77576 2.75,151.3125 C 2.75,152.95168 3.875003,156.414 5.25,159 C 6.625,161.58602 7.772831,165.10691 7.78125,166.8125 C 7.80554,171.7312 8.69252,172.43796 13.5625,171.34375 C 16.29516,170.72976 18.499702,170.72478 19.65625,171.34375 C 21.7444,172.46129 26.75,178.80336 26.75,180.3125 C 26.75,180.83287 25.198467,183.48723 23.21875,186.375 L 31.5625,186.375 C 31.44065,186.17913 31.34386,185.97683 31.21875,185.78125 L 27.6875,180.28125 L 31.3125,175.34375 C 34.23847,171.35778 35.81429,170.18572 39.40625,169.28125 C 42.61826,168.47246 44.22703,167.38448 45.25,165.40625 C 46.02942,163.89903 48.32357,161.33939 50.34375,159.71875 C 53.9959,156.7889 54.03114,156.747 52.6875,153.03125 C 51.44614,149.59832 51.51656,148.93962 53.65625,144.90625 C 57.5873,137.49614 58.30188,137.15829 65.625,139.4375 C 69.09151,140.5164 72.34275,141.40625 72.84375,141.40625 C 74.16444,141.40625 73.96354,138.48887 72.25,132.71875 C 69.83229,124.57743 68.58949,124.32133 63.5625,130.90625 C 58.81588,137.12393 57.55915,137.39876 49.5625,134 C 46.61878,132.74885 45.60839,131.5842 44.65625,128.40625 C 43.64724,125.03849 43.01885,124.40625 40.78125,124.40625 C 39.31814,124.40625 35.74718,123.70598 32.84375,122.84375 C 28.07165,121.42659 27.26332,121.41226 24.3125,122.8125 C 21.38788,124.20032 20.448951,124.22103 15.28125,122.875 C 12.10896,122.04872 9.103772,121.13965 8.625,120.84375 C 8.14623,120.54785 7.758417,117.49879 7.75,114.09375 C 7.734565,107.85318 7.044329,105.52734 5.03125,105.625 z M 385.09375,105.625 C 383.39695,105.86418 382.79558,108.29894 382.78125,114.09375 C 382.77283,117.49879 382.38501,120.54786 381.90625,120.84375 C 381.42748,121.13964 378.4223,122.04873 375.25,122.875 C 370.0823,124.22102 369.14336,124.20033 366.21875,122.8125 C 363.26793,121.41225 362.45959,121.42659 357.6875,122.84375 C 354.78407,123.70598 351.21312,124.40625 349.75,124.40625 C 347.5124,124.40625 346.88401,125.03848 345.875,128.40625 C 344.92286,131.58421 343.91247,132.74885 340.96875,134 C 332.94547,137.41008 331.71516,137.1198 326.875,130.78125 L 322.46875,125.03125 L 320.6875,127.25 C 318.77287,129.61445 316.04138,140.01015 317.0625,141.03125 C 317.39801,141.36677 320.71123,140.69989 324.4375,139.5625 C 332.27998,137.1687 332.91811,137.44744 336.875,144.90625 C 339.01469,148.93961 339.08511,149.59831 337.84375,153.03125 C 336.50011,156.74701 336.53534,156.78889 340.1875,159.71875 C 342.20768,161.3394 344.47057,163.89904 345.25,165.40625 C 346.27297,167.38447 347.91299,168.47246 351.125,169.28125 C 354.71696,170.18572 356.29279,171.35775 359.21875,175.34375 L 362.8125,180.28125 L 359.28125,185.78125 C 359.15537,185.97803 359.06008,186.17793 358.9375,186.375 L 367.3125,186.375 C 365.33278,183.48724 363.75,180.83289 363.75,180.3125 C 363.75,178.80334 368.78685,172.46129 370.875,171.34375 C 372.03155,170.72478 374.20485,170.72976 376.9375,171.34375 C 381.80748,172.43796 382.72572,171.73119 382.75,166.8125 C 382.75842,165.10692 383.875,161.58603 385.25,159 C 386.625,156.41399 387.75,152.95167 387.75,151.3125 C 387.75,149.76974 388.76505,146.5501 390.03125,143.90625 L 390.03125,137.0625 L 388.53125,136.3125 C 383.09024,133.554 382.79962,133.04857 382.78125,126.21875 L 382.75,120.53125 L 389.75,118.28125 C 389.84922,118.2493 389.93301,118.21959 390.03125,118.1875 L 390.03125,108.28125 C 388.51193,107.03089 387.13106,106.03263 386.4375,105.8125 C 385.92226,105.64897 385.48532,105.5698 385.09375,105.625 z M 340.40625,106.4375 C 336.80411,106.49318 330.31455,113.11816 331.3125,115.71875 C 332.02479,117.57494 341.16454,120.85549 343.3125,120.03125 C 345.06487,119.35881 345.22809,114.07144 343.65625,109.5625 C 342.87623,107.32491 341.93543,106.41387 340.40625,106.4375 z M 50.3125,106.46875 C 48.77129,106.3824 47.62426,107.41316 46.875,109.5625 C 45.30317,114.07145 45.46638,119.3588 47.21875,120.03125 C 49.10593,120.75543 58.49093,117.65165 59.125,116.09375 C 59.96138,114.03875 59.84483,113.84481 56.09375,110.09375 C 53.77237,107.77237 51.85371,106.5551 50.3125,106.46875 z M 131.875,106.625 C 129.5711,106.50195 127.08837,108.29936 125.28125,111.65625 L 123.28125,115.375 L 125.3125,117.40625 C 128.24869,120.34244 133.93005,121.10121 136.1875,118.84375 C 138.43125,116.6 137.70957,110.9283 134.8125,108.03125 C 133.93415,107.15289 132.92223,106.68093 131.875,106.625 z M 258.8125,106.6875 C 256.18232,106.81304 253.82703,109.23643 253.125,113.5625 C 252.34419,118.37407 254.79198,120.83664 259.5625,120.0625 C 261.46,119.75458 263.84322,118.74626 264.875,117.8125 C 267.2333,115.67826 267.22307,114.69228 264.78125,110.6875 C 263.06748,107.87676 260.85819,106.58986 258.8125,106.6875 z M 311.96875,107.28125 C 311.21255,107.22882 310.75,107.54058 310.75,108.25 C 310.75,109.63067 316.46973,117.79626 319.28125,120.4375 C 321.86205,122.86201 321.95447,122.86867 323.34375,120.96875 C 325.52207,117.98977 325.1527,117.05764 319.8125,112.0625 C 316.7775,109.22362 313.63238,107.3966 311.96875,107.28125 z M 77.71875,107.40625 C 75.5128,107.40625 65.75,115.91664 65.75,117.84375 C 65.75,118.48837 66.40681,119.90113 67.1875,120.96875 C 68.57677,122.86867 68.6692,122.86202 71.25,120.4375 C 72.70023,119.07509 75.19339,115.9444 76.8125,113.5 C 80.30041,108.23423 80.4291,107.40625 77.71875,107.40625 z M 167.21875,107.40625 C 164.6058,107.40625 158.75,113.55612 158.75,116.3125 C 158.75,120.6598 164.95001,121.49102 170.46875,117.875 C 174.77718,115.05201 172.40388,107.40625 167.21875,107.40625 z M 223.5,107.40625 C 218.21877,107.40625 215.69418,114.84973 219.96875,117.84375 C 223.1549,120.07541 228.49561,120.8882 230.28125,119.40625 C 231.10022,118.72657 231.75,117.32602 231.75,116.3125 C 231.75,113.67476 225.94906,107.40625 223.5,107.40625 z M 93.46875,109.53125 C 88.89741,109.6685 83.75,111.39818 83.75,113.53125 C 83.75,114.11685 81.44281,116.81536 78.625,119.53125 C 73.7049,124.27342 73.53024,124.61635 74.15625,128.53125 C 75.47651,136.78776 79.30721,140.40625 86.75,140.40625 C 88.23585,140.40625 90.89553,140.91748 92.65625,141.53125 C 96.92795,143.02038 104.18486,140.36482 106.25,136.5625 C 108.22896,132.91884 108.09565,130.50711 105.75,125.90625 C 104.65,123.74866 103.75,120.94228 103.75,119.65625 C 103.75,116.51291 101.18072,111.70495 98.8125,110.4375 C 97.50259,109.73646 95.54663,109.46886 93.46875,109.53125 z M 295.8125,109.53125 C 294.20457,109.58945 292.76668,109.87667 291.71875,110.4375 C 289.35053,111.70494 286.75,116.51292 286.75,119.65625 C 286.75,120.94227 285.85,123.74866 284.75,125.90625 C 283.65,128.06384 282.75,130.67647 282.75,131.6875 C 282.75,138.43304 290.64447,143.27176 298.65625,141.46875 C 301.18453,140.89977 304.87681,140.1985 306.84375,139.90625 C 311.68223,139.18732 313.57019,137.62356 315.25,132.90625 C 317.60994,126.27896 317.18194,124.64175 311.75,119.40625 C 309,116.7557 306.75,114.11685 306.75,113.53125 C 306.75,111.20426 300.63629,109.35666 295.8125,109.53125 z M 88.71875,117.625 C 91.76823,117.67186 95.27464,118.67668 99,120.5625 C 101.0625,121.60656 102.75,123.03048 102.75,123.75 C 102.75,125.80547 96.94113,134.04922 94.25,135.8125 C 89.10421,139.18415 85.62855,136.96485 83.15625,128.75 C 81.18833,122.21111 82.04057,118.73471 85.8125,117.90625 C 86.71101,117.7089 87.70226,117.60938 88.71875,117.625 z M 301.4375,117.96875 C 304.27813,117.92913 306.8401,118.18488 307.15625,118.5 C 308.51412,119.85339 308.59701,125.24331 307.3125,129.25 C 304.82689,137.00319 301.27008,139.1018 296.25,135.8125 C 293.55887,134.04921 287.75,125.80548 287.75,123.75 C 287.75,121.47175 295.86457,118.04647 301.4375,117.96875 z M 90.75,120.3125 C 88.53189,120.33699 86.46042,121.08704 85.6875,122.53125 C 84.45568,124.83292 85.08481,129.90546 86.875,132.0625 C 89.32403,135.0134 95.20001,133.2827 97.59375,128.90625 C 99.17655,126.01243 99.00196,124.65821 96.75,122.40625 C 95.32999,120.98625 92.96811,120.28801 90.75,120.3125 z M 206.125,120.3125 C 204.19682,120.42779 202.20592,121.30426 201.15625,122.90625 C 199.76579,125.02836 199.71911,125.87326 200.78125,128.4375 C 201.96974,131.30676 206.09599,135.40625 207.8125,135.40625 C 208.24904,135.40625 209.32323,134.70805 210.1875,133.84375 C 211.97956,132.05169 212.29022,125.28006 210.71875,122.34375 C 209.92052,120.85224 208.05318,120.19721 206.125,120.3125 z M 183.59375,120.34375 C 181.95309,120.44989 180.47135,121.11267 179.8125,122.34375 C 177.56391,126.54529 179.32093,135.40625 182.40625,135.40625 C 184.04403,135.40625 187.13986,132.83693 188.8125,130.09375 C 191.1636,126.23786 191.21619,125.47675 189.21875,122.625 C 188.06721,120.98095 185.70318,120.20728 183.59375,120.34375 z M 299.71875,120.34375 C 297.49968,120.35706 295.11481,121.04145 293.75,122.40625 C 291.35009,124.80616 291.30715,125.62 293.28125,129.4375 C 295.78088,134.27125 302.22801,134.83509 304.46875,130.40625 C 306.01001,127.35994 306.08314,124.89312 304.71875,122.34375 C 303.99503,120.99147 301.93782,120.33044 299.71875,120.34375 z M 57.8125,120.40625 C 53.99553,120.41184 48.75,123.97306 48.75,126.5625 C 48.75,132.41052 56.89084,134.60793 60.6875,129.78125 C 64.355,125.11878 62.91081,120.39876 57.8125,120.40625 z M 173.125,120.40625 C 169.92623,120.40625 162.75,124.10223 162.75,125.75 C 162.75,128.10218 170.69643,134.40625 173.65625,134.40625 C 174.22668,134.40625 175.14013,132.94375 175.65625,131.15625 C 177.6611,124.21278 176.76274,120.40625 173.125,120.40625 z M 217.375,120.40625 C 214.37685,120.40625 213.33121,122.96548 214.21875,128.21875 C 215.45115,135.51323 217.75741,135.9742 224.3125,130.21875 C 226.20136,128.5603 227.75,126.60062 227.75,125.84375 C 227.75,124.11949 220.68324,120.40625 217.375,120.40625 z M 333,120.5 C 328.13976,120.24401 325.70733,124.52263 329.84375,129.78125 C 332.27673,132.87428 337.08629,133.33032 339.9375,130.75 C 342.83293,128.12967 342.22771,124.67908 338.5,122.40625 C 336.49629,121.18457 334.62008,120.58533 333,120.5 z M 122.9375,120.875 C 122.13428,120.91154 121.60532,121.12199 121.1875,121.46875 C 119.18199,123.13318 119.42096,125.70119 121.84375,128.78125 C 124.54555,132.21603 131.15558,132.48401 135.1875,129.3125 C 139.49209,125.92651 138.19829,124.14266 129.9375,122.09375 C 126.37526,121.21021 124.2762,120.81409 122.9375,120.875 z M 390.03125,121 C 389.26664,121.244 388.54751,121.56337 387.96875,121.96875 C 383.96235,124.77494 385.69066,131.86664 390.03125,133.1875 L 390.03125,121 z M 0.5,121.03125 L 0.5,133.125 C 1.346659,132.89183 2.166817,132.44746 2.9375,131.75 C 5.56477,129.37235 5.333116,123.93126 2.53125,121.96875 C 1.960411,121.56892 1.252501,121.27413 0.5,121.03125 z M 267.21875,121.0625 C 262.80589,121.02653 253.72064,123.3597 253.03125,125.15625 C 251.99604,127.85395 257.23366,131.40625 262.25,131.40625 C 265.7817,131.40625 267.01313,130.90986 268.6875,128.78125 C 271.09724,125.71776 271.34748,123.137 269.375,121.5 C 269.01563,121.20175 268.2371,121.0708 267.21875,121.0625 z M 151.6875,121.625 C 149.03114,121.91105 143.75,126.53974 143.75,128.8125 C 143.75,131.16843 148.93902,130.8365 152.1875,128.28125 C 155.37749,125.772 155.35136,122.08142 152.15625,121.625 C 152.00461,121.60334 151.86459,121.60593 151.6875,121.625 z M 238.59375,121.65625 C 237.1939,121.61638 236.20207,122.39531 235.96875,124.03125 C 235.575,126.79219 240.06889,130.40625 243.90625,130.40625 C 247.75964,130.40625 247.62664,128.01726 243.59375,124.25 C 241.78006,122.55576 239.9936,121.69612 238.59375,121.65625 z M 23.71875,126.21875 L 28.96875,127.46875 C 35.24123,128.97349 42.13879,131.91547 43.46875,133.65625 C 43.99889,134.35015 45.40124,137.96346 46.59375,141.6875 C 47.78627,145.41155 48.73575,149.01156 48.71875,149.6875 C 48.66959,151.64193 39.72113,164.3835 37.375,165.84375 C 36.20434,166.57238 31.74948,167.44647 27.46875,167.78125 L 19.6875,168.40625 L 15.28125,164.3125 C 8.69005,158.23694 6.340719,152.73455 7.1875,145.25 C 8.21647,136.15509 8.992384,134.94659 16.6875,130.375 L 23.71875,126.21875 z M 366.78125,126.21875 L 373.84375,130.375 C 378.03281,132.86367 381.23531,135.53279 381.78125,136.96875 C 382.28566,138.29543 382.9566,142.21263 383.28125,145.65625 C 384.00159,153.29696 381.9001,158.1851 375.21875,164.34375 L 370.8125,168.40625 L 363.03125,167.78125 C 358.75052,167.44647 354.30259,166.57693 353.125,165.84375 C 350.85013,164.42741 341.75,151.40921 341.75,149.5625 C 341.75,147.78791 346.01281,135.03017 347.0625,133.65625 C 348.39246,131.91548 355.29001,128.97348 361.5625,127.46875 L 366.78125,126.21875 z M 195.3125,127.125 C 194.44541,127.13925 193.57016,128.01895 192.21875,129.625 C 185.81489,137.23556 186.69789,140.40625 195.1875,140.40625 C 198.03516,140.40625 200.90251,139.87876 201.5625,139.21875 C 203.35535,137.4259 203.04047,136.11232 199.8125,131.65625 C 197.54086,128.52034 196.42733,127.10667 195.3125,127.125 z M 159,130.5 C 157.57963,130.45258 156.37585,130.93665 155.34375,131.96875 C 152.77917,134.53333 153.42482,135.70952 160.375,140.75 C 167.26281,145.74525 169.21335,146.00946 170.65625,142.1875 C 171.7954,139.17011 170.5476,136.98617 165.5625,133.375 C 162.99642,131.51614 160.82619,130.56097 159,130.5 z M 231.53125,130.5 C 229.70506,130.56097 227.53483,131.51614 224.96875,133.375 C 219.98366,136.98618 218.70459,139.1701 219.84375,142.1875 C 221.28666,146.00947 223.26843,145.74525 230.15625,140.75 C 237.10643,135.70952 237.75209,134.53332 235.1875,131.96875 C 234.15541,130.93666 232.95162,130.45258 231.53125,130.5 z M 24.09375,131.625 C 22.084152,131.56229 20.805987,132.1549 18,133.59375 C 14.22634,135.52881 12.961172,136.83955 11.84375,140.03125 C 10.56727,143.67724 10.65979,144.68622 12.625,151.15625 C 15.49621,160.60908 19.138303,164.40625 25.375,164.40625 C 27.83501,164.40625 31.07731,163.77893 32.5625,163 C 35.58275,161.416 42.29159,153.69998 43.71875,150.1875 C 45.59415,145.5718 42.47421,137.36111 37.96875,135.03125 C 36.45853,134.25029 32.43432,133.05066 29,132.375 C 26.78353,131.93894 25.29951,131.66263 24.09375,131.625 z M 366.28125,131.65625 C 365.07694,131.69797 363.62229,131.98257 361.46875,132.40625 C 353.62429,133.94955 350.13902,135.74727 348.40625,139.1875 C 344.83895,146.27001 345.4463,149.75901 351.5,157.0625 C 356.15517,162.67873 359.38339,164.40625 365.125,164.40625 C 371.08578,164.40625 374.99992,160.57435 377.6875,152.09375 C 380.07522,144.55935 380.14608,143.27005 378.375,139.03125 C 377.39323,136.68156 375.6131,135.0353 372.3125,133.4375 C 369.59856,132.12371 368.28843,131.58671 366.28125,131.65625 z M 255.28125,133.40625 C 253.85753,133.40625 252.4617,134.04776 252.15625,134.84375 C 251.61127,136.26397 257.45837,148.43876 258.65625,148.375 C 258.99212,148.35712 261.14914,145.76419 263.4375,142.625 C 265.72585,139.48583 267.40399,136.63155 267.1875,136.28125 C 266.63744,135.39124 258.40553,133.40625 255.28125,133.40625 z M 136.03125,133.5625 C 132.80623,133.47606 124.71803,135.06878 123.65625,136.15625 C 122.9429,136.88687 130.62529,148.30768 131.875,148.375 C 132.20701,148.39288 133.87792,145.81875 135.59375,142.65625 C 139.17541,136.05481 139.41552,134.6097 137.09375,133.71875 C 136.86749,133.63193 136.49197,133.57485 136.03125,133.5625 z M 28.5625,137.40625 C 30.61506,137.40625 35.75665,142.63577 35.78125,144.75 C 35.78876,145.3953 35.98183,146.80625 36.21875,147.90625 C 36.72749,150.26819 36.06072,152.25484 33.96875,154.65625 C 30.63624,158.4817 18.802628,155.54376 17.5,150.5625 C 16.24038,145.74573 23.247044,137.40625 28.5625,137.40625 z M 361.84375,137.53125 C 364.01081,137.43464 366.77114,138.67738 369.03125,140.9375 C 372.26792,144.17417 373.74063,148.27809 372.6875,151.125 C 370.82354,156.16376 359.78447,158.31839 356.1875,154.34375 C 352.59404,150.37302 354.64155,141.41463 359.90625,138.09375 C 360.45404,137.74821 361.1214,137.56345 361.84375,137.53125 z M 145.09375,137.59375 C 141.18236,137.81748 136.01102,145.21829 137.15625,149.78125 C 137.97754,153.05352 143.27208,156.07369 145.28125,154.40625 C 146.03495,153.78073 146.81248,151.84029 147.03125,150.09375 C 147.99915,142.36662 147.75036,138.35699 146.25,137.78125 C 145.88098,137.63964 145.49838,137.57061 145.09375,137.59375 z M 245.4375,137.625 C 244.96744,137.60898 244.47955,137.67172 244.03125,137.84375 C 242.72353,138.34557 242.59486,139.64714 243.15625,145.6875 C 243.98098,154.56125 245.28135,156.24511 249.5625,154.03125 C 251.23118,153.16834 252.81247,151.88656 253.09375,151.1875 C 255.12609,146.13628 249.98142,137.77985 245.4375,137.625 z M 210.75,140.34375 C 209.33802,140.46716 208.55282,142.48154 209.21875,146.03125 C 210.08272,150.63662 213.35369,153.99535 215.34375,152.34375 C 217.33251,150.69322 217.12092,147.49359 214.78125,143.65625 C 213.33855,141.29006 211.84821,140.24776 210.75,140.34375 z M 27.8125,140.40625 C 25.36659,140.40625 21.763536,143.32606 20.6875,146.15625 C 18.60733,151.62752 26.06644,156.40609 31.3125,152.96875 C 33.06684,151.81926 33.75,150.47465 33.75,148.21875 C 33.75,144.76598 30.45005,140.40625 27.8125,140.40625 z M 119.6875,140.40625 C 116.87336,140.40625 113.75,143.99126 113.75,147.25 C 113.75,152.72299 120.99028,156.19721 124.6875,152.5 C 125.83516,151.35234 126.75,149.55781 126.75,148.5 C 126.75,145.84681 122.01617,140.40625 119.6875,140.40625 z M 270.84375,140.40625 C 268.51507,140.40625 263.75,145.84682 263.75,148.5 C 263.75,149.5578 264.69608,151.35233 265.84375,152.5 C 268.16499,154.82124 271.88469,154.49499 275,151.6875 C 278.67227,148.3781 275.73822,140.40625 270.84375,140.40625 z M 153.84375,140.5 C 152.52152,140.55597 151.4442,141.1634 150.8125,142.34375 C 149.26901,145.22779 149.53031,151.97903 151.25,153.40625 C 152.92409,154.79562 156.98306,154.08732 160.5,151.8125 C 163.70776,149.73768 163.38105,146.1079 159.6875,143 C 157.63303,141.27128 155.54375,140.42803 153.84375,140.5 z M 236.125,140.5 C 234.54001,140.61674 232.66995,141.46336 230.84375,143 C 227.15021,146.10791 226.79224,149.73769 230,151.8125 C 233.51694,154.08731 237.60715,154.79562 239.28125,153.40625 C 241.00094,151.97903 241.26225,145.22779 239.71875,142.34375 C 238.9968,140.99479 237.70999,140.38326 236.125,140.5 z M 363.03125,140.53125 C 361.77476,140.51943 360.53382,141.21152 359.0625,142.59375 C 355.8362,145.62471 355.92005,150.80734 359.21875,152.96875 C 362.31001,154.99422 367.15703,154.11314 369.25,151.125 C 371.09415,148.49211 370.3807,145.61605 367.125,142.65625 C 365.5733,141.24559 364.28774,140.54307 363.03125,140.53125 z M 179.1875,140.65625 C 178.19755,140.74883 176.97702,141.63244 175.78125,143.59375 C 173.52197,147.29942 173.18935,150.43935 174.875,152.125 C 176.54135,153.79135 178.79441,152.5005 180.34375,149 C 182.50187,144.12406 181.36539,140.45256 179.1875,140.65625 z M 327.875,141.5 C 326.92388,141.52296 325.80256,141.83225 324.375,142.375 C 321.42161,143.49788 319.50478,146.60723 320.375,148.875 C 321.77574,152.52529 330.93262,154.84865 333.5625,152.21875 C 335.50851,150.27274 334.94711,146.50958 332.3125,143.875 C 330.63906,142.20156 329.4602,141.46173 327.875,141.5 z M 62.375,141.59375 C 60.88184,141.58772 59.86502,142.19748 58.3125,143.75 C 53.90201,148.16049 55.36401,153.40625 61,153.40625 C 64.26928,153.40625 69.33995,151.061 70.09375,149.1875 C 70.92986,147.1094 70.82972,146.73504 69,144.53125 C 68.0375,143.37197 65.81355,142.15062 64.0625,141.8125 C 63.42049,141.68853 62.87272,141.59576 62.375,141.59375 z M 74.46875,143.09375 L 75.1875,146 C 75.58729,147.59287 76.37913,149.18617 76.9375,149.53125 C 78.48692,150.48885 89.48225,151.44762 91.21875,150.78125 C 92.06184,150.45773 92.75,149.77207 92.75,149.25 C 92.75,147.81273 84.56964,144.48344 79.21875,143.75 L 74.46875,143.09375 z M 195.25,143.40625 C 188.01497,143.40625 185.47511,145.024 185.96875,149.28125 C 186.2652,151.83792 186.47971,151.93137 194.1875,152.21875 C 198.53888,152.38099 202.70137,152.28248 203.4375,152 C 205.27042,151.29664 205.10771,146.88893 203.1875,144.96875 C 202.08852,143.86977 199.69589,143.40625 195.25,143.40625 z M 313.4375,143.40625 C 310.10706,143.40625 301.57583,146.10204 299.25,147.875 C 296.16873,150.22382 299.08888,151.55822 305.75,150.84375 C 313.26739,150.03742 314.57438,149.59809 315.09375,147.625 C 316.00661,144.15702 315.70209,143.40625 313.4375,143.40625 z M 166.5,152.71875 C 165.40311,152.70177 163.47406,153.35839 159.59375,154.9375 C 151.65656,158.16755 150.34913,160.00537 153.6875,163.34375 C 157.83153,167.48778 163.92065,165.54742 167.59375,158.90625 C 168.95412,156.44663 169.00641,155.3252 167.8125,153.4375 C 167.51661,152.96967 167.15814,152.72894 166.5,152.71875 z M 224.375,152.71875 C 223.17799,152.68243 222.64584,153.23101 222.3125,154.28125 C 221.59523,156.54117 222.92962,159.71665 226.0625,163.15625 C 228.69179,166.04297 233.9892,166.16705 236.75,163.40625 C 239.97595,160.1803 239.19754,158.49147 233.28125,155.875 C 228.52824,153.77299 225.91402,152.76545 224.375,152.71875 z M 99.53125,153.90625 C 98.83379,153.91496 98.13007,154.08792 97.375,154.375 C 93.83853,155.71956 94.04332,158.32425 98.0625,163.59375 C 101.61143,168.24671 103.9662,169.31694 106.34375,167.34375 C 107.37397,166.48875 107.76726,164.65057 107.5625,161.5 C 107.2919,157.33645 106.91507,156.73385 103.625,155.125 C 101.88694,154.27508 100.69369,153.89173 99.53125,153.90625 z M 291,153.90625 C 289.83756,153.89173 288.61306,154.27508 286.875,155.125 C 283.64475,156.7046 283.21471,157.39712 282.9375,161.25 C 282.34148,169.53365 287.06559,170.69114 292.46875,163.59375 C 296.48529,158.31777 296.66059,155.71922 293.125,154.375 C 292.36992,154.08792 291.69746,153.91496 291,153.90625 z M 72.75,154.15625 L 68.28125,154.65625 C 65.81418,154.93433 62.64995,155.92648 61.25,156.84375 C 58.72277,158.49965 58.70051,158.53215 60.46875,161.5625 C 62.70141,165.38873 67.35031,168.7842 69.3125,168.03125 C 70.13119,167.71709 71.21681,166.43718 71.71875,165.1875 C 72.22067,163.9378 72.65264,160.94027 72.6875,158.53125 L 72.75,154.15625 z M 195.25,154.40625 C 192.995,154.40625 190.62874,154.96499 189.96875,155.625 C 186.76505,158.8287 190.60735,167.40625 195.25,167.40625 C 196.6029,167.40625 198.49675,166.29503 199.6875,164.78125 C 201.98673,161.85825 202.40777,157.47025 200.5625,155.625 C 199.9025,154.965 197.505,154.40625 195.25,154.40625 z M 317.5,154.40625 L 317.96875,159.96875 C 318.56022,167.10102 320.53953,169.41096 324.34375,167.375 C 325.80307,166.594 328.06117,164.38751 329.34375,162.5 C 330.62634,160.6125 331.41156,158.67049 331.09375,158.15625 C 330.13726,156.60862 324.02434,154.40625 320.65625,154.40625 L 317.5,154.40625 z M 80.75,154.4375 C 79.78494,154.44749 78.8436,154.69083 78.0625,155.1875 C 74.83194,157.24167 73.50724,169.12996 76.25,171.40625 C 78.69097,173.43208 80.64926,171.80793 83.78125,165.1875 C 87.27198,157.80875 87.16552,158.5393 85.09375,156.25 C 84.02664,155.07086 82.35844,154.42085 80.75,154.4375 z M 309.71875,154.4375 C 308.09941,154.43674 306.44229,155.12658 305.3125,156.375 C 303.61011,158.25612 303.64206,158.56736 306.59375,164.875 C 309.81653,171.76193 311.81113,173.45626 314.28125,171.40625 C 317.02401,169.12997 315.66806,157.24166 312.4375,155.1875 C 311.63948,154.68007 310.69036,154.43796 309.71875,154.4375 z M 181.4375,158.46875 C 179.81396,158.71304 178.75,160.90255 178.75,164.96875 C 178.75,170.56564 181.75148,174.40625 186.125,174.40625 C 187.90008,174.40625 189.92171,173.85954 190.59375,173.1875 C 192.04861,171.73264 191.65744,170.55737 187.5,163.65625 C 185.254,159.92801 183.06104,158.22446 181.4375,158.46875 z M 208.40625,158.5625 C 206.17112,158.57365 203.5939,161.86113 199.8125,169.21875 C 197.09583,174.50468 205.77296,176.75777 209.6875,171.78125 C 212.01521,168.82204 212.53638,161.59886 210.5625,159.625 C 209.86293,158.92543 209.15129,158.55878 208.40625,158.5625 z M 172.9375,160.40625 C 171.12042,160.40625 162.75,168.23736 162.75,169.9375 C 162.75,170.54754 165.3375,171.84753 168.5,172.84375 C 171.6625,173.83994 174.88072,174.92187 175.65625,175.21875 C 176.81375,175.66184 176.98363,174.67623 176.46875,169.75 C 175.68628,162.26379 174.97129,160.40625 172.9375,160.40625 z M 217.59375,160.40625 C 215.55996,160.40625 214.84496,162.26379 214.0625,169.75 C 213.54761,174.67623 213.68626,175.66183 214.84375,175.21875 C 215.61928,174.92188 218.8375,173.83992 222,172.84375 C 225.1625,171.84755 227.75,170.54753 227.75,169.9375 C 227.75,168.23737 219.41082,160.40625 217.59375,160.40625 z M 299.875,160.65625 C 299.2159,160.55335 298.54451,160.98479 297.28125,161.8125 C 295.84721,162.75212 293.93179,165.10854 293,167.0625 C 291.33803,170.54768 291.32506,170.63766 293.625,172.5 C 295.95865,174.38967 301.05508,174.98798 304.28125,173.75 C 306.78958,172.78746 305.62083,165.80835 302.40625,162.59375 C 301.19169,161.37918 300.5341,160.75915 299.875,160.65625 z M 90.96875,160.78125 C 90.1359,160.77317 89.37306,161.34569 88.09375,162.625 C 85.16183,165.55693 83.81531,172.19584 85.875,173.5 C 88.10862,174.91429 94.11295,174.53759 96.53125,172.84375 C 97.75363,171.98756 98.75206,170.75006 98.75,170.09375 C 98.74354,168.03023 94.96034,162.59139 92.6875,161.375 C 91.99242,161.00301 91.46846,160.7861 90.96875,160.78125 z M 0.5,161.59375 L 0.5,173.34375 C 1.189208,172.92263 1.830843,172.45041 2.375,171.90625 C 5.14912,169.13213 5.399847,166.73897 3.21875,163.625 C 2.400312,162.45652 1.492513,161.78334 0.5,161.59375 z M 390.03125,161.71875 C 389.15775,161.92109 388.33677,162.45742 387.59375,163.375 C 386.58655,164.61885 385.75,166.49842 385.75,167.5625 C 385.75,169.59398 387.63104,171.69631 390.03125,173.1875 L 390.03125,161.71875 z M 54.875,162.5 C 53.44597,162.53833 52.1425,163.38015 50.84375,165.03125 C 49.70383,166.48042 48.75,168.04559 48.75,168.5 C 48.75,171.7131 60.9196,177.34498 63.40625,175.28125 C 65.65005,173.41907 64.95512,170.61116 61.15625,166.40625 C 58.74978,163.74259 56.71233,162.45072 54.875,162.5 z M 335.65625,162.5 C 333.81892,162.45072 331.78146,163.7426 329.375,166.40625 C 325.57613,170.61115 324.84994,173.41905 327.09375,175.28125 C 328.78414,176.68416 336.47841,174.24398 339.625,171.3125 C 342.27097,168.8474 342.27334,168.31863 339.6875,165.03125 C 338.38875,163.38015 337.08528,162.53833 335.65625,162.5 z M 127.09375,163.65625 C 126.67524,163.67189 126.30229,163.73789 125.96875,163.84375 C 124.96406,164.16263 122.62543,165.97228 120.78125,167.875 C 118.05249,170.69037 117.38623,172.23241 117.1875,176.125 C 117.05319,178.75571 116.61506,182.83037 116.21875,185.15625 C 116.14595,185.58349 116.10193,185.98024 116.0625,186.375 L 123.96875,186.375 C 122.83538,185.31931 121.89309,184.19861 121.28125,183.0625 C 118.94314,178.72089 119.91249,177.17088 127.25,173.75 C 133.42208,170.87246 137.32578,170.74095 138.71875,173.34375 C 139.98056,175.70147 139.94934,181.97342 138.75,186.375 L 147.46875,186.375 C 150.55684,180.90904 148.48266,175.23374 141.8125,171.875 C 139.90793,170.91596 137.52277,169.10426 136.53125,167.84375 C 134.71049,165.52903 130.0233,163.54676 127.09375,163.65625 z M 263.4375,163.65625 C 260.50795,163.54675 255.82075,165.52902 254,167.84375 C 253.00848,169.10427 250.62333,170.91596 248.71875,171.875 C 242.04353,175.23629 239.99548,180.90518 243.09375,186.375 L 251.75,186.375 C 251.44469,185.04787 251.21039,183.41311 251.03125,181.4375 C 250.39512,174.42208 251.77501,171.40685 255.5625,171.4375 C 258.6427,171.46242 266.34847,174.72541 269,177.125 C 271.24307,179.15496 271.21101,180.20522 268.8125,183.84375 C 268.25152,184.69476 267.48165,185.55572 266.59375,186.375 L 274.40625,186.375 C 274.37279,186.13361 274.35246,185.92524 274.3125,185.65625 C 273.92604,183.05504 273.48732,178.75568 273.34375,176.125 C 273.13206,172.24553 272.4696,170.68089 269.75,167.875 C 267.90582,165.97229 265.56718,164.16263 264.5625,163.84375 C 264.22896,163.73789 263.85601,163.67189 263.4375,163.65625 z M 280.3125,172.8125 C 279.79429,172.67671 279.58875,173.30751 279.1875,174.90625 C 278.75158,176.6431 278.90505,182.21186 279.3125,186.375 L 285.65625,186.375 C 285.15452,181.94802 283.06529,175.09063 281.6875,173.84375 C 281.04429,173.26165 280.62343,172.89397 280.3125,172.8125 z M 110.03125,173 C 108.61491,172.9916 106.77481,176.74035 105.6875,182.3125 C 105.33546,184.11659 105.11457,185.39142 105,186.375 L 111.3125,186.375 C 111.77318,181.33805 111.64147,174.73421 110.9375,173.625 C 110.66844,173.20104 110.3581,173.00194 110.03125,173 z M 351.375,173.90625 C 348.80809,173.97051 346.75,177.44891 346.75,182.21875 C 346.75,183.88752 346.95986,185.26216 347.3125,186.375 L 355.65625,186.375 C 359.45131,181.85584 358.03714,176.05949 352.5,174.09375 C 352.11583,173.95736 351.7417,173.89707 351.375,173.90625 z M 38.96875,174.125 C 35.96218,173.94229 32.75,176.88451 32.75,180.90625 C 32.75,182.949 33.59467,184.88478 34.8125,186.375 L 43.46875,186.375 C 44.31746,183.10903 43.61067,177.2669 41.78125,175.4375 C 40.94759,174.60384 39.97094,174.1859 38.96875,174.125 z M 132.65625,174.40625 C 129.18976,174.40625 124.82181,177.3174 124.125,180.09375 C 123.58199,182.25727 124.04153,183.28542 126.625,185.59375 C 126.94379,185.87859 127.25739,186.13374 127.5625,186.375 L 135.59375,186.375 C 135.9241,185.95737 136.25169,185.45435 136.5625,184.90625 C 138.97748,180.64752 136.65766,174.40625 132.65625,174.40625 z M 5.9375,174.4375 C 4.937149,174.38401 3.404181,174.94602 1.03125,175.9375 C 0.838576,176.018 0.684147,176.10728 0.5,176.1875 L 0.5,177.40625 C 0.500003,181.69125 3.465661,185.21863 7.46875,186.125 C 7.695709,185.03854 7.750001,183.40671 7.75,180.9375 C 7.75,176.35751 7.604751,174.52665 5.9375,174.4375 z M 15.46875,174.4375 C 14.62471,174.47683 13.803891,174.71609 13.0625,175.1875 C 10.190496,177.01368 9.68769,183.23914 11.625,186.375 L 19.84375,186.375 C 20.387438,185.87798 20.838003,185.30037 21.1875,184.65625 C 23.1703,181.00197 23.120511,180.12429 20.6875,177.03125 C 19.293944,175.25963 17.325638,174.35098 15.46875,174.4375 z M 374.1875,174.4375 C 372.41597,174.61082 370.57036,175.74803 369.15625,177.90625 C 367.56255,180.33854 367.54966,180.76505 369.0625,183.9375 C 369.53017,184.91821 370.13036,185.7209 370.78125,186.375 L 378.90625,186.375 C 379.32402,185.80785 379.64643,185.12936 379.875,184.3125 C 380.24518,182.98955 380.60142,181.86792 380.65625,181.8125 C 380.71107,181.75708 380.2612,180.29789 379.65625,178.5625 C 378.62895,175.61556 376.46518,174.21467 374.1875,174.4375 z M 384.5,174.4375 C 383.00972,174.4188 382.75,175.37545 382.75,180.9375 C 382.75,183.3564 382.8655,185.0161 383.09375,186.125 C 387.07817,185.20513 390.03125,181.67805 390.03125,177.40625 L 390.03125,176.21875 C 387.8831,175.22538 385.68265,174.45234 384.5,174.4375 z M 257.78125,174.46875 C 257.23453,174.48631 256.72439,174.59921 256.25,174.78125 C 252.63682,176.16776 252.0006,182.82167 254.9375,186.375 L 262.96875,186.375 C 263.20666,186.19323 263.44051,186.02033 263.6875,185.8125 C 265.3797,184.3886 266.75,182.36358 266.75,181.3125 C 266.75,177.96891 261.60827,174.34586 257.78125,174.46875 z M 49.5625,174.65625 C 46.92082,174.76194 45.75,176.73035 45.75,180.84375 C 45.75,183.29434 46.14968,185.14461 46.875,186.375 L 54.625,186.375 C 55.28416,185.93433 55.96897,185.41711 56.6875,184.8125 C 58.37989,183.38845 59.75,181.80864 59.75,181.28125 C 59.75,179.56097 54.68877,175.54107 51.65625,174.875 C 50.88629,174.70589 50.17212,174.63186 49.5625,174.65625 z M 340.75,174.6875 C 338.47351,174.69907 335.5283,175.91294 333.34375,177.9375 C 330.051,180.98911 330.10337,181.6652 333.84375,184.8125 C 334.56935,185.42305 335.25757,185.92847 335.9375,186.375 L 343.6875,186.375 C 345.18392,183.53973 345.0526,176.88164 343.3125,175.4375 C 342.6887,174.91979 341.78477,174.68224 340.75,174.6875 z M 164.875,175.21875 C 163.10163,175.28131 161.56857,175.93101 160.8125,177.34375 C 158.84485,181.02034 160.47663,184.62487 163.28125,186.375 L 170.59375,186.375 C 170.99876,186.10664 171.37251,185.78374 171.75,185.40625 C 172.85,184.30625 173.75,182.50625 173.75,181.40625 C 173.75,177.77661 168.77641,175.08111 164.875,175.21875 z M 225.65625,175.21875 C 221.75484,175.08111 216.75,177.77661 216.75,181.40625 C 216.75,183.63673 218.17181,185.39082 220.09375,186.375 L 227.25,186.375 C 227.78133,186.07303 228.28014,185.68954 228.71875,185.21875 C 230.97264,182.79949 231.2902,180.28001 229.71875,177.34375 C 228.96268,175.93101 227.42962,175.28131 225.65625,175.21875 z M 96.6875,176.46875 C 95.83318,176.49802 94.80992,176.57393 93.59375,176.6875 C 85.28207,177.46366 83.75,178.12293 83.75,180.96875 C 83.75,183.87529 85.90485,185.10856 92.625,186 C 96.86514,186.56247 98.17041,186.3328 99.78125,184.875 C 101.86757,182.9869 102.32536,179.84021 100.84375,177.5 C 100.33385,176.69462 99.25047,176.38095 96.6875,176.46875 z M 292.6875,176.46875 C 290.94131,176.50796 290.11241,176.82884 289.6875,177.5 C 288.20589,179.84022 288.66368,182.98692 290.75,184.875 C 292.36084,186.33278 293.6661,186.56249 297.90625,186 C 300.76525,185.62074 303.93264,184.85031 304.9375,184.3125 C 307.2619,183.06852 307.32579,178.84924 305.03125,177.96875 C 304.07553,177.602 300.43461,177.01405 296.9375,176.6875 C 295.11325,176.51715 293.73522,176.44522 292.6875,176.46875 z M 178.03125,176.53125 C 176.88719,176.57239 176.78685,177.63709 176.5625,181.5625 C 176.41693,184.10966 176.27198,185.44818 175.75,186.375 L 181.3125,186.375 C 185.35437,184.1936 191.49511,182.15623 195.25,182.15625 C 199.00489,182.15625 205.14563,184.19361 209.1875,186.375 L 214.75,186.375 C 214.22841,185.44819 214.11428,184.10889 213.96875,181.5625 C 213.66949,176.32611 213.60408,176.21718 210.96875,176.78125 C 196.73131,179.82856 194.06154,179.83672 179.5625,176.78125 C 178.90399,176.64248 178.4126,176.51754 178.03125,176.53125 z M 318.15625,176.8125 C 315.76087,176.79357 312.75,179.41822 312.75,181.90625 C 312.75,185.26533 315.78958,186.7766 318.59375,184.8125 C 321.2092,182.98057 321.55856,177.93386 319.125,177 C 318.81722,176.88189 318.49845,176.8152 318.15625,176.8125 z M 72.21875,176.875 C 70.72175,177.00036 69.75,178.26337 69.75,180.46875 C 69.75,184.05932 73.19836,186.79299 75.90625,185.34375 C 78.52972,183.93971 78.25631,179.77369 75.40625,177.90625 C 74.21121,177.12323 73.11695,176.79978 72.21875,176.875 z M 326.8125,185.40625 C 326.00721,185.40625 325.38677,185.74657 324.90625,186.375 L 330.5,186.375 C 329.07236,185.78329 327.75451,185.40625 326.8125,185.40625 z M 63.71875,185.5 C 62.79665,185.51066 61.60739,185.80864 60.1875,186.375 L 65.8125,186.375 C 65.36506,185.78463 64.68061,185.48888 63.71875,185.5 z"
     id="path3397" />
</svg>
