%
M48
M72
T01C0.0320
T02C0.0400
T03C0.1260
%
T01
X3776Y4651
X4776Y4651
X5776Y4651
X6776Y4651
X7776Y4651
X8776Y4651
X9776Y4651
X9776Y7651
X8776Y7651
X7776Y7651
X6776Y7651
X5776Y7651
X4776Y7651
X3776Y7651
X3276Y9151
X1776Y9151
X1776Y6151
X6276Y9151
X7276Y9151
X10276Y9151
X11776Y9151
X11776Y8151
T02
X1386Y871
X3166Y871
X4386Y871
X6166Y871
X7386Y871
X9166Y871
X10386Y871
X12166Y871
X12166Y3431
X10386Y3431
X9166Y3431
X7386Y3431
X6166Y3431
X4386Y3431
X3166Y3431
X1386Y3431
X3276Y10651
X4276Y10651
X5276Y10651
X6276Y10651
X7276Y10651
X8276Y10651
X9276Y10651
X10276Y10651
X11776Y7151
X11776Y6151
T03
X11776Y4651
X11776Y10651
X1776Y10651
X1776Y4651
M30
