G75*
G70*
%OFA0B0*%
%FSLAX24Y24*%
%IPPOS*%
%LPD*%
%AMOC8*
5,1,8,0,0,1.08239X$1,22.5*
%
%ADD10C,0.0000*%
%ADD11C,0.0100*%
%ADD12C,0.0560*%
%ADD13C,0.0640*%
%ADD14C,0.0740*%
%ADD15OC8,0.0560*%
%ADD16C,0.0740*%
%ADD17C,0.0200*%
D10*
X001146Y004651D02*
X001148Y004701D01*
X001154Y004751D01*
X001164Y004800D01*
X001178Y004848D01*
X001195Y004895D01*
X001216Y004940D01*
X001241Y004984D01*
X001269Y005025D01*
X001301Y005064D01*
X001335Y005101D01*
X001372Y005135D01*
X001412Y005165D01*
X001454Y005192D01*
X001498Y005216D01*
X001544Y005237D01*
X001591Y005253D01*
X001639Y005266D01*
X001689Y005275D01*
X001738Y005280D01*
X001789Y005281D01*
X001839Y005278D01*
X001888Y005271D01*
X001937Y005260D01*
X001985Y005245D01*
X002031Y005227D01*
X002076Y005205D01*
X002119Y005179D01*
X002160Y005150D01*
X002199Y005118D01*
X002235Y005083D01*
X002267Y005045D01*
X002297Y005005D01*
X002324Y004962D01*
X002347Y004918D01*
X002366Y004872D01*
X002382Y004824D01*
X002394Y004775D01*
X002402Y004726D01*
X002406Y004676D01*
X002406Y004626D01*
X002402Y004576D01*
X002394Y004527D01*
X002382Y004478D01*
X002366Y004430D01*
X002347Y004384D01*
X002324Y004340D01*
X002297Y004297D01*
X002267Y004257D01*
X002235Y004219D01*
X002199Y004184D01*
X002160Y004152D01*
X002119Y004123D01*
X002076Y004097D01*
X002031Y004075D01*
X001985Y004057D01*
X001937Y004042D01*
X001888Y004031D01*
X001839Y004024D01*
X001789Y004021D01*
X001738Y004022D01*
X001689Y004027D01*
X001639Y004036D01*
X001591Y004049D01*
X001544Y004065D01*
X001498Y004086D01*
X001454Y004110D01*
X001412Y004137D01*
X001372Y004167D01*
X001335Y004201D01*
X001301Y004238D01*
X001269Y004277D01*
X001241Y004318D01*
X001216Y004362D01*
X001195Y004407D01*
X001178Y004454D01*
X001164Y004502D01*
X001154Y004551D01*
X001148Y004601D01*
X001146Y004651D01*
X001146Y010651D02*
X001148Y010701D01*
X001154Y010751D01*
X001164Y010800D01*
X001178Y010848D01*
X001195Y010895D01*
X001216Y010940D01*
X001241Y010984D01*
X001269Y011025D01*
X001301Y011064D01*
X001335Y011101D01*
X001372Y011135D01*
X001412Y011165D01*
X001454Y011192D01*
X001498Y011216D01*
X001544Y011237D01*
X001591Y011253D01*
X001639Y011266D01*
X001689Y011275D01*
X001738Y011280D01*
X001789Y011281D01*
X001839Y011278D01*
X001888Y011271D01*
X001937Y011260D01*
X001985Y011245D01*
X002031Y011227D01*
X002076Y011205D01*
X002119Y011179D01*
X002160Y011150D01*
X002199Y011118D01*
X002235Y011083D01*
X002267Y011045D01*
X002297Y011005D01*
X002324Y010962D01*
X002347Y010918D01*
X002366Y010872D01*
X002382Y010824D01*
X002394Y010775D01*
X002402Y010726D01*
X002406Y010676D01*
X002406Y010626D01*
X002402Y010576D01*
X002394Y010527D01*
X002382Y010478D01*
X002366Y010430D01*
X002347Y010384D01*
X002324Y010340D01*
X002297Y010297D01*
X002267Y010257D01*
X002235Y010219D01*
X002199Y010184D01*
X002160Y010152D01*
X002119Y010123D01*
X002076Y010097D01*
X002031Y010075D01*
X001985Y010057D01*
X001937Y010042D01*
X001888Y010031D01*
X001839Y010024D01*
X001789Y010021D01*
X001738Y010022D01*
X001689Y010027D01*
X001639Y010036D01*
X001591Y010049D01*
X001544Y010065D01*
X001498Y010086D01*
X001454Y010110D01*
X001412Y010137D01*
X001372Y010167D01*
X001335Y010201D01*
X001301Y010238D01*
X001269Y010277D01*
X001241Y010318D01*
X001216Y010362D01*
X001195Y010407D01*
X001178Y010454D01*
X001164Y010502D01*
X001154Y010551D01*
X001148Y010601D01*
X001146Y010651D01*
X011146Y010651D02*
X011148Y010701D01*
X011154Y010751D01*
X011164Y010800D01*
X011178Y010848D01*
X011195Y010895D01*
X011216Y010940D01*
X011241Y010984D01*
X011269Y011025D01*
X011301Y011064D01*
X011335Y011101D01*
X011372Y011135D01*
X011412Y011165D01*
X011454Y011192D01*
X011498Y011216D01*
X011544Y011237D01*
X011591Y011253D01*
X011639Y011266D01*
X011689Y011275D01*
X011738Y011280D01*
X011789Y011281D01*
X011839Y011278D01*
X011888Y011271D01*
X011937Y011260D01*
X011985Y011245D01*
X012031Y011227D01*
X012076Y011205D01*
X012119Y011179D01*
X012160Y011150D01*
X012199Y011118D01*
X012235Y011083D01*
X012267Y011045D01*
X012297Y011005D01*
X012324Y010962D01*
X012347Y010918D01*
X012366Y010872D01*
X012382Y010824D01*
X012394Y010775D01*
X012402Y010726D01*
X012406Y010676D01*
X012406Y010626D01*
X012402Y010576D01*
X012394Y010527D01*
X012382Y010478D01*
X012366Y010430D01*
X012347Y010384D01*
X012324Y010340D01*
X012297Y010297D01*
X012267Y010257D01*
X012235Y010219D01*
X012199Y010184D01*
X012160Y010152D01*
X012119Y010123D01*
X012076Y010097D01*
X012031Y010075D01*
X011985Y010057D01*
X011937Y010042D01*
X011888Y010031D01*
X011839Y010024D01*
X011789Y010021D01*
X011738Y010022D01*
X011689Y010027D01*
X011639Y010036D01*
X011591Y010049D01*
X011544Y010065D01*
X011498Y010086D01*
X011454Y010110D01*
X011412Y010137D01*
X011372Y010167D01*
X011335Y010201D01*
X011301Y010238D01*
X011269Y010277D01*
X011241Y010318D01*
X011216Y010362D01*
X011195Y010407D01*
X011178Y010454D01*
X011164Y010502D01*
X011154Y010551D01*
X011148Y010601D01*
X011146Y010651D01*
X011146Y004651D02*
X011148Y004701D01*
X011154Y004751D01*
X011164Y004800D01*
X011178Y004848D01*
X011195Y004895D01*
X011216Y004940D01*
X011241Y004984D01*
X011269Y005025D01*
X011301Y005064D01*
X011335Y005101D01*
X011372Y005135D01*
X011412Y005165D01*
X011454Y005192D01*
X011498Y005216D01*
X011544Y005237D01*
X011591Y005253D01*
X011639Y005266D01*
X011689Y005275D01*
X011738Y005280D01*
X011789Y005281D01*
X011839Y005278D01*
X011888Y005271D01*
X011937Y005260D01*
X011985Y005245D01*
X012031Y005227D01*
X012076Y005205D01*
X012119Y005179D01*
X012160Y005150D01*
X012199Y005118D01*
X012235Y005083D01*
X012267Y005045D01*
X012297Y005005D01*
X012324Y004962D01*
X012347Y004918D01*
X012366Y004872D01*
X012382Y004824D01*
X012394Y004775D01*
X012402Y004726D01*
X012406Y004676D01*
X012406Y004626D01*
X012402Y004576D01*
X012394Y004527D01*
X012382Y004478D01*
X012366Y004430D01*
X012347Y004384D01*
X012324Y004340D01*
X012297Y004297D01*
X012267Y004257D01*
X012235Y004219D01*
X012199Y004184D01*
X012160Y004152D01*
X012119Y004123D01*
X012076Y004097D01*
X012031Y004075D01*
X011985Y004057D01*
X011937Y004042D01*
X011888Y004031D01*
X011839Y004024D01*
X011789Y004021D01*
X011738Y004022D01*
X011689Y004027D01*
X011639Y004036D01*
X011591Y004049D01*
X011544Y004065D01*
X011498Y004086D01*
X011454Y004110D01*
X011412Y004137D01*
X011372Y004167D01*
X011335Y004201D01*
X011301Y004238D01*
X011269Y004277D01*
X011241Y004318D01*
X011216Y004362D01*
X011195Y004407D01*
X011178Y004454D01*
X011164Y004502D01*
X011154Y004551D01*
X011148Y004601D01*
X011146Y004651D01*
D11*
X012776Y000151D02*
X000776Y000151D01*
X000776Y011651D01*
X012776Y011651D01*
X012776Y000151D01*
X011806Y000411D02*
X010746Y000411D01*
X010878Y000543D01*
X010966Y000756D01*
X010966Y000987D01*
X010878Y001200D01*
X010715Y001363D01*
X010501Y001451D01*
X010271Y001451D01*
X010058Y001363D01*
X009894Y001200D01*
X009806Y000987D01*
X009806Y000756D01*
X009894Y000543D01*
X010026Y000411D01*
X009526Y000411D01*
X009658Y000543D01*
X009746Y000756D01*
X009746Y000987D01*
X009658Y001200D01*
X009495Y001363D01*
X009281Y001451D01*
X009051Y001451D01*
X008838Y001363D01*
X008674Y001200D01*
X008586Y000987D01*
X008586Y000756D01*
X008674Y000543D01*
X008806Y000411D01*
X007746Y000411D01*
X007878Y000543D01*
X007966Y000756D01*
X007966Y000987D01*
X007878Y001200D01*
X007715Y001363D01*
X007501Y001451D01*
X007271Y001451D01*
X007058Y001363D01*
X006894Y001200D01*
X006806Y000987D01*
X006806Y000756D01*
X006894Y000543D01*
X007026Y000411D01*
X006526Y000411D01*
X006658Y000543D01*
X006746Y000756D01*
X006746Y000987D01*
X006658Y001200D01*
X006495Y001363D01*
X006281Y001451D01*
X006051Y001451D01*
X005838Y001363D01*
X005674Y001200D01*
X005586Y000987D01*
X005586Y000756D01*
X005674Y000543D01*
X005806Y000411D01*
X004746Y000411D01*
X004878Y000543D01*
X004966Y000756D01*
X004966Y000987D01*
X004878Y001200D01*
X004715Y001363D01*
X004501Y001451D01*
X004271Y001451D01*
X004058Y001363D01*
X003894Y001200D01*
X003806Y000987D01*
X003806Y000756D01*
X003894Y000543D01*
X004026Y000411D01*
X003526Y000411D01*
X003658Y000543D01*
X003746Y000756D01*
X003746Y000987D01*
X003658Y001200D01*
X003495Y001363D01*
X003281Y001451D01*
X003051Y001451D01*
X002838Y001363D01*
X002674Y001200D01*
X002586Y000987D01*
X002586Y000756D01*
X002674Y000543D01*
X002806Y000411D01*
X001746Y000411D01*
X001878Y000543D01*
X001966Y000756D01*
X001966Y000987D01*
X001878Y001200D01*
X001715Y001363D01*
X001501Y001451D01*
X001271Y001451D01*
X001058Y001363D01*
X001036Y001341D01*
X001036Y002961D01*
X001058Y002939D01*
X001271Y002851D01*
X001501Y002851D01*
X001715Y002939D01*
X001878Y003103D01*
X001966Y003316D01*
X001966Y003547D01*
X001878Y003760D01*
X001826Y003811D01*
X001943Y003811D01*
X002252Y003939D01*
X002488Y004175D01*
X002616Y004484D01*
X002616Y004818D01*
X002488Y005127D01*
X002252Y005363D01*
X001943Y005491D01*
X001609Y005491D01*
X001300Y005363D01*
X001064Y005127D01*
X001036Y005059D01*
X001036Y010243D01*
X001064Y010175D01*
X001300Y009939D01*
X001609Y009811D01*
X001943Y009811D01*
X002252Y009939D01*
X002488Y010175D01*
X002616Y010484D01*
X002616Y010818D01*
X002488Y011127D01*
X002252Y011363D01*
X002184Y011391D01*
X002947Y011391D01*
X002827Y011271D01*
X002746Y011077D01*
X002746Y010226D01*
X002827Y010031D01*
X002966Y009892D01*
X002966Y009534D01*
X002786Y009354D01*
X002786Y008948D01*
X003073Y008661D01*
X003479Y008661D01*
X003766Y008948D01*
X003766Y009354D01*
X003586Y009534D01*
X003586Y009892D01*
X003725Y010031D01*
X003776Y010153D01*
X003827Y010031D01*
X003976Y009882D01*
X004171Y009801D01*
X004381Y009801D01*
X004563Y009876D01*
X004513Y009827D01*
X004466Y009713D01*
X004466Y009589D01*
X004466Y008314D01*
X004361Y008209D01*
X004286Y008029D01*
X004286Y007274D01*
X004361Y007094D01*
X004498Y006956D01*
X004679Y006881D01*
X004874Y006881D01*
X005054Y006956D01*
X005191Y007094D01*
X005266Y007274D01*
X005266Y008029D01*
X005191Y008209D01*
X005086Y008314D01*
X005086Y009523D01*
X005364Y009801D01*
X005381Y009801D01*
X005563Y009876D01*
X005513Y009827D01*
X005466Y009713D01*
X005466Y009589D01*
X005466Y008314D01*
X005361Y008209D01*
X005286Y008029D01*
X005286Y007274D01*
X005361Y007094D01*
X005498Y006956D01*
X005679Y006881D01*
X005874Y006881D01*
X006054Y006956D01*
X006191Y007094D01*
X006266Y007274D01*
X006266Y008029D01*
X006191Y008209D01*
X006086Y008314D01*
X006086Y008403D01*
X006100Y008388D01*
X006100Y008388D01*
X006337Y008152D01*
X006286Y008029D01*
X006286Y007274D01*
X006361Y007094D01*
X006498Y006956D01*
X006679Y006881D01*
X006874Y006881D01*
X007054Y006956D01*
X007191Y007094D01*
X007266Y007274D01*
X007266Y008029D01*
X007191Y008209D01*
X007054Y008347D01*
X006995Y008371D01*
X006952Y008414D01*
X006952Y008414D01*
X006592Y008774D01*
X006766Y008948D01*
X006766Y009354D01*
X006479Y009641D01*
X006204Y009641D01*
X006364Y009801D01*
X006381Y009801D01*
X006576Y009882D01*
X006725Y010031D01*
X006776Y010153D01*
X006827Y010031D01*
X006966Y009892D01*
X006966Y009534D01*
X006786Y009354D01*
X006786Y008948D01*
X007073Y008661D01*
X007479Y008661D01*
X007766Y008948D01*
X007766Y009354D01*
X007586Y009534D01*
X007586Y009892D01*
X007725Y010031D01*
X007776Y010153D01*
X007827Y010031D01*
X007976Y009882D01*
X008171Y009801D01*
X008381Y009801D01*
X008576Y009882D01*
X008725Y010031D01*
X008776Y010153D01*
X008827Y010031D01*
X008966Y009892D01*
X008966Y009780D01*
X007557Y008371D01*
X007498Y008347D01*
X007361Y008209D01*
X007286Y008029D01*
X007286Y007274D01*
X007361Y007094D01*
X007498Y006956D01*
X007679Y006881D01*
X007874Y006881D01*
X008054Y006956D01*
X008191Y007094D01*
X008266Y007274D01*
X008266Y008029D01*
X008215Y008152D01*
X009452Y009388D01*
X009539Y009476D01*
X009586Y009589D01*
X009586Y009892D01*
X009725Y010031D01*
X009776Y010153D01*
X009827Y010031D01*
X009976Y009882D01*
X010171Y009801D01*
X010381Y009801D01*
X010576Y009882D01*
X010725Y010031D01*
X010806Y010226D01*
X010806Y011077D01*
X010725Y011271D01*
X010606Y011391D01*
X011368Y011391D01*
X011300Y011363D01*
X011064Y011127D01*
X010936Y010818D01*
X010936Y010484D01*
X011064Y010175D01*
X011300Y009939D01*
X011609Y009811D01*
X011943Y009811D01*
X012252Y009939D01*
X012488Y010175D01*
X012516Y010243D01*
X012516Y007516D01*
X012485Y007548D01*
X012419Y007596D01*
X012346Y007633D01*
X012268Y007658D01*
X012187Y007671D01*
X011979Y007671D01*
X012049Y007706D01*
X012115Y007755D01*
X012173Y007812D01*
X012221Y007879D01*
X012258Y007952D01*
X012283Y008029D01*
X012296Y008110D01*
X012296Y008121D01*
X011806Y008121D01*
X011806Y007631D01*
X011817Y007631D01*
X011826Y007633D01*
X011826Y007201D01*
X011726Y007201D01*
X011726Y007101D01*
X010887Y007101D01*
X010899Y007029D01*
X010924Y006952D01*
X010961Y006879D01*
X011009Y006812D01*
X011067Y006755D01*
X011134Y006706D01*
X011177Y006684D01*
X011078Y006643D01*
X010914Y006480D01*
X010826Y006267D01*
X010826Y006036D01*
X010914Y005823D01*
X011078Y005659D01*
X011291Y005571D01*
X012261Y005571D01*
X012475Y005659D01*
X012516Y005701D01*
X012516Y005059D01*
X012488Y005127D01*
X012252Y005363D01*
X011943Y005491D01*
X011609Y005491D01*
X011300Y005363D01*
X011064Y005127D01*
X010936Y004818D01*
X010936Y004484D01*
X011064Y004175D01*
X011300Y003939D01*
X011609Y003811D01*
X011726Y003811D01*
X011674Y003760D01*
X011586Y003547D01*
X011586Y003316D01*
X011674Y003103D01*
X011838Y002939D01*
X012051Y002851D01*
X012281Y002851D01*
X012495Y002939D01*
X012516Y002961D01*
X012516Y001341D01*
X012495Y001363D01*
X012281Y001451D01*
X012051Y001451D01*
X011838Y001363D01*
X011674Y001200D01*
X011586Y000987D01*
X011586Y000756D01*
X011674Y000543D01*
X011806Y000411D01*
X011770Y000447D02*
X010782Y000447D01*
X010879Y000545D02*
X011673Y000545D01*
X011632Y000644D02*
X010920Y000644D01*
X010960Y000742D02*
X011592Y000742D01*
X011586Y000841D02*
X010966Y000841D01*
X010966Y000940D02*
X011586Y000940D01*
X011607Y001038D02*
X010945Y001038D01*
X010904Y001137D02*
X011648Y001137D01*
X011710Y001235D02*
X010842Y001235D01*
X010744Y001334D02*
X011808Y001334D01*
X012005Y001432D02*
X010547Y001432D01*
X010225Y001432D02*
X009327Y001432D01*
X009524Y001334D02*
X010028Y001334D01*
X009930Y001235D02*
X009622Y001235D01*
X009684Y001137D02*
X009868Y001137D01*
X009827Y001038D02*
X009725Y001038D01*
X009746Y000940D02*
X009806Y000940D01*
X009806Y000841D02*
X009746Y000841D01*
X009740Y000742D02*
X009812Y000742D01*
X009852Y000644D02*
X009700Y000644D01*
X009659Y000545D02*
X009893Y000545D01*
X009990Y000447D02*
X009562Y000447D01*
X008770Y000447D02*
X007782Y000447D01*
X007879Y000545D02*
X008673Y000545D01*
X008632Y000644D02*
X007920Y000644D01*
X007960Y000742D02*
X008592Y000742D01*
X008586Y000841D02*
X007966Y000841D01*
X007966Y000940D02*
X008586Y000940D01*
X008607Y001038D02*
X007945Y001038D01*
X007904Y001137D02*
X008648Y001137D01*
X008710Y001235D02*
X007842Y001235D01*
X007744Y001334D02*
X008808Y001334D01*
X009005Y001432D02*
X007547Y001432D01*
X007225Y001432D02*
X006327Y001432D01*
X006524Y001334D02*
X007028Y001334D01*
X006930Y001235D02*
X006622Y001235D01*
X006684Y001137D02*
X006868Y001137D01*
X006827Y001038D02*
X006725Y001038D01*
X006746Y000940D02*
X006806Y000940D01*
X006806Y000841D02*
X006746Y000841D01*
X006740Y000742D02*
X006812Y000742D01*
X006852Y000644D02*
X006700Y000644D01*
X006659Y000545D02*
X006893Y000545D01*
X006990Y000447D02*
X006562Y000447D01*
X005770Y000447D02*
X004782Y000447D01*
X004879Y000545D02*
X005673Y000545D01*
X005632Y000644D02*
X004920Y000644D01*
X004960Y000742D02*
X005592Y000742D01*
X005586Y000841D02*
X004966Y000841D01*
X004966Y000940D02*
X005586Y000940D01*
X005607Y001038D02*
X004945Y001038D01*
X004904Y001137D02*
X005648Y001137D01*
X005710Y001235D02*
X004842Y001235D01*
X004744Y001334D02*
X005808Y001334D01*
X006005Y001432D02*
X004547Y001432D01*
X004225Y001432D02*
X003327Y001432D01*
X003524Y001334D02*
X004028Y001334D01*
X003930Y001235D02*
X003622Y001235D01*
X003684Y001137D02*
X003868Y001137D01*
X003827Y001038D02*
X003725Y001038D01*
X003746Y000940D02*
X003806Y000940D01*
X003806Y000841D02*
X003746Y000841D01*
X003740Y000742D02*
X003812Y000742D01*
X003852Y000644D02*
X003700Y000644D01*
X003659Y000545D02*
X003893Y000545D01*
X003990Y000447D02*
X003562Y000447D01*
X002770Y000447D02*
X001782Y000447D01*
X001879Y000545D02*
X002673Y000545D01*
X002632Y000644D02*
X001920Y000644D01*
X001960Y000742D02*
X002592Y000742D01*
X002586Y000841D02*
X001966Y000841D01*
X001966Y000940D02*
X002586Y000940D01*
X002607Y001038D02*
X001945Y001038D01*
X001904Y001137D02*
X002648Y001137D01*
X002710Y001235D02*
X001842Y001235D01*
X001744Y001334D02*
X002808Y001334D01*
X003005Y001432D02*
X001547Y001432D01*
X001225Y001432D02*
X001036Y001432D01*
X001036Y001531D02*
X012516Y001531D01*
X012516Y001629D02*
X001036Y001629D01*
X001036Y001728D02*
X012516Y001728D01*
X012516Y001826D02*
X001036Y001826D01*
X001036Y001925D02*
X012516Y001925D01*
X012516Y002024D02*
X001036Y002024D01*
X001036Y002122D02*
X012516Y002122D01*
X012516Y002221D02*
X001036Y002221D01*
X001036Y002319D02*
X012516Y002319D01*
X012516Y002418D02*
X001036Y002418D01*
X001036Y002516D02*
X012516Y002516D01*
X012516Y002615D02*
X001036Y002615D01*
X001036Y002713D02*
X012516Y002713D01*
X012516Y002812D02*
X001036Y002812D01*
X001036Y002910D02*
X001128Y002910D01*
X001644Y002910D02*
X002908Y002910D01*
X002838Y002939D02*
X003051Y002851D01*
X003281Y002851D01*
X003495Y002939D01*
X003658Y003103D01*
X003746Y003316D01*
X003746Y003547D01*
X003658Y003760D01*
X003495Y003923D01*
X003281Y004011D01*
X003051Y004011D01*
X002838Y003923D01*
X002674Y003760D01*
X002586Y003547D01*
X002586Y003316D01*
X002674Y003103D01*
X002838Y002939D01*
X002768Y003009D02*
X001784Y003009D01*
X001880Y003107D02*
X002672Y003107D01*
X002632Y003206D02*
X001921Y003206D01*
X001961Y003305D02*
X002591Y003305D01*
X002586Y003403D02*
X001966Y003403D01*
X001966Y003502D02*
X002586Y003502D01*
X002608Y003600D02*
X001944Y003600D01*
X001903Y003699D02*
X002649Y003699D01*
X002712Y003797D02*
X001840Y003797D01*
X002147Y003896D02*
X002811Y003896D01*
X003010Y003994D02*
X002307Y003994D01*
X002406Y004093D02*
X003447Y004093D01*
X003448Y004091D02*
X003496Y004043D01*
X003551Y004003D01*
X003611Y003973D01*
X003675Y003952D01*
X003742Y003941D01*
X003746Y003941D01*
X003746Y004621D01*
X003806Y004621D01*
X003806Y003941D01*
X003810Y003941D01*
X003877Y003952D01*
X003941Y003973D01*
X004001Y004003D01*
X004056Y004043D01*
X004104Y004091D01*
X004144Y004146D01*
X004175Y004206D01*
X004195Y004270D01*
X004206Y004337D01*
X004206Y004621D01*
X003806Y004621D01*
X003806Y004681D01*
X004206Y004681D01*
X004206Y004965D01*
X004195Y005032D01*
X004175Y005096D01*
X004144Y005157D01*
X004104Y005211D01*
X004056Y005259D01*
X004001Y005299D01*
X003941Y005330D01*
X003877Y005351D01*
X003810Y005361D01*
X003806Y005361D01*
X003806Y004681D01*
X003746Y004681D01*
X003746Y004621D01*
X003346Y004621D01*
X003346Y004337D01*
X003357Y004270D01*
X003378Y004206D01*
X003408Y004146D01*
X003448Y004091D01*
X003385Y004191D02*
X002495Y004191D01*
X002536Y004290D02*
X003354Y004290D01*
X003346Y004389D02*
X002576Y004389D01*
X002616Y004487D02*
X003346Y004487D01*
X003346Y004586D02*
X002616Y004586D01*
X002616Y004684D02*
X003346Y004684D01*
X003346Y004681D02*
X003746Y004681D01*
X003746Y005361D01*
X003742Y005361D01*
X003675Y005351D01*
X003611Y005330D01*
X003551Y005299D01*
X003496Y005259D01*
X003448Y005211D01*
X003408Y005157D01*
X003378Y005096D01*
X003357Y005032D01*
X003346Y004965D01*
X003346Y004681D01*
X003346Y004783D02*
X002616Y004783D01*
X002590Y004881D02*
X003346Y004881D01*
X003348Y004980D02*
X002549Y004980D01*
X002508Y005078D02*
X003372Y005078D01*
X003423Y005177D02*
X002438Y005177D01*
X002340Y005275D02*
X003518Y005275D01*
X003746Y005275D02*
X003806Y005275D01*
X003806Y005177D02*
X003746Y005177D01*
X003746Y005078D02*
X003806Y005078D01*
X003806Y004980D02*
X003746Y004980D01*
X003746Y004881D02*
X003806Y004881D01*
X003806Y004783D02*
X003746Y004783D01*
X003746Y004684D02*
X003806Y004684D01*
X003806Y004586D02*
X003746Y004586D01*
X003746Y004487D02*
X003806Y004487D01*
X003806Y004389D02*
X003746Y004389D01*
X003746Y004290D02*
X003806Y004290D01*
X003806Y004191D02*
X003746Y004191D01*
X003746Y004093D02*
X003806Y004093D01*
X003806Y003994D02*
X003746Y003994D01*
X003568Y003994D02*
X003322Y003994D01*
X003522Y003896D02*
X004031Y003896D01*
X004058Y003923D02*
X003894Y003760D01*
X003806Y003547D01*
X003806Y003316D01*
X003894Y003103D01*
X004058Y002939D01*
X004271Y002851D01*
X004501Y002851D01*
X004715Y002939D01*
X004878Y003103D01*
X004966Y003316D01*
X004966Y003547D01*
X004878Y003760D01*
X004831Y003806D01*
X004843Y003844D01*
X004952Y003888D01*
X004995Y003931D01*
X005054Y003956D01*
X005191Y004094D01*
X005266Y004274D01*
X005266Y005029D01*
X005191Y005209D01*
X005054Y005347D01*
X004874Y005421D01*
X004679Y005421D01*
X004498Y005347D01*
X004361Y005209D01*
X004286Y005029D01*
X004286Y004274D01*
X004311Y004214D01*
X004242Y003999D01*
X004058Y003923D01*
X003984Y003994D02*
X004230Y003994D01*
X004272Y004093D02*
X004105Y004093D01*
X004167Y004191D02*
X004304Y004191D01*
X004286Y004290D02*
X004199Y004290D01*
X004206Y004389D02*
X004286Y004389D01*
X004286Y004487D02*
X004206Y004487D01*
X004206Y004586D02*
X004286Y004586D01*
X004286Y004684D02*
X004206Y004684D01*
X004206Y004783D02*
X004286Y004783D01*
X004286Y004881D02*
X004206Y004881D01*
X004204Y004980D02*
X004286Y004980D01*
X004307Y005078D02*
X004180Y005078D01*
X004129Y005177D02*
X004347Y005177D01*
X004427Y005275D02*
X004034Y005275D01*
X004565Y005374D02*
X002226Y005374D01*
X001988Y005473D02*
X006466Y005473D01*
X006466Y005571D02*
X001036Y005571D01*
X001036Y005473D02*
X001564Y005473D01*
X001573Y005661D02*
X001979Y005661D01*
X002159Y005841D01*
X006466Y005841D01*
X006466Y005314D01*
X006361Y005209D01*
X006286Y005029D01*
X006286Y004274D01*
X006361Y004094D01*
X006498Y003956D01*
X006679Y003881D01*
X006874Y003881D01*
X007054Y003956D01*
X007191Y004094D01*
X007266Y004274D01*
X007266Y005029D01*
X007191Y005209D01*
X007086Y005314D01*
X007086Y006213D01*
X007039Y006327D01*
X006952Y006414D01*
X006838Y006461D01*
X006714Y006461D01*
X002159Y006461D01*
X001979Y006641D01*
X001573Y006641D01*
X001286Y006354D01*
X001286Y005948D01*
X001573Y005661D01*
X001565Y005670D02*
X001036Y005670D01*
X001036Y005768D02*
X001466Y005768D01*
X001368Y005867D02*
X001036Y005867D01*
X001036Y005965D02*
X001286Y005965D01*
X001286Y006064D02*
X001036Y006064D01*
X001036Y006162D02*
X001286Y006162D01*
X001286Y006261D02*
X001036Y006261D01*
X001036Y006359D02*
X001291Y006359D01*
X001390Y006458D02*
X001036Y006458D01*
X001036Y006556D02*
X001488Y006556D01*
X001036Y006655D02*
X011107Y006655D01*
X011069Y006754D02*
X001036Y006754D01*
X001036Y006852D02*
X010981Y006852D01*
X010925Y006951D02*
X010041Y006951D01*
X010054Y006956D02*
X010191Y007094D01*
X010266Y007274D01*
X010266Y008029D01*
X010245Y008079D01*
X010439Y008661D01*
X010479Y008661D01*
X010766Y008948D01*
X010766Y009354D01*
X010479Y009641D01*
X010073Y009641D01*
X009786Y009354D01*
X009786Y008948D01*
X009858Y008877D01*
X009706Y008421D01*
X009679Y008421D01*
X009498Y008347D01*
X009361Y008209D01*
X009286Y008029D01*
X009286Y007274D01*
X009361Y007094D01*
X009498Y006956D01*
X009679Y006881D01*
X009874Y006881D01*
X010054Y006956D01*
X010147Y007049D02*
X010896Y007049D01*
X010887Y007201D02*
X011726Y007201D01*
X011726Y007633D01*
X011735Y007631D01*
X011746Y007631D01*
X011746Y008121D01*
X011806Y008121D01*
X011806Y008181D01*
X012296Y008181D01*
X012296Y008192D01*
X012283Y008273D01*
X012258Y008351D01*
X012221Y008424D01*
X012173Y008490D01*
X012115Y008548D01*
X012049Y008596D01*
X012005Y008618D01*
X012105Y008659D01*
X012268Y008823D01*
X012516Y008823D01*
X012516Y008922D02*
X012309Y008922D01*
X012349Y009020D02*
X012516Y009020D01*
X012516Y009119D02*
X012356Y009119D01*
X012356Y009036D02*
X012356Y009267D01*
X012268Y009480D01*
X012105Y009643D01*
X011891Y009731D01*
X011661Y009731D01*
X011448Y009643D01*
X011284Y009480D01*
X011196Y009267D01*
X011196Y009036D01*
X011284Y008823D01*
X010641Y008823D01*
X010739Y008922D02*
X011243Y008922D01*
X011203Y009020D02*
X010766Y009020D01*
X010766Y009119D02*
X011196Y009119D01*
X011196Y009217D02*
X010766Y009217D01*
X010766Y009316D02*
X011216Y009316D01*
X011257Y009414D02*
X010706Y009414D01*
X010607Y009513D02*
X011317Y009513D01*
X011416Y009611D02*
X010509Y009611D01*
X010399Y009808D02*
X012516Y009808D01*
X012516Y009710D02*
X011943Y009710D01*
X012136Y009611D02*
X012516Y009611D01*
X012516Y009513D02*
X012235Y009513D01*
X012295Y009414D02*
X012516Y009414D01*
X012516Y009316D02*
X012336Y009316D01*
X012356Y009217D02*
X012516Y009217D01*
X012356Y009036D02*
X012268Y008823D01*
X012170Y008724D02*
X012516Y008724D01*
X012516Y008626D02*
X012023Y008626D01*
X012135Y008527D02*
X012516Y008527D01*
X012516Y008429D02*
X012217Y008429D01*
X012265Y008330D02*
X012516Y008330D01*
X012516Y008232D02*
X012290Y008232D01*
X012516Y008133D02*
X011806Y008133D01*
X011746Y008133D02*
X010263Y008133D01*
X010264Y008035D02*
X011268Y008035D01*
X011269Y008029D02*
X011294Y007952D01*
X011331Y007879D01*
X011379Y007812D01*
X011437Y007755D01*
X011504Y007706D01*
X011573Y007671D01*
X011365Y007671D01*
X011284Y007658D01*
X011206Y007633D01*
X011134Y007596D01*
X011067Y007548D01*
X011009Y007490D01*
X010961Y007424D01*
X010924Y007351D01*
X010899Y007273D01*
X010887Y007201D01*
X010895Y007246D02*
X010255Y007246D01*
X010266Y007345D02*
X010922Y007345D01*
X010976Y007443D02*
X010266Y007443D01*
X010266Y007542D02*
X011061Y007542D01*
X011229Y007640D02*
X010266Y007640D01*
X010266Y007739D02*
X011459Y007739D01*
X011361Y007838D02*
X010266Y007838D01*
X010266Y007936D02*
X011302Y007936D01*
X011269Y008029D02*
X011256Y008110D01*
X011256Y008121D01*
X011746Y008121D01*
X011746Y008181D01*
X011256Y008181D01*
X011256Y008192D01*
X011269Y008273D01*
X011294Y008351D01*
X011331Y008424D01*
X011379Y008490D01*
X011437Y008548D01*
X011504Y008596D01*
X011547Y008618D01*
X011448Y008659D01*
X011284Y008823D01*
X011383Y008724D02*
X010542Y008724D01*
X010428Y008626D02*
X011529Y008626D01*
X011417Y008527D02*
X010395Y008527D01*
X010362Y008429D02*
X011335Y008429D01*
X011288Y008330D02*
X010329Y008330D01*
X010296Y008232D02*
X011262Y008232D01*
X011746Y008035D02*
X011806Y008035D01*
X011806Y007936D02*
X011746Y007936D01*
X011746Y007838D02*
X011806Y007838D01*
X011806Y007739D02*
X011746Y007739D01*
X011746Y007640D02*
X011806Y007640D01*
X011826Y007542D02*
X011726Y007542D01*
X011726Y007443D02*
X011826Y007443D01*
X011826Y007345D02*
X011726Y007345D01*
X011726Y007246D02*
X011826Y007246D01*
X011726Y007148D02*
X010214Y007148D01*
X009511Y006951D02*
X009041Y006951D01*
X009054Y006956D02*
X008874Y006881D01*
X008679Y006881D01*
X008498Y006956D01*
X008361Y007094D01*
X008286Y007274D01*
X008286Y008029D01*
X008361Y008209D01*
X008498Y008347D01*
X008679Y008421D01*
X008874Y008421D01*
X009054Y008347D01*
X009191Y008209D01*
X009266Y008029D01*
X009266Y007274D01*
X009191Y007094D01*
X009054Y006956D01*
X009147Y007049D02*
X009405Y007049D01*
X009338Y007148D02*
X009214Y007148D01*
X009255Y007246D02*
X009297Y007246D01*
X009286Y007345D02*
X009266Y007345D01*
X009266Y007443D02*
X009286Y007443D01*
X009286Y007542D02*
X009266Y007542D01*
X009266Y007640D02*
X009286Y007640D01*
X009286Y007739D02*
X009266Y007739D01*
X009266Y007838D02*
X009286Y007838D01*
X009286Y007936D02*
X009266Y007936D01*
X009264Y008035D02*
X009289Y008035D01*
X009329Y008133D02*
X009223Y008133D01*
X009168Y008232D02*
X009384Y008232D01*
X009482Y008330D02*
X009070Y008330D01*
X008689Y008626D02*
X009774Y008626D01*
X009741Y008527D02*
X008591Y008527D01*
X008492Y008429D02*
X009709Y008429D01*
X009807Y008724D02*
X008788Y008724D01*
X008886Y008823D02*
X009840Y008823D01*
X009813Y008922D02*
X008985Y008922D01*
X009083Y009020D02*
X009786Y009020D01*
X009786Y009119D02*
X009182Y009119D01*
X009280Y009217D02*
X009786Y009217D01*
X009786Y009316D02*
X009379Y009316D01*
X009478Y009414D02*
X009846Y009414D01*
X009945Y009513D02*
X009554Y009513D01*
X009586Y009611D02*
X010043Y009611D01*
X010153Y009808D02*
X009586Y009808D01*
X009586Y009710D02*
X011609Y009710D01*
X011378Y009907D02*
X010601Y009907D01*
X010700Y010006D02*
X011234Y010006D01*
X011135Y010104D02*
X010756Y010104D01*
X010796Y010203D02*
X011053Y010203D01*
X011012Y010301D02*
X010806Y010301D01*
X010806Y010400D02*
X010971Y010400D01*
X010936Y010498D02*
X010806Y010498D01*
X010806Y010597D02*
X010936Y010597D01*
X010936Y010695D02*
X010806Y010695D01*
X010806Y010794D02*
X010936Y010794D01*
X010967Y010892D02*
X010806Y010892D01*
X010806Y010991D02*
X011008Y010991D01*
X011049Y011089D02*
X010801Y011089D01*
X010760Y011188D02*
X011125Y011188D01*
X011224Y011287D02*
X010710Y011287D01*
X010612Y011385D02*
X011353Y011385D01*
X012499Y010203D02*
X012516Y010203D01*
X012516Y010104D02*
X012417Y010104D01*
X012318Y010006D02*
X012516Y010006D01*
X012516Y009907D02*
X012174Y009907D01*
X012284Y008035D02*
X012516Y008035D01*
X012516Y007936D02*
X012250Y007936D01*
X012191Y007838D02*
X012516Y007838D01*
X012516Y007739D02*
X012093Y007739D01*
X012323Y007640D02*
X012516Y007640D01*
X012516Y007542D02*
X012491Y007542D01*
X010991Y006556D02*
X002064Y006556D01*
X002086Y005768D02*
X006466Y005768D01*
X006466Y005670D02*
X001987Y005670D01*
X001326Y005374D02*
X001036Y005374D01*
X001036Y005275D02*
X001213Y005275D01*
X001114Y005177D02*
X001036Y005177D01*
X001036Y005078D02*
X001044Y005078D01*
X001036Y006951D02*
X003511Y006951D01*
X003498Y006956D02*
X003679Y006881D01*
X003874Y006881D01*
X004054Y006956D01*
X004191Y007094D01*
X004266Y007274D01*
X004266Y008029D01*
X004191Y008209D01*
X004054Y008347D01*
X003874Y008421D01*
X003679Y008421D01*
X003498Y008347D01*
X003361Y008209D01*
X003286Y008029D01*
X003286Y007274D01*
X003361Y007094D01*
X003498Y006956D01*
X003405Y007049D02*
X001036Y007049D01*
X001036Y007148D02*
X003338Y007148D01*
X003297Y007246D02*
X001036Y007246D01*
X001036Y007345D02*
X003286Y007345D01*
X003286Y007443D02*
X001036Y007443D01*
X001036Y007542D02*
X003286Y007542D01*
X003286Y007640D02*
X001036Y007640D01*
X001036Y007739D02*
X003286Y007739D01*
X003286Y007838D02*
X001036Y007838D01*
X001036Y007936D02*
X003286Y007936D01*
X003289Y008035D02*
X001036Y008035D01*
X001036Y008133D02*
X003329Y008133D01*
X003384Y008232D02*
X001036Y008232D01*
X001036Y008330D02*
X003482Y008330D01*
X003542Y008724D02*
X004466Y008724D01*
X004466Y008626D02*
X001036Y008626D01*
X001036Y008724D02*
X001595Y008724D01*
X001598Y008721D02*
X001346Y008973D01*
X001346Y009121D01*
X001746Y009121D01*
X001806Y009121D01*
X001806Y008721D01*
X001954Y008721D01*
X002206Y008973D01*
X002206Y009121D01*
X001806Y009121D01*
X001806Y009181D01*
X002206Y009181D01*
X002206Y009329D01*
X001954Y009581D01*
X001806Y009581D01*
X001806Y009181D01*
X001746Y009181D01*
X001746Y009121D01*
X001746Y008721D01*
X001598Y008721D01*
X001496Y008823D02*
X001036Y008823D01*
X001036Y008922D02*
X001398Y008922D01*
X001346Y009020D02*
X001036Y009020D01*
X001036Y009119D02*
X001346Y009119D01*
X001346Y009181D02*
X001746Y009181D01*
X001746Y009581D01*
X001598Y009581D01*
X001346Y009329D01*
X001346Y009181D01*
X001346Y009217D02*
X001036Y009217D01*
X001036Y009316D02*
X001346Y009316D01*
X001431Y009414D02*
X001036Y009414D01*
X001036Y009513D02*
X001530Y009513D01*
X001746Y009513D02*
X001806Y009513D01*
X001806Y009414D02*
X001746Y009414D01*
X001746Y009316D02*
X001806Y009316D01*
X001806Y009217D02*
X001746Y009217D01*
X001746Y009119D02*
X001806Y009119D01*
X001806Y009020D02*
X001746Y009020D01*
X001746Y008922D02*
X001806Y008922D01*
X001806Y008823D02*
X001746Y008823D01*
X001746Y008724D02*
X001806Y008724D01*
X001957Y008724D02*
X003010Y008724D01*
X002911Y008823D02*
X002056Y008823D01*
X002154Y008922D02*
X002813Y008922D01*
X002786Y009020D02*
X002206Y009020D01*
X002206Y009119D02*
X002786Y009119D01*
X002786Y009217D02*
X002206Y009217D01*
X002206Y009316D02*
X002786Y009316D01*
X002846Y009414D02*
X002121Y009414D01*
X002022Y009513D02*
X002945Y009513D01*
X002966Y009611D02*
X001036Y009611D01*
X001036Y009710D02*
X002966Y009710D01*
X002966Y009808D02*
X001036Y009808D01*
X001036Y009907D02*
X001378Y009907D01*
X001234Y010006D02*
X001036Y010006D01*
X001036Y010104D02*
X001135Y010104D01*
X001053Y010203D02*
X001036Y010203D01*
X002174Y009907D02*
X002951Y009907D01*
X002852Y010006D02*
X002318Y010006D01*
X002417Y010104D02*
X002796Y010104D01*
X002756Y010203D02*
X002499Y010203D01*
X002540Y010301D02*
X002746Y010301D01*
X002746Y010400D02*
X002581Y010400D01*
X002616Y010498D02*
X002746Y010498D01*
X002746Y010597D02*
X002616Y010597D01*
X002616Y010695D02*
X002746Y010695D01*
X002746Y010794D02*
X002616Y010794D01*
X002585Y010892D02*
X002746Y010892D01*
X002746Y010991D02*
X002544Y010991D01*
X002504Y011089D02*
X002751Y011089D01*
X002792Y011188D02*
X002427Y011188D01*
X002328Y011287D02*
X002842Y011287D01*
X002941Y011385D02*
X002199Y011385D01*
X003756Y010104D02*
X003796Y010104D01*
X003852Y010006D02*
X003700Y010006D01*
X003601Y009907D02*
X003951Y009907D01*
X004153Y009808D02*
X003586Y009808D01*
X003586Y009710D02*
X004466Y009710D01*
X004466Y009611D02*
X003586Y009611D01*
X003607Y009513D02*
X004466Y009513D01*
X004466Y009414D02*
X003706Y009414D01*
X003766Y009316D02*
X004466Y009316D01*
X004466Y009217D02*
X003766Y009217D01*
X003766Y009119D02*
X004466Y009119D01*
X004466Y009020D02*
X003766Y009020D01*
X003739Y008922D02*
X004466Y008922D01*
X004466Y008823D02*
X003641Y008823D01*
X004070Y008330D02*
X004466Y008330D01*
X004466Y008429D02*
X001036Y008429D01*
X001036Y008527D02*
X004466Y008527D01*
X004384Y008232D02*
X004168Y008232D01*
X004223Y008133D02*
X004329Y008133D01*
X004289Y008035D02*
X004264Y008035D01*
X004266Y007936D02*
X004286Y007936D01*
X004286Y007838D02*
X004266Y007838D01*
X004266Y007739D02*
X004286Y007739D01*
X004286Y007640D02*
X004266Y007640D01*
X004266Y007542D02*
X004286Y007542D01*
X004286Y007443D02*
X004266Y007443D01*
X004266Y007345D02*
X004286Y007345D01*
X004297Y007246D02*
X004255Y007246D01*
X004214Y007148D02*
X004338Y007148D01*
X004405Y007049D02*
X004147Y007049D01*
X004041Y006951D02*
X004511Y006951D01*
X005041Y006951D02*
X005511Y006951D01*
X005405Y007049D02*
X005147Y007049D01*
X005214Y007148D02*
X005338Y007148D01*
X005297Y007246D02*
X005255Y007246D01*
X005266Y007345D02*
X005286Y007345D01*
X005286Y007443D02*
X005266Y007443D01*
X005266Y007542D02*
X005286Y007542D01*
X005286Y007640D02*
X005266Y007640D01*
X005266Y007739D02*
X005286Y007739D01*
X005286Y007838D02*
X005266Y007838D01*
X005266Y007936D02*
X005286Y007936D01*
X005289Y008035D02*
X005264Y008035D01*
X005223Y008133D02*
X005329Y008133D01*
X005384Y008232D02*
X005168Y008232D01*
X005086Y008330D02*
X005466Y008330D01*
X005466Y008429D02*
X005086Y008429D01*
X005086Y008527D02*
X005466Y008527D01*
X005466Y008626D02*
X005086Y008626D01*
X005086Y008724D02*
X005466Y008724D01*
X005466Y008823D02*
X005086Y008823D01*
X005086Y008922D02*
X005466Y008922D01*
X005466Y009020D02*
X005086Y009020D01*
X005086Y009119D02*
X005466Y009119D01*
X005466Y009217D02*
X005086Y009217D01*
X005086Y009316D02*
X005466Y009316D01*
X005466Y009414D02*
X005086Y009414D01*
X005086Y009513D02*
X005466Y009513D01*
X005466Y009611D02*
X005175Y009611D01*
X005273Y009710D02*
X005466Y009710D01*
X005506Y009808D02*
X005399Y009808D01*
X006273Y009710D02*
X006966Y009710D01*
X006966Y009808D02*
X006399Y009808D01*
X006509Y009611D02*
X006966Y009611D01*
X006945Y009513D02*
X006607Y009513D01*
X006706Y009414D02*
X006846Y009414D01*
X006786Y009316D02*
X006766Y009316D01*
X006766Y009217D02*
X006786Y009217D01*
X006786Y009119D02*
X006766Y009119D01*
X006766Y009020D02*
X006786Y009020D01*
X006813Y008922D02*
X006739Y008922D01*
X006641Y008823D02*
X006911Y008823D01*
X007010Y008724D02*
X006641Y008724D01*
X006740Y008626D02*
X007812Y008626D01*
X007714Y008527D02*
X006838Y008527D01*
X006937Y008429D02*
X007615Y008429D01*
X007482Y008330D02*
X007070Y008330D01*
X007168Y008232D02*
X007384Y008232D01*
X007329Y008133D02*
X007223Y008133D01*
X007264Y008035D02*
X007289Y008035D01*
X007286Y007936D02*
X007266Y007936D01*
X007266Y007838D02*
X007286Y007838D01*
X007286Y007739D02*
X007266Y007739D01*
X007266Y007640D02*
X007286Y007640D01*
X007286Y007542D02*
X007266Y007542D01*
X007266Y007443D02*
X007286Y007443D01*
X007286Y007345D02*
X007266Y007345D01*
X007255Y007246D02*
X007297Y007246D01*
X007338Y007148D02*
X007214Y007148D01*
X007147Y007049D02*
X007405Y007049D01*
X007511Y006951D02*
X007041Y006951D01*
X006511Y006951D02*
X006041Y006951D01*
X006147Y007049D02*
X006405Y007049D01*
X006338Y007148D02*
X006214Y007148D01*
X006255Y007246D02*
X006297Y007246D01*
X006286Y007345D02*
X006266Y007345D01*
X006266Y007443D02*
X006286Y007443D01*
X006286Y007542D02*
X006266Y007542D01*
X006266Y007640D02*
X006286Y007640D01*
X006286Y007739D02*
X006266Y007739D01*
X006266Y007838D02*
X006286Y007838D01*
X006286Y007936D02*
X006266Y007936D01*
X006264Y008035D02*
X006289Y008035D01*
X006329Y008133D02*
X006223Y008133D01*
X006257Y008232D02*
X006168Y008232D01*
X006159Y008330D02*
X006086Y008330D01*
X007542Y008724D02*
X007911Y008724D01*
X008009Y008823D02*
X007641Y008823D01*
X007739Y008922D02*
X008108Y008922D01*
X008207Y009020D02*
X007766Y009020D01*
X007766Y009119D02*
X008305Y009119D01*
X008404Y009217D02*
X007766Y009217D01*
X007766Y009316D02*
X008502Y009316D01*
X008601Y009414D02*
X007706Y009414D01*
X007607Y009513D02*
X008699Y009513D01*
X008798Y009611D02*
X007586Y009611D01*
X007586Y009710D02*
X008896Y009710D01*
X008966Y009808D02*
X008399Y009808D01*
X008153Y009808D02*
X007586Y009808D01*
X007601Y009907D02*
X007951Y009907D01*
X007852Y010006D02*
X007700Y010006D01*
X007756Y010104D02*
X007796Y010104D01*
X008601Y009907D02*
X008951Y009907D01*
X008852Y010006D02*
X008700Y010006D01*
X008756Y010104D02*
X008796Y010104D01*
X009601Y009907D02*
X009951Y009907D01*
X009852Y010006D02*
X009700Y010006D01*
X009756Y010104D02*
X009796Y010104D01*
X008482Y008330D02*
X008394Y008330D01*
X008384Y008232D02*
X008295Y008232D01*
X008329Y008133D02*
X008223Y008133D01*
X008264Y008035D02*
X008289Y008035D01*
X008286Y007936D02*
X008266Y007936D01*
X008266Y007838D02*
X008286Y007838D01*
X008286Y007739D02*
X008266Y007739D01*
X008266Y007640D02*
X008286Y007640D01*
X008286Y007542D02*
X008266Y007542D01*
X008266Y007443D02*
X008286Y007443D01*
X008286Y007345D02*
X008266Y007345D01*
X008255Y007246D02*
X008297Y007246D01*
X008338Y007148D02*
X008214Y007148D01*
X008147Y007049D02*
X008405Y007049D01*
X008511Y006951D02*
X008041Y006951D01*
X007006Y006359D02*
X010865Y006359D01*
X010826Y006261D02*
X007066Y006261D01*
X007086Y006162D02*
X010826Y006162D01*
X010826Y006064D02*
X007086Y006064D01*
X007086Y005965D02*
X010855Y005965D01*
X010896Y005867D02*
X007086Y005867D01*
X007086Y005768D02*
X010969Y005768D01*
X011067Y005670D02*
X007086Y005670D01*
X007086Y005571D02*
X012516Y005571D01*
X012516Y005473D02*
X011988Y005473D01*
X012226Y005374D02*
X012516Y005374D01*
X012516Y005275D02*
X012340Y005275D01*
X012438Y005177D02*
X012516Y005177D01*
X012508Y005078D02*
X012516Y005078D01*
X012485Y005670D02*
X012516Y005670D01*
X011564Y005473D02*
X007086Y005473D01*
X007086Y005374D02*
X007565Y005374D01*
X007498Y005347D02*
X007361Y005209D01*
X007286Y005029D01*
X007286Y004274D01*
X007311Y004214D01*
X007242Y003999D01*
X007058Y003923D01*
X006894Y003760D01*
X006806Y003547D01*
X006806Y003316D01*
X006894Y003103D01*
X007058Y002939D01*
X007271Y002851D01*
X007501Y002851D01*
X007715Y002939D01*
X007878Y003103D01*
X007966Y003316D01*
X007966Y003547D01*
X007878Y003760D01*
X007831Y003806D01*
X007855Y003881D01*
X007874Y003881D01*
X008054Y003956D01*
X008191Y004094D01*
X008266Y004274D01*
X008266Y005029D01*
X008191Y005209D01*
X008054Y005347D01*
X007874Y005421D01*
X007679Y005421D01*
X007498Y005347D01*
X007427Y005275D02*
X007125Y005275D01*
X007205Y005177D02*
X007347Y005177D01*
X007307Y005078D02*
X007245Y005078D01*
X007266Y004980D02*
X007286Y004980D01*
X007286Y004881D02*
X007266Y004881D01*
X007266Y004783D02*
X007286Y004783D01*
X007286Y004684D02*
X007266Y004684D01*
X007266Y004586D02*
X007286Y004586D01*
X007286Y004487D02*
X007266Y004487D01*
X007266Y004389D02*
X007286Y004389D01*
X007286Y004290D02*
X007266Y004290D01*
X007232Y004191D02*
X007304Y004191D01*
X007272Y004093D02*
X007191Y004093D01*
X007230Y003994D02*
X007092Y003994D01*
X007031Y003896D02*
X006909Y003896D01*
X006932Y003797D02*
X006620Y003797D01*
X006658Y003760D02*
X006495Y003923D01*
X006281Y004011D01*
X006109Y004011D01*
X006191Y004094D01*
X006266Y004274D01*
X006266Y005029D01*
X006191Y005209D01*
X006054Y005347D01*
X005874Y005421D01*
X005679Y005421D01*
X005498Y005347D01*
X005361Y005209D01*
X005286Y005029D01*
X005286Y004274D01*
X005361Y004094D01*
X005498Y003956D01*
X005679Y003881D01*
X005796Y003881D01*
X005674Y003760D01*
X005586Y003547D01*
X005586Y003316D01*
X005674Y003103D01*
X005838Y002939D01*
X006051Y002851D01*
X006281Y002851D01*
X006495Y002939D01*
X006658Y003103D01*
X006746Y003316D01*
X006746Y003547D01*
X006658Y003760D01*
X006683Y003699D02*
X006869Y003699D01*
X006828Y003600D02*
X006724Y003600D01*
X006746Y003502D02*
X006806Y003502D01*
X006806Y003403D02*
X006746Y003403D01*
X006741Y003305D02*
X006811Y003305D01*
X006852Y003206D02*
X006701Y003206D01*
X006660Y003107D02*
X006892Y003107D01*
X006988Y003009D02*
X006564Y003009D01*
X006424Y002910D02*
X007128Y002910D01*
X007644Y002910D02*
X008908Y002910D01*
X008838Y002939D02*
X009051Y002851D01*
X009281Y002851D01*
X009495Y002939D01*
X009658Y003103D01*
X009746Y003316D01*
X009746Y003547D01*
X009658Y003760D01*
X009495Y003923D01*
X009281Y004011D01*
X009109Y004011D01*
X009191Y004094D01*
X009266Y004274D01*
X009266Y005029D01*
X009191Y005209D01*
X009054Y005347D01*
X008874Y005421D01*
X008679Y005421D01*
X008498Y005347D01*
X008361Y005209D01*
X008286Y005029D01*
X008286Y004274D01*
X008361Y004094D01*
X008498Y003956D01*
X008679Y003881D01*
X008796Y003881D01*
X008674Y003760D01*
X008586Y003547D01*
X008586Y003316D01*
X008674Y003103D01*
X008838Y002939D01*
X008768Y003009D02*
X007784Y003009D01*
X007880Y003107D02*
X008672Y003107D01*
X008632Y003206D02*
X007921Y003206D01*
X007961Y003305D02*
X008591Y003305D01*
X008586Y003403D02*
X007966Y003403D01*
X007966Y003502D02*
X008586Y003502D01*
X008608Y003600D02*
X007944Y003600D01*
X007903Y003699D02*
X008649Y003699D01*
X008712Y003797D02*
X007840Y003797D01*
X007909Y003896D02*
X008643Y003896D01*
X008460Y003994D02*
X008092Y003994D01*
X008191Y004093D02*
X008361Y004093D01*
X008320Y004191D02*
X008232Y004191D01*
X008266Y004290D02*
X008286Y004290D01*
X008286Y004389D02*
X008266Y004389D01*
X008266Y004487D02*
X008286Y004487D01*
X008286Y004586D02*
X008266Y004586D01*
X008266Y004684D02*
X008286Y004684D01*
X008286Y004783D02*
X008266Y004783D01*
X008266Y004881D02*
X008286Y004881D01*
X008286Y004980D02*
X008266Y004980D01*
X008245Y005078D02*
X008307Y005078D01*
X008347Y005177D02*
X008205Y005177D01*
X008125Y005275D02*
X008427Y005275D01*
X008565Y005374D02*
X007987Y005374D01*
X008987Y005374D02*
X009565Y005374D01*
X009498Y005347D02*
X009361Y005209D01*
X009286Y005029D01*
X009286Y004274D01*
X009361Y004094D01*
X009498Y003956D01*
X009679Y003881D01*
X009814Y003881D01*
X009886Y003739D01*
X009806Y003547D01*
X009806Y003316D01*
X009894Y003103D01*
X010058Y002939D01*
X010271Y002851D01*
X010501Y002851D01*
X010715Y002939D01*
X010878Y003103D01*
X010966Y003316D01*
X010966Y003547D01*
X010878Y003760D01*
X010715Y003923D01*
X010501Y004011D01*
X010443Y004011D01*
X010266Y004364D01*
X010266Y005029D01*
X010191Y005209D01*
X010054Y005347D01*
X009874Y005421D01*
X009679Y005421D01*
X009498Y005347D01*
X009427Y005275D02*
X009125Y005275D01*
X009205Y005177D02*
X009347Y005177D01*
X009307Y005078D02*
X009245Y005078D01*
X009266Y004980D02*
X009286Y004980D01*
X009286Y004881D02*
X009266Y004881D01*
X009266Y004783D02*
X009286Y004783D01*
X009286Y004684D02*
X009266Y004684D01*
X009266Y004586D02*
X009286Y004586D01*
X009286Y004487D02*
X009266Y004487D01*
X009266Y004389D02*
X009286Y004389D01*
X009286Y004290D02*
X009266Y004290D01*
X009232Y004191D02*
X009320Y004191D01*
X009361Y004093D02*
X009191Y004093D01*
X009322Y003994D02*
X009460Y003994D01*
X009522Y003896D02*
X009643Y003896D01*
X009620Y003797D02*
X009856Y003797D01*
X009869Y003699D02*
X009683Y003699D01*
X009724Y003600D02*
X009828Y003600D01*
X009806Y003502D02*
X009746Y003502D01*
X009746Y003403D02*
X009806Y003403D01*
X009811Y003305D02*
X009741Y003305D01*
X009701Y003206D02*
X009852Y003206D01*
X009892Y003107D02*
X009660Y003107D01*
X009564Y003009D02*
X009988Y003009D01*
X010128Y002910D02*
X009424Y002910D01*
X010402Y004093D02*
X011146Y004093D01*
X011057Y004191D02*
X010352Y004191D01*
X010303Y004290D02*
X011017Y004290D01*
X010976Y004389D02*
X010266Y004389D01*
X010266Y004487D02*
X010936Y004487D01*
X010936Y004586D02*
X010266Y004586D01*
X010266Y004684D02*
X010936Y004684D01*
X010936Y004783D02*
X010266Y004783D01*
X010266Y004881D02*
X010962Y004881D01*
X011003Y004980D02*
X010266Y004980D01*
X010245Y005078D02*
X011044Y005078D01*
X011114Y005177D02*
X010205Y005177D01*
X010125Y005275D02*
X011213Y005275D01*
X011326Y005374D02*
X009987Y005374D01*
X010905Y006458D02*
X006845Y006458D01*
X006466Y005374D02*
X005987Y005374D01*
X006125Y005275D02*
X006427Y005275D01*
X006347Y005177D02*
X006205Y005177D01*
X006245Y005078D02*
X006307Y005078D01*
X006286Y004980D02*
X006266Y004980D01*
X006266Y004881D02*
X006286Y004881D01*
X006286Y004783D02*
X006266Y004783D01*
X006266Y004684D02*
X006286Y004684D01*
X006286Y004586D02*
X006266Y004586D01*
X006266Y004487D02*
X006286Y004487D01*
X006286Y004389D02*
X006266Y004389D01*
X006266Y004290D02*
X006286Y004290D01*
X006320Y004191D02*
X006232Y004191D01*
X006191Y004093D02*
X006361Y004093D01*
X006322Y003994D02*
X006460Y003994D01*
X006522Y003896D02*
X006643Y003896D01*
X005712Y003797D02*
X004840Y003797D01*
X004903Y003699D02*
X005649Y003699D01*
X005608Y003600D02*
X004944Y003600D01*
X004966Y003502D02*
X005586Y003502D01*
X005586Y003403D02*
X004966Y003403D01*
X004961Y003305D02*
X005591Y003305D01*
X005632Y003206D02*
X004921Y003206D01*
X004880Y003107D02*
X005672Y003107D01*
X005768Y003009D02*
X004784Y003009D01*
X004644Y002910D02*
X005908Y002910D01*
X005643Y003896D02*
X004959Y003896D01*
X005092Y003994D02*
X005460Y003994D01*
X005361Y004093D02*
X005191Y004093D01*
X005232Y004191D02*
X005320Y004191D01*
X005286Y004290D02*
X005266Y004290D01*
X005266Y004389D02*
X005286Y004389D01*
X005286Y004487D02*
X005266Y004487D01*
X005266Y004586D02*
X005286Y004586D01*
X005286Y004684D02*
X005266Y004684D01*
X005266Y004783D02*
X005286Y004783D01*
X005286Y004881D02*
X005266Y004881D01*
X005266Y004980D02*
X005286Y004980D01*
X005307Y005078D02*
X005245Y005078D01*
X005205Y005177D02*
X005347Y005177D01*
X005427Y005275D02*
X005125Y005275D01*
X004987Y005374D02*
X005565Y005374D01*
X003932Y003797D02*
X003620Y003797D01*
X003683Y003699D02*
X003869Y003699D01*
X003828Y003600D02*
X003724Y003600D01*
X003746Y003502D02*
X003806Y003502D01*
X003806Y003403D02*
X003746Y003403D01*
X003741Y003305D02*
X003811Y003305D01*
X003852Y003206D02*
X003701Y003206D01*
X003660Y003107D02*
X003892Y003107D01*
X003988Y003009D02*
X003564Y003009D01*
X003424Y002910D02*
X004128Y002910D01*
X010542Y003994D02*
X011245Y003994D01*
X011405Y003896D02*
X010742Y003896D01*
X010840Y003797D02*
X011712Y003797D01*
X011649Y003699D02*
X010903Y003699D01*
X010944Y003600D02*
X011608Y003600D01*
X011586Y003502D02*
X010966Y003502D01*
X010966Y003403D02*
X011586Y003403D01*
X011591Y003305D02*
X010961Y003305D01*
X010921Y003206D02*
X011632Y003206D01*
X011672Y003107D02*
X010880Y003107D01*
X010784Y003009D02*
X011768Y003009D01*
X011908Y002910D02*
X010644Y002910D01*
X012327Y001432D02*
X012516Y001432D01*
X012516Y002910D02*
X012424Y002910D01*
X006951Y009907D02*
X006601Y009907D01*
X006700Y010006D02*
X006852Y010006D01*
X006796Y010104D02*
X006756Y010104D01*
X004506Y009808D02*
X004399Y009808D01*
D12*
X004776Y007931D02*
X004776Y007371D01*
X003776Y007371D02*
X003776Y007931D01*
X005776Y007931D02*
X005776Y007371D01*
X006776Y007371D02*
X006776Y007931D01*
X007776Y007931D02*
X007776Y007371D01*
X008776Y007371D02*
X008776Y007931D01*
X009776Y007931D02*
X009776Y007371D01*
X009776Y004931D02*
X009776Y004371D01*
X008776Y004371D02*
X008776Y004931D01*
X007776Y004931D02*
X007776Y004371D01*
X006776Y004371D02*
X006776Y004931D01*
X005776Y004931D02*
X005776Y004371D01*
X004776Y004371D02*
X004776Y004931D01*
X003776Y004931D02*
X003776Y004371D01*
D13*
X003276Y010331D02*
X003276Y010971D01*
X004276Y010971D02*
X004276Y010331D01*
X005276Y010331D02*
X005276Y010971D01*
X006276Y010971D02*
X006276Y010331D01*
X007276Y010331D02*
X007276Y010971D01*
X008276Y010971D02*
X008276Y010331D01*
X009276Y010331D02*
X009276Y010971D01*
X010276Y010971D02*
X010276Y010331D01*
D14*
X011776Y009151D03*
X011776Y008151D03*
X012166Y003431D03*
X010386Y003431D03*
X009166Y003431D03*
X007386Y003431D03*
X006166Y003431D03*
X004386Y003431D03*
X003166Y003431D03*
X001386Y003431D03*
X001386Y000871D03*
X003166Y000871D03*
X004386Y000871D03*
X006166Y000871D03*
X007386Y000871D03*
X009166Y000871D03*
X010386Y000871D03*
X012166Y000871D03*
D15*
X010276Y009151D03*
X007276Y009151D03*
X006276Y009151D03*
X003276Y009151D03*
X001776Y009151D03*
X001776Y006151D03*
D16*
X011406Y006151D02*
X012146Y006151D01*
X012146Y007151D02*
X011406Y007151D01*
D17*
X009776Y007651D02*
X010276Y009151D01*
X009276Y009651D02*
X009276Y010651D01*
X009276Y009651D02*
X007776Y008151D01*
X007776Y007651D01*
X006776Y007651D02*
X006776Y008151D01*
X006276Y008651D01*
X006276Y009151D01*
X005776Y009651D02*
X006276Y010151D01*
X006276Y010651D01*
X005276Y010651D02*
X005276Y010151D01*
X004776Y009651D01*
X004776Y007651D01*
X005776Y007651D02*
X005776Y009651D01*
X007276Y009151D02*
X007276Y010651D01*
X003276Y010651D02*
X003276Y009151D01*
X001776Y006151D02*
X006776Y006151D01*
X006776Y004651D01*
X007776Y004651D02*
X007386Y003431D01*
X009776Y004651D02*
X010386Y003431D01*
X004776Y004151D02*
X004776Y004651D01*
X004386Y003431D01*
M02*
