<?xml version="1.0" encoding="UTF-8" standalone="no"?>
<!-- Generator: Adobe Illustrator 13.0.0, SVG Export Plug-In . SVG Version: 6.00 Build 14948)  -->

<svg
   xmlns:dc="http://purl.org/dc/elements/1.1/"
   xmlns:cc="http://creativecommons.org/ns#"
   xmlns:rdf="http://www.w3.org/1999/02/22-rdf-syntax-ns#"
   xmlns:svg="http://www.w3.org/2000/svg"
   xmlns="http://www.w3.org/2000/svg"
   xmlns:sodipodi="http://sodipodi.sourceforge.net/DTD/sodipodi-0.dtd"
   xmlns:inkscape="http://www.inkscape.org/namespaces/inkscape"
   version="1.0"
   id="svg2"
   inkscape:output_extension="org.inkscape.output.svg.inkscape"
   sodipodi:version="0.32"
   sodipodi:docname="blank_2x3_merged.svg"
   inkscape:version="0.48.3.1 r9886"
   x="0px"
   y="0px"
   width="796.5072"
   height="574.80725"
   viewBox="0 0 796.50721 574.80725"
   enable-background="new 0 0 782.469 748.518"
   xml:space="preserve"><metadata
   id="metadata3658"><rdf:RDF><cc:Work
       rdf:about=""><dc:format>image/svg+xml</dc:format><dc:type
         rdf:resource="http://purl.org/dc/dcmitype/StillImage" /></cc:Work></rdf:RDF></metadata>
<defs
   id="defs3593">
	
	
		<inkscape:perspective
   id="perspective35"
   inkscape:vp_z="567.81738 : 410.56467 : 1"
   inkscape:vp_y="0 : 1000 : 0"
   inkscape:persp3d-origin="283.90869 : 273.70978 : 1"
   sodipodi:type="inkscape:persp3d"
   inkscape:vp_x="0 : 410.56467 : 1">
		</inkscape:perspective>
	<inkscape:path-effect
   effect="spiro"
   id="path-effect3941"
   is_visible="true" />
	<inkscape:path-effect
   effect="spiro"
   id="path-effect3941-2"
   is_visible="true" />
	<inkscape:path-effect
   effect="spiro"
   id="path-effect3941-1"
   is_visible="true" />
	<inkscape:path-effect
   effect="spiro"
   id="path-effect3941-2-1"
   is_visible="true" />
	<inkscape:path-effect
   effect="spiro"
   id="path-effect3941-1-7"
   is_visible="true" />
	<inkscape:path-effect
   effect="spiro"
   id="path-effect3941-2-1-2"
   is_visible="true" />
	<inkscape:path-effect
   effect="spiro"
   id="path-effect23631"
   is_visible="true" />
	<inkscape:path-effect
   effect="spiro"
   id="path-effect23629"
   is_visible="true" />
	
		<inkscape:perspective
   id="perspective37"
   inkscape:vp_z="744.09448 : 526.18109 : 1"
   inkscape:vp_y="0 : 1000 : 0"
   inkscape:persp3d-origin="372.04724 : 350.78739 : 1"
   sodipodi:type="inkscape:persp3d"
   inkscape:vp_x="0 : 526.18109 : 1">
		</inkscape:perspective>
</defs>
<sodipodi:namedview
   units="cm"
   id="namedview4"
   inkscape:window-maximized="1"
   borderopacity="1"
   pagecolor="#ffffff"
   bordercolor="#666666"
   objecttolerance="10"
   guidetolerance="10"
   inkscape:pageopacity="0"
   inkscape:pageshadow="2"
   inkscape:zoom="0.5"
   fit-margin-bottom="0.2"
   fit-margin-right="0.2"
   fit-margin-top="0.2"
   fit-margin-left="0.2"
   inkscape:current-layer="svg2"
   inkscape:window-y="24"
   inkscape:window-x="0"
   inkscape:cy="316.59225"
   inkscape:cx="-193.30499"
   gridtolerance="10"
   showgrid="false"
   inkscape:window-width="1920"
   inkscape:window-height="1000">
	</sodipodi:namedview>
<g
   id="g3970"
   transform="translate(14.274614,8.2736087)">
</g>
<g
   id="Default"
   transform="matrix(0.02757182,0,0,-0.02757182,-198.97839,584.26895)">
	<desc
   id="desc32263">Master slide</desc>
</g>
<g
   id="g3609"
   transform="translate(14.274614,8.2736087)">
	<g
   id="g3611">
		<path
   id="rect8807_7_"
   d="m 374.878,186.19 c 4.975,0 8.979,-4.005 8.979,-8.979 V 9.292 c 0,-4.975 -4.006,-8.979 -8.979,-8.979 H 3.292 c -4.975,0 -8.98,4.005 -8.98,8.979 v 167.919 c 0,4.975 4.005,8.979 8.98,8.979"
   inkscape:connector-curvature="0"
   style="fill:none;stroke:#ff0000;stroke-width:3" />
	</g>
	<g
   id="g3614">
		<path
   id="rect8807_9_"
   d="m 383.858,195.17 c 0,-4.975 -4.007,-8.979 -8.98,-8.979"
   inkscape:connector-curvature="0"
   style="fill:none;stroke:#ff0000;stroke-width:3" />
		<path
   id="rect8807_28_"
   d="m 374.877,372.068 c 4.975,0 8.98,-4.005 8.98,-8.979 V 195.17"
   inkscape:connector-curvature="0"
   style="fill:none;stroke:#ff0000;stroke-width:3" />
		<path
   id="rect8807_15_"
   d="m 3.292,186.19 c -4.975,0 -8.98,4.005 -8.98,8.979 v 167.919 c 0,4.975 4.005,8.979 8.98,8.979"
   inkscape:connector-curvature="0"
   style="fill:none;stroke:#ff0000;stroke-width:3" />
		<path
   id="rect8807_1_"
   d="M 374.877,186.19 H 3.292"
   inkscape:connector-curvature="0"
   style="fill:none;stroke:#ff0000;stroke-width:3" />
	</g>
	<g
   id="g3620">
		<path
   id="rect8807_18_"
   d="m 3.292,372.068 c -4.975,0 -8.98,4.005 -8.98,8.979 v 167.919 c 0,4.976 4.005,8.979 8.98,8.979 h 371.585 c 4.975,0 8.98,-4.005 8.98,-8.979 V 381.048 c 0,-4.975 -4.007,-8.979 -8.98,-8.979"
   inkscape:connector-curvature="0"
   style="fill:none;stroke:#ff0000;stroke-width:3" />
		<path
   id="rect8807_3_"
   d="M 374.877,372.068 H 3.292"
   inkscape:connector-curvature="0"
   style="fill:none;stroke:#ff0000;stroke-width:3" />
	</g>
	<g
   id="g3624">
		<path
   id="rect8807_16_"
   d="M 374.878,557.947"
   inkscape:connector-curvature="0"
   style="fill:none;stroke:#ff0000;stroke-width:3" />
		<path
   id="rect8807_31_"
   d="M 3.292,557.946"
   inkscape:connector-curvature="0"
   style="fill:none;stroke:#ff0000;stroke-width:3" />
		<path
   id="rect8807_5_"
   d="M 374.877,557.946"
   inkscape:connector-curvature="0"
   style="fill:none;stroke:#ff0000;stroke-width:3" />
	</g>
</g>
<g
   id="g3629"
   transform="translate(14.274614,8.2736087)">
	<g
   id="g3631">
		<path
   id="rect8807_8_"
   d="m 384.101,177.211 c 0,4.975 4.005,8.979 8.979,8.979 h 371.585 c 4.975,0 8.979,-4.005 8.979,-8.979 V 9.292 c 0,-4.975 -4.006,-8.979 -8.979,-8.979 H 393.081 c -4.976,0 -8.979,4.005 -8.979,8.979"
   inkscape:connector-curvature="0"
   style="fill:none;stroke:#ff0000;stroke-width:3" />
		<path
   id="rect8807_24_"
   d="M 384.101,177.211"
   inkscape:connector-curvature="0"
   style="fill:none;stroke:#ff0000;stroke-width:3" />
		<path
   id="rect8807_23_"
   d="M 384.101,9.292"
   inkscape:connector-curvature="0"
   style="fill:none;stroke:#ff0000;stroke-width:3" />
	</g>
	<g
   id="g3636">
		<path
   id="rect8807_14_"
   d="m 394.405,186.19 h -1.324"
   inkscape:connector-curvature="0"
   style="fill:none;stroke:#ff0000;stroke-width:3" />
		<path
   id="rect8807_26_"
   d="M 394.405,186.19"
   inkscape:connector-curvature="0"
   style="fill:none;stroke:#ff0000;stroke-width:3" />
		<path
   id="rect8807_25_"
   d="M 764.666,186.19"
   inkscape:connector-curvature="0"
   style="fill:none;stroke:#ff0000;stroke-width:3" />
		<path
   id="rect8807_11_"
   d="m 393.081,372.068 h 371.585 c 4.975,0 8.98,-4.004 8.98,-8.979 V 195.17 c 0,-4.975 -4.007,-8.979 -8.98,-8.979"
   inkscape:connector-curvature="0"
   style="fill:none;stroke:#ff0000;stroke-width:3" />
		<path
   id="rect8807_10_"
   d="m 384.101,363.089 c 0,4.975 4.005,8.979 8.979,8.979"
   inkscape:connector-curvature="0"
   style="fill:none;stroke:#ff0000;stroke-width:3" />
		<path
   id="rect8807_27_"
   d="M 384.101,363.089"
   inkscape:connector-curvature="0"
   style="fill:none;stroke:#ff0000;stroke-width:3" />
		<path
   id="rect8807_20_"
   d="M 384.101,195.17"
   inkscape:connector-curvature="0"
   style="fill:none;stroke:#ff0000;stroke-width:3" />
		<path
   id="rect8807_6_"
   d="m 393.081,186.19 c -4.976,0 -8.979,4.005 -8.979,8.979"
   inkscape:connector-curvature="0"
   style="fill:none;stroke:#ff0000;stroke-width:3" />
	</g>
	<g
   id="g3646">
		<path
   id="rect8807_29_"
   d="m 393.081,372.068 c -4.976,0 -8.979,4.006 -8.979,8.98"
   inkscape:connector-curvature="0"
   style="fill:none;stroke:#ff0000;stroke-width:3" />
		<path
   id="rect8807_19_"
   d="M 764.666,372.068"
   inkscape:connector-curvature="0"
   style="fill:none;stroke:#ff0000;stroke-width:3" />
		<path
   id="rect8807_12_"
   d="m 384.101,548.967 c 0,4.976 4.005,8.98 8.979,8.98 h 371.585 c 4.975,0 8.979,-4.006 8.979,-8.98 V 381.049 c 0,-4.975 -4.006,-8.98 -8.979,-8.98"
   inkscape:connector-curvature="0"
   style="fill:none;stroke:#ff0000;stroke-width:3" />
		<path
   id="rect8807_30_"
   d="M 384.101,548.967"
   inkscape:connector-curvature="0"
   style="fill:none;stroke:#ff0000;stroke-width:3" />
		<path
   id="rect8807_21_"
   d="M 384.101,381.049"
   inkscape:connector-curvature="0"
   style="fill:none;stroke:#ff0000;stroke-width:3" />
	</g>
	<g
   id="g3653">
		<path
   id="rect8807_32_"
   d="M 393.081,557.947"
   inkscape:connector-curvature="0"
   style="fill:none;stroke:#ff0000;stroke-width:3" />
		<path
   id="rect8807_2_"
   d="M 764.666,557.947"
   inkscape:connector-curvature="0"
   style="fill:none;stroke:#ff0000;stroke-width:3" />
		<path
   id="rect8807_4_"
   d="M 393.081,557.947"
   inkscape:connector-curvature="0"
   style="fill:none;stroke:#ff0000;stroke-width:3" />
	</g>
</g>
</svg>