G75*
G70*
%OFA0B0*%
%FSLAX24Y24*%
%IPPOS*%
%LPD*%
%AMOC8*
5,1,8,0,0,1.08239X$1,22.5*
%
%ADD10C,0.0080*%
%ADD11C,0.0060*%
%ADD12C,0.0100*%
%ADD13R,0.1000X0.1500*%
%ADD14R,0.2000X0.1000*%
%ADD15C,0.0050*%
%ADD16C,0.0010*%
D10*
X001076Y001301D02*
X001076Y003001D01*
X001883Y003351D02*
X002676Y003351D01*
X003476Y003001D02*
X003476Y001301D01*
X004076Y001301D02*
X004076Y003001D01*
X004883Y003351D02*
X005676Y003351D01*
X006476Y003001D02*
X006476Y001301D01*
X007076Y001301D02*
X007076Y003001D01*
X007883Y003351D02*
X008676Y003351D01*
X009476Y003001D02*
X009476Y001301D01*
X010076Y001301D02*
X010076Y003001D01*
X010883Y003351D02*
X011676Y003351D01*
X012476Y003001D02*
X012476Y001301D01*
X011676Y000951D02*
X010871Y000951D01*
X010576Y002151D02*
X010578Y002203D01*
X010584Y002255D01*
X010594Y002307D01*
X010607Y002357D01*
X010624Y002407D01*
X010645Y002455D01*
X010670Y002501D01*
X010698Y002545D01*
X010729Y002587D01*
X010763Y002627D01*
X010800Y002664D01*
X010840Y002698D01*
X010882Y002729D01*
X010926Y002757D01*
X010972Y002782D01*
X011020Y002803D01*
X011070Y002820D01*
X011120Y002833D01*
X011172Y002843D01*
X011224Y002849D01*
X011276Y002851D01*
X011328Y002849D01*
X011380Y002843D01*
X011432Y002833D01*
X011482Y002820D01*
X011532Y002803D01*
X011580Y002782D01*
X011626Y002757D01*
X011670Y002729D01*
X011712Y002698D01*
X011752Y002664D01*
X011789Y002627D01*
X011823Y002587D01*
X011854Y002545D01*
X011882Y002501D01*
X011907Y002455D01*
X011928Y002407D01*
X011945Y002357D01*
X011958Y002307D01*
X011968Y002255D01*
X011974Y002203D01*
X011976Y002151D01*
X011974Y002099D01*
X011968Y002047D01*
X011958Y001995D01*
X011945Y001945D01*
X011928Y001895D01*
X011907Y001847D01*
X011882Y001801D01*
X011854Y001757D01*
X011823Y001715D01*
X011789Y001675D01*
X011752Y001638D01*
X011712Y001604D01*
X011670Y001573D01*
X011626Y001545D01*
X011580Y001520D01*
X011532Y001499D01*
X011482Y001482D01*
X011432Y001469D01*
X011380Y001459D01*
X011328Y001453D01*
X011276Y001451D01*
X011224Y001453D01*
X011172Y001459D01*
X011120Y001469D01*
X011070Y001482D01*
X011020Y001499D01*
X010972Y001520D01*
X010926Y001545D01*
X010882Y001573D01*
X010840Y001604D01*
X010800Y001638D01*
X010763Y001675D01*
X010729Y001715D01*
X010698Y001757D01*
X010670Y001801D01*
X010645Y001847D01*
X010624Y001895D01*
X010607Y001945D01*
X010594Y001995D01*
X010584Y002047D01*
X010578Y002099D01*
X010576Y002151D01*
X008676Y000951D02*
X007871Y000951D01*
X007576Y002151D02*
X007578Y002203D01*
X007584Y002255D01*
X007594Y002307D01*
X007607Y002357D01*
X007624Y002407D01*
X007645Y002455D01*
X007670Y002501D01*
X007698Y002545D01*
X007729Y002587D01*
X007763Y002627D01*
X007800Y002664D01*
X007840Y002698D01*
X007882Y002729D01*
X007926Y002757D01*
X007972Y002782D01*
X008020Y002803D01*
X008070Y002820D01*
X008120Y002833D01*
X008172Y002843D01*
X008224Y002849D01*
X008276Y002851D01*
X008328Y002849D01*
X008380Y002843D01*
X008432Y002833D01*
X008482Y002820D01*
X008532Y002803D01*
X008580Y002782D01*
X008626Y002757D01*
X008670Y002729D01*
X008712Y002698D01*
X008752Y002664D01*
X008789Y002627D01*
X008823Y002587D01*
X008854Y002545D01*
X008882Y002501D01*
X008907Y002455D01*
X008928Y002407D01*
X008945Y002357D01*
X008958Y002307D01*
X008968Y002255D01*
X008974Y002203D01*
X008976Y002151D01*
X008974Y002099D01*
X008968Y002047D01*
X008958Y001995D01*
X008945Y001945D01*
X008928Y001895D01*
X008907Y001847D01*
X008882Y001801D01*
X008854Y001757D01*
X008823Y001715D01*
X008789Y001675D01*
X008752Y001638D01*
X008712Y001604D01*
X008670Y001573D01*
X008626Y001545D01*
X008580Y001520D01*
X008532Y001499D01*
X008482Y001482D01*
X008432Y001469D01*
X008380Y001459D01*
X008328Y001453D01*
X008276Y001451D01*
X008224Y001453D01*
X008172Y001459D01*
X008120Y001469D01*
X008070Y001482D01*
X008020Y001499D01*
X007972Y001520D01*
X007926Y001545D01*
X007882Y001573D01*
X007840Y001604D01*
X007800Y001638D01*
X007763Y001675D01*
X007729Y001715D01*
X007698Y001757D01*
X007670Y001801D01*
X007645Y001847D01*
X007624Y001895D01*
X007607Y001945D01*
X007594Y001995D01*
X007584Y002047D01*
X007578Y002099D01*
X007576Y002151D01*
X005676Y000951D02*
X004871Y000951D01*
X004576Y002151D02*
X004578Y002203D01*
X004584Y002255D01*
X004594Y002307D01*
X004607Y002357D01*
X004624Y002407D01*
X004645Y002455D01*
X004670Y002501D01*
X004698Y002545D01*
X004729Y002587D01*
X004763Y002627D01*
X004800Y002664D01*
X004840Y002698D01*
X004882Y002729D01*
X004926Y002757D01*
X004972Y002782D01*
X005020Y002803D01*
X005070Y002820D01*
X005120Y002833D01*
X005172Y002843D01*
X005224Y002849D01*
X005276Y002851D01*
X005328Y002849D01*
X005380Y002843D01*
X005432Y002833D01*
X005482Y002820D01*
X005532Y002803D01*
X005580Y002782D01*
X005626Y002757D01*
X005670Y002729D01*
X005712Y002698D01*
X005752Y002664D01*
X005789Y002627D01*
X005823Y002587D01*
X005854Y002545D01*
X005882Y002501D01*
X005907Y002455D01*
X005928Y002407D01*
X005945Y002357D01*
X005958Y002307D01*
X005968Y002255D01*
X005974Y002203D01*
X005976Y002151D01*
X005974Y002099D01*
X005968Y002047D01*
X005958Y001995D01*
X005945Y001945D01*
X005928Y001895D01*
X005907Y001847D01*
X005882Y001801D01*
X005854Y001757D01*
X005823Y001715D01*
X005789Y001675D01*
X005752Y001638D01*
X005712Y001604D01*
X005670Y001573D01*
X005626Y001545D01*
X005580Y001520D01*
X005532Y001499D01*
X005482Y001482D01*
X005432Y001469D01*
X005380Y001459D01*
X005328Y001453D01*
X005276Y001451D01*
X005224Y001453D01*
X005172Y001459D01*
X005120Y001469D01*
X005070Y001482D01*
X005020Y001499D01*
X004972Y001520D01*
X004926Y001545D01*
X004882Y001573D01*
X004840Y001604D01*
X004800Y001638D01*
X004763Y001675D01*
X004729Y001715D01*
X004698Y001757D01*
X004670Y001801D01*
X004645Y001847D01*
X004624Y001895D01*
X004607Y001945D01*
X004594Y001995D01*
X004584Y002047D01*
X004578Y002099D01*
X004576Y002151D01*
X002676Y000951D02*
X001871Y000951D01*
X001576Y002151D02*
X001578Y002203D01*
X001584Y002255D01*
X001594Y002307D01*
X001607Y002357D01*
X001624Y002407D01*
X001645Y002455D01*
X001670Y002501D01*
X001698Y002545D01*
X001729Y002587D01*
X001763Y002627D01*
X001800Y002664D01*
X001840Y002698D01*
X001882Y002729D01*
X001926Y002757D01*
X001972Y002782D01*
X002020Y002803D01*
X002070Y002820D01*
X002120Y002833D01*
X002172Y002843D01*
X002224Y002849D01*
X002276Y002851D01*
X002328Y002849D01*
X002380Y002843D01*
X002432Y002833D01*
X002482Y002820D01*
X002532Y002803D01*
X002580Y002782D01*
X002626Y002757D01*
X002670Y002729D01*
X002712Y002698D01*
X002752Y002664D01*
X002789Y002627D01*
X002823Y002587D01*
X002854Y002545D01*
X002882Y002501D01*
X002907Y002455D01*
X002928Y002407D01*
X002945Y002357D01*
X002958Y002307D01*
X002968Y002255D01*
X002974Y002203D01*
X002976Y002151D01*
X002974Y002099D01*
X002968Y002047D01*
X002958Y001995D01*
X002945Y001945D01*
X002928Y001895D01*
X002907Y001847D01*
X002882Y001801D01*
X002854Y001757D01*
X002823Y001715D01*
X002789Y001675D01*
X002752Y001638D01*
X002712Y001604D01*
X002670Y001573D01*
X002626Y001545D01*
X002580Y001520D01*
X002532Y001499D01*
X002482Y001482D01*
X002432Y001469D01*
X002380Y001459D01*
X002328Y001453D01*
X002276Y001451D01*
X002224Y001453D01*
X002172Y001459D01*
X002120Y001469D01*
X002070Y001482D01*
X002020Y001499D01*
X001972Y001520D01*
X001926Y001545D01*
X001882Y001573D01*
X001840Y001604D01*
X001800Y001638D01*
X001763Y001675D01*
X001729Y001715D01*
X001698Y001757D01*
X001670Y001801D01*
X001645Y001847D01*
X001624Y001895D01*
X001607Y001945D01*
X001594Y001995D01*
X001584Y002047D01*
X001578Y002099D01*
X001576Y002151D01*
X010316Y008152D02*
X010930Y008152D01*
X010623Y008458D02*
X010623Y007845D01*
D11*
X010276Y007301D02*
X010276Y005001D01*
X003276Y005001D01*
X003276Y005751D01*
X003315Y005753D01*
X003354Y005759D01*
X003392Y005768D01*
X003429Y005781D01*
X003465Y005798D01*
X003498Y005818D01*
X003530Y005842D01*
X003559Y005868D01*
X003585Y005897D01*
X003609Y005929D01*
X003629Y005962D01*
X003646Y005998D01*
X003659Y006035D01*
X003668Y006073D01*
X003674Y006112D01*
X003676Y006151D01*
X003674Y006190D01*
X003668Y006229D01*
X003659Y006267D01*
X003646Y006304D01*
X003629Y006340D01*
X003609Y006373D01*
X003585Y006405D01*
X003559Y006434D01*
X003530Y006460D01*
X003498Y006484D01*
X003465Y006504D01*
X003429Y006521D01*
X003392Y006534D01*
X003354Y006543D01*
X003315Y006549D01*
X003276Y006551D01*
X003276Y007301D01*
X010276Y007301D01*
X009926Y008701D02*
X009776Y008701D01*
X009726Y008751D01*
X007826Y008751D01*
X007776Y008701D01*
X007626Y008701D01*
X007826Y009551D02*
X009726Y009551D01*
X009776Y009601D01*
X009926Y009601D01*
X010806Y009501D02*
X011126Y009501D01*
X011233Y009395D01*
X011233Y009288D01*
X011126Y009181D01*
X010806Y009181D01*
X010806Y009822D01*
X011126Y009822D01*
X011233Y009715D01*
X011233Y009608D01*
X011126Y009501D01*
X007826Y009551D02*
X007776Y009601D01*
X007626Y009601D01*
X005926Y009601D02*
X005776Y009601D01*
X005726Y009551D01*
X003826Y009551D01*
X003776Y009601D01*
X003626Y009601D01*
X003826Y008751D02*
X005726Y008751D01*
X005776Y008701D01*
X005926Y008701D01*
X003826Y008751D02*
X003776Y008701D01*
X003626Y008701D01*
X002733Y009181D02*
X002520Y009395D01*
X002626Y009395D02*
X002306Y009395D01*
X002306Y009181D02*
X002306Y009822D01*
X002626Y009822D01*
X002733Y009715D01*
X002733Y009501D01*
X002626Y009395D01*
X002226Y008801D02*
X002226Y008651D01*
X002176Y008601D01*
X002176Y006701D01*
X002226Y006651D01*
X002226Y006501D01*
X001376Y006701D02*
X001376Y008601D01*
X001326Y008651D01*
X001326Y008801D01*
X001376Y006701D02*
X001326Y006651D01*
X001326Y006501D01*
D12*
X000776Y000651D02*
X003776Y000651D01*
X006776Y000651D01*
X006776Y003651D01*
X009776Y003651D01*
X009776Y000651D01*
X006776Y000651D01*
X007776Y001651D02*
X008776Y002651D01*
X008276Y002651D02*
X007776Y002151D01*
X008276Y001651D02*
X008776Y002151D01*
X009776Y000651D02*
X012776Y000651D01*
X012776Y003651D01*
X009776Y003651D01*
X011276Y002651D02*
X011276Y001651D01*
X011776Y002151D01*
X011276Y002651D01*
X010776Y005651D02*
X010776Y007651D01*
X012776Y007651D01*
X012286Y009271D02*
X012106Y009271D01*
X011466Y009271D02*
X011266Y009271D01*
X010776Y010151D02*
X002776Y010151D01*
X002776Y011151D01*
X010776Y011151D01*
X010776Y010151D01*
X010776Y011151D02*
X010776Y011651D01*
X006776Y011651D02*
X006776Y010151D01*
X002776Y011151D02*
X002776Y011651D01*
X010776Y005651D02*
X012776Y005651D01*
X006776Y003651D02*
X003776Y003651D01*
X000776Y003651D01*
X000776Y000651D01*
X002276Y001651D02*
X002276Y002651D01*
X001776Y002151D01*
X002776Y002151D01*
X002276Y001651D01*
X003776Y000651D02*
X003776Y003651D01*
X005276Y002651D02*
X004776Y002151D01*
X005276Y001651D01*
X005276Y002651D01*
D13*
X004276Y010901D03*
X008276Y010901D03*
D14*
X011776Y006151D03*
D15*
X010743Y006001D02*
X010743Y006377D01*
X010443Y006377D02*
X010443Y006001D01*
X010518Y005926D01*
X010668Y005926D01*
X010743Y006001D01*
X010282Y006151D02*
X010207Y006076D01*
X009982Y006076D01*
X009982Y005926D02*
X009982Y006377D01*
X010207Y006377D01*
X010282Y006301D01*
X010282Y006151D01*
X009822Y006151D02*
X009522Y006151D01*
X009362Y006151D02*
X009061Y006151D01*
X009287Y006377D01*
X009287Y005926D01*
X008901Y006001D02*
X008826Y005926D01*
X008676Y005926D01*
X008601Y006001D01*
X008601Y006076D01*
X008676Y006151D01*
X008826Y006151D01*
X008901Y006076D01*
X008901Y006001D01*
X008826Y006151D02*
X008901Y006226D01*
X008901Y006301D01*
X008826Y006377D01*
X008676Y006377D01*
X008601Y006301D01*
X008601Y006226D01*
X008676Y006151D01*
X008441Y006377D02*
X008141Y005926D01*
X007906Y005926D02*
X007906Y006377D01*
X007680Y006151D01*
X007981Y006151D01*
X007520Y006151D02*
X007220Y006151D01*
X007445Y006377D01*
X007445Y005926D01*
X007060Y006377D02*
X006760Y005926D01*
X006600Y006151D02*
X006299Y006151D01*
X006525Y006377D01*
X006525Y005926D01*
X006139Y005926D02*
X005839Y005926D01*
X006139Y006226D01*
X006139Y006301D01*
X006064Y006377D01*
X005914Y006377D01*
X005839Y006301D01*
X005679Y006301D02*
X005679Y006377D01*
X005679Y006301D02*
X005529Y006151D01*
X005529Y005926D01*
X005529Y006151D02*
X005379Y006301D01*
X005379Y006377D01*
X005219Y006377D02*
X005219Y005926D01*
X004918Y006377D01*
X004918Y005926D01*
X004762Y005926D02*
X004611Y005926D01*
X004686Y005926D02*
X004686Y006377D01*
X004611Y006377D02*
X004762Y006377D01*
X004451Y006377D02*
X004151Y006377D01*
X004301Y006377D02*
X004301Y005926D01*
X001971Y006776D02*
X001971Y007076D01*
X001971Y006926D02*
X001521Y006926D01*
X001671Y006776D01*
X001596Y007237D02*
X001521Y007312D01*
X001521Y007462D01*
X001596Y007537D01*
X001896Y007237D01*
X001971Y007312D01*
X001971Y007462D01*
X001896Y007537D01*
X001596Y007537D01*
X001521Y007697D02*
X001971Y007697D01*
X001821Y007697D02*
X001671Y007922D01*
X001821Y007697D02*
X001971Y007922D01*
X001896Y007237D02*
X001596Y007237D01*
X003901Y009181D02*
X004201Y009181D01*
X004126Y008956D02*
X004126Y009407D01*
X003901Y009181D01*
X004361Y009031D02*
X004361Y008956D01*
X004361Y009031D02*
X004662Y009331D01*
X004662Y009407D01*
X004361Y009407D01*
X004822Y009331D02*
X004822Y009031D01*
X005122Y009331D01*
X005122Y009031D01*
X005047Y008956D01*
X004897Y008956D01*
X004822Y009031D01*
X004822Y009331D02*
X004897Y009407D01*
X005047Y009407D01*
X005122Y009331D01*
X007901Y009181D02*
X008201Y009181D01*
X008126Y008956D02*
X008126Y009407D01*
X007901Y009181D01*
X008361Y009031D02*
X008361Y008956D01*
X008361Y009031D02*
X008662Y009331D01*
X008662Y009407D01*
X008361Y009407D01*
X008822Y009331D02*
X008822Y009031D01*
X009122Y009331D01*
X009122Y009031D01*
X009047Y008956D01*
X008897Y008956D01*
X008822Y009031D01*
X008822Y009331D02*
X008897Y009407D01*
X009047Y009407D01*
X009122Y009331D01*
D16*
X010050Y009505D02*
X010000Y009505D01*
X010001Y009506D02*
X009998Y009521D01*
X009993Y009535D01*
X009984Y009548D01*
X009973Y009559D01*
X009960Y009568D01*
X009946Y009573D01*
X009931Y009576D01*
X009930Y009625D01*
X009931Y009626D01*
X009952Y009623D01*
X009971Y009617D01*
X009990Y009608D01*
X010007Y009596D01*
X010021Y009582D01*
X010033Y009565D01*
X010042Y009546D01*
X010048Y009527D01*
X010051Y009506D01*
X010042Y009506D01*
X010039Y009525D01*
X010034Y009543D01*
X010026Y009560D01*
X010015Y009576D01*
X010001Y009590D01*
X009985Y009601D01*
X009968Y009609D01*
X009950Y009614D01*
X009931Y009617D01*
X009931Y009608D01*
X009951Y009605D01*
X009969Y009599D01*
X009986Y009589D01*
X010002Y009577D01*
X010014Y009561D01*
X010024Y009544D01*
X010030Y009526D01*
X010033Y009506D01*
X010024Y009506D01*
X010021Y009524D01*
X010016Y009541D01*
X010007Y009556D01*
X009995Y009570D01*
X009981Y009582D01*
X009966Y009591D01*
X009949Y009596D01*
X009931Y009599D01*
X009931Y009590D01*
X009949Y009587D01*
X009967Y009580D01*
X009982Y009570D01*
X009995Y009557D01*
X010005Y009542D01*
X010012Y009524D01*
X010015Y009506D01*
X010006Y009506D01*
X010003Y009522D01*
X009997Y009538D01*
X009988Y009551D01*
X009976Y009563D01*
X009963Y009572D01*
X009947Y009578D01*
X009931Y009581D01*
X009930Y008677D02*
X009930Y008727D01*
X009931Y008726D02*
X009946Y008729D01*
X009960Y008734D01*
X009973Y008743D01*
X009984Y008754D01*
X009993Y008767D01*
X009998Y008781D01*
X010001Y008796D01*
X010050Y008797D01*
X010051Y008796D01*
X010048Y008775D01*
X010042Y008756D01*
X010033Y008737D01*
X010021Y008720D01*
X010007Y008706D01*
X009990Y008694D01*
X009971Y008685D01*
X009952Y008679D01*
X009931Y008676D01*
X009931Y008685D01*
X009950Y008688D01*
X009968Y008693D01*
X009985Y008701D01*
X010001Y008712D01*
X010015Y008726D01*
X010026Y008742D01*
X010034Y008759D01*
X010039Y008777D01*
X010042Y008796D01*
X010033Y008796D01*
X010030Y008776D01*
X010024Y008758D01*
X010014Y008741D01*
X010002Y008725D01*
X009986Y008713D01*
X009969Y008703D01*
X009951Y008697D01*
X009931Y008694D01*
X009931Y008703D01*
X009949Y008706D01*
X009966Y008711D01*
X009981Y008720D01*
X009995Y008732D01*
X010007Y008746D01*
X010016Y008761D01*
X010021Y008778D01*
X010024Y008796D01*
X010015Y008796D01*
X010012Y008778D01*
X010005Y008760D01*
X009995Y008745D01*
X009982Y008732D01*
X009967Y008722D01*
X009949Y008715D01*
X009931Y008712D01*
X009931Y008721D01*
X009947Y008724D01*
X009963Y008730D01*
X009976Y008739D01*
X009988Y008751D01*
X009997Y008764D01*
X010003Y008780D01*
X010006Y008796D01*
X012199Y007920D02*
X012154Y007998D01*
X012155Y007998D02*
X012199Y008026D01*
X012241Y008057D01*
X012281Y008090D01*
X012319Y008126D01*
X012354Y008165D01*
X012386Y008206D01*
X012416Y008250D01*
X012442Y008295D01*
X012465Y008342D01*
X012485Y008390D01*
X012501Y008440D01*
X012514Y008490D01*
X012523Y008542D01*
X012529Y008594D01*
X012531Y008646D01*
X012620Y008647D01*
X012621Y008646D01*
X012619Y008591D01*
X012613Y008537D01*
X012604Y008482D01*
X012591Y008429D01*
X012575Y008377D01*
X012556Y008325D01*
X012533Y008275D01*
X012507Y008227D01*
X012478Y008180D01*
X012446Y008136D01*
X012411Y008093D01*
X012373Y008053D01*
X012333Y008016D01*
X012291Y007981D01*
X012246Y007949D01*
X012200Y007920D01*
X012195Y007928D01*
X012241Y007956D01*
X012285Y007988D01*
X012327Y008023D01*
X012367Y008060D01*
X012404Y008099D01*
X012439Y008141D01*
X012470Y008185D01*
X012499Y008231D01*
X012525Y008279D01*
X012547Y008329D01*
X012567Y008379D01*
X012583Y008431D01*
X012595Y008484D01*
X012604Y008538D01*
X012610Y008592D01*
X012612Y008646D01*
X012603Y008646D01*
X012601Y008592D01*
X012595Y008539D01*
X012586Y008486D01*
X012574Y008434D01*
X012558Y008382D01*
X012539Y008332D01*
X012517Y008283D01*
X012491Y008236D01*
X012463Y008190D01*
X012431Y008147D01*
X012397Y008105D01*
X012361Y008066D01*
X012321Y008029D01*
X012280Y007995D01*
X012236Y007964D01*
X012191Y007935D01*
X012186Y007943D01*
X012234Y007973D01*
X012280Y008007D01*
X012323Y008043D01*
X012364Y008083D01*
X012402Y008125D01*
X012437Y008169D01*
X012469Y008216D01*
X012497Y008265D01*
X012522Y008316D01*
X012544Y008369D01*
X012561Y008422D01*
X012575Y008477D01*
X012585Y008533D01*
X012592Y008589D01*
X012594Y008646D01*
X012585Y008646D01*
X012583Y008590D01*
X012577Y008534D01*
X012567Y008479D01*
X012553Y008425D01*
X012535Y008372D01*
X012514Y008320D01*
X012489Y008269D01*
X012461Y008221D01*
X012430Y008175D01*
X012395Y008130D01*
X012358Y008089D01*
X012317Y008050D01*
X012275Y008014D01*
X012229Y007981D01*
X012182Y007951D01*
X012177Y007959D01*
X012224Y007988D01*
X012269Y008021D01*
X012311Y008057D01*
X012351Y008095D01*
X012388Y008136D01*
X012423Y008180D01*
X012454Y008226D01*
X012481Y008274D01*
X012506Y008323D01*
X012527Y008375D01*
X012544Y008427D01*
X012558Y008481D01*
X012568Y008536D01*
X012574Y008591D01*
X012576Y008646D01*
X012567Y008646D01*
X012565Y008591D01*
X012559Y008537D01*
X012549Y008483D01*
X012535Y008430D01*
X012518Y008378D01*
X012498Y008327D01*
X012473Y008278D01*
X012446Y008231D01*
X012415Y008185D01*
X012382Y008142D01*
X012345Y008101D01*
X012305Y008063D01*
X012263Y008028D01*
X012219Y007996D01*
X012173Y007967D01*
X012168Y007975D01*
X012214Y008003D01*
X012258Y008035D01*
X012299Y008070D01*
X012338Y008108D01*
X012375Y008148D01*
X012408Y008190D01*
X012438Y008235D01*
X012466Y008282D01*
X012489Y008331D01*
X012510Y008381D01*
X012527Y008432D01*
X012540Y008485D01*
X012550Y008538D01*
X012556Y008592D01*
X012558Y008646D01*
X012549Y008646D01*
X012547Y008593D01*
X012541Y008539D01*
X012531Y008487D01*
X012518Y008435D01*
X012501Y008384D01*
X012481Y008334D01*
X012458Y008286D01*
X012431Y008240D01*
X012401Y008196D01*
X012368Y008154D01*
X012332Y008114D01*
X012293Y008077D01*
X012252Y008042D01*
X012209Y008011D01*
X012164Y007982D01*
X012159Y007990D01*
X012204Y008018D01*
X012247Y008049D01*
X012287Y008083D01*
X012325Y008120D01*
X012361Y008159D01*
X012393Y008201D01*
X012423Y008245D01*
X012450Y008291D01*
X012473Y008338D01*
X012493Y008387D01*
X012510Y008437D01*
X012523Y008489D01*
X012532Y008541D01*
X012538Y008593D01*
X012540Y008646D01*
X012620Y008655D02*
X012530Y008655D01*
X012531Y008656D02*
X012529Y008710D01*
X012523Y008763D01*
X012513Y008816D01*
X012499Y008868D01*
X012482Y008919D01*
X012461Y008969D01*
X012437Y009017D01*
X012409Y009063D01*
X012378Y009107D01*
X012344Y009148D01*
X012307Y009188D01*
X012268Y009224D01*
X012325Y009292D01*
X012326Y009293D01*
X012367Y009255D01*
X012405Y009215D01*
X012441Y009172D01*
X012474Y009127D01*
X012504Y009080D01*
X012530Y009032D01*
X012554Y008981D01*
X012574Y008929D01*
X012590Y008876D01*
X012604Y008822D01*
X012613Y008767D01*
X012619Y008712D01*
X012621Y008656D01*
X012612Y008656D01*
X012610Y008711D01*
X012604Y008766D01*
X012595Y008820D01*
X012582Y008874D01*
X012565Y008926D01*
X012546Y008978D01*
X012522Y009028D01*
X012496Y009076D01*
X012466Y009122D01*
X012434Y009167D01*
X012399Y009209D01*
X012360Y009249D01*
X012320Y009286D01*
X012314Y009279D01*
X012354Y009242D01*
X012392Y009203D01*
X012427Y009161D01*
X012459Y009117D01*
X012488Y009071D01*
X012514Y009023D01*
X012537Y008974D01*
X012557Y008923D01*
X012573Y008871D01*
X012586Y008818D01*
X012595Y008765D01*
X012601Y008710D01*
X012603Y008656D01*
X012594Y008656D01*
X012592Y008710D01*
X012586Y008763D01*
X012577Y008816D01*
X012564Y008869D01*
X012548Y008920D01*
X012529Y008971D01*
X012506Y009019D01*
X012481Y009067D01*
X012452Y009112D01*
X012420Y009156D01*
X012385Y009197D01*
X012348Y009236D01*
X012308Y009272D01*
X012302Y009265D01*
X012342Y009229D01*
X012379Y009191D01*
X012413Y009150D01*
X012444Y009107D01*
X012473Y009062D01*
X012498Y009015D01*
X012521Y008967D01*
X012540Y008917D01*
X012556Y008866D01*
X012568Y008815D01*
X012577Y008762D01*
X012583Y008709D01*
X012585Y008656D01*
X012576Y008656D01*
X012574Y008709D01*
X012568Y008761D01*
X012559Y008813D01*
X012547Y008864D01*
X012531Y008914D01*
X012512Y008964D01*
X012490Y009011D01*
X012465Y009058D01*
X012437Y009102D01*
X012406Y009144D01*
X012372Y009185D01*
X012335Y009223D01*
X012297Y009258D01*
X012291Y009252D01*
X012329Y009216D01*
X012365Y009179D01*
X012399Y009139D01*
X012429Y009097D01*
X012457Y009053D01*
X012482Y009007D01*
X012504Y008960D01*
X012523Y008911D01*
X012538Y008862D01*
X012551Y008811D01*
X012559Y008760D01*
X012565Y008708D01*
X012567Y008656D01*
X012558Y008656D01*
X012556Y008712D01*
X012549Y008767D01*
X012539Y008822D01*
X012525Y008876D01*
X012507Y008929D01*
X012485Y008980D01*
X012460Y009030D01*
X012431Y009078D01*
X012399Y009123D01*
X012364Y009166D01*
X012326Y009207D01*
X012285Y009245D01*
X012279Y009238D01*
X012320Y009201D01*
X012357Y009160D01*
X012392Y009118D01*
X012424Y009073D01*
X012452Y009025D01*
X012477Y008976D01*
X012499Y008925D01*
X012516Y008873D01*
X012530Y008820D01*
X012540Y008766D01*
X012547Y008711D01*
X012549Y008656D01*
X012540Y008656D01*
X012538Y008710D01*
X012532Y008765D01*
X012522Y008818D01*
X012508Y008871D01*
X012490Y008922D01*
X012469Y008972D01*
X012444Y009021D01*
X012416Y009068D01*
X012385Y009112D01*
X012351Y009154D01*
X012313Y009194D01*
X012273Y009231D01*
X010932Y008646D02*
X011022Y008646D01*
X011021Y008646D02*
X011023Y008592D01*
X011029Y008539D01*
X011039Y008486D01*
X011053Y008434D01*
X011070Y008383D01*
X011091Y008334D01*
X011115Y008286D01*
X011143Y008240D01*
X011174Y008196D01*
X011208Y008154D01*
X011244Y008115D01*
X011284Y008078D01*
X011326Y008045D01*
X011370Y008014D01*
X011416Y007987D01*
X011374Y007908D01*
X011325Y007936D01*
X011279Y007968D01*
X011234Y008003D01*
X011192Y008040D01*
X011153Y008081D01*
X011116Y008124D01*
X011082Y008169D01*
X011051Y008216D01*
X011024Y008266D01*
X011000Y008317D01*
X010979Y008369D01*
X010962Y008423D01*
X010949Y008478D01*
X010939Y008533D01*
X010933Y008590D01*
X010931Y008646D01*
X010940Y008646D01*
X010942Y008590D01*
X010948Y008535D01*
X010958Y008480D01*
X010971Y008425D01*
X010988Y008372D01*
X011008Y008320D01*
X011032Y008270D01*
X011059Y008221D01*
X011089Y008174D01*
X011123Y008129D01*
X011159Y008087D01*
X011198Y008047D01*
X011240Y008010D01*
X011284Y007975D01*
X011330Y007944D01*
X011378Y007916D01*
X011382Y007924D01*
X011335Y007952D01*
X011289Y007983D01*
X011246Y008017D01*
X011204Y008053D01*
X011166Y008093D01*
X011130Y008135D01*
X011097Y008179D01*
X011067Y008225D01*
X011040Y008274D01*
X011017Y008324D01*
X010996Y008375D01*
X010980Y008428D01*
X010967Y008481D01*
X010957Y008536D01*
X010951Y008591D01*
X010949Y008646D01*
X010958Y008646D01*
X010960Y008591D01*
X010966Y008537D01*
X010975Y008483D01*
X010988Y008430D01*
X011005Y008378D01*
X011025Y008327D01*
X011048Y008278D01*
X011075Y008230D01*
X011104Y008184D01*
X011137Y008140D01*
X011172Y008099D01*
X011211Y008060D01*
X011251Y008023D01*
X011294Y007990D01*
X011340Y007959D01*
X011387Y007932D01*
X011391Y007940D01*
X011344Y007967D01*
X011300Y007997D01*
X011257Y008030D01*
X011217Y008066D01*
X011179Y008105D01*
X011144Y008146D01*
X011112Y008189D01*
X011082Y008235D01*
X011056Y008282D01*
X011033Y008331D01*
X011013Y008381D01*
X010997Y008433D01*
X010984Y008485D01*
X010975Y008538D01*
X010969Y008592D01*
X010967Y008646D01*
X010976Y008646D01*
X010978Y008593D01*
X010984Y008539D01*
X010993Y008487D01*
X011006Y008435D01*
X011022Y008384D01*
X011041Y008334D01*
X011064Y008286D01*
X011090Y008239D01*
X011119Y008195D01*
X011151Y008152D01*
X011186Y008111D01*
X011223Y008073D01*
X011263Y008037D01*
X011305Y008004D01*
X011349Y007974D01*
X011395Y007947D01*
X011399Y007955D01*
X011354Y007982D01*
X011310Y008012D01*
X011269Y008044D01*
X011229Y008079D01*
X011192Y008117D01*
X011158Y008157D01*
X011126Y008200D01*
X011098Y008244D01*
X011072Y008290D01*
X011050Y008338D01*
X011030Y008387D01*
X011014Y008437D01*
X011002Y008489D01*
X010993Y008541D01*
X010987Y008593D01*
X010985Y008646D01*
X010994Y008646D01*
X010996Y008590D01*
X011003Y008535D01*
X011013Y008480D01*
X011027Y008426D01*
X011045Y008374D01*
X011066Y008322D01*
X011092Y008273D01*
X011120Y008225D01*
X011152Y008179D01*
X011187Y008136D01*
X011225Y008096D01*
X011266Y008058D01*
X011310Y008023D01*
X011356Y007992D01*
X011404Y007963D01*
X011408Y007971D01*
X011360Y007999D01*
X011315Y008030D01*
X011272Y008065D01*
X011232Y008102D01*
X011194Y008142D01*
X011159Y008185D01*
X011128Y008230D01*
X011099Y008277D01*
X011075Y008326D01*
X011053Y008377D01*
X011036Y008429D01*
X011022Y008482D01*
X011012Y008536D01*
X011005Y008591D01*
X011003Y008646D01*
X011012Y008646D01*
X011014Y008592D01*
X011020Y008538D01*
X011030Y008484D01*
X011044Y008432D01*
X011062Y008380D01*
X011083Y008330D01*
X011107Y008281D01*
X011135Y008235D01*
X011167Y008190D01*
X011201Y008148D01*
X011238Y008109D01*
X011278Y008072D01*
X011320Y008038D01*
X011365Y008007D01*
X011412Y007979D01*
X011232Y009296D02*
X011289Y009227D01*
X011289Y009228D02*
X011249Y009191D01*
X011211Y009152D01*
X011177Y009110D01*
X011145Y009066D01*
X011117Y009020D01*
X011092Y008971D01*
X011071Y008921D01*
X011053Y008870D01*
X011040Y008817D01*
X011030Y008764D01*
X011023Y008710D01*
X011021Y008656D01*
X010932Y008655D01*
X010931Y008656D01*
X010933Y008712D01*
X010939Y008768D01*
X010949Y008823D01*
X010962Y008878D01*
X010979Y008931D01*
X010999Y008984D01*
X011023Y009035D01*
X011050Y009084D01*
X011081Y009131D01*
X011114Y009176D01*
X011150Y009219D01*
X011189Y009259D01*
X011231Y009297D01*
X011237Y009290D01*
X011196Y009253D01*
X011157Y009213D01*
X011121Y009171D01*
X011088Y009126D01*
X011058Y009079D01*
X011031Y009031D01*
X011008Y008980D01*
X010987Y008928D01*
X010971Y008875D01*
X010958Y008821D01*
X010948Y008767D01*
X010942Y008712D01*
X010940Y008656D01*
X010949Y008656D01*
X010951Y008711D01*
X010957Y008766D01*
X010966Y008820D01*
X010979Y008873D01*
X010996Y008925D01*
X011016Y008977D01*
X011039Y009026D01*
X011066Y009075D01*
X011095Y009121D01*
X011128Y009165D01*
X011164Y009207D01*
X011202Y009246D01*
X011243Y009283D01*
X011248Y009276D01*
X011208Y009240D01*
X011170Y009201D01*
X011135Y009159D01*
X011103Y009116D01*
X011073Y009070D01*
X011047Y009022D01*
X011024Y008973D01*
X011004Y008923D01*
X010988Y008871D01*
X010975Y008818D01*
X010966Y008764D01*
X010960Y008710D01*
X010958Y008656D01*
X010967Y008656D01*
X010969Y008710D01*
X010975Y008763D01*
X010984Y008816D01*
X010997Y008868D01*
X011013Y008920D01*
X011032Y008970D01*
X011055Y009018D01*
X011081Y009065D01*
X011110Y009111D01*
X011142Y009154D01*
X011177Y009195D01*
X011214Y009233D01*
X011254Y009269D01*
X011260Y009262D01*
X011221Y009227D01*
X011184Y009189D01*
X011149Y009148D01*
X011118Y009105D01*
X011089Y009061D01*
X011063Y009014D01*
X011041Y008966D01*
X011021Y008917D01*
X011005Y008866D01*
X010993Y008814D01*
X010984Y008762D01*
X010978Y008709D01*
X010976Y008656D01*
X010985Y008656D01*
X010987Y008708D01*
X010993Y008761D01*
X011002Y008812D01*
X011014Y008863D01*
X011030Y008914D01*
X011049Y008963D01*
X011071Y009010D01*
X011097Y009056D01*
X011125Y009100D01*
X011156Y009142D01*
X011190Y009183D01*
X011227Y009220D01*
X011266Y009255D01*
X011272Y009249D01*
X011233Y009214D01*
X011197Y009176D01*
X011163Y009137D01*
X011132Y009095D01*
X011104Y009051D01*
X011079Y009006D01*
X011057Y008959D01*
X011038Y008911D01*
X011023Y008861D01*
X011010Y008811D01*
X011002Y008760D01*
X010996Y008708D01*
X010994Y008656D01*
X011003Y008656D01*
X011005Y008707D01*
X011010Y008758D01*
X011019Y008809D01*
X011031Y008859D01*
X011047Y008908D01*
X011065Y008955D01*
X011087Y009002D01*
X011112Y009047D01*
X011140Y009090D01*
X011170Y009131D01*
X011203Y009170D01*
X011239Y009207D01*
X011277Y009242D01*
X011283Y009235D01*
X011242Y009198D01*
X011204Y009158D01*
X011170Y009116D01*
X011138Y009071D01*
X011109Y009024D01*
X011084Y008975D01*
X011063Y008924D01*
X011045Y008873D01*
X011031Y008819D01*
X011021Y008765D01*
X011014Y008711D01*
X011012Y008656D01*
X007502Y008797D02*
X007552Y008797D01*
X007551Y008796D02*
X007554Y008781D01*
X007559Y008767D01*
X007568Y008754D01*
X007579Y008743D01*
X007592Y008734D01*
X007606Y008729D01*
X007621Y008726D01*
X007622Y008677D01*
X007621Y008676D01*
X007600Y008679D01*
X007581Y008685D01*
X007562Y008694D01*
X007545Y008706D01*
X007531Y008720D01*
X007519Y008737D01*
X007510Y008756D01*
X007504Y008775D01*
X007501Y008796D01*
X007510Y008796D01*
X007513Y008777D01*
X007518Y008759D01*
X007526Y008742D01*
X007537Y008726D01*
X007551Y008712D01*
X007567Y008701D01*
X007584Y008693D01*
X007602Y008688D01*
X007621Y008685D01*
X007621Y008694D01*
X007601Y008697D01*
X007583Y008703D01*
X007566Y008713D01*
X007550Y008725D01*
X007538Y008741D01*
X007528Y008758D01*
X007522Y008776D01*
X007519Y008796D01*
X007528Y008796D01*
X007531Y008778D01*
X007536Y008761D01*
X007545Y008746D01*
X007557Y008732D01*
X007571Y008720D01*
X007586Y008711D01*
X007603Y008706D01*
X007621Y008703D01*
X007621Y008712D01*
X007603Y008715D01*
X007585Y008722D01*
X007570Y008732D01*
X007557Y008745D01*
X007547Y008760D01*
X007540Y008778D01*
X007537Y008796D01*
X007546Y008796D01*
X007549Y008780D01*
X007555Y008764D01*
X007564Y008751D01*
X007576Y008739D01*
X007589Y008730D01*
X007605Y008724D01*
X007621Y008721D01*
X007622Y009625D02*
X007622Y009575D01*
X007621Y009576D02*
X007606Y009573D01*
X007592Y009568D01*
X007579Y009559D01*
X007568Y009548D01*
X007559Y009535D01*
X007554Y009521D01*
X007551Y009506D01*
X007502Y009505D01*
X007501Y009506D01*
X007504Y009527D01*
X007510Y009546D01*
X007519Y009565D01*
X007531Y009582D01*
X007545Y009596D01*
X007562Y009608D01*
X007581Y009617D01*
X007600Y009623D01*
X007621Y009626D01*
X007621Y009617D01*
X007602Y009614D01*
X007584Y009609D01*
X007567Y009601D01*
X007551Y009590D01*
X007537Y009576D01*
X007526Y009560D01*
X007518Y009543D01*
X007513Y009525D01*
X007510Y009506D01*
X007519Y009506D01*
X007522Y009526D01*
X007528Y009544D01*
X007538Y009561D01*
X007550Y009577D01*
X007566Y009589D01*
X007583Y009599D01*
X007601Y009605D01*
X007621Y009608D01*
X007621Y009599D01*
X007603Y009596D01*
X007586Y009591D01*
X007571Y009582D01*
X007557Y009570D01*
X007545Y009556D01*
X007536Y009541D01*
X007531Y009524D01*
X007528Y009506D01*
X007537Y009506D01*
X007540Y009524D01*
X007547Y009542D01*
X007557Y009557D01*
X007570Y009570D01*
X007585Y009580D01*
X007603Y009587D01*
X007621Y009590D01*
X007621Y009581D01*
X007605Y009578D01*
X007589Y009572D01*
X007576Y009563D01*
X007564Y009551D01*
X007555Y009538D01*
X007549Y009522D01*
X007546Y009506D01*
X006050Y009505D02*
X006000Y009505D01*
X006001Y009506D02*
X005998Y009521D01*
X005993Y009535D01*
X005984Y009548D01*
X005973Y009559D01*
X005960Y009568D01*
X005946Y009573D01*
X005931Y009576D01*
X005930Y009625D01*
X005931Y009626D01*
X005952Y009623D01*
X005971Y009617D01*
X005990Y009608D01*
X006007Y009596D01*
X006021Y009582D01*
X006033Y009565D01*
X006042Y009546D01*
X006048Y009527D01*
X006051Y009506D01*
X006042Y009506D01*
X006039Y009525D01*
X006034Y009543D01*
X006026Y009560D01*
X006015Y009576D01*
X006001Y009590D01*
X005985Y009601D01*
X005968Y009609D01*
X005950Y009614D01*
X005931Y009617D01*
X005931Y009608D01*
X005951Y009605D01*
X005969Y009599D01*
X005986Y009589D01*
X006002Y009577D01*
X006014Y009561D01*
X006024Y009544D01*
X006030Y009526D01*
X006033Y009506D01*
X006024Y009506D01*
X006021Y009524D01*
X006016Y009541D01*
X006007Y009556D01*
X005995Y009570D01*
X005981Y009582D01*
X005966Y009591D01*
X005949Y009596D01*
X005931Y009599D01*
X005931Y009590D01*
X005949Y009587D01*
X005967Y009580D01*
X005982Y009570D01*
X005995Y009557D01*
X006005Y009542D01*
X006012Y009524D01*
X006015Y009506D01*
X006006Y009506D01*
X006003Y009522D01*
X005997Y009538D01*
X005988Y009551D01*
X005976Y009563D01*
X005963Y009572D01*
X005947Y009578D01*
X005931Y009581D01*
X005930Y008677D02*
X005930Y008727D01*
X005931Y008726D02*
X005946Y008729D01*
X005960Y008734D01*
X005973Y008743D01*
X005984Y008754D01*
X005993Y008767D01*
X005998Y008781D01*
X006001Y008796D01*
X006050Y008797D01*
X006051Y008796D01*
X006048Y008775D01*
X006042Y008756D01*
X006033Y008737D01*
X006021Y008720D01*
X006007Y008706D01*
X005990Y008694D01*
X005971Y008685D01*
X005952Y008679D01*
X005931Y008676D01*
X005931Y008685D01*
X005950Y008688D01*
X005968Y008693D01*
X005985Y008701D01*
X006001Y008712D01*
X006015Y008726D01*
X006026Y008742D01*
X006034Y008759D01*
X006039Y008777D01*
X006042Y008796D01*
X006033Y008796D01*
X006030Y008776D01*
X006024Y008758D01*
X006014Y008741D01*
X006002Y008725D01*
X005986Y008713D01*
X005969Y008703D01*
X005951Y008697D01*
X005931Y008694D01*
X005931Y008703D01*
X005949Y008706D01*
X005966Y008711D01*
X005981Y008720D01*
X005995Y008732D01*
X006007Y008746D01*
X006016Y008761D01*
X006021Y008778D01*
X006024Y008796D01*
X006015Y008796D01*
X006012Y008778D01*
X006005Y008760D01*
X005995Y008745D01*
X005982Y008732D01*
X005967Y008722D01*
X005949Y008715D01*
X005931Y008712D01*
X005931Y008721D01*
X005947Y008724D01*
X005963Y008730D01*
X005976Y008739D01*
X005988Y008751D01*
X005997Y008764D01*
X006003Y008780D01*
X006006Y008796D01*
X003502Y008797D02*
X003552Y008797D01*
X003551Y008796D02*
X003554Y008781D01*
X003559Y008767D01*
X003568Y008754D01*
X003579Y008743D01*
X003592Y008734D01*
X003606Y008729D01*
X003621Y008726D01*
X003622Y008677D01*
X003621Y008676D01*
X003600Y008679D01*
X003581Y008685D01*
X003562Y008694D01*
X003545Y008706D01*
X003531Y008720D01*
X003519Y008737D01*
X003510Y008756D01*
X003504Y008775D01*
X003501Y008796D01*
X003510Y008796D01*
X003513Y008777D01*
X003518Y008759D01*
X003526Y008742D01*
X003537Y008726D01*
X003551Y008712D01*
X003567Y008701D01*
X003584Y008693D01*
X003602Y008688D01*
X003621Y008685D01*
X003621Y008694D01*
X003601Y008697D01*
X003583Y008703D01*
X003566Y008713D01*
X003550Y008725D01*
X003538Y008741D01*
X003528Y008758D01*
X003522Y008776D01*
X003519Y008796D01*
X003528Y008796D01*
X003531Y008778D01*
X003536Y008761D01*
X003545Y008746D01*
X003557Y008732D01*
X003571Y008720D01*
X003586Y008711D01*
X003603Y008706D01*
X003621Y008703D01*
X003621Y008712D01*
X003603Y008715D01*
X003585Y008722D01*
X003570Y008732D01*
X003557Y008745D01*
X003547Y008760D01*
X003540Y008778D01*
X003537Y008796D01*
X003546Y008796D01*
X003549Y008780D01*
X003555Y008764D01*
X003564Y008751D01*
X003576Y008739D01*
X003589Y008730D01*
X003605Y008724D01*
X003621Y008721D01*
X003622Y009625D02*
X003622Y009575D01*
X003621Y009576D02*
X003606Y009573D01*
X003592Y009568D01*
X003579Y009559D01*
X003568Y009548D01*
X003559Y009535D01*
X003554Y009521D01*
X003551Y009506D01*
X003502Y009505D01*
X003501Y009506D01*
X003504Y009527D01*
X003510Y009546D01*
X003519Y009565D01*
X003531Y009582D01*
X003545Y009596D01*
X003562Y009608D01*
X003581Y009617D01*
X003600Y009623D01*
X003621Y009626D01*
X003621Y009617D01*
X003602Y009614D01*
X003584Y009609D01*
X003567Y009601D01*
X003551Y009590D01*
X003537Y009576D01*
X003526Y009560D01*
X003518Y009543D01*
X003513Y009525D01*
X003510Y009506D01*
X003519Y009506D01*
X003522Y009526D01*
X003528Y009544D01*
X003538Y009561D01*
X003550Y009577D01*
X003566Y009589D01*
X003583Y009599D01*
X003601Y009605D01*
X003621Y009608D01*
X003621Y009599D01*
X003603Y009596D01*
X003586Y009591D01*
X003571Y009582D01*
X003557Y009570D01*
X003545Y009556D01*
X003536Y009541D01*
X003531Y009524D01*
X003528Y009506D01*
X003537Y009506D01*
X003540Y009524D01*
X003547Y009542D01*
X003557Y009557D01*
X003570Y009570D01*
X003585Y009580D01*
X003603Y009587D01*
X003621Y009590D01*
X003621Y009581D01*
X003605Y009578D01*
X003589Y009572D01*
X003576Y009563D01*
X003564Y009551D01*
X003555Y009538D01*
X003549Y009522D01*
X003546Y009506D01*
X002250Y008805D02*
X002200Y008805D01*
X002201Y008806D02*
X002198Y008821D01*
X002193Y008835D01*
X002184Y008848D01*
X002173Y008859D01*
X002160Y008868D01*
X002146Y008873D01*
X002131Y008876D01*
X002130Y008925D01*
X002131Y008926D01*
X002152Y008923D01*
X002171Y008917D01*
X002190Y008908D01*
X002207Y008896D01*
X002221Y008882D01*
X002233Y008865D01*
X002242Y008846D01*
X002248Y008827D01*
X002251Y008806D01*
X002242Y008806D01*
X002239Y008825D01*
X002234Y008843D01*
X002226Y008860D01*
X002215Y008876D01*
X002201Y008890D01*
X002185Y008901D01*
X002168Y008909D01*
X002150Y008914D01*
X002131Y008917D01*
X002131Y008908D01*
X002151Y008905D01*
X002169Y008899D01*
X002186Y008889D01*
X002202Y008877D01*
X002214Y008861D01*
X002224Y008844D01*
X002230Y008826D01*
X002233Y008806D01*
X002224Y008806D01*
X002221Y008824D01*
X002216Y008841D01*
X002207Y008856D01*
X002195Y008870D01*
X002181Y008882D01*
X002166Y008891D01*
X002149Y008896D01*
X002131Y008899D01*
X002131Y008890D01*
X002149Y008887D01*
X002167Y008880D01*
X002182Y008870D01*
X002195Y008857D01*
X002205Y008842D01*
X002212Y008824D01*
X002215Y008806D01*
X002206Y008806D01*
X002203Y008822D01*
X002197Y008838D01*
X002188Y008851D01*
X002176Y008863D01*
X002163Y008872D01*
X002147Y008878D01*
X002131Y008881D01*
X001422Y008925D02*
X001422Y008875D01*
X001421Y008876D02*
X001406Y008873D01*
X001392Y008868D01*
X001379Y008859D01*
X001368Y008848D01*
X001359Y008835D01*
X001354Y008821D01*
X001351Y008806D01*
X001302Y008805D01*
X001301Y008806D01*
X001304Y008827D01*
X001310Y008846D01*
X001319Y008865D01*
X001331Y008882D01*
X001345Y008896D01*
X001362Y008908D01*
X001381Y008917D01*
X001400Y008923D01*
X001421Y008926D01*
X001421Y008917D01*
X001402Y008914D01*
X001384Y008909D01*
X001367Y008901D01*
X001351Y008890D01*
X001337Y008876D01*
X001326Y008860D01*
X001318Y008843D01*
X001313Y008825D01*
X001310Y008806D01*
X001319Y008806D01*
X001322Y008826D01*
X001328Y008844D01*
X001338Y008861D01*
X001350Y008877D01*
X001366Y008889D01*
X001383Y008899D01*
X001401Y008905D01*
X001421Y008908D01*
X001421Y008899D01*
X001403Y008896D01*
X001386Y008891D01*
X001371Y008882D01*
X001357Y008870D01*
X001345Y008856D01*
X001336Y008841D01*
X001331Y008824D01*
X001328Y008806D01*
X001337Y008806D01*
X001340Y008824D01*
X001347Y008842D01*
X001357Y008857D01*
X001370Y008870D01*
X001385Y008880D01*
X001403Y008887D01*
X001421Y008890D01*
X001421Y008881D01*
X001405Y008878D01*
X001389Y008872D01*
X001376Y008863D01*
X001364Y008851D01*
X001355Y008838D01*
X001349Y008822D01*
X001346Y008806D01*
X001302Y006497D02*
X001352Y006497D01*
X001351Y006496D02*
X001354Y006481D01*
X001359Y006467D01*
X001368Y006454D01*
X001379Y006443D01*
X001392Y006434D01*
X001406Y006429D01*
X001421Y006426D01*
X001422Y006377D01*
X001421Y006376D01*
X001400Y006379D01*
X001381Y006385D01*
X001362Y006394D01*
X001345Y006406D01*
X001331Y006420D01*
X001319Y006437D01*
X001310Y006456D01*
X001304Y006475D01*
X001301Y006496D01*
X001310Y006496D01*
X001313Y006477D01*
X001318Y006459D01*
X001326Y006442D01*
X001337Y006426D01*
X001351Y006412D01*
X001367Y006401D01*
X001384Y006393D01*
X001402Y006388D01*
X001421Y006385D01*
X001421Y006394D01*
X001401Y006397D01*
X001383Y006403D01*
X001366Y006413D01*
X001350Y006425D01*
X001338Y006441D01*
X001328Y006458D01*
X001322Y006476D01*
X001319Y006496D01*
X001328Y006496D01*
X001331Y006478D01*
X001336Y006461D01*
X001345Y006446D01*
X001357Y006432D01*
X001371Y006420D01*
X001386Y006411D01*
X001403Y006406D01*
X001421Y006403D01*
X001421Y006412D01*
X001403Y006415D01*
X001385Y006422D01*
X001370Y006432D01*
X001357Y006445D01*
X001347Y006460D01*
X001340Y006478D01*
X001337Y006496D01*
X001346Y006496D01*
X001349Y006480D01*
X001355Y006464D01*
X001364Y006451D01*
X001376Y006439D01*
X001389Y006430D01*
X001405Y006424D01*
X001421Y006421D01*
X002130Y006377D02*
X002130Y006427D01*
X002131Y006426D02*
X002146Y006429D01*
X002160Y006434D01*
X002173Y006443D01*
X002184Y006454D01*
X002193Y006467D01*
X002198Y006481D01*
X002201Y006496D01*
X002250Y006497D01*
X002251Y006496D01*
X002248Y006475D01*
X002242Y006456D01*
X002233Y006437D01*
X002221Y006420D01*
X002207Y006406D01*
X002190Y006394D01*
X002171Y006385D01*
X002152Y006379D01*
X002131Y006376D01*
X002131Y006385D01*
X002150Y006388D01*
X002168Y006393D01*
X002185Y006401D01*
X002201Y006412D01*
X002215Y006426D01*
X002226Y006442D01*
X002234Y006459D01*
X002239Y006477D01*
X002242Y006496D01*
X002233Y006496D01*
X002230Y006476D01*
X002224Y006458D01*
X002214Y006441D01*
X002202Y006425D01*
X002186Y006413D01*
X002169Y006403D01*
X002151Y006397D01*
X002131Y006394D01*
X002131Y006403D01*
X002149Y006406D01*
X002166Y006411D01*
X002181Y006420D01*
X002195Y006432D01*
X002207Y006446D01*
X002216Y006461D01*
X002221Y006478D01*
X002224Y006496D01*
X002215Y006496D01*
X002212Y006478D01*
X002205Y006460D01*
X002195Y006445D01*
X002182Y006432D01*
X002167Y006422D01*
X002149Y006415D01*
X002131Y006412D01*
X002131Y006421D01*
X002147Y006424D01*
X002163Y006430D01*
X002176Y006439D01*
X002188Y006451D01*
X002197Y006464D01*
X002203Y006480D01*
X002206Y006496D01*
M02*
