<?xml version="1.0" encoding="UTF-8" standalone="no"?>
<!-- Generator: Adobe Illustrator 13.0.0, SVG Export Plug-In . SVG Version: 6.00 Build 14948)  -->

<svg
   xmlns:dc="http://purl.org/dc/elements/1.1/"
   xmlns:cc="http://creativecommons.org/ns#"
   xmlns:rdf="http://www.w3.org/1999/02/22-rdf-syntax-ns#"
   xmlns:svg="http://www.w3.org/2000/svg"
   xmlns="http://www.w3.org/2000/svg"
   xmlns:sodipodi="http://sodipodi.sourceforge.net/DTD/sodipodi-0.dtd"
   xmlns:inkscape="http://www.inkscape.org/namespaces/inkscape"
   version="1.0"
   id="svg2"
   inkscape:output_extension="org.inkscape.output.svg.inkscape"
   sodipodi:version="0.32"
   sodipodi:docname="LED_2x3_merged_pattern.svg"
   inkscape:version="0.48.3.1 r9886"
   x="0px"
   y="0px"
   width="406.71823"
   height="203.05023"
   viewBox="0 0 406.71824 203.05023"
   enable-background="new 0 0 782.469 748.518"
   xml:space="preserve"><metadata
   id="metadata4329"><rdf:RDF><cc:Work
       rdf:about=""><dc:format>image/svg+xml</dc:format><dc:type
         rdf:resource="http://purl.org/dc/dcmitype/StillImage" /><dc:title></dc:title></cc:Work></rdf:RDF></metadata>
<defs
   id="defs4186">
	
	
		<inkscape:perspective
   id="perspective35"
   inkscape:vp_z="567.81738 : 410.56467 : 1"
   inkscape:vp_y="0 : 1000 : 0"
   inkscape:persp3d-origin="283.90869 : 273.70978 : 1"
   sodipodi:type="inkscape:persp3d"
   inkscape:vp_x="0 : 410.56467 : 1">
		</inkscape:perspective>
	<inkscape:path-effect
   effect="spiro"
   id="path-effect3941"
   is_visible="true" />
	<inkscape:path-effect
   effect="spiro"
   id="path-effect3941-2"
   is_visible="true" />
	<inkscape:path-effect
   effect="spiro"
   id="path-effect3941-1"
   is_visible="true" />
	<inkscape:path-effect
   effect="spiro"
   id="path-effect3941-2-1"
   is_visible="true" />
	<inkscape:path-effect
   effect="spiro"
   id="path-effect3941-1-7"
   is_visible="true" />
	<inkscape:path-effect
   effect="spiro"
   id="path-effect3941-2-1-2"
   is_visible="true" />
	<inkscape:path-effect
   effect="spiro"
   id="path-effect23631"
   is_visible="true" />
	<inkscape:path-effect
   effect="spiro"
   id="path-effect23629"
   is_visible="true" />
	
		<inkscape:perspective
   id="perspective37"
   inkscape:vp_z="744.09448 : 526.18109 : 1"
   inkscape:vp_y="0 : 1000 : 0"
   inkscape:persp3d-origin="372.04724 : 350.78739 : 1"
   sodipodi:type="inkscape:persp3d"
   inkscape:vp_x="0 : 526.18109 : 1">
		</inkscape:perspective>

	
	
	
	

		
		
		
		
		
	</defs>
<sodipodi:namedview
   units="cm"
   id="namedview4"
   inkscape:window-maximized="1"
   borderopacity="1"
   pagecolor="#ffffff"
   bordercolor="#666666"
   objecttolerance="10"
   guidetolerance="10"
   inkscape:pageopacity="0"
   inkscape:pageshadow="2"
   inkscape:zoom="0.70710678"
   fit-margin-bottom="0.2"
   fit-margin-right="0.2"
   fit-margin-top="0.2"
   fit-margin-left="0.2"
   inkscape:current-layer="svg2"
   inkscape:window-y="24"
   inkscape:window-x="0"
   inkscape:cy="-150.59835"
   inkscape:cx="359.36195"
   gridtolerance="10"
   showgrid="false"
   inkscape:window-width="1920"
   inkscape:window-height="1000">
	</sodipodi:namedview>
<g
   id="g3970"
   transform="translate(14.274614,8.2736076)">
</g>
<g
   id="Default"
   transform="matrix(0.02757182,0,0,-0.02757182,-198.97839,584.26895)">
	<desc
   id="desc32263">Master slide</desc>
</g>
<g
   id="g4204"
   transform="translate(14.274614,8.2736076)">
		<path
   style="fill:none;stroke:#ff0000;stroke-width:3"
   inkscape:connector-curvature="0"
   d="m 374.878,186.19 c 4.975,0 8.979,-4.005 8.979,-8.979 V 9.292 c 0,-4.975 -4.006,-8.979 -8.979,-8.979 H 3.292 c -4.975,0 -8.98,4.005 -8.98,8.979 v 167.919 c 0,4.975 4.005,8.979 8.98,8.979"
   id="rect8807_7_" />
		<g
   transform="translate(3.6886713,0)"
   id="g9759">
			<path
   style="fill:none;stroke:#000000;stroke-width:3"
   inkscape:connector-curvature="0"
   d="m 165.534,53.026 52.856,9.796 -6.53,35.238 -52.856,-9.796 6.53,-35.238 z"
   id="rect8811" />
			<path
   style="fill:none;stroke:#000000;stroke-width:3"
   inkscape:connector-curvature="0"
   d="m 309.122,96.678 c 0,5.067 -4.112,9.179 -9.18,9.179 -0.905,0 -1.792,-0.129 -2.619,-0.374 -0.04,-0.012 -0.083,-0.012 -0.124,-0.025 l -18.383,-3.417 -0.674,3.667 -3.417,-0.624 4.615,-25.542 3.517,0.773 -0.698,3.792 c 6.458,1.061 12.34,2.281 18.508,3.442 4.72,0.376 8.455,4.311 8.455,9.129 z"
   id="path8813" />
			
				<path
   style="fill:none;stroke:#000000;stroke-width:3"
   d="m 212.749,93.258 62.885,6.1"
   sodipodi:nodetypes="cc"
   inkscape:connector-curvature="0"
   id="path8815" />
			
				<path
   style="fill:none;stroke:#000000;stroke-width:3"
   d="m 278.494,84.61 -60.925,-17.353 0,0"
   sodipodi:nodetypes="ccc"
   inkscape:connector-curvature="0"
   id="path8817" />
			
				<path
   style="fill:none;stroke:#000000;stroke-width:3"
   d="m 216.184,76.092 61.451,13.157"
   sodipodi:nodetypes="cc"
   inkscape:connector-curvature="0"
   id="path8819" />
			
				<path
   style="fill:none;stroke:#000000;stroke-width:3"
   d="m 214.432,84.858 62.084,9.739 0,0"
   sodipodi:nodetypes="ccc"
   inkscape:connector-curvature="0"
   id="path8821" />
			<path
   style="fill:none;stroke:#000000;stroke-width:3"
   inkscape:connector-curvature="0"
   d="m 211.763,98.24 -52.856,-9.796 -6.531,35.237 52.856,9.796 6.531,-35.237 z"
   id="rect8823" />
			<path
   style="fill:none;stroke:#000000;stroke-width:3"
   inkscape:connector-curvature="0"
   d="m 96.143,81.715 -4.864,25.492 -3.417,-0.648 0.699,-3.642 -19.057,-3.268 c 0,0 -0.099,-0.097 -0.149,-0.149 -4.354,-0.717 -7.683,-4.474 -7.683,-9.029 0,-5.067 4.112,-9.179 9.179,-9.179 0.225,0 0.453,0.009 0.673,0.025 0.017,0.001 0.034,-10e-4 0.05,0 0.176,-0.041 0.274,-0.075 0.274,-0.075 6.729,1.248 13.098,2.285 20.03,3.717 l 0.698,-3.792 3.567,0.548 z"
   id="path8825" />
			
				<path
   style="fill:none;stroke:#000000;stroke-width:3"
   d="M 153.266,118.879 92.372,102.038"
   sodipodi:nodetypes="cc"
   inkscape:connector-curvature="0"
   id="path8827" />
			
				<path
   style="fill:none;stroke:#000000;stroke-width:3"
   d="m 94.988,87.245 63.097,5.634 0,0"
   sodipodi:nodetypes="ccc"
   inkscape:connector-curvature="0"
   id="path8829" />
			
				<path
   style="fill:none;stroke:#000000;stroke-width:3"
   d="M 156.212,101.623 94.128,91.884"
   sodipodi:nodetypes="cc"
   inkscape:connector-curvature="0"
   id="path8831" />
			
				<path
   style="fill:none;stroke:#000000;stroke-width:3"
   d="m 154.705,110.434 -61.451,-13.157 0,0"
   sodipodi:nodetypes="ccc"
   inkscape:connector-curvature="0"
   id="path8833" />
		</g>
	</g><path
   id="rect8807_1_"
   d="M 389.15161,194.46361 H 17.566615"
   inkscape:connector-curvature="0"
   style="fill:none;stroke:#ff0000;stroke-width:3" />

</svg>