<?xml version="1.0" encoding="UTF-8" standalone="no"?>
<!-- Generator: Adobe Illustrator 13.0.0, SVG Export Plug-In . SVG Version: 6.00 Build 14948)  -->

<svg
   xmlns:dc="http://purl.org/dc/elements/1.1/"
   xmlns:cc="http://creativecommons.org/ns#"
   xmlns:rdf="http://www.w3.org/1999/02/22-rdf-syntax-ns#"
   xmlns:svg="http://www.w3.org/2000/svg"
   xmlns="http://www.w3.org/2000/svg"
   xmlns:sodipodi="http://sodipodi.sourceforge.net/DTD/sodipodi-0.dtd"
   xmlns:inkscape="http://www.inkscape.org/namespaces/inkscape"
   version="1.0"
   id="svg2"
   inkscape:output_extension="org.inkscape.output.svg.inkscape"
   sodipodi:version="0.32"
   sodipodi:docname="LED_2x3_merged.svg"
   inkscape:version="0.48.3.1 r9886"
   x="0px"
   y="0px"
   width="796.5072"
   height="574.80725"
   viewBox="0 0 796.50721 574.80725"
   enable-background="new 0 0 782.469 748.518"
   xml:space="preserve"><metadata
   id="metadata4329"><rdf:RDF><cc:Work
       rdf:about=""><dc:format>image/svg+xml</dc:format><dc:type
         rdf:resource="http://purl.org/dc/dcmitype/StillImage" /></cc:Work></rdf:RDF></metadata>
<defs
   id="defs4186">
	
	
		<inkscape:perspective
   id="perspective35"
   inkscape:vp_z="567.81738 : 410.56467 : 1"
   inkscape:vp_y="0 : 1000 : 0"
   inkscape:persp3d-origin="283.90869 : 273.70978 : 1"
   sodipodi:type="inkscape:persp3d"
   inkscape:vp_x="0 : 410.56467 : 1">
		</inkscape:perspective>
	<inkscape:path-effect
   effect="spiro"
   id="path-effect3941"
   is_visible="true" />
	<inkscape:path-effect
   effect="spiro"
   id="path-effect3941-2"
   is_visible="true" />
	<inkscape:path-effect
   effect="spiro"
   id="path-effect3941-1"
   is_visible="true" />
	<inkscape:path-effect
   effect="spiro"
   id="path-effect3941-2-1"
   is_visible="true" />
	<inkscape:path-effect
   effect="spiro"
   id="path-effect3941-1-7"
   is_visible="true" />
	<inkscape:path-effect
   effect="spiro"
   id="path-effect3941-2-1-2"
   is_visible="true" />
	<inkscape:path-effect
   effect="spiro"
   id="path-effect23631"
   is_visible="true" />
	<inkscape:path-effect
   effect="spiro"
   id="path-effect23629"
   is_visible="true" />
	
		<inkscape:perspective
   id="perspective37"
   inkscape:vp_z="744.09448 : 526.18109 : 1"
   inkscape:vp_y="0 : 1000 : 0"
   inkscape:persp3d-origin="372.04724 : 350.78739 : 1"
   sodipodi:type="inkscape:persp3d"
   inkscape:vp_x="0 : 526.18109 : 1">
		</inkscape:perspective>
</defs>
<sodipodi:namedview
   units="cm"
   id="namedview4"
   inkscape:window-maximized="1"
   borderopacity="1"
   pagecolor="#ffffff"
   bordercolor="#666666"
   objecttolerance="10"
   guidetolerance="10"
   inkscape:pageopacity="0"
   inkscape:pageshadow="2"
   inkscape:zoom="0.5"
   fit-margin-bottom="0.2"
   fit-margin-right="0.2"
   fit-margin-top="0.2"
   fit-margin-left="0.2"
   inkscape:current-layer="svg2"
   inkscape:window-y="24"
   inkscape:window-x="0"
   inkscape:cy="316.59225"
   inkscape:cx="-193.30499"
   gridtolerance="10"
   showgrid="false"
   inkscape:window-width="1920"
   inkscape:window-height="1000">
	</sodipodi:namedview>
<g
   id="g3970"
   transform="translate(14.274614,8.2736087)">
</g>
<g
   id="Default"
   transform="matrix(0.02757182,0,0,-0.02757182,-198.97839,584.26895)">
	<desc
   id="desc32263">Master slide</desc>
</g>
<g
   id="g4202"
   transform="translate(14.274614,8.2736087)">
	<g
   id="g4204">
		<path
   id="rect8807_7_"
   d="m 374.878,186.19 c 4.975,0 8.979,-4.005 8.979,-8.979 V 9.292 c 0,-4.975 -4.006,-8.979 -8.979,-8.979 H 3.292 c -4.975,0 -8.98,4.005 -8.98,8.979 v 167.919 c 0,4.975 4.005,8.979 8.98,8.979"
   inkscape:connector-curvature="0"
   style="fill:none;stroke:#ff0000;stroke-width:3" />
		<g
   id="g9759"
   transform="translate(3.6886713,0)">
			<path
   id="rect8811"
   d="m 165.534,53.026 52.856,9.796 -6.53,35.238 -52.856,-9.796 6.53,-35.238 z"
   inkscape:connector-curvature="0"
   style="fill:none;stroke:#000000;stroke-width:3" />
			<path
   id="path8813"
   d="m 309.122,96.678 c 0,5.067 -4.112,9.179 -9.18,9.179 -0.905,0 -1.792,-0.129 -2.619,-0.374 -0.04,-0.012 -0.083,-0.012 -0.124,-0.025 l -18.383,-3.417 -0.674,3.667 -3.417,-0.624 4.615,-25.542 3.517,0.773 -0.698,3.792 c 6.458,1.061 12.34,2.281 18.508,3.442 4.72,0.376 8.455,4.311 8.455,9.129 z"
   inkscape:connector-curvature="0"
   style="fill:none;stroke:#000000;stroke-width:3" />
			
				<path
   id="path8815"
   inkscape:connector-curvature="0"
   sodipodi:nodetypes="cc"
   d="m 212.749,93.258 62.885,6.1"
   style="fill:none;stroke:#000000;stroke-width:3" />
			
				<path
   id="path8817"
   inkscape:connector-curvature="0"
   sodipodi:nodetypes="ccc"
   d="m 278.494,84.61 -60.925,-17.353 0,0"
   style="fill:none;stroke:#000000;stroke-width:3" />
			
				<path
   id="path8819"
   inkscape:connector-curvature="0"
   sodipodi:nodetypes="cc"
   d="m 216.184,76.092 61.451,13.157"
   style="fill:none;stroke:#000000;stroke-width:3" />
			
				<path
   id="path8821"
   inkscape:connector-curvature="0"
   sodipodi:nodetypes="ccc"
   d="m 214.432,84.858 62.084,9.739 0,0"
   style="fill:none;stroke:#000000;stroke-width:3" />
			<path
   id="rect8823"
   d="m 211.763,98.24 -52.856,-9.796 -6.531,35.237 52.856,9.796 6.531,-35.237 z"
   inkscape:connector-curvature="0"
   style="fill:none;stroke:#000000;stroke-width:3" />
			<path
   id="path8825"
   d="m 96.143,81.715 -4.864,25.492 -3.417,-0.648 0.699,-3.642 -19.057,-3.268 c 0,0 -0.099,-0.097 -0.149,-0.149 -4.354,-0.717 -7.683,-4.474 -7.683,-9.029 0,-5.067 4.112,-9.179 9.179,-9.179 0.225,0 0.453,0.009 0.673,0.025 0.017,0.001 0.034,-10e-4 0.05,0 0.176,-0.041 0.274,-0.075 0.274,-0.075 6.729,1.248 13.098,2.285 20.03,3.717 l 0.698,-3.792 3.567,0.548 z"
   inkscape:connector-curvature="0"
   style="fill:none;stroke:#000000;stroke-width:3" />
			
				<path
   id="path8827"
   inkscape:connector-curvature="0"
   sodipodi:nodetypes="cc"
   d="M 153.266,118.879 92.372,102.038"
   style="fill:none;stroke:#000000;stroke-width:3" />
			
				<path
   id="path8829"
   inkscape:connector-curvature="0"
   sodipodi:nodetypes="ccc"
   d="m 94.988,87.245 63.097,5.634 0,0"
   style="fill:none;stroke:#000000;stroke-width:3" />
			
				<path
   id="path8831"
   inkscape:connector-curvature="0"
   sodipodi:nodetypes="cc"
   d="M 156.212,101.623 94.128,91.884"
   style="fill:none;stroke:#000000;stroke-width:3" />
			
				<path
   id="path8833"
   inkscape:connector-curvature="0"
   sodipodi:nodetypes="ccc"
   d="m 154.705,110.434 -61.451,-13.157 0,0"
   style="fill:none;stroke:#000000;stroke-width:3" />
		</g>
	</g>
	<g
   id="g4220">
		<path
   id="rect8807_9_"
   d="m 383.858,195.17 c 0,-4.975 -4.007,-8.979 -8.98,-8.979"
   inkscape:connector-curvature="0"
   style="fill:none;stroke:#ff0000;stroke-width:3" />
		<path
   id="rect8807_28_"
   d="m 374.877,372.068 c 4.975,0 8.98,-4.005 8.98,-8.979 V 195.17"
   inkscape:connector-curvature="0"
   style="fill:none;stroke:#ff0000;stroke-width:3" />
		<path
   id="rect8807_15_"
   d="m 3.292,186.19 c -4.975,0 -8.98,4.005 -8.98,8.979 v 167.919 c 0,4.975 4.005,8.979 8.98,8.979"
   inkscape:connector-curvature="0"
   style="fill:none;stroke:#ff0000;stroke-width:3" />
		<path
   id="rect8807_1_"
   d="M 374.877,186.19 H 3.292"
   inkscape:connector-curvature="0"
   style="fill:none;stroke:#ff0000;stroke-width:3" />
		<g
   id="g9759_1_"
   transform="translate(3.6886713,0)">
			<path
   id="rect8811_1_"
   d="m 165.534,238.904 52.856,9.796 -6.53,35.237 -52.856,-9.796 6.53,-35.237 z"
   inkscape:connector-curvature="0"
   style="fill:none;stroke:#000000;stroke-width:3" />
			<path
   id="path8813_1_"
   d="m 309.122,282.556 c 0,5.067 -4.113,9.179 -9.18,9.179 -0.906,0 -1.793,-0.129 -2.619,-0.374 -0.041,-0.012 -0.084,-0.012 -0.125,-0.025 l -18.383,-3.417 -0.674,3.667 -3.417,-0.624 4.614,-25.542 3.518,0.773 -0.699,3.792 c 6.458,1.061 12.34,2.281 18.508,3.442 4.722,0.376 8.457,4.311 8.457,9.129 z"
   inkscape:connector-curvature="0"
   style="fill:none;stroke:#000000;stroke-width:3" />
			
				<path
   id="path8815_1_"
   inkscape:connector-curvature="0"
   sodipodi:nodetypes="cc"
   d="m 212.749,279.136 62.885,6.1"
   style="fill:none;stroke:#000000;stroke-width:3" />
			
				<path
   id="path8817_1_"
   inkscape:connector-curvature="0"
   sodipodi:nodetypes="ccc"
   d="m 278.493,270.488 -60.925,-17.354 0,0"
   style="fill:none;stroke:#000000;stroke-width:3" />
			
				<path
   id="path8819_1_"
   inkscape:connector-curvature="0"
   sodipodi:nodetypes="cc"
   d="m 216.184,261.97 61.45,13.157"
   style="fill:none;stroke:#000000;stroke-width:3" />
			
				<path
   id="path8821_1_"
   inkscape:connector-curvature="0"
   sodipodi:nodetypes="ccc"
   d="m 214.433,270.736 62.084,9.739 0,0"
   style="fill:none;stroke:#000000;stroke-width:3" />
			<path
   id="rect8823_1_"
   d="m 211.763,284.118 -52.856,-9.796 -6.531,35.237 52.855,9.796 6.532,-35.237 z"
   inkscape:connector-curvature="0"
   style="fill:none;stroke:#000000;stroke-width:3" />
			<path
   id="path8825_1_"
   d="m 96.143,267.593 -4.864,25.492 -3.417,-0.648 0.699,-3.642 -19.057,-3.268 c 0,0 -0.099,-0.097 -0.149,-0.149 -4.354,-0.717 -7.683,-4.474 -7.683,-9.029 0,-5.067 4.112,-9.179 9.179,-9.179 0.225,0 0.453,0.009 0.673,0.025 0.017,0.001 0.034,-10e-4 0.05,0 0.176,-0.041 0.274,-0.075 0.274,-0.075 6.729,1.248 13.098,2.285 20.03,3.717 l 0.698,-3.792 3.567,0.548 z"
   inkscape:connector-curvature="0"
   style="fill:none;stroke:#000000;stroke-width:3" />
			
				<path
   id="path8827_1_"
   inkscape:connector-curvature="0"
   sodipodi:nodetypes="cc"
   d="M 153.266,304.757 92.372,287.916"
   style="fill:none;stroke:#000000;stroke-width:3" />
			
				<path
   id="path8829_1_"
   inkscape:connector-curvature="0"
   sodipodi:nodetypes="ccc"
   d="m 94.988,273.123 63.097,5.634 0,0"
   style="fill:none;stroke:#000000;stroke-width:3" />
			
				<path
   id="path8831_1_"
   inkscape:connector-curvature="0"
   sodipodi:nodetypes="cc"
   d="M 156.212,287.5 94.128,277.761"
   style="fill:none;stroke:#000000;stroke-width:3" />
			
				<path
   id="path8833_1_"
   inkscape:connector-curvature="0"
   sodipodi:nodetypes="ccc"
   d="m 154.705,296.312 -61.451,-13.157 0,0"
   style="fill:none;stroke:#000000;stroke-width:3" />
		</g>
	</g>
	<g
   id="g4239">
		<path
   id="rect8807_18_"
   d="m 3.292,372.068 c -4.975,0 -8.98,4.005 -8.98,8.979 v 167.919 c 0,4.976 4.005,8.979 8.98,8.979 h 371.585 c 4.975,0 8.98,-4.005 8.98,-8.979 V 381.048 c 0,-4.975 -4.007,-8.979 -8.98,-8.979"
   inkscape:connector-curvature="0"
   style="fill:none;stroke:#ff0000;stroke-width:3" />
		<path
   id="rect8807_3_"
   d="M 374.877,372.068 H 3.292"
   inkscape:connector-curvature="0"
   style="fill:none;stroke:#ff0000;stroke-width:3" />
		<g
   id="g9759_3_"
   transform="translate(3.6886713,0)">
			<path
   id="rect8811_3_"
   d="m 165.534,424.781 52.856,9.797 -6.53,35.237 -52.856,-9.797 6.53,-35.237 z"
   inkscape:connector-curvature="0"
   style="fill:none;stroke:#000000;stroke-width:3" />
			<path
   id="path8813_3_"
   d="m 309.122,468.434 c 0,5.067 -4.113,9.181 -9.18,9.181 -0.906,0 -1.793,-0.129 -2.619,-0.374 -0.041,-0.014 -0.084,-0.014 -0.125,-0.024 l -18.383,-3.418 -0.674,3.667 -3.417,-0.624 4.614,-25.542 3.518,0.773 -0.699,3.792 c 6.458,1.061 12.34,2.279 18.508,3.44 4.722,0.377 8.457,4.311 8.457,9.129 z"
   inkscape:connector-curvature="0"
   style="fill:none;stroke:#000000;stroke-width:3" />
			
				<path
   id="path8815_3_"
   inkscape:connector-curvature="0"
   sodipodi:nodetypes="cc"
   d="m 212.749,465.014 62.885,6.101"
   style="fill:none;stroke:#000000;stroke-width:3" />
			
				<path
   id="path8817_3_"
   inkscape:connector-curvature="0"
   sodipodi:nodetypes="ccc"
   d="m 278.493,456.365 -60.925,-17.353 0,0"
   style="fill:none;stroke:#000000;stroke-width:3" />
			
				<path
   id="path8819_3_"
   inkscape:connector-curvature="0"
   sodipodi:nodetypes="cc"
   d="m 216.184,447.848 61.45,13.156"
   style="fill:none;stroke:#000000;stroke-width:3" />
			
				<path
   id="path8821_3_"
   inkscape:connector-curvature="0"
   sodipodi:nodetypes="ccc"
   d="m 214.433,456.613 62.084,9.739 0,0"
   style="fill:none;stroke:#000000;stroke-width:3" />
			<path
   id="rect8823_3_"
   d="m 211.763,469.996 -52.856,-9.797 -6.531,35.236 52.855,9.797 6.532,-35.236 z"
   inkscape:connector-curvature="0"
   style="fill:none;stroke:#000000;stroke-width:3" />
			<path
   id="path8825_3_"
   d="m 96.143,453.471 -4.864,25.492 -3.417,-0.647 0.699,-3.643 -19.057,-3.268 c 0,0 -0.099,-0.098 -0.149,-0.149 -4.354,-0.717 -7.683,-4.474 -7.683,-9.029 0,-5.065 4.112,-9.18 9.179,-9.18 0.225,0 0.453,0.01 0.673,0.025 0.017,10e-4 0.034,-0.002 0.05,0 0.176,-0.041 0.274,-0.075 0.274,-0.075 6.729,1.247 13.098,2.284 20.03,3.717 l 0.698,-3.792 3.567,0.549 z"
   inkscape:connector-curvature="0"
   style="fill:none;stroke:#000000;stroke-width:3" />
			
				<path
   id="path8827_3_"
   inkscape:connector-curvature="0"
   sodipodi:nodetypes="cc"
   d="M 153.266,490.635 92.372,473.794"
   style="fill:none;stroke:#000000;stroke-width:3" />
			
				<path
   id="path8829_3_"
   inkscape:connector-curvature="0"
   sodipodi:nodetypes="ccc"
   d="m 94.988,459 63.097,5.635 0,0"
   style="fill:none;stroke:#000000;stroke-width:3" />
			
				<path
   id="path8831_3_"
   inkscape:connector-curvature="0"
   sodipodi:nodetypes="cc"
   d="m 156.212,473.379 -62.084,-9.74"
   style="fill:none;stroke:#000000;stroke-width:3" />
			
				<path
   id="path8833_3_"
   inkscape:connector-curvature="0"
   sodipodi:nodetypes="ccc"
   d="m 154.705,482.189 -61.451,-13.156 0,0"
   style="fill:none;stroke:#000000;stroke-width:3" />
		</g>
	</g>
	<g
   id="g4256">
		<path
   id="rect8807_16_"
   d="M 374.878,557.947"
   inkscape:connector-curvature="0"
   style="fill:none;stroke:#ff0000;stroke-width:3" />
		<path
   id="rect8807_31_"
   d="M 3.292,557.946"
   inkscape:connector-curvature="0"
   style="fill:none;stroke:#ff0000;stroke-width:3" />
		<path
   id="rect8807_5_"
   d="M 374.877,557.946"
   inkscape:connector-curvature="0"
   style="fill:none;stroke:#ff0000;stroke-width:3" />
	</g>
</g>
<g
   id="g4261"
   transform="translate(14.274614,8.2736087)">
	<g
   id="g4263">
		<path
   id="rect8807_8_"
   d="m 384.101,177.211 c 0,4.975 4.005,8.979 8.979,8.979 h 371.585 c 4.975,0 8.979,-4.005 8.979,-8.979 V 9.292 c 0,-4.975 -4.006,-8.979 -8.979,-8.979 H 393.081 c -4.976,0 -8.979,4.005 -8.979,8.979"
   inkscape:connector-curvature="0"
   style="fill:none;stroke:#ff0000;stroke-width:3" />
		<path
   id="rect8807_24_"
   d="M 384.101,177.211"
   inkscape:connector-curvature="0"
   style="fill:none;stroke:#ff0000;stroke-width:3" />
		<path
   id="rect8807_23_"
   d="M 384.101,9.292"
   inkscape:connector-curvature="0"
   style="fill:none;stroke:#ff0000;stroke-width:3" />
		<g
   id="g9759_7_"
   transform="translate(3.6886713,0)">
			<path
   id="rect8811_7_"
   d="m 555.323,53.026 52.854,9.796 -6.529,35.237 -52.856,-9.796 6.531,-35.237 z"
   inkscape:connector-curvature="0"
   style="fill:none;stroke:#000000;stroke-width:3" />
			<path
   id="path8813_7_"
   d="m 698.91,96.678 c 0,5.067 -4.113,9.179 -9.18,9.179 -0.906,0 -1.793,-0.129 -2.619,-0.374 -0.041,-0.012 -0.084,-0.012 -0.125,-0.025 l -18.383,-3.417 -0.675,3.667 -3.417,-0.624 4.614,-25.542 3.519,0.773 -0.699,3.792 c 6.458,1.061 12.34,2.281 18.508,3.442 4.723,0.376 8.457,4.311 8.457,9.129 z"
   inkscape:connector-curvature="0"
   style="fill:none;stroke:#000000;stroke-width:3" />
			
				<path
   id="path8815_7_"
   inkscape:connector-curvature="0"
   sodipodi:nodetypes="cc"
   d="m 602.537,93.258 62.885,6.1"
   style="fill:none;stroke:#000000;stroke-width:3" />
			
				<path
   id="path8817_7_"
   inkscape:connector-curvature="0"
   sodipodi:nodetypes="ccc"
   d="m 668.281,84.61 -60.925,-17.353 0,0"
   style="fill:none;stroke:#000000;stroke-width:3" />
			
				<path
   id="path8819_7_"
   inkscape:connector-curvature="0"
   sodipodi:nodetypes="cc"
   d="m 605.971,76.092 61.45,13.157"
   style="fill:none;stroke:#000000;stroke-width:3" />
			
				<path
   id="path8821_7_"
   inkscape:connector-curvature="0"
   sodipodi:nodetypes="ccc"
   d="m 604.221,84.858 62.084,9.739 0,0"
   style="fill:none;stroke:#000000;stroke-width:3" />
			<path
   id="rect8823_7_"
   d="m 601.551,98.24 -52.854,-9.796 -6.531,35.237 52.855,9.796 6.53,-35.237 z"
   inkscape:connector-curvature="0"
   style="fill:none;stroke:#000000;stroke-width:3" />
			<path
   id="path8825_7_"
   d="m 485.931,81.715 -4.864,25.492 -3.417,-0.648 0.698,-3.642 -19.058,-3.268 c 0,0 -0.099,-0.097 -0.148,-0.149 -4.354,-0.717 -7.684,-4.474 -7.684,-9.029 0,-5.067 4.112,-9.179 9.181,-9.179 0.225,0 0.451,0.009 0.673,0.025 0.017,0.001 0.033,-10e-4 0.05,0 0.176,-0.041 0.273,-0.075 0.273,-0.075 6.729,1.248 13.099,2.285 20.03,3.717 l 0.697,-3.792 3.569,0.548 z"
   inkscape:connector-curvature="0"
   style="fill:none;stroke:#000000;stroke-width:3" />
			
				<path
   id="path8827_7_"
   inkscape:connector-curvature="0"
   sodipodi:nodetypes="cc"
   d="M 543.053,118.879 482.159,102.038"
   style="fill:none;stroke:#000000;stroke-width:3" />
			
				<path
   id="path8829_7_"
   inkscape:connector-curvature="0"
   sodipodi:nodetypes="ccc"
   d="m 484.776,87.245 63.098,5.634 0,0"
   style="fill:none;stroke:#000000;stroke-width:3" />
			
				<path
   id="path8831_7_"
   inkscape:connector-curvature="0"
   sodipodi:nodetypes="cc"
   d="M 546,101.623 483.916,91.884"
   style="fill:none;stroke:#000000;stroke-width:3" />
			
				<path
   id="path8833_7_"
   inkscape:connector-curvature="0"
   sodipodi:nodetypes="ccc"
   d="m 544.492,110.434 -61.45,-13.157 0,0"
   style="fill:none;stroke:#000000;stroke-width:3" />
		</g>
	</g>
	<g
   id="g4281">
		<path
   id="rect8807_14_"
   d="m 394.405,186.19 h -1.324"
   inkscape:connector-curvature="0"
   style="fill:none;stroke:#ff0000;stroke-width:3" />
		<path
   id="rect8807_26_"
   d="M 394.405,186.19"
   inkscape:connector-curvature="0"
   style="fill:none;stroke:#ff0000;stroke-width:3" />
		<path
   id="rect8807_25_"
   d="M 764.666,186.19"
   inkscape:connector-curvature="0"
   style="fill:none;stroke:#ff0000;stroke-width:3" />
		<path
   id="rect8807_11_"
   d="m 393.081,372.068 h 371.585 c 4.975,0 8.98,-4.004 8.98,-8.979 V 195.17 c 0,-4.975 -4.007,-8.979 -8.98,-8.979"
   inkscape:connector-curvature="0"
   style="fill:none;stroke:#ff0000;stroke-width:3" />
		<path
   id="rect8807_10_"
   d="m 384.101,363.089 c 0,4.975 4.005,8.979 8.979,8.979"
   inkscape:connector-curvature="0"
   style="fill:none;stroke:#ff0000;stroke-width:3" />
		<path
   id="rect8807_27_"
   d="M 384.101,363.089"
   inkscape:connector-curvature="0"
   style="fill:none;stroke:#ff0000;stroke-width:3" />
		<path
   id="rect8807_20_"
   d="M 384.101,195.17"
   inkscape:connector-curvature="0"
   style="fill:none;stroke:#ff0000;stroke-width:3" />
		<path
   id="rect8807_6_"
   d="m 393.081,186.19 c -4.976,0 -8.979,4.005 -8.979,8.979"
   inkscape:connector-curvature="0"
   style="fill:none;stroke:#ff0000;stroke-width:3" />
		<g
   id="g9759_6_"
   transform="translate(3.6886713,0)">
			<path
   id="rect8811_6_"
   d="m 555.323,238.904 52.854,9.796 -6.529,35.237 -52.856,-9.796 6.531,-35.237 z"
   inkscape:connector-curvature="0"
   style="fill:none;stroke:#000000;stroke-width:3" />
			<path
   id="path8813_6_"
   d="m 698.91,282.556 c 0,5.067 -4.113,9.179 -9.18,9.179 -0.906,0 -1.793,-0.129 -2.619,-0.374 -0.041,-0.012 -0.084,-0.012 -0.125,-0.025 l -18.383,-3.417 -0.675,3.667 -3.417,-0.624 4.614,-25.542 3.519,0.773 -0.699,3.792 c 6.458,1.061 12.34,2.281 18.508,3.442 4.723,0.376 8.457,4.311 8.457,9.129 z"
   inkscape:connector-curvature="0"
   style="fill:none;stroke:#000000;stroke-width:3" />
			
				<path
   id="path8815_6_"
   inkscape:connector-curvature="0"
   sodipodi:nodetypes="cc"
   d="m 602.537,279.136 62.885,6.1"
   style="fill:none;stroke:#000000;stroke-width:3" />
			
				<path
   id="path8817_6_"
   inkscape:connector-curvature="0"
   sodipodi:nodetypes="ccc"
   d="m 668.281,270.488 -60.925,-17.354 0,0"
   style="fill:none;stroke:#000000;stroke-width:3" />
			
				<path
   id="path8819_6_"
   inkscape:connector-curvature="0"
   sodipodi:nodetypes="cc"
   d="m 605.971,261.97 61.45,13.157"
   style="fill:none;stroke:#000000;stroke-width:3" />
			
				<path
   id="path8821_6_"
   inkscape:connector-curvature="0"
   sodipodi:nodetypes="ccc"
   d="m 604.221,270.736 62.084,9.739 0,0"
   style="fill:none;stroke:#000000;stroke-width:3" />
			<path
   id="rect8823_6_"
   d="m 601.551,284.118 -52.854,-9.796 -6.531,35.237 52.855,9.796 6.53,-35.237 z"
   inkscape:connector-curvature="0"
   style="fill:none;stroke:#000000;stroke-width:3" />
			<path
   id="path8825_6_"
   d="m 485.931,267.593 -4.864,25.492 -3.417,-0.648 0.698,-3.642 -19.058,-3.268 c 0,0 -0.099,-0.097 -0.148,-0.149 -4.354,-0.717 -7.684,-4.474 -7.684,-9.029 0,-5.067 4.112,-9.179 9.181,-9.179 0.225,0 0.451,0.009 0.673,0.025 0.017,0.001 0.033,-10e-4 0.05,0 0.176,-0.041 0.273,-0.075 0.273,-0.075 6.729,1.248 13.099,2.285 20.03,3.717 l 0.697,-3.792 3.569,0.548 z"
   inkscape:connector-curvature="0"
   style="fill:none;stroke:#000000;stroke-width:3" />
			
				<path
   id="path8827_6_"
   inkscape:connector-curvature="0"
   sodipodi:nodetypes="cc"
   d="M 543.053,304.757 482.159,287.916"
   style="fill:none;stroke:#000000;stroke-width:3" />
			
				<path
   id="path8829_6_"
   inkscape:connector-curvature="0"
   sodipodi:nodetypes="ccc"
   d="m 484.776,273.123 63.098,5.634 0,0"
   style="fill:none;stroke:#000000;stroke-width:3" />
			
				<path
   id="path8831_6_"
   inkscape:connector-curvature="0"
   sodipodi:nodetypes="cc"
   d="m 546,287.5 -62.084,-9.739"
   style="fill:none;stroke:#000000;stroke-width:3" />
			
				<path
   id="path8833_6_"
   inkscape:connector-curvature="0"
   sodipodi:nodetypes="ccc"
   d="m 544.492,296.312 -61.45,-13.157 0,0"
   style="fill:none;stroke:#000000;stroke-width:3" />
		</g>
	</g>
	<g
   id="g4304">
		<path
   id="rect8807_29_"
   d="m 393.081,372.068 c -4.976,0 -8.979,4.006 -8.979,8.98"
   inkscape:connector-curvature="0"
   style="fill:none;stroke:#ff0000;stroke-width:3" />
		<path
   id="rect8807_19_"
   d="M 764.666,372.068"
   inkscape:connector-curvature="0"
   style="fill:none;stroke:#ff0000;stroke-width:3" />
		<path
   id="rect8807_12_"
   d="m 384.101,548.967 c 0,4.976 4.005,8.98 8.979,8.98 h 371.585 c 4.975,0 8.979,-4.006 8.979,-8.98 V 381.049 c 0,-4.975 -4.006,-8.98 -8.979,-8.98"
   inkscape:connector-curvature="0"
   style="fill:none;stroke:#ff0000;stroke-width:3" />
		<path
   id="rect8807_30_"
   d="M 384.101,548.967"
   inkscape:connector-curvature="0"
   style="fill:none;stroke:#ff0000;stroke-width:3" />
		<path
   id="rect8807_21_"
   d="M 384.101,381.049"
   inkscape:connector-curvature="0"
   style="fill:none;stroke:#ff0000;stroke-width:3" />
		<g
   id="g9759_5_"
   transform="translate(3.6886713,0)">
			<path
   id="rect8811_5_"
   d="m 555.323,424.781 52.854,9.797 -6.529,35.238 -52.856,-9.798 6.531,-35.237 z"
   inkscape:connector-curvature="0"
   style="fill:none;stroke:#000000;stroke-width:3" />
			<path
   id="path8813_5_"
   d="m 698.91,468.434 c 0,5.068 -4.113,9.181 -9.18,9.181 -0.906,0 -1.793,-0.129 -2.619,-0.373 -0.041,-0.015 -0.084,-0.015 -0.125,-0.025 l -18.383,-3.418 -0.675,3.668 -3.417,-0.625 4.614,-25.541 3.519,0.773 -0.699,3.791 c 6.458,1.061 12.34,2.28 18.508,3.44 4.723,0.377 8.457,4.312 8.457,9.129 z"
   inkscape:connector-curvature="0"
   style="fill:none;stroke:#000000;stroke-width:3" />
			
				<path
   id="path8815_5_"
   inkscape:connector-curvature="0"
   sodipodi:nodetypes="cc"
   d="m 602.537,465.014 62.885,6.101"
   style="fill:none;stroke:#000000;stroke-width:3" />
			
				<path
   id="path8817_5_"
   inkscape:connector-curvature="0"
   sodipodi:nodetypes="ccc"
   d="m 668.281,456.365 -60.925,-17.353 0,0"
   style="fill:none;stroke:#000000;stroke-width:3" />
			
				<path
   id="path8819_5_"
   inkscape:connector-curvature="0"
   sodipodi:nodetypes="cc"
   d="m 605.971,447.848 61.45,13.156"
   style="fill:none;stroke:#000000;stroke-width:3" />
			
				<path
   id="path8821_5_"
   inkscape:connector-curvature="0"
   sodipodi:nodetypes="ccc"
   d="m 604.221,456.613 62.084,9.739 0,0"
   style="fill:none;stroke:#000000;stroke-width:3" />
			<path
   id="rect8823_5_"
   d="m 601.551,469.996 -52.854,-9.797 -6.531,35.238 52.855,9.795 6.53,-35.236 z"
   inkscape:connector-curvature="0"
   style="fill:none;stroke:#000000;stroke-width:3" />
			<path
   id="path8825_5_"
   d="m 485.931,453.471 -4.864,25.492 -3.417,-0.647 0.698,-3.642 -19.058,-3.268 c 0,0 -0.099,-0.099 -0.148,-0.15 -4.354,-0.717 -7.684,-4.473 -7.684,-9.029 0,-5.065 4.112,-9.18 9.181,-9.18 0.225,0 0.451,0.01 0.673,0.025 0.017,0.002 0.033,-0.002 0.05,0 0.176,-0.041 0.273,-0.074 0.273,-0.074 6.729,1.246 13.099,2.283 20.03,3.717 l 0.697,-3.793 3.569,0.549 z"
   inkscape:connector-curvature="0"
   style="fill:none;stroke:#000000;stroke-width:3" />
			
				<path
   id="path8827_5_"
   inkscape:connector-curvature="0"
   sodipodi:nodetypes="cc"
   d="m 543.053,490.635 -60.894,-16.84"
   style="fill:none;stroke:#000000;stroke-width:3" />
			
				<path
   id="path8829_5_"
   inkscape:connector-curvature="0"
   sodipodi:nodetypes="ccc"
   d="m 484.776,459 63.098,5.635 0,0"
   style="fill:none;stroke:#000000;stroke-width:3" />
			
				<path
   id="path8831_5_"
   inkscape:connector-curvature="0"
   sodipodi:nodetypes="cc"
   d="m 546,473.379 -62.084,-9.74"
   style="fill:none;stroke:#000000;stroke-width:3" />
			
				<path
   id="path8833_5_"
   inkscape:connector-curvature="0"
   sodipodi:nodetypes="ccc"
   d="m 544.492,482.189 -61.45,-13.156 0,0"
   style="fill:none;stroke:#000000;stroke-width:3" />
		</g>
	</g>
	<g
   id="g4324">
		<path
   id="rect8807_32_"
   d="M 393.081,557.947"
   inkscape:connector-curvature="0"
   style="fill:none;stroke:#ff0000;stroke-width:3" />
		<path
   id="rect8807_2_"
   d="M 764.666,557.947"
   inkscape:connector-curvature="0"
   style="fill:none;stroke:#ff0000;stroke-width:3" />
		<path
   id="rect8807_4_"
   d="M 393.081,557.947"
   inkscape:connector-curvature="0"
   style="fill:none;stroke:#ff0000;stroke-width:3" />
	</g>
</g>
</svg>