<?xml version="1.0" encoding="UTF-8" standalone="no"?>
<!-- Generator: Adobe Illustrator 13.0.0, SVG Export Plug-In . SVG Version: 6.00 Build 14948)  -->

<svg
   xmlns:dc="http://purl.org/dc/elements/1.1/"
   xmlns:cc="http://creativecommons.org/ns#"
   xmlns:rdf="http://www.w3.org/1999/02/22-rdf-syntax-ns#"
   xmlns:svg="http://www.w3.org/2000/svg"
   xmlns="http://www.w3.org/2000/svg"
   xmlns:sodipodi="http://sodipodi.sourceforge.net/DTD/sodipodi-0.dtd"
   xmlns:inkscape="http://www.inkscape.org/namespaces/inkscape"
   version="1.0"
   id="svg2"
   inkscape:output_extension="org.inkscape.output.svg.inkscape"
   sodipodi:version="0.32"
   sodipodi:docname="LED_2x3_merged_outline.svg"
   inkscape:version="0.48.3.1 r9886"
   x="0px"
   y="0px"
   width="796.5072"
   height="574.80725"
   viewBox="0 0 796.50721 574.80725"
   enable-background="new 0 0 782.469 748.518"
   xml:space="preserve"><metadata
   id="metadata4329"><rdf:RDF><cc:Work
       rdf:about=""><dc:format>image/svg+xml</dc:format><dc:type
         rdf:resource="http://purl.org/dc/dcmitype/StillImage" /><dc:title></dc:title></cc:Work></rdf:RDF></metadata>
<defs
   id="defs4186">
	
	
		<inkscape:perspective
   id="perspective35"
   inkscape:vp_z="567.81738 : 410.56467 : 1"
   inkscape:vp_y="0 : 1000 : 0"
   inkscape:persp3d-origin="283.90869 : 273.70978 : 1"
   sodipodi:type="inkscape:persp3d"
   inkscape:vp_x="0 : 410.56467 : 1">
		</inkscape:perspective>
	<inkscape:path-effect
   effect="spiro"
   id="path-effect3941"
   is_visible="true" />
	<inkscape:path-effect
   effect="spiro"
   id="path-effect3941-2"
   is_visible="true" />
	<inkscape:path-effect
   effect="spiro"
   id="path-effect3941-1"
   is_visible="true" />
	<inkscape:path-effect
   effect="spiro"
   id="path-effect3941-2-1"
   is_visible="true" />
	<inkscape:path-effect
   effect="spiro"
   id="path-effect3941-1-7"
   is_visible="true" />
	<inkscape:path-effect
   effect="spiro"
   id="path-effect3941-2-1-2"
   is_visible="true" />
	<inkscape:path-effect
   effect="spiro"
   id="path-effect23631"
   is_visible="true" />
	<inkscape:path-effect
   effect="spiro"
   id="path-effect23629"
   is_visible="true" />
	
		<inkscape:perspective
   id="perspective37"
   inkscape:vp_z="744.09448 : 526.18109 : 1"
   inkscape:vp_y="0 : 1000 : 0"
   inkscape:persp3d-origin="372.04724 : 350.78739 : 1"
   sodipodi:type="inkscape:persp3d"
   inkscape:vp_x="0 : 526.18109 : 1">
		</inkscape:perspective>

	
	
	
	

		
		
	
	
	
	
	


	

			
			
			
				
			
				
			
				
			
				
			
			
			
				
			
				
			
				
			
				
		
		
		
		
		
		
	
		
		
		
	
		
		
		
	
		
		
		
		
	
		
		
		
		
		
		
		
		
		
	
		
		
		
		
		
		
	
		
		
		
	
			
			
			
				
			
				
			
				
			
				
			
			
			
				
			
				
			
				
			
				
		
			
			
			
				
			
				
			
				
			
				
			
			
			
				
			
				
			
				
			
				
		
			
			
			
				
			
				
			
				
			
				
			
			
			
				
			
				
			
				
			
				
		
			
			
			
				
			
				
			
				
			
				
			
			
			
				
			
				
			
				
			
				
		
			
			
			
				
			
				
			
				
			
				
			
			
			
				
			
				
			
				
			
				
		</defs>
<sodipodi:namedview
   units="cm"
   id="namedview4"
   inkscape:window-maximized="1"
   borderopacity="1"
   pagecolor="#ffffff"
   bordercolor="#666666"
   objecttolerance="10"
   guidetolerance="10"
   inkscape:pageopacity="0"
   inkscape:pageshadow="2"
   inkscape:zoom="0.70710678"
   fit-margin-bottom="0.2"
   fit-margin-right="0.2"
   fit-margin-top="0.2"
   fit-margin-left="0.2"
   inkscape:current-layer="svg2"
   inkscape:window-y="24"
   inkscape:window-x="0"
   inkscape:cy="306.90738"
   inkscape:cx="570.40971"
   gridtolerance="10"
   showgrid="false"
   inkscape:window-width="1920"
   inkscape:window-height="1000">
	</sodipodi:namedview>


<path
   style="fill:none;stroke:#000000;stroke-width:3"
   inkscape:connector-curvature="0"
   d="m 183.49728,61.299609 52.856,9.796 -6.53,35.238001 -52.856,-9.796001 6.53,-35.238 z"
   id="rect8811" /><path
   style="fill:none;stroke:#000000;stroke-width:3"
   inkscape:connector-curvature="0"
   d="m 327.08528,104.95161 c 0,5.067 -4.112,9.179 -9.18,9.179 -0.90499,0 -1.79199,-0.129 -2.619,-0.374 -0.04,-0.012 -0.083,-0.012 -0.124,-0.025 l -18.383,-3.417 -0.674,3.667 -3.417,-0.624 4.61501,-25.542001 3.51699,0.773 -0.69799,3.792 c 6.458,1.061 12.33999,2.281 18.508,3.442 4.72,0.376 8.45499,4.311001 8.45499,9.129001 z"
   id="path8813" /><path
   style="fill:none;stroke:#000000;stroke-width:3"
   d="m 230.71228,101.53161 62.885,6.1"
   sodipodi:nodetypes="cc"
   inkscape:connector-curvature="0"
   id="path8815" /><path
   style="fill:none;stroke:#000000;stroke-width:3"
   d="m 296.45729,92.883609 -60.92501,-17.353 0,0"
   sodipodi:nodetypes="ccc"
   inkscape:connector-curvature="0"
   id="path8817" /><path
   style="fill:none;stroke:#000000;stroke-width:3"
   d="m 234.14728,84.365609 61.451,13.157"
   sodipodi:nodetypes="cc"
   inkscape:connector-curvature="0"
   id="path8819" /><path
   style="fill:none;stroke:#000000;stroke-width:3"
   d="m 232.39528,93.131609 62.084,9.739001 0,0"
   sodipodi:nodetypes="ccc"
   inkscape:connector-curvature="0"
   id="path8821" /><path
   style="fill:none;stroke:#000000;stroke-width:3"
   inkscape:connector-curvature="0"
   d="m 229.72629,106.51361 -52.856,-9.796001 -6.531,35.237001 52.85599,9.796 6.53101,-35.237 z"
   id="rect8823" /><path
   style="fill:none;stroke:#000000;stroke-width:3"
   inkscape:connector-curvature="0"
   d="m 114.10629,89.988609 -4.86401,25.492001 -3.417,-0.648 0.699,-3.642 -19.056995,-3.268 c 0,0 -0.099,-0.097 -0.149,-0.149 -4.354,-0.717 -7.683,-4.474 -7.683,-9.029001 0,-5.067 4.112,-9.179 9.179,-9.179 0.225,0 0.453,0.009 0.673,0.025 0.017,0.001 0.034,-0.001 0.05,0 0.176,-0.041 0.274,-0.075 0.274,-0.075 6.729,1.248 13.097995,2.285 20.029995,3.717 l 0.698,-3.792 3.567,0.548 z"
   id="path8825" /><path
   style="fill:none;stroke:#000000;stroke-width:3"
   d="m 171.22928,127.15261 -60.89399,-16.841"
   sodipodi:nodetypes="cc"
   inkscape:connector-curvature="0"
   id="path8827" /><path
   style="fill:none;stroke:#000000;stroke-width:3"
   d="m 112.95129,95.518609 63.097,5.634001 0,0"
   sodipodi:nodetypes="ccc"
   inkscape:connector-curvature="0"
   id="path8829" /><path
   style="fill:none;stroke:#000000;stroke-width:3"
   d="m 174.17528,109.89661 -62.08399,-9.739"
   sodipodi:nodetypes="cc"
   inkscape:connector-curvature="0"
   id="path8831" /><path
   style="fill:none;stroke:#000000;stroke-width:3"
   d="m 172.66829,118.70761 -61.451,-13.157 0,0"
   sodipodi:nodetypes="ccc"
   inkscape:connector-curvature="0"
   id="path8833" /><path
   style="fill:none;stroke:#000000;stroke-width:3"
   inkscape:connector-curvature="0"
   d="m 183.49728,247.17761 52.856,9.796 -6.53,35.237 -52.856,-9.796 6.53,-35.237 z"
   id="rect8811_1_" /><path
   style="fill:none;stroke:#000000;stroke-width:3"
   inkscape:connector-curvature="0"
   d="m 327.08528,290.82961 c 0,5.067 -4.113,9.179 -9.18,9.179 -0.906,0 -1.793,-0.129 -2.619,-0.374 -0.041,-0.012 -0.084,-0.012 -0.125,-0.025 l -18.383,-3.417 -0.674,3.667 -3.41699,-0.624 4.61399,-25.542 3.518,0.773 -0.699,3.792 c 6.458,1.061 12.34,2.281 18.508,3.442 4.722,0.376 8.457,4.311 8.457,9.129 z"
   id="path8813_1_" /><path
   style="fill:none;stroke:#000000;stroke-width:3"
   d="m 230.71228,287.40961 62.885,6.1"
   sodipodi:nodetypes="cc"
   inkscape:connector-curvature="0"
   id="path8815_1_" /><path
   style="fill:none;stroke:#000000;stroke-width:3"
   d="m 296.45628,278.76161 -60.925,-17.354 0,0"
   sodipodi:nodetypes="ccc"
   inkscape:connector-curvature="0"
   id="path8817_1_" /><path
   style="fill:none;stroke:#000000;stroke-width:3"
   d="m 234.14728,270.24361 61.45,13.157"
   sodipodi:nodetypes="cc"
   inkscape:connector-curvature="0"
   id="path8819_1_" /><path
   style="fill:none;stroke:#000000;stroke-width:3"
   d="m 232.39628,279.00961 62.084,9.739 0,0"
   sodipodi:nodetypes="ccc"
   inkscape:connector-curvature="0"
   id="path8821_1_" /><path
   style="fill:none;stroke:#000000;stroke-width:3"
   inkscape:connector-curvature="0"
   d="m 229.72629,292.39161 -52.856,-9.796 -6.531,35.237 52.85499,9.796 6.53201,-35.237 z"
   id="rect8823_1_" /><path
   style="fill:none;stroke:#000000;stroke-width:3"
   inkscape:connector-curvature="0"
   d="m 114.10629,275.86661 -4.86401,25.492 -3.417,-0.648 0.699,-3.642 -19.056995,-3.268 c 0,0 -0.099,-0.097 -0.149,-0.149 -4.354,-0.717 -7.683,-4.474 -7.683,-9.029 0,-5.067 4.112,-9.179 9.179,-9.179 0.225,0 0.453,0.009 0.673,0.025 0.017,10e-4 0.034,-0.001 0.05,0 0.176,-0.041 0.274,-0.075 0.274,-0.075 6.729,1.248 13.097995,2.285 20.029995,3.717 l 0.698,-3.792 3.567,0.548 z"
   id="path8825_1_" /><path
   style="fill:none;stroke:#000000;stroke-width:3"
   d="m 171.22928,313.03061 -60.89399,-16.841"
   sodipodi:nodetypes="cc"
   inkscape:connector-curvature="0"
   id="path8827_1_" /><path
   style="fill:none;stroke:#000000;stroke-width:3"
   d="m 112.95129,281.39661 63.097,5.634 0,0"
   sodipodi:nodetypes="ccc"
   inkscape:connector-curvature="0"
   id="path8829_1_" /><path
   style="fill:none;stroke:#000000;stroke-width:3"
   d="m 174.17528,295.77361 -62.08399,-9.739"
   sodipodi:nodetypes="cc"
   inkscape:connector-curvature="0"
   id="path8831_1_" /><path
   style="fill:none;stroke:#000000;stroke-width:3"
   d="m 172.66829,304.58561 -61.451,-13.157 0,0"
   sodipodi:nodetypes="ccc"
   inkscape:connector-curvature="0"
   id="path8833_1_" /><path
   style="fill:none;stroke:#000000;stroke-width:3"
   inkscape:connector-curvature="0"
   d="m 183.49728,433.05461 52.856,9.797 -6.53,35.237 -52.856,-9.797 6.53,-35.237 z"
   id="rect8811_3_" /><path
   style="fill:none;stroke:#000000;stroke-width:3"
   inkscape:connector-curvature="0"
   d="m 327.08528,476.70761 c 0,5.067 -4.113,9.181 -9.18,9.181 -0.906,0 -1.793,-0.129 -2.619,-0.374 -0.041,-0.014 -0.084,-0.014 -0.125,-0.024 l -18.383,-3.418 -0.674,3.667 -3.41699,-0.624 4.61399,-25.542 3.518,0.773 -0.699,3.792 c 6.458,1.061 12.34,2.279 18.508,3.44 4.722,0.377 8.457,4.311 8.457,9.129 z"
   id="path8813_3_" /><path
   style="fill:none;stroke:#000000;stroke-width:3"
   d="m 230.71228,473.28761 62.885,6.101"
   sodipodi:nodetypes="cc"
   inkscape:connector-curvature="0"
   id="path8815_3_" /><path
   style="fill:none;stroke:#000000;stroke-width:3"
   d="m 296.45628,464.63861 -60.925,-17.353 0,0"
   sodipodi:nodetypes="ccc"
   inkscape:connector-curvature="0"
   id="path8817_3_" /><path
   style="fill:none;stroke:#000000;stroke-width:3"
   d="m 234.14728,456.12161 61.45,13.156"
   sodipodi:nodetypes="cc"
   inkscape:connector-curvature="0"
   id="path8819_3_" /><path
   style="fill:none;stroke:#000000;stroke-width:3"
   d="m 232.39628,464.88661 62.084,9.739 0,0"
   sodipodi:nodetypes="ccc"
   inkscape:connector-curvature="0"
   id="path8821_3_" /><path
   style="fill:none;stroke:#000000;stroke-width:3"
   inkscape:connector-curvature="0"
   d="m 229.72629,478.26961 -52.856,-9.797 -6.531,35.236 52.85499,9.797 6.53201,-35.236 z"
   id="rect8823_3_" /><path
   style="fill:none;stroke:#000000;stroke-width:3"
   inkscape:connector-curvature="0"
   d="m 114.10629,461.74461 -4.86401,25.492 -3.417,-0.647 0.699,-3.643 -19.056995,-3.268 c 0,0 -0.099,-0.098 -0.149,-0.149 -4.354,-0.717 -7.683,-4.474 -7.683,-9.029 0,-5.065 4.112,-9.18 9.179,-9.18 0.225,0 0.453,0.01 0.673,0.025 0.017,10e-4 0.034,-0.002 0.05,0 0.176,-0.041 0.274,-0.075 0.274,-0.075 6.729,1.247 13.097995,2.284 20.029995,3.717 l 0.698,-3.792 3.567,0.549 z"
   id="path8825_3_" /><path
   style="fill:none;stroke:#000000;stroke-width:3"
   d="m 171.22928,498.90861 -60.89399,-16.841"
   sodipodi:nodetypes="cc"
   inkscape:connector-curvature="0"
   id="path8827_3_" /><path
   style="fill:none;stroke:#000000;stroke-width:3"
   d="m 112.95129,467.27361 63.097,5.635 0,0"
   sodipodi:nodetypes="ccc"
   inkscape:connector-curvature="0"
   id="path8829_3_" /><path
   style="fill:none;stroke:#000000;stroke-width:3"
   d="m 174.17528,481.65261 -62.084,-9.74"
   sodipodi:nodetypes="cc"
   inkscape:connector-curvature="0"
   id="path8831_3_" /><path
   style="fill:none;stroke:#000000;stroke-width:3"
   d="m 172.66829,490.46261 -61.451,-13.156 0,0"
   sodipodi:nodetypes="ccc"
   inkscape:connector-curvature="0"
   id="path8833_3_" />
<path
   style="fill:none;stroke:#000000;stroke-width:3"
   inkscape:connector-curvature="0"
   d="m 573.28629,61.299609 52.854,9.796 -6.529,35.237001 -52.856,-9.796001 6.531,-35.237 z"
   id="rect8811_7_" /><path
   style="fill:none;stroke:#000000;stroke-width:3"
   inkscape:connector-curvature="0"
   d="m 716.87328,104.95161 c 0,5.067 -4.113,9.179 -9.17999,9.179 -0.906,0 -1.793,-0.129 -2.619,-0.374 -0.041,-0.012 -0.084,-0.012 -0.125,-0.025 l -18.38301,-3.417 -0.67499,3.667 -3.41701,-0.624 4.61401,-25.542001 3.519,0.773 -0.699,3.792 c 6.458,1.061 12.34,2.281 18.508,3.442 4.723,0.376 8.457,4.311001 8.457,9.129001 z"
   id="path8813_7_" /><path
   style="fill:none;stroke:#000000;stroke-width:3"
   d="m 620.50029,101.53161 62.885,6.1"
   sodipodi:nodetypes="cc"
   inkscape:connector-curvature="0"
   id="path8815_7_" /><path
   style="fill:none;stroke:#000000;stroke-width:3"
   d="m 686.24428,92.883609 -60.92499,-17.353 0,0"
   sodipodi:nodetypes="ccc"
   inkscape:connector-curvature="0"
   id="path8817_7_" /><path
   style="fill:none;stroke:#000000;stroke-width:3"
   d="m 623.93429,84.365609 61.45,13.157"
   sodipodi:nodetypes="cc"
   inkscape:connector-curvature="0"
   id="path8819_7_" /><path
   style="fill:none;stroke:#000000;stroke-width:3"
   d="m 622.18429,93.131609 62.084,9.739001 0,0"
   sodipodi:nodetypes="ccc"
   inkscape:connector-curvature="0"
   id="path8821_7_" /><path
   style="fill:none;stroke:#000000;stroke-width:3"
   inkscape:connector-curvature="0"
   d="m 619.51429,106.51361 -52.854,-9.796001 -6.531,35.237001 52.855,9.796 6.53,-35.237 z"
   id="rect8823_7_" /><path
   style="fill:none;stroke:#000000;stroke-width:3"
   inkscape:connector-curvature="0"
   d="m 503.89428,89.988609 -4.864,25.492001 -3.41699,-0.648 0.69799,-3.642 -19.058,-3.268 c 0,0 -0.099,-0.097 -0.148,-0.149 -4.354,-0.717 -7.684,-4.474 -7.684,-9.029001 0,-5.067 4.112,-9.179 9.181,-9.179 0.225,0 0.451,0.009 0.673,0.025 0.017,0.001 0.033,-0.001 0.05,0 0.176,-0.041 0.273,-0.075 0.273,-0.075 6.729,1.248 13.099,2.285 20.03,3.717 l 0.697,-3.792 3.569,0.548 z"
   id="path8825_7_" /><path
   style="fill:none;stroke:#000000;stroke-width:3"
   d="m 561.01629,127.15261 -60.89401,-16.841"
   sodipodi:nodetypes="cc"
   inkscape:connector-curvature="0"
   id="path8827_7_" /><path
   style="fill:none;stroke:#000000;stroke-width:3"
   d="m 502.73928,95.518609 63.09801,5.634001 0,0"
   sodipodi:nodetypes="ccc"
   inkscape:connector-curvature="0"
   id="path8829_7_" /><path
   style="fill:none;stroke:#000000;stroke-width:3"
   d="m 563.96329,109.89661 -62.08401,-9.739"
   sodipodi:nodetypes="cc"
   inkscape:connector-curvature="0"
   id="path8831_7_" /><path
   style="fill:none;stroke:#000000;stroke-width:3"
   d="m 562.45528,118.70761 -61.45,-13.157 0,0"
   sodipodi:nodetypes="ccc"
   inkscape:connector-curvature="0"
   id="path8833_7_" /><path
   style="fill:none;stroke:#000000;stroke-width:3"
   inkscape:connector-curvature="0"
   d="m 573.28629,247.17761 52.854,9.796 -6.529,35.237 -52.856,-9.796 6.531,-35.237 z"
   id="rect8811_6_" /><path
   style="fill:none;stroke:#000000;stroke-width:3"
   inkscape:connector-curvature="0"
   d="m 716.87328,290.82961 c 0,5.067 -4.113,9.179 -9.17999,9.179 -0.906,0 -1.793,-0.129 -2.619,-0.374 -0.041,-0.012 -0.084,-0.012 -0.125,-0.025 l -18.38301,-3.417 -0.67499,3.667 -3.41701,-0.624 4.61401,-25.542 3.519,0.773 -0.699,3.792 c 6.458,1.061 12.34,2.281 18.508,3.442 4.723,0.376 8.457,4.311 8.457,9.129 z"
   id="path8813_6_" /><path
   style="fill:none;stroke:#000000;stroke-width:3"
   d="m 620.50029,287.40961 62.885,6.1"
   sodipodi:nodetypes="cc"
   inkscape:connector-curvature="0"
   id="path8815_6_" /><path
   style="fill:none;stroke:#000000;stroke-width:3"
   d="m 686.24428,278.76161 -60.92499,-17.354 0,0"
   sodipodi:nodetypes="ccc"
   inkscape:connector-curvature="0"
   id="path8817_6_" /><path
   style="fill:none;stroke:#000000;stroke-width:3"
   d="m 623.93429,270.24361 61.45,13.157"
   sodipodi:nodetypes="cc"
   inkscape:connector-curvature="0"
   id="path8819_6_" /><path
   style="fill:none;stroke:#000000;stroke-width:3"
   d="m 622.18429,279.00961 62.084,9.739 0,0"
   sodipodi:nodetypes="ccc"
   inkscape:connector-curvature="0"
   id="path8821_6_" /><path
   style="fill:none;stroke:#000000;stroke-width:3"
   inkscape:connector-curvature="0"
   d="m 619.51429,292.39161 -52.854,-9.796 -6.531,35.237 52.855,9.796 6.53,-35.237 z"
   id="rect8823_6_" /><path
   style="fill:none;stroke:#000000;stroke-width:3"
   inkscape:connector-curvature="0"
   d="m 503.89428,275.86661 -4.864,25.492 -3.41699,-0.648 0.69799,-3.642 -19.058,-3.268 c 0,0 -0.099,-0.097 -0.148,-0.149 -4.354,-0.717 -7.684,-4.474 -7.684,-9.029 0,-5.067 4.112,-9.179 9.181,-9.179 0.225,0 0.451,0.009 0.673,0.025 0.017,10e-4 0.033,-0.001 0.05,0 0.176,-0.041 0.273,-0.075 0.273,-0.075 6.729,1.248 13.099,2.285 20.03,3.717 l 0.697,-3.792 3.569,0.548 z"
   id="path8825_6_" /><path
   style="fill:none;stroke:#000000;stroke-width:3"
   d="m 561.01629,313.03061 -60.89401,-16.841"
   sodipodi:nodetypes="cc"
   inkscape:connector-curvature="0"
   id="path8827_6_" /><path
   style="fill:none;stroke:#000000;stroke-width:3"
   d="m 502.73928,281.39661 63.09801,5.634 0,0"
   sodipodi:nodetypes="ccc"
   inkscape:connector-curvature="0"
   id="path8829_6_" /><path
   style="fill:none;stroke:#000000;stroke-width:3"
   d="m 563.96329,295.77361 -62.08401,-9.739"
   sodipodi:nodetypes="cc"
   inkscape:connector-curvature="0"
   id="path8831_6_" /><path
   style="fill:none;stroke:#000000;stroke-width:3"
   d="m 562.45528,304.58561 -61.45,-13.157 0,0"
   sodipodi:nodetypes="ccc"
   inkscape:connector-curvature="0"
   id="path8833_6_" /><path
   style="fill:none;stroke:#000000;stroke-width:3"
   inkscape:connector-curvature="0"
   d="m 573.28629,433.05461 52.854,9.797 -6.529,35.238 -52.856,-9.798 6.531,-35.237 z"
   id="rect8811_5_" /><path
   style="fill:none;stroke:#000000;stroke-width:3"
   inkscape:connector-curvature="0"
   d="m 716.87328,476.70761 c 0,5.068 -4.113,9.181 -9.17999,9.181 -0.906,0 -1.793,-0.129 -2.619,-0.373 -0.041,-0.015 -0.084,-0.015 -0.125,-0.025 l -18.38301,-3.418 -0.67499,3.668 -3.41701,-0.625 4.61401,-25.541 3.519,0.773 -0.699,3.791 c 6.458,1.061 12.34,2.28 18.508,3.44 4.723,0.377 8.457,4.312 8.457,9.129 z"
   id="path8813_5_" /><path
   style="fill:none;stroke:#000000;stroke-width:3"
   d="m 620.50029,473.28761 62.885,6.101"
   sodipodi:nodetypes="cc"
   inkscape:connector-curvature="0"
   id="path8815_5_" /><path
   style="fill:none;stroke:#000000;stroke-width:3"
   d="m 686.24428,464.63861 -60.92499,-17.353 0,0"
   sodipodi:nodetypes="ccc"
   inkscape:connector-curvature="0"
   id="path8817_5_" /><path
   style="fill:none;stroke:#000000;stroke-width:3"
   d="m 623.93429,456.12161 61.45,13.156"
   sodipodi:nodetypes="cc"
   inkscape:connector-curvature="0"
   id="path8819_5_" /><path
   style="fill:none;stroke:#000000;stroke-width:3"
   d="m 622.18429,464.88661 62.084,9.739 0,0"
   sodipodi:nodetypes="ccc"
   inkscape:connector-curvature="0"
   id="path8821_5_" /><path
   style="fill:none;stroke:#000000;stroke-width:3"
   inkscape:connector-curvature="0"
   d="m 619.51429,478.26961 -52.854,-9.797 -6.531,35.238 52.855,9.795 6.53,-35.236 z"
   id="rect8823_5_" /><path
   style="fill:none;stroke:#000000;stroke-width:3"
   inkscape:connector-curvature="0"
   d="m 503.89428,461.74461 -4.864,25.492 -3.41699,-0.647 0.69799,-3.642 -19.058,-3.268 c 0,0 -0.099,-0.099 -0.148,-0.15 -4.354,-0.717 -7.684,-4.473 -7.684,-9.029 0,-5.065 4.112,-9.18 9.181,-9.18 0.225,0 0.451,0.01 0.673,0.025 0.017,0.002 0.033,-0.002 0.05,0 0.176,-0.041 0.273,-0.074 0.273,-0.074 6.729,1.246 13.099,2.283 20.03,3.717 l 0.697,-3.793 3.569,0.549 z"
   id="path8825_5_" /><path
   style="fill:none;stroke:#000000;stroke-width:3"
   d="m 561.01629,498.90861 -60.89401,-16.84"
   sodipodi:nodetypes="cc"
   inkscape:connector-curvature="0"
   id="path8827_5_" /><path
   style="fill:none;stroke:#000000;stroke-width:3"
   d="m 502.73928,467.27361 63.09801,5.635 0,0"
   sodipodi:nodetypes="ccc"
   inkscape:connector-curvature="0"
   id="path8829_5_" /><path
   style="fill:none;stroke:#000000;stroke-width:3"
   d="m 563.96329,481.65261 -62.08401,-9.74"
   sodipodi:nodetypes="cc"
   inkscape:connector-curvature="0"
   id="path8831_5_" /><path
   style="fill:none;stroke:#000000;stroke-width:3"
   d="m 562.45528,490.46261 -61.45,-13.156 0,0"
   sodipodi:nodetypes="ccc"
   inkscape:connector-curvature="0"
   id="path8833_5_" />
</svg>