<?xml version="1.0" encoding="UTF-8" standalone="no"?>
<!-- Generator: Adobe Illustrator 13.0.0, SVG Export Plug-In . SVG Version: 6.00 Build 14948)  -->

<svg
   xmlns:dc="http://purl.org/dc/elements/1.1/"
   xmlns:cc="http://creativecommons.org/ns#"
   xmlns:rdf="http://www.w3.org/1999/02/22-rdf-syntax-ns#"
   xmlns:svg="http://www.w3.org/2000/svg"
   xmlns="http://www.w3.org/2000/svg"
   xmlns:sodipodi="http://sodipodi.sourceforge.net/DTD/sodipodi-0.dtd"
   xmlns:inkscape="http://www.inkscape.org/namespaces/inkscape"
   version="1.0"
   id="svg2"
   inkscape:output_extension="org.inkscape.output.svg.inkscape"
   sodipodi:version="0.32"
   sodipodi:docname="LED_2x3_merged.svg"
   inkscape:version="0.48.3.1 r9886"
   x="0px"
   y="0px"
   width="796.5072"
   height="574.80725"
   viewBox="0 0 796.50721 574.80725"
   enable-background="new 0 0 782.469 748.518"
   xml:space="preserve"><metadata
   id="metadata4329"><rdf:RDF><cc:Work
       rdf:about=""><dc:format>image/svg+xml</dc:format><dc:type
         rdf:resource="http://purl.org/dc/dcmitype/StillImage" /><dc:title></dc:title></cc:Work></rdf:RDF></metadata>
<defs
   id="defs4186">
	
	
		<inkscape:perspective
   id="perspective35"
   inkscape:vp_z="567.81738 : 410.56467 : 1"
   inkscape:vp_y="0 : 1000 : 0"
   inkscape:persp3d-origin="283.90869 : 273.70978 : 1"
   sodipodi:type="inkscape:persp3d"
   inkscape:vp_x="0 : 410.56467 : 1">
		</inkscape:perspective>
	<inkscape:path-effect
   effect="spiro"
   id="path-effect3941"
   is_visible="true" />
	<inkscape:path-effect
   effect="spiro"
   id="path-effect3941-2"
   is_visible="true" />
	<inkscape:path-effect
   effect="spiro"
   id="path-effect3941-1"
   is_visible="true" />
	<inkscape:path-effect
   effect="spiro"
   id="path-effect3941-2-1"
   is_visible="true" />
	<inkscape:path-effect
   effect="spiro"
   id="path-effect3941-1-7"
   is_visible="true" />
	<inkscape:path-effect
   effect="spiro"
   id="path-effect3941-2-1-2"
   is_visible="true" />
	<inkscape:path-effect
   effect="spiro"
   id="path-effect23631"
   is_visible="true" />
	<inkscape:path-effect
   effect="spiro"
   id="path-effect23629"
   is_visible="true" />
	
		<inkscape:perspective
   id="perspective37"
   inkscape:vp_z="744.09448 : 526.18109 : 1"
   inkscape:vp_y="0 : 1000 : 0"
   inkscape:persp3d-origin="372.04724 : 350.78739 : 1"
   sodipodi:type="inkscape:persp3d"
   inkscape:vp_x="0 : 526.18109 : 1">
		</inkscape:perspective>

	
	
	
	

		
		
	
	
	
	
	

		
		
		
		
	
		
		
		
		
		
		
		
		
		
	
		
		
		
		
		
		
	
		
		
		
	
		
		
		
		
		
	</defs>
<sodipodi:namedview
   units="cm"
   id="namedview4"
   inkscape:window-maximized="1"
   borderopacity="1"
   pagecolor="#ffffff"
   bordercolor="#666666"
   objecttolerance="10"
   guidetolerance="10"
   inkscape:pageopacity="0"
   inkscape:pageshadow="2"
   inkscape:zoom="0.70710678"
   fit-margin-bottom="0.2"
   fit-margin-right="0.2"
   fit-margin-top="0.2"
   fit-margin-left="0.2"
   inkscape:current-layer="svg2"
   inkscape:window-y="24"
   inkscape:window-x="0"
   inkscape:cy="306.90738"
   inkscape:cx="570.40971"
   gridtolerance="10"
   showgrid="false"
   inkscape:window-width="1920"
   inkscape:window-height="1000">
	</sodipodi:namedview>
<g
   id="g3970"
   transform="translate(14.274614,8.2736087)">
</g>
<g
   id="Default"
   transform="matrix(0.02757182,0,0,-0.02757182,-198.97839,584.26895)">
	<desc
   id="desc32263">Master slide</desc>
</g>
<path
   id="rect8807_7_"
   d="m 389.15261,194.46361 c 4.975,0 8.979,-4.005 8.979,-8.979 V 17.565609 c 0,-4.975 -4.006,-8.9790003 -8.979,-8.9790003 H 17.566614 c -4.975,0 -8.98,4.0050003 -8.98,8.9790003 V 185.48461 c 0,4.975 4.005,8.979 8.98,8.979"
   inkscape:connector-curvature="0"
   style="fill:none;stroke:#ff0000;stroke-width:3" /><path
   id="rect8807_9_"
   d="m 398.13261,203.44361 c 0,-4.975 -4.007,-8.979 -8.98,-8.979"
   inkscape:connector-curvature="0"
   style="fill:none;stroke:#ff0000;stroke-width:3" /><path
   id="rect8807_28_"
   d="m 389.15161,380.34161 c 4.975,0 8.98,-4.005 8.98,-8.979 v -167.919"
   inkscape:connector-curvature="0"
   style="fill:none;stroke:#ff0000;stroke-width:3" /><path
   id="rect8807_15_"
   d="m 17.566614,194.46361 c -4.975,0 -8.98,4.005 -8.98,8.979 v 167.919 c 0,4.975 4.005,8.979 8.98,8.979"
   inkscape:connector-curvature="0"
   style="fill:none;stroke:#ff0000;stroke-width:3" /><path
   id="rect8807_1_"
   d="M 389.15161,194.46361 H 17.566614"
   inkscape:connector-curvature="0"
   style="fill:none;stroke:#ff0000;stroke-width:3" /><path
   id="rect8807_18_"
   d="m 17.566614,380.34161 c -4.975,0 -8.98,4.005 -8.98,8.979 v 167.919 c 0,4.976 4.005,8.979 8.98,8.979 H 389.15161 c 4.975,0 8.98,-4.005 8.98,-8.979 v -167.918 c 0,-4.975 -4.007,-8.979 -8.98,-8.979"
   inkscape:connector-curvature="0"
   style="fill:none;stroke:#ff0000;stroke-width:3" /><path
   id="rect8807_3_"
   d="M 389.15161,380.34161 H 17.566614"
   inkscape:connector-curvature="0"
   style="fill:none;stroke:#ff0000;stroke-width:3" /><g
   id="g4256"
   transform="translate(14.274614,8.2736087)">
		<path
   style="fill:none;stroke:#ff0000;stroke-width:3"
   inkscape:connector-curvature="0"
   d="M 374.878,557.947"
   id="rect8807_16_" />
		<path
   style="fill:none;stroke:#ff0000;stroke-width:3"
   inkscape:connector-curvature="0"
   d="M 3.292,557.946"
   id="rect8807_31_" />
		<path
   style="fill:none;stroke:#ff0000;stroke-width:3"
   inkscape:connector-curvature="0"
   d="M 374.877,557.946"
   id="rect8807_5_" />
	</g>
<path
   id="rect8807_8_"
   d="m 398.37561,185.48461 c 0,4.975 4.005,8.979 8.979,8.979 h 371.585 c 4.975,0 8.979,-4.005 8.979,-8.979 V 17.565609 c 0,-4.975 -4.006,-8.9790003 -8.979,-8.9790003 h -371.584 c -4.976,0 -8.979,4.0050003 -8.979,8.9790003"
   inkscape:connector-curvature="0"
   style="fill:none;stroke:#ff0000;stroke-width:3" /><path
   id="rect8807_24_"
   d="M 398.37561,185.48461"
   inkscape:connector-curvature="0"
   style="fill:none;stroke:#ff0000;stroke-width:3" /><path
   id="rect8807_23_"
   d="M 398.37561,17.565609"
   inkscape:connector-curvature="0"
   style="fill:none;stroke:#ff0000;stroke-width:3" /><path
   id="rect8807_14_"
   d="m 408.67961,194.46361 h -1.324"
   inkscape:connector-curvature="0"
   style="fill:none;stroke:#ff0000;stroke-width:3" /><path
   id="rect8807_26_"
   d="M 408.67961,194.46361"
   inkscape:connector-curvature="0"
   style="fill:none;stroke:#ff0000;stroke-width:3" /><path
   id="rect8807_25_"
   d="M 778.94061,194.46361"
   inkscape:connector-curvature="0"
   style="fill:none;stroke:#ff0000;stroke-width:3" /><path
   id="rect8807_11_"
   d="m 407.35561,380.34161 h 371.585 c 4.975,0 8.98,-4.004 8.98,-8.979 v -167.919 c 0,-4.975 -4.007,-8.979 -8.98,-8.979"
   inkscape:connector-curvature="0"
   style="fill:none;stroke:#ff0000;stroke-width:3" /><path
   id="rect8807_10_"
   d="m 398.37561,371.36261 c 0,4.975 4.005,8.979 8.979,8.979"
   inkscape:connector-curvature="0"
   style="fill:none;stroke:#ff0000;stroke-width:3" /><path
   id="rect8807_27_"
   d="M 398.37561,371.36261"
   inkscape:connector-curvature="0"
   style="fill:none;stroke:#ff0000;stroke-width:3" /><path
   id="rect8807_20_"
   d="M 398.37561,203.44361"
   inkscape:connector-curvature="0"
   style="fill:none;stroke:#ff0000;stroke-width:3" /><path
   id="rect8807_6_"
   d="m 407.35561,194.46361 c -4.976,0 -8.979,4.005 -8.979,8.979"
   inkscape:connector-curvature="0"
   style="fill:none;stroke:#ff0000;stroke-width:3" /><path
   id="rect8807_29_"
   d="m 407.35561,380.34161 c -4.976,0 -8.979,4.006 -8.979,8.98"
   inkscape:connector-curvature="0"
   style="fill:none;stroke:#ff0000;stroke-width:3" /><path
   id="rect8807_19_"
   d="M 778.94061,380.34161"
   inkscape:connector-curvature="0"
   style="fill:none;stroke:#ff0000;stroke-width:3" /><path
   id="rect8807_12_"
   d="m 398.37561,557.24061 c 0,4.976 4.005,8.98 8.979,8.98 h 371.585 c 4.975,0 8.979,-4.006 8.979,-8.98 v -167.918 c 0,-4.975 -4.006,-8.98 -8.979,-8.98"
   inkscape:connector-curvature="0"
   style="fill:none;stroke:#ff0000;stroke-width:3" /><path
   id="rect8807_30_"
   d="M 398.37561,557.24061"
   inkscape:connector-curvature="0"
   style="fill:none;stroke:#ff0000;stroke-width:3" /><path
   id="rect8807_21_"
   d="M 398.37561,389.32261"
   inkscape:connector-curvature="0"
   style="fill:none;stroke:#ff0000;stroke-width:3" /><g
   id="g4324"
   transform="translate(14.274614,8.2736087)">
		<path
   style="fill:none;stroke:#ff0000;stroke-width:3"
   inkscape:connector-curvature="0"
   d="M 393.081,557.947"
   id="rect8807_32_" />
		<path
   style="fill:none;stroke:#ff0000;stroke-width:3"
   inkscape:connector-curvature="0"
   d="M 764.666,557.947"
   id="rect8807_2_" />
		<path
   style="fill:none;stroke:#ff0000;stroke-width:3"
   inkscape:connector-curvature="0"
   d="M 393.081,557.947"
   id="rect8807_4_" />
	</g>
</svg>