<?xml version="1.0" encoding="UTF-8" standalone="no"?>
<!-- Created with Inkscape (http://www.inkscape.org/) -->

<svg
   xmlns:dc="http://purl.org/dc/elements/1.1/"
   xmlns:cc="http://creativecommons.org/ns#"
   xmlns:rdf="http://www.w3.org/1999/02/22-rdf-syntax-ns#"
   xmlns:svg="http://www.w3.org/2000/svg"
   xmlns="http://www.w3.org/2000/svg"
   xmlns:sodipodi="http://sodipodi.sourceforge.net/DTD/sodipodi-0.dtd"
   xmlns:inkscape="http://www.inkscape.org/namespaces/inkscape"
   id="svg3372"
   sodipodi:version="0.32"
   inkscape:version="0.48.3.1 r9886"
   width="390.53125"
   height="186.875"
   version="1.0"
   sodipodi:docname="quasiSpecial6-5.svg"
   inkscape:output_extension="org.inkscape.output.svg.inkscape">
  <metadata
     id="metadata3377">
    <rdf:RDF>
      <cc:Work
         rdf:about="">
        <dc:format>image/svg+xml</dc:format>
        <dc:type
           rdf:resource="http://purl.org/dc/dcmitype/StillImage" />
      </cc:Work>
    </rdf:RDF>
  </metadata>
  <defs
     id="defs3375">
    <inkscape:perspective
       sodipodi:type="inkscape:persp3d"
       inkscape:vp_x="0 : 526.18109 : 1"
       inkscape:vp_y="0 : 1000 : 0"
       inkscape:vp_z="744.09448 : 526.18109 : 1"
       inkscape:persp3d-origin="372.04724 : 350.78739 : 1"
       id="perspective3379" />
  </defs>
  <sodipodi:namedview
     inkscape:window-height="1000"
     inkscape:window-width="1920"
     inkscape:pageshadow="2"
     inkscape:pageopacity="0.0"
     guidetolerance="10.0"
     gridtolerance="10.0"
     objecttolerance="10.0"
     borderopacity="1.0"
     bordercolor="#666666"
     pagecolor="#ffffff"
     id="base"
     showgrid="false"
     inkscape:zoom="1.613467"
     inkscape:cx="35.699217"
     inkscape:cy="156.01807"
     inkscape:window-x="0"
     inkscape:window-y="24"
     inkscape:current-layer="svg3372"
     fit-margin-top="0"
     fit-margin-left="0"
     fit-margin-right="0"
     fit-margin-bottom="0"
     inkscape:window-maximized="1" />
  <path
     style="fill:none;stroke:#000000;stroke-opacity:1"
     d="m 11.125,0.5 c -1.285802,3.31207 -0.638972,8.48672 1.9375,10.125 2.37245,1.50853 5.598011,0.73315 7.625,-1.84375 C 23.16454,5.6322 23.207551,5.16046 21.25,1.375 21.09157,1.06863 20.888868,0.77656 20.6875,0.5 l -9.5625,0 z m 12.8125,0 c 1.62638,2.45233 2.8125,4.57516 2.8125,5.03125 0,1.50916 -5.005598,7.81996 -7.09375,8.9375 -1.15655,0.61897 -3.36109,0.61399 -6.09375,0 C 8.69252,13.37454 7.805541,14.08129 7.78125,19 7.77283,20.70558 6.625003,24.22647 5.25,26.8125 3.875,29.39851 2.750003,32.86083 2.75,34.5 c 0,1.53673 -0.990826,4.76803 -2.25,7.40625 l 0,6.875 1.5,0.75 c 5.44101,2.7585 5.731617,3.23268 5.75,10.0625 l 0,5.6875 -7,2.28125 C 0.660671,67.59127 0.588544,67.62736 0.5,67.65625 l 0,9.875 C 2.019315,78.78161 3.400188,79.77987 4.09375,80 6.84172,80.87217 7.732357,78.85083 7.75,71.71875 7.75842,68.31371 8.146232,65.2959 8.625,65 c 0.47877,-0.29589 3.483961,-1.23622 6.65625,-2.0625 5.1677,-1.34602 6.106633,-1.32532 9.03125,0.0625 2.95082,1.40025 3.75915,1.38591 8.53125,-0.03125 2.90343,-0.86223 6.47439,-1.5625 7.9375,-1.5625 2.2376,0 2.86599,-0.63225 3.875,-4 0.95214,-3.17796 1.96253,-4.34259 4.90625,-5.59375 7.99665,-3.39876 9.25338,-3.09269 14,3.125 4.97061,6.51108 6.2549,6.29039 8.625,-1.40625 1.66885,-5.41942 1.93798,-9.125 0.65625,-9.125 -0.50099,0 -3.75224,0.88985 -7.21875,1.96875 -7.32312,2.27921 -8.0377,1.94135 -11.96875,-5.46875 -2.13969,-4.03336 -2.21011,-4.69206 -0.96875,-8.125 1.34364,-3.71576 1.3084,-3.75766 -2.34375,-6.6875 C 48.32357,24.4731 46.02942,21.91347 45.25,20.40625 44.22703,18.42803 42.61826,17.3713 39.40625,16.5625 35.81429,15.65803 34.23847,14.48597 31.3125,10.5 L 27.6875,5.5625 30.90625,0.5 23.9375,0.5 z m 10.15625,0 C 33.29453,1.8007 32.75,3.31421 32.75,4.90625 c 0,5.36231 5.69659,8.80341 9.03125,5.46875 1.64374,-1.64374 2.36035,-6.52915 1.875,-9.875 l -9.5625,0 z m 12.28125,0 c -1.00524,3.17619 -0.70416,8.59035 0.84375,9.875 1.99616,1.65667 6.79124,0.47608 9.96875,-2.46875 C 60.48025,4.85464 60.42789,4.14734 56.6875,1 56.46446,0.81232 56.25035,0.67226 56.03125,0.5 l -9.65625,0 z m 26.28125,0 C 71.04202,1.29573 69.75,3.18549 69.75,5.375 c 0,3.52859 2.46949,4.6193 5.65625,2.53125 2.85006,-1.86743 3.12346,-6.0022 0.5,-7.40625 l -3.25,0 z m 16.1875,0 C 85.09845,1.35517 83.75,2.58044 83.75,4.84375 c 0,2.84579 1.53207,3.50508 9.84375,4.28125 4.86466,0.45426 6.57013,0.26133 7.25,-0.8125 1.48161,-2.34022 1.02382,-5.48691 -1.0625,-7.375 C 99.60274,0.77595 99.42578,0.63138 99.25,0.5 l -10.40625,0 z m 16.3125,0 c 0.13201,0.83592 0.28478,1.73693 0.53125,3 1.33823,6.85806 3.815,10.94862 5.25,8.6875 0.82581,-1.3012 1.01057,-6.82811 0.5,-11.6875 l -6.28125,0 z m 11.03125,0 c 0.0103,0.0643 0.0202,0.12241 0.0312,0.1875 0.39631,2.3259 0.83444,6.36929 0.96875,9 0.19873,3.89256 0.86499,5.43462 3.59375,8.25 1.84418,1.90271 4.1828,3.71237 5.1875,4.03125 2.66833,0.84689 8.48163,-1.35462 10.5625,-4 0.99152,-1.26052 3.37669,-3.07221 5.28125,-4.03125 1.90458,-0.95905 4.23722,-2.69687 5.1875,-3.875 2.06024,-2.55423 2.3129,-6.19894 0.90625,-9.5625 L 139,0.5 c 0.91572,4.34702 0.85422,10.1531 -0.3125,12.15625 -1.39767,2.39966 -5.45821,2.19389 -11.4375,-0.59375 -7.33751,-3.42089 -8.30686,-4.9709 -5.96875,-9.3125 0.40887,-0.75923 0.96119,-1.51305 1.625,-2.25 l -6.71875,0 z m 10.15625,0 c -2.32278,2.12282 -2.74037,3.14045 -2.21875,5.21875 0.69681,2.77635 5.06475,5.6875 8.53125,5.6875 1.09612,0 2.70631,-0.99637 3.5625,-2.21875 C 138.06899,6.54591 138.19262,4.072 136.625,1.09375 136.51506,0.88489 136.39425,0.69089 136.28125,0.5 l -9.9375,0 z m 24.90625,0 c 0.89298,2.21152 1.5,4.2371 1.5,5.03125 0,1.05886 -1.78611,4.80707 -4,8.3125 -4.3931,6.95599 -6.63364,8.4171 -16.78125,11.03125 l -6.28125,1.625 -5.78125,-5.0625 c -3.18505,-2.77027 -6.289,-5.03125 -6.875,-5.03125 -1.62468,0 -2.28125,2.58916 -2.28125,9 l 0,5.84375 -7,2.65625 c -3.85,1.47117 -7,3.06927 -7,3.53125 0,1.04758 3.44411,3.66596 9.25,7.09375 l 4.46875,2.65625 0.5625,7.78125 C 111.73823,64.31661 110.73692,67.28199 104.25,74.875 L 99.71875,80.1875 91.25,79.65625 c -4.77487,-0.2979 -8.5,-0.13453 -8.5,0.375 0,0.49737 1.575,3.23529 3.5,6.09375 1.925,2.85846 3.5,5.91285 3.5,6.78125 0,0.8684 -1.575,3.9228 -3.5,6.78125 -1.925,2.85846 -3.5,5.59637 -3.5,6.09375 0,0.50952 3.72513,0.67291 8.5,0.375 l 8.46875,-0.53125 4.53125,5.34375 c 6.48691,7.593 7.48824,10.52714 6.78125,19.875 l -0.5625,7.8125 -4.46875,2.625 c -5.80588,3.4278 -9.25,6.07741 -9.25,7.125 0,0.46199 3.15,2.02883 7,3.5 l 7,2.6875 0,5.8125 c 0,6.41085 0.65658,9 2.28125,9 0.58599,0 3.68996,-2.26097 6.875,-5.03125 l 5.78125,-5.03125 6.28125,1.625 c 10.14761,2.61414 12.38815,4.07526 16.78125,11.03125 2.21389,3.50544 4,7.22236 4,8.28125 0,0.91663 -0.82338,3.50955 -1.9375,6.09375 l 8.28125,0 c -1.82609,-2.54486 -3.29947,-5.17084 -3.3125,-5.96875 -0.0136,-0.83482 1.1386,-3.2483 2.5625,-5.34375 1.42389,-2.09544 2.43639,-3.94367 2.25,-4.09375 -0.1864,-0.15008 -3.86201,-1.94188 -8.1875,-4 -5.85663,-2.78666 -9.54126,-5.45211 -14.375,-10.40625 l -6.46875,-6.65625 -3.15625,3.75 c -3.49426,4.16193 -5.25507,4.49928 -11.71875,2.21875 -5.27999,-1.86289 -5.88673,-2.73136 -5.90625,-8.5 -0.0193,-5.69895 1.74325,-8.23355 6.90625,-9.9375 2.23963,-0.73914 4.0625,-1.48837 4.0625,-1.65625 0,-0.16787 -1.34812,-2.4265 -3,-5.03125 -4.30964,-6.79561 -6.71521,-13.93728 -7.53125,-22.21875 -0.59019,-5.98946 -0.97946,-7.12454 -2.28125,-6.625 -0.86357,0.33138 -3.44881,0.84512 -5.71875,1.15625 -4.02081,0.55111 -4.20774,0.46185 -7.78125,-4.40625 -2.01742,-2.74827 -3.6875,-5.34737 -3.6875,-5.75 0,-0.40263 1.67008,-2.97047 3.6875,-5.71875 3.57351,-4.8681 3.76043,-4.9886 7.78125,-4.4375 2.26995,0.31113 4.85518,0.82487 5.71875,1.15625 1.30179,0.49955 1.69106,-0.60428 2.28125,-6.59375 0.81604,-8.28147 3.22161,-15.42314 7.53125,-22.21875 1.65188,-2.60474 3,-4.89463 3,-5.0625 0,-0.16787 -1.82288,-0.91711 -4.0625,-1.65625 -5.16299,-1.70394 -6.92551,-4.23855 -6.90625,-9.9375 0.0195,-5.76863 0.62626,-6.63712 5.90625,-8.5 6.46368,-2.28052 8.22449,-1.94317 11.71875,2.21875 l 3.15625,3.75 6.46875,-6.65625 c 4.83374,-4.95415 8.51836,-7.61959 14.375,-10.40625 4.3255,-2.05812 8.0011,-3.84992 8.1875,-4 0.18639,-0.15007 -0.82611,-1.99831 -2.25,-4.09375 -1.4239,-2.09545 -2.57613,-4.47769 -2.5625,-5.3125 0.0112,-0.68799 1.1232,-2.75245 2.59375,-4.9375 l -7.125,0 z m 10.65625,0 c -0.0318,0.0327 -0.0625,0.06016 -0.0937,0.09375 -2.25389,2.41926 -2.57145,4.93875 -1,7.875 1.44744,2.70457 8.20789,2.66711 10.9375,-0.0625 1.1,-1.1 2,-2.9 2,-4 0,-1.57954 -0.71754,-2.90994 -1.8125,-3.90625 l -10.03125,0 z m 14.25,0 c 0.21299,0.87288 0.30731,2.04987 0.40625,3.78125 0.29926,5.23639 0.36469,5.34532 3,4.78125 14.23744,-3.04731 16.90723,-3.05546 31.40625,0 2.63405,0.55508 2.70089,0.4526 3,-4.78125 C 214.06785,2.54718 214.1613,1.37327 214.375,0.5 l -7.3125,0 c -3.85642,1.74334 -8.67503,3.1875 -11.8125,3.1875 -3.13747,0 -7.92484,-1.44416 -11.78125,-3.1875 l -7.3125,0 z m 42.5,0 C 217.59949,1.60633 216.75,3.3378 216.75,4.40625 c 0,1.1 0.9,2.9 2,4 2.61039,2.61039 9.47145,2.76707 10.9375,0.25 C 231.47819,5.58183 230.54465,2.48307 228.5,0.5 l -9.84375,0 z m 13.5,0 c 1.47055,2.18505 2.5825,4.2495 2.59375,4.9375 0.0136,0.83482 -1.1386,3.21705 -2.5625,5.3125 -1.42389,2.09544 -2.43639,3.94368 -2.25,4.09375 0.1864,0.15008 3.86201,1.94188 8.1875,4 5.85663,2.78666 9.51,5.45211 14.34375,10.40625 l 6.5,6.65625 3.15625,-3.75 c 3.49426,-4.16193 5.25506,-4.49928 11.71875,-2.21875 5.27999,1.86289 5.88675,2.73137 5.90625,8.5 0.0193,5.69895 -1.74325,8.23356 -6.90625,9.9375 -2.23963,0.73914 -4.09375,1.48838 -4.09375,1.65625 0,0.16787 1.34812,2.45776 3,5.0625 4.30964,6.79561 6.74645,13.93729 7.5625,22.21875 0.59019,5.98946 0.97946,7.0933 2.28125,6.59375 0.86357,-0.33138 3.44881,-0.84511 5.71875,-1.15625 4.02081,-0.55111 4.20773,-0.43059 7.78125,4.4375 2.01742,2.74827 3.64171,5.36744 3.625,5.84375 -0.0167,0.47631 -1.64985,3.07618 -3.65625,5.75 -3.53498,4.71084 -3.79197,4.82805 -7.78125,4.28125 -2.26426,-0.31035 -4.82393,-0.82486 -5.6875,-1.15625 -1.30179,-0.49955 -1.69107,0.63554 -2.28125,6.625 -0.81604,8.28147 -3.25286,15.42315 -7.5625,22.21875 -1.65188,2.60474 -3,4.86339 -3,5.03125 0,0.16787 1.85413,0.91712 4.09375,1.65625 5.16299,1.70394 6.92553,4.23856 6.90625,9.9375 -0.0195,5.76863 -0.62627,6.63712 -5.90625,8.5 -6.46368,2.28052 -8.22448,1.94317 -11.71875,-2.21875 l -3.15625,-3.75 -6.5,6.65625 c -4.83374,4.95415 -8.48711,7.61959 -14.34375,10.40625 -4.3255,2.05812 -8.0011,3.84993 -8.1875,4 -0.18639,0.15007 0.82611,1.99831 2.25,4.09375 1.4239,2.09545 2.57612,4.50895 2.5625,5.34375 -0.013,0.7979 -1.48641,3.42388 -3.3125,5.96875 l 8.28125,0 c -1.11412,-2.58421 -1.96875,-5.17714 -1.96875,-6.09375 0,-1.05886 1.81737,-4.77581 4.03125,-8.28125 4.3931,-6.95599 6.63363,-8.41712 16.78125,-11.03125 l 6.28125,-1.625 5.78125,5.03125 c 3.18505,2.77027 6.25777,5.03125 6.84375,5.03125 1.62468,0 2.28125,-2.58915 2.28125,-9 l 0,-5.8125 7,-2.6875 c 3.85,-1.47117 7,-3.03802 7,-3.5 0,-1.04758 -3.41288,-3.6972 -9.21875,-7.125 l -4.46875,-2.625 -0.59375,-7.8125 c -0.70698,-9.34786 0.29434,-12.28199 6.78125,-19.875 l 4.5625,-5.34375 8.46875,0.53125 c 4.77487,0.2979 8.46875,0.13451 8.46875,-0.375 0,-0.49737 -1.575,-3.23528 -3.5,-6.09375 -1.925,-2.85846 -3.5,-5.91285 -3.5,-6.78125 0,-0.8684 1.575,-3.92279 3.5,-6.78125 1.925,-2.85846 3.5,-5.59639 3.5,-6.09375 0,-0.50952 -3.69388,-0.6729 -8.46875,-0.375 L 290.8125,80.1875 286.25,74.875 c -6.48691,-7.593 -7.48822,-10.55838 -6.78125,-19.90625 l 0.59375,-7.78125 4.46875,-2.65625 c 5.80588,-3.4278 9.21875,-6.04616 9.21875,-7.09375 0,-0.46199 -3.15,-2.06008 -7,-3.53125 l -7,-2.65625 0,-5.84375 c 0,-6.41085 -0.65656,-9 -2.28125,-9 -0.58599,0 -3.65871,2.26098 -6.84375,5.03125 L 264.84375,26.5 258.5625,24.875 C 248.41489,22.26086 246.17436,20.79975 241.78125,13.84375 239.56736,10.33831 237.75,6.59011 237.75,5.53125 237.75,4.7371 238.38827,2.71152 239.28125,0.5 l -7.125,0 z m 10.40625,0 c -2.27516,5.13079 -0.0876,10.2934 6.15625,13.4375 1.90457,0.95904 4.28972,2.77072 5.28125,4.03125 2.08087,2.64539 7.89416,4.84689 10.5625,4 1.00469,-0.31888 3.32767,-2.11337 5.15625,-4 2.87682,-2.96813 3.33204,-4.18999 3.5,-9 0.10675,-3.05737 0.50641,-5.85014 0.875,-6.21875 0.24186,-0.24186 0.44461,-1.14157 0.5625,-2.25 l -7.03125,0 c 0.44737,0.4905 0.86169,0.9745 1.1875,1.46875 1.06666,1.61814 1.93388,3.42901 1.9375,4.03125 0.01,1.66465 -3.02636,4.08772 -8,6.34375 -9.35683,4.24422 -12.62405,2.01516 -11.71875,-7.96875 0.13648,-1.50514 0.29371,-2.75244 0.5,-3.875 l -8.96875,0 z m 11.65625,0 c -2.06373,3.68277 -1.24654,9.30468 2.03125,10.5625 2.22726,0.85468 6.27938,-0.43563 8.53125,-2.6875 2.63761,-2.63761 2.45045,-5.09192 -0.5625,-7.875 l -10,0 z m 25,0 c -0.33438,4.01656 -0.43833,8.84681 -0.0312,10.46875 0.68231,2.71851 0.73599,2.72229 2.5625,0.84375 1.02269,-1.05183 2.27697,-3.93125 2.8125,-6.40625 0.44714,-2.06656 0.75181,-3.63591 0.90625,-4.90625 l -6.25,0 z m 12.0625,0 c -0.17578,0.13138 -0.35274,0.27595 -0.53125,0.4375 -2.08632,1.8881 -2.54412,5.03477 -1.0625,7.375 0.67987,1.07384 2.38534,1.26675 7.25,0.8125 3.49711,-0.32657 7.13802,-0.88324 8.09375,-1.25 2.29455,-0.8805 2.23065,-5.13101 -0.0937,-6.375 -0.57473,-0.30759 -1.88069,-0.66256 -3.40625,-1 l -10.25,0 z m 23.28125,0 c -1.07788,0.56628 -1.8125,1.78859 -1.8125,3.4375 0,2.84348 3.91278,5.81983 6.375,4.875 2.43356,-0.93385 2.08419,-5.94931 -0.53125,-7.78125 C 318.28493,0.81495 317.99769,0.63414 317.6875,0.5 l -3.125,0 z m 19.9375,0 c -0.21911,0.17226 -0.43321,0.31232 -0.65625,0.5 -3.74039,3.14733 -3.79274,3.85464 -0.5,6.90625 3.17752,2.94483 7.9726,4.12543 9.96875,2.46875 1.54791,-1.28465 1.849,-6.69881 0.84375,-9.875 L 334.5,0.5 z m 12.5625,0 c -0.18076,0.90356 -0.3125,1.94728 -0.3125,3.125 0,7.76223 4.09834,10.39325 9.25,5.96875 C 358.20266,7.702 358.27812,3.61528 356.40625,0.5 l -9.34375,0 z m 12.53125,0 3.21875,5.0625 -3.59375,4.9375 c -2.92597,3.98597 -4.50179,5.15804 -8.09375,6.0625 -3.21201,0.80879 -4.85204,1.86553 -5.875,3.84375 -0.77942,1.50722 -3.04233,4.06684 -5.0625,5.6875 -3.65215,2.92985 -3.68739,2.97175 -2.34375,6.6875 1.24136,3.43293 1.17094,4.09163 -0.96875,8.125 -3.95689,7.45882 -4.59503,7.73754 -12.4375,5.34375 -3.72626,-1.13738 -7.0395,-1.80427 -7.375,-1.46875 -1.02111,1.02111 1.71037,11.41679 3.625,13.78125 l 1.78125,2.21875 4.40625,-5.75 c 4.84016,-6.33856 6.07047,-6.62882 14.09375,-3.21875 2.94372,1.25115 3.95411,2.41578 4.90625,5.59375 1.00901,3.36776 1.63741,4 3.875,4 1.46311,0 5.03406,0.70027 7.9375,1.5625 4.7721,1.41716 5.58042,1.4315 8.53125,0.03125 2.92462,-1.38782 3.86356,-1.40852 9.03125,-0.0625 3.17229,0.82628 6.17747,1.76661 6.65625,2.0625 0.47877,0.2959 0.86657,3.31371 0.875,6.71875 0.0221,8.93568 1.68246,10.61864 7.25,5.9375 l 0,-10 c -0.0982,-0.0321 -0.18203,-0.0618 -0.28125,-0.09375 l -7,-2.28125 0.0312,-5.6875 c 0.0184,-6.82983 0.309,-7.304 5.75,-10.0625 l 1.5,-0.75 0,-6.84375 C 388.76504,39.29364 387.75,36.04277 387.75,34.5 c 0,-1.63918 -1.125,-5.1015 -2.5,-7.6875 -1.375,-2.58602 -2.49157,-6.10693 -2.5,-7.8125 -0.0243,-4.9187 -0.94251,-5.62546 -5.8125,-4.53125 -2.73266,0.61399 -4.90595,0.61897 -6.0625,0 -2.08815,-1.11754 -7.125,-7.42835 -7.125,-8.9375 0,-0.45608 1.21737,-2.57892 2.84375,-5.03125 l -7,0 z m 10.03125,0 c -1.57521,2.16525 -1.99109,5.09766 -0.4375,7.46875 0.92243,1.40781 2.33083,2.78899 3.125,3.09375 2.73093,1.04795 6.25236,-0.60522 7.25,-3.40625 C 380.45933,5.13828 380.34314,2.48109 379.5,0.5 l -9.875,0 z M 7.53125,0.71875 C 3.494866,1.60069 0.5,5.16024 0.5,9.46875 l 0,0.15625 c 2.240755,1.00902 4.560334,1.78125 5.71875,1.78125 1.21977,0 1.531253,-1.3314 1.53125,-6.53125 0,-1.70623 -0.061449,-3.07098 -0.21875,-4.15625 z m 375.46875,0 c -0.1573,1.08527 -0.25,2.45002 -0.25,4.15625 0,5.19986 0.31147,6.53125 1.53125,6.53125 1.16395,0 3.49937,-0.79646 5.75,-1.8125 l 0,-0.125 c 0,-4.30696 -2.99705,-7.86645 -7.03125,-8.75 z m -320.9375,9.375 C 58.06726,9.83177 48.75,14.50103 48.75,17.3125 c 0,0.4544 0.95383,2.01958 2.09375,3.46875 2.96858,3.77394 6.03434,3.36039 10.3125,-1.375 3.79887,-4.2049 4.49381,-7.01283 2.25,-8.875 -0.31083,-0.25797 -0.773,-0.40007 -1.34375,-0.4375 z m 266.375,0 c -0.57075,0.03743 -1.03292,0.17953 -1.34375,0.4375 -2.2438,1.86218 -1.51762,4.67009 2.28125,8.875 4.27816,4.7354 7.34391,5.14894 10.3125,1.375 1.13992,-1.44917 2.0625,-3.01436 2.0625,-3.46875 0,-2.81146 -9.31726,-7.48073 -13.3125,-7.21875 z m -113.96875,0.4375 c -0.79523,-0.04225 -0.85679,1.2208 -0.40625,5.53125 1.14138,10.92015 2.66067,11.77654 9.40625,5.15625 2.35832,-2.31451 4.28125,-4.73371 4.28125,-5.34375 0,-0.61004 -2.5875,-1.91005 -5.75,-2.90625 -3.1625,-0.99619 -6.38071,-2.04687 -7.15625,-2.34375 -0.14469,-0.05539 -0.2614,-0.08771 -0.375,-0.09375 z M 175.8125,10.625 c -0.0932,-10e-4 -0.20324,0.02069 -0.3125,0.0625 -0.6875,0.26309 -3.8375,1.28506 -7,2.28125 -3.1625,0.9962 -5.75,2.27751 -5.75,2.84375 0,1.76165 8.31875,9.59375 10.1875,9.59375 1.12019,0 2.02299,-1.01227 2.40625,-2.75 0.33359,-1.5125 0.75404,-3.2 0.9375,-3.75 0.18347,-0.55 0.36283,-2.72239 0.40625,-4.84375 0.0483,-2.35987 -0.22279,-3.43021 -0.875,-3.4375 z m 28.3125,0.65625 c -3.25964,-0.09361 -6.01042,2.00879 -4.3125,5.3125 5.04187,9.81015 7.95173,12.42329 10.75,9.625 1.97387,-1.97387 1.4527,-9.22828 -0.875,-12.1875 -1.46795,-1.86619 -3.60672,-2.69383 -5.5625,-2.75 z m -17.71875,0.0625 c -2.09294,0.13046 -4.29349,1.07421 -5.5625,2.6875 -2.32771,2.95921 -2.84887,10.21364 -0.875,12.1875 2.40787,2.40787 4.45286,1.1233 8.09375,-5.03125 4.14983,-7.01489 4.14168,-6.92084 2.5,-8.5625 -0.96661,-0.96661 -2.52841,-1.38272 -4.15625,-1.28125 z m -96.96875,0.0625 c -1.38096,0.0464 -2.64834,0.32742 -3.5625,0.90625 -2.05969,1.30415 -0.71318,7.97432 2.21875,10.90625 2.0469,2.0469 2.7402,2.21073 4.59375,1.21875 1.19825,-0.64129 3.05649,-2.59136 4.125,-4.34375 1.06852,-1.7524 1.93545,-3.71868 1.9375,-4.375 0.0077,-2.45585 -5.16963,-4.45169 -9.3125,-4.3125 z m 210.65625,0 c -2.4638,0.05476 -5.03062,0.74172 -6.46875,1.90625 -2.29993,1.86237 -2.28696,1.95233 -0.625,5.4375 0.93178,1.95396 2.83916,4.32559 4.25,5.25 2.42441,1.58854 2.67864,1.55981 4.65625,-0.21875 1.15083,-1.03499 2.45604,-2.775 2.90625,-3.875 1.37235,-3.35297 1.07015,-7.22451 -0.625,-7.875 -1.17136,-0.4495 -2.61547,-0.65786 -4.09375,-0.625 z M 0.5,12.59375 l 0,11.625 C 1.492514,24.02916 2.400311,23.35598 3.21875,22.1875 4.07493,20.96513 4.750003,19.15886 4.75,18.15625 4.75,16.11577 2.892956,14.04149 0.5,12.59375 z M 390.03125,12.625 c -2.40021,1.49119 -4.28125,3.59353 -4.28125,5.625 0,1.06407 0.83656,2.94364 1.84375,4.1875 0.7444,0.9193 1.56213,1.48611 2.4375,1.6875 l 0,-11.5 z M 312.5,13.59375 c -1.75028,-0.06866 -3.48916,2.17856 -5.90625,7.34375 -2.9517,6.30764 -2.98365,6.65014 -1.28125,8.53125 3.05716,3.37813 7.56795,2.35599 9.34375,-2.09375 1.55202,-3.88903 1.33011,-11.52238 -0.375,-12.9375 -0.61753,-0.51251 -1.19782,-0.82086 -1.78125,-0.84375 z M 77.90625,13.625 c -0.5415,0.05968 -1.0875,0.34048 -1.65625,0.8125 -2.74276,2.27628 -1.41806,14.13332 1.8125,16.1875 1.97913,1.25844 4.92756,0.88742 6.875,-0.875 2.08025,-1.88261 1.847,-3.28223 -1.84375,-10.625 -1.98368,-3.94651 -3.563,-5.67905 -5.1875,-5.5 z m -58.21875,3.8125 7.78125,0.59375 c 4.28073,0.33478 8.7599,1.20433 9.9375,1.9375 1.1776,0.73317 4.2151,4.46821 6.75,8.28125 2.5349,3.81303 4.54724,7.75521 4.46875,8.78125 -0.16318,2.13325 -3.96677,13.26252 -5.15625,15.09375 -1.0803,1.66314 -8.16342,4.72987 -14.5,6.25 l -5.25,1.25 -7.03125,-4.1875 C 8.99238,50.86592 8.216469,49.6574 7.1875,40.5625 6.34072,33.07794 8.690054,27.57555 15.28125,21.5 l 4.40625,-4.0625 z m 351.125,0 4.4375,4.0625 c 2.42941,2.23935 5.34137,5.98369 6.46875,8.3125 2.14702,4.43517 2.37181,8.25817 0.96875,15.375 -1.12476,5.70513 -1.0417,5.60312 -8.96875,10.3125 l -6.9375,4.125 -5.21875,-1.25 c -6.27248,-1.50474 -13.17005,-4.44675 -14.5,-6.1875 -1.04968,-1.37393 -5.3125,-14.13167 -5.3125,-15.90625 0,-1.84672 9.10012,-14.89616 11.375,-16.3125 1.1776,-0.73317 5.62552,-1.60272 9.90625,-1.9375 L 370.8125,17.4375 z M 103.5,17.53125 c -0.13312,0.0058 -0.28589,0.03932 -0.40625,0.0625 C 100.82938,18.02983 94.75,25.97031 94.75,28.5 c 0,3.92396 7.31544,4.37316 11.71875,0.71875 1.76625,-1.46587 1.65663,-9.27671 -0.15625,-10.78125 -0.69876,-0.57991 -1.88069,-0.94666 -2.8125,-0.90625 z m 182.65625,0.03125 c -2.20128,-0.04958 -3.55402,2.37169 -3.21875,7.03125 0.27722,3.85287 0.70726,4.51416 3.9375,6.09375 2.78089,1.35987 4.23647,1.54681 6.25,0.78125 3.53558,-1.34422 3.36029,-3.94276 -0.65625,-9.21875 -2.36388,-3.10511 -4.60039,-4.64894 -6.3125,-4.6875 z m -217.6875,0.125 c -2.22947,0.20269 -6.05,3.25192 -8,6.59375 C 58.7005,27.31159 58.72277,27.3441 61.25,29 c 1.39995,0.91728 4.56418,1.87818 7.03125,2.15625 l 4.46875,0.53125 0,-4.09375 c 0,-4.92656 -1.43595,-9.04443 -3.4375,-9.8125 -0.24429,-0.09374 -0.52525,-0.12271 -0.84375,-0.09375 z m 253.125,0 c -0.14195,0.01528 -0.25285,0.04688 -0.375,0.09375 -2.00156,0.76807 -3.46875,4.88593 -3.46875,9.8125 l 0,4.09375 4.5,-0.53125 c 2.46707,-0.27808 5.6313,-1.23897 7.03125,-2.15625 2.52723,-1.6559 2.51825,-1.68842 0.75,-4.71875 -2.08928,-3.58052 -6.30832,-6.82296 -8.4375,-6.59375 z M 195.25,18.40625 c -4.64265,0 -8.48496,8.60881 -5.28125,11.8125 1.55432,1.55432 9.03944,1.55433 10.59375,0 3.2037,-3.2037 -0.66985,-11.8125 -5.3125,-11.8125 z m -36.21875,1.90625 c -1.89981,-0.10635 -3.77036,0.58285 -5.34375,2.15625 -3.33837,3.33837 -2.03094,5.17621 5.90625,8.40625 6.20849,2.52657 7.42971,2.74755 8.21875,1.5 1.20905,-1.91163 1.16527,-2.65465 -0.1875,-5.28125 -2.16914,-4.21166 -5.4274,-6.604 -8.59375,-6.78125 z m 72.34375,0.09375 c -2.00142,0.04676 -3.99786,0.80664 -5.3125,2.25 -3.13287,3.4396 -4.46726,6.61507 -3.75,8.875 0.76191,2.40057 2.51895,2.14315 10.96875,-1.59375 5.9163,-2.61646 6.6947,-4.3053 3.46875,-7.53125 -1.3804,-1.3804 -3.37358,-2.04676 -5.375,-2 z m -206,1 c -6.216788,0 -9.875477,3.82665 -12.71875,13.1875 -1.80926,5.95659 -1.971887,7.59984 -1,10.84375 2.2013,7.34728 10.793931,10.14814 21.75,7.09375 5.54054,-1.54461 8.13617,-3.80998 9.84375,-8.625 0.7802,-2.2 1.44461,-4.3108 1.46875,-4.6875 0.22142,-3.45506 -7.60361,-13.98732 -12.15625,-16.375 -1.48519,-0.77893 -4.72749,-1.4375 -7.1875,-1.4375 z m 339.75,0 c -5.74162,0 -8.96983,1.75876 -13.625,7.375 -6.0537,7.3035 -6.66104,10.7925 -3.09375,17.875 1.73276,3.44023 5.21804,5.23794 13.0625,6.78125 5.7421,1.12969 6.50472,1.038 10.84375,-1.0625 3.12915,-1.51479 5.12413,-3.25978 6.03125,-5.34375 1.81613,-4.17227 1.76209,-5.34149 -0.59375,-12.96875 -2.73396,-8.85155 -6.54634,-12.65625 -12.625,-12.65625 z m -2.75,7.90625 c 2.24024,-0.04727 4.6787,0.58451 7,2 4.01646,2.44917 4.62418,5.10826 2.28125,9.84375 -1.96888,3.97946 -6.31586,7.25 -9.625,7.25 -4.10117,0 -9.08489,-8.75873 -7.65625,-13.46875 1.07821,-3.55467 4.26626,-5.54622 8,-5.625 z M 28.9375,29.40625 c 2.12893,0.01732 4.02077,0.55937 5.09375,1.75 3.42112,3.79623 2.78626,10.41227 -1.40625,14.875 -2.64063,2.81081 -5.02049,2.98853 -8.96875,0.65625 C 20.22422,44.66015 16.735018,38.20652 17.5,35.28125 c 0.896706,-3.42902 6.753864,-5.91311 11.4375,-5.875 z m 217.90625,1.5 c -2.195,-0.0333 -3.07018,2.60788 -3.6875,9.25 -0.56139,6.04036 -0.43272,7.31068 0.875,7.8125 2.25042,0.86357 5.53792,-1.19587 7.78125,-4.875 3.17798,-5.212 2.45063,-8.86555 -2.28125,-11.3125 -1.06203,-0.54919 -1.95583,-0.8639 -2.6875,-0.875 z M 143.625,30.9375 c -0.7466,0.02374 -1.62813,0.34227 -2.71875,0.90625 -1.7911,0.92621 -3.37599,2.69733 -3.75,4.1875 -1.29012,5.14025 5.18911,13.52705 9.25,11.96875 1.41161,-0.54169 1.54319,-1.66297 0.96875,-7.84375 -0.62151,-6.68719 -1.51021,-9.28997 -3.75,-9.21875 z m 9.90625,0.6875 c -2.52816,0.10069 -3.78125,2.08823 -3.78125,5.96875 0,7.95691 4.1201,10.11379 9.9375,5.21875 5.25211,-4.41936 3.47319,-9.05381 -4.1875,-10.9375 -0.71926,-0.17686 -1.38533,-0.27324 -1.96875,-0.25 z M 269.25,31.6875 c -1.2511,-0.03156 -2.24692,0.46567 -3.40625,1.625 -2.77146,2.77146 -2.63354,5.30726 0.5,9.03125 3.00023,3.56557 5.58581,3.88294 8.40625,1.0625 4.02351,-4.02351 1.86641,-9.99718 -4.15625,-11.5 -0.49325,-0.12308 -0.92672,-0.20823 -1.34375,-0.21875 z m 94.4375,0 c -3.48117,-0.14976 -6.9375,2.09992 -6.9375,5.9375 0,3.45277 3.3312,7.78125 5.96875,7.78125 2.29283,0 6.04986,-2.83441 7.0625,-5.34375 1.1833,-2.93223 1.1626,-2.92545 -0.53125,-5.34375 -1.38685,-1.98001 -3.4738,-2.94139 -5.5625,-3.03125 z M 27.03125,31.71875 c -0.41175,0.02522 -0.81309,0.09154 -1.25,0.1875 -6.254568,1.37373 -7.323871,8.08972 -1.875,11.90625 3.06557,2.14721 4.77338,2.02839 7.53125,-0.5625 4.94587,-4.6464 1.76995,-11.90961 -4.40625,-11.53125 z m 209.5,0 C 234.62047,31.78297 232.19809,32.57824 230,34 c -3.20776,2.07482 -2.84978,5.7046 0.84375,8.8125 3.55792,2.9938 7.37763,3.36095 8.84375,0.84375 1.56064,-2.67945 1.30273,-9.8004 -0.40625,-11.21875 -0.62778,-0.52101 -1.60353,-0.75728 -2.75,-0.71875 z M 120.5,31.8125 c -3.33313,0.18989 -6.75,2.98732 -6.75,6.75 0,3.25875 3.12335,6.84375 5.9375,6.84375 1.0511,0 3.07609,-1.37031 4.5,-3.0625 3.13353,-3.72398 3.27146,-6.25978 0.5,-9.03125 -1.15538,-1.15538 -2.67244,-1.58631 -4.1875,-1.5 z m -59.59375,0.65625 c -1.65931,-0.03416 -3.11446,0.33321 -3.9375,1.15625 -1.97287,1.97287 -1.38939,5.70436 1.34375,8.4375 2.07002,2.07002 3.18195,2.46463 5.75,1.96875 1.75104,-0.33811 3.975,-1.55947 4.9375,-2.71875 2.00106,-2.41016 1.94428,-2.20877 1.125,-4.34375 -0.96517,-2.5152 -5.56826,-4.42484 -9.21875,-4.5 z M 329.625,32.5 c -3.65003,0.07438 -8.28698,1.92793 -9.25,4.4375 -0.87023,2.26777 1.0466,5.40836 4,6.53125 3.80685,1.44736 5.26001,1.17752 7.9375,-1.5 2.6346,-2.63459 3.19602,-6.39775 1.25,-8.34375 -0.82184,-0.82184 -2.27839,-1.15881 -3.9375,-1.125 z m -153.1875,0.46875 c -2.89086,-0.30559 -3.53569,4.51613 -0.6875,9.1875 1.88186,3.08648 3.87628,4.06122 5.34375,2.59375 1.77081,-1.7708 -0.57517,-9.86425 -3.28125,-11.3125 -0.50109,-0.26817 -0.96202,-0.42509 -1.375,-0.46875 z m 37.65625,0.0625 c -1.8982,0.07996 -4.17303,3.00814 -4.875,6.75 -1.18388,6.3106 2.26491,7.78343 5.5625,2.375 2.33967,-3.83734 2.55125,-7.03698 0.5625,-8.6875 -0.37313,-0.30967 -0.81195,-0.45595 -1.25,-0.4375 z m -18.84375,0.875 c -8.96969,0 -8.97798,0.0096 -9.28125,2.625 -0.49364,4.25724 2.04622,5.875 9.28125,5.875 4.53595,0 6.84003,-0.465 8,-1.625 0.89934,-0.89933 1.48083,-2.79825 1.3125,-4.25 -0.30327,-2.61544 -0.34281,-2.625 -9.3125,-2.625 z M 87.125,34.8125 c -0.97696,0.03208 -2.09646,0.1229 -3.3125,0.25 -7.10204,0.74231 -7.6988,1.09095 -8.625,4.78125 l -0.71875,2.875 4.75,-0.65625 c 2.60602,-0.35719 6.69984,-1.52101 9.125,-2.59375 6.48204,-2.86731 5.61995,-4.88083 -1.21875,-4.65625 z m 214.90625,0 c -5.55323,0.08082 -5.89405,1.99373 0.125,4.65625 2.42516,1.07276 6.55023,2.23655 9.15625,2.59375 l 4.75,0.65625 -0.71875,-2.875 c -0.92621,-3.6903 -1.55421,-4.03895 -8.65625,-4.78125 -1.82406,-0.19065 -3.37473,-0.26865 -4.65625,-0.25 z M 131.875,37.4375 c -1.25418,0.06677 -8.93468,11.51673 -8.21875,12.25 1.21346,1.24283 11.62742,3.1321 13.4375,2.4375 0.91716,-0.35194 1.65625,-1.15346 1.65625,-1.78125 0,-1.50957 -6.09043,-12.94801 -6.875,-12.90625 z m 126.78125,0 c -1.2693,-0.06531 -7.05137,12.13797 -6.46875,13.65625 0.48156,1.25494 1.59735,1.47733 5.34375,1.03125 2.60089,-0.3097 6.02261,-1.05703 7.59375,-1.65625 l 2.84375,-1.09375 -2.40625,-3.21875 c -1.3304,-1.77882 -3.30924,-4.47354 -4.375,-5.96875 -1.06575,-1.49521 -2.19539,-2.73272 -2.53125,-2.75 z m -90.96875,3.59375 c -1.51835,0.12915 -3.70096,1.44879 -7.21875,4 -3.68417,2.67187 -6.71875,5.40783 -6.71875,6.0625 0,1.88072 2.96033,4.3125 5.21875,4.3125 2.65149,0 8.20488,-3.42914 10.71875,-6.625 1.38408,-1.75957 1.71466,-3.11547 1.15625,-4.625 -0.80764,-2.18328 -1.6379,-3.25415 -3.15625,-3.125 z m 54.71875,0 c -1.19788,0.05142 -1.93123,0.92163 -2.5625,2.59375 -1.13915,3.01739 0.1399,5.20133 5.125,8.8125 4.56192,3.30464 7.85969,3.76533 10.21875,1.40625 2.56458,-2.56458 1.91892,-3.70951 -5.03125,-8.75 -3.87439,-2.80983 -6.20986,-4.12861 -7.75,-4.0625 z m -127.25,2.78125 c -0.85214,0.04708 -1.69666,0.1887 -2.5,0.46875 -1.76071,0.61378 -4.4204,1.125 -5.90625,1.125 -7.44279,0 -11.27348,3.61848 -12.59375,11.875 -0.62602,3.91491 -0.45134,4.25783 4.46875,9 2.8178,2.7159 5.125,5.4144 5.125,6 0,3.10265 10.8708,5.33708 15.0625,3.09375 2.36822,-1.26744 4.9375,-6.04417 4.9375,-9.1875 0,-1.28602 0.9,-4.12366 2,-6.28125 1.1,-2.15759 2,-4.73897 2,-5.75 0,-5.63109 -6.62876,-10.67334 -12.59375,-10.34375 z m 198.9375,0 c -5.5936,0.38325 -11.34375,5.11489 -11.34375,10.34375 0,1.01102 0.9,3.59241 2,5.75 1.1,2.15759 2,4.99522 2,6.28125 0,3.14334 2.60053,7.92006 4.96875,9.1875 4.1917,2.24333 15.03125,0.0089 15.03125,-3.09375 0,-0.5856 2.30721,-3.2841 5.125,-6 4.9201,-4.74217 5.09477,-5.0851 4.46875,-9 -1.32026,-8.25651 -5.15096,-11.875 -12.59375,-11.875 -1.48585,0 -4.14555,-0.51122 -5.90625,-1.125 -1.20502,-0.42007 -2.45917,-0.55719 -3.75,-0.46875 z m -98.90625,1.59375 c -8.4896,0 -9.3726,3.17069 -2.96875,10.78125 3.08892,3.67098 3.55529,3.5437 7.59375,-2.03125 4.6961,-6.48277 3.51144,-8.75 -4.625,-8.75 z m -105.125,3.0625 c 2.84386,-0.15184 6.1465,2.41999 9.65625,7.71875 1.66754,2.51754 3.03125,5.15547 3.03125,5.875 0,2.94024 -11.74143,7.01625 -16.9375,5.875 -3.77193,-0.82845 -4.62418,-4.3361 -2.65625,-10.875 1.67806,-5.57576 4.06239,-8.44191 6.90625,-8.59375 z M 300.59375,48.5 c 2.8641,0.10452 5.06834,2.881 6.75,8.46875 1.46057,4.8531 1.5282,5.67759 0.75,8.625 -0.55144,2.08858 -5.27545,3.21332 -9.59375,2.28125 -4.69746,-1.01392 -10.75,-4.28922 -10.75,-5.8125 0,-2.05547 5.80886,-10.29921 8.5,-12.0625 1.60245,-1.04997 3.04189,-1.54751 4.34375,-1.5 z M 182.625,50.40625 c -3.27864,0 -5.1504,8.69411 -2.8125,13.0625 1.50595,2.81389 7.35907,2.64151 9.40625,-0.28125 1.91983,-2.74094 1.92385,-3.15054 0.0625,-6.75 -1.39749,-2.70245 -5.06096,-6.03125 -6.65625,-6.03125 z m 25.1875,0 c -1.71653,0 -5.84276,4.0995 -7.03125,6.96875 -1.06214,2.56424 -1.01545,3.40913 0.375,5.53125 2.01862,3.0808 7.90548,3.5413 9.53125,0.75 2.45148,-4.20893 0.48387,-13.25 -2.875,-13.25 z m -34.15625,1 c -2.94344,0 -10.90625,6.34437 -10.90625,8.6875 0,1.65371 7.15738,5.3125 10.375,5.3125 1.35108,0 2.69134,-0.5625 2.96875,-1.25 1.30387,-3.23133 -0.51258,-12.75 -2.4375,-12.75 z m 43.75,0.25 c -1.66183,0.02021 -2.46387,1.65428 -3.1875,5.9375 -1.329,7.86631 1.81969,9.77852 9.59375,5.8125 2.17809,-1.11118 3.9375,-2.64942 3.9375,-3.40625 0,-1.7078 -6.10252,-7.15429 -9.0625,-8.09375 -0.48668,-0.15446 -0.89775,-0.25466 -1.28125,-0.25 z M 90.6875,52.25 c -1.49693,-0.05873 -2.90349,0.40471 -3.8125,1.5 -1.79018,2.15704 -2.41932,7.22957 -1.1875,9.53125 1.54584,2.88844 8.22249,2.96501 11.0625,0.125 2.38791,-2.38791 2.47821,-3.23292 0.5625,-6.9375 -1.32923,-2.57044 -4.13012,-4.12087 -6.625,-4.21875 z m 208.84375,0.1875 c -1.06594,0.01233 -2.18872,0.19849 -3.21875,0.59375 -1.61631,0.62024 -4.5625,5.35744 -4.5625,7.34375 0,4.33777 10.67446,7.03534 12.96875,3.28125 1.25172,-2.04815 0.65321,-7.81408 -1.03125,-9.84375 -0.76726,-0.92449 -2.37968,-1.39556 -4.15625,-1.375 z M 0.5,52.65625 0.5,64.8125 C 1.253515,64.56953 1.959746,64.24405 2.53125,63.84375 6.536377,61.03845 4.837548,53.98035 0.5,52.65625 z m 389.53125,0.03125 c -4.38735,1.40683 -6.12104,8.31353 -2.0625,11.15625 0.5768,0.404 1.30089,0.72502 2.0625,0.96875 l 0,-12.125 z m -54.75,0.71875 c -1.98539,0.01417 -4.01375,0.815 -5.4375,2.625 -5.51524,7.01149 0.64141,12.293 8.65625,7.40625 2.07116,-1.26281 3.25,-2.79443 3.25,-4.1875 0,-3.65501 -3.15977,-5.86736 -6.46875,-5.84375 z m -280,0.03125 C 51.96848,53.3938 48.75,55.54734 48.75,59.09375 c 0,4.37094 9.6922,8.24531 12.8125,5.125 1.80966,-1.80966 1.44298,-5.24067 -0.875,-8.1875 -1.39464,-1.773 -3.41859,-2.56753 -5.40625,-2.59375 z m 72.90625,0.96875 c -3.44625,0 -4.6798,0.50963 -6.34375,2.625 -2.41346,3.06821 -2.66933,5.66772 -0.6875,7.3125 1.07786,0.89455 2.97801,0.78742 8.125,-0.40625 3.69068,-0.85592 7.10731,-1.79311 7.59375,-2.09375 3.52801,-2.18043 -2.61235,-7.4375 -8.6875,-7.4375 z m 134.0625,0 c -5.01634,0 -10.25396,3.55229 -9.21875,6.25 0.84849,2.21113 14.42711,5.24693 16.34375,3.65625 1.97248,-1.63701 1.72223,-4.21775 -0.6875,-7.28125 -1.67436,-2.12861 -2.9058,-2.625 -6.4375,-2.625 z m -115.625,1 c -3.83767,0 -3.73452,2.37166 0.25,6.09375 2.97578,2.7798 5.79817,3.67057 7.21875,2.25 2.63382,-2.63381 -2.47455,-8.34375 -7.46875,-8.34375 z m 97.28125,0 c -3.83736,0 -8.33124,3.61407 -7.9375,6.375 0.46662,3.27188 3.99764,3.16971 7.625,-0.21875 4.03288,-3.76727 4.16589,-6.15625 0.3125,-6.15625 z m -48.65625,8 c -0.12374,0 -1.92374,1.35 -4,3 -3.02214,2.4017 -4.74378,3 -8.625,3 l -4.84375,0 L 176.625,74 c -0.91425,3.63081 -1.93401,5.06454 -5,7 -4.1915,2.64598 -4.34885,3.16837 -2.4375,8.40625 1.04787,2.87162 1.0478,4.19511 -0.0625,7.375 -1.84909,5.29577 -1.86215,5.27754 2.5,8.03125 3.06598,1.93546 4.08575,3.40044 5,7.03125 l 1.15625,4.5625 4.84375,0 c 3.88122,0 5.60286,0.5983 8.625,3 2.07626,1.65 3.87626,3 4,3 0.12374,0 1.92374,-1.35 4,-3 3.02214,-2.4017 4.74378,-3 8.625,-3 l 4.84375,0 1.15625,-4.5625 c 0.91425,-3.63081 1.96528,-5.09579 5.03125,-7.03125 4.36216,-2.75371 4.3491,-2.73548 2.5,-8.03125 -1.1103,-3.17989 -1.11036,-4.50338 -0.0625,-7.375 1.91135,-5.23788 1.75401,-5.76027 -2.4375,-8.40625 -3.06598,-1.93546 -4.11699,-3.36919 -5.03125,-7 l -1.15625,-4.59375 -4.84375,0 c -3.88122,0 -5.60286,-0.5983 -8.625,-3 -2.07626,-1.65 -3.87626,-3 -4,-3 z M 68.5625,63.5 c -0.42698,0.05752 -0.7672,0.51254 -1.375,1.34375 -0.78068,1.06762 -1.4375,2.48038 -1.4375,3.125 0,1.92711 9.76281,10.4375 11.96875,10.4375 1.12356,0 2.03125,-0.3568 2.03125,-0.8125 0,-1.38067 -5.68849,-9.57751 -8.5,-12.21875 -1.4517,-1.36379 -2.13853,-1.94896 -2.6875,-1.875 z m 253.1875,0 c -0.51779,0.06842 -1.17836,0.66274 -2.46875,1.875 -2.81151,2.64125 -8.53125,10.83807 -8.53125,12.21875 0,2.27016 4.64795,0.31678 9.0625,-3.8125 5.34021,-4.99514 5.70956,-5.95852 3.53125,-8.9375 C 322.64912,63.89379 322.26779,63.43158 321.75,63.5 z M 48.71875,65.5625 c -0.56727,-0.0069 -1.08956,0.06125 -1.5,0.21875 -1.75237,0.67244 -1.91558,5.95981 -0.34375,10.46875 1.49853,4.29868 4.57598,4.14276 9.21875,-0.5 2.01667,-2.01666 3.65625,-3.79916 3.65625,-3.9375 0,-2.48651 -7.06033,-6.20207 -11.03125,-6.25 z M 162.75,65.59375 c -4.58407,0.10592 -5.24183,4.3077 -0.875,9.28125 3.38651,3.85702 6.22606,4.44196 9.0625,1.875 4.33996,-3.92761 1.30487,-9.48277 -5.96875,-10.9375 -0.81093,-0.16219 -1.56388,-0.23388 -2.21875,-0.21875 z m 64.96875,0 c -0.66401,-0.01861 -1.39599,0.0644 -2.21875,0.21875 -7.06978,1.3263 -9.991,6.47485 -6.09375,10.78125 2.55872,2.82736 5.79235,2.21928 9.25,-1.71875 4.39004,-4.99998 3.7106,-9.15099 -0.9375,-9.28125 z M 257.875,65.625 c -3.65279,0.02035 -5.4332,2.44612 -4.75,6.65625 1.24804,7.6908 7.73905,9.26828 11.65625,2.84375 1.08088,-1.77274 1.96671,-3.71026 1.96875,-4.3125 0.007,-1.91829 -3.6222,-4.4527 -7.1875,-5.03125 -0.59632,-0.09677 -1.16567,-0.15916 -1.6875,-0.15625 z M 17.96875,65.65625 c -0.687972,-0.0045 -1.458681,0.10058 -2.28125,0.28125 -3.70724,0.81425 -5.109521,3.40141 -4.71875,8.65625 0.54822,7.37219 4.819053,7.7322 9.53125,0.8125 3.667239,-5.38523 2.284554,-9.71836 -2.53125,-9.75 z m 114,0 c -0.34188,0.01688 -0.69543,0.06543 -1.0625,0.125 -1.9339,0.31383 -4.42743,1.45869 -5.53125,2.5625 -1.92838,1.92838 -1.93592,2.15815 -0.3125,5.5625 3.05292,6.40204 8.52294,7.07334 11.4375,1.40625 2.81581,-5.47508 0.59692,-9.90938 -4.53125,-9.65625 z m 210.21875,0 c -3.19314,0.10257 -10.25176,2.81332 -10.875,4.4375 -0.33626,0.87628 0.21174,2.55031 1.1875,3.6875 5.45311,6.3552 9.44773,7.38181 11.09375,2.875 1.5599,-4.271 1.41466,-10.22423 -0.28125,-10.875 -0.26849,-0.10303 -0.66884,-0.13965 -1.125,-0.125 z m 30,0.09375 c -0.86727,0.05896 -1.7013,0.26444 -2.375,0.625 -3.34318,1.78922 -2.40557,6.66987 2.25,11.78125 2.2687,2.49083 4.67104,2.89148 6.5,1.0625 1.45185,-1.45185 1.59294,-8.21351 0.21875,-10.78125 -0.94154,-1.75927 -3.99193,-2.86439 -6.59375,-2.6875 z M 37.625,65.90625 c -0.73852,0.03234 -1.53835,0.19379 -2.34375,0.5 -4.33311,1.64745 -3.94486,6.14403 1.09375,12.75 2.6406,3.462 4.24796,4.00205 6.1875,2.0625 1.51267,-1.51267 1.54458,-8.93468 0.0625,-12.1875 -0.97406,-2.13784 -2.78444,-3.22201 -5,-3.125 z m 314.375,0 c -0.35871,0.02269 -0.72832,0.06886 -1.0625,0.15625 -2.69695,0.70527 -4.38624,5.10671 -4,10.375 0.60233,8.21546 5.36619,7.5444 9.78125,-1.375 2.3818,-4.81172 2.20094,-4.0853 1.40625,-6.15625 -0.69661,-1.81534 -3.614,-3.15884 -6.125,-3 z M 144.375,66.375 c -1.88259,-0.0409 -3.51329,2.37268 -5.21875,7.53125 -2.85287,8.6292 -2.87312,9.18197 -0.46875,10.46875 3.29416,1.76298 6.66372,-0.31754 8.375,-5.15625 2.02153,-5.71598 2.04372,-9.30004 0.0625,-11.28125 -1.00687,-1.00687 -1.89428,-1.54391 -2.75,-1.5625 z m 101.78125,0 c -0.85572,0.01859 -1.77439,0.55563 -2.78125,1.5625 -2.05112,2.05112 -2.04596,4.87044 0,10.875 1.79784,5.27638 5.01461,7.39438 8.4375,5.5625 2.40438,-1.28678 2.38411,-1.83955 -0.46875,-10.46875 -1.70546,-5.15857 -3.30491,-7.57215 -5.1875,-7.53125 z M 118.75,72.40625 c -2.32973,0 -4,2.85869 -4,6.875 0,5.10289 8.25252,9.66357 12.9375,7.15625 1.13226,-0.60597 2.0625,-1.48852 2.0625,-1.96875 0,-1.96695 -9.20218,-12.0625 -11,-12.0625 z m 153.03125,0 c -1.79782,0 -11.03125,10.09554 -11.03125,12.0625 0,1.6442 4.13533,3.07355 7.03125,2.4375 1.59192,-0.34964 4.03668,-1.5231 5.4375,-2.625 4.04948,-3.18533 2.99697,-11.875 -1.4375,-11.875 z M 154.53125,72.5 c -1.4238,0.12775 -2.61758,1.59488 -3.875,4.4375 -1.10447,2.49683 -1.89164,5.53432 -1.71875,6.75 0.26946,1.89466 0.88372,2.20962 4.3125,2.0625 2.2,-0.0944 5.2375,-0.67051 6.75,-1.25 3.58745,-1.37447 3.50649,-3.74189 -0.3125,-8.375 -2.09516,-2.54179 -3.73245,-3.75275 -5.15625,-3.625 z m 81.40625,0 c -1.42208,-0.07914 -3.05069,1.14912 -5.125,3.65625 -4.37649,5.2897 -3.75234,7.41606 2.65625,9.125 2.85567,0.76152 5.89316,1.11005 6.75,0.78125 2.0835,-0.79951 1.9094,-4.23593 -0.4375,-9.40625 C 238.55997,73.96569 237.35958,72.57914 235.9375,72.5 z M 27.28125,72.59375 c -1.13733,-0.01205 -2.287369,0.92572 -3.875,2.8125 -3.2349,3.84446 -4.114038,6.73705 -2.625,8.53125 1.66961,2.01174 7.68398,2.93654 10.5625,1.625 C 34.6505,84.05584 34.58533,79.5381 31.1875,75.5 29.57131,73.57928 28.41858,72.6058 27.28125,72.59375 z m 336.1875,0.125 c -1.13498,-0.03401 -2.26528,0.82119 -3.75,2.46875 -3.60423,3.99952 -3.97185,8.62168 -0.8125,10.3125 2.39857,1.28367 8.28933,0.62656 10.4375,-1.15625 1.95227,-1.62025 1.76896,-3.10081 -0.84375,-6.9375 -2.13927,-3.14146 -3.57199,-4.64377 -5.03125,-4.6875 z M 195.25,72.90625 c 6.35478,0 7.44129,0.31804 11.6875,3.375 3.24267,2.33449 5.31306,4.84729 6.75,8.1875 1.13997,2.64993 2.06787,6.52695 2.0625,8.625 -0.0149,5.82682 -4.09713,13.31531 -9.15625,16.8125 -3.81084,2.6343 -5.19706,3 -11.34375,3 -6.35478,0 -7.41004,-0.31804 -11.65625,-3.375 -11.55414,-8.31813 -11.55413,-24.93188 0,-33.25 4.2462,-3.05695 5.30147,-3.375 11.65625,-3.375 z m -131.65625,1.5 c -1.02705,0 -3.9162,1.89225 -6.40625,4.1875 -3.4714,3.19982 -4.44856,4.77421 -4.21875,6.75 0.20902,1.79712 0.9895,2.65163 2.5625,2.875 2.43426,0.34565 12.81257,-5.09392 13.53125,-7.09375 0.83775,-2.33114 -2.73312,-6.71875 -5.46875,-6.71875 z m 263.03125,0.1875 c -1.3398,0.0171 -2.5197,0.81094 -3.75,2.375 -2.67422,3.39972 -1.90764,4.84293 4.375,8.4375 5.10603,2.92137 8.46672,3.72076 9.84375,2.34375 1.81399,-1.81399 0.33508,-5.39564 -3.8125,-9.21875 -2.91556,-2.68747 -4.93365,-3.95948 -6.65625,-3.9375 z m -131.625,2 c -2.62108,0.04217 -5.26883,0.70619 -7.71875,2.09375 -7.89879,4.47363 -10.65894,14.37901 -6.21875,22.21875 2.77015,4.89106 8.76705,8.46875 14.1875,8.46875 5.42045,0 11.44861,-3.57768 14.21875,-8.46875 1.29965,-2.29471 2.25,-5.69354 2.25,-8 0,-2.30646 -0.95034,-5.67404 -2.25,-7.96875 C 206.39313,79.50708 200.76637,76.50097 195,76.59375 z M 0.5,82.3125 0.5,91 c 0.09441,-0.0075 0.187271,-0.02373 0.25,-0.0625 0.56126,-0.34688 1.000003,-2.27231 1,-4.25 0,-1.77187 -0.27973,-2.98179 -1.25,-4.375 z m 389.53125,0 c -0.97027,1.39321 -1.28125,2.60313 -1.28125,4.375 0,2.49877 0.38256,3.88084 1.28125,4.15625 l 0,-8.53125 z M 195.59375,83.75 c 3.13315,0.10293 6.16584,1.747 7.71875,4.75 1.77559,3.43363 1.79535,5.68608 0.0625,8.8125 -1.47344,2.65841 -5.15462,5.00831 -7.90625,5.0625 -8.01506,0.15782 -12.411,-10.2765 -6.71875,-15.96875 1.89031,-1.89031 4.40685,-2.7363 6.84375,-2.65625 z m -116.5,0.6875 C 76.23083,84.49052 75.25,86.61186 75.25,92.90625 c 0,4.75453 0.41498,6.84537 1.5,7.53125 2.26637,1.43267 2.92086,1.23539 6.09375,-1.9375 1.76217,-1.76217 2.90625,-3.99388 2.90625,-5.59375 0,-2.50228 -4.71649,-8.50468 -6.65625,-8.46875 z m 232.5625,0.09375 c -1.00255,0.0073 -2.0012,0.84493 -3.96875,2.8125 -3.25152,3.25152 -3.70924,6.51113 -1.375,9.84375 3.06311,4.3732 7.74395,5.09031 8.84375,1.375 0.96583,-3.26272 -0.072,-12.31474 -1.5,-13.21875 -0.81298,-0.51465 -1.39847,-0.81687 -2,-0.8125 z M 8.625,85.4375 c -0.157042,0.01637 -0.262525,0.04378 -0.34375,0.125 -1.11451,1.11451 -1.760633,7.7265 -1.09375,11.28125 0.68766,3.66554 2.236464,4.48228 4.40625,2.3125 C 13.47355,97.27645 12.698767,87.40314 10.5625,86.0625 9.86041,85.62189 9.096125,85.38839 8.625,85.4375 z m 103.21875,0 c -0.77316,0.24626 -1.09375,2.46037 -1.09375,7.46875 0,4.125 0.39216,7.5 0.875,7.5 1.34514,0 8.1611,-2.961 10.84375,-4.71875 1.31549,-0.86194 2.26038,-2.25979 2.09375,-3.125 -0.2964,-1.53908 -10.09054,-7.09187 -12.5625,-7.125 -0.0556,-7.5e-4 -0.10471,-0.01642 -0.15625,0 z m 166.65625,0 c -0.6875,0.0092 -3.725,1.25822 -6.75,2.78125 -3.80772,1.9171 -5.5,3.35255 -5.5,4.6875 0,1.33495 1.69228,2.77039 5.5,4.6875 3.025,1.52302 6.0625,2.80329 6.75,2.8125 0.89038,0.0119 1.25,-2.15773 1.25,-7.5 0,-5.34227 -0.35962,-7.48068 -1.25,-7.46875 z M 381.375,85.5 c -0.43823,0.06377 -0.93818,0.2689 -1.40625,0.5625 -2.0859,1.30841 -2.90787,10.78929 -1.125,12.9375 1.6115,1.94174 3.66627,1.76966 4.28125,-0.34375 0.69613,-2.39229 0.13382,-12.08493 -0.75,-12.96875 -0.19684,-0.19685 -0.56177,-0.25127 -1,-0.1875 z M 69.15625,86.28125 c -3.14645,-0.13233 -7.72878,2.02599 -9.4375,5.21875 -1.59165,2.97404 3.63653,7.90625 8.375,7.90625 1.92148,0 3.72259,-0.5625 4,-1.25 0.72984,-1.80874 0.77246,-8.30615 0.0625,-10.15625 -0.42702,-1.11278 -1.5698,-1.6586 -3,-1.71875 z m 253,0.125 c -3.51625,0 -4.40625,1.28715 -4.40625,6.5 0,5.32843 0.84784,6.5 4.6875,6.5 2.5151,0 4.28274,-0.81398 6.4375,-2.96875 2.45518,-2.45519 2.81085,-3.30563 1.9375,-4.9375 -1.611,-3.01017 -5.13567,-5.09375 -8.65625,-5.09375 z m -219.1875,0.03125 c -3.27848,0.01864 -4.55512,0.76974 -6.125,3.75 -3.38724,6.43036 6.22964,12.91833 10.375,7 0.85618,-1.22237 1.53125,-3.15101 1.53125,-4.28125 0,-3.34697 -2.79939,-6.48571 -5.78125,-6.46875 z m 184.59375,0 c -2.98186,-0.01695 -5.8125,3.12178 -5.8125,6.46875 0,3.34697 2.83064,6.51696 5.8125,6.5 3.16971,-0.01802 4.45806,-0.78083 6,-3.5 1.44319,-2.54501 1.46514,-3.14767 0.0625,-5.8125 -1.51317,-2.87478 -2.80978,-3.63776 -6.0625,-3.65625 z M 195.5,86.46875 c -1.81789,-0.03319 -3.6926,0.49541 -4.90625,1.59375 -2.27863,2.06213 -2.38418,7.10396 -0.1875,9.53125 2.06213,2.27863 7.10396,2.35293 9.53125,0.15625 2.27863,-2.06213 2.35293,-7.0727 0.15625,-9.5 -1.03107,-1.13932 -2.77586,-1.74806 -4.59375,-1.78125 z M 161.375,87.5 c -0.65741,0.0089 -1.47512,0.0755 -2.46875,0.1875 -10.94608,1.23378 -9.28482,10.71875 1.875,10.71875 1.84062,0 3.44197,-0.79744 4.4375,-2.21875 1.9628,-2.80229 1.93769,-3.75595 -0.0937,-6.65625 -1.06693,-1.52326 -1.77778,-2.05794 -3.75,-2.03125 z m 69.6875,0 c -2.75005,-0.06568 -5.08109,0.99455 -6.21875,3.03125 -1.32395,2.37025 -1.26774,2.91556 0.34375,5.375 1.6282,2.48494 2.18508,2.69101 6.375,2.21875 3.1019,-0.34962 5.21187,-1.24377 6.40625,-2.71875 2.18736,-2.70128 0.96142,-5.59951 -2.96875,-7.09375 -1.35367,-0.51466 -2.68748,-0.78265 -3.9375,-0.8125 z m 114.625,0.9375 c -1.94624,0.04239 -3.9375,1.77046 -3.9375,4.46875 0,4.20319 4.94953,6.16315 6.9375,2.75 1.30369,-2.2383 1.29607,-2.94918 0.0312,-5.3125 -0.72376,-1.35235 -1.86351,-1.93169 -3.03125,-1.90625 z m -301,0.03125 c -1.19831,0.07323 -2.37118,0.79522 -3.0625,2.3125 -2.05802,4.51685 2.59614,8.77887 5.9375,5.4375 0.66,-0.66 1.1875,-2.1575 1.1875,-3.3125 0,-2.87272 -2.06531,-4.55955 -4.0625,-4.4375 z m -18.5,0.4375 c -6.750298,0 -7.783251,0.23857 -8.4375,2 -0.40857,1.1 -0.326637,3.07762 0.15625,4.375 0.83486,2.24303 1.234735,2.33089 8.40625,1.96875 5.2404,-0.26463 7.81934,-0.84803 8.46875,-1.875 1.18286,-1.87056 1.1923,-3.08051 0,-4.96875 -0.70752,-1.12048 -2.8684,-1.5 -8.59375,-1.5 z m 338.15625,0 c -7.53102,0 -9.56251,0.84859 -9.5625,4 0,2.99052 2.14934,3.97571 9.4375,4.34375 7.17152,0.36215 7.57138,0.27429 8.40625,-1.96875 0.48289,-1.29739 0.53358,-3.275 0.125,-4.375 -0.65425,-1.76143 -1.65595,-2 -8.40625,-2 z m -113.625,0.5 c -2.67439,0.14146 -4.96875,1.40569 -4.96875,3.5 0,3.62676 6.76042,4.76948 10.9375,1.84375 l 2.375,-1.65625 -2.25,-1.84375 c -1.69584,-1.37321 -4.01367,-1.95378 -6.09375,-1.84375 z m -111.09375,0.25 c -3.45021,-0.11126 -7.15625,1.44392 -7.15625,3.25 0,2.06409 4.82684,3.80043 8.59375,3.09375 3.04294,-0.57086 3.6875,-1.10803 3.6875,-3.09375 0,-1.98572 -0.64456,-2.5229 -3.6875,-3.09375 -0.47086,-0.08833 -0.94461,-0.14036 -1.4375,-0.15625 z M 0.5,95 l 0,8.53125 C 1.47027,102.13804 1.750002,100.89686 1.75,99.125 1.75,96.64705 1.382576,95.291 0.5,95 z m 389.53125,0 c -0.89797,0.27611 -1.28125,1.62715 -1.28125,4.125 0,1.77187 0.31098,3.01304 1.28125,4.40625 l 0,-8.53125 z m -334.1875,2.65625 c -1.69785,0.02188 -2.65727,0.97177 -2.875,2.84375 -0.22981,1.97579 0.74735,3.55019 4.21875,6.75 5.23209,4.82278 7.61968,5.17602 10.4375,1.59375 2.68375,-3.41183 1.93865,-4.83406 -4.46875,-8.5 -3.19503,-1.82801 -5.61465,-2.70938 -7.3125,-2.6875 z m 278.84375,0 c -1.69785,-0.02188 -4.14872,0.85949 -7.34375,2.6875 -6.4074,3.66594 -7.15249,5.08816 -4.46875,8.5 2.81782,3.58228 5.23666,3.22904 10.46875,-1.59375 3.4714,-3.19982 4.44856,-4.7742 4.21875,-6.75 -0.21773,-1.87199 -1.17715,-2.82187 -2.875,-2.84375 z m -210.8125,1.125 c -0.38969,0.01848 -0.76301,0.04549 -1.125,0.125 -6.7432,1.48105 -9.84956,7.12129 -6.9375,12.5625 1.77919,3.32444 4.61921,2.22034 9.40625,-3.65625 2.50522,-3.07542 4.53125,-5.98851 4.53125,-6.46875 0,-1.43867 -3.14718,-2.69187 -5.875,-2.5625 z m 141.59375,0 c -2.37928,0.21172 -4.71875,1.32936 -4.71875,2.5625 0,0.48023 2.05729,3.39334 4.5625,6.46875 4.71144,5.78379 7.56454,6.95214 9.375,3.84375 0.56061,-0.9625 1.01452,-3.15866 1.03125,-4.90625 0.0345,-3.60841 -3.164,-6.79531 -7.9375,-7.84375 -0.72398,-0.15901 -1.51941,-0.19557 -2.3125,-0.125 z m -237.3125,0.8125 c -0.83008,-0.0273 -1.73263,0.03375 -2.71875,0.21875 -6.377738,1.19647 -7.046417,4.63355 -2.03125,10.59375 3.17526,3.77357 4.54888,3.77894 7.78125,-0.0625 4.61786,-5.48802 2.77928,-10.55888 -3.03125,-10.75 z m 123.1875,0.03125 c -0.44988,0.0011 -0.81704,0.0428 -1.03125,0.125 -2.0835,0.79951 -1.90939,4.23593 0.4375,9.40625 2.44257,5.38111 4.82013,5.51427 8.96875,0.5 4.37649,-5.2897 3.75232,-7.41606 -2.65625,-9.125 -2.14175,-0.57114 -4.36912,-0.90969 -5.71875,-0.90625 z m 87.84375,0 c -1.34963,-0.0034 -3.577,0.3351 -5.71875,0.90625 -6.40858,1.70895 -7.03274,3.8353 -2.65625,9.125 4.14862,5.01427 6.52619,4.88111 8.96875,-0.5 2.34689,-5.17032 2.52099,-8.60673 0.4375,-9.40625 -0.21421,-0.0822 -0.58137,-0.12385 -1.03125,-0.125 z m 123.5,0.03125 c -1.50268,-0.01994 -2.88178,0.20612 -3.78125,0.6875 -3.15935,1.69083 -2.79172,6.31298 0.8125,10.3125 3.39364,3.76585 4.9781,3.3348 8.78125,-2.25 2.61271,-3.83668 2.79602,-5.28601 0.84375,-6.90625 -1.34261,-1.11426 -4.15178,-1.81052 -6.65625,-1.84375 z m -221.46875,1.15625 c -0.81197,-0.0244 -1.67552,0.16703 -2.53125,0.625 -2.40438,1.28678 -2.38412,1.83955 0.46875,10.46875 2.48067,7.50337 4.74678,9.22199 7.96875,6 2.05112,-2.05112 2.07721,-4.87043 0.0312,-10.875 -1.34838,-3.95728 -3.50158,-6.14543 -5.9375,-6.21875 z m 108.09375,0 c -2.43592,0.0733 -4.58912,2.26147 -5.9375,6.21875 -2.04596,6.00456 -2.05113,8.82389 0,10.875 3.15713,3.15713 5.54066,1.49355 7.90625,-5.5 2.82822,-8.36128 2.87751,-9.71306 0.53125,-10.96875 -0.85573,-0.45797 -1.68803,-0.64944 -2.5,-0.625 z m -209.125,2.78125 c -1.81172,0.16622 -4.16928,2.627 -6.4375,7.3125 -2.28912,4.72869 -1.8341,7.25176 1.53125,8.53125 3.09934,1.17836 6.03432,0.20878 7.3125,-2.375 0.58856,-1.18976 0.98832,-4.36914 0.875,-7.0625 -0.18765,-4.46019 -1.46953,-6.57247 -3.28125,-6.40625 z m 309.71875,0 c -1.8854,-0.1173 -3.15625,2.08373 -3.15625,6.40625 0,7.88066 3.20582,11.41909 8.5,9.40625 1.25829,-0.4784 2.52874,-1.46446 2.8125,-2.1875 0.75552,-1.92513 -0.16863,-4.79926 -2.9375,-9.09375 -1.89368,-2.93709 -3.75233,-4.44002 -5.21875,-4.53125 z m -335.21875,1.875 c -0.568956,0.005 -1.130312,0.21331 -1.6875,0.5625 -2.06602,1.29478 -2.885118,8.31152 -1.3125,11.25 1.30296,2.4346 6.2567,3.62441 9,2.15625 2.69646,-1.4431 2.627003,-4.89824 -0.1875,-9.03125 -2.290958,-3.36419 -4.105631,-4.95202 -5.8125,-4.9375 z m 361.15625,0 c -1.7068,-0.0149 -3.55261,1.57304 -5.84375,4.9375 -2.8145,4.133 -2.88396,7.58814 -0.1875,9.03125 2.59225,1.38733 7.61962,0.3578 8.9375,-1.84375 1.59784,-2.6692 0.76946,-10.29621 -1.25,-11.5625 -0.55716,-0.34936 -1.08732,-0.55754 -1.65625,-0.5625 z M 5.03125,105.625 c -0.287583,0.0139 -0.594003,0.0785 -0.9375,0.1875 -0.693563,0.22013 -2.074435,1.21839 -3.59375,2.46875 l 0,9.90625 c 0.088544,0.0289 0.160671,0.065 0.25,0.0937 l 7,2.25 0,5.6875 C 7.73162,133.04858 7.441008,133.554 2,136.3125 l -1.5,0.75 0,6.875 c 1.259175,2.63821 2.250003,5.83826 2.25,7.375 0,1.63918 1.125003,5.1015 2.5,7.6875 1.375,2.58602 2.522831,6.10691 2.53125,7.8125 0.02429,4.9187 0.91127,5.62546 5.78125,4.53125 2.73266,-0.61399 4.937202,-0.61897 6.09375,0 2.08815,1.11754 7.09375,7.45961 7.09375,8.96875 0,0.52037 -1.551533,3.17473 -3.53125,6.0625 l 8.34375,0 c -0.12185,-0.19587 -0.21864,-0.39817 -0.34375,-0.59375 l -3.53125,-5.5 3.625,-4.9375 c 2.92597,-3.98597 4.50179,-5.15803 8.09375,-6.0625 3.21201,-0.80879 4.82078,-1.89677 5.84375,-3.875 0.77942,-1.50722 3.07357,-4.06686 5.09375,-5.6875 3.65215,-2.92985 3.68739,-2.97175 2.34375,-6.6875 -1.24136,-3.43293 -1.17094,-4.09163 0.96875,-8.125 3.93105,-7.41011 4.64563,-7.74796 11.96875,-5.46875 3.46651,1.0789 6.71775,1.96875 7.21875,1.96875 1.32069,0 1.11979,-2.91738 -0.59375,-8.6875 -2.41771,-8.14132 -3.66051,-8.39742 -8.6875,-1.8125 -4.74662,6.21768 -6.00335,6.49251 -14,3.09375 -2.94372,-1.25115 -3.95411,-2.4158 -4.90625,-5.59375 -1.00901,-3.36776 -1.6374,-4 -3.875,-4 -1.46311,0 -5.03407,-0.70027 -7.9375,-1.5625 -4.7721,-1.41716 -5.58043,-1.43149 -8.53125,-0.0312 -2.92462,1.38782 -3.863549,1.40853 -9.03125,0.0625 -3.17229,-0.82628 -6.177478,-1.73535 -6.65625,-2.03125 -0.47877,-0.2959 -0.866583,-3.34496 -0.875,-6.75 -0.015435,-6.24057 -0.705671,-8.56641 -2.71875,-8.46875 z m 380.0625,0 c -1.6968,0.23918 -2.29817,2.67394 -2.3125,8.46875 -0.008,3.40504 -0.39624,6.45411 -0.875,6.75 -0.47877,0.29589 -3.48395,1.20498 -6.65625,2.03125 -5.1677,1.34602 -6.10664,1.32533 -9.03125,-0.0625 -2.95082,-1.40025 -3.75916,-1.38591 -8.53125,0.0312 -2.90343,0.86223 -6.47438,1.5625 -7.9375,1.5625 -2.2376,0 -2.86599,0.63223 -3.875,4 -0.95214,3.17796 -1.96253,4.3426 -4.90625,5.59375 -8.02328,3.41008 -9.25359,3.1198 -14.09375,-3.21875 l -4.40625,-5.75 -1.78125,2.21875 c -1.91463,2.36445 -4.64612,12.76015 -3.625,13.78125 0.33551,0.33552 3.64873,-0.33136 7.375,-1.46875 7.84248,-2.3938 8.48061,-2.11506 12.4375,5.34375 2.13969,4.03336 2.21011,4.69206 0.96875,8.125 -1.34364,3.71576 -1.30841,3.75764 2.34375,6.6875 2.02018,1.62065 4.28307,4.18029 5.0625,5.6875 1.02297,1.97822 2.66299,3.06621 5.875,3.875 3.59196,0.90447 5.16779,2.0765 8.09375,6.0625 l 3.59375,4.9375 -3.53125,5.5 c -0.12588,0.19678 -0.22117,0.39668 -0.34375,0.59375 l 8.375,0 c -1.97972,-2.88776 -3.5625,-5.54211 -3.5625,-6.0625 0,-1.50916 5.03685,-7.85121 7.125,-8.96875 1.15655,-0.61897 3.32985,-0.61399 6.0625,0 4.86998,1.09421 5.78822,0.38744 5.8125,-4.53125 0.008,-1.70558 1.125,-5.22647 2.5,-7.8125 1.375,-2.58601 2.5,-6.04833 2.5,-7.6875 0,-1.54276 1.01505,-4.7624 2.28125,-7.40625 l 0,-6.84375 -1.5,-0.75 c -5.44101,-2.7585 -5.73163,-3.26393 -5.75,-10.09375 l -0.0312,-5.6875 7,-2.25 c 0.0992,-0.0319 0.18301,-0.0617 0.28125,-0.0937 l 0,-9.90625 c -1.51932,-1.25036 -2.90019,-2.24862 -3.59375,-2.46875 -0.51524,-0.16353 -0.95218,-0.2427 -1.34375,-0.1875 z m -44.6875,0.8125 c -3.60214,0.0557 -10.0917,6.68066 -9.09375,9.28125 0.71229,1.85619 9.85204,5.13674 12,4.3125 1.75237,-0.67244 1.91559,-5.95981 0.34375,-10.46875 -0.78002,-2.23759 -1.72082,-3.14863 -3.25,-3.125 z M 50.3125,106.4687 c -1.54121,-0.0863 -2.68824,0.94441 -3.4375,3.09375 -1.57183,4.50895 -1.40862,9.7963 0.34375,10.46875 1.88718,0.72418 11.27218,-2.3796 11.90625,-3.9375 0.83638,-2.055 0.71983,-2.24894 -3.03125,-6 -2.32138,-2.32138 -4.24004,-3.53865 -5.78125,-3.625 z m 81.5625,0.15625 c -2.3039,-0.12305 -4.78663,1.67436 -6.59375,5.03125 l -2,3.71875 2.03125,2.03125 c 2.93619,2.93619 8.61755,3.69496 10.875,1.4375 2.24375,-2.24375 1.52207,-7.91545 -1.375,-10.8125 -0.87835,-0.87836 -1.89027,-1.35032 -2.9375,-1.40625 z m 126.9375,0.0625 c -2.63018,0.12554 -4.98547,2.54893 -5.6875,6.875 -0.78081,4.81157 1.66698,7.27414 6.4375,6.5 1.8975,-0.30792 4.28072,-1.31624 5.3125,-2.25 2.3583,-2.13424 2.34807,-3.12022 -0.0937,-7.125 -1.71377,-2.81074 -3.92306,-4.09764 -5.96875,-4 z m 53.15625,0.59375 c -0.7562,-0.0524 -1.21875,0.25933 -1.21875,0.96875 0,1.38067 5.71973,9.54626 8.53125,12.1875 2.5808,2.42451 2.67322,2.43117 4.0625,0.53125 2.17832,-2.97898 1.80895,-3.91111 -3.53125,-8.90625 -3.035,-2.83888 -6.18012,-4.6659 -7.84375,-4.78125 z m -234.25,0.125 c -2.20595,0 -11.96875,8.51039 -11.96875,10.4375 0,0.64462 0.65681,2.05738 1.4375,3.125 1.38927,1.89992 1.4817,1.89327 4.0625,-0.53125 1.45023,-1.36241 3.94339,-4.4931 5.5625,-6.9375 3.48791,-5.26577 3.6166,-6.09375 0.90625,-6.09375 z m 89.5,0 c -2.61295,0 -8.46875,6.14987 -8.46875,8.90625 0,4.3473 6.20001,5.17852 11.71875,1.5625 4.30843,-2.82299 1.93513,-10.46875 -3.25,-10.46875 z m 56.28125,0 c -5.28123,0 -7.80582,7.44348 -3.53125,10.4375 3.18615,2.23166 8.52686,3.04445 10.3125,1.5625 0.81897,-0.67968 1.46875,-2.08023 1.46875,-3.09375 0,-2.63774 -5.80094,-8.90625 -8.25,-8.90625 z m -130.03125,2.125 c -4.57134,0.13725 -9.71875,1.86693 -9.71875,4 0,0.5856 -2.30719,3.28411 -5.125,6 -4.9201,4.74217 -5.09476,5.0851 -4.46875,9 1.32026,8.25651 5.15096,11.875 12.59375,11.875 1.48585,0 4.14553,0.51123 5.90625,1.125 4.2717,1.48913 11.52861,-1.16643 13.59375,-4.96875 1.97896,-3.64366 1.84565,-6.05539 -0.5,-10.65625 -1.1,-2.15759 -2,-4.96397 -2,-6.25 0,-3.14334 -2.56928,-7.9513 -4.9375,-9.21875 -1.30991,-0.70104 -3.26587,-0.96864 -5.34375,-0.90625 z m 202.34375,0 c -1.60793,0.0582 -3.04582,0.34542 -4.09375,0.90625 -2.36822,1.26744 -4.96875,6.07542 -4.96875,9.21875 0,1.28602 -0.9,4.09241 -2,6.25 -1.1,2.15759 -2,4.77022 -2,5.78125 0,6.74554 7.89447,11.58426 15.90625,9.78125 2.52828,-0.56898 6.22056,-1.27025 8.1875,-1.5625 4.83848,-0.71893 6.72644,-2.28269 8.40625,-7 2.35994,-6.62729 1.93194,-8.2645 -3.5,-13.5 -2.75,-2.65055 -5,-5.2894 -5,-5.875 0,-2.32699 -6.11371,-4.17459 -10.9375,-4 z M 88.71875,117.625 c 3.04948,0.0469 6.55589,1.05168 10.28125,2.9375 2.0625,1.04406 3.75,2.46798 3.75,3.1875 0,2.05547 -5.80887,10.29922 -8.5,12.0625 -5.14579,3.37165 -8.62145,1.15235 -11.09375,-7.0625 -1.96792,-6.53889 -1.11568,-10.01529 2.65625,-10.84375 0.89851,-0.19735 1.88976,-0.29687 2.90625,-0.28125 z m 212.71875,0.34375 c 2.84063,-0.0396 5.4026,0.21613 5.71875,0.53125 1.35787,1.35339 1.44076,6.74331 0.15625,10.75 -2.48561,7.75319 -6.04242,9.8518 -11.0625,6.5625 -2.69113,-1.76329 -8.5,-10.00702 -8.5,-12.0625 0,-2.27825 8.11457,-5.70353 13.6875,-5.78125 z M 90.75,120.3125 c -2.21811,0.0245 -4.28958,0.77454 -5.0625,2.21875 -1.23182,2.30167 -0.60269,7.37421 1.1875,9.53125 2.44903,2.9509 8.32501,1.2202 10.71875,-3.15625 1.5828,-2.89382 1.40821,-4.24804 -0.84375,-6.5 -1.42001,-1.42 -3.78189,-2.11824 -6,-2.09375 z m 115.375,0 c -1.92818,0.11529 -3.91908,0.99176 -4.96875,2.59375 -1.39046,2.12211 -1.43714,2.96701 -0.375,5.53125 1.18849,2.86926 5.31474,6.96875 7.03125,6.96875 0.43654,0 1.51073,-0.6982 2.375,-1.5625 1.79206,-1.79206 2.10272,-8.56369 0.53125,-11.5 -0.79823,-1.49151 -2.66557,-2.14654 -4.59375,-2.03125 z m -22.53125,0.0312 c -1.64066,0.10614 -3.1224,0.76892 -3.78125,2 -2.24859,4.20154 -0.49157,13.0625 2.59375,13.0625 1.63778,0 4.73361,-2.56932 6.40625,-5.3125 2.3511,-3.85589 2.40369,-4.617 0.40625,-7.46875 -1.15154,-1.64405 -3.51557,-2.41772 -5.625,-2.28125 z m 116.125,0 c -2.21907,0.0133 -4.60394,0.6977 -5.96875,2.0625 -2.39991,2.39991 -2.44285,3.21375 -0.46875,7.03125 2.49963,4.83375 8.94676,5.39759 11.1875,0.96875 1.54126,-3.04631 1.61439,-5.51313 0.25,-8.0625 -0.72372,-1.35228 -2.78093,-2.01331 -5,-2 z M 57.8125,120.4062 c -3.81697,0.006 -9.0625,3.56681 -9.0625,6.15625 0,5.84802 8.14084,8.04543 11.9375,3.21875 3.6675,-4.66247 2.22331,-9.38249 -2.875,-9.375 z m 115.3125,0 c -3.19877,0 -10.375,3.69598 -10.375,5.34375 0,2.35218 7.94643,8.65625 10.90625,8.65625 0.57043,0 1.48388,-1.4625 2,-3.25 2.00485,-6.94347 1.10649,-10.75 -2.53125,-10.75 z m 44.25,0 c -2.99815,0 -4.04379,2.55923 -3.15625,7.8125 1.2324,7.29448 3.53866,7.75545 10.09375,2 1.88886,-1.65845 3.4375,-3.61813 3.4375,-4.375 0,-1.72426 -7.06676,-5.4375 -10.375,-5.4375 z M 333,120.5 c -4.86024,-0.25599 -7.29267,4.02263 -3.15625,9.28125 2.43298,3.09303 7.24254,3.54907 10.09375,0.96875 2.89543,-2.62033 2.29021,-6.07092 -1.4375,-8.34375 -2.00371,-1.22168 -3.87992,-1.82092 -5.5,-1.90625 z m -210.0625,0.375 c -0.80322,0.0365 -1.33218,0.24699 -1.75,0.59375 -2.00551,1.66443 -1.76654,4.23244 0.65625,7.3125 2.7018,3.43478 9.31183,3.70276 13.34375,0.53125 4.30459,-3.38599 3.01079,-5.16984 -5.25,-7.21875 -3.56224,-0.88354 -5.6613,-1.27966 -7,-1.21875 z M 390.03125,121 c -0.76461,0.244 -1.48374,0.56337 -2.0625,0.96875 -4.0064,2.80619 -2.27809,9.89789 2.0625,11.21875 l 0,-12.1875 z M 0.5,121.03125 0.5,133.125 c 0.846659,-0.23317 1.666817,-0.67754 2.4375,-1.375 2.62727,-2.37765 2.395616,-7.81874 -0.40625,-9.78125 C 1.960411,121.56892 1.252501,121.27413 0.5,121.03125 z m 266.71875,0.0312 c -4.41286,-0.036 -13.49811,2.2972 -14.1875,4.09375 -1.03521,2.6977 4.20241,6.25 9.21875,6.25 3.5317,0 4.76313,-0.49639 6.4375,-2.625 2.40974,-3.06349 2.65998,-5.64425 0.6875,-7.28125 -0.35937,-0.29825 -1.1379,-0.4292 -2.15625,-0.4375 z M 151.6875,121.625 c -2.65636,0.28605 -7.9375,4.91474 -7.9375,7.1875 0,2.35593 5.18902,2.024 8.4375,-0.53125 3.18999,-2.50925 3.16386,-6.19983 -0.0312,-6.65625 -0.15164,-0.0217 -0.29166,-0.0191 -0.46875,0 z m 86.90625,0.0312 c -1.39985,-0.0399 -2.39168,0.73906 -2.625,2.375 -0.39375,2.76094 4.10014,6.375 7.9375,6.375 3.85339,0 3.72039,-2.38899 -0.3125,-6.15625 -1.81369,-1.69424 -3.60015,-2.55388 -5,-2.59375 z m -214.875,4.5625 5.25,1.25 c 6.27248,1.50474 13.17004,4.44672 14.5,6.1875 0.53014,0.6939 1.93249,4.30721 3.125,8.03125 1.19252,3.72405 2.142,7.32406 2.125,8 -0.04916,1.95443 -8.99762,14.696 -11.34375,16.15625 -1.17066,0.72863 -5.62552,1.60272 -9.90625,1.9375 l -7.78125,0.625 -4.40625,-4.09375 C 8.69005,158.23694 6.340719,152.73455 7.1875,145.25 c 1.02897,-9.09491 1.804884,-10.30341 9.5,-14.875 l 7.03125,-4.15625 z m 343.0625,0 7.0625,4.15625 c 4.18906,2.48867 7.39156,5.15779 7.9375,6.59375 0.50441,1.32668 1.17535,5.24388 1.5,8.6875 0.72034,7.64071 -1.38115,12.52885 -8.0625,18.6875 l -4.40625,4.0625 -7.78125,-0.625 c -4.28073,-0.33478 -8.72866,-1.20432 -9.90625,-1.9375 -2.27487,-1.41634 -11.375,-14.43454 -11.375,-16.28125 0,-1.77459 4.26281,-14.53233 5.3125,-15.90625 1.32996,-1.74077 8.22751,-4.68277 14.5,-6.1875 l 5.21875,-1.25 z M 195.3125,127.125 c -0.86709,0.0143 -1.74234,0.89395 -3.09375,2.5 -6.40386,7.61056 -5.52086,10.78125 2.96875,10.78125 2.84766,0 5.71501,-0.52749 6.375,-1.1875 1.79285,-1.79285 1.47797,-3.10643 -1.75,-7.5625 -2.27164,-3.13591 -3.38517,-4.54958 -4.5,-4.53125 z M 159,130.5 c -1.42037,-0.0474 -2.62415,0.43665 -3.65625,1.46875 -2.56458,2.56458 -1.91893,3.74077 5.03125,8.78125 6.88781,4.99525 8.83835,5.25946 10.28125,1.4375 1.13915,-3.01739 -0.10865,-5.20133 -5.09375,-8.8125 -2.56608,-1.85886 -4.73631,-2.81403 -6.5625,-2.875 z m 72.53125,0 c -1.82619,0.061 -3.99642,1.01614 -6.5625,2.875 -4.98509,3.61118 -6.26416,5.7951 -5.125,8.8125 1.44291,3.82197 3.42468,3.55775 10.3125,-1.4375 6.95018,-5.04048 7.59584,-6.21668 5.03125,-8.78125 -1.03209,-1.03209 -2.23588,-1.51617 -3.65625,-1.46875 z m -207.4375,1.125 c -2.009598,-0.0627 -3.287763,0.5299 -6.09375,1.96875 -3.77366,1.93506 -5.038828,3.2458 -6.15625,6.4375 -1.27648,3.64599 -1.18396,4.65497 0.78125,11.125 2.87121,9.45283 6.513303,13.25 12.75,13.25 2.46001,0 5.70231,-0.62732 7.1875,-1.40625 3.02025,-1.584 9.72909,-9.30002 11.15625,-12.8125 1.8754,-4.6157 -1.24454,-12.82639 -5.75,-15.15625 C 36.45853,134.25029 32.43432,133.05066 29,132.375 c -2.21647,-0.43606 -3.70049,-0.71237 -4.90625,-0.75 z m 342.1875,0.0312 c -1.20431,0.0417 -2.65896,0.32632 -4.8125,0.75 -7.84446,1.5433 -11.32973,3.34102 -13.0625,6.78125 -3.5673,7.08251 -2.95995,10.57151 3.09375,17.875 4.65517,5.61623 7.88339,7.34375 13.625,7.34375 5.96078,0 9.87492,-3.8319 12.5625,-12.3125 2.38772,-7.5344 2.45858,-8.8237 0.6875,-13.0625 -0.98177,-2.34969 -2.7619,-3.99595 -6.0625,-5.59375 -2.71394,-1.31379 -4.02407,-1.85079 -6.03125,-1.78125 z m -111,1.75 c -1.42372,0 -2.81955,0.64151 -3.125,1.4375 -0.54498,1.42022 5.30212,13.59501 6.5,13.53125 0.33587,-0.0179 2.49289,-2.61081 4.78125,-5.75 2.28835,-3.13917 3.96649,-5.99345 3.75,-6.34375 -0.55006,-0.89001 -8.78197,-2.875 -11.90625,-2.875 z m -119.25,0.15625 c -3.22502,-0.0864 -11.31322,1.50628 -12.375,2.59375 -0.71335,0.73062 6.96904,12.15143 8.21875,12.21875 0.33201,0.0179 2.00292,-2.55625 3.71875,-5.71875 3.58166,-6.60144 3.82177,-8.04655 1.5,-8.9375 -0.22626,-0.0868 -0.60178,-0.1439 -1.0625,-0.15625 z m -107.46875,3.8438 c 2.05256,0 7.19415,5.22952 7.21875,7.34375 0.0075,0.6453 0.20058,2.05625 0.4375,3.15625 0.50874,2.36194 -0.15803,4.34859 -2.25,6.75 -3.33251,3.82545 -15.166122,0.88751 -16.46875,-4.09375 -1.25962,-4.81677 5.747044,-13.15625 11.0625,-13.15625 z m 333.28125,0.125 c 2.16706,-0.0966 4.92739,1.14613 7.1875,3.40625 3.23667,3.23667 4.70938,7.34059 3.65625,10.1875 -1.86396,5.03876 -12.90303,7.19339 -16.5,3.21875 -3.59346,-3.97073 -1.54595,-12.92912 3.71875,-16.25 0.54779,-0.34554 1.21515,-0.5303 1.9375,-0.5625 z m -216.75,0.0625 c -3.91139,0.22373 -9.08273,7.62454 -7.9375,12.1875 0.82129,3.27227 6.11583,6.29244 8.125,4.625 0.7537,-0.62552 1.53123,-2.56596 1.75,-4.3125 0.9679,-7.72713 0.71911,-11.73676 -0.78125,-12.3125 -0.36902,-0.14161 -0.75162,-0.21064 -1.15625,-0.1875 z m 100.34375,0.0312 c -0.47006,-0.016 -0.95795,0.0467 -1.40625,0.21875 -1.30772,0.50182 -1.43639,1.80339 -0.875,7.84375 0.82473,8.87375 2.1251,10.55761 6.40625,8.34375 1.66868,-0.86291 3.24997,-2.14469 3.53125,-2.84375 2.03234,-5.05122 -3.11233,-13.40765 -7.65625,-13.5625 z M 210.75,140.3437 c -1.41198,0.12341 -2.19718,2.13779 -1.53125,5.6875 0.86397,4.60537 4.13494,7.9641 6.125,6.3125 1.98876,-1.65053 1.77717,-4.85016 -0.5625,-8.6875 -1.4427,-2.36619 -2.93304,-3.40849 -4.03125,-3.3125 z m -182.9375,0.0625 c -2.44591,0 -6.048964,2.91981 -7.125,5.75 -2.08017,5.47127 5.37894,10.24984 10.625,6.8125 1.75434,-1.14949 2.4375,-2.4941 2.4375,-4.75 0,-3.45277 -3.29995,-7.8125 -5.9375,-7.8125 z m 91.875,0 c -2.81414,0 -5.9375,3.58501 -5.9375,6.84375 0,5.47299 7.24028,8.94721 10.9375,5.25 1.14766,-1.14766 2.0625,-2.94219 2.0625,-4 0,-2.65319 -4.73383,-8.09375 -7.0625,-8.09375 z m 151.15625,0 c -2.32868,0 -7.09375,5.44057 -7.09375,8.09375 0,1.0578 0.94608,2.85233 2.09375,4 2.32124,2.32124 6.04094,1.99499 9.15625,-0.8125 3.67227,-3.3094 0.73822,-11.28125 -4.15625,-11.28125 z m -117,0.0937 c -1.32223,0.056 -2.39955,0.6634 -3.03125,1.84375 -1.54349,2.88404 -1.28219,9.63528 0.4375,11.0625 1.67409,1.38937 5.73306,0.68107 9.25,-1.59375 3.20776,-2.07482 2.88105,-5.7046 -0.8125,-8.8125 -2.05447,-1.72872 -4.14375,-2.57197 -5.84375,-2.5 z m 82.28125,0 c -1.58499,0.11674 -3.45505,0.96336 -5.28125,2.5 -3.69354,3.10791 -4.05151,6.73769 -0.84375,8.8125 3.51694,2.27481 7.60715,2.98312 9.28125,1.59375 1.71969,-1.42722 1.981,-8.17846 0.4375,-11.0625 -0.72195,-1.34896 -2.00876,-1.96049 -3.59375,-1.84375 z m 126.90625,0.0312 c -1.25649,-0.0118 -2.49743,0.68027 -3.96875,2.0625 -3.2263,3.03096 -3.14245,8.21359 0.15625,10.375 3.09126,2.02547 7.93828,1.14439 10.03125,-1.84375 1.84415,-2.63289 1.1307,-5.50895 -2.125,-8.46875 -1.5517,-1.41066 -2.83726,-2.11318 -4.09375,-2.125 z m -183.84375,0.125 c -0.98995,0.0926 -2.21048,0.97619 -3.40625,2.9375 -2.25928,3.70567 -2.5919,6.8456 -0.90625,8.53125 1.66635,1.66635 3.91941,0.3755 5.46875,-3.125 2.15812,-4.87594 1.02164,-8.54744 -1.15625,-8.34375 z M 327.875,141.5 c -0.95112,0.023 -2.07244,0.33225 -3.5,0.875 -2.95339,1.12288 -4.87022,4.23223 -4,6.5 1.40074,3.65029 10.55762,5.97365 13.1875,3.34375 1.94601,-1.94601 1.38461,-5.70917 -1.25,-8.34375 -1.67344,-1.67344 -2.8523,-2.41327 -4.4375,-2.375 z m -265.5,0.0937 c -1.49316,-0.006 -2.50998,0.60373 -4.0625,2.15625 -4.41049,4.41049 -2.94849,9.65625 2.6875,9.65625 3.26928,0 8.33995,-2.34525 9.09375,-4.21875 0.83611,-2.0781 0.73597,-2.45246 -1.09375,-4.65625 -0.9625,-1.15928 -3.18645,-2.38063 -4.9375,-2.71875 -0.64201,-0.12397 -1.18978,-0.21674 -1.6875,-0.21875 z m 12.09375,1.5 L 75.1875,146 c 0.39979,1.59287 1.19163,3.18617 1.75,3.53125 1.54942,0.9576 12.54475,1.91637 14.28125,1.25 0.84309,-0.32352 1.53125,-1.00918 1.53125,-1.53125 0,-1.43727 -8.18036,-4.76656 -13.53125,-5.5 l -4.75,-0.65625 z M 195.25,143.4062 c -7.23503,0 -9.77489,1.61775 -9.28125,5.875 0.29645,2.55667 0.51096,2.65012 8.21875,2.9375 4.35138,0.16224 8.51387,0.0637 9.25,-0.21875 1.83292,-0.70336 1.67021,-5.11107 -0.25,-7.03125 -1.09898,-1.09898 -3.49161,-1.5625 -7.9375,-1.5625 z m 118.1875,0 c -3.33044,0 -11.86167,2.69579 -14.1875,4.46875 -3.08127,2.34882 -0.16112,3.68322 6.5,2.96875 7.51739,-0.80633 8.82438,-1.24566 9.34375,-3.21875 0.91286,-3.46798 0.60834,-4.21875 -1.65625,-4.21875 z M 166.5,152.71875 c -1.09689,-0.017 -3.02594,0.63964 -6.90625,2.21875 -7.93719,3.23005 -9.24462,5.06787 -5.90625,8.40625 4.14403,4.14403 10.23315,2.20367 13.90625,-4.4375 1.36037,-2.45962 1.41266,-3.58105 0.21875,-5.46875 -0.29589,-0.46783 -0.65436,-0.70856 -1.3125,-0.71875 z m 57.875,0 c -1.19701,-0.0363 -1.72916,0.51226 -2.0625,1.5625 -0.71727,2.25992 0.61712,5.4354 3.75,8.875 2.62929,2.88672 7.9267,3.0108 10.6875,0.25 3.22595,-3.22595 2.44754,-4.91478 -3.46875,-7.53125 -4.75301,-2.10201 -7.36723,-3.10955 -8.90625,-3.15625 z m -124.84375,1.1875 c -0.69746,0.009 -1.40118,0.18167 -2.15625,0.46875 -3.53647,1.34456 -3.33168,3.94925 0.6875,9.21875 3.54893,4.65296 5.9037,5.72319 8.28125,3.75 1.03022,-0.855 1.42351,-2.69318 1.21875,-5.84375 -0.2706,-4.16355 -0.64743,-4.76615 -3.9375,-6.375 -1.73806,-0.84992 -2.93131,-1.23327 -4.09375,-1.21875 z m 191.46875,0 c -1.16244,-0.0145 -2.38694,0.36883 -4.125,1.21875 -3.23025,1.5796 -3.66029,2.27212 -3.9375,6.125 -0.59602,8.28365 4.12809,9.44114 9.53125,2.34375 4.01654,-5.27598 4.19184,-7.87453 0.65625,-9.21875 -0.75508,-0.28708 -1.42754,-0.46004 -2.125,-0.46875 z m -218.25,0.25 -4.46875,0.5 c -2.46707,0.27808 -5.6313,1.27023 -7.03125,2.1875 -2.52723,1.6559 -2.54949,1.6884 -0.78125,4.71875 2.23266,3.82623 6.88156,7.2217 8.84375,6.46875 0.81869,-0.31416 1.90431,-1.59407 2.40625,-2.84375 0.50192,-1.2497 0.93389,-4.24723 0.96875,-6.65625 l 0.0625,-4.375 z m 122.5,0.25 c -2.255,0 -4.62126,0.55874 -5.28125,1.21875 -3.2037,3.2037 0.6386,11.78125 5.28125,11.78125 1.3529,0 3.24675,-1.11122 4.4375,-2.625 2.29923,-2.923 2.72027,-7.311 0.875,-9.15625 -0.66,-0.66 -3.0575,-1.21875 -5.3125,-1.21875 z m 122.25,0 0.46875,5.5625 c 0.59147,7.13227 2.57078,9.44221 6.375,7.40625 1.45932,-0.781 3.71742,-2.98749 5,-4.875 1.28259,-1.8875 2.06781,-3.82951 1.75,-4.34375 -0.95649,-1.54763 -7.06941,-3.75 -10.4375,-3.75 l -3.15625,0 z m -236.75,0.0312 c -0.96506,0.01 -1.9064,0.25333 -2.6875,0.75 -3.23056,2.05417 -4.55526,13.94246 -1.8125,16.21875 2.44097,2.02583 4.39926,0.40168 7.53125,-6.21875 3.49073,-7.37875 3.38427,-6.6482 1.3125,-8.9375 -1.06711,-1.17914 -2.73531,-1.82915 -4.34375,-1.8125 z m 228.96875,0 c -1.61934,-7.6e-4 -3.27646,0.68908 -4.40625,1.9375 -1.70239,1.88112 -1.67044,2.19236 1.28125,8.5 3.22278,6.88693 5.21738,8.58126 7.6875,6.53125 2.74276,-2.27628 1.38681,-14.16459 -1.84375,-16.21875 -0.79802,-0.50743 -1.74714,-0.74954 -2.71875,-0.75 z M 181.4375,158.4687 c -1.62354,0.24429 -2.6875,2.4338 -2.6875,6.5 0,5.59689 3.00148,9.4375 7.375,9.4375 1.77508,0 3.79671,-0.54671 4.46875,-1.21875 1.45486,-1.45486 1.06369,-2.63013 -3.09375,-9.53125 -2.246,-3.72824 -4.43896,-5.43179 -6.0625,-5.1875 z m 26.96875,0.0937 c -2.23513,0.0111 -4.81235,3.29863 -8.59375,10.65625 -2.71667,5.28593 5.96046,7.53902 9.875,2.5625 2.32771,-2.95921 2.84888,-10.18239 0.875,-12.15625 -0.69957,-0.69957 -1.41121,-1.06622 -2.15625,-1.0625 z m -35.46875,1.84375 c -1.81708,0 -10.1875,7.83111 -10.1875,9.53125 0,0.61004 2.5875,1.91003 5.75,2.90625 3.1625,0.99619 6.38072,2.07812 7.15625,2.375 1.1575,0.44309 1.32738,-0.54252 0.8125,-5.46875 -0.78247,-7.48621 -1.49746,-9.34375 -3.53125,-9.34375 z m 44.65625,0 c -2.03379,0 -2.74879,1.85754 -3.53125,9.34375 -0.51489,4.92623 -0.37624,5.91183 0.78125,5.46875 0.77553,-0.29687 3.99375,-1.37883 7.15625,-2.375 3.1625,-0.9962 5.75,-2.29622 5.75,-2.90625 0,-1.70013 -8.33918,-9.53125 -10.15625,-9.53125 z m 82.28125,0.25 c -0.6591,-0.1029 -1.33049,0.32854 -2.59375,1.15625 -1.43404,0.93962 -3.34946,3.29604 -4.28125,5.25 -1.66197,3.48518 -1.67494,3.57516 0.625,5.4375 2.33365,1.88967 7.43008,2.48798 10.65625,1.25 2.50833,-0.96254 1.33958,-7.94165 -1.875,-11.15625 -1.21456,-1.21457 -1.87215,-1.8346 -2.53125,-1.9375 z m -208.90625,0.125 c -0.83285,-0.008 -1.59569,0.56444 -2.875,1.84375 -2.93192,2.93193 -4.27844,9.57084 -2.21875,10.875 2.23362,1.41429 8.23795,1.03759 10.65625,-0.65625 1.22238,-0.85619 2.22081,-2.09369 2.21875,-2.75 -0.0065,-2.06352 -3.78966,-7.50236 -6.0625,-8.71875 -0.69508,-0.37199 -1.21904,-0.5889 -1.71875,-0.59375 z M 0.5,161.59375 l 0,11.75 c 0.689208,-0.42112 1.330843,-0.89334 1.875,-1.4375 2.77412,-2.77412 3.024847,-5.16728 0.84375,-8.28125 C 2.400312,162.45652 1.492513,161.78334 0.5,161.59375 z m 389.53125,0.125 c -0.8735,0.20234 -1.69448,0.73867 -2.4375,1.65625 -1.0072,1.24385 -1.84375,3.12342 -1.84375,4.1875 0,2.03148 1.88104,4.13381 4.28125,5.625 l 0,-11.46875 z M 54.875,162.5 c -1.42903,0.0383 -2.7325,0.88015 -4.03125,2.53125 -1.13992,1.44917 -2.09375,3.01434 -2.09375,3.46875 0,3.2131 12.1696,8.84498 14.65625,6.78125 2.2438,-1.86218 1.54887,-4.67009 -2.25,-8.875 C 58.74978,163.74259 56.71233,162.45072 54.875,162.5 z m 280.78125,0 c -1.83733,-0.0493 -3.87479,1.2426 -6.28125,3.90625 -3.79887,4.2049 -4.52506,7.0128 -2.28125,8.875 1.69039,1.40291 9.38466,-1.03727 12.53125,-3.96875 2.64597,-2.4651 2.64834,-2.99387 0.0625,-6.28125 -1.29875,-1.6511 -2.60222,-2.49292 -4.03125,-2.53125 z m -208.5625,1.15625 c -0.41851,0.0156 -0.79146,0.0816 -1.125,0.1875 -1.00469,0.31888 -3.34332,2.12853 -5.1875,4.03125 -2.72876,2.81537 -3.39502,4.35741 -3.59375,8.25 -0.13431,2.63071 -0.57244,6.70537 -0.96875,9.03125 -0.0728,0.42724 -0.11682,0.82399 -0.15625,1.21875 l 7.90625,0 c -1.13337,-1.05569 -2.07566,-2.17639 -2.6875,-3.3125 -2.33811,-4.34161 -1.36876,-5.89162 5.96875,-9.3125 6.17208,-2.87754 10.07578,-3.00905 11.46875,-0.40625 1.26181,2.35772 1.23059,8.62967 0.0312,13.03125 l 8.71875,0 c 3.08809,-5.46596 1.01391,-11.14126 -5.65625,-14.5 -1.90457,-0.95904 -4.28973,-2.77074 -5.28125,-4.03125 -1.82076,-2.31472 -6.50795,-4.29699 -9.4375,-4.1875 z m 136.34375,0 c -2.92955,-0.1095 -7.61675,1.87277 -9.4375,4.1875 -0.99152,1.26052 -3.37667,3.07221 -5.28125,4.03125 -6.67522,3.36129 -8.72327,9.03018 -5.625,14.5 l 8.65625,0 c -0.30531,-1.32713 -0.53961,-2.96189 -0.71875,-4.9375 -0.63613,-7.01542 0.74376,-10.03065 4.53125,-10 3.0802,0.0249 10.78597,3.28791 13.4375,5.6875 2.24307,2.02996 2.21101,3.08022 -0.1875,6.71875 -0.56098,0.85101 -1.33085,1.71197 -2.21875,2.53125 l 7.8125,0 c -0.0335,-0.24139 -0.0538,-0.44976 -0.0937,-0.71875 -0.38646,-2.60121 -0.82518,-6.90057 -0.96875,-9.53125 -0.21169,-3.87947 -0.87415,-5.44411 -3.59375,-8.25 -1.84418,-1.90271 -4.18282,-3.71237 -5.1875,-4.03125 -0.33354,-0.10586 -0.70649,-0.17186 -1.125,-0.1875 z m 16.875,9.15625 c -0.51821,-0.13579 -0.72375,0.49501 -1.125,2.09375 -0.43592,1.73685 -0.28245,7.30561 0.125,11.46875 l 6.34375,0 c -0.50173,-4.42698 -2.59096,-11.28437 -3.96875,-12.53125 -0.64321,-0.5821 -1.06407,-0.94978 -1.375,-1.03125 z M 110.03125,173 c -1.41634,-0.008 -3.25644,3.74035 -4.34375,9.3125 -0.35204,1.80409 -0.57293,3.07892 -0.6875,4.0625 l 6.3125,0 c 0.46068,-5.03695 0.32897,-11.64079 -0.375,-12.75 -0.26906,-0.42396 -0.5794,-0.62306 -0.90625,-0.625 z m 241.34375,0.90625 c -2.56691,0.0643 -4.625,3.54266 -4.625,8.3125 0,1.66877 0.20986,3.04341 0.5625,4.15625 l 8.34375,0 c 3.79506,-4.51916 2.38089,-10.31551 -3.15625,-12.28125 -0.38417,-0.13639 -0.7583,-0.19668 -1.125,-0.1875 z M 38.96875,174.125 c -3.00657,-0.18271 -6.21875,2.75951 -6.21875,6.78125 0,2.04275 0.84467,3.97853 2.0625,5.46875 l 8.65625,0 c 0.84871,-3.26597 0.14192,-9.1081 -1.6875,-10.9375 -0.83366,-0.83366 -1.81031,-1.2516 -2.8125,-1.3125 z m 93.6875,0.28125 c -3.46649,0 -7.83444,2.91115 -8.53125,5.6875 -0.54301,2.16352 -0.0835,3.19167 2.5,5.5 0.31879,0.28484 0.63239,0.53999 0.9375,0.78125 l 8.03125,0 c 0.33035,-0.41763 0.65794,-0.92065 0.96875,-1.46875 2.41498,-4.25873 0.0952,-10.5 -3.90625,-10.5 z M 5.9375,174.4375 c -1.000351,-0.0535 -2.533319,0.50852 -4.90625,1.5 -0.192674,0.0805 -0.347103,0.16978 -0.53125,0.25 l 0,1.21875 c 3e-6,4.285 2.965661,7.81238 6.96875,8.71875 0.226959,-1.08646 0.281251,-2.71829 0.28125,-5.1875 0,-4.57999 -0.145249,-6.41085 -1.8125,-6.5 z m 9.53125,0 c -0.84404,0.0393 -1.664859,0.27859 -2.40625,0.75 -2.872004,1.82618 -3.37481,8.05164 -1.4375,11.1875 l 8.21875,0 c 0.543688,-0.49702 0.994253,-1.07463 1.34375,-1.71875 1.9828,-3.65428 1.933011,-4.53196 -0.5,-7.625 -1.393556,-1.77162 -3.361862,-2.68027 -5.21875,-2.59375 z m 358.71875,0 c -1.77153,0.17332 -3.61714,1.31053 -5.03125,3.46875 -1.5937,2.43229 -1.60659,2.8588 -0.0937,6.03125 0.46767,0.98071 1.06786,1.7834 1.71875,2.4375 l 8.125,0 c 0.41777,-0.56715 0.74018,-1.24564 0.96875,-2.0625 0.37018,-1.32295 0.72642,-2.44458 0.78125,-2.5 0.0548,-0.0554 -0.39505,-1.51461 -1,-3.25 -1.0273,-2.94694 -3.19107,-4.34783 -5.46875,-4.125 z m 10.3125,0 c -1.49028,-0.0187 -1.75,0.93795 -1.75,6.5 0,2.4189 0.1155,4.0786 0.34375,5.1875 3.98442,-0.91987 6.9375,-4.44695 6.9375,-8.71875 l 0,-1.1875 c -2.14815,-0.99337 -4.3486,-1.76641 -5.53125,-1.78125 z m -126.71875,0.0312 c -0.54672,0.0176 -1.05686,0.13046 -1.53125,0.3125 -3.61318,1.38651 -4.2494,8.04042 -1.3125,11.59375 l 8.03125,0 c 0.23791,-0.18177 0.47176,-0.35467 0.71875,-0.5625 1.6922,-1.4239 3.0625,-3.44892 3.0625,-4.5 0,-3.34359 -5.14173,-6.96664 -8.96875,-6.84375 z M 49.5625,174.6562 c -2.64168,0.10569 -3.8125,2.0741 -3.8125,6.1875 0,2.45059 0.39968,4.30086 1.125,5.53125 l 7.75,0 c 0.65916,-0.44067 1.34397,-0.95789 2.0625,-1.5625 1.69239,-1.42405 3.0625,-3.00386 3.0625,-3.53125 0,-1.72028 -5.06123,-5.74018 -8.09375,-6.40625 -0.76996,-0.16911 -1.48413,-0.24314 -2.09375,-0.21875 z m 291.1875,0.0312 c -2.27649,0.0116 -5.2217,1.22544 -7.40625,3.25 -3.29275,3.05161 -3.24038,3.7277 0.5,6.875 0.7256,0.61055 1.41382,1.11597 2.09375,1.5625 l 7.75,0 c 1.49642,-2.83527 1.3651,-9.49336 -0.375,-10.9375 -0.6238,-0.51771 -1.52773,-0.75526 -2.5625,-0.75 z m -175.875,0.53125 c -1.77337,0.0626 -3.30643,0.71226 -4.0625,2.125 -1.96765,3.67659 -0.33587,7.28112 2.46875,9.03125 l 7.3125,0 c 0.40501,-0.26836 0.77876,-0.59126 1.15625,-0.96875 1.1,-1.1 2,-2.9 2,-4 0,-3.62964 -4.97359,-6.32514 -8.875,-6.1875 z m 60.78125,0 c -3.90141,-0.13764 -8.90625,2.55786 -8.90625,6.1875 0,2.23048 1.42181,3.98457 3.34375,4.96875 l 7.15625,0 c 0.53133,-0.30197 1.03014,-0.68546 1.46875,-1.15625 2.25389,-2.41926 2.57145,-4.93874 1,-7.875 -0.75607,-1.41274 -2.28913,-2.06244 -4.0625,-2.125 z m -128.96875,1.25 c -0.85432,0.0293 -1.87758,0.10518 -3.09375,0.21875 -8.31168,0.77616 -9.84375,1.43543 -9.84375,4.28125 0,2.90654 2.15485,4.13981 8.875,5.03125 4.24014,0.56247 5.54541,0.3328 7.15625,-1.125 2.08632,-1.8881 2.54411,-5.03479 1.0625,-7.375 -0.5099,-0.80538 -1.59328,-1.11905 -4.15625,-1.03125 z m 196,0 c -1.74619,0.0392 -2.57509,0.36009 -3,1.03125 -1.48161,2.34022 -1.02382,5.48692 1.0625,7.375 1.61084,1.45778 2.9161,1.68749 7.15625,1.125 2.859,-0.37926 6.02639,-1.14969 7.03125,-1.6875 2.3244,-1.24398 2.38829,-5.46326 0.0937,-6.34375 -0.95572,-0.36675 -4.59664,-0.9547 -8.09375,-1.28125 -1.82425,-0.17035 -3.20228,-0.24228 -4.25,-0.21875 z m -114.65625,0.0625 c -1.14406,0.0411 -1.2444,1.10584 -1.46875,5.03125 -0.14557,2.54716 -0.29052,3.88568 -0.8125,4.8125 l 5.5625,0 c 4.04187,-2.1814 10.18261,-4.21877 13.9375,-4.21875 3.75489,0 9.89563,2.03736 13.9375,4.21875 l 5.5625,0 c -0.52159,-0.92681 -0.63572,-2.26611 -0.78125,-4.8125 -0.29926,-5.23639 -0.36467,-5.34532 -3,-4.78125 -14.23744,3.04731 -16.90721,3.05547 -31.40625,0 -0.65851,-0.13877 -1.1499,-0.26371 -1.53125,-0.25 z m 140.125,0.28125 c -2.39538,-0.0189 -5.40625,2.60572 -5.40625,5.09375 0,3.35908 3.03958,4.87035 5.84375,2.90625 2.61545,-1.83193 2.96481,-6.87864 0.53125,-7.8125 -0.30778,-0.11811 -0.62655,-0.1848 -0.96875,-0.1875 z m -245.9375,0.0625 c -1.497,0.12536 -2.46875,1.38837 -2.46875,3.59375 0,3.59057 3.44836,6.32424 6.15625,4.875 2.62347,-1.40404 2.35006,-5.57006 -0.5,-7.4375 -1.19504,-0.78302 -2.2893,-1.10647 -3.1875,-1.03125 z m 254.59375,8.53125 c -0.80529,0 -1.42573,0.34032 -1.90625,0.96875 l 5.59375,0 c -1.42764,-0.59171 -2.74549,-0.96875 -3.6875,-0.96875 z M 63.71875,185.5 c -0.9221,0.0107 -2.11136,0.30864 -3.53125,0.875 l 5.625,0 c -0.44744,-0.59037 -1.13189,-0.88612 -2.09375,-0.875 z"
     id="path3397"
     inkscape:connector-curvature="0" />
</svg>
