<?xml version="1.0" encoding="UTF-8" standalone="no"?>
<!-- Generator: Adobe Illustrator 13.0.0, SVG Export Plug-In . SVG Version: 6.00 Build 14948)  -->

<svg
   xmlns:dc="http://purl.org/dc/elements/1.1/"
   xmlns:cc="http://creativecommons.org/ns#"
   xmlns:rdf="http://www.w3.org/1999/02/22-rdf-syntax-ns#"
   xmlns:svg="http://www.w3.org/2000/svg"
   xmlns="http://www.w3.org/2000/svg"
   xmlns:sodipodi="http://sodipodi.sourceforge.net/DTD/sodipodi-0.dtd"
   xmlns:inkscape="http://www.inkscape.org/namespaces/inkscape"
   version="1.0"
   id="Layer_1"
   x="0px"
   y="0px"
   width="395.5625"
   height="191.875"
   viewBox="0 0 395.5625 191.875"
   enable-background="new 0 0 782.469 748.518"
   xml:space="preserve"
   inkscape:version="0.48.3.1 r9886"
   sodipodi:docname="quasi_1x1.svg"><metadata
   id="metadata31"><rdf:RDF><cc:Work
       rdf:about=""><dc:format>image/svg+xml</dc:format><dc:type
         rdf:resource="http://purl.org/dc/dcmitype/StillImage" /></cc:Work></rdf:RDF></metadata><defs
   id="defs29" /><sodipodi:namedview
   pagecolor="#ffffff"
   bordercolor="#666666"
   borderopacity="1"
   objecttolerance="10"
   gridtolerance="10"
   guidetolerance="10"
   inkscape:pageopacity="0"
   inkscape:pageshadow="2"
   inkscape:window-width="1435"
   inkscape:window-height="917"
   id="namedview27"
   showgrid="false"
   fit-margin-top="0"
   fit-margin-left="0"
   fit-margin-right="0"
   fit-margin-bottom="0"
   inkscape:zoom="0.31528968"
   inkscape:cx="97.731128"
   inkscape:cy="115.83584"
   inkscape:window-x="0"
   inkscape:window-y="24"
   inkscape:window-maximized="0"
   inkscape:current-layer="Layer_1" />
<g
   id="svg2"
   inkscape:output_extension="org.inkscape.output.svg.inkscape"
   sodipodi:docname="blank_2x4.svg"
   sodipodi:version="0.32"
   inkscape:version="0.46"
   transform="translate(-87.34375,209.24999)">
	<path
   id="path3397"
   d="m 100.977,-206.24 c -1.286,3.312 -0.639,8.487 1.938,10.125 2.373,1.509 5.598,0.733 7.625,-1.844 2.477,-3.149 2.52,-3.621 0.562,-7.406 -0.158,-0.307 -0.361,-0.599 -0.562,-0.875 h -9.563 z m 12.813,0 c 1.626,2.452 2.812,4.575 2.812,5.031 0,1.509 -5.005,7.82 -7.094,8.938 -1.157,0.619 -3.361,0.614 -6.094,0 -4.87,-1.094 -5.757,-0.388 -5.781,4.531 -0.008,1.706 -1.156,5.227 -2.531,7.812 -1.375,2.585 -2.5,6.048 -2.5,7.688 0,1.537 -0.991,4.768 -2.25,7.406 v 6.875 l 1.5,0.75 c 5.441,2.758 5.731,3.232 5.75,10.062 v 5.688 l -7,2.281 c -0.089,0.029 -0.162,0.065 -0.25,0.094 v 9.875 c 1.52,1.25 2.9,2.249 3.594,2.469 2.748,0.872 3.639,-1.149 3.656,-8.281 0.008,-3.405 0.396,-6.423 0.875,-6.719 0.479,-0.296 3.484,-1.236 6.656,-2.062 5.167,-1.346 6.106,-1.325 9.031,0.062 2.951,1.4 3.759,1.386 8.531,-0.031 2.903,-0.862 6.475,-1.562 7.938,-1.562 2.238,0 2.866,-0.632 3.875,-4 0.952,-3.178 1.962,-4.343 4.906,-5.594 7.997,-3.399 9.253,-3.093 14,3.125 4.971,6.511 6.255,6.291 8.625,-1.406 1.669,-5.419 1.938,-9.125 0.656,-9.125 -0.501,0 -3.752,0.89 -7.219,1.969 -7.323,2.279 -8.038,1.941 -11.969,-5.469 -2.14,-4.033 -2.21,-4.692 -0.969,-8.125 1.344,-3.716 1.309,-3.758 -2.344,-6.688 -2.02,-1.621 -4.314,-4.18 -5.094,-5.688 -1.023,-1.978 -2.632,-3.035 -5.844,-3.844 -3.592,-0.904 -5.168,-2.077 -8.094,-6.062 l -3.625,-4.938 3.219,-5.062 h -6.966 z m 10.156,0 c -0.799,1.301 -1.344,2.814 -1.344,4.406 0,5.362 5.697,8.803 9.031,5.469 1.644,-1.644 2.36,-6.529 1.875,-9.875 h -9.562 z m 12.281,0 c -1.005,3.176 -0.704,8.59 0.844,9.875 1.996,1.657 6.791,0.476 9.969,-2.469 3.293,-3.052 3.24,-3.759 -0.5,-6.906 -0.223,-0.188 -0.437,-0.328 -0.656,-0.5 h -9.657 z m 26.281,0 c -1.614,0.796 -2.906,2.686 -2.906,4.875 0,3.528 2.47,4.619 5.656,2.531 2.85,-1.867 3.124,-6.002 0.5,-7.406 h -3.25 z m 16.188,0 c -3.745,0.855 -5.094,2.081 -5.094,4.344 0,2.846 1.532,3.505 9.844,4.281 4.865,0.454 6.57,0.261 7.25,-0.812 1.481,-2.34 1.024,-5.487 -1.062,-7.375 -0.179,-0.162 -0.355,-0.306 -0.531,-0.438 h -10.407 z m 16.312,0 c 0.132,0.836 0.285,1.737 0.531,3 1.338,6.858 3.815,10.949 5.25,8.688 0.826,-1.301 1.011,-6.828 0.5,-11.688 h -6.281 z m 11.032,0 c 0.01,0.064 0.02,0.123 0.031,0.188 0.396,2.326 0.834,6.369 0.969,9 0.199,3.893 0.865,5.435 3.594,8.25 1.844,1.903 4.183,3.712 5.188,4.031 2.668,0.847 8.481,-1.354 10.562,-4 0.992,-1.261 3.376,-3.072 5.281,-4.031 1.905,-0.959 4.237,-2.697 5.188,-3.875 2.06,-2.554 2.313,-6.199 0.906,-9.562 h -8.906 c 0.916,4.347 0.854,10.153 -0.312,12.156 -1.397,2.399 -5.458,2.194 -11.438,-0.594 -7.337,-3.421 -8.307,-4.971 -5.969,-9.312 0.409,-0.759 0.961,-1.513 1.625,-2.25 l -6.719,-0.001 0,0 z m 10.156,0 c -2.323,2.123 -2.74,3.141 -2.219,5.219 0.697,2.776 5.065,5.688 8.531,5.688 1.096,0 2.707,-0.997 3.562,-2.219 1.85,-2.642 1.974,-5.115 0.406,-8.094 -0.11,-0.209 -0.231,-0.403 -0.344,-0.594 h -9.936 z m 24.906,0 c 0.893,2.211 1.5,4.237 1.5,5.031 0,1.059 -1.786,4.807 -4,8.312 -4.393,6.956 -6.634,8.417 -16.781,11.031 l -6.281,1.625 -5.781,-5.062 c -3.185,-2.771 -6.289,-5.031 -6.875,-5.031 -1.625,0 -2.281,2.589 -2.281,9 v 5.844 l -7,2.656 c -3.85,1.471 -7,3.069 -7,3.531 0,1.048 3.444,3.666 9.25,7.094 l 4.469,2.656 0.562,7.781 c 0.707,9.348 -0.294,12.313 -6.781,19.906 l -4.531,5.312 -8.469,-0.531 c -4.775,-0.298 -8.5,-0.135 -8.5,0.375 0,0.498 1.575,3.235 3.5,6.094 1.925,2.859 3.5,5.913 3.5,6.781 0,0.868 -1.575,3.923 -3.5,6.781 -1.925,2.858 -3.5,5.596 -3.5,6.094 0,0.51 3.725,0.673 8.5,0.375 l 8.469,-0.531 4.531,5.344 c 6.487,7.593 7.488,10.527 6.781,19.875 l -0.562,7.812 -4.469,2.625 c -5.806,3.428 -9.25,6.077 -9.25,7.125 0,0.462 3.15,2.029 7,3.5 l 7,2.688 v 5.812 c 0,6.41 0.657,9 2.281,9 0.586,0 3.69,-2.261 6.875,-5.031 l 5.781,-5.031 6.281,1.625 c 10.147,2.614 12.388,4.075 16.781,11.031 2.214,3.506 4,7.223 4,8.281 0,0.916 -0.823,3.51 -1.938,6.094 h 8.281 c -1.826,-2.545 -3.299,-5.171 -3.312,-5.969 -0.014,-0.835 1.139,-3.248 2.562,-5.344 1.423,-2.096 2.437,-3.943 2.25,-4.094 -0.187,-0.151 -3.862,-1.941 -8.188,-4 -5.856,-2.787 -9.541,-5.452 -14.375,-10.406 l -6.469,-6.656 -3.156,3.75 c -3.494,4.162 -5.255,4.499 -11.719,2.219 -5.28,-1.863 -5.887,-2.731 -5.906,-8.5 -0.019,-5.699 1.743,-8.233 6.906,-9.938 2.24,-0.739 4.062,-1.488 4.062,-1.656 0,-0.168 -1.348,-2.427 -3,-5.031 -4.31,-6.795 -6.715,-13.938 -7.531,-22.219 -0.59,-5.989 -0.979,-7.125 -2.281,-6.625 -0.864,0.332 -3.449,0.846 -5.719,1.156 -4.021,0.551 -4.208,0.462 -7.781,-4.406 -2.018,-2.748 -3.688,-5.347 -3.688,-5.75 0,-0.403 1.67,-2.971 3.688,-5.719 3.574,-4.868 3.76,-4.989 7.781,-4.438 2.27,0.311 4.855,0.825 5.719,1.156 1.302,0.5 1.691,-0.604 2.281,-6.594 0.816,-8.281 3.222,-15.423 7.531,-22.219 1.652,-2.604 3,-4.895 3,-5.062 0,-0.167 -1.823,-0.917 -4.062,-1.656 -5.163,-1.704 -6.925,-4.238 -6.906,-9.938 0.02,-5.769 0.626,-6.637 5.906,-8.5 6.464,-2.28 8.225,-1.943 11.719,2.219 l 3.156,3.75 6.469,-6.656 c 4.834,-4.954 8.519,-7.62 14.375,-10.406 4.326,-2.058 8.001,-3.85 8.188,-4 0.187,-0.15 -0.826,-1.998 -2.25,-4.094 -1.424,-2.096 -2.576,-4.478 -2.562,-5.312 0.011,-0.688 1.123,-2.752 2.594,-4.938 h -7.125 v 0.002 z m 10.656,0 c -0.032,0.033 -0.062,0.06 -0.094,0.094 -2.254,2.419 -2.571,4.938 -1,7.875 1.447,2.705 8.208,2.667 10.938,-0.062 1.1,-1.1 2,-2.9 2,-4 0,-1.58 -0.718,-2.91 -1.812,-3.906 l -10.032,-0.001 0,0 z m 14.25,0 c 0.213,0.873 0.307,2.05 0.406,3.781 0.299,5.236 0.365,5.345 3,4.781 14.237,-3.047 16.907,-3.056 31.406,0 2.635,0.555 2.701,0.453 3,-4.781 0.1,-1.734 0.192,-2.908 0.406,-3.781 h -7.312 c -3.856,1.743 -8.675,3.188 -11.812,3.188 -3.137,0 -7.925,-1.444 -11.781,-3.188 h -7.313 z m 42.5,0 c -1.057,1.106 -1.906,2.838 -1.906,3.906 0,1.1 0.9,2.9 2,4 2.61,2.61 9.473,2.767 10.938,0.25 1.791,-3.074 0.856,-6.173 -1.188,-8.156 h -9.844 z m 13.5,0 c 1.471,2.185 2.582,4.25 2.594,4.938 0.015,0.835 -1.139,3.217 -2.562,5.312 -1.423,2.095 -2.438,3.944 -2.25,4.094 0.187,0.15 3.861,1.942 8.188,4 5.856,2.787 9.511,5.452 14.345,10.406 l 6.5,6.656 3.155,-3.75 c 3.494,-4.162 5.256,-4.499 11.72,-2.219 5.278,1.863 5.887,2.73 5.905,8.5 0.021,5.699 -1.742,8.233 -6.905,9.938 -2.24,0.739 -4.095,1.488 -4.095,1.656 0,0.168 1.349,2.458 3,5.062 4.311,6.795 6.746,13.938 7.562,22.219 0.59,5.989 0.979,7.093 2.281,6.594 0.862,-0.332 3.448,-0.845 5.719,-1.156 4.021,-0.551 4.207,-0.431 7.781,4.438 2.018,2.748 3.642,5.367 3.625,5.844 -0.018,0.477 -1.65,3.076 -3.656,5.75 -3.535,4.711 -3.792,4.828 -7.781,4.281 -2.264,-0.311 -4.824,-0.824 -5.688,-1.156 -1.303,-0.5 -1.691,0.636 -2.281,6.625 -0.816,8.281 -3.253,15.424 -7.562,22.219 -1.651,2.604 -3,4.863 -3,5.031 0,0.168 1.854,0.917 4.095,1.656 5.163,1.704 6.926,4.238 6.905,9.938 -0.02,5.77 -0.627,6.637 -5.905,8.5 -6.464,2.28 -8.226,1.943 -11.72,-2.219 l -3.155,-3.75 -6.5,6.656 c -4.834,4.954 -8.487,7.619 -14.345,10.406 -4.325,2.059 -8.001,3.85 -8.188,4 -0.188,0.15 0.826,1.998 2.25,4.094 1.424,2.096 2.576,4.509 2.562,5.344 -0.014,0.798 -1.485,3.424 -3.312,5.969 h 8.281 c -1.114,-2.584 -1.97,-5.178 -1.97,-6.094 0,-1.059 1.817,-4.775 4.031,-8.281 4.394,-6.956 6.634,-8.417 16.781,-11.031 l 6.281,-1.625 5.78,5.031 c 3.187,2.771 6.259,5.031 6.845,5.031 1.625,0 2.28,-2.59 2.28,-9 v -5.812 l 7,-2.688 c 3.851,-1.471 7,-3.038 7,-3.5 0,-1.048 -3.412,-3.697 -9.219,-7.125 l -4.469,-2.625 -0.594,-7.812 c -0.707,-9.348 0.295,-12.282 6.78,-19.875 l 4.562,-5.344 8.469,0.531 c 4.775,0.298 8.469,0.135 8.469,-0.375 0,-0.498 -1.574,-3.235 -3.5,-6.094 -1.925,-2.859 -3.5,-5.913 -3.5,-6.781 0,-0.868 1.575,-3.923 3.5,-6.781 1.926,-2.858 3.5,-5.596 3.5,-6.094 0,-0.51 -3.692,-0.673 -8.469,-0.375 l -8.469,0.531 -4.562,-5.312 c -6.485,-7.593 -7.487,-10.559 -6.78,-19.906 l 0.594,-7.781 4.469,-2.656 c 5.807,-3.428 9.219,-6.046 9.219,-7.094 0,-0.462 -3.149,-2.06 -7,-3.531 l -7,-2.656 v -5.844 c 0,-6.411 -0.655,-9 -2.28,-9 -0.586,0 -3.658,2.261 -6.845,5.031 l -5.78,5.062 -6.281,-1.625 c -10.147,-2.614 -12.389,-4.075 -16.781,-11.031 -2.214,-3.505 -4.031,-7.254 -4.031,-8.312 0,-0.794 0.64,-2.82 1.531,-5.031 h -7.125 v -0.002 z m 10.407,0 c -2.275,5.131 -0.088,10.293 6.156,13.438 1.903,0.959 4.289,2.771 5.28,4.031 2.081,2.646 7.896,4.847 10.562,4 1.005,-0.319 3.328,-2.113 5.156,-4 2.877,-2.968 3.332,-4.19 3.5,-9 0.106,-3.058 0.506,-5.85 0.875,-6.219 0.242,-0.242 0.444,-1.142 0.562,-2.25 h -7.031 c 0.447,0.49 0.861,0.975 1.188,1.469 1.066,1.618 1.934,3.429 1.938,4.031 0.011,1.665 -3.025,4.088 -8,6.344 -9.356,4.244 -12.623,2.015 -11.719,-7.969 0.137,-1.505 0.294,-2.752 0.5,-3.875 h -8.967 z m 11.656,0 c -2.064,3.683 -1.246,9.305 2.03,10.562 2.228,0.854 6.279,-0.437 8.531,-2.688 2.639,-2.638 2.45,-5.092 -0.562,-7.875 l -9.999,0.001 0,0 z m 25,0 c -0.334,4.017 -0.438,8.847 -0.031,10.469 0.682,2.719 0.736,2.722 2.562,0.844 1.022,-1.052 2.277,-3.931 2.812,-6.406 0.447,-2.066 0.752,-3.636 0.906,-4.906 l -6.249,-0.001 0,0 z m 12.062,0 c -0.176,0.131 -0.353,0.276 -0.531,0.438 -2.086,1.888 -2.544,5.035 -1.062,7.375 0.68,1.074 2.385,1.267 7.25,0.812 3.497,-0.327 7.139,-0.883 8.094,-1.25 2.295,-0.88 2.23,-5.131 -0.094,-6.375 -0.574,-0.308 -1.881,-0.663 -3.406,-1 h -10.251 z m 23.282,0 c -1.078,0.566 -1.812,1.789 -1.812,3.438 0,2.844 3.913,5.82 6.375,4.875 2.435,-0.934 2.085,-5.949 -0.53,-7.781 -0.31,-0.216 -0.597,-0.397 -0.906,-0.531 l -3.127,-0.001 0,0 z m 19.937,0 c -0.219,0.172 -0.434,0.312 -0.655,0.5 -3.74,3.147 -3.793,3.854 -0.5,6.906 3.178,2.945 7.973,4.125 9.969,2.469 1.548,-1.285 1.849,-6.699 0.844,-9.875 h -9.658 z m 12.563,0 c -0.181,0.903 -0.312,1.947 -0.312,3.125 0,7.762 4.1,10.393 9.25,5.969 2.203,-1.892 2.278,-5.979 0.406,-9.094 h -9.344 z m 12.531,0 3.219,5.062 -3.594,4.938 c -2.927,3.986 -4.502,5.158 -8.095,6.062 -3.212,0.809 -4.852,1.866 -5.875,3.844 -0.778,1.507 -3.042,4.067 -5.062,5.688 -3.652,2.93 -3.688,2.972 -2.344,6.688 1.241,3.433 1.171,4.092 -0.97,8.125 -3.957,7.459 -4.595,7.737 -12.438,5.344 -3.727,-1.137 -7.039,-1.804 -7.375,-1.469 -1.021,1.021 1.71,11.417 3.625,13.781 l 1.781,2.219 4.405,-5.75 c 4.841,-6.338 6.07,-6.629 14.095,-3.219 2.942,1.251 3.954,2.416 4.905,5.594 1.01,3.368 1.639,4 3.875,4 1.464,0 5.034,0.7 7.938,1.562 4.771,1.417 5.58,1.432 8.531,0.031 2.925,-1.388 3.862,-1.409 9.03,-0.062 3.173,0.826 6.179,1.767 6.656,2.062 0.479,0.295 0.866,3.313 0.875,6.719 0.022,8.936 1.684,10.619 7.25,5.938 v -10 c -0.099,-0.032 -0.182,-0.062 -0.281,-0.094 l -7,-2.281 0.031,-5.688 c 0.02,-6.83 0.31,-7.304 5.75,-10.062 l 1.5,-0.75 v -6.844 c -1.267,-2.644 -2.281,-5.896 -2.281,-7.438 0,-1.639 -1.125,-5.102 -2.5,-7.688 -1.375,-2.586 -2.49,-6.107 -2.5,-7.812 -0.023,-4.919 -0.941,-5.625 -5.812,-4.531 -2.732,0.614 -4.906,0.619 -6.062,0 -2.088,-1.118 -7.125,-7.428 -7.125,-8.938 0,-0.456 1.219,-2.579 2.845,-5.031 h -6.997 z m 10.031,0 c -1.574,2.165 -1.99,5.098 -0.438,7.469 0.923,1.408 2.331,2.789 3.125,3.094 2.729,1.048 6.252,-0.605 7.25,-3.406 0.896,-2.518 0.78,-5.175 -0.062,-7.156 l -9.875,-0.001 0,0 z m -362.094,0.219 c -4.037,0.882 -7.031,4.441 -7.031,8.75 v 0.156 c 2.241,1.009 4.561,1.781 5.719,1.781 1.22,0 1.531,-1.332 1.531,-6.531 0,-1.706 -0.061,-3.071 -0.219,-4.156 z m 375.469,0 c -0.156,1.085 -0.25,2.45 -0.25,4.156 0,5.2 0.312,6.531 1.531,6.531 1.164,0 3.499,-0.796 5.75,-1.812 v -0.125 c 0,-4.308 -2.997,-7.867 -7.031,-8.75 z m -320.937,9.375 c -3.995,-0.262 -13.312,4.407 -13.312,7.219 0,0.455 0.954,2.02 2.094,3.469 2.969,3.774 6.034,3.36 10.312,-1.375 3.799,-4.205 4.494,-7.013 2.25,-8.875 -0.312,-0.259 -0.774,-0.401 -1.344,-0.438 z m 266.375,0 c -0.57,0.038 -1.033,0.18 -1.344,0.438 -2.244,1.862 -1.519,4.67 2.28,8.875 4.278,4.735 7.345,5.149 10.312,1.375 1.14,-1.449 2.062,-3.014 2.062,-3.469 0.002,-2.812 -9.315,-7.481 -13.31,-7.219 z m -113.969,0.437 c -0.795,-0.042 -0.857,1.221 -0.406,5.531 1.142,10.92 2.66,11.776 9.406,5.156 2.357,-2.314 4.28,-4.734 4.28,-5.344 0,-0.61 -2.588,-1.91 -5.75,-2.906 -3.161,-0.996 -6.38,-2.047 -7.156,-2.344 -0.144,-0.055 -0.261,-0.087 -0.374,-0.093 z m -38.656,0.094 c -0.093,-0.001 -0.203,0.021 -0.312,0.062 -0.688,0.263 -3.837,1.285 -7,2.281 -3.163,0.996 -5.75,2.277 -5.75,2.844 0,1.762 8.319,9.594 10.188,9.594 1.12,0 2.023,-1.012 2.406,-2.75 0.333,-1.513 0.754,-3.2 0.938,-3.75 0.184,-0.55 0.363,-2.723 0.406,-4.844 0.047,-2.36 -0.224,-3.43 -0.876,-3.437 z m 28.312,0.656 c -3.26,-0.094 -6.01,2.009 -4.312,5.312 5.042,9.81 7.951,12.423 10.75,9.625 1.974,-1.974 1.453,-9.229 -0.875,-12.188 -1.468,-1.865 -3.608,-2.693 -5.563,-2.749 z m -17.719,0.063 c -2.093,0.13 -4.293,1.074 -5.562,2.688 -2.328,2.959 -2.849,10.214 -0.875,12.188 2.408,2.408 4.453,1.123 8.094,-5.031 4.15,-7.015 4.142,-6.921 2.5,-8.562 -0.967,-0.969 -2.529,-1.385 -4.157,-1.283 z m -96.968,0.062 c -1.381,0.046 -2.648,0.327 -3.562,0.906 -2.06,1.304 -0.713,7.974 2.219,10.906 2.047,2.047 2.74,2.211 4.594,1.219 1.198,-0.641 3.057,-2.591 4.125,-4.344 1.068,-1.753 1.936,-3.719 1.938,-4.375 0.006,-2.456 -5.171,-4.451 -9.314,-4.312 z m 210.656,0 c -2.464,0.055 -5.031,0.742 -6.47,1.906 -2.3,1.862 -2.286,1.952 -0.625,5.438 0.933,1.954 2.841,4.326 4.25,5.25 2.425,1.588 2.68,1.56 4.656,-0.219 1.15,-1.035 2.456,-2.775 2.906,-3.875 1.373,-3.353 1.07,-7.225 -0.625,-7.875 -1.17,-0.45 -2.614,-0.658 -4.092,-0.625 z m -299.594,1.188 v 11.625 c 0.993,-0.189 1.9,-0.863 2.719,-2.031 0.856,-1.222 1.531,-3.029 1.531,-4.031 0,-2.042 -1.857,-4.116 -4.25,-5.563 z m 389.531,0.031 c -2.399,1.491 -4.281,3.594 -4.281,5.625 0,1.064 0.838,2.944 1.845,4.188 0.744,0.919 1.562,1.486 2.438,1.688 l -0.002,-11.501 0,0 z m -77.531,0.969 c -1.75,-0.069 -3.488,2.179 -5.905,7.344 -2.951,6.308 -2.983,6.65 -1.281,8.531 3.058,3.378 7.568,2.356 9.344,-2.094 1.552,-3.889 1.33,-11.521 -0.375,-12.938 -0.619,-0.512 -1.2,-0.821 -1.783,-0.843 z m -234.594,0.031 c -0.542,0.06 -1.087,0.34 -1.656,0.812 -2.743,2.276 -1.418,14.133 1.812,16.188 1.979,1.258 4.928,0.888 6.875,-0.875 2.08,-1.883 1.847,-3.282 -1.844,-10.625 -1.983,-3.947 -3.562,-5.679 -5.187,-5.5 z m -58.218,3.812 7.781,0.594 c 4.281,0.335 8.76,1.204 9.938,1.938 1.178,0.734 4.215,4.468 6.75,8.281 2.535,3.813 4.547,7.755 4.469,8.781 -0.163,2.133 -3.967,13.263 -5.156,15.094 -1.08,1.663 -8.164,4.73 -14.5,6.25 l -5.25,1.25 -7.031,-4.188 c -7.695,-4.572 -8.471,-5.78 -9.5,-14.875 -0.847,-7.484 1.502,-12.987 8.094,-19.062 l 4.405,-4.063 z m 351.125,0 4.438,4.062 c 2.431,2.239 5.343,5.984 6.47,8.312 2.146,4.435 2.372,8.258 0.969,15.375 -1.125,5.705 -1.042,5.603 -8.969,10.312 l -6.938,4.125 -5.219,-1.25 c -6.272,-1.505 -13.17,-4.447 -14.5,-6.188 -1.05,-1.374 -5.312,-14.132 -5.312,-15.906 0,-1.847 9.102,-14.896 11.375,-16.312 1.179,-0.733 5.626,-1.603 9.906,-1.938 l 7.78,-0.592 z m -267.313,0.094 c -0.133,0.006 -0.286,0.039 -0.406,0.062 -2.264,0.436 -8.344,8.376 -8.344,10.906 0,3.924 7.315,4.373 11.719,0.719 1.766,-1.466 1.657,-9.277 -0.156,-10.781 -0.699,-0.58 -1.881,-0.947 -2.813,-0.906 z m 182.656,0.031 c -2.201,-0.05 -3.555,2.372 -3.219,7.031 0.277,3.853 0.707,4.514 3.938,6.094 2.781,1.36 4.236,1.547 6.25,0.781 3.535,-1.344 3.36,-3.943 -0.655,-9.219 -2.364,-3.104 -4.602,-4.648 -6.314,-4.687 z m -217.687,0.125 c -2.229,0.203 -6.05,3.252 -8,6.594 -1.768,3.03 -1.746,3.063 0.781,4.719 1.4,0.917 4.564,1.878 7.031,2.156 l 4.469,0.531 v -4.094 c 0,-4.927 -1.436,-9.044 -3.438,-9.812 -0.244,-0.094 -0.525,-0.123 -0.843,-0.094 z m 253.125,0 c -0.143,0.015 -0.253,0.047 -0.375,0.094 -2.002,0.768 -3.47,4.886 -3.47,9.812 v 4.094 l 4.5,-0.531 c 2.468,-0.278 5.632,-1.239 7.031,-2.156 2.527,-1.656 2.52,-1.688 0.75,-4.719 -2.088,-3.581 -6.307,-6.823 -8.436,-6.594 z m -126.344,0.719 c -4.643,0 -8.485,8.609 -5.281,11.812 1.554,1.554 9.039,1.554 10.594,0 3.203,-3.203 -0.67,-11.812 -5.313,-11.812 z m -36.219,1.906 c -1.9,-0.106 -3.771,0.583 -5.344,2.156 -3.338,3.338 -2.031,5.176 5.906,8.406 6.208,2.526 7.43,2.748 8.219,1.5 1.209,-1.912 1.165,-2.655 -0.188,-5.281 -2.168,-4.211 -5.426,-6.603 -8.593,-6.781 z m 72.344,0.094 c -2.002,0.047 -3.998,0.807 -5.312,2.25 -3.133,3.439 -4.467,6.615 -3.75,8.875 0.762,2.4 2.52,2.143 10.969,-1.594 5.916,-2.616 6.695,-4.305 3.469,-7.531 -1.382,-1.38 -3.374,-2.047 -5.376,-2 z m -206,1 c -6.217,0 -9.875,3.827 -12.719,13.188 -1.809,5.957 -1.972,7.6 -1,10.844 2.201,7.347 10.794,10.148 21.75,7.094 5.541,-1.544 8.136,-3.81 9.844,-8.625 0.78,-2.2 1.445,-4.311 1.469,-4.688 0.221,-3.455 -7.604,-13.987 -12.156,-16.375 -1.486,-0.779 -4.728,-1.438 -7.188,-1.438 z m 339.75,0 c -5.74,0 -8.97,1.759 -13.625,7.375 -6.054,7.304 -6.66,10.792 -3.094,17.875 1.732,3.44 5.218,5.238 13.062,6.781 5.742,1.13 6.505,1.038 10.844,-1.062 3.129,-1.515 5.124,-3.26 6.031,-5.344 1.815,-4.172 1.762,-5.341 -0.595,-12.969 -2.732,-8.851 -6.544,-12.656 -12.623,-12.656 z m -2.75,7.906 c 2.24,-0.047 4.68,0.584 7,2 4.018,2.449 4.624,5.108 2.281,9.844 -1.969,3.979 -6.314,7.25 -9.625,7.25 -4.102,0 -9.085,-8.759 -7.656,-13.469 1.078,-3.554 4.267,-5.546 8,-5.625 z m -333.437,0.094 c 2.129,0.018 4.021,0.56 5.094,1.75 3.421,3.796 2.786,10.412 -1.406,14.875 -2.641,2.811 -5.021,2.988 -8.969,0.656 -3.432,-2.027 -6.921,-8.481 -6.156,-11.406 0.896,-3.429 6.753,-5.913 11.437,-5.875 z m 217.906,1.5 c -2.195,-0.033 -3.07,2.608 -3.688,9.25 -0.562,6.041 -0.433,7.311 0.875,7.812 2.25,0.864 5.538,-1.196 7.781,-4.875 3.178,-5.212 2.451,-8.866 -2.281,-11.312 -1.062,-0.549 -1.956,-0.864 -2.687,-0.875 z m -103.219,0.031 c -0.747,0.024 -1.628,0.342 -2.719,0.906 -1.791,0.926 -3.376,2.697 -3.75,4.188 -1.29,5.14 5.189,13.527 9.25,11.969 1.412,-0.542 1.543,-1.663 0.969,-7.844 -0.622,-6.687 -1.51,-9.29 -3.75,-9.219 z m 9.906,0.688 c -2.528,0.101 -3.781,2.088 -3.781,5.969 0,7.957 4.12,10.114 9.938,5.219 5.252,-4.419 3.473,-9.054 -4.188,-10.938 -0.719,-0.177 -1.385,-0.274 -1.969,-0.25 z m 115.719,0.062 c -1.251,-0.032 -2.246,0.466 -3.405,1.625 -2.771,2.771 -2.635,5.307 0.5,9.031 3,3.565 5.586,3.883 8.405,1.062 4.023,-4.023 1.866,-9.997 -4.155,-11.5 -0.494,-0.122 -0.928,-0.207 -1.345,-0.218 z m 94.438,0 c -3.481,-0.15 -6.938,2.1 -6.938,5.938 0,3.453 3.331,7.781 5.97,7.781 2.293,0 6.05,-2.834 7.062,-5.344 1.185,-2.932 1.162,-2.925 -0.531,-5.344 -1.388,-1.979 -3.475,-2.941 -5.563,-3.031 z m -336.657,0.032 c -0.412,0.025 -0.813,0.092 -1.25,0.188 -6.254,1.374 -7.324,8.09 -1.875,11.906 3.065,2.147 4.773,2.028 7.531,-0.562 4.946,-4.648 1.771,-11.911 -4.406,-11.532 z m 209.5,0 c -1.91,0.064 -4.333,0.859 -6.531,2.281 -3.208,2.075 -2.85,5.705 0.845,8.812 3.559,2.994 7.377,3.361 8.844,0.844 1.561,-2.68 1.303,-9.8 -0.406,-11.219 -0.63,-0.521 -1.605,-0.757 -2.752,-0.718 z m -116.031,0.093 c -3.333,0.19 -6.75,2.987 -6.75,6.75 0,3.259 3.124,6.844 5.938,6.844 1.051,0 3.076,-1.37 4.5,-3.062 3.133,-3.724 3.271,-6.26 0.5,-9.031 -1.156,-1.156 -2.673,-1.587 -4.188,-1.501 z m -59.594,0.657 c -1.659,-0.034 -3.114,0.333 -3.938,1.156 -1.973,1.973 -1.389,5.704 1.344,8.438 2.07,2.07 3.182,2.465 5.75,1.969 1.751,-0.338 3.975,-1.56 4.938,-2.719 2.001,-2.41 1.944,-2.209 1.125,-4.344 -0.965,-2.516 -5.568,-4.425 -9.219,-4.5 z m 268.719,0.031 c -3.649,0.074 -8.286,1.928 -9.25,4.438 -0.869,2.268 1.048,5.408 4,6.531 3.808,1.447 5.261,1.178 7.938,-1.5 2.635,-2.635 3.196,-6.398 1.25,-8.344 -0.823,-0.822 -2.279,-1.159 -3.938,-1.125 z m -153.187,0.469 c -2.891,-0.306 -3.536,4.516 -0.688,9.188 1.882,3.086 3.876,4.061 5.344,2.594 1.771,-1.771 -0.575,-9.864 -3.281,-11.312 -0.501,-0.27 -0.962,-0.427 -1.375,-0.47 z m 37.656,0.062 c -1.898,0.08 -4.173,3.008 -4.875,6.75 -1.184,6.311 2.266,7.783 5.562,2.375 2.34,-3.837 2.551,-7.037 0.562,-8.688 -0.372,-0.309 -0.812,-0.456 -1.249,-0.437 z m -18.844,0.875 c -8.97,0 -8.978,0.01 -9.281,2.625 -0.494,4.257 2.046,5.875 9.281,5.875 4.536,0 6.84,-0.465 8,-1.625 0.899,-0.899 1.48,-2.798 1.312,-4.25 -0.302,-2.615 -0.342,-2.625 -9.312,-2.625 z m -108.125,0.906 c -0.977,0.032 -2.097,0.123 -3.312,0.25 -7.102,0.742 -7.699,1.091 -8.625,4.781 l -0.719,2.875 4.75,-0.656 c 2.606,-0.357 6.7,-1.521 9.125,-2.594 6.482,-2.867 5.62,-4.88 -1.219,-4.656 z m 214.906,0 c -5.553,0.081 -5.895,1.994 0.125,4.656 2.426,1.073 6.55,2.236 9.156,2.594 l 4.75,0.656 -0.719,-2.875 c -0.927,-3.69 -1.556,-4.039 -8.656,-4.781 -1.824,-0.19 -3.374,-0.268 -4.656,-0.25 z m -170.156,2.625 c -1.254,0.067 -8.935,11.517 -8.219,12.25 1.213,1.243 11.627,3.132 13.438,2.438 0.917,-0.352 1.656,-1.153 1.656,-1.781 0,-1.51 -6.09,-12.949 -6.875,-12.907 z m 126.781,0 c -1.27,-0.065 -7.051,12.138 -6.469,13.656 0.48,1.255 1.598,1.478 5.344,1.031 2.603,-0.31 6.022,-1.057 7.594,-1.656 l 2.845,-1.094 -2.406,-3.219 c -1.33,-1.779 -3.309,-4.474 -4.375,-5.969 -1.067,-1.495 -2.197,-2.732 -2.533,-2.749 z m -90.968,3.594 c -1.519,0.129 -3.701,1.449 -7.219,4 -3.684,2.672 -6.719,5.408 -6.719,6.062 0,1.881 2.96,4.312 5.219,4.312 2.651,0 8.205,-3.429 10.719,-6.625 1.384,-1.76 1.715,-3.115 1.156,-4.625 -0.808,-2.182 -1.638,-3.253 -3.156,-3.124 z m 54.718,0 c -1.197,0.051 -1.932,0.922 -2.562,2.594 -1.14,3.018 0.14,5.201 5.125,8.812 4.562,3.305 7.858,3.765 10.219,1.406 2.563,-2.564 1.919,-3.709 -5.031,-8.75 -3.876,-2.809 -6.211,-4.128 -7.751,-4.062 z m -127.25,2.781 c -0.852,0.047 -1.697,0.188 -2.5,0.469 -1.761,0.614 -4.42,1.125 -5.906,1.125 -7.443,0 -11.273,3.619 -12.594,11.875 -0.626,3.915 -0.451,4.258 4.469,9 2.818,2.716 5.125,5.415 5.125,6 0,3.103 10.871,5.337 15.062,3.094 2.368,-1.268 4.938,-6.044 4.938,-9.188 0,-1.286 0.9,-4.124 2,-6.281 1.1,-2.157 2,-4.739 2,-5.75 0,-5.631 -6.629,-10.673 -12.594,-10.344 z m 198.938,0 c -5.595,0.383 -11.345,5.115 -11.345,10.344 0,1.011 0.9,3.592 2,5.75 1.101,2.158 2,4.995 2,6.281 0,3.144 2.602,7.92 4.97,9.188 4.19,2.243 15.03,0.009 15.03,-3.094 0,-0.585 2.309,-3.284 5.125,-6 4.921,-4.742 5.096,-5.085 4.47,-9 -1.32,-8.256 -5.151,-11.875 -12.595,-11.875 -1.485,0 -4.146,-0.511 -5.905,-1.125 -1.205,-0.42 -2.459,-0.557 -3.75,-0.469 z m -98.906,1.594 c -8.49,0 -9.373,3.171 -2.969,10.781 3.089,3.671 3.555,3.544 7.594,-2.031 4.696,-6.483 3.511,-8.75 -4.625,-8.75 z m -105.125,3.063 c 2.844,-0.152 6.146,2.42 9.656,7.719 1.667,2.518 3.031,5.155 3.031,5.875 0,2.94 -11.741,7.016 -16.938,5.875 -3.772,-0.829 -4.624,-4.336 -2.656,-10.875 1.679,-5.576 4.063,-8.443 6.907,-8.594 z m 210.531,0.031 c 2.863,0.104 5.067,2.881 6.75,8.469 1.461,4.853 1.527,5.678 0.75,8.625 -0.553,2.088 -5.275,3.213 -9.595,2.281 -4.696,-1.014 -10.75,-4.289 -10.75,-5.812 0,-2.056 5.81,-10.299 8.5,-12.062 1.604,-1.051 3.043,-1.549 4.345,-1.501 z m -117.969,1.906 c -3.279,0 -5.15,8.694 -2.812,13.062 1.506,2.814 7.359,2.642 9.406,-0.281 1.92,-2.741 1.924,-3.15 0.062,-6.75 -1.397,-2.702 -5.061,-6.031 -6.656,-6.031 z m 25.188,0 c -1.717,0 -5.843,4.1 -7.031,6.969 -1.062,2.564 -1.016,3.409 0.375,5.531 2.019,3.081 7.905,3.542 9.531,0.75 2.451,-4.209 0.484,-13.25 -2.875,-13.25 z m -34.157,1 c -2.943,0 -10.906,6.344 -10.906,8.688 0,1.654 7.157,5.312 10.375,5.312 1.351,0 2.691,-0.562 2.969,-1.25 1.304,-3.231 -0.513,-12.75 -2.438,-12.75 z m 43.75,0.25 c -1.662,0.02 -2.464,1.654 -3.188,5.938 -1.329,7.866 1.82,9.778 9.594,5.812 2.178,-1.111 3.938,-2.649 3.938,-3.406 0,-1.708 -6.103,-7.154 -9.062,-8.094 -0.487,-0.154 -0.899,-0.255 -1.282,-0.25 z m -126.718,0.594 c -1.497,-0.059 -2.903,0.405 -3.812,1.5 -1.79,2.157 -2.419,7.229 -1.188,9.531 1.546,2.889 8.223,2.965 11.062,0.125 2.388,-2.388 2.478,-3.233 0.562,-6.938 -1.329,-2.57 -4.129,-4.121 -6.624,-4.218 z m 208.843,0.187 c -1.065,0.012 -2.188,0.198 -3.219,0.594 -1.616,0.62 -4.562,5.357 -4.562,7.344 0,4.338 10.675,7.035 12.97,3.281 1.252,-2.048 0.652,-7.814 -1.031,-9.844 -0.769,-0.924 -2.381,-1.395 -4.158,-1.375 z m -299.031,0.219 v 12.156 c 0.753,-0.243 1.46,-0.568 2.031,-0.969 4.005,-2.805 2.306,-9.863 -2.031,-11.187 z m 389.531,0.031 c -4.388,1.407 -6.121,8.312 -2.062,11.156 0.577,0.404 1.301,0.725 2.062,0.969 v -12.125 z m -54.75,0.719 c -1.984,0.014 -4.014,0.815 -5.438,2.625 -5.517,7.012 0.642,12.293 8.655,7.406 2.071,-1.263 3.25,-2.794 3.25,-4.188 0.002,-3.655 -3.158,-5.866 -6.467,-5.843 z m -280,0.031 c -3.313,-0.044 -6.531,2.11 -6.531,5.656 0,4.371 9.692,8.245 12.812,5.125 1.81,-1.81 1.443,-5.241 -0.875,-8.188 -1.394,-1.772 -3.418,-2.566 -5.406,-2.593 z m 72.907,0.969 c -3.446,0 -4.68,0.51 -6.344,2.625 -2.414,3.068 -2.669,5.668 -0.688,7.312 1.078,0.895 2.978,0.788 8.125,-0.406 3.69,-0.856 7.107,-1.793 7.594,-2.094 3.528,-2.18 -2.612,-7.437 -8.687,-7.437 z m 134.062,0 c -5.016,0 -10.254,3.552 -9.219,6.25 0.85,2.211 14.428,5.247 16.344,3.656 1.974,-1.637 1.724,-4.218 -0.688,-7.281 -1.673,-2.128 -2.906,-2.625 -6.437,-2.625 z m -115.625,1 c -3.838,0 -3.734,2.372 0.25,6.094 2.976,2.78 5.798,3.67 7.219,2.25 2.634,-2.634 -2.475,-8.344 -7.469,-8.344 z m 97.281,0 c -3.838,0 -8.331,3.614 -7.938,6.375 0.467,3.272 3.998,3.17 7.625,-0.219 4.034,-3.767 4.167,-6.156 0.313,-6.156 z m -48.656,8 c -0.124,0 -1.924,1.35 -4,3 -3.022,2.402 -4.744,3 -8.625,3 h -4.844 l -1.156,4.594 c -0.914,3.631 -1.934,5.064 -5,7 -4.191,2.646 -4.349,3.168 -2.438,8.406 1.048,2.872 1.048,4.195 -0.062,7.375 -1.849,5.296 -1.862,5.277 2.5,8.031 3.066,1.936 4.086,3.4 5,7.031 l 1.156,4.562 h 4.844 c 3.881,0 5.603,0.598 8.625,3 2.076,1.65 3.876,3 4,3 0.124,0 1.924,-1.35 4,-3 3.021,-2.402 4.744,-3 8.625,-3 h 4.844 l 1.156,-4.562 c 0.914,-3.631 1.965,-5.096 5.031,-7.031 4.362,-2.754 4.351,-2.735 2.5,-8.031 -1.109,-3.18 -1.109,-4.503 -0.062,-7.375 1.911,-5.238 1.754,-5.76 -2.438,-8.406 -3.066,-1.936 -4.117,-3.369 -5.031,-7 l -1.156,-4.594 h -4.844 c -3.881,0 -5.604,-0.598 -8.625,-3 -2.076,-1.65 -3.876,-3 -4,-3 z m -126.687,0.094 c -0.427,0.058 -0.767,0.513 -1.375,1.344 -0.781,1.067 -1.438,2.48 -1.438,3.125 0,1.927 9.763,10.438 11.969,10.438 1.124,0 2.031,-0.357 2.031,-0.812 0,-1.381 -5.688,-9.578 -8.5,-12.219 -1.452,-1.365 -2.139,-1.95 -2.687,-1.876 z m 253.187,0 c -0.518,0.068 -1.179,0.663 -2.469,1.875 -2.812,2.641 -8.531,10.838 -8.531,12.219 0,2.27 4.648,0.317 9.062,-3.812 5.34,-4.995 5.71,-5.958 3.531,-8.938 -0.694,-0.951 -1.075,-1.413 -1.593,-1.344 z m -273.031,2.062 c -0.567,-0.007 -1.089,0.062 -1.5,0.219 -1.752,0.672 -1.916,5.96 -0.344,10.469 1.499,4.299 4.576,4.143 9.219,-0.5 2.017,-2.017 3.656,-3.799 3.656,-3.938 0,-2.486 -7.06,-6.202 -11.031,-6.25 z m 114.031,0.032 c -4.584,0.106 -5.242,4.308 -0.875,9.281 3.387,3.857 6.226,4.442 9.062,1.875 4.34,-3.928 1.305,-9.483 -5.969,-10.938 -0.81,-0.162 -1.563,-0.234 -2.218,-0.218 z m 64.969,0 c -0.664,-0.019 -1.396,0.064 -2.22,0.219 -7.069,1.326 -9.991,6.475 -6.094,10.781 2.56,2.827 5.793,2.219 9.25,-1.719 4.392,-5 3.712,-9.151 -0.936,-9.281 z m 30.156,0.031 c -3.651,0.021 -5.434,2.446 -4.75,6.656 1.248,7.691 7.739,9.269 11.656,2.844 1.081,-1.773 1.967,-3.71 1.969,-4.312 0.007,-1.918 -3.621,-4.453 -7.188,-5.031 -0.595,-0.098 -1.165,-0.16 -1.687,-0.157 z m -239.906,0.031 c -0.688,-0.004 -1.458,0.101 -2.281,0.281 -3.707,0.813 -5.109,3.401 -4.719,8.656 0.548,7.372 4.819,7.732 9.531,0.812 3.668,-5.384 2.285,-9.717 -2.531,-9.749 z m 114,0 c -0.342,0.017 -0.695,0.065 -1.062,0.125 -1.934,0.314 -4.427,1.458 -5.531,2.562 -1.928,1.928 -1.936,2.158 -0.312,5.562 3.053,6.402 8.523,7.073 11.438,1.406 2.814,-5.474 0.595,-9.908 -4.533,-9.655 z m 210.219,0 c -3.193,0.103 -10.252,2.813 -10.875,4.438 -0.336,0.876 0.212,2.55 1.188,3.688 5.453,6.355 9.447,7.382 11.095,2.875 1.56,-4.271 1.415,-10.224 -0.281,-10.875 -0.271,-0.104 -0.671,-0.141 -1.127,-0.126 z m 30,0.094 c -0.867,0.059 -1.701,0.265 -2.375,0.625 -3.343,1.789 -2.405,6.67 2.25,11.781 2.269,2.491 4.671,2.892 6.5,1.062 1.452,-1.452 1.593,-8.213 0.219,-10.781 -0.942,-1.759 -3.993,-2.864 -6.594,-2.687 z m -334.563,0.156 c -0.738,0.032 -1.539,0.194 -2.344,0.5 -4.333,1.647 -3.945,6.144 1.094,12.75 2.641,3.462 4.248,4.002 6.188,2.062 1.513,-1.513 1.544,-8.935 0.062,-12.188 -0.974,-2.137 -2.785,-3.221 -5,-3.124 z m 314.375,0 c -0.357,0.022 -0.729,0.069 -1.062,0.156 -2.697,0.705 -4.387,5.105 -4,10.375 0.603,8.215 5.366,7.544 9.781,-1.375 2.382,-4.812 2.2,-4.085 1.405,-6.156 -0.695,-1.815 -3.613,-3.159 -6.124,-3 z m -207.625,0.469 c -1.883,-0.041 -3.513,2.373 -5.219,7.531 -2.853,8.629 -2.873,9.182 -0.469,10.469 3.294,1.763 6.664,-0.317 8.375,-5.156 2.021,-5.716 2.044,-9.3 0.062,-11.281 -1.006,-1.008 -1.893,-1.545 -2.749,-1.563 z m 101.781,0 c -0.854,0.019 -1.773,0.556 -2.781,1.562 -2.051,2.051 -2.046,4.871 0,10.875 1.799,5.276 5.016,7.395 8.438,5.562 2.404,-1.287 2.385,-1.839 -0.469,-10.469 -1.705,-5.158 -3.305,-7.571 -5.188,-7.53 z m -127.406,6.031 c -2.33,0 -4,2.859 -4,6.875 0,5.103 8.252,9.664 12.938,7.156 1.132,-0.606 2.062,-1.488 2.062,-1.969 0,-1.966 -9.202,-12.062 -11,-12.062 z m 153.031,0 c -1.798,0 -11.031,10.096 -11.031,12.062 0,1.644 4.136,3.074 7.031,2.438 1.592,-0.35 4.037,-1.523 5.438,-2.625 4.049,-3.186 2.997,-11.875 -1.438,-11.875 z m -117.25,0.094 c -1.424,0.128 -2.618,1.595 -3.875,4.438 -1.104,2.497 -1.892,5.534 -1.719,6.75 0.27,1.895 0.884,2.209 4.312,2.062 2.2,-0.094 5.237,-0.67 6.75,-1.25 3.587,-1.375 3.506,-3.742 -0.312,-8.375 -2.095,-2.542 -3.732,-3.753 -5.156,-3.625 z m 81.407,0 c -1.422,-0.079 -3.051,1.149 -5.125,3.656 -4.377,5.29 -3.752,7.416 2.656,9.125 2.854,0.762 5.893,1.11 6.75,0.781 2.084,-0.799 1.909,-4.236 -0.438,-9.406 -1.22,-2.69 -2.422,-4.077 -3.843,-4.156 z m -208.657,0.094 c -1.137,-0.012 -2.288,0.926 -3.875,2.812 -3.235,3.845 -4.114,6.737 -2.625,8.531 1.669,2.012 7.684,2.937 10.562,1.625 3.307,-1.507 3.242,-6.024 -0.156,-10.062 -1.616,-1.921 -2.768,-2.894 -3.906,-2.906 z m 336.188,0.125 c -1.136,-0.034 -2.267,0.821 -3.75,2.469 -3.604,4 -3.973,8.622 -0.812,10.312 2.398,1.284 8.289,0.626 10.438,-1.156 1.952,-1.62 1.769,-3.101 -0.845,-6.938 -2.14,-3.142 -3.572,-4.644 -5.031,-4.687 z m -168.219,0.187 c 6.355,0 7.441,0.318 11.688,3.375 3.242,2.334 5.312,4.847 6.75,8.188 1.141,2.65 2.068,6.527 2.062,8.625 -0.016,5.826 -4.098,13.315 -9.156,16.812 -3.811,2.635 -5.197,3 -11.344,3 -6.355,0 -7.41,-0.318 -11.656,-3.375 -11.554,-8.318 -11.554,-24.932 0,-33.25 4.246,-3.057 5.301,-3.375 11.656,-3.375 z m -131.656,1.5 c -1.027,0 -3.916,1.892 -6.406,4.188 -3.471,3.2 -4.449,4.774 -4.219,6.75 0.209,1.797 0.989,2.651 2.562,2.875 2.434,0.346 12.812,-5.094 13.531,-7.094 0.838,-2.331 -2.732,-6.719 -5.468,-6.719 z m 263.031,0.188 c -1.34,0.017 -2.52,0.811 -3.75,2.375 -2.674,3.4 -1.906,4.843 4.375,8.438 5.106,2.921 8.468,3.721 9.845,2.344 1.813,-1.813 0.335,-5.396 -3.812,-9.219 -2.918,-2.688 -4.935,-3.96 -6.658,-3.938 z m -131.625,2 c -2.621,0.042 -5.269,0.706 -7.719,2.094 -7.899,4.474 -10.659,14.379 -6.219,22.219 2.77,4.891 8.767,8.469 14.188,8.469 5.42,0 11.449,-3.578 14.219,-8.469 1.3,-2.295 2.25,-5.693 2.25,-8 0,-2.307 -0.95,-5.674 -2.25,-7.969 -3.076,-5.431 -8.702,-8.437 -14.469,-8.344 z m -194.5,5.718 v 8.688 c 0.094,-0.008 0.188,-0.024 0.25,-0.062 0.561,-0.347 1,-2.272 1,-4.25 0,-1.773 -0.28,-2.983 -1.25,-4.376 z m 389.531,0 c -0.971,1.393 -1.281,2.603 -1.281,4.375 0,2.499 0.384,3.881 1.281,4.156 v -8.531 z m -194.437,1.438 c 3.133,0.103 6.166,1.747 7.719,4.75 1.775,3.434 1.795,5.686 0.062,8.812 -1.474,2.658 -5.154,5.008 -7.906,5.062 -8.015,0.158 -12.411,-10.276 -6.719,-15.969 1.89,-1.889 4.407,-2.735 6.844,-2.655 z m -116.5,0.687 c -2.863,0.053 -3.844,2.174 -3.844,8.469 0,4.754 0.415,6.846 1.5,7.531 2.267,1.433 2.921,1.235 6.094,-1.938 1.762,-1.762 2.906,-3.994 2.906,-5.594 0,-2.501 -4.716,-8.504 -6.656,-8.468 z m 232.562,0.094 c -1.003,0.007 -2.001,0.845 -3.969,2.812 -3.252,3.251 -3.709,6.511 -1.375,9.844 3.062,4.373 7.744,5.09 8.844,1.375 0.966,-3.263 -0.072,-12.315 -1.5,-13.219 -0.812,-0.514 -1.398,-0.816 -2,-0.812 z m -303.031,0.906 c -0.157,0.017 -0.263,0.044 -0.344,0.125 -1.115,1.114 -1.761,7.727 -1.094,11.281 0.688,3.666 2.236,4.482 4.406,2.312 1.88,-1.88 1.105,-11.753 -1.031,-13.094 -0.702,-0.439 -1.466,-0.673 -1.937,-0.624 z m 103.219,0 c -0.773,0.246 -1.094,2.46 -1.094,7.469 0,4.125 0.392,7.5 0.875,7.5 1.345,0 8.161,-2.961 10.844,-4.719 1.315,-0.861 2.26,-2.26 2.094,-3.125 -0.296,-1.539 -10.09,-7.092 -12.562,-7.125 -0.057,-0.001 -0.105,-0.016 -0.157,0 z m 166.656,0 c -0.688,0.009 -3.725,1.258 -6.75,2.781 -3.808,1.917 -5.5,3.353 -5.5,4.688 0,1.335 1.692,2.771 5.5,4.688 3.025,1.523 6.062,2.803 6.75,2.812 0.892,0.012 1.25,-2.158 1.25,-7.5 0,-5.342 -0.359,-7.48 -1.25,-7.469 z m 102.875,0.063 c -0.438,0.064 -0.938,0.269 -1.405,0.562 -2.086,1.309 -2.908,10.789 -1.125,12.938 1.61,1.941 3.666,1.77 4.28,-0.344 0.696,-2.393 0.135,-12.085 -0.75,-12.969 -0.197,-0.197 -0.561,-0.251 -1,-0.187 z m -312.219,0.781 c -3.146,-0.132 -7.729,2.026 -9.438,5.219 -1.592,2.975 3.637,7.906 8.375,7.906 1.921,0 3.723,-0.562 4,-1.25 0.73,-1.809 0.772,-8.306 0.062,-10.156 -0.426,-1.113 -1.569,-1.659 -2.999,-1.719 z m 253,0.125 c -3.517,0 -4.406,1.287 -4.406,6.5 0,5.328 0.849,6.5 4.688,6.5 2.515,0 4.283,-0.814 6.438,-2.969 2.455,-2.455 2.812,-3.306 1.938,-4.938 -1.613,-3.009 -5.137,-5.093 -8.658,-5.093 z m -219.187,0.031 c -3.278,0.019 -4.555,0.77 -6.125,3.75 -3.387,6.43 6.229,12.918 10.375,7 0.856,-1.223 1.531,-3.15 1.531,-4.281 0,-3.347 -2.799,-6.486 -5.781,-6.469 z m 184.594,0 c -2.982,-0.017 -5.812,3.122 -5.812,6.469 0,3.348 2.83,6.518 5.812,6.5 3.17,-0.018 4.458,-0.781 6,-3.5 1.443,-2.545 1.465,-3.147 0.062,-5.812 -1.514,-2.875 -2.81,-3.638 -6.062,-3.657 z m -92.063,0.032 c -1.818,-0.033 -3.692,0.496 -4.906,1.594 -2.279,2.062 -2.384,7.104 -0.188,9.531 2.062,2.279 7.104,2.354 9.531,0.156 2.279,-2.062 2.354,-7.073 0.156,-9.5 -1.03,-1.139 -2.775,-1.748 -4.593,-1.781 z m -34.125,1.031 c -0.657,0.009 -1.475,0.076 -2.469,0.188 -10.946,1.234 -9.285,10.719 1.875,10.719 1.841,0 3.442,-0.797 4.438,-2.219 1.963,-2.802 1.938,-3.756 -0.094,-6.656 -1.067,-1.524 -1.778,-2.059 -3.75,-2.032 z m 69.688,0 c -2.75,-0.065 -5.081,0.995 -6.219,3.031 -1.324,2.37 -1.269,2.916 0.344,5.375 1.629,2.484 2.186,2.691 6.375,2.219 3.102,-0.35 5.212,-1.244 6.406,-2.719 2.188,-2.701 0.961,-5.6 -2.97,-7.094 -1.352,-0.514 -2.686,-0.782 -3.936,-0.812 z m 114.625,0.937 c -1.946,0.042 -3.938,1.771 -3.938,4.469 0,4.203 4.949,6.163 6.938,2.75 1.304,-2.238 1.296,-2.949 0.031,-5.312 -0.724,-1.353 -1.863,-1.932 -3.031,-1.907 z m -301,0.032 c -1.198,0.073 -2.371,0.795 -3.062,2.312 -2.058,4.517 2.596,8.779 5.938,5.438 0.66,-0.66 1.188,-2.157 1.188,-3.312 -0.002,-2.874 -2.067,-4.561 -4.064,-4.438 z m -18.5,0.437 c -6.75,0 -7.783,0.239 -8.438,2 -0.409,1.1 -0.327,3.078 0.156,4.375 0.835,2.243 1.235,2.331 8.406,1.969 5.24,-0.265 7.819,-0.848 8.469,-1.875 1.183,-1.871 1.192,-3.081 0,-4.969 -0.707,-1.121 -2.868,-1.5 -8.593,-1.5 z m 338.156,0 c -7.531,0 -9.562,0.849 -9.562,4 0,2.99 2.149,3.976 9.438,4.344 7.172,0.362 7.57,0.274 8.405,-1.969 0.482,-1.297 0.533,-3.275 0.125,-4.375 -0.654,-1.761 -1.656,-2 -8.406,-2 z m -113.625,0.5 c -2.674,0.142 -4.97,1.406 -4.97,3.5 0,3.627 6.761,4.77 10.938,1.844 l 2.375,-1.656 -2.25,-1.844 c -1.695,-1.373 -4.013,-1.954 -6.093,-1.844 z m -111.094,0.25 c -3.45,-0.111 -7.156,1.444 -7.156,3.25 0,2.064 4.827,3.801 8.594,3.094 3.043,-0.57 3.688,-1.107 3.688,-3.094 0,-1.986 -0.645,-2.523 -3.688,-3.094 -0.471,-0.088 -0.945,-0.14 -1.438,-0.156 z m -139.125,5.344 v 8.531 c 0.97,-1.393 1.25,-2.635 1.25,-4.406 0,-2.479 -0.367,-3.834 -1.25,-4.125 z m 389.531,0 c -0.897,0.276 -1.281,1.627 -1.281,4.125 0,1.771 0.312,3.014 1.281,4.406 v -8.531 z m -334.187,2.656 c -1.698,0.021 -2.657,0.972 -2.875,2.844 -0.23,1.976 0.748,3.551 4.219,6.75 5.232,4.822 7.62,5.176 10.438,1.594 2.684,-3.412 1.938,-4.834 -4.469,-8.5 -3.196,-1.829 -5.615,-2.709 -7.313,-2.688 z m 278.844,0 c -1.698,-0.021 -4.148,0.859 -7.344,2.688 -6.407,3.666 -7.152,5.088 -4.47,8.5 2.817,3.582 5.236,3.229 10.47,-1.594 3.472,-3.199 4.447,-4.774 4.219,-6.75 -0.218,-1.872 -1.177,-2.822 -2.875,-2.844 z m -210.813,1.125 c -0.39,0.019 -0.763,0.045 -1.125,0.125 -6.743,1.48 -9.85,7.121 -6.938,12.562 1.779,3.324 4.619,2.221 9.406,-3.656 2.505,-3.075 4.531,-5.988 4.531,-6.469 0.001,-1.438 -3.146,-2.691 -5.874,-2.562 z m 141.594,0 c -2.379,0.212 -4.72,1.329 -4.72,2.562 0,0.48 2.058,3.394 4.562,6.469 4.711,5.783 7.564,6.952 9.375,3.844 0.561,-0.963 1.015,-3.158 1.031,-4.906 0.035,-3.608 -3.164,-6.795 -7.938,-7.844 -0.722,-0.159 -1.517,-0.195 -2.31,-0.125 z m -237.313,0.813 c -0.83,-0.027 -1.732,0.033 -2.719,0.219 -6.378,1.196 -7.046,4.634 -2.031,10.594 3.175,3.773 4.549,3.779 7.781,-0.062 4.618,-5.49 2.78,-10.56 -3.031,-10.751 z m 123.188,0.031 c -0.45,10e-4 -0.817,0.043 -1.031,0.125 -2.083,0.799 -1.909,4.236 0.438,9.406 2.442,5.381 4.82,5.514 8.969,0.5 4.376,-5.289 3.752,-7.416 -2.656,-9.125 -2.143,-0.571 -4.371,-0.91 -5.72,-0.906 z m 87.844,0 c -1.35,-0.004 -3.577,0.335 -5.719,0.906 -6.408,1.709 -7.033,3.836 -2.656,9.125 4.148,5.014 6.526,4.881 8.969,-0.5 2.348,-5.17 2.521,-8.607 0.438,-9.406 -0.216,-0.082 -0.583,-0.124 -1.032,-0.125 z m 123.5,0.031 c -1.503,-0.02 -2.882,0.206 -3.781,0.688 -3.159,1.691 -2.792,6.312 0.812,10.312 3.394,3.766 4.979,3.335 8.78,-2.25 2.612,-3.837 2.797,-5.286 0.845,-6.906 -1.343,-1.114 -4.152,-1.811 -6.656,-1.844 z m -221.469,1.156 c -0.812,-0.024 -1.675,0.167 -2.531,0.625 -2.404,1.287 -2.384,1.84 0.469,10.469 2.48,7.504 4.747,9.223 7.969,6 2.051,-2.051 2.077,-4.871 0.031,-10.875 -1.349,-3.957 -3.502,-6.145 -5.938,-6.219 z m 108.094,0 c -2.437,0.073 -4.59,2.262 -5.938,6.219 -2.046,6.004 -2.051,8.824 0,10.875 3.157,3.157 5.541,1.494 7.906,-5.5 2.828,-8.361 2.877,-9.713 0.531,-10.969 -0.855,-0.458 -1.687,-0.649 -2.499,-0.625 z m -209.125,2.782 c -1.812,0.166 -4.169,2.627 -6.438,7.312 -2.289,4.729 -1.834,7.252 1.531,8.531 3.099,1.178 6.034,0.209 7.312,-2.375 0.588,-1.189 0.988,-4.369 0.875,-7.062 -0.187,-4.46 -1.469,-6.572 -3.28,-6.406 z m 309.718,0 c -1.886,-0.117 -3.156,2.084 -3.156,6.406 0,7.881 3.206,11.419 8.5,9.406 1.259,-0.479 2.528,-1.465 2.812,-2.188 0.756,-1.926 -0.169,-4.799 -2.938,-9.094 -1.893,-2.937 -3.751,-4.439 -5.218,-4.53 z m -335.218,1.875 c -0.569,0.005 -1.13,0.213 -1.688,0.562 -2.066,1.295 -2.885,8.312 -1.312,11.25 1.303,2.435 6.257,3.625 9,2.156 2.696,-1.443 2.627,-4.898 -0.188,-9.031 -2.291,-3.364 -4.105,-4.952 -5.812,-4.937 z m 361.156,0 c -1.707,-0.015 -3.554,1.573 -5.845,4.938 -2.813,4.133 -2.884,7.588 -0.188,9.031 2.592,1.387 7.619,0.357 8.938,-1.844 1.599,-2.669 0.771,-10.297 -1.25,-11.562 -0.557,-0.351 -1.086,-0.559 -1.655,-0.563 z m -370.813,0.156 c -0.288,0.014 -0.594,0.078 -0.938,0.188 -0.693,0.221 -2.074,1.219 -3.594,2.469 v 9.906 c 0.088,0.029 0.161,0.064 0.25,0.094 l 7,2.25 v 5.688 c -0.019,6.83 -0.309,7.336 -5.75,10.094 l -1.5,0.75 v 6.875 c 1.259,2.639 2.25,5.838 2.25,7.375 0,1.639 1.125,5.102 2.5,7.688 1.375,2.586 2.523,6.107 2.531,7.812 0.024,4.919 0.911,5.625 5.781,4.531 2.732,-0.614 4.937,-0.619 6.094,0 2.088,1.117 7.094,7.459 7.094,8.969 0,0.521 -1.552,3.175 -3.531,6.062 h 8.344 c -0.122,-0.195 -0.219,-0.397 -0.344,-0.594 l -3.531,-5.5 3.625,-4.938 c 2.926,-3.986 4.502,-5.158 8.094,-6.062 3.212,-0.809 4.821,-1.896 5.844,-3.875 0.779,-1.508 3.074,-4.066 5.094,-5.688 3.652,-2.93 3.688,-2.972 2.344,-6.688 -1.241,-3.434 -1.171,-4.092 0.969,-8.125 3.931,-7.41 4.646,-7.748 11.969,-5.469 3.466,1.079 6.718,1.969 7.219,1.969 1.321,0 1.12,-2.918 -0.594,-8.688 -2.417,-8.141 -3.661,-8.397 -8.688,-1.812 -4.747,6.218 -6.003,6.492 -14,3.094 -2.944,-1.251 -3.954,-2.416 -4.906,-5.594 -1.009,-3.367 -1.637,-4 -3.875,-4 -1.463,0 -5.034,-0.7 -7.938,-1.562 -4.772,-1.417 -5.581,-1.432 -8.531,-0.031 -2.925,1.388 -3.864,1.408 -9.031,0.062 -3.172,-0.826 -6.177,-1.735 -6.656,-2.031 -0.479,-0.296 -0.867,-3.345 -0.875,-6.75 -0.017,-6.241 -0.707,-8.567 -2.72,-8.469 z m 380.063,0 c -1.697,0.239 -2.298,2.674 -2.312,8.469 -0.009,3.405 -0.396,6.454 -0.875,6.75 -0.479,0.296 -3.483,1.205 -6.656,2.031 -5.168,1.346 -6.105,1.325 -9.03,-0.062 -2.951,-1.4 -3.76,-1.386 -8.531,0.031 -2.903,0.862 -6.475,1.562 -7.938,1.562 -2.236,0 -2.865,0.633 -3.875,4 -0.951,3.178 -1.963,4.343 -4.905,5.594 -8.023,3.41 -9.254,3.119 -14.095,-3.219 l -4.405,-5.75 -1.781,2.219 c -1.915,2.364 -4.646,12.76 -3.625,13.781 0.336,0.336 3.648,-0.332 7.375,-1.469 7.843,-2.395 8.48,-2.115 12.438,5.344 2.141,4.033 2.211,4.691 0.97,8.125 -1.345,3.716 -1.31,3.758 2.344,6.688 2.021,1.621 4.283,4.18 5.062,5.688 1.023,1.979 2.663,3.066 5.875,3.875 3.593,0.904 5.168,2.076 8.095,6.062 l 3.594,4.938 -3.531,5.5 c -0.126,0.197 -0.221,0.396 -0.344,0.594 h 8.375 c -1.979,-2.888 -3.562,-5.542 -3.562,-6.062 0,-1.51 5.037,-7.852 7.125,-8.969 1.156,-0.619 3.33,-0.614 6.062,0 4.87,1.094 5.788,0.388 5.812,-4.531 0.01,-1.705 1.125,-5.227 2.5,-7.812 1.375,-2.585 2.5,-6.049 2.5,-7.688 0,-1.543 1.016,-4.762 2.281,-7.406 v -6.844 l -1.5,-0.75 c -5.44,-2.758 -5.73,-3.264 -5.75,-10.094 l -0.031,-5.688 7,-2.25 c 0.101,-0.032 0.184,-0.062 0.281,-0.094 v -9.906 c -1.52,-1.25 -2.899,-2.248 -3.594,-2.469 -0.521,-0.165 -0.958,-0.243 -1.349,-0.188 z m -44.688,0.812 c -3.603,0.056 -10.092,6.681 -9.094,9.281 0.712,1.856 9.852,5.137 12,4.312 1.752,-0.672 1.916,-5.96 0.344,-10.469 -0.78,-2.237 -1.72,-3.147 -3.25,-3.124 z m -290.093,0.032 c -1.541,-0.086 -2.688,0.944 -3.438,3.094 -1.572,4.509 -1.409,9.797 0.344,10.469 1.887,0.725 11.272,-2.379 11.906,-3.938 0.836,-2.055 0.72,-2.249 -3.031,-6 -2.321,-2.322 -4.24,-3.54 -5.781,-3.625 z m 81.562,0.156 c -2.304,-0.123 -4.787,1.674 -6.594,5.031 l -2,3.719 2.031,2.031 c 2.936,2.936 8.618,3.695 10.875,1.438 2.244,-2.244 1.522,-7.916 -1.375,-10.812 -0.878,-0.88 -1.89,-1.352 -2.937,-1.407 z m 126.938,0.062 c -2.631,0.125 -4.985,2.549 -5.688,6.875 -0.78,4.812 1.667,7.274 6.438,6.5 1.897,-0.309 4.281,-1.316 5.312,-2.25 2.358,-2.135 2.349,-3.12 -0.094,-7.125 -1.714,-2.81 -3.923,-4.097 -5.968,-4 z m 53.156,0.594 c -0.756,-0.053 -1.22,0.26 -1.22,0.969 0,1.381 5.721,9.547 8.531,12.188 2.581,2.424 2.673,2.432 4.062,0.531 2.179,-2.979 1.809,-3.911 -3.531,-8.906 -3.034,-2.84 -6.178,-4.667 -7.842,-4.782 z m -234.25,0.125 c -2.206,0 -11.969,8.51 -11.969,10.438 0,0.645 0.657,2.058 1.438,3.125 1.389,1.9 1.482,1.893 4.062,-0.531 1.45,-1.362 3.943,-4.493 5.562,-6.938 3.488,-5.266 3.617,-6.094 0.907,-6.094 z m 89.5,0 c -2.613,0 -8.469,6.15 -8.469,8.906 0,4.348 6.2,5.179 11.719,1.562 4.308,-2.822 1.935,-10.468 -3.25,-10.468 z m 56.281,0 c -5.28,0 -7.806,7.443 -3.53,10.438 3.186,2.231 8.526,3.045 10.312,1.562 0.818,-0.68 1.469,-2.08 1.469,-3.094 -0.001,-2.637 -5.802,-8.906 -8.251,-8.906 z m -130.031,2.125 c -4.571,0.137 -9.719,1.867 -9.719,4 0,0.586 -2.307,3.284 -5.125,6 -4.92,4.742 -5.095,5.085 -4.469,9 1.32,8.256 5.151,11.875 12.594,11.875 1.486,0 4.146,0.512 5.906,1.125 4.271,1.489 11.529,-1.166 13.594,-4.969 1.979,-3.645 1.846,-6.056 -0.5,-10.656 -1.1,-2.158 -2,-4.964 -2,-6.25 0,-3.144 -2.569,-7.951 -4.938,-9.219 -1.31,-0.701 -3.265,-0.968 -5.343,-0.906 z m 202.344,0 c -1.607,0.059 -3.046,0.346 -4.094,0.906 -2.368,1.268 -4.97,6.075 -4.97,9.219 0,1.286 -0.899,4.092 -2,6.25 -1.1,2.158 -2,4.77 -2,5.781 0,6.746 7.896,11.584 15.906,9.781 2.528,-0.568 6.222,-1.271 8.188,-1.562 4.839,-0.719 6.727,-2.283 8.405,-7 2.36,-6.627 1.933,-8.265 -3.5,-13.5 -2.75,-2.65 -5,-5.289 -5,-5.875 0.002,-2.327 -6.111,-4.175 -10.935,-4 z m -207.094,8.094 c 3.049,0.047 6.556,1.052 10.281,2.938 2.062,1.044 3.75,2.468 3.75,3.188 0,2.056 -5.809,10.299 -8.5,12.062 -5.146,3.371 -8.622,1.152 -11.094,-7.062 -1.968,-6.539 -1.116,-10.016 2.656,-10.844 0.899,-0.198 1.89,-0.298 2.907,-0.282 z m 212.719,0.344 c 2.841,-0.039 5.402,0.217 5.719,0.531 1.357,1.354 1.44,6.743 0.156,10.75 -2.485,7.753 -6.043,9.852 -11.062,6.562 -2.69,-1.764 -8.5,-10.007 -8.5,-12.062 -0.001,-2.279 8.114,-5.703 13.687,-5.781 z m -210.688,2.343 c -2.218,0.024 -4.29,0.774 -5.062,2.219 -1.232,2.302 -0.603,7.374 1.188,9.531 2.449,2.951 8.325,1.221 10.719,-3.156 1.583,-2.894 1.408,-4.248 -0.844,-6.5 -1.421,-1.42 -3.783,-2.118 -6.001,-2.094 z m 115.375,0 c -1.928,0.115 -3.919,0.992 -4.969,2.594 -1.391,2.122 -1.438,2.967 -0.375,5.531 1.188,2.869 5.314,6.969 7.031,6.969 0.437,0 1.511,-0.698 2.375,-1.562 1.792,-1.792 2.103,-8.563 0.531,-11.5 -0.798,-1.493 -2.665,-2.147 -4.593,-2.032 z m -22.531,0.032 c -1.641,0.105 -3.123,0.77 -3.781,2 -2.249,4.201 -0.492,13.062 2.594,13.062 1.638,0 4.733,-2.569 6.406,-5.312 2.351,-3.855 2.404,-4.617 0.406,-7.469 -1.152,-1.645 -3.516,-2.418 -5.625,-2.281 z m 116.125,0 c -2.22,0.014 -4.604,0.697 -5.97,2.062 -2.399,2.4 -2.442,3.214 -0.469,7.031 2.5,4.834 8.947,5.396 11.188,0.969 1.541,-3.047 1.613,-5.514 0.25,-8.062 -0.723,-1.353 -2.78,-2.014 -4.999,-2 z m -241.906,0.062 c -3.817,0.006 -9.062,3.566 -9.062,6.156 0,5.848 8.141,8.045 11.938,3.219 3.666,-4.662 2.222,-9.383 -2.876,-9.375 z m 115.312,0 c -3.199,0 -10.375,3.695 -10.375,5.344 0,2.352 7.946,8.656 10.906,8.656 0.57,0 1.484,-1.463 2,-3.25 2.005,-6.943 1.107,-10.75 -2.531,-10.75 z m 44.25,0 c -2.998,0 -4.043,2.559 -3.156,7.812 1.232,7.295 3.54,7.756 10.094,2 1.889,-1.658 3.438,-3.618 3.438,-4.375 -0.001,-1.724 -7.067,-5.437 -10.376,-5.437 z m 115.625,0.094 c -4.859,-0.256 -7.293,4.022 -3.155,9.281 2.433,3.093 7.241,3.549 10.094,0.969 2.896,-2.62 2.29,-6.07 -1.438,-8.344 -2.005,-1.222 -3.881,-1.82 -5.501,-1.906 z m -210.062,0.375 c -0.803,0.037 -1.332,0.247 -1.75,0.594 -2.005,1.664 -1.767,4.232 0.656,7.312 2.702,3.435 9.312,3.703 13.344,0.531 4.305,-3.386 3.011,-5.17 -5.25,-7.219 -3.562,-0.883 -5.662,-1.279 -7,-1.218 z m 267.093,0.125 c -0.765,0.244 -1.482,0.563 -2.062,0.969 -4.007,2.807 -2.278,9.898 2.062,11.219 V -85.74 z m -389.531,0.031 v 12.094 c 0.847,-0.233 1.667,-0.678 2.438,-1.375 2.627,-2.378 2.396,-7.818 -0.406,-9.781 -0.572,-0.401 -1.28,-0.696 -2.032,-0.938 z m 266.719,0.031 c -4.413,-0.036 -13.498,2.297 -14.188,4.094 -1.035,2.697 4.203,6.25 9.219,6.25 3.531,0 4.765,-0.496 6.438,-2.625 2.41,-3.063 2.66,-5.645 0.688,-7.281 -0.36,-0.299 -1.139,-0.43 -2.157,-0.438 z m -115.531,0.563 c -2.656,0.286 -7.938,4.914 -7.938,7.188 0,2.354 5.189,2.023 8.438,-0.531 3.19,-2.51 3.164,-6.199 -0.031,-6.656 -0.153,-0.023 -0.292,-0.021 -0.469,-10e-4 z m 86.906,0.031 c -1.4,-0.04 -2.393,0.739 -2.625,2.375 -0.395,2.761 4.1,6.375 7.938,6.375 3.854,0 3.722,-2.389 -0.312,-6.156 -1.815,-1.695 -3.601,-2.554 -5.001,-2.594 z m -214.875,4.563 5.25,1.25 c 6.272,1.505 13.17,4.447 14.5,6.188 0.53,0.693 1.933,4.307 3.125,8.031 1.192,3.724 2.142,7.324 2.125,8 -0.049,1.955 -8.998,14.695 -11.344,16.156 -1.171,0.729 -5.625,1.603 -9.906,1.938 l -7.781,0.625 -4.406,-4.094 c -6.591,-6.076 -8.94,-11.578 -8.094,-19.062 1.029,-9.095 1.805,-10.303 9.5,-14.875 l 7.031,-4.157 z m 343.062,0 7.062,4.156 c 4.188,2.488 7.392,5.158 7.938,6.594 0.505,1.326 1.176,5.244 1.5,8.688 0.721,7.641 -1.381,12.529 -8.062,18.688 l -4.406,4.062 -7.781,-0.625 c -4.28,-0.335 -8.729,-1.204 -9.906,-1.938 -2.273,-1.416 -11.375,-14.435 -11.375,-16.281 0,-1.774 4.264,-14.532 5.312,-15.906 1.33,-1.74 8.228,-4.683 14.5,-6.188 l 5.218,-1.25 z m -171.468,0.906 c -0.867,0.014 -1.742,0.896 -3.094,2.5 -6.404,7.61 -5.521,10.781 2.969,10.781 2.848,0 5.715,-0.527 6.375,-1.188 1.793,-1.793 1.479,-3.106 -1.75,-7.562 -2.272,-3.136 -3.385,-4.55 -4.5,-4.531 z m -36.313,3.375 c -1.42,-0.047 -2.624,0.438 -3.656,1.469 -2.564,2.564 -1.919,3.74 5.031,8.781 6.888,4.995 8.838,5.26 10.281,1.438 1.139,-3.018 -0.108,-5.201 -5.094,-8.812 -2.565,-1.861 -4.736,-2.816 -6.562,-2.876 z m 72.531,0 c -1.826,0.061 -3.996,1.016 -6.562,2.875 -4.984,3.611 -6.265,5.795 -5.125,8.812 1.442,3.822 3.425,3.558 10.312,-1.438 6.95,-5.041 7.596,-6.217 5.031,-8.781 -1.032,-1.032 -2.236,-1.515 -3.656,-1.468 z m -207.437,1.125 c -2.01,-0.062 -3.288,0.529 -6.094,1.969 -3.773,1.936 -5.039,3.246 -6.156,6.438 -1.276,3.646 -1.184,4.654 0.781,11.125 2.871,9.453 6.513,13.25 12.75,13.25 2.46,0 5.702,-0.627 7.188,-1.406 3.02,-1.584 9.729,-9.3 11.156,-12.812 1.875,-4.615 -1.245,-12.826 -5.75,-15.156 -1.51,-0.781 -5.535,-1.98 -8.969,-2.656 -2.216,-0.438 -3.701,-0.715 -4.906,-0.752 z m 342.187,0.031 c -1.204,0.042 -2.659,0.326 -4.812,0.75 -7.846,1.543 -11.33,3.341 -13.062,6.781 -3.566,7.082 -2.96,10.571 3.094,17.875 4.655,5.616 7.885,7.344 13.625,7.344 5.962,0 9.875,-3.832 12.562,-12.312 2.388,-7.534 2.459,-8.824 0.688,-13.062 -0.98,-2.35 -2.762,-3.996 -6.062,-5.594 -2.715,-1.315 -4.026,-1.851 -6.033,-1.782 z m -111,1.75 c -1.424,0 -2.818,0.642 -3.125,1.438 -0.545,1.42 5.303,13.596 6.5,13.531 0.336,-0.018 2.492,-2.611 4.781,-5.75 2.289,-3.139 3.967,-5.994 3.75,-6.344 -0.549,-0.891 -8.782,-2.875 -11.906,-2.875 z m -119.25,0.156 c -3.225,-0.086 -11.313,1.506 -12.375,2.594 -0.713,0.73 6.969,12.151 8.219,12.219 0.332,0.018 2.003,-2.557 3.719,-5.719 3.582,-6.602 3.822,-8.047 1.5,-8.938 -0.226,-0.086 -0.602,-0.144 -1.063,-0.156 z m -107.468,3.844 c 2.053,0 7.194,5.229 7.219,7.344 0.007,0.646 0.201,2.057 0.438,3.156 0.509,2.361 -0.158,4.349 -2.25,6.75 -3.333,3.825 -15.166,0.888 -16.469,-4.094 -1.261,-4.816 5.746,-13.156 11.062,-13.156 z m 333.281,0.125 c 2.167,-0.097 4.928,1.146 7.188,3.406 3.236,3.236 4.709,7.341 3.656,10.188 -1.864,5.039 -12.903,7.193 -16.5,3.219 -3.594,-3.971 -1.546,-12.93 3.719,-16.25 0.547,-0.346 1.214,-0.531 1.937,-0.563 z m -216.75,0.063 c -3.912,0.224 -9.083,7.625 -7.938,12.188 0.821,3.272 6.116,6.293 8.125,4.625 0.754,-0.625 1.531,-2.566 1.75,-4.312 0.968,-7.727 0.719,-11.736 -0.781,-12.312 -0.369,-0.144 -0.751,-0.213 -1.156,-0.189 z m 100.344,0.031 c -0.471,-0.016 -0.958,0.047 -1.406,0.219 -1.308,0.502 -1.437,1.803 -0.875,7.844 0.824,8.874 2.125,10.558 6.406,8.344 1.668,-0.863 3.25,-2.145 3.531,-2.844 2.032,-5.052 -3.113,-13.409 -7.656,-13.563 z m -34.688,2.719 c -1.412,0.123 -2.197,2.138 -1.531,5.688 0.863,4.605 4.135,7.964 6.125,6.312 1.988,-1.65 1.777,-4.85 -0.562,-8.688 -1.444,-2.366 -2.934,-3.408 -4.032,-3.312 z m -182.937,0.062 c -2.446,0 -6.049,2.92 -7.125,5.75 -2.08,5.471 5.379,10.25 10.625,6.812 1.754,-1.149 2.438,-2.494 2.438,-4.75 -10e-4,-3.453 -3.301,-7.812 -5.938,-7.812 z m 91.875,0 c -2.814,0 -5.938,3.585 -5.938,6.844 0,5.473 7.24,8.947 10.938,5.25 1.147,-1.147 2.062,-2.942 2.062,-4 0,-2.654 -4.734,-8.094 -7.062,-8.094 z m 151.156,0 c -2.328,0 -7.095,5.44 -7.095,8.094 0,1.058 0.946,2.853 2.095,4 2.32,2.321 6.041,1.995 9.155,-0.812 3.673,-3.31 0.739,-11.282 -4.155,-11.282 z m -117,0.094 c -1.322,0.057 -2.399,0.664 -3.031,1.844 -1.543,2.884 -1.282,9.635 0.438,11.062 1.674,1.39 5.733,0.682 9.25,-1.594 3.208,-2.074 2.881,-5.705 -0.812,-8.812 -2.056,-1.729 -4.145,-2.572 -5.845,-2.5 z m 82.281,0 c -1.585,0.117 -3.454,0.963 -5.28,2.5 -3.693,3.107 -4.053,6.738 -0.845,8.812 3.519,2.275 7.607,2.983 9.281,1.594 1.72,-1.428 1.98,-8.179 0.438,-11.062 -0.723,-1.35 -2.009,-1.961 -3.594,-1.844 z m 126.906,0.031 c -1.257,-0.012 -2.497,0.68 -3.969,2.062 -3.227,3.031 -3.143,8.214 0.156,10.375 3.091,2.025 7.938,1.145 10.03,-1.844 1.845,-2.633 1.132,-5.509 -2.125,-8.469 -1.55,-1.409 -2.835,-2.112 -4.092,-2.124 z m -183.843,0.125 c -0.99,0.093 -2.21,0.977 -3.406,2.938 -2.259,3.705 -2.592,6.846 -0.906,8.531 1.667,1.666 3.919,0.375 5.469,-3.125 2.157,-4.876 1.02,-8.547 -1.157,-8.344 z m 148.687,0.844 c -0.95,0.023 -2.071,0.332 -3.5,0.875 -2.952,1.123 -4.869,4.232 -4,6.5 1.4,3.65 10.559,5.974 13.188,3.344 1.946,-1.946 1.385,-5.709 -1.25,-8.344 -1.674,-1.674 -2.853,-2.413 -4.438,-2.375 z m -265.5,0.094 c -1.493,-0.006 -2.51,0.604 -4.062,2.156 -4.411,4.41 -2.949,9.656 2.688,9.656 3.269,0 8.34,-2.346 9.094,-4.219 0.836,-2.078 0.736,-2.453 -1.094,-4.656 -0.962,-1.159 -3.187,-2.381 -4.938,-2.719 -0.643,-0.124 -1.19,-0.217 -1.688,-0.218 z m 12.094,1.5 0.719,2.906 c 0.4,1.593 1.191,3.186 1.75,3.531 1.549,0.957 12.545,1.916 14.281,1.25 0.843,-0.323 1.531,-1.01 1.531,-1.531 0,-1.438 -8.18,-4.767 -13.531,-5.5 l -4.75,-0.656 z m 120.781,0.312 c -7.235,0 -9.775,1.617 -9.281,5.875 0.296,2.557 0.511,2.65 8.219,2.938 4.352,0.162 8.514,0.063 9.25,-0.219 1.833,-0.703 1.67,-5.111 -0.25,-7.031 -1.1,-1.1 -3.493,-1.563 -7.938,-1.563 z m 118.188,0 c -3.33,0 -11.861,2.695 -14.188,4.469 -3.08,2.349 -0.16,3.684 6.5,2.969 7.519,-0.807 8.824,-1.246 9.345,-3.219 0.912,-3.468 0.607,-4.219 -1.657,-4.219 z m -146.938,9.313 c -1.097,-0.018 -3.026,0.64 -6.906,2.219 -7.937,3.229 -9.245,5.068 -5.906,8.406 4.144,4.145 10.233,2.203 13.906,-4.438 1.36,-2.459 1.413,-3.581 0.219,-5.469 -0.296,-0.468 -0.655,-0.709 -1.313,-0.718 z m 57.875,0 c -1.196,-0.036 -1.729,0.512 -2.062,1.562 -0.717,2.26 0.617,5.436 3.75,8.875 2.629,2.887 7.927,3.011 10.688,0.25 3.228,-3.227 2.447,-4.915 -3.469,-7.531 -4.754,-2.102 -7.368,-3.11 -8.907,-3.156 z m -124.844,1.187 c -0.697,0.009 -1.401,0.182 -2.156,0.469 -3.537,1.345 -3.332,3.949 0.688,9.219 3.549,4.652 5.904,5.723 8.281,3.75 1.03,-0.855 1.423,-2.693 1.219,-5.844 -0.271,-4.164 -0.647,-4.766 -3.938,-6.375 -1.738,-0.85 -2.931,-1.234 -4.094,-1.219 z m 191.469,0 c -1.161,-0.015 -2.387,0.369 -4.125,1.219 -3.229,1.58 -3.659,2.271 -3.938,6.125 -0.596,8.283 4.128,9.441 9.531,2.344 4.017,-5.275 4.19,-7.875 0.655,-9.219 -0.753,-0.287 -1.426,-0.46 -2.123,-0.469 z m -218.25,0.25 -4.469,0.5 c -2.467,0.278 -5.631,1.271 -7.031,2.188 -2.527,1.656 -2.549,1.688 -0.781,4.719 2.232,3.826 6.881,7.222 8.844,6.469 0.819,-0.314 1.904,-1.594 2.406,-2.844 0.502,-1.25 0.934,-4.247 0.969,-6.656 l 0.062,-4.376 z m 122.5,0.25 c -2.255,0 -4.621,0.559 -5.281,1.219 -3.204,3.203 0.639,11.781 5.281,11.781 1.354,0 3.246,-1.111 4.438,-2.625 2.299,-2.923 2.721,-7.311 0.875,-9.156 -0.661,-0.66 -3.058,-1.219 -5.313,-1.219 z m 122.25,0 0.47,5.562 c 0.592,7.133 2.569,9.442 6.375,7.406 1.459,-0.781 3.718,-2.987 5,-4.875 1.281,-1.888 2.066,-3.83 1.75,-4.344 -0.956,-1.548 -7.069,-3.75 -10.438,-3.75 l -3.157,10e-4 0,0 z m -236.75,0.031 c -0.965,0.01 -1.906,0.254 -2.688,0.75 -3.23,2.055 -4.555,13.942 -1.812,16.219 2.441,2.025 4.399,0.402 7.531,-6.219 3.491,-7.379 3.384,-6.648 1.312,-8.938 -1.066,-1.179 -2.735,-1.828 -4.343,-1.812 z m 228.969,0 c -1.619,-0.001 -3.276,0.688 -4.406,1.938 -1.702,1.881 -1.67,2.192 1.281,8.5 3.223,6.887 5.218,8.581 7.688,6.531 2.743,-2.276 1.388,-14.164 -1.844,-16.219 -0.798,-0.508 -1.748,-0.75 -2.719,-0.75 z m -128.281,4.032 c -1.624,0.244 -2.688,2.434 -2.688,6.5 0,5.597 3.001,9.438 7.375,9.438 1.775,0 3.797,-0.547 4.469,-1.219 1.455,-1.455 1.063,-2.63 -3.094,-9.531 -2.246,-3.729 -4.439,-5.433 -6.062,-5.188 z m 26.968,0.093 c -2.235,0.012 -4.812,3.299 -8.594,10.656 -2.717,5.286 5.961,7.539 9.875,2.562 2.328,-2.959 2.849,-10.183 0.875,-12.156 -0.699,-0.698 -1.411,-1.066 -2.156,-1.062 z m -35.468,1.844 c -1.817,0 -10.188,7.831 -10.188,9.531 0,0.609 2.587,1.91 5.75,2.906 3.163,0.996 6.381,2.078 7.156,2.375 1.158,0.443 1.327,-0.543 0.812,-5.469 -0.781,-7.486 -1.497,-9.343 -3.53,-9.343 z m 44.656,0 c -2.033,0 -2.749,1.857 -3.531,9.344 -0.515,4.926 -0.377,5.912 0.781,5.469 0.775,-0.297 3.995,-1.379 7.156,-2.375 3.162,-0.996 5.75,-2.297 5.75,-2.906 0,-1.701 -8.34,-9.532 -10.156,-9.532 z m 82.281,0.25 c -0.658,-0.104 -1.329,0.328 -2.594,1.156 -1.434,0.938 -3.35,3.296 -4.281,5.25 -1.661,3.485 -1.675,3.575 0.625,5.438 2.334,1.89 7.431,2.488 10.656,1.25 2.508,-0.963 1.34,-7.941 -1.875,-11.156 -1.215,-1.215 -1.872,-1.834 -2.531,-1.938 z m -208.906,0.125 c -0.833,-0.008 -1.596,0.564 -2.875,1.844 -2.932,2.932 -4.278,9.57 -2.219,10.875 2.233,1.414 8.238,1.037 10.656,-0.656 1.222,-0.856 2.221,-2.094 2.219,-2.75 -0.006,-2.063 -3.79,-7.502 -6.062,-8.719 -0.696,-0.372 -1.22,-0.589 -1.719,-0.594 z m -90.469,0.813 v 11.75 c 0.689,-0.421 1.331,-0.894 1.875,-1.438 2.774,-2.773 3.025,-5.168 0.844,-8.281 -0.819,-1.168 -1.726,-1.842 -2.719,-2.031 z m 389.531,0.125 c -0.873,0.202 -1.693,0.738 -2.438,1.656 -1.007,1.244 -1.845,3.123 -1.845,4.188 0,2.031 1.882,4.134 4.281,5.625 l 0.002,-11.469 0,0 z m -335.156,0.781 c -1.429,0.038 -2.732,0.88 -4.031,2.531 -1.14,1.449 -2.094,3.014 -2.094,3.469 0,3.213 12.169,8.845 14.656,6.781 2.244,-1.862 1.549,-4.67 -2.25,-8.875 -2.406,-2.664 -4.444,-3.955 -6.281,-3.906 z m 280.781,0 c -1.837,-0.049 -3.875,1.242 -6.281,3.906 -3.799,4.205 -4.524,7.013 -2.28,8.875 1.689,1.402 9.385,-1.037 12.53,-3.969 2.646,-2.465 2.648,-2.994 0.062,-6.281 -1.298,-1.651 -2.601,-2.493 -4.031,-2.531 z m -208.562,1.156 c -0.418,0.016 -0.792,0.082 -1.125,0.188 -1.005,0.318 -3.343,2.129 -5.188,4.031 -2.729,2.815 -3.395,4.357 -3.594,8.25 -0.134,2.631 -0.572,6.705 -0.969,9.031 -0.073,0.428 -0.117,0.824 -0.156,1.219 h 7.906 c -1.133,-1.056 -2.076,-2.176 -2.688,-3.312 -2.338,-4.342 -1.369,-5.892 5.969,-9.312 6.172,-2.877 10.076,-3.009 11.469,-0.406 1.262,2.357 1.23,8.63 0.031,13.031 h 8.719 c 3.088,-5.466 1.014,-11.141 -5.656,-14.5 -1.905,-0.959 -4.29,-2.771 -5.281,-4.031 -1.821,-2.316 -6.508,-4.298 -9.437,-4.189 z m 136.344,0 c -2.93,-0.109 -7.617,1.873 -9.438,4.188 -0.991,1.261 -3.377,3.072 -5.28,4.031 -6.677,3.361 -8.724,9.03 -5.625,14.5 h 8.655 c -0.305,-1.327 -0.538,-2.962 -0.719,-4.938 -0.637,-7.016 0.744,-10.031 4.531,-10 3.08,0.025 10.786,3.288 13.438,5.688 2.243,2.029 2.212,3.08 -0.188,6.719 -0.561,0.852 -1.331,1.712 -2.219,2.531 h 7.812 c -0.033,-0.241 -0.054,-0.449 -0.094,-0.719 -0.387,-2.602 -0.825,-6.9 -0.969,-9.531 -0.212,-3.879 -0.874,-5.444 -3.595,-8.25 -1.844,-1.902 -4.183,-3.713 -5.188,-4.031 -0.33,-0.106 -0.703,-0.172 -1.121,-0.188 z m 16.875,9.156 c -0.518,-0.136 -0.724,0.495 -1.125,2.094 -0.437,1.736 -0.282,7.306 0.125,11.469 h 6.344 c -0.502,-4.427 -2.591,-11.284 -3.969,-12.531 -0.643,-0.583 -1.065,-0.95 -1.375,-1.032 z m -170.282,0.188 c -1.417,-0.008 -3.256,3.74 -4.344,9.312 -0.352,1.805 -0.573,3.079 -0.688,4.062 h 6.312 c 0.46,-5.037 0.329,-11.641 -0.375,-12.75 -0.267,-0.423 -0.578,-0.622 -0.905,-0.624 z m 241.344,0.906 c -2.566,0.064 -4.625,3.543 -4.625,8.312 0,1.669 0.21,3.043 0.562,4.156 h 8.344 c 3.795,-4.52 2.381,-10.315 -3.156,-12.281 -0.384,-0.136 -0.758,-0.197 -1.125,-0.187 z m -312.406,0.219 c -3.006,-0.183 -6.219,2.76 -6.219,6.781 0,2.043 0.845,3.979 2.062,5.469 h 8.656 c 0.849,-3.266 0.142,-9.107 -1.688,-10.938 -0.832,-0.834 -1.809,-1.252 -2.811,-1.312 z m 93.687,0.281 c -3.466,0 -7.834,2.911 -8.531,5.688 -0.543,2.164 -0.083,3.191 2.5,5.5 0.319,0.285 0.632,0.54 0.938,0.781 h 8.031 c 0.331,-0.418 0.658,-0.921 0.969,-1.469 2.415,-4.259 0.095,-10.5 -3.907,-10.5 z M 95.79,-32.303 c -1,-0.054 -2.533,0.509 -4.906,1.5 -0.193,0.08 -0.347,0.17 -0.531,0.25 v 1.219 c 0,4.285 2.966,7.812 6.969,8.719 0.227,-1.086 0.281,-2.719 0.281,-5.188 -10e-4,-4.58 -0.146,-6.41 -1.813,-6.5 z m 9.531,0 c -0.844,0.039 -1.665,0.278 -2.406,0.75 -2.872,1.826 -3.375,8.052 -1.438,11.188 h 8.219 c 0.543,-0.497 0.994,-1.074 1.344,-1.719 1.983,-3.654 1.933,-4.532 -0.5,-7.625 -1.394,-1.771 -3.362,-2.68 -5.219,-2.594 z m 358.719,0 c -1.771,0.174 -3.617,1.311 -5.031,3.469 -1.594,2.432 -1.605,2.859 -0.094,6.031 0.468,0.979 1.068,1.783 1.719,2.438 h 8.125 c 0.418,-0.567 0.74,-1.246 0.969,-2.062 0.37,-1.322 0.728,-2.444 0.781,-2.5 0.055,-0.056 -0.396,-1.515 -1,-3.25 -1.028,-2.948 -3.192,-4.348 -5.469,-4.126 z m 10.312,0 c -1.489,-0.02 -1.75,0.938 -1.75,6.5 0,2.419 0.115,4.078 0.345,5.188 3.983,-0.92 6.938,-4.447 6.938,-8.719 v -1.188 c -2.15,-0.993 -4.35,-1.766 -5.533,-1.781 z m -126.719,0.032 c -0.547,0.018 -1.057,0.131 -1.531,0.312 -3.612,1.387 -4.25,8.041 -1.312,11.594 h 8.031 c 0.237,-0.182 0.472,-0.354 0.719,-0.562 1.692,-1.424 3.062,-3.449 3.062,-4.5 0,-3.344 -5.142,-6.968 -8.969,-6.844 z m -208.218,0.187 c -2.642,0.105 -3.812,2.074 -3.812,6.188 0,2.451 0.4,4.301 1.125,5.531 h 7.75 c 0.659,-0.44 1.344,-0.958 2.062,-1.562 1.692,-1.424 3.062,-3.004 3.062,-3.531 0,-1.721 -5.061,-5.74 -8.094,-6.406 -0.77,-0.17 -1.484,-0.244 -2.093,-0.22 z m 291.187,0.031 c -2.275,0.012 -5.222,1.226 -7.405,3.25 -3.293,3.052 -3.24,3.728 0.5,6.875 0.726,0.61 1.414,1.116 2.094,1.562 h 7.75 c 1.496,-2.836 1.365,-9.493 -0.375,-10.938 -0.625,-0.516 -1.529,-0.755 -2.564,-0.749 z m -175.875,0.532 c -1.773,0.062 -3.307,0.713 -4.062,2.125 -1.968,3.677 -0.336,7.281 2.469,9.031 h 7.312 c 0.405,-0.269 0.779,-0.592 1.156,-0.969 1.1,-1.1 2,-2.9 2,-4 0,-3.63 -4.974,-6.325 -8.875,-6.187 z m 60.781,0 c -3.9,-0.138 -8.906,2.558 -8.906,6.188 0,2.23 1.422,3.984 3.344,4.969 h 7.155 c 0.531,-0.302 1.03,-0.686 1.47,-1.156 2.254,-2.42 2.57,-4.938 1,-7.875 -0.756,-1.414 -2.289,-2.064 -4.063,-2.126 z m -128.968,1.25 c -0.854,0.029 -1.877,0.105 -3.094,0.219 -8.312,0.776 -9.844,1.436 -9.844,4.281 0,2.906 2.155,4.14 8.875,5.031 4.24,0.562 5.545,0.333 7.156,-1.125 2.086,-1.889 2.544,-5.035 1.062,-7.375 -0.509,-0.805 -1.592,-1.119 -4.155,-1.031 z m 196,0 c -1.746,0.039 -2.575,0.36 -3,1.031 -1.481,2.34 -1.023,5.486 1.062,7.375 1.611,1.458 2.916,1.688 7.156,1.125 2.859,-0.379 6.026,-1.149 7.031,-1.688 2.324,-1.244 2.389,-5.463 0.094,-6.344 -0.955,-0.367 -4.597,-0.955 -8.094,-1.281 -1.824,-0.17 -3.202,-0.242 -4.249,-0.218 z m -114.657,0.062 c -1.144,0.041 -1.245,1.105 -1.469,5.031 -0.146,2.547 -0.291,3.886 -0.812,4.812 h 5.562 c 4.042,-2.182 10.183,-4.219 13.938,-4.219 3.755,0 9.896,2.037 13.938,4.219 h 5.562 c -0.521,-0.927 -0.636,-2.266 -0.781,-4.812 -0.299,-5.236 -0.365,-5.346 -3,-4.781 -14.237,3.047 -16.907,3.056 -31.406,0 -0.659,-0.139 -1.15,-0.264 -1.532,-0.25 z m 140.125,0.281 c -2.396,-0.021 -5.406,2.604 -5.406,5.094 0,3.359 3.04,4.87 5.845,2.906 2.614,-1.832 2.965,-6.879 0.53,-7.812 -0.308,-0.118 -0.627,-0.185 -0.969,-0.188 z m -245.937,0.063 c -1.497,0.125 -2.469,1.389 -2.469,3.594 0,3.591 3.448,6.324 6.156,4.875 2.624,-1.404 2.35,-5.57 -0.5,-7.438 -1.195,-0.783 -2.289,-1.106 -3.187,-1.031 z m 254.594,8.531 c -0.806,0 -1.426,0.34 -1.906,0.969 h 5.594 c -1.429,-0.592 -2.746,-0.969 -3.688,-0.969 z m -263.094,0.094 c -0.922,0.011 -2.111,0.309 -3.531,0.875 h 5.625 c -0.448,-0.59 -1.132,-0.887 -2.094,-0.875 z"
   inkscape:connector-curvature="0"
   style="fill:none;stroke:#000000" />
	<path
   id="path3397_3_"
   d="m 480.343,-124.428 v 8.688 c 0.094,-0.008 0.188,-0.024 0.25,-0.062 0.562,-0.347 1,-2.272 1,-4.25 0,-1.773 -0.279,-2.983 -1.25,-4.376 z m 0,12.688 v 8.531 c 0.972,-1.393 1.25,-2.635 1.25,-4.406 0,-2.479 -0.367,-3.834 -1.25,-4.125 z"
   inkscape:connector-curvature="0"
   style="fill:none;stroke:#000000" />
	<defs
   id="defs6">
		
		
			<inkscape:perspective
   id="perspective35"
   sodipodi:type="inkscape:persp3d"
   inkscape:vp_x="0 : 410.56467 : 1"
   inkscape:vp_y="0 : 1000 : 0"
   inkscape:vp_z="567.81738 : 410.56467 : 1"
   inkscape:persp3d-origin="283.90869 : 273.70978 : 1">
			</inkscape:perspective>
		<inkscape:path-effect
   id="path-effect3941"
   effect="spiro"
   is_visible="true" />
		<inkscape:path-effect
   id="path-effect3941-2"
   effect="spiro"
   is_visible="true" />
		<inkscape:path-effect
   id="path-effect3941-1"
   effect="spiro"
   is_visible="true" />
		<inkscape:path-effect
   id="path-effect3941-2-1"
   effect="spiro"
   is_visible="true" />
		<inkscape:path-effect
   id="path-effect3941-1-7"
   effect="spiro"
   is_visible="true" />
		<inkscape:path-effect
   id="path-effect3941-2-1-2"
   effect="spiro"
   is_visible="true" />
		<inkscape:path-effect
   id="path-effect23631"
   effect="spiro"
   is_visible="true" />
		<inkscape:path-effect
   id="path-effect23629"
   effect="spiro"
   is_visible="true" />
		
			<inkscape:perspective
   id="perspective37"
   sodipodi:type="inkscape:persp3d"
   inkscape:vp_x="0 : 526.18109 : 1"
   inkscape:vp_y="0 : 1000 : 0"
   inkscape:vp_z="744.09448 : 526.18109 : 1"
   inkscape:persp3d-origin="372.04724 : 350.78739 : 1">
			</inkscape:perspective>
	</defs>
	
		<sodipodi:namedview
   units="cm"
   id="namedview4"
   inkscape:window-maximized="1"
   fit-margin-left="0.2"
   fit-margin-top="0.2"
   fit-margin-right="0.2"
   fit-margin-bottom="0.2"
   inkscape:window-height="778"
   inkscape:window-width="1280"
   inkscape:pageshadow="2"
   inkscape:pageopacity="0"
   guidetolerance="10"
   gridtolerance="10"
   objecttolerance="10"
   borderopacity="1"
   bordercolor="#666666"
   pagecolor="#ffffff"
   showgrid="false"
   inkscape:zoom="0.5"
   inkscape:cx="222.4204"
   inkscape:cy="498.57664"
   inkscape:window-x="24"
   inkscape:window-y="20"
   inkscape:current-layer="g8680">
		</sodipodi:namedview>
	<g
   id="g3970">
	</g>
	<g
   id="Default"
   transform="matrix(0.02757182,0,0,-0.02757182,-213.253,575.99534)">
		<desc
   id="desc32263">Master slide</desc>
	</g>
	<path
   id="rect8807_3_"
   d="m 470.917,-20.362 c 4.975,0 8.979,-4.005 8.979,-8.979 V -197.26 c 0,-4.975 -4.006,-8.979 -8.979,-8.979 H 99.332 c -4.975,0 -8.98,4.005 -8.98,8.979 v 167.919 c 0,4.975 4.005,8.979 8.98,8.979"
   inkscape:connector-curvature="0"
   style="fill:none;stroke:#ff0000;stroke-width:6" />
	<path
   id="rect8807_1_"
   d="M 470.917,-20.362 H 99.332"
   inkscape:connector-curvature="0"
   style="fill:none;stroke:#ff0000;stroke-width:6" />
	<path
   id="rect8807_22_"
   d="M 480.343,-29.342"
   inkscape:connector-curvature="0"
   style="fill:none;stroke:#ff0000;stroke-width:6" />
	<path
   id="rect8807_21_"
   d="M 480.343,-197.261"
   inkscape:connector-curvature="0"
   style="fill:none;stroke:#ff0000;stroke-width:6" />
</g>
<g
   id="Layer_2"
   display="none"
   style="display:none"
   transform="translate(-87.34375,209.24999)">
</g>
</svg>