<?xml version="1.0" encoding="UTF-8" standalone="no"?>
<!-- Generator: Adobe Illustrator 13.0.0, SVG Export Plug-In . SVG Version: 6.00 Build 14948)  -->

<svg
   xmlns:dc="http://purl.org/dc/elements/1.1/"
   xmlns:cc="http://creativecommons.org/ns#"
   xmlns:rdf="http://www.w3.org/1999/02/22-rdf-syntax-ns#"
   xmlns:svg="http://www.w3.org/2000/svg"
   xmlns="http://www.w3.org/2000/svg"
   xmlns:sodipodi="http://sodipodi.sourceforge.net/DTD/sodipodi-0.dtd"
   xmlns:inkscape="http://www.inkscape.org/namespaces/inkscape"
   version="1.0"
   id="svg2"
   inkscape:output_extension="org.inkscape.output.svg.inkscape"
   sodipodi:version="0.32"
   sodipodi:docname="10_inner_merged.svg"
   inkscape:version="0.48.3.1 r9886"
   x="0px"
   y="0px"
   width="955.62"
   height="778.32098"
   viewBox="0 0 955.62002 778.32101"
   enable-background="new 0 0 389.688 178.344"
   xml:space="preserve"><metadata
   id="metadata3517"><rdf:RDF><cc:Work
       rdf:about=""><dc:format>image/svg+xml</dc:format><dc:type
         rdf:resource="http://purl.org/dc/dcmitype/StillImage" /></cc:Work></rdf:RDF></metadata><defs
   id="defs3515" /><sodipodi:namedview
   pagecolor="#ffffff"
   bordercolor="#666666"
   borderopacity="1"
   objecttolerance="10"
   gridtolerance="10"
   guidetolerance="10"
   inkscape:pageopacity="0"
   inkscape:pageshadow="2"
   inkscape:window-width="1920"
   inkscape:window-height="1000"
   id="namedview3513"
   showgrid="false"
   fit-margin-top="0"
   fit-margin-left="0"
   fit-margin-right="0"
   fit-margin-bottom="0"
   inkscape:zoom="0.74931743"
   inkscape:cx="179.12019"
   inkscape:cy="417.37299"
   inkscape:window-x="0"
   inkscape:window-y="24"
   inkscape:window-maximized="1"
   inkscape:current-layer="svg2" />
<inkscape:perspective
   id="perspective35"
   inkscape:vp_z="567.81738 : 410.56467 : 1"
   inkscape:vp_y="0 : 1000 : 0"
   inkscape:persp3d-origin="283.90869 : 273.70978 : 1"
   sodipodi:type="inkscape:persp3d"
   inkscape:vp_x="0 : 410.56467 : 1">
	</inkscape:perspective>
<inkscape:path-effect
   effect="spiro"
   id="path-effect3941"
   is_visible="true" />
<inkscape:path-effect
   effect="spiro"
   id="path-effect3941-2"
   is_visible="true" />
<inkscape:path-effect
   effect="spiro"
   id="path-effect3941-1"
   is_visible="true" />
<inkscape:path-effect
   effect="spiro"
   id="path-effect3941-2-1"
   is_visible="true" />
<inkscape:path-effect
   effect="spiro"
   id="path-effect3941-1-7"
   is_visible="true" />
<inkscape:path-effect
   effect="spiro"
   id="path-effect3941-2-1-2"
   is_visible="true" />
<inkscape:path-effect
   effect="spiro"
   id="path-effect23631"
   is_visible="true" />
<inkscape:path-effect
   effect="spiro"
   id="path-effect23629"
   is_visible="true" />
<inkscape:perspective
   id="perspective37"
   inkscape:vp_z="744.09448 : 526.18109 : 1"
   inkscape:vp_y="0 : 1000 : 0"
   inkscape:persp3d-origin="372.04724 : 350.78739 : 1"
   sodipodi:type="inkscape:persp3d"
   inkscape:vp_x="0 : 526.18109 : 1">
	</inkscape:perspective>
<desc
   id="desc32263">Master slide</desc>
<g
   id="XMLID_1_"
   transform="translate(271.204,271.776)">
	<g
   id="g3401">
		<path
   d="m 108.886,-93.956 c 0.33,0 0.65,-0.021 0.971,-0.05"
   id="path3403"
   inkscape:connector-curvature="0"
   style="fill:none;stroke:#000000" />
		<path
   d="m 109.856,-94.005 c 4.569,-0.511 8.109,-4.53 8.109,-9.45 v -20.63 h -6.26 c -6.24,0 -11.24,-5.03 -11.24,-11.25 v -12.2 c 0,-6.22 5,-11.24 11.24,-11.24 h 6.26 v -103 c 0,-5.26 -4.05,-9.5 -9.08,-9.5 h -370.529 c -5.02,0 -9.06,4.24 -9.06,9.5 v 158.32 c 0,5.26 4.04,9.5 9.06,9.5 h 370.02"
   id="path3405"
   inkscape:connector-curvature="0"
   style="fill:none;stroke:#000000" />
		<path
   d="m 117.966,-84.625 c -0.09,-5.2 -4.1,-9.33 -9.08,-9.33"
   id="path3407"
   inkscape:connector-curvature="0"
   style="fill:none;stroke:#000000" />
		<path
   d="m -261.644,83.343 h 370.53 c 5.03,0 9.08,-4.229 9.08,-9.5 V 53.224 h -6.26 c -6.24,0 -11.24,-5.011 -11.24,-11.261 v -12.17 c 0,-6.239 5,-11.25 11.24,-11.25 h 6.26 v -103"
   id="path3409"
   inkscape:connector-curvature="0"
   style="fill:none;stroke:#000000" />
		<path
   d="m -261.644,-93.956 c -5.02,0 -9.06,4.221 -9.06,9.5 V 73.845 c 0,5.27 4.04,9.5 9.06,9.5"
   id="path3411"
   inkscape:connector-curvature="0"
   style="fill:none;stroke:#000000" />
		<line
   x1="108.886"
   y1="-93.956001"
   x2="108.376"
   y2="-93.956001"
   id="line3413"
   style="fill:none;stroke:#000000" />
		<path
   d="m 117.966,92.844 c 0,-5.25 -4.05,-9.5 -9.08,-9.5"
   id="path3415"
   inkscape:connector-curvature="0"
   style="fill:none;stroke:#000000" />
		<path
   d="m -261.644,83.343 c -2.35,0 -4.5,0.95 -6.12,2.5 -1.81,1.73 -2.94,4.231 -2.94,7 v 158.32 c 0,5.26 4.04,9.5 9.06,9.5 h 370.53 c 5.03,0 9.08,-4.24 9.08,-9.5 v -20.621 h -6.26 c -6.24,0 -11.24,-5.029 -11.24,-11.25 v -12.199 c 0,-6.221 5,-11.25 11.24,-11.25 h 6.26 v -103"
   id="path3417"
   inkscape:connector-curvature="0"
   style="fill:none;stroke:#000000" />
		<path
   d="m 117.966,407.844 h -6.26 c -6.24,0 -11.24,-5.01 -11.24,-11.25 v -12.18 c 0,-6.24 5,-11.25 11.24,-11.25 h 6.26 v -103 c 0,-5.271 -4.05,-9.5 -9.08,-9.5"
   id="path3419"
   inkscape:connector-curvature="0"
   style="fill:none;stroke:#000000" />
		<line
   x1="117.966"
   y1="428.465"
   x2="117.966"
   y2="407.84399"
   id="line3421"
   style="fill:none;stroke:#000000" />
		<path
   d="m -261.644,260.664 c -5.02,0 -9.06,4.23 -9.06,9.5 v 158.301 c 0,5.279 4.04,9.5 9.06,9.5 h 370.53 c 5.03,0 9.08,-4.221 9.08,-9.5"
   id="path3423"
   inkscape:connector-curvature="0"
   style="fill:none;stroke:#000000" />
		<path
   d="m 506.506,-263.226 c -0.66,-4.57 -4.398,-8.05 -8.959,-8.05 H 127.016 c -5.01,0 -9.05,4.24 -9.05,9.5"
   id="path3425"
   inkscape:connector-curvature="0"
   style="fill:none;stroke:#000000" />
		<path
   d="m 506.617,-124.085 h -6.25 c -6.24,0 -11.25,-5.03 -11.25,-11.25 v -12.2 c 0,-6.22 5.01,-11.24 11.25,-11.24 h 6.25 v -103 c 0,-0.14 0,-0.29 -0.021,-0.43 -0.01,-0.35 -0.041,-0.69 -0.09,-1.02"
   id="path3427"
   inkscape:connector-curvature="0"
   style="fill:none;stroke:#000000" />
		<path
   d="m 506.387,-101.327 c 0.15,-0.68 0.23,-1.4 0.23,-2.13"
   id="path3429"
   inkscape:connector-curvature="0"
   style="fill:none;stroke:#000000" />
		<path
   d="m 497.547,-93.956 c 4.33,0 7.92,-3.141 8.84,-7.37"
   id="path3431"
   inkscape:connector-curvature="0"
   style="fill:none;stroke:#000000" />
		<line
   x1="127.017"
   y1="-93.956001"
   x2="495.87701"
   y2="-93.956001"
   id="line3433"
   style="fill:none;stroke:#000000" />
		<path
   d="m 117.976,-102.956 c 0.25,5.02 4.189,9 9.039,9"
   id="path3435"
   inkscape:connector-curvature="0"
   style="fill:none;stroke:#000000" />
		<path
   d="m 117.966,-103.456 c 0,0.17 0,0.33 0.011,0.5"
   id="path3437"
   inkscape:connector-curvature="0"
   style="fill:none;stroke:#000000" />
		<line
   x1="117.966"
   y1="-158.776"
   x2="117.966"
   y2="-124.085"
   id="line3439"
   style="fill:none;stroke:#000000" />
		<path
   d="m 127.017,-93.956 c -4.961,0 -8.961,4.13 -9.051,9.33 0,0.061 0,0.109 0,0.17"
   id="path3441"
   inkscape:connector-curvature="0"
   style="fill:none;stroke:#000000" />
		<line
   x1="497.547"
   y1="-93.956001"
   x2="495.87701"
   y2="-93.956001"
   id="line3443"
   style="fill:none;stroke:#000000" />
		<path
   d="m 506.316,-86.897 c -1.021,-4.08 -4.551,-7.06 -8.771,-7.06"
   id="path3445"
   inkscape:connector-curvature="0"
   style="fill:none;stroke:#000000" />
		<path
   d="m 506.617,-84.456 c 0,-0.851 -0.102,-1.66 -0.301,-2.439"
   id="path3447"
   inkscape:connector-curvature="0"
   style="fill:none;stroke:#000000" />
		<path
   d="m 506.617,73.464 v -20.24 h -6.25 c -6.24,0 -11.25,-5.01 -11.25,-11.26 v -12.17 c 0,-6.24 5.01,-11.25 11.25,-11.25 h 6.25 v -101.92"
   id="path3449"
   inkscape:connector-curvature="0"
   style="fill:none;stroke:#000000" />
		<path
   d="m 498.137,83.325 c 4.75,-0.312 8.48,-4.421 8.48,-9.479"
   id="path3451"
   inkscape:connector-curvature="0"
   style="fill:none;stroke:#000000" />
		<path
   d="m 117.966,73.843 c 0,5.271 4.04,9.5 9.05,9.5 h 370.531 c 0.199,0 0.4,-0.01 0.59,-0.02"
   id="path3453"
   inkscape:connector-curvature="0"
   style="fill:none;stroke:#000000" />
		<line
   x1="117.966"
   y1="18.544001"
   x2="117.966"
   y2="53.223999"
   id="line3455"
   style="fill:none;stroke:#000000" />
		<path
   d="M 506.617,103.125 V 92.846 c 0,-0.24 -0.012,-0.48 -0.031,-0.721 -0.35,-4.911 -4.24,-8.78 -9.039,-8.78"
   id="path3457"
   inkscape:connector-curvature="0"
   style="fill:none;stroke:#000000" />
		<polyline
   points="506.617,128.375 506.617,126.434 506.617,108.324 506.617,103.125   "
   id="polyline3459"
   style="fill:none;stroke:#000000" />
		<path
   d="m 506.617,230.545 h -6.25 c -6.24,0 -11.25,-5.031 -11.25,-11.25 v -12.201 c 0,-6.219 5.01,-11.25 11.25,-11.25 h 6.25 v -67.469"
   id="path3461"
   inkscape:connector-curvature="0"
   style="fill:none;stroke:#000000" />
		<path
   d="m 127.017,260.664 h 370.53 c 5.029,0 9.07,-4.24 9.07,-9.5"
   id="path3463"
   inkscape:connector-curvature="0"
   style="fill:none;stroke:#000000" />
		<path
   d="m 117.966,251.164 c 0,5.26 4.04,9.5 9.05,9.5"
   id="path3465"
   inkscape:connector-curvature="0"
   style="fill:none;stroke:#000000" />
		<line
   x1="117.966"
   y1="195.84399"
   x2="117.966"
   y2="230.545"
   id="line3467"
   style="fill:none;stroke:#000000" />
		<path
   d="m 127.017,83.343 c -2.37,0 -4.511,0.95 -6.131,2.5 -1.8,1.73 -2.92,4.231 -2.92,7"
   id="path3469"
   inkscape:connector-curvature="0"
   style="fill:none;stroke:#000000" />
		<line
   x1="117.966"
   y1="373.164"
   x2="117.966"
   y2="407.84399"
   id="line3471"
   style="fill:none;stroke:#000000" />
		<path
   d="m 127.017,260.664 c -5.011,0 -9.051,4.23 -9.051,9.5"
   id="path3473"
   inkscape:connector-curvature="0"
   style="fill:none;stroke:#000000" />
		<path
   d="m 117.966,428.465 c 0,5.279 4.04,9.5 9.05,9.5 h 370.531 c 5.029,0 9.07,-4.221 9.07,-9.5 v -20.621 h -6.25 c -6.24,0 -11.25,-5.01 -11.25,-11.25 v -12.18 c 0,-6.24 5.01,-11.25 11.25,-11.25 h 6.25 v -103 c 0,-5.27 -4.041,-9.5 -9.07,-9.5"
   id="path3475"
   inkscape:connector-curvature="0"
   style="fill:none;stroke:#000000" />
		<path
   d="m 516.117,117.385 c -5.271,0 -9.5,4.039 -9.5,9.049"
   id="path3477"
   inkscape:connector-curvature="0"
   style="fill:none;stroke:#000000" />
		<line
   x1="619.117"
   y1="117.385"
   x2="516.117"
   y2="117.385"
   id="line3479"
   style="fill:none;stroke:#000000" />
		<path
   d="m 506.617,428.465 v 68.5 c 0,5.029 4.229,9.08 9.5,9.08 h 158.299 c 5.271,0 9.5,-4.051 9.5,-9.08 V 126.436 c 0,-5.01 -4.229,-9.051 -9.5,-9.051 h -20.619 v 6.25 c 0,6.229 -5.01,11.25 -11.25,11.25 h -12.18 c -6.24,0 -11.25,-5.021 -11.25,-11.25 v -6.25"
   id="path3481"
   inkscape:connector-curvature="0"
   style="fill:none;stroke:#000000" />
		<line
   x1="506.617"
   y1="373.164"
   x2="506.617"
   y2="407.84399"
   id="line3483"
   style="fill:none;stroke:#000000" />
		<line
   x1="506.617"
   y1="251.164"
   x2="506.617"
   y2="270.164"
   id="line3485"
   style="fill:none;stroke:#000000" />
		<line
   x1="506.617"
   y1="230.545"
   x2="506.617"
   y2="251.164"
   id="line3487"
   style="fill:none;stroke:#000000" />
		<line
   x1="506.617"
   y1="195.84399"
   x2="506.617"
   y2="230.545"
   id="line3489"
   style="fill:none;stroke:#000000" />
		<path
   d="m 674.416,117.385 c 5.271,0 9.5,-4.041 9.5,-9.061 v -370.53 c 0,-5.02 -4.229,-9.07 -9.5,-9.07 h -20.619 v 6.24 c 0,6.25 -5.01,11.26 -11.25,11.26 h -12.18 c -6.24,0 -11.25,-5.01 -11.25,-11.26 v -6.24 h -103 c -5.271,0 -9.5,4.05 -9.5,9.07"
   id="path3491"
   inkscape:connector-curvature="0"
   style="fill:none;stroke:#000000" />
		<line
   x1="619.117"
   y1="117.385"
   x2="653.797"
   y2="117.385"
   id="line3493"
   style="fill:none;stroke:#000000" />
		<path
   d="m 506.617,108.324 c 0,5.021 4.229,9.061 9.5,9.061"
   id="path3495"
   inkscape:connector-curvature="0"
   style="fill:none;stroke:#000000" />
		<line
   x1="506.617"
   y1="90.125"
   x2="506.617"
   y2="92.125"
   id="line3497"
   style="fill:none;stroke:#000000" />
		<line
   x1="506.617"
   y1="74.963997"
   x2="506.617"
   y2="90.125"
   id="line3499"
   style="fill:none;stroke:#000000" />
		<polyline
   points="506.617,73.464 506.617,73.843 506.617,74.964   "
   id="polyline3501"
   style="fill:none;stroke:#000000" />
		<line
   x1="506.617"
   y1="18.544001"
   x2="506.617"
   y2="53.223999"
   id="line3503"
   style="fill:none;stroke:#000000" />
		<polyline
   points="506.617,-85.125 506.617,-84.456 506.617,-83.375   "
   id="polyline3505"
   style="fill:none;stroke:#000000" />
		<line
   x1="506.617"
   y1="-101.545"
   x2="506.617"
   y2="-85.125"
   id="line3507"
   style="fill:none;stroke:#000000" />
		<polyline
   points="506.617,-124.085 506.617,-103.456 506.617,-101.545   "
   id="polyline3509"
   style="fill:none;stroke:#000000" />
		<line
   x1="506.617"
   y1="-158.776"
   x2="506.617"
   y2="-124.085"
   id="line3511"
   style="fill:none;stroke:#000000" />
	</g>
</g>
</svg>