<?xml version="1.0" encoding="UTF-8" standalone="no"?>
<!-- Generator: Adobe Illustrator 13.0.0, SVG Export Plug-In . SVG Version: 6.00 Build 14948)  -->

<svg
   xmlns:dc="http://purl.org/dc/elements/1.1/"
   xmlns:cc="http://creativecommons.org/ns#"
   xmlns:rdf="http://www.w3.org/1999/02/22-rdf-syntax-ns#"
   xmlns:svg="http://www.w3.org/2000/svg"
   xmlns="http://www.w3.org/2000/svg"
   xmlns:sodipodi="http://sodipodi.sourceforge.net/DTD/sodipodi-0.dtd"
   xmlns:inkscape="http://www.inkscape.org/namespaces/inkscape"
   version="1.0"
   id="svg2"
   inkscape:output_extension="org.inkscape.output.svg.inkscape"
   sodipodi:version="0.32"
   sodipodi:docname="2_inner_merged.svg"
   inkscape:version="0.48.3.1 r9886"
   x="0px"
   y="0px"
   width="778.32098"
   height="178.321"
   viewBox="0 0 778.32101 178.32101"
   enable-background="new 0 0 389.688 178.344"
   xml:space="preserve"><metadata
   id="metadata3060"><rdf:RDF><cc:Work
       rdf:about=""><dc:format>image/svg+xml</dc:format><dc:type
         rdf:resource="http://purl.org/dc/dcmitype/StillImage" /></cc:Work></rdf:RDF></metadata><defs
   id="defs3058" /><sodipodi:namedview
   pagecolor="#ffffff"
   bordercolor="#666666"
   borderopacity="1"
   objecttolerance="10"
   gridtolerance="10"
   guidetolerance="10"
   inkscape:pageopacity="0"
   inkscape:pageshadow="2"
   inkscape:window-width="1920"
   inkscape:window-height="1000"
   id="namedview3056"
   showgrid="false"
   fit-margin-top="0"
   fit-margin-left="0"
   fit-margin-right="0"
   fit-margin-bottom="0"
   inkscape:zoom="0.74931743"
   inkscape:cx="179.12019"
   inkscape:cy="-182.62699"
   inkscape:window-x="0"
   inkscape:window-y="24"
   inkscape:window-maximized="1"
   inkscape:current-layer="svg2" />
<inkscape:perspective
   id="perspective35"
   inkscape:vp_z="567.81738 : 410.56467 : 1"
   inkscape:vp_y="0 : 1000 : 0"
   inkscape:persp3d-origin="283.90869 : 273.70978 : 1"
   sodipodi:type="inkscape:persp3d"
   inkscape:vp_x="0 : 410.56467 : 1">
	</inkscape:perspective>
<inkscape:path-effect
   effect="spiro"
   id="path-effect3941"
   is_visible="true" />
<inkscape:path-effect
   effect="spiro"
   id="path-effect3941-2"
   is_visible="true" />
<inkscape:path-effect
   effect="spiro"
   id="path-effect3941-1"
   is_visible="true" />
<inkscape:path-effect
   effect="spiro"
   id="path-effect3941-2-1"
   is_visible="true" />
<inkscape:path-effect
   effect="spiro"
   id="path-effect3941-1-7"
   is_visible="true" />
<inkscape:path-effect
   effect="spiro"
   id="path-effect3941-2-1-2"
   is_visible="true" />
<inkscape:path-effect
   effect="spiro"
   id="path-effect23631"
   is_visible="true" />
<inkscape:path-effect
   effect="spiro"
   id="path-effect23629"
   is_visible="true" />
<inkscape:perspective
   id="perspective37"
   inkscape:vp_z="744.09448 : 526.18109 : 1"
   inkscape:vp_y="0 : 1000 : 0"
   inkscape:persp3d-origin="372.04724 : 350.78739 : 1"
   sodipodi:type="inkscape:persp3d"
   inkscape:vp_x="0 : 526.18109 : 1">
	</inkscape:perspective>
<desc
   id="desc32263">Master slide</desc>
<g
   id="XMLID_1_"
   transform="translate(271.204,271.776)">
	<g
   id="g3016">
		<path
   d="m 108.886,-93.956 c 0.33,0 0.65,-0.021 0.971,-0.05"
   id="path3018"
   inkscape:connector-curvature="0"
   style="fill:none;stroke:#000000" />
		<path
   d="m 109.856,-94.005 c 4.569,-0.511 8.109,-4.53 8.109,-9.45 v -20.63 h -6.26 c -6.24,0 -11.24,-5.03 -11.24,-11.25 v -12.2 c 0,-6.22 5,-11.24 11.24,-11.24 h 6.26 v -103 c 0,-5.26 -4.05,-9.5 -9.08,-9.5 h -370.529 c -5.02,0 -9.06,4.24 -9.06,9.5 v 158.32 c 0,5.26 4.04,9.5 9.06,9.5 h 370.02"
   id="path3020"
   inkscape:connector-curvature="0"
   style="fill:none;stroke:#000000" />
		<path
   d="M 108.886,-93.955"
   id="path3022"
   inkscape:connector-curvature="0"
   style="fill:none;stroke:#000000" />
		<line
   x1="108.886"
   y1="-93.956001"
   x2="108.376"
   y2="-93.956001"
   id="line3024"
   style="fill:none;stroke:#000000" />
		<path
   d="m 506.506,-263.226 c -0.66,-4.57 -4.397,-8.05 -8.959,-8.05 H 127.016 c -5.01,0 -9.05,4.24 -9.05,9.5"
   id="path3026"
   inkscape:connector-curvature="0"
   style="fill:none;stroke:#000000" />
		<path
   d="m 506.617,-124.085 h -6.25 c -6.24,0 -11.25,-5.03 -11.25,-11.25 v -12.2 c 0,-6.22 5.01,-11.24 11.25,-11.24 h 6.25 v -103 c 0,-0.14 0,-0.29 -0.021,-0.43 -0.01,-0.35 -0.041,-0.69 -0.09,-1.02"
   id="path3028"
   inkscape:connector-curvature="0"
   style="fill:none;stroke:#000000" />
		<path
   d="m 506.387,-101.327 c 0.15,-0.68 0.23,-1.4 0.23,-2.13"
   id="path3030"
   inkscape:connector-curvature="0"
   style="fill:none;stroke:#000000" />
		<path
   d="m 497.547,-93.956 c 4.33,0 7.92,-3.141 8.84,-7.37"
   id="path3032"
   inkscape:connector-curvature="0"
   style="fill:none;stroke:#000000" />
		<line
   x1="127.017"
   y1="-93.956001"
   x2="495.87701"
   y2="-93.956001"
   id="line3034"
   style="fill:none;stroke:#000000" />
		<path
   d="m 117.976,-102.956 c 0.25,5.02 4.189,9 9.039,9"
   id="path3036"
   inkscape:connector-curvature="0"
   style="fill:none;stroke:#000000" />
		<path
   d="m 117.966,-103.456 c 0,0.17 0,0.33 0.011,0.5"
   id="path3038"
   inkscape:connector-curvature="0"
   style="fill:none;stroke:#000000" />
		<line
   x1="117.966"
   y1="-158.776"
   x2="117.966"
   y2="-124.085"
   id="line3040"
   style="fill:none;stroke:#000000" />
		<path
   d="M 127.017,-93.956"
   id="path3042"
   inkscape:connector-curvature="0"
   style="fill:none;stroke:#000000" />
		<line
   x1="497.547"
   y1="-93.956001"
   x2="495.87701"
   y2="-93.956001"
   id="line3044"
   style="fill:none;stroke:#000000" />
		<path
   d="M 497.545,-93.957"
   id="path3046"
   inkscape:connector-curvature="0"
   style="fill:none;stroke:#000000" />
		<path
   d="M 506.617,-101.545"
   id="path3048"
   inkscape:connector-curvature="0"
   style="fill:none;stroke:#000000" />
		<polyline
   points="506.617,-124.085 506.617,-103.456 506.617,-101.545   "
   id="polyline3050"
   style="fill:none;stroke:#000000" />
		<path
   d="M 506.617,-124.085"
   id="path3052"
   inkscape:connector-curvature="0"
   style="fill:none;stroke:#000000" />
		<path
   d="M 506.617,-158.776"
   id="path3054"
   inkscape:connector-curvature="0"
   style="fill:none;stroke:#000000" />
	</g>
</g>
</svg>