<?xml version="1.0" encoding="UTF-8" standalone="no"?>
<!-- Generator: Adobe Illustrator 13.0.0, SVG Export Plug-In . SVG Version: 6.00 Build 14948)  -->

<svg
   xmlns:dc="http://purl.org/dc/elements/1.1/"
   xmlns:cc="http://creativecommons.org/ns#"
   xmlns:rdf="http://www.w3.org/1999/02/22-rdf-syntax-ns#"
   xmlns:svg="http://www.w3.org/2000/svg"
   xmlns="http://www.w3.org/2000/svg"
   xmlns:sodipodi="http://sodipodi.sourceforge.net/DTD/sodipodi-0.dtd"
   xmlns:inkscape="http://www.inkscape.org/namespaces/inkscape"
   version="1.0"
   id="svg2"
   inkscape:output_extension="org.inkscape.output.svg.inkscape"
   inkscape:version="0.48.3.1 r9886"
   sodipodi:version="0.32"
   sodipodi:docname="5_cluster_inner_merged.svg"
   x="0px"
   y="0px"
   width="566.95099"
   height="532.94098"
   viewBox="0 0 566.95101 532.941"
   enable-background="new 0 0 389.688 178.344"
   xml:space="preserve"><metadata
   id="metadata3187"><rdf:RDF><cc:Work
       rdf:about=""><dc:format>image/svg+xml</dc:format><dc:type
         rdf:resource="http://purl.org/dc/dcmitype/StillImage" /></cc:Work></rdf:RDF></metadata><defs
   id="defs3185" /><sodipodi:namedview
   pagecolor="#ffffff"
   bordercolor="#666666"
   borderopacity="1"
   objecttolerance="10"
   gridtolerance="10"
   guidetolerance="10"
   inkscape:pageopacity="0"
   inkscape:pageshadow="2"
   inkscape:window-width="1920"
   inkscape:window-height="1000"
   id="namedview3183"
   showgrid="false"
   fit-margin-top="0"
   fit-margin-left="0"
   fit-margin-right="0"
   fit-margin-bottom="0"
   inkscape:zoom="0.74931743"
   inkscape:cx="-7.0588088"
   inkscape:cy="138.722"
   inkscape:window-x="0"
   inkscape:window-y="24"
   inkscape:window-maximized="1"
   inkscape:current-layer="svg2" />
<inkscape:perspective
   id="perspective35"
   inkscape:persp3d-origin="283.90869 : 273.70978 : 1"
   inkscape:vp_z="567.81738 : 410.56467 : 1"
   inkscape:vp_y="0 : 1000 : 0"
   inkscape:vp_x="0 : 410.56467 : 1"
   sodipodi:type="inkscape:persp3d">
	</inkscape:perspective>
<inkscape:path-effect
   effect="spiro"
   id="path-effect3941"
   is_visible="true" />
<inkscape:path-effect
   effect="spiro"
   id="path-effect3941-2"
   is_visible="true" />
<inkscape:path-effect
   effect="spiro"
   id="path-effect3941-1"
   is_visible="true" />
<inkscape:path-effect
   effect="spiro"
   id="path-effect3941-2-1"
   is_visible="true" />
<inkscape:path-effect
   effect="spiro"
   id="path-effect3941-1-7"
   is_visible="true" />
<inkscape:path-effect
   effect="spiro"
   id="path-effect3941-2-1-2"
   is_visible="true" />
<inkscape:path-effect
   effect="spiro"
   id="path-effect23631"
   is_visible="true" />
<inkscape:path-effect
   effect="spiro"
   id="path-effect23629"
   is_visible="true" />
<inkscape:perspective
   id="perspective37"
   inkscape:persp3d-origin="372.04724 : 350.78739 : 1"
   inkscape:vp_z="744.09448 : 526.18109 : 1"
   inkscape:vp_y="0 : 1000 : 0"
   inkscape:vp_x="0 : 526.18109 : 1"
   sodipodi:type="inkscape:persp3d">
	</inkscape:perspective>
<desc
   id="desc32263">Master slide</desc>
<g
   id="XMLID_1_"
   transform="translate(85.024999,305.047)">
	<g
   id="g3075">
		<path
   d="m -84.525,-192.045 v -103"
   id="path3077"
   inkscape:connector-curvature="0"
   style="fill:none;stroke:#000000" />
		<path
   d="m -84.525,-136.726 v -20.63"
   id="path3079"
   inkscape:connector-curvature="0"
   style="fill:none;stroke:#000000" />
		<path
   d="M -84.524,-117.896"
   id="path3081"
   inkscape:connector-curvature="0"
   style="fill:none;stroke:#000000" />
		<path
   d="m -84.524,-14.728 v -103"
   id="path3083"
   inkscape:connector-curvature="0"
   style="fill:none;stroke:#000000" />
		<path
   d="M -84.524,40.572 V 19.954"
   id="path3085"
   inkscape:connector-curvature="0"
   style="fill:none;stroke:#000000" />
		<path
   d="M -84.524,59.573"
   id="path3087"
   inkscape:connector-curvature="0"
   style="fill:none;stroke:#000000" />
		<path
   d="m -84.524,162.572 v -103"
   id="path3089"
   inkscape:connector-curvature="0"
   style="fill:none;stroke:#000000" />
		<path
   d="M -84.524,217.893 V 197.272"
   id="path3091"
   inkscape:connector-curvature="0"
   style="fill:none;stroke:#000000" />
		<path
   d="m 304.016,-296.497 c -0.66,-4.57 -4.396,-8.05 -8.959,-8.05 h -370.53 c -5.01,0 -9.05,4.24 -9.05,9.5"
   id="path3093"
   inkscape:connector-curvature="0"
   style="fill:none;stroke:#000000" />
		<path
   d="m 304.127,-157.355 h -6.25 c -6.24,0 -11.25,-5.03 -11.25,-11.25 v -12.2 c 0,-6.22 5.01,-11.24 11.25,-11.24 h 6.25 v -103 c 0,-0.14 0,-0.29 -0.021,-0.43 -0.01,-0.35 -0.041,-0.69 -0.09,-1.02"
   id="path3095"
   inkscape:connector-curvature="0"
   style="fill:none;stroke:#000000" />
		<path
   d="m 303.896,-134.598 c 0.15,-0.68 0.23,-1.4 0.23,-2.13"
   id="path3097"
   inkscape:connector-curvature="0"
   style="fill:none;stroke:#000000" />
		<path
   d="m 295.057,-127.227 c 4.33,0 7.92,-3.141 8.84,-7.37"
   id="path3099"
   inkscape:connector-curvature="0"
   style="fill:none;stroke:#000000" />
		<line
   x1="-75.473"
   y1="-127.227"
   x2="293.38699"
   y2="-127.227"
   id="line3101"
   style="fill:none;stroke:#000000" />
		<path
   d="m -84.514,-136.227 c 0.25,5.02 4.189,9 9.039,9"
   id="path3103"
   inkscape:connector-curvature="0"
   style="fill:none;stroke:#000000" />
		<path
   d="m -84.524,-136.727 c 0,0.17 0,0.33 0.011,0.5"
   id="path3105"
   inkscape:connector-curvature="0"
   style="fill:none;stroke:#000000" />
		<line
   x1="-84.524002"
   y1="-192.04601"
   x2="-84.524002"
   y2="-157.355"
   id="line3107"
   style="fill:none;stroke:#000000" />
		<path
   d="m -75.473,-127.227 c -4.961,0 -8.961,4.13 -9.051,9.33 0,0.061 0,0.109 0,0.17"
   id="path3109"
   inkscape:connector-curvature="0"
   style="fill:none;stroke:#000000" />
		<line
   x1="295.05701"
   y1="-127.227"
   x2="293.38699"
   y2="-127.227"
   id="line3111"
   style="fill:none;stroke:#000000" />
		<path
   d="m 303.826,-120.167 c -1.021,-4.08 -4.551,-7.06 -8.771,-7.06"
   id="path3113"
   inkscape:connector-curvature="0"
   style="fill:none;stroke:#000000" />
		<path
   d="m 304.127,-117.727 c 0,-0.851 -0.102,-1.66 -0.301,-2.439"
   id="path3115"
   inkscape:connector-curvature="0"
   style="fill:none;stroke:#000000" />
		<path
   d="m 304.127,40.193 v -20.24 h -6.25 c -6.24,0 -11.25,-5.01 -11.25,-11.26 v -12.17 c 0,-6.24 5.01,-11.25 11.25,-11.25 h 6.25 v -101.92"
   id="path3117"
   inkscape:connector-curvature="0"
   style="fill:none;stroke:#000000" />
		<path
   d="m 295.646,50.055 c 4.75,-0.312 8.48,-4.421 8.48,-9.479"
   id="path3119"
   inkscape:connector-curvature="0"
   style="fill:none;stroke:#000000" />
		<path
   d="m -84.524,40.572 c 0,5.271 4.04,9.5 9.05,9.5 h 370.53 c 0.199,0 0.4,-0.01 0.59,-0.02"
   id="path3121"
   inkscape:connector-curvature="0"
   style="fill:none;stroke:#000000" />
		<line
   x1="-84.524002"
   y1="-14.727"
   x2="-84.524002"
   y2="19.954"
   id="line3123"
   style="fill:none;stroke:#000000" />
		<path
   d="M 304.127,69.854 V 59.575 c 0,-0.24 -0.012,-0.479 -0.031,-0.721 -0.35,-4.911 -4.24,-8.78 -9.039,-8.78"
   id="path3125"
   inkscape:connector-curvature="0"
   style="fill:none;stroke:#000000" />
		<polyline
   points="304.127,95.104 304.127,93.163 304.127,75.054 304.127,69.854   "
   id="polyline3127"
   style="fill:none;stroke:#000000" />
		<path
   d="m 304.127,197.274 h -6.25 c -6.24,0 -11.25,-5.031 -11.25,-11.25 v -12.201 c 0,-6.219 5.01,-11.25 11.25,-11.25 h 6.25 V 95.104"
   id="path3129"
   inkscape:connector-curvature="0"
   style="fill:none;stroke:#000000" />
		<path
   d="m -75.473,227.394 h 370.529 c 5.029,0 9.07,-4.24 9.07,-9.5"
   id="path3131"
   inkscape:connector-curvature="0"
   style="fill:none;stroke:#000000" />
		<path
   d="m -84.524,217.894 c 0,5.26 4.04,9.5 9.05,9.5"
   id="path3133"
   inkscape:connector-curvature="0"
   style="fill:none;stroke:#000000" />
		<line
   x1="-84.524002"
   y1="162.573"
   x2="-84.524002"
   y2="197.274"
   id="line3135"
   style="fill:none;stroke:#000000" />
		<path
   d="m -75.473,50.072 c -2.37,0 -4.511,0.95 -6.131,2.5 -1.8,1.73 -2.92,4.231 -2.92,7"
   id="path3137"
   inkscape:connector-curvature="0"
   style="fill:none;stroke:#000000" />
		<path
   d="M -75.473,227.394"
   id="path3139"
   inkscape:connector-curvature="0"
   style="fill:none;stroke:#000000" />
		<path
   d="M 295.057,227.394"
   id="path3141"
   inkscape:connector-curvature="0"
   style="fill:none;stroke:#000000" />
		<path
   d="M 304.127,93.163"
   id="path3143"
   inkscape:connector-curvature="0"
   style="fill:none;stroke:#000000" />
		<path
   d="M 313.627,84.114"
   id="path3145"
   inkscape:connector-curvature="0"
   style="fill:none;stroke:#000000" />
		<line
   x1="416.62701"
   y1="84.113998"
   x2="313.62701"
   y2="84.113998"
   id="line3147"
   style="fill:none;stroke:#000000" />
		<path
   d="M 416.627,84.114"
   id="path3149"
   inkscape:connector-curvature="0"
   style="fill:none;stroke:#000000" />
		<path
   d="M 471.926,84.114 H 451.307"
   id="path3151"
   inkscape:connector-curvature="0"
   style="fill:none;stroke:#000000" />
		<path
   d="M 304.127,217.894"
   id="path3153"
   inkscape:connector-curvature="0"
   style="fill:none;stroke:#000000" />
		<line
   x1="304.12701"
   y1="197.274"
   x2="304.12701"
   y2="217.894"
   id="line3155"
   style="fill:none;stroke:#000000" />
		<path
   d="M 304.127,197.274"
   id="path3157"
   inkscape:connector-curvature="0"
   style="fill:none;stroke:#000000" />
		<path
   d="M 304.127,162.573"
   id="path3159"
   inkscape:connector-curvature="0"
   style="fill:none;stroke:#000000" />
		<path
   d="m 471.926,84.114 c 5.271,0 9.5,-4.041 9.5,-9.061 v -370.53 c 0,-5.02 -4.229,-9.07 -9.5,-9.07 h -20.619 v 6.24 c 0,6.25 -5.01,11.26 -11.25,11.26 h -12.18 c -6.24,0 -11.25,-5.01 -11.25,-11.26 v -6.24 h -103 c -5.271,0 -9.5,4.05 -9.5,9.07"
   id="path3161"
   inkscape:connector-curvature="0"
   style="fill:none;stroke:#000000" />
		<line
   x1="416.62701"
   y1="84.113998"
   x2="451.30701"
   y2="84.113998"
   id="line3163"
   style="fill:none;stroke:#000000" />
		<path
   d="m 304.127,75.054 c 0,5.021 4.229,9.061 9.5,9.061"
   id="path3165"
   inkscape:connector-curvature="0"
   style="fill:none;stroke:#000000" />
		<line
   x1="304.12701"
   y1="56.854"
   x2="304.12701"
   y2="58.854"
   id="line3167"
   style="fill:none;stroke:#000000" />
		<line
   x1="304.12701"
   y1="41.693001"
   x2="304.12701"
   y2="56.854"
   id="line3169"
   style="fill:none;stroke:#000000" />
		<polyline
   points="304.127,40.193 304.127,40.572 304.127,41.693   "
   id="polyline3171"
   style="fill:none;stroke:#000000" />
		<line
   x1="304.12701"
   y1="-14.727"
   x2="304.12701"
   y2="19.954"
   id="line3173"
   style="fill:none;stroke:#000000" />
		<polyline
   points="304.127,-118.396 304.127,-117.727 304.127,-116.646   "
   id="polyline3175"
   style="fill:none;stroke:#000000" />
		<line
   x1="304.12701"
   y1="-134.815"
   x2="304.12701"
   y2="-118.396"
   id="line3177"
   style="fill:none;stroke:#000000" />
		<polyline
   points="304.127,-157.355 304.127,-136.727 304.127,-134.815   "
   id="polyline3179"
   style="fill:none;stroke:#000000" />
		<line
   x1="304.12701"
   y1="-192.04601"
   x2="304.12701"
   y2="-157.355"
   id="line3181"
   style="fill:none;stroke:#000000" />
	</g>
</g>
</svg>