<?xml version="1.0" encoding="UTF-8" standalone="no"?>
<!-- Generator: Adobe Illustrator 13.0.0, SVG Export Plug-In . SVG Version: 6.00 Build 14948)  -->

<svg
   xmlns:dc="http://purl.org/dc/elements/1.1/"
   xmlns:cc="http://creativecommons.org/ns#"
   xmlns:rdf="http://www.w3.org/1999/02/22-rdf-syntax-ns#"
   xmlns:svg="http://www.w3.org/2000/svg"
   xmlns="http://www.w3.org/2000/svg"
   xmlns:sodipodi="http://sodipodi.sourceforge.net/DTD/sodipodi-0.dtd"
   xmlns:inkscape="http://www.inkscape.org/namespaces/inkscape"
   version="1.0"
   id="svg2"
   inkscape:output_extension="org.inkscape.output.svg.inkscape"
   inkscape:version="0.48.3.1 r9886"
   sodipodi:version="0.32"
   sodipodi:docname="5x1_inner_merged.svg"
   x="0px"
   y="0px"
   width="403.85422"
   height="901.7132"
   viewBox="0 0 403.85422 901.71316"
   enable-background="new 0 0 959.74 779.84"
   xml:space="preserve"><metadata
   id="metadata3243"><rdf:RDF><cc:Work
       rdf:about=""><dc:format>image/svg+xml</dc:format><dc:type
         rdf:resource="http://purl.org/dc/dcmitype/StillImage" /></cc:Work></rdf:RDF></metadata>
<defs
   id="defs3190">
	
	
		<inkscape:perspective
   id="perspective35"
   inkscape:persp3d-origin="283.90869 : 273.70978 : 1"
   inkscape:vp_z="567.81738 : 410.56467 : 1"
   inkscape:vp_y="0 : 1000 : 0"
   inkscape:vp_x="0 : 410.56467 : 1"
   sodipodi:type="inkscape:persp3d">
		</inkscape:perspective>
	<inkscape:path-effect
   effect="spiro"
   id="path-effect3941"
   is_visible="true" />
	<inkscape:path-effect
   effect="spiro"
   id="path-effect3941-2"
   is_visible="true" />
	<inkscape:path-effect
   effect="spiro"
   id="path-effect3941-1"
   is_visible="true" />
	<inkscape:path-effect
   effect="spiro"
   id="path-effect3941-2-1"
   is_visible="true" />
	<inkscape:path-effect
   effect="spiro"
   id="path-effect3941-1-7"
   is_visible="true" />
	<inkscape:path-effect
   effect="spiro"
   id="path-effect3941-2-1-2"
   is_visible="true" />
	<inkscape:path-effect
   effect="spiro"
   id="path-effect23631"
   is_visible="true" />
	<inkscape:path-effect
   effect="spiro"
   id="path-effect23629"
   is_visible="true" />
	
		<inkscape:perspective
   id="perspective37"
   inkscape:persp3d-origin="372.04724 : 350.78739 : 1"
   inkscape:vp_z="744.09448 : 526.18109 : 1"
   inkscape:vp_y="0 : 1000 : 0"
   inkscape:vp_x="0 : 526.18109 : 1"
   sodipodi:type="inkscape:persp3d">
		</inkscape:perspective>
</defs>
<sodipodi:namedview
   units="cm"
   id="namedview4"
   inkscape:window-maximized="1"
   fit-margin-bottom="0.2"
   fit-margin-right="0.2"
   fit-margin-top="0.2"
   fit-margin-left="0.2"
   inkscape:current-layer="svg2"
   inkscape:window-y="24"
   inkscape:window-x="0"
   inkscape:cy="502.78012"
   inkscape:cx="198.82757"
   inkscape:zoom="0.5"
   showgrid="false"
   inkscape:window-height="1000"
   inkscape:window-width="1920"
   inkscape:pageshadow="2"
   inkscape:pageopacity="0"
   guidetolerance="10"
   gridtolerance="10"
   objecttolerance="10"
   borderopacity="1"
   bordercolor="#666666"
   pagecolor="#ffffff">
	</sodipodi:namedview>
<path
   d="m 387.17761,184.9046 c 0.33,0 0.65,-0.021 0.971,-0.05"
   id="path3203"
   inkscape:connector-curvature="0"
   style="fill:none;stroke:#000000" />
<path
   d="m 388.14661,184.8566 c 4.569,-0.511 8.109,-4.53 8.109,-9.45 v -20.63 h -6.26 c -6.24,0 -11.24,-5.03 -11.24,-11.25 v -12.2 c 0,-6.22 5,-11.24 11.24,-11.24 h 6.26 V 17.086597 c 0,-5.26 -4.05,-9.5000001 -9.08,-9.5000001 H 16.646614 c -5.02,0 -9.0599998,4.2400001 -9.0599998,9.5000001 V 175.4066 c 0,5.26 4.0399998,9.5 9.0599998,9.5 H 386.66661"
   id="path3205"
   inkscape:connector-curvature="0"
   style="fill:none;stroke:#000000" />
<path
   d="m 396.25661,194.2366 c -0.09,-5.2 -4.1,-9.33 -9.08,-9.33"
   id="path3207"
   inkscape:connector-curvature="0"
   style="fill:none;stroke:#000000" />
<path
   d="M 16.646614,362.2036 H 387.17661 c 5.03,0 9.08,-4.229 9.08,-9.5 v -20.619 h -6.26 c -6.24,0 -11.24,-5.011 -11.24,-11.261 v -12.17 c 0,-6.239 5,-11.25 11.24,-11.25 h 6.26 v -103"
   id="path3209"
   inkscape:connector-curvature="0"
   style="fill:none;stroke:#000000" />
<path
   d="m 16.646614,184.9046 c -5.02,0 -9.0599998,4.221 -9.0599998,9.5 v 158.301 c 0,5.271 4.0399998,9.5 9.0599998,9.5"
   id="path3211"
   inkscape:connector-curvature="0"
   style="fill:none;stroke:#000000" />
<line
   x1="387.17761"
   y1="184.9046"
   x2="386.66663"
   y2="184.9046"
   id="line3213"
   style="fill:none;stroke:#000000" />
<path
   d="m 396.25661,371.7046 c 0,-5.25 -4.05,-9.5 -9.08,-9.5"
   id="path3215"
   inkscape:connector-curvature="0"
   style="fill:none;stroke:#000000" />
<path
   d="m 16.646614,362.2036 c -2.35,0 -4.5,0.95 -6.12,2.5 -1.8099998,1.73 -2.9399998,4.231 -2.9399998,7 v 158.32 c 0,5.26 4.0399998,9.5 9.0599998,9.5 H 387.17661 c 5.03,0 9.08,-4.24 9.08,-9.5 v -20.621 h -6.26 c -6.24,0 -11.24,-5.028 -11.24,-11.25 v -12.199 c 0,-6.221 5,-11.25 11.24,-11.25 h 6.26 v -103"
   id="path3217"
   inkscape:connector-curvature="0"
   style="fill:none;stroke:#000000" />
<path
   d="m 396.25661,686.7046 h -6.26 c -6.24,0 -11.24,-5.01 -11.24,-11.25 v -12.18 c 0,-6.24 5,-11.25 11.24,-11.25 h 6.26 v -103 c 0,-5.271 -4.05,-9.5 -9.08,-9.5"
   id="path3219"
   inkscape:connector-curvature="0"
   style="fill:none;stroke:#000000" />
<line
   x1="396.25662"
   y1="707.32562"
   x2="396.25662"
   y2="686.70459"
   id="line3221"
   style="fill:none;stroke:#000000" />
<path
   d="m 16.646614,539.5256 c -5.02,0 -9.0599998,4.23 -9.0599998,9.5 v 158.301 c 0,5.279 4.0399998,9.5 9.0599998,9.5 H 387.17661 c 5.03,0 9.08,-4.221 9.08,-9.5"
   id="path3223"
   inkscape:connector-curvature="0"
   style="fill:none;stroke:#000000" />
<path
   d="m 396.25661,175.4046 c 0,0.17 0,0.33 0.011,0.5"
   id="path3225"
   inkscape:connector-curvature="0"
   style="fill:none;stroke:#000000" />
<line
   x1="396.25662"
   y1="120.08559"
   x2="396.25662"
   y2="154.7766"
   id="line3227"
   style="fill:none;stroke:#000000" />
<line
   x1="396.25662"
   y1="297.4046"
   x2="396.25662"
   y2="332.0856"
   id="line3229"
   style="fill:none;stroke:#000000" />
<line
   x1="396.25662"
   y1="474.70462"
   x2="396.25662"
   y2="509.40561"
   id="line3231"
   style="fill:none;stroke:#000000" />
<line
   x1="396.25662"
   y1="652.02563"
   x2="396.25662"
   y2="686.70459"
   id="line3233"
   style="fill:none;stroke:#000000" />
<path
   d="m 396.25661,864.0056 h -6.26 c -6.24,0 -11.24,-5.01 -11.24,-11.25 v -12.18 c 0,-6.24 5,-11.25 11.24,-11.25 h 6.26 v -103 c 0,-5.271 -4.05,-9.5 -9.079,-9.5"
   id="path3235"
   inkscape:connector-curvature="0"
   style="fill:none;stroke:#000000" />
<line
   x1="396.25662"
   y1="884.62659"
   x2="396.25662"
   y2="864.00562"
   id="line3237"
   style="fill:none;stroke:#000000" />
<path
   d="m 16.646614,716.8256 c -5.02,0 -9.0599998,4.23 -9.0599998,9.5 v 158.301 c 0,5.279 4.0399998,9.5 9.0599998,9.5 H 387.17661 c 5.03,0 9.08,-4.221 9.08,-9.5"
   id="path3239"
   inkscape:connector-curvature="0"
   style="fill:none;stroke:#000000" />
<line
   x1="396.25662"
   y1="829.32562"
   x2="396.25662"
   y2="864.00562"
   id="line3241"
   style="fill:none;stroke:#000000" />
</svg>