G75*
G70*
%OFA0B0*%
%FSLAX24Y24*%
%IPPOS*%
%LPD*%
%AMOC8*
5,1,8,0,0,1.08239X$1,22.5*
%
%ADD10C,0.0560*%
%ADD11C,0.0640*%
%ADD12C,0.0740*%
%ADD13OC8,0.0560*%
%ADD14C,0.0740*%
%ADD15C,0.0100*%
%ADD16C,0.0200*%
D10*
X003776Y004371D02*
X003776Y004931D01*
X004776Y004931D02*
X004776Y004371D01*
X005776Y004371D02*
X005776Y004931D01*
X006776Y004931D02*
X006776Y004371D01*
X007776Y004371D02*
X007776Y004931D01*
X008776Y004931D02*
X008776Y004371D01*
X009776Y004371D02*
X009776Y004931D01*
X009776Y007371D02*
X009776Y007931D01*
X008776Y007931D02*
X008776Y007371D01*
X007776Y007371D02*
X007776Y007931D01*
X006776Y007931D02*
X006776Y007371D01*
X005776Y007371D02*
X005776Y007931D01*
X004776Y007931D02*
X004776Y007371D01*
X003776Y007371D02*
X003776Y007931D01*
D11*
X003276Y010331D02*
X003276Y010971D01*
X004276Y010971D02*
X004276Y010331D01*
X005276Y010331D02*
X005276Y010971D01*
X006276Y010971D02*
X006276Y010331D01*
X007276Y010331D02*
X007276Y010971D01*
X008276Y010971D02*
X008276Y010331D01*
X009276Y010331D02*
X009276Y010971D01*
X010276Y010971D02*
X010276Y010331D01*
D12*
X001386Y000871D03*
X003166Y000871D03*
X004386Y000871D03*
X006166Y000871D03*
X007386Y000871D03*
X009166Y000871D03*
X010386Y000871D03*
X012166Y000871D03*
X012166Y003431D03*
X010386Y003431D03*
X009166Y003431D03*
X007386Y003431D03*
X006166Y003431D03*
X004386Y003431D03*
X003166Y003431D03*
X001386Y003431D03*
X011776Y008151D03*
X011776Y009151D03*
D13*
X010276Y009151D03*
X007276Y009151D03*
X006276Y009151D03*
X003276Y009151D03*
X001776Y009151D03*
X001776Y006151D03*
D14*
X011406Y006151D02*
X012146Y006151D01*
X012146Y007151D02*
X011406Y007151D01*
D15*
X011177Y006618D02*
X011078Y006659D01*
X010914Y006823D01*
X010826Y007036D01*
X010826Y007267D01*
X010914Y007480D01*
X011078Y007643D01*
X011291Y007731D01*
X011376Y007731D01*
X011284Y007823D01*
X011196Y008036D01*
X011196Y008267D01*
X011284Y008480D01*
X011448Y008643D01*
X011547Y008684D01*
X011504Y008706D01*
X011437Y008755D01*
X011379Y008812D01*
X011331Y008879D01*
X011294Y008952D01*
X011269Y009029D01*
X011256Y009110D01*
X011256Y009121D01*
X011746Y009121D01*
X011746Y009181D01*
X011256Y009181D01*
X011256Y009192D01*
X011269Y009273D01*
X011294Y009351D01*
X011331Y009424D01*
X011379Y009490D01*
X011437Y009548D01*
X011504Y009596D01*
X011576Y009633D01*
X011654Y009658D01*
X011735Y009671D01*
X011746Y009671D01*
X011746Y009181D01*
X011806Y009181D01*
X012296Y009181D01*
X012296Y009192D01*
X012283Y009273D01*
X012258Y009351D01*
X012221Y009424D01*
X012173Y009490D01*
X012115Y009548D01*
X012049Y009596D01*
X011976Y009633D01*
X011898Y009658D01*
X011817Y009671D01*
X011806Y009671D01*
X011806Y009181D01*
X011806Y009121D01*
X012296Y009121D01*
X012296Y009110D01*
X012283Y009029D01*
X012258Y008952D01*
X012221Y008879D01*
X012173Y008812D01*
X012115Y008755D01*
X012049Y008706D01*
X012005Y008684D01*
X012105Y008643D01*
X012268Y008480D01*
X012356Y008267D01*
X012356Y008036D01*
X012268Y007823D01*
X012176Y007731D01*
X012261Y007731D01*
X012475Y007643D01*
X012516Y007601D01*
X012516Y010243D01*
X012488Y010175D01*
X012252Y009939D01*
X011943Y009811D01*
X011609Y009811D01*
X011300Y009939D01*
X011064Y010175D01*
X010936Y010484D01*
X010936Y010818D01*
X011064Y011127D01*
X011300Y011363D01*
X011368Y011391D01*
X010606Y011391D01*
X010725Y011271D01*
X010806Y011077D01*
X010806Y010226D01*
X010725Y010031D01*
X010576Y009882D01*
X010381Y009801D01*
X010364Y009801D01*
X010204Y009641D01*
X010479Y009641D01*
X010766Y009354D01*
X010766Y008948D01*
X010479Y008661D01*
X010073Y008661D01*
X009786Y008948D01*
X009786Y009223D01*
X009086Y008523D01*
X009086Y008314D01*
X009191Y008209D01*
X009266Y008029D01*
X009266Y007274D01*
X009191Y007094D01*
X009054Y006956D01*
X008874Y006881D01*
X008679Y006881D01*
X008498Y006956D01*
X008361Y007094D01*
X008286Y007274D01*
X008286Y008029D01*
X008361Y008209D01*
X008466Y008314D01*
X008466Y008589D01*
X008466Y008713D01*
X008513Y008827D01*
X009563Y009876D01*
X009381Y009801D01*
X009171Y009801D01*
X008976Y009882D01*
X008827Y010031D01*
X008746Y010226D01*
X008746Y011077D01*
X008827Y011271D01*
X008947Y011391D01*
X008487Y011391D01*
X008522Y011373D01*
X008582Y011330D01*
X008635Y011277D01*
X008678Y011217D01*
X008712Y011152D01*
X008734Y011081D01*
X008746Y011008D01*
X008746Y010701D01*
X008326Y010701D01*
X008326Y010601D01*
X008326Y009863D01*
X008386Y009873D01*
X008456Y009896D01*
X008522Y009929D01*
X008582Y009973D01*
X008635Y010025D01*
X008678Y010085D01*
X008712Y010151D01*
X008734Y010221D01*
X008746Y010294D01*
X008746Y010601D01*
X008326Y010601D01*
X008226Y010601D01*
X008226Y009863D01*
X008166Y009873D01*
X008096Y009896D01*
X008030Y009929D01*
X007970Y009973D01*
X007918Y010025D01*
X007874Y010085D01*
X007841Y010151D01*
X007818Y010221D01*
X007806Y010294D01*
X007806Y010601D01*
X008226Y010601D01*
X008226Y010701D01*
X007806Y010701D01*
X007806Y011008D01*
X007818Y011081D01*
X007841Y011152D01*
X007874Y011217D01*
X007918Y011277D01*
X007970Y011330D01*
X008030Y011373D01*
X008065Y011391D01*
X007606Y011391D01*
X007725Y011271D01*
X007806Y011077D01*
X007806Y010226D01*
X007725Y010031D01*
X007576Y009882D01*
X007381Y009801D01*
X007171Y009801D01*
X006976Y009882D01*
X006827Y010031D01*
X006776Y010153D01*
X006725Y010031D01*
X006576Y009882D01*
X006381Y009801D01*
X006171Y009801D01*
X005976Y009882D01*
X005827Y010031D01*
X005776Y010153D01*
X005725Y010031D01*
X005576Y009882D01*
X005381Y009801D01*
X005171Y009801D01*
X004976Y009882D01*
X004827Y010031D01*
X004746Y010226D01*
X004746Y011077D01*
X004827Y011271D01*
X004947Y011391D01*
X004487Y011391D01*
X004522Y011373D01*
X004582Y011330D01*
X004635Y011277D01*
X004678Y011217D01*
X004712Y011152D01*
X004734Y011081D01*
X004746Y011008D01*
X004746Y010701D01*
X004326Y010701D01*
X004326Y010601D01*
X004326Y009863D01*
X004386Y009873D01*
X004456Y009896D01*
X004522Y009929D01*
X004582Y009973D01*
X004635Y010025D01*
X004678Y010085D01*
X004712Y010151D01*
X004734Y010221D01*
X004746Y010294D01*
X004746Y010601D01*
X004326Y010601D01*
X004226Y010601D01*
X004226Y009863D01*
X004166Y009873D01*
X004096Y009896D01*
X004030Y009929D01*
X003970Y009973D01*
X003918Y010025D01*
X003874Y010085D01*
X003841Y010151D01*
X003818Y010221D01*
X003806Y010294D01*
X003806Y010601D01*
X004226Y010601D01*
X004226Y010701D01*
X003806Y010701D01*
X003806Y011008D01*
X003818Y011081D01*
X003841Y011152D01*
X003874Y011217D01*
X003918Y011277D01*
X003970Y011330D01*
X004030Y011373D01*
X004065Y011391D01*
X003606Y011391D01*
X003725Y011271D01*
X003806Y011077D01*
X003806Y010226D01*
X003725Y010031D01*
X003576Y009882D01*
X003381Y009801D01*
X003171Y009801D01*
X002976Y009882D01*
X002827Y010031D01*
X002746Y010226D01*
X002746Y011077D01*
X002827Y011271D01*
X002947Y011391D01*
X002184Y011391D01*
X002252Y011363D01*
X002488Y011127D01*
X002616Y010818D01*
X002616Y010484D01*
X002488Y010175D01*
X002252Y009939D01*
X001943Y009811D01*
X001609Y009811D01*
X001300Y009939D01*
X001064Y010175D01*
X001036Y010243D01*
X001036Y005059D01*
X001064Y005127D01*
X001300Y005363D01*
X001609Y005491D01*
X001943Y005491D01*
X002252Y005363D01*
X002488Y005127D01*
X002616Y004818D01*
X002616Y004484D01*
X002488Y004175D01*
X002252Y003939D01*
X001943Y003811D01*
X001826Y003811D01*
X001878Y003760D01*
X001966Y003547D01*
X001966Y003316D01*
X001878Y003103D01*
X001820Y003045D01*
X002404Y002461D01*
X004966Y002461D01*
X004966Y003713D01*
X005013Y003827D01*
X005100Y003914D01*
X005100Y003914D01*
X005337Y004151D01*
X005286Y004274D01*
X005286Y005029D01*
X005361Y005209D01*
X005498Y005347D01*
X005679Y005421D01*
X005874Y005421D01*
X006054Y005347D01*
X006191Y005209D01*
X006266Y005029D01*
X006266Y004274D01*
X006191Y004094D01*
X006054Y003956D01*
X005995Y003931D01*
X005981Y003918D01*
X006044Y003938D01*
X006116Y003950D01*
X006116Y003481D01*
X006116Y003381D01*
X006216Y003381D01*
X006216Y002913D01*
X006288Y002924D01*
X006366Y002949D01*
X006439Y002986D01*
X006505Y003035D01*
X006563Y003092D01*
X006611Y003159D01*
X006648Y003232D01*
X006673Y003309D01*
X006685Y003381D01*
X006216Y003381D01*
X006216Y003481D01*
X006685Y003481D01*
X006673Y003553D01*
X006648Y003631D01*
X006611Y003704D01*
X006563Y003770D01*
X006505Y003828D01*
X006439Y003876D01*
X006366Y003913D01*
X006288Y003938D01*
X006216Y003950D01*
X006216Y003481D01*
X006116Y003481D01*
X005647Y003481D01*
X005659Y003553D01*
X005679Y003616D01*
X005586Y003523D01*
X005586Y002213D01*
X005586Y002089D01*
X005539Y001976D01*
X005452Y001888D01*
X005338Y001841D01*
X002338Y001841D01*
X002214Y001841D01*
X002100Y001888D01*
X001059Y002930D01*
X001036Y002952D01*
X001036Y001341D01*
X001058Y001363D01*
X001271Y001451D01*
X001501Y001451D01*
X001715Y001363D01*
X001878Y001200D01*
X001966Y000987D01*
X001966Y000756D01*
X001878Y000543D01*
X001746Y000411D01*
X002924Y000411D01*
X002894Y000426D01*
X002827Y000475D01*
X002769Y000532D01*
X002721Y000599D01*
X002684Y000672D01*
X002659Y000749D01*
X002647Y000821D01*
X003116Y000821D01*
X003116Y000921D01*
X002647Y000921D01*
X002659Y000993D01*
X002684Y001071D01*
X002721Y001144D01*
X002769Y001210D01*
X002827Y001268D01*
X002894Y001316D01*
X002966Y001353D01*
X003044Y001378D01*
X003116Y001390D01*
X003116Y000921D01*
X003216Y000921D01*
X003685Y000921D01*
X003673Y000993D01*
X003648Y001071D01*
X003611Y001144D01*
X003563Y001210D01*
X003505Y001268D01*
X003439Y001316D01*
X003366Y001353D01*
X003288Y001378D01*
X003216Y001390D01*
X003216Y000921D01*
X003216Y000821D01*
X003685Y000821D01*
X003673Y000749D01*
X003648Y000672D01*
X003611Y000599D01*
X003563Y000532D01*
X003505Y000475D01*
X003439Y000426D01*
X003409Y000411D01*
X004026Y000411D01*
X003894Y000543D01*
X003806Y000756D01*
X003806Y000987D01*
X003894Y001200D01*
X004058Y001363D01*
X004271Y001451D01*
X004501Y001451D01*
X004715Y001363D01*
X004878Y001200D01*
X004966Y000987D01*
X004966Y000756D01*
X004878Y000543D01*
X004746Y000411D01*
X005924Y000411D01*
X005894Y000426D01*
X005827Y000475D01*
X005769Y000532D01*
X005721Y000599D01*
X005684Y000672D01*
X005659Y000749D01*
X005647Y000821D01*
X006116Y000821D01*
X006116Y000921D01*
X005647Y000921D01*
X005659Y000993D01*
X005684Y001071D01*
X005721Y001144D01*
X005769Y001210D01*
X005827Y001268D01*
X005894Y001316D01*
X005966Y001353D01*
X006044Y001378D01*
X006116Y001390D01*
X006116Y000921D01*
X006216Y000921D01*
X006685Y000921D01*
X006673Y000993D01*
X006648Y001071D01*
X006611Y001144D01*
X006563Y001210D01*
X006505Y001268D01*
X006439Y001316D01*
X006366Y001353D01*
X006288Y001378D01*
X006216Y001390D01*
X006216Y000921D01*
X006216Y000821D01*
X006685Y000821D01*
X006673Y000749D01*
X006648Y000672D01*
X006611Y000599D01*
X006563Y000532D01*
X006505Y000475D01*
X006439Y000426D01*
X006409Y000411D01*
X007026Y000411D01*
X006894Y000543D01*
X006806Y000756D01*
X006806Y000987D01*
X006894Y001200D01*
X007058Y001363D01*
X007271Y001451D01*
X007501Y001451D01*
X007715Y001363D01*
X007878Y001200D01*
X007966Y000987D01*
X007966Y000756D01*
X007878Y000543D01*
X007746Y000411D01*
X008924Y000411D01*
X008894Y000426D01*
X008827Y000475D01*
X008769Y000532D01*
X008721Y000599D01*
X008684Y000672D01*
X008659Y000749D01*
X008647Y000821D01*
X009116Y000821D01*
X009116Y000921D01*
X008647Y000921D01*
X008659Y000993D01*
X008684Y001071D01*
X008721Y001144D01*
X008769Y001210D01*
X008827Y001268D01*
X008894Y001316D01*
X008966Y001353D01*
X009044Y001378D01*
X009116Y001390D01*
X009116Y000921D01*
X009216Y000921D01*
X009685Y000921D01*
X009673Y000993D01*
X009648Y001071D01*
X009611Y001144D01*
X009563Y001210D01*
X009505Y001268D01*
X009439Y001316D01*
X009366Y001353D01*
X009288Y001378D01*
X009216Y001390D01*
X009216Y000921D01*
X009216Y000821D01*
X009685Y000821D01*
X009673Y000749D01*
X009648Y000672D01*
X009611Y000599D01*
X009563Y000532D01*
X009505Y000475D01*
X009439Y000426D01*
X009409Y000411D01*
X010026Y000411D01*
X009894Y000543D01*
X009806Y000756D01*
X009806Y000987D01*
X009894Y001200D01*
X010058Y001363D01*
X010271Y001451D01*
X010501Y001451D01*
X010715Y001363D01*
X010878Y001200D01*
X010966Y000987D01*
X010966Y000756D01*
X010878Y000543D01*
X010746Y000411D01*
X011924Y000411D01*
X011894Y000426D01*
X011827Y000475D01*
X011769Y000532D01*
X011721Y000599D01*
X011684Y000672D01*
X011659Y000749D01*
X011647Y000821D01*
X012116Y000821D01*
X012116Y000921D01*
X011647Y000921D01*
X011659Y000993D01*
X011684Y001071D01*
X011721Y001144D01*
X011769Y001210D01*
X011827Y001268D01*
X011894Y001316D01*
X011966Y001353D01*
X012044Y001378D01*
X012116Y001390D01*
X012116Y000921D01*
X012216Y000921D01*
X012216Y001390D01*
X012288Y001378D01*
X012366Y001353D01*
X012439Y001316D01*
X012505Y001268D01*
X012516Y001256D01*
X012516Y003046D01*
X012505Y003035D01*
X012439Y002986D01*
X012366Y002949D01*
X012288Y002924D01*
X012216Y002913D01*
X012216Y003381D01*
X012116Y003381D01*
X012116Y002913D01*
X012044Y002924D01*
X011966Y002949D01*
X011894Y002986D01*
X011827Y003035D01*
X011769Y003092D01*
X011721Y003159D01*
X011684Y003232D01*
X011659Y003309D01*
X011647Y003381D01*
X012116Y003381D01*
X012116Y003481D01*
X011647Y003481D01*
X011659Y003553D01*
X011684Y003631D01*
X011721Y003704D01*
X011769Y003770D01*
X011811Y003811D01*
X011609Y003811D01*
X011300Y003939D01*
X011064Y004175D01*
X010936Y004484D01*
X010936Y004818D01*
X011064Y005127D01*
X011300Y005363D01*
X011609Y005491D01*
X011943Y005491D01*
X012252Y005363D01*
X012488Y005127D01*
X012516Y005059D01*
X012516Y005786D01*
X012485Y005755D01*
X012419Y005706D01*
X012346Y005669D01*
X012268Y005644D01*
X012187Y005631D01*
X011826Y005631D01*
X011826Y006101D01*
X011726Y006101D01*
X011726Y005631D01*
X011365Y005631D01*
X011284Y005644D01*
X011206Y005669D01*
X011134Y005706D01*
X011067Y005755D01*
X011009Y005812D01*
X010961Y005879D01*
X010924Y005952D01*
X010899Y006029D01*
X010887Y006101D01*
X011726Y006101D01*
X011726Y006201D01*
X010887Y006201D01*
X010899Y006273D01*
X010924Y006351D01*
X010961Y006424D01*
X011009Y006490D01*
X011067Y006548D01*
X011134Y006596D01*
X011177Y006618D01*
X011088Y006655D02*
X001036Y006655D01*
X001036Y006556D02*
X001488Y006556D01*
X001573Y006641D02*
X001286Y006354D01*
X001286Y005948D01*
X001573Y005661D01*
X001979Y005661D01*
X002266Y005948D01*
X002266Y006354D01*
X001979Y006641D01*
X001573Y006641D01*
X001390Y006458D02*
X001036Y006458D01*
X001036Y006359D02*
X001291Y006359D01*
X001286Y006261D02*
X001036Y006261D01*
X001036Y006162D02*
X001286Y006162D01*
X001286Y006064D02*
X001036Y006064D01*
X001036Y005965D02*
X001286Y005965D01*
X001368Y005867D02*
X001036Y005867D01*
X001036Y005768D02*
X001466Y005768D01*
X001565Y005670D02*
X001036Y005670D01*
X001036Y005571D02*
X012516Y005571D01*
X012516Y005473D02*
X011988Y005473D01*
X011826Y005670D02*
X011726Y005670D01*
X011726Y005768D02*
X011826Y005768D01*
X011826Y005867D02*
X011726Y005867D01*
X011726Y005965D02*
X011826Y005965D01*
X011826Y006064D02*
X011726Y006064D01*
X011726Y006162D02*
X002266Y006162D01*
X002266Y006064D02*
X010893Y006064D01*
X010920Y005965D02*
X002266Y005965D01*
X002184Y005867D02*
X010970Y005867D01*
X011054Y005768D02*
X002086Y005768D01*
X001987Y005670D02*
X011206Y005670D01*
X011326Y005374D02*
X009987Y005374D01*
X010054Y005347D02*
X009874Y005421D01*
X009679Y005421D01*
X009498Y005347D01*
X009361Y005209D01*
X009286Y005029D01*
X009286Y004274D01*
X009361Y004094D01*
X009498Y003956D01*
X009679Y003881D01*
X009874Y003881D01*
X010054Y003956D01*
X010191Y004094D01*
X010266Y004274D01*
X010266Y005029D01*
X010191Y005209D01*
X010054Y005347D01*
X010125Y005275D02*
X011213Y005275D01*
X011114Y005177D02*
X010205Y005177D01*
X010245Y005078D02*
X011044Y005078D01*
X011003Y004980D02*
X010266Y004980D01*
X010266Y004881D02*
X010962Y004881D01*
X010936Y004783D02*
X010266Y004783D01*
X010266Y004684D02*
X010936Y004684D01*
X010936Y004586D02*
X010266Y004586D01*
X010266Y004487D02*
X010936Y004487D01*
X010976Y004389D02*
X010266Y004389D01*
X010266Y004290D02*
X011017Y004290D01*
X011057Y004191D02*
X010232Y004191D01*
X010191Y004093D02*
X011146Y004093D01*
X011245Y003994D02*
X010542Y003994D01*
X010501Y004011D02*
X010271Y004011D01*
X010058Y003923D01*
X009894Y003760D01*
X009806Y003547D01*
X009806Y003316D01*
X009894Y003103D01*
X010058Y002939D01*
X010271Y002851D01*
X010501Y002851D01*
X010715Y002939D01*
X010878Y003103D01*
X010966Y003316D01*
X010966Y003547D01*
X010878Y003760D01*
X010715Y003923D01*
X010501Y004011D01*
X010742Y003896D02*
X011405Y003896D01*
X011719Y003699D02*
X010903Y003699D01*
X010944Y003600D02*
X011674Y003600D01*
X011651Y003502D02*
X010966Y003502D01*
X010966Y003403D02*
X012116Y003403D01*
X012116Y003305D02*
X012216Y003305D01*
X012216Y003206D02*
X012116Y003206D01*
X012116Y003107D02*
X012216Y003107D01*
X012216Y003009D02*
X012116Y003009D01*
X011862Y003009D02*
X010784Y003009D01*
X010880Y003107D02*
X011758Y003107D01*
X011697Y003206D02*
X010921Y003206D01*
X010961Y003305D02*
X011660Y003305D01*
X011797Y003797D02*
X010840Y003797D01*
X010230Y003994D02*
X010092Y003994D01*
X010031Y003896D02*
X009909Y003896D01*
X009932Y003797D02*
X009535Y003797D01*
X009563Y003770D02*
X009505Y003828D01*
X009439Y003876D01*
X009366Y003913D01*
X009288Y003938D01*
X009216Y003950D01*
X009216Y003481D01*
X009685Y003481D01*
X009673Y003553D01*
X009648Y003631D01*
X009611Y003704D01*
X009563Y003770D01*
X009613Y003699D02*
X009869Y003699D01*
X009828Y003600D02*
X009658Y003600D01*
X009681Y003502D02*
X009806Y003502D01*
X009806Y003403D02*
X009216Y003403D01*
X009216Y003381D02*
X009216Y003481D01*
X009116Y003481D01*
X009116Y003381D01*
X009216Y003381D01*
X009216Y002913D01*
X009288Y002924D01*
X009366Y002949D01*
X009439Y002986D01*
X009505Y003035D01*
X009563Y003092D01*
X009611Y003159D01*
X009648Y003232D01*
X009673Y003309D01*
X009685Y003381D01*
X009216Y003381D01*
X009216Y003305D02*
X009116Y003305D01*
X009116Y003381D02*
X009116Y002913D01*
X009044Y002924D01*
X008966Y002949D01*
X008894Y002986D01*
X008827Y003035D01*
X008769Y003092D01*
X008721Y003159D01*
X008684Y003232D01*
X008659Y003309D01*
X008647Y003381D01*
X009116Y003381D01*
X009116Y003403D02*
X007966Y003403D01*
X007966Y003316D02*
X007966Y003547D01*
X007878Y003760D01*
X007756Y003881D01*
X007874Y003881D01*
X008054Y003956D01*
X008191Y004094D01*
X008266Y004274D01*
X008266Y005029D01*
X008191Y005209D01*
X008054Y005347D01*
X007874Y005421D01*
X007679Y005421D01*
X007498Y005347D01*
X007361Y005209D01*
X007286Y005029D01*
X007286Y004274D01*
X007361Y004094D01*
X007443Y004011D01*
X007271Y004011D01*
X007058Y003923D01*
X006894Y003760D01*
X006806Y003547D01*
X006806Y003316D01*
X006894Y003103D01*
X007058Y002939D01*
X007271Y002851D01*
X007501Y002851D01*
X007715Y002939D01*
X007878Y003103D01*
X007966Y003316D01*
X007961Y003305D02*
X008660Y003305D01*
X008697Y003206D02*
X007921Y003206D01*
X007880Y003107D02*
X008758Y003107D01*
X008862Y003009D02*
X007784Y003009D01*
X007644Y002910D02*
X010128Y002910D01*
X009988Y003009D02*
X009470Y003009D01*
X009574Y003107D02*
X009892Y003107D01*
X009852Y003206D02*
X009635Y003206D01*
X009672Y003305D02*
X009811Y003305D01*
X009216Y003206D02*
X009116Y003206D01*
X009116Y003107D02*
X009216Y003107D01*
X009216Y003009D02*
X009116Y003009D01*
X009116Y003481D02*
X008647Y003481D01*
X008659Y003553D01*
X008684Y003631D01*
X008721Y003704D01*
X008769Y003770D01*
X008827Y003828D01*
X008894Y003876D01*
X008966Y003913D01*
X009044Y003938D01*
X009116Y003950D01*
X009116Y003481D01*
X009116Y003502D02*
X009216Y003502D01*
X009216Y003600D02*
X009116Y003600D01*
X009116Y003699D02*
X009216Y003699D01*
X009216Y003797D02*
X009116Y003797D01*
X009116Y003896D02*
X009216Y003896D01*
X009092Y003994D02*
X009460Y003994D01*
X009399Y003896D02*
X009643Y003896D01*
X009361Y004093D02*
X009191Y004093D01*
X009191Y004094D02*
X009266Y004274D01*
X009266Y005029D01*
X009191Y005209D01*
X009054Y005347D01*
X008874Y005421D01*
X008679Y005421D01*
X008498Y005347D01*
X008361Y005209D01*
X008286Y005029D01*
X008286Y004274D01*
X008361Y004094D01*
X008498Y003956D01*
X008679Y003881D01*
X008874Y003881D01*
X009054Y003956D01*
X009191Y004094D01*
X009232Y004191D02*
X009320Y004191D01*
X009286Y004290D02*
X009266Y004290D01*
X009266Y004389D02*
X009286Y004389D01*
X009286Y004487D02*
X009266Y004487D01*
X009266Y004586D02*
X009286Y004586D01*
X009286Y004684D02*
X009266Y004684D01*
X009266Y004783D02*
X009286Y004783D01*
X009286Y004881D02*
X009266Y004881D01*
X009266Y004980D02*
X009286Y004980D01*
X009307Y005078D02*
X009245Y005078D01*
X009205Y005177D02*
X009347Y005177D01*
X009427Y005275D02*
X009125Y005275D01*
X008987Y005374D02*
X009565Y005374D01*
X008565Y005374D02*
X007987Y005374D01*
X008125Y005275D02*
X008427Y005275D01*
X008347Y005177D02*
X008205Y005177D01*
X008245Y005078D02*
X008307Y005078D01*
X008286Y004980D02*
X008266Y004980D01*
X008266Y004881D02*
X008286Y004881D01*
X008286Y004783D02*
X008266Y004783D01*
X008266Y004684D02*
X008286Y004684D01*
X008286Y004586D02*
X008266Y004586D01*
X008266Y004487D02*
X008286Y004487D01*
X008286Y004389D02*
X008266Y004389D01*
X008266Y004290D02*
X008286Y004290D01*
X008320Y004191D02*
X008232Y004191D01*
X008191Y004093D02*
X008361Y004093D01*
X008460Y003994D02*
X008092Y003994D01*
X007909Y003896D02*
X008643Y003896D01*
X008797Y003797D02*
X007840Y003797D01*
X007903Y003699D02*
X008719Y003699D01*
X008674Y003600D02*
X007944Y003600D01*
X007966Y003502D02*
X008651Y003502D01*
X008909Y003896D02*
X008933Y003896D01*
X007565Y005374D02*
X006987Y005374D01*
X007054Y005347D02*
X006874Y005421D01*
X006679Y005421D01*
X006498Y005347D01*
X006361Y005209D01*
X006286Y005029D01*
X006286Y004274D01*
X006361Y004094D01*
X006498Y003956D01*
X006679Y003881D01*
X006874Y003881D01*
X007054Y003956D01*
X007191Y004094D01*
X007266Y004274D01*
X007266Y005029D01*
X007191Y005209D01*
X007054Y005347D01*
X007125Y005275D02*
X007427Y005275D01*
X007347Y005177D02*
X007205Y005177D01*
X007245Y005078D02*
X007307Y005078D01*
X007286Y004980D02*
X007266Y004980D01*
X007266Y004881D02*
X007286Y004881D01*
X007286Y004783D02*
X007266Y004783D01*
X007266Y004684D02*
X007286Y004684D01*
X007286Y004586D02*
X007266Y004586D01*
X007266Y004487D02*
X007286Y004487D01*
X007286Y004389D02*
X007266Y004389D01*
X007266Y004290D02*
X007286Y004290D01*
X007320Y004191D02*
X007232Y004191D01*
X007191Y004093D02*
X007361Y004093D01*
X007230Y003994D02*
X007092Y003994D01*
X007031Y003896D02*
X006909Y003896D01*
X006932Y003797D02*
X006535Y003797D01*
X006613Y003699D02*
X006869Y003699D01*
X006828Y003600D02*
X006658Y003600D01*
X006681Y003502D02*
X006806Y003502D01*
X006806Y003403D02*
X006216Y003403D01*
X006216Y003305D02*
X006116Y003305D01*
X006116Y003381D02*
X006116Y002913D01*
X006044Y002924D01*
X005966Y002949D01*
X005894Y002986D01*
X005827Y003035D01*
X005769Y003092D01*
X005721Y003159D01*
X005684Y003232D01*
X005659Y003309D01*
X005647Y003381D01*
X006116Y003381D01*
X006116Y003403D02*
X005586Y003403D01*
X005586Y003305D02*
X005660Y003305D01*
X005697Y003206D02*
X005586Y003206D01*
X005586Y003107D02*
X005758Y003107D01*
X005862Y003009D02*
X005586Y003009D01*
X005586Y002910D02*
X007128Y002910D01*
X006988Y003009D02*
X006470Y003009D01*
X006574Y003107D02*
X006892Y003107D01*
X006852Y003206D02*
X006635Y003206D01*
X006672Y003305D02*
X006811Y003305D01*
X006216Y003206D02*
X006116Y003206D01*
X006116Y003107D02*
X006216Y003107D01*
X006216Y003009D02*
X006116Y003009D01*
X005586Y002812D02*
X012516Y002812D01*
X012516Y002910D02*
X010644Y002910D01*
X010547Y001432D02*
X012516Y001432D01*
X012516Y001334D02*
X012404Y001334D01*
X012216Y001334D02*
X012116Y001334D01*
X012116Y001235D02*
X012216Y001235D01*
X012216Y001137D02*
X012116Y001137D01*
X012116Y001038D02*
X012216Y001038D01*
X012216Y000940D02*
X012116Y000940D01*
X012116Y000841D02*
X010966Y000841D01*
X010966Y000940D02*
X011650Y000940D01*
X011674Y001038D02*
X010945Y001038D01*
X010904Y001137D02*
X011718Y001137D01*
X011795Y001235D02*
X010842Y001235D01*
X010744Y001334D02*
X011928Y001334D01*
X012516Y001531D02*
X001036Y001531D01*
X001036Y001629D02*
X012516Y001629D01*
X012516Y001728D02*
X001036Y001728D01*
X001036Y001826D02*
X012516Y001826D01*
X012516Y001925D02*
X005488Y001925D01*
X005559Y002024D02*
X012516Y002024D01*
X012516Y002122D02*
X005586Y002122D01*
X005586Y002221D02*
X012516Y002221D01*
X012516Y002319D02*
X005586Y002319D01*
X005586Y002418D02*
X012516Y002418D01*
X012516Y002516D02*
X005586Y002516D01*
X005586Y002615D02*
X012516Y002615D01*
X012516Y002713D02*
X005586Y002713D01*
X004966Y002713D02*
X002152Y002713D01*
X002251Y002615D02*
X004966Y002615D01*
X004966Y002516D02*
X002349Y002516D01*
X002054Y002812D02*
X004966Y002812D01*
X004966Y002910D02*
X004644Y002910D01*
X004715Y002939D02*
X004501Y002851D01*
X004271Y002851D01*
X004058Y002939D01*
X003894Y003103D01*
X003806Y003316D01*
X003806Y003547D01*
X003894Y003760D01*
X004058Y003923D01*
X004271Y004011D01*
X004443Y004011D01*
X004361Y004094D01*
X004286Y004274D01*
X004286Y005029D01*
X004361Y005209D01*
X004498Y005347D01*
X004679Y005421D01*
X004874Y005421D01*
X005054Y005347D01*
X005191Y005209D01*
X005266Y005029D01*
X005266Y004274D01*
X005191Y004094D01*
X005054Y003956D01*
X004874Y003881D01*
X004756Y003881D01*
X004878Y003760D01*
X004966Y003547D01*
X004966Y003316D01*
X004878Y003103D01*
X004715Y002939D01*
X004784Y003009D02*
X004966Y003009D01*
X004966Y003107D02*
X004880Y003107D01*
X004921Y003206D02*
X004966Y003206D01*
X004961Y003305D02*
X004966Y003305D01*
X004966Y003403D02*
X004966Y003403D01*
X004966Y003502D02*
X004966Y003502D01*
X004966Y003600D02*
X004944Y003600D01*
X004966Y003699D02*
X004903Y003699D01*
X004840Y003797D02*
X005001Y003797D01*
X005082Y003896D02*
X004909Y003896D01*
X005092Y003994D02*
X005181Y003994D01*
X005191Y004093D02*
X005279Y004093D01*
X005320Y004191D02*
X005232Y004191D01*
X005266Y004290D02*
X005286Y004290D01*
X005286Y004389D02*
X005266Y004389D01*
X005266Y004487D02*
X005286Y004487D01*
X005286Y004586D02*
X005266Y004586D01*
X005266Y004684D02*
X005286Y004684D01*
X005286Y004783D02*
X005266Y004783D01*
X005266Y004881D02*
X005286Y004881D01*
X005286Y004980D02*
X005266Y004980D01*
X005245Y005078D02*
X005307Y005078D01*
X005347Y005177D02*
X005205Y005177D01*
X005125Y005275D02*
X005427Y005275D01*
X005565Y005374D02*
X004987Y005374D01*
X004565Y005374D02*
X003987Y005374D01*
X004054Y005347D02*
X003874Y005421D01*
X003679Y005421D01*
X003498Y005347D01*
X003361Y005209D01*
X003286Y005029D01*
X003286Y004274D01*
X003361Y004094D01*
X003498Y003956D01*
X003679Y003881D01*
X003874Y003881D01*
X004054Y003956D01*
X004191Y004094D01*
X004266Y004274D01*
X004266Y005029D01*
X004191Y005209D01*
X004054Y005347D01*
X004125Y005275D02*
X004427Y005275D01*
X004347Y005177D02*
X004205Y005177D01*
X004245Y005078D02*
X004307Y005078D01*
X004286Y004980D02*
X004266Y004980D01*
X004266Y004881D02*
X004286Y004881D01*
X004286Y004783D02*
X004266Y004783D01*
X004266Y004684D02*
X004286Y004684D01*
X004286Y004586D02*
X004266Y004586D01*
X004266Y004487D02*
X004286Y004487D01*
X004286Y004389D02*
X004266Y004389D01*
X004266Y004290D02*
X004286Y004290D01*
X004320Y004191D02*
X004232Y004191D01*
X004191Y004093D02*
X004361Y004093D01*
X004230Y003994D02*
X004092Y003994D01*
X004031Y003896D02*
X003909Y003896D01*
X003932Y003797D02*
X003535Y003797D01*
X003563Y003770D02*
X003505Y003828D01*
X003439Y003876D01*
X003366Y003913D01*
X003288Y003938D01*
X003216Y003950D01*
X003216Y003481D01*
X003685Y003481D01*
X003673Y003553D01*
X003648Y003631D01*
X003611Y003704D01*
X003563Y003770D01*
X003613Y003699D02*
X003869Y003699D01*
X003828Y003600D02*
X003658Y003600D01*
X003681Y003502D02*
X003806Y003502D01*
X003806Y003403D02*
X003216Y003403D01*
X003216Y003381D02*
X003216Y003481D01*
X003116Y003481D01*
X003116Y003381D01*
X003216Y003381D01*
X003216Y002913D01*
X003288Y002924D01*
X003366Y002949D01*
X003439Y002986D01*
X003505Y003035D01*
X003563Y003092D01*
X003611Y003159D01*
X003648Y003232D01*
X003673Y003309D01*
X003685Y003381D01*
X003216Y003381D01*
X003216Y003305D02*
X003116Y003305D01*
X003116Y003381D02*
X003116Y002913D01*
X003044Y002924D01*
X002966Y002949D01*
X002894Y002986D01*
X002827Y003035D01*
X002769Y003092D01*
X002721Y003159D01*
X002684Y003232D01*
X002659Y003309D01*
X002647Y003381D01*
X003116Y003381D01*
X003116Y003403D02*
X001966Y003403D01*
X001961Y003305D02*
X002660Y003305D01*
X002697Y003206D02*
X001921Y003206D01*
X001880Y003107D02*
X002758Y003107D01*
X002862Y003009D02*
X001857Y003009D01*
X001955Y002910D02*
X004128Y002910D01*
X003988Y003009D02*
X003470Y003009D01*
X003574Y003107D02*
X003892Y003107D01*
X003852Y003206D02*
X003635Y003206D01*
X003672Y003305D02*
X003811Y003305D01*
X003216Y003206D02*
X003116Y003206D01*
X003116Y003107D02*
X003216Y003107D01*
X003216Y003009D02*
X003116Y003009D01*
X003116Y003481D02*
X002647Y003481D01*
X002659Y003553D01*
X002684Y003631D01*
X002721Y003704D01*
X002769Y003770D01*
X002827Y003828D01*
X002894Y003876D01*
X002966Y003913D01*
X003044Y003938D01*
X003116Y003950D01*
X003116Y003481D01*
X003116Y003502D02*
X003216Y003502D01*
X003216Y003600D02*
X003116Y003600D01*
X003116Y003699D02*
X003216Y003699D01*
X003216Y003797D02*
X003116Y003797D01*
X003116Y003896D02*
X003216Y003896D01*
X003361Y004093D02*
X002406Y004093D01*
X002495Y004191D02*
X003320Y004191D01*
X003286Y004290D02*
X002536Y004290D01*
X002576Y004389D02*
X003286Y004389D01*
X003286Y004487D02*
X002616Y004487D01*
X002616Y004586D02*
X003286Y004586D01*
X003286Y004684D02*
X002616Y004684D01*
X002616Y004783D02*
X003286Y004783D01*
X003286Y004881D02*
X002590Y004881D01*
X002549Y004980D02*
X003286Y004980D01*
X003307Y005078D02*
X002508Y005078D01*
X002438Y005177D02*
X003347Y005177D01*
X003427Y005275D02*
X002340Y005275D01*
X002226Y005374D02*
X003565Y005374D01*
X002266Y006261D02*
X010897Y006261D01*
X010929Y006359D02*
X002261Y006359D01*
X002162Y006458D02*
X010986Y006458D01*
X011079Y006556D02*
X002064Y006556D01*
X001036Y006754D02*
X010983Y006754D01*
X010902Y006852D02*
X001036Y006852D01*
X001036Y006951D02*
X003682Y006951D01*
X003675Y006952D02*
X003742Y006941D01*
X003746Y006941D01*
X003746Y007621D01*
X003806Y007621D01*
X003806Y006941D01*
X003810Y006941D01*
X003877Y006952D01*
X003941Y006973D01*
X004001Y007003D01*
X004056Y007043D01*
X004104Y007091D01*
X004144Y007146D01*
X004175Y007206D01*
X004195Y007270D01*
X004206Y007337D01*
X004206Y007621D01*
X003806Y007621D01*
X003806Y007681D01*
X004206Y007681D01*
X004206Y007965D01*
X004195Y008032D01*
X004175Y008096D01*
X004144Y008157D01*
X004104Y008211D01*
X004056Y008259D01*
X004001Y008299D01*
X003941Y008330D01*
X003877Y008351D01*
X003810Y008361D01*
X003806Y008361D01*
X003806Y007681D01*
X003746Y007681D01*
X003746Y007621D01*
X003346Y007621D01*
X003346Y007337D01*
X003357Y007270D01*
X003378Y007206D01*
X003408Y007146D01*
X003448Y007091D01*
X003496Y007043D01*
X003551Y007003D01*
X003611Y006973D01*
X003675Y006952D01*
X003746Y006951D02*
X003806Y006951D01*
X003870Y006951D02*
X004511Y006951D01*
X004498Y006956D02*
X004679Y006881D01*
X004874Y006881D01*
X005054Y006956D01*
X005191Y007094D01*
X005266Y007274D01*
X005266Y008029D01*
X005191Y008209D01*
X005054Y008347D01*
X004874Y008421D01*
X004679Y008421D01*
X004498Y008347D01*
X004361Y008209D01*
X004286Y008029D01*
X004286Y007274D01*
X004361Y007094D01*
X004498Y006956D01*
X004405Y007049D02*
X004062Y007049D01*
X004145Y007148D02*
X004338Y007148D01*
X004297Y007246D02*
X004188Y007246D01*
X004206Y007345D02*
X004286Y007345D01*
X004286Y007443D02*
X004206Y007443D01*
X004206Y007542D02*
X004286Y007542D01*
X004286Y007640D02*
X003806Y007640D01*
X003746Y007640D02*
X001036Y007640D01*
X001036Y007542D02*
X003346Y007542D01*
X003346Y007443D02*
X001036Y007443D01*
X001036Y007345D02*
X003346Y007345D01*
X003364Y007246D02*
X001036Y007246D01*
X001036Y007148D02*
X003407Y007148D01*
X003490Y007049D02*
X001036Y007049D01*
X001036Y007739D02*
X003346Y007739D01*
X003346Y007681D02*
X003746Y007681D01*
X003746Y008361D01*
X003742Y008361D01*
X003675Y008351D01*
X003611Y008330D01*
X003551Y008299D01*
X003496Y008259D01*
X003448Y008211D01*
X003408Y008157D01*
X003378Y008096D01*
X003357Y008032D01*
X003346Y007965D01*
X003346Y007681D01*
X003346Y007838D02*
X001036Y007838D01*
X001036Y007936D02*
X003346Y007936D01*
X003358Y008035D02*
X001036Y008035D01*
X001036Y008133D02*
X003396Y008133D01*
X003469Y008232D02*
X001036Y008232D01*
X001036Y008330D02*
X003613Y008330D01*
X003746Y008330D02*
X003806Y008330D01*
X003806Y008232D02*
X003746Y008232D01*
X003746Y008133D02*
X003806Y008133D01*
X003806Y008035D02*
X003746Y008035D01*
X003746Y007936D02*
X003806Y007936D01*
X003806Y007838D02*
X003746Y007838D01*
X003746Y007739D02*
X003806Y007739D01*
X003806Y007542D02*
X003746Y007542D01*
X003746Y007443D02*
X003806Y007443D01*
X003806Y007345D02*
X003746Y007345D01*
X003746Y007246D02*
X003806Y007246D01*
X003806Y007148D02*
X003746Y007148D01*
X003746Y007049D02*
X003806Y007049D01*
X004206Y007739D02*
X004286Y007739D01*
X004286Y007838D02*
X004206Y007838D01*
X004206Y007936D02*
X004286Y007936D01*
X004289Y008035D02*
X004195Y008035D01*
X004156Y008133D02*
X004329Y008133D01*
X004384Y008232D02*
X004084Y008232D01*
X003939Y008330D02*
X004482Y008330D01*
X005070Y008330D02*
X005482Y008330D01*
X005498Y008347D02*
X005361Y008209D01*
X005286Y008029D01*
X005286Y007274D01*
X005361Y007094D01*
X005498Y006956D01*
X005679Y006881D01*
X005874Y006881D01*
X006054Y006956D01*
X006191Y007094D01*
X006266Y007274D01*
X006266Y008029D01*
X006191Y008209D01*
X006054Y008347D01*
X005874Y008421D01*
X005679Y008421D01*
X005498Y008347D01*
X005384Y008232D02*
X005168Y008232D01*
X005223Y008133D02*
X005329Y008133D01*
X005289Y008035D02*
X005264Y008035D01*
X005266Y007936D02*
X005286Y007936D01*
X005286Y007838D02*
X005266Y007838D01*
X005266Y007739D02*
X005286Y007739D01*
X005286Y007640D02*
X005266Y007640D01*
X005266Y007542D02*
X005286Y007542D01*
X005286Y007443D02*
X005266Y007443D01*
X005266Y007345D02*
X005286Y007345D01*
X005297Y007246D02*
X005255Y007246D01*
X005214Y007148D02*
X005338Y007148D01*
X005405Y007049D02*
X005147Y007049D01*
X005041Y006951D02*
X005511Y006951D01*
X006041Y006951D02*
X006511Y006951D01*
X006498Y006956D02*
X006679Y006881D01*
X006874Y006881D01*
X007054Y006956D01*
X007191Y007094D01*
X007266Y007274D01*
X007266Y008029D01*
X007191Y008209D01*
X007054Y008347D01*
X006874Y008421D01*
X006679Y008421D01*
X006498Y008347D01*
X006361Y008209D01*
X006286Y008029D01*
X006286Y007274D01*
X006361Y007094D01*
X006498Y006956D01*
X006405Y007049D02*
X006147Y007049D01*
X006214Y007148D02*
X006338Y007148D01*
X006297Y007246D02*
X006255Y007246D01*
X006266Y007345D02*
X006286Y007345D01*
X006286Y007443D02*
X006266Y007443D01*
X006266Y007542D02*
X006286Y007542D01*
X006286Y007640D02*
X006266Y007640D01*
X006266Y007739D02*
X006286Y007739D01*
X006286Y007838D02*
X006266Y007838D01*
X006266Y007936D02*
X006286Y007936D01*
X006289Y008035D02*
X006264Y008035D01*
X006223Y008133D02*
X006329Y008133D01*
X006384Y008232D02*
X006168Y008232D01*
X006070Y008330D02*
X006482Y008330D01*
X006479Y008661D02*
X006766Y008948D01*
X006766Y009354D01*
X006479Y009641D01*
X006073Y009641D01*
X005786Y009354D01*
X005786Y008948D01*
X006073Y008661D01*
X006479Y008661D01*
X006542Y008724D02*
X007010Y008724D01*
X007073Y008661D02*
X007479Y008661D01*
X007766Y008948D01*
X007766Y009354D01*
X007479Y009641D01*
X007073Y009641D01*
X006786Y009354D01*
X006786Y008948D01*
X007073Y008661D01*
X006911Y008823D02*
X006641Y008823D01*
X006739Y008922D02*
X006813Y008922D01*
X006786Y009020D02*
X006766Y009020D01*
X006766Y009119D02*
X006786Y009119D01*
X006786Y009217D02*
X006766Y009217D01*
X006766Y009316D02*
X006786Y009316D01*
X006846Y009414D02*
X006706Y009414D01*
X006607Y009513D02*
X006945Y009513D01*
X007043Y009611D02*
X006509Y009611D01*
X006399Y009808D02*
X007153Y009808D01*
X006951Y009907D02*
X006601Y009907D01*
X006700Y010006D02*
X006852Y010006D01*
X006796Y010104D02*
X006756Y010104D01*
X006153Y009808D02*
X005399Y009808D01*
X005601Y009907D02*
X005951Y009907D01*
X005852Y010006D02*
X005700Y010006D01*
X005756Y010104D02*
X005796Y010104D01*
X006043Y009611D02*
X003509Y009611D01*
X003479Y009641D02*
X003073Y009641D01*
X002786Y009354D01*
X002786Y008948D01*
X003073Y008661D01*
X003479Y008661D01*
X003766Y008948D01*
X003766Y009354D01*
X003479Y009641D01*
X003607Y009513D02*
X005945Y009513D01*
X005846Y009414D02*
X003706Y009414D01*
X003766Y009316D02*
X005786Y009316D01*
X005786Y009217D02*
X003766Y009217D01*
X003766Y009119D02*
X005786Y009119D01*
X005786Y009020D02*
X003766Y009020D01*
X003739Y008922D02*
X005813Y008922D01*
X005911Y008823D02*
X003641Y008823D01*
X003542Y008724D02*
X006010Y008724D01*
X007070Y008330D02*
X007482Y008330D01*
X007498Y008347D02*
X007361Y008209D01*
X007286Y008029D01*
X007286Y007274D01*
X007361Y007094D01*
X007498Y006956D01*
X007679Y006881D01*
X007874Y006881D01*
X008054Y006956D01*
X008191Y007094D01*
X008266Y007274D01*
X008266Y008029D01*
X008191Y008209D01*
X008054Y008347D01*
X007874Y008421D01*
X007679Y008421D01*
X007498Y008347D01*
X007384Y008232D02*
X007168Y008232D01*
X007223Y008133D02*
X007329Y008133D01*
X007289Y008035D02*
X007264Y008035D01*
X007266Y007936D02*
X007286Y007936D01*
X007286Y007838D02*
X007266Y007838D01*
X007266Y007739D02*
X007286Y007739D01*
X007286Y007640D02*
X007266Y007640D01*
X007266Y007542D02*
X007286Y007542D01*
X007286Y007443D02*
X007266Y007443D01*
X007266Y007345D02*
X007286Y007345D01*
X007297Y007246D02*
X007255Y007246D01*
X007214Y007148D02*
X007338Y007148D01*
X007405Y007049D02*
X007147Y007049D01*
X007041Y006951D02*
X007511Y006951D01*
X008041Y006951D02*
X008511Y006951D01*
X008405Y007049D02*
X008147Y007049D01*
X008214Y007148D02*
X008338Y007148D01*
X008297Y007246D02*
X008255Y007246D01*
X008266Y007345D02*
X008286Y007345D01*
X008286Y007443D02*
X008266Y007443D01*
X008266Y007542D02*
X008286Y007542D01*
X008286Y007640D02*
X008266Y007640D01*
X008266Y007739D02*
X008286Y007739D01*
X008286Y007838D02*
X008266Y007838D01*
X008266Y007936D02*
X008286Y007936D01*
X008289Y008035D02*
X008264Y008035D01*
X008223Y008133D02*
X008329Y008133D01*
X008384Y008232D02*
X008168Y008232D01*
X008070Y008330D02*
X008466Y008330D01*
X008466Y008429D02*
X001036Y008429D01*
X001036Y008527D02*
X008466Y008527D01*
X008466Y008626D02*
X001036Y008626D01*
X001036Y008724D02*
X001510Y008724D01*
X001573Y008661D02*
X001979Y008661D01*
X002266Y008948D01*
X002266Y009354D01*
X001979Y009641D01*
X001573Y009641D01*
X001286Y009354D01*
X001286Y008948D01*
X001573Y008661D01*
X001411Y008823D02*
X001036Y008823D01*
X001036Y008922D02*
X001313Y008922D01*
X001286Y009020D02*
X001036Y009020D01*
X001036Y009119D02*
X001286Y009119D01*
X001286Y009217D02*
X001036Y009217D01*
X001036Y009316D02*
X001286Y009316D01*
X001346Y009414D02*
X001036Y009414D01*
X001036Y009513D02*
X001445Y009513D01*
X001543Y009611D02*
X001036Y009611D01*
X001036Y009710D02*
X009396Y009710D01*
X009399Y009808D02*
X009495Y009808D01*
X009298Y009611D02*
X007509Y009611D01*
X007607Y009513D02*
X009199Y009513D01*
X009101Y009414D02*
X007706Y009414D01*
X007766Y009316D02*
X009002Y009316D01*
X008904Y009217D02*
X007766Y009217D01*
X007766Y009119D02*
X008805Y009119D01*
X008707Y009020D02*
X007766Y009020D01*
X007739Y008922D02*
X008608Y008922D01*
X008512Y008823D02*
X007641Y008823D01*
X007542Y008724D02*
X008471Y008724D01*
X009091Y008527D02*
X011332Y008527D01*
X011263Y008429D02*
X009086Y008429D01*
X009086Y008330D02*
X009482Y008330D01*
X009498Y008347D02*
X009361Y008209D01*
X009286Y008029D01*
X009286Y007274D01*
X009361Y007094D01*
X009498Y006956D01*
X009679Y006881D01*
X009874Y006881D01*
X010054Y006956D01*
X010191Y007094D01*
X010266Y007274D01*
X010266Y008029D01*
X010191Y008209D01*
X010054Y008347D01*
X009874Y008421D01*
X009679Y008421D01*
X009498Y008347D01*
X009384Y008232D02*
X009168Y008232D01*
X009223Y008133D02*
X009329Y008133D01*
X009289Y008035D02*
X009264Y008035D01*
X009266Y007936D02*
X009286Y007936D01*
X009286Y007838D02*
X009266Y007838D01*
X009266Y007739D02*
X009286Y007739D01*
X009286Y007640D02*
X009266Y007640D01*
X009266Y007542D02*
X009286Y007542D01*
X009286Y007443D02*
X009266Y007443D01*
X009266Y007345D02*
X009286Y007345D01*
X009297Y007246D02*
X009255Y007246D01*
X009214Y007148D02*
X009338Y007148D01*
X009405Y007049D02*
X009147Y007049D01*
X009041Y006951D02*
X009511Y006951D01*
X010041Y006951D02*
X010861Y006951D01*
X010826Y007049D02*
X010147Y007049D01*
X010214Y007148D02*
X010826Y007148D01*
X010826Y007246D02*
X010255Y007246D01*
X010266Y007345D02*
X010859Y007345D01*
X010899Y007443D02*
X010266Y007443D01*
X010266Y007542D02*
X010977Y007542D01*
X011075Y007640D02*
X010266Y007640D01*
X010266Y007739D02*
X011368Y007739D01*
X011278Y007838D02*
X010266Y007838D01*
X010266Y007936D02*
X011237Y007936D01*
X011197Y008035D02*
X010264Y008035D01*
X010223Y008133D02*
X011196Y008133D01*
X011196Y008232D02*
X010168Y008232D01*
X010070Y008330D02*
X011222Y008330D01*
X011431Y008626D02*
X009189Y008626D01*
X009288Y008724D02*
X010010Y008724D01*
X009911Y008823D02*
X009386Y008823D01*
X009485Y008922D02*
X009813Y008922D01*
X009786Y009020D02*
X009583Y009020D01*
X009682Y009119D02*
X009786Y009119D01*
X009780Y009217D02*
X009786Y009217D01*
X010273Y009710D02*
X012516Y009710D01*
X012516Y009808D02*
X010399Y009808D01*
X010601Y009907D02*
X011378Y009907D01*
X011234Y010006D02*
X010700Y010006D01*
X010756Y010104D02*
X011135Y010104D01*
X011053Y010203D02*
X010796Y010203D01*
X010806Y010301D02*
X011012Y010301D01*
X010971Y010400D02*
X010806Y010400D01*
X010806Y010498D02*
X010936Y010498D01*
X010936Y010597D02*
X010806Y010597D01*
X010806Y010695D02*
X010936Y010695D01*
X010936Y010794D02*
X010806Y010794D01*
X010806Y010892D02*
X010967Y010892D01*
X011008Y010991D02*
X010806Y010991D01*
X010801Y011089D02*
X011049Y011089D01*
X011125Y011188D02*
X010760Y011188D01*
X010710Y011287D02*
X011224Y011287D01*
X011353Y011385D02*
X010612Y011385D01*
X012174Y009907D02*
X012516Y009907D01*
X012516Y010006D02*
X012318Y010006D01*
X012417Y010104D02*
X012516Y010104D01*
X012516Y010203D02*
X012499Y010203D01*
X012516Y009611D02*
X012018Y009611D01*
X012150Y009513D02*
X012516Y009513D01*
X012516Y009414D02*
X012226Y009414D01*
X012269Y009316D02*
X012516Y009316D01*
X012516Y009217D02*
X012292Y009217D01*
X012296Y009119D02*
X012516Y009119D01*
X012516Y009020D02*
X012280Y009020D01*
X012243Y008922D02*
X012516Y008922D01*
X012516Y008823D02*
X012180Y008823D01*
X012073Y008724D02*
X012516Y008724D01*
X012516Y008626D02*
X012121Y008626D01*
X012220Y008527D02*
X012516Y008527D01*
X012516Y008429D02*
X012289Y008429D01*
X012330Y008330D02*
X012516Y008330D01*
X012516Y008232D02*
X012356Y008232D01*
X012356Y008133D02*
X012516Y008133D01*
X012516Y008035D02*
X012356Y008035D01*
X012315Y007936D02*
X012516Y007936D01*
X012516Y007838D02*
X012274Y007838D01*
X012184Y007739D02*
X012516Y007739D01*
X012516Y007640D02*
X012477Y007640D01*
X011479Y008724D02*
X010542Y008724D01*
X010641Y008823D02*
X011372Y008823D01*
X011309Y008922D02*
X010739Y008922D01*
X010766Y009020D02*
X011272Y009020D01*
X011256Y009119D02*
X010766Y009119D01*
X010766Y009217D02*
X011260Y009217D01*
X011283Y009316D02*
X010766Y009316D01*
X010706Y009414D02*
X011326Y009414D01*
X011402Y009513D02*
X010607Y009513D01*
X010509Y009611D02*
X011534Y009611D01*
X011746Y009611D02*
X011806Y009611D01*
X011806Y009513D02*
X011746Y009513D01*
X011746Y009414D02*
X011806Y009414D01*
X011806Y009316D02*
X011746Y009316D01*
X011746Y009217D02*
X011806Y009217D01*
X009153Y009808D02*
X007399Y009808D01*
X007601Y009907D02*
X008073Y009907D01*
X008226Y009907D02*
X008326Y009907D01*
X008326Y010006D02*
X008226Y010006D01*
X008226Y010104D02*
X008326Y010104D01*
X008326Y010203D02*
X008226Y010203D01*
X008226Y010301D02*
X008326Y010301D01*
X008326Y010400D02*
X008226Y010400D01*
X008226Y010498D02*
X008326Y010498D01*
X008326Y010597D02*
X008226Y010597D01*
X008226Y010695D02*
X007806Y010695D01*
X007806Y010597D02*
X007806Y010597D01*
X007806Y010498D02*
X007806Y010498D01*
X007806Y010400D02*
X007806Y010400D01*
X007806Y010301D02*
X007806Y010301D01*
X007796Y010203D02*
X007824Y010203D01*
X007864Y010104D02*
X007756Y010104D01*
X007700Y010006D02*
X007937Y010006D01*
X008479Y009907D02*
X008951Y009907D01*
X008852Y010006D02*
X008615Y010006D01*
X008688Y010104D02*
X008796Y010104D01*
X008756Y010203D02*
X008728Y010203D01*
X008746Y010301D02*
X008746Y010301D01*
X008746Y010400D02*
X008746Y010400D01*
X008746Y010498D02*
X008746Y010498D01*
X008746Y010597D02*
X008746Y010597D01*
X008746Y010695D02*
X008326Y010695D01*
X008746Y010794D02*
X008746Y010794D01*
X008746Y010892D02*
X008746Y010892D01*
X008746Y010991D02*
X008746Y010991D01*
X008732Y011089D02*
X008751Y011089D01*
X008792Y011188D02*
X008693Y011188D01*
X008625Y011287D02*
X008842Y011287D01*
X008941Y011385D02*
X008499Y011385D01*
X008053Y011385D02*
X007612Y011385D01*
X007710Y011287D02*
X007927Y011287D01*
X007859Y011188D02*
X007760Y011188D01*
X007801Y011089D02*
X007820Y011089D01*
X007806Y010991D02*
X007806Y010991D01*
X007806Y010892D02*
X007806Y010892D01*
X007806Y010794D02*
X007806Y010794D01*
X005153Y009808D02*
X003399Y009808D01*
X003601Y009907D02*
X004073Y009907D01*
X004226Y009907D02*
X004326Y009907D01*
X004326Y010006D02*
X004226Y010006D01*
X004226Y010104D02*
X004326Y010104D01*
X004326Y010203D02*
X004226Y010203D01*
X004226Y010301D02*
X004326Y010301D01*
X004326Y010400D02*
X004226Y010400D01*
X004226Y010498D02*
X004326Y010498D01*
X004326Y010597D02*
X004226Y010597D01*
X004226Y010695D02*
X003806Y010695D01*
X003806Y010597D02*
X003806Y010597D01*
X003806Y010498D02*
X003806Y010498D01*
X003806Y010400D02*
X003806Y010400D01*
X003806Y010301D02*
X003806Y010301D01*
X003796Y010203D02*
X003824Y010203D01*
X003864Y010104D02*
X003756Y010104D01*
X003700Y010006D02*
X003937Y010006D01*
X004479Y009907D02*
X004951Y009907D01*
X004852Y010006D02*
X004615Y010006D01*
X004688Y010104D02*
X004796Y010104D01*
X004756Y010203D02*
X004728Y010203D01*
X004746Y010301D02*
X004746Y010301D01*
X004746Y010400D02*
X004746Y010400D01*
X004746Y010498D02*
X004746Y010498D01*
X004746Y010597D02*
X004746Y010597D01*
X004746Y010695D02*
X004326Y010695D01*
X004746Y010794D02*
X004746Y010794D01*
X004746Y010892D02*
X004746Y010892D01*
X004746Y010991D02*
X004746Y010991D01*
X004732Y011089D02*
X004751Y011089D01*
X004792Y011188D02*
X004693Y011188D01*
X004625Y011287D02*
X004842Y011287D01*
X004941Y011385D02*
X004499Y011385D01*
X004053Y011385D02*
X003612Y011385D01*
X003710Y011287D02*
X003927Y011287D01*
X003859Y011188D02*
X003760Y011188D01*
X003801Y011089D02*
X003820Y011089D01*
X003806Y010991D02*
X003806Y010991D01*
X003806Y010892D02*
X003806Y010892D01*
X003806Y010794D02*
X003806Y010794D01*
X002941Y011385D02*
X002199Y011385D01*
X002328Y011287D02*
X002842Y011287D01*
X002792Y011188D02*
X002427Y011188D01*
X002504Y011089D02*
X002751Y011089D01*
X002746Y010991D02*
X002544Y010991D01*
X002585Y010892D02*
X002746Y010892D01*
X002746Y010794D02*
X002616Y010794D01*
X002616Y010695D02*
X002746Y010695D01*
X002746Y010597D02*
X002616Y010597D01*
X002616Y010498D02*
X002746Y010498D01*
X002746Y010400D02*
X002581Y010400D01*
X002540Y010301D02*
X002746Y010301D01*
X002756Y010203D02*
X002499Y010203D01*
X002417Y010104D02*
X002796Y010104D01*
X002852Y010006D02*
X002318Y010006D01*
X002174Y009907D02*
X002951Y009907D01*
X003153Y009808D02*
X001036Y009808D01*
X001036Y009907D02*
X001378Y009907D01*
X001234Y010006D02*
X001036Y010006D01*
X001036Y010104D02*
X001135Y010104D01*
X001053Y010203D02*
X001036Y010203D01*
X002009Y009611D02*
X003043Y009611D01*
X002945Y009513D02*
X002107Y009513D01*
X002206Y009414D02*
X002846Y009414D01*
X002786Y009316D02*
X002266Y009316D01*
X002266Y009217D02*
X002786Y009217D01*
X002786Y009119D02*
X002266Y009119D01*
X002266Y009020D02*
X002786Y009020D01*
X002813Y008922D02*
X002239Y008922D01*
X002141Y008823D02*
X002911Y008823D01*
X003010Y008724D02*
X002042Y008724D01*
X001988Y005473D02*
X011564Y005473D01*
X012226Y005374D02*
X012516Y005374D01*
X012516Y005275D02*
X012340Y005275D01*
X012438Y005177D02*
X012516Y005177D01*
X012508Y005078D02*
X012516Y005078D01*
X012516Y005670D02*
X012346Y005670D01*
X012498Y005768D02*
X012516Y005768D01*
X012470Y003009D02*
X012516Y003009D01*
X010225Y001432D02*
X007547Y001432D01*
X007744Y001334D02*
X008928Y001334D01*
X008795Y001235D02*
X007842Y001235D01*
X007904Y001137D02*
X008718Y001137D01*
X008674Y001038D02*
X007945Y001038D01*
X007966Y000940D02*
X008650Y000940D01*
X008661Y000742D02*
X007960Y000742D01*
X007966Y000841D02*
X009116Y000841D01*
X009116Y000940D02*
X009216Y000940D01*
X009216Y001038D02*
X009116Y001038D01*
X009116Y001137D02*
X009216Y001137D01*
X009216Y001235D02*
X009116Y001235D01*
X009116Y001334D02*
X009216Y001334D01*
X009404Y001334D02*
X010028Y001334D01*
X009930Y001235D02*
X009537Y001235D01*
X009614Y001137D02*
X009868Y001137D01*
X009827Y001038D02*
X009659Y001038D01*
X009682Y000940D02*
X009806Y000940D01*
X009806Y000841D02*
X009216Y000841D01*
X009634Y000644D02*
X009852Y000644D01*
X009812Y000742D02*
X009671Y000742D01*
X009572Y000545D02*
X009893Y000545D01*
X009990Y000447D02*
X009467Y000447D01*
X008865Y000447D02*
X007782Y000447D01*
X007879Y000545D02*
X008760Y000545D01*
X008698Y000644D02*
X007920Y000644D01*
X007225Y001432D02*
X004547Y001432D01*
X004744Y001334D02*
X005928Y001334D01*
X005795Y001235D02*
X004842Y001235D01*
X004904Y001137D02*
X005718Y001137D01*
X005674Y001038D02*
X004945Y001038D01*
X004966Y000940D02*
X005650Y000940D01*
X005661Y000742D02*
X004960Y000742D01*
X004966Y000841D02*
X006116Y000841D01*
X006116Y000940D02*
X006216Y000940D01*
X006216Y001038D02*
X006116Y001038D01*
X006116Y001137D02*
X006216Y001137D01*
X006216Y001235D02*
X006116Y001235D01*
X006116Y001334D02*
X006216Y001334D01*
X006404Y001334D02*
X007028Y001334D01*
X006930Y001235D02*
X006537Y001235D01*
X006614Y001137D02*
X006868Y001137D01*
X006827Y001038D02*
X006659Y001038D01*
X006682Y000940D02*
X006806Y000940D01*
X006806Y000841D02*
X006216Y000841D01*
X006572Y000545D02*
X006893Y000545D01*
X006852Y000644D02*
X006634Y000644D01*
X006671Y000742D02*
X006812Y000742D01*
X006990Y000447D02*
X006467Y000447D01*
X005865Y000447D02*
X004782Y000447D01*
X004879Y000545D02*
X005760Y000545D01*
X005698Y000644D02*
X004920Y000644D01*
X004225Y001432D02*
X001547Y001432D01*
X001744Y001334D02*
X002928Y001334D01*
X002795Y001235D02*
X001842Y001235D01*
X001904Y001137D02*
X002718Y001137D01*
X002674Y001038D02*
X001945Y001038D01*
X001966Y000940D02*
X002650Y000940D01*
X002661Y000742D02*
X001960Y000742D01*
X001966Y000841D02*
X003116Y000841D01*
X003116Y000940D02*
X003216Y000940D01*
X003216Y001038D02*
X003116Y001038D01*
X003116Y001137D02*
X003216Y001137D01*
X003216Y001235D02*
X003116Y001235D01*
X003116Y001334D02*
X003216Y001334D01*
X003404Y001334D02*
X004028Y001334D01*
X003930Y001235D02*
X003537Y001235D01*
X003614Y001137D02*
X003868Y001137D01*
X003827Y001038D02*
X003659Y001038D01*
X003682Y000940D02*
X003806Y000940D01*
X003806Y000841D02*
X003216Y000841D01*
X003572Y000545D02*
X003893Y000545D01*
X003852Y000644D02*
X003634Y000644D01*
X003671Y000742D02*
X003812Y000742D01*
X003990Y000447D02*
X003467Y000447D01*
X002865Y000447D02*
X001782Y000447D01*
X001879Y000545D02*
X002760Y000545D01*
X002698Y000644D02*
X001920Y000644D01*
X001225Y001432D02*
X001036Y001432D01*
X001036Y001925D02*
X002064Y001925D01*
X001965Y002024D02*
X001036Y002024D01*
X001036Y002122D02*
X001867Y002122D01*
X001768Y002221D02*
X001036Y002221D01*
X001036Y002319D02*
X001670Y002319D01*
X001571Y002418D02*
X001036Y002418D01*
X001036Y002516D02*
X001473Y002516D01*
X001374Y002615D02*
X001036Y002615D01*
X001036Y002713D02*
X001276Y002713D01*
X001177Y002812D02*
X001036Y002812D01*
X001036Y002910D02*
X001078Y002910D01*
X001903Y003699D02*
X002719Y003699D01*
X002674Y003600D02*
X001944Y003600D01*
X001966Y003502D02*
X002651Y003502D01*
X002797Y003797D02*
X001840Y003797D01*
X002147Y003896D02*
X002933Y003896D01*
X003399Y003896D02*
X003643Y003896D01*
X003460Y003994D02*
X002307Y003994D01*
X001044Y005078D02*
X001036Y005078D01*
X001036Y005177D02*
X001114Y005177D01*
X001036Y005275D02*
X001213Y005275D01*
X001326Y005374D02*
X001036Y005374D01*
X001036Y005473D02*
X001564Y005473D01*
X005586Y003502D02*
X005651Y003502D01*
X005663Y003600D02*
X005674Y003600D01*
X006116Y003600D02*
X006216Y003600D01*
X006216Y003502D02*
X006116Y003502D01*
X006116Y003699D02*
X006216Y003699D01*
X006216Y003797D02*
X006116Y003797D01*
X006116Y003896D02*
X006216Y003896D01*
X006092Y003994D02*
X006460Y003994D01*
X006399Y003896D02*
X006643Y003896D01*
X006361Y004093D02*
X006191Y004093D01*
X006232Y004191D02*
X006320Y004191D01*
X006286Y004290D02*
X006266Y004290D01*
X006266Y004389D02*
X006286Y004389D01*
X006286Y004487D02*
X006266Y004487D01*
X006266Y004586D02*
X006286Y004586D01*
X006286Y004684D02*
X006266Y004684D01*
X006266Y004783D02*
X006286Y004783D01*
X006286Y004881D02*
X006266Y004881D01*
X006266Y004980D02*
X006286Y004980D01*
X006307Y005078D02*
X006245Y005078D01*
X006205Y005177D02*
X006347Y005177D01*
X006427Y005275D02*
X006125Y005275D01*
X005987Y005374D02*
X006565Y005374D01*
X010960Y000742D02*
X011661Y000742D01*
X011698Y000644D02*
X010920Y000644D01*
X010879Y000545D02*
X011760Y000545D01*
X011865Y000447D02*
X010782Y000447D01*
D16*
X005776Y004151D02*
X005276Y003651D01*
X005276Y002151D01*
X002276Y002151D01*
X001276Y003151D01*
X001386Y003431D01*
X005776Y004151D02*
X005776Y004651D01*
X008776Y007651D02*
X008776Y008651D01*
X010276Y010151D01*
X010276Y010651D01*
M02*
